<svg width="176" height="88" viewBox="0 0 176 88" fill="none" xmlns="http://www.w3.org/2000/svg">
<rect width="176" height="88" fill="white"/>
<path d="M15.5962 40.9585C15.3105 40.6364 14.882 40.6657 14.682 41.0463L10.054 50.5605C9.88256 50.9411 10.1397 51.3802 10.5396 51.3802H16.9961C17.196 51.3802 17.396 51.2632 17.4817 51.0583C18.9101 48.1015 18.0531 43.6224 15.5962 40.9585Z" fill="url(#paint0_linear_18_104)"/>
<path d="M18.9958 32.2931C16.3962 36.5087 16.5676 41.1634 18.2817 44.6763C19.9958 48.1893 21.3099 50.8532 21.3956 51.0582C21.4813 51.2632 21.6813 51.3802 21.8812 51.3802H28.3377C28.7376 51.3802 29.0233 50.9411 28.8233 50.5605C28.8233 50.5605 20.1386 32.7615 19.91 32.3224C19.7672 31.9126 19.253 31.8833 18.9958 32.2931Z" fill="#2684FF"/>
<path d="M106.757 46.6671C106.757 43.886 105.3 42.5686 101.243 41.6611C98.9864 41.1634 98.4435 40.6365 98.4435 39.9046C98.4435 38.9971 99.244 38.5873 100.73 38.5873C102.529 38.5873 104.3 39.1435 105.986 39.9339V36.2746C104.814 35.6598 102.986 35.1914 100.843 35.1914C96.8156 35.1914 94.7299 36.9772 94.7299 39.9339C94.7299 42.2758 95.7871 44.1495 99.9578 44.9691C102.443 45.4961 102.958 45.9059 102.958 46.7549C102.958 47.5746 102.443 48.1015 100.672 48.1015C98.6438 48.1015 96.2155 47.399 94.644 46.4329V50.2678C95.9015 50.9119 97.558 51.6145 100.644 51.6145C105.015 51.6145 106.757 49.6238 106.757 46.6671Z" fill="#0052CC"/>
<path d="M150.695 35.4255V51.3803H154.009V39.2312L155.409 42.4514L160.094 51.3803H164.265V35.4255H160.952V45.7302L159.694 42.7442L155.923 35.4255H150.695Z" fill="#0052CC"/>
<path d="M129.641 35.4255H126.012V51.351H129.641V35.4255Z" fill="#0052CC"/>
<path d="M121.813 46.6671C121.813 43.886 120.356 42.5686 116.299 41.6611C114.042 41.1634 113.499 40.6365 113.499 39.9046C113.499 38.9971 114.3 38.5873 115.784 38.5873C117.585 38.5873 119.356 39.1435 121.042 39.9339V36.2746C119.87 35.6598 118.042 35.1914 115.899 35.1914C111.871 35.1914 109.786 36.9772 109.786 39.9339C109.786 42.2758 110.843 44.1495 115.013 44.9691C117.499 45.4961 118.013 45.9059 118.013 46.7549C118.013 47.5746 117.499 48.1015 115.728 48.1015C113.7 48.1015 111.271 47.399 109.7 46.4329V50.2678C110.956 50.9119 112.614 51.6145 115.699 51.6145C120.098 51.6145 121.813 49.6238 121.813 46.6671Z" fill="#0052CC"/>
<path d="M66.6187 35.4255V51.3803H74.0464L75.2177 47.9258H70.2468V35.4255H66.6187Z" fill="#0052CC"/>
<path d="M51.9062 35.4263V38.8807H55.9343V51.381H59.5625V38.8807H63.8763V35.4263H51.9062Z" fill="#0052CC"/>
<path d="M46.6213 35.4263H41.8504L36.4224 51.3517H40.5648L41.3361 48.6584C42.2503 48.9219 43.2216 49.0976 44.2501 49.0976C45.25 49.0976 46.2213 48.9511 47.164 48.6584L47.9354 51.3517H52.0778L46.6213 35.4263ZM44.2216 45.8188C43.5359 45.8188 42.8503 45.7017 42.2217 45.5261L44.2216 38.5587L46.2213 45.5261C45.5928 45.7017 44.9358 45.8188 44.2216 45.8188Z" fill="#0052CC"/>
<path d="M86.9025 35.4255H82.1316L76.7036 51.351H80.846L81.6174 48.6577C82.5315 48.9211 83.5029 49.0968 84.5313 49.0968C85.5312 49.0968 86.5026 48.9505 87.4453 48.6577L88.2166 51.351H92.3589L86.9025 35.4255ZM84.5027 45.818C83.8171 45.818 83.1315 45.701 82.503 45.5253L84.5027 38.5579L86.5025 45.5253C85.874 45.701 85.1884 45.818 84.5027 45.818Z" fill="#0052CC"/>
<path d="M142.668 35.4255H137.896L132.469 51.351H136.611L137.382 48.6577C138.297 48.9211 139.268 49.0968 140.296 49.0968C141.296 49.0968 142.267 48.9505 143.21 48.6577L143.982 51.351H148.124L142.668 35.4255ZM140.296 45.818C139.611 45.818 138.925 45.701 138.297 45.5253L140.296 38.5579L142.296 45.5253C141.639 45.701 140.982 45.818 140.296 45.818Z" fill="#0052CC"/>
<defs>
<linearGradient id="paint0_linear_18_104" x1="18.1493" y1="42.4137" x2="13.0737" y2="50.9927" gradientUnits="userSpaceOnUse">
<stop stop-color="#0052CC"/>
<stop offset="0.9228" stop-color="#2684FF"/>
</linearGradient>
</defs>
</svg>
