<svg id="Layer_1" data-name="Layer 1" xmlns="http://www.w3.org/2000/svg" viewBox="0 0 188.18 80.74"><title>Goldman Sachs logo - Brandlogos.net</title><g id="Layer_1-2" data-name="Layer 1"><path d="M295.57,318.19H307v18.64a47.74,47.74,0,0,1-9.9,1.16c-12.48,0-16.88-7.15-16.88-18.92,0-12.65,6.1-19.8,18.26-19.8a55.78,55.78,0,0,1,8.08.66v11.93h-2.64l-1.49-4.56c-1.43-4.34-3.13-6.49-5.83-6.49-4.67,0-7.15,6.32-7.15,18.15s1,17.49,7.09,17.49a10.21,10.21,0,0,0,2.75-.38V322.2l-3.68-2.53v-1.48Zm11.16,50c0,7.48-5.11,11.77-14.13,11.77a65.18,65.18,0,0,1-9.51-.94V364.44h2.64l1.1,3.46c2.47,8,4.23,10.61,7.37,10.61,3.3,0,5.66-2.91,5.66-6.76,0-3.13-1.48-5.33-4.67-7l-5.5-3c-4.24-2.25-6.55-5.77-6.55-10.06,0-6.49,5.33-10.39,14.08-10.39a59.7,59.7,0,0,1,8,.66v11.93h-2.64l-1.48-4.56c-1.49-4.84-3.08-6.6-6-6.6a4.8,4.8,0,0,0-5.17,5.11c0,2.69,1.49,4.62,4.4,6.27l5.55,3.13C304.53,359.87,306.73,363.39,306.73,368.23ZM331,376.87l1.1,1.65v.83h-8.41l-.39-3.19c-.88,2.42-3.19,3.85-6.16,3.85-4.4,0-7.15-2.75-7.15-7.26s2.47-7.31,10.06-10.28l3.24-1.26v-4.12c0-3.63-.66-5.11-2.69-5.11-1.65,0-2.58.88-4.18,4.89l-1.81,4.49h-2.47v-9a33.15,33.15,0,0,1,9.29-1.65c6.21,0,9.57,3,9.57,8.36Zm3.18-53.51c0,9.35-5,14.63-11.44,14.63s-11.43-5.28-11.43-14.63,5-14.63,11.44-14.63S334.22,314,334.22,323.36Zm-10.88,48.89v-9.51l-1,.44c-3.25,1.32-4.46,4.29-4.46,8.63,0,3.25.77,5.11,2.58,5.11S323.34,375.16,323.34,372.25Zm2.8-48.89c0-10.56-.88-13.36-3.35-13.36s-3.35,2.8-3.35,13.36.88,13.36,3.35,13.36S326.14,333.92,326.14,323.36Zm27.61,49.16,1,.5c-1.76,5.06-4,7-8.36,7-7.09,0-11-5.33-11-14.63s4.62-14.63,12.15-14.63a19.81,19.81,0,0,1,7,1.26v9.35h-2.58l-1-3.52c-1.38-4.67-2.14-5.88-3.52-5.88-2.2,0-4,2.86-4,13.75,0,8.74,1.32,11.93,4.67,11.93C350.34,377.64,352.26,376.21,353.75,372.52Zm-6.11-35.19h-9.9v-.82l1.1-1.65V304.17l-1.1-1.65v-.83l8.8-.66v33.82l1.1,1.65Zm13.53.66c-6.05,0-9.68-5.5-9.68-14.9s3.79-14.35,9.62-14.35c3,0,4.62,1.15,5.33,3.46v-8l-1.1-1.65v-.83l8.8-.66v33.82l1.1,1.65v.82h-7.81l-.6-4.18C366,336.72,364.31,338,361.17,338Zm19.3,38.88,1.1,1.65v.83h-9.9v-.83l1.1-1.65v-19.8c0-2.36-.71-3.79-2.42-3.79-2,0-3.52,1.71-3.52,5.06v18.53l1.1,1.65v.83H358v-.83l1.1-1.65V346.18l-1.1-1.65v-.82l8.8-.66v11.38c1-2.36,3.24-3.68,6.43-3.68,4.51,0,7.2,2.86,7.2,8.41v17.71Zm-20.89-53.68c0,9.9.88,12.92,3.3,12.92,3,0,3.57-4.34,3.57-13,0-8.41-.6-12.59-3.52-12.59C360.46,310.49,359.58,313.46,359.58,323.19Zm55.21,11.66,1.1,1.65v.82H406v-.82l1.1-1.65v-20.4c0-2-.66-3.19-2.2-3.19-1.92,0-3.46,1.71-3.46,5v18.59l1.1,1.65v.82h-9.9v-.82l1.1-1.65v-20.4c0-2-.66-3.19-2.2-3.19-1.92,0-3.46,1.71-3.46,5v18.59l1.1,1.65v.82h-9.9v-.82l1.1-1.65V312.47l-1.1-1.32v-.82l7.92-.94h.66l.22,3.08c.93-2.42,3.24-3.74,6.38-3.74a6.35,6.35,0,0,1,6.54,4.62c.82-2.86,3.41-4.62,6.71-4.62,4.34,0,7.09,2.86,7.09,8.41Zm-10.28,36.41c0,4.78-3.08,8.74-10.5,8.74a48.65,48.65,0,0,1-8.52-.94V368.84h2.25l.71,2.2c1.76,5.61,3.46,7.7,6.16,7.7,2.53,0,4.18-1.82,4.18-4.62,0-2.31-1.16-3.9-3.9-5.39l-4.73-2.53a8.22,8.22,0,0,1-4.67-7.42c0-5,3.91-8,10.39-8a35.42,35.42,0,0,1,6.93.82v8h-2.25l-1.16-2.92c-1.32-3.52-2.58-4.67-4.67-4.67a3.25,3.25,0,0,0-3.57,3.52c0,1.87,1.1,3.13,3.79,4.67l4.67,2.64A8.92,8.92,0,0,1,404.51,371.26Zm35.58-36.41,1.1,1.65v.82h-8.41l-.38-3.19c-.88,2.42-3.19,3.85-6.16,3.85-4.4,0-7.15-2.75-7.15-7.26s2.47-7.31,10.06-10.28l3.24-1.26v-4.12c0-3.63-.66-5.11-2.69-5.11-1.65,0-2.58.88-4.18,4.89l-1.81,4.51h-2.48v-9a33.21,33.21,0,0,1,9.29-1.65c6.21,0,9.57,3,9.57,8.36Zm-7.7-4.62v-9.51l-1,.44c-3.24,1.32-4.45,4.29-4.45,8.63,0,3.25.77,5.12,2.58,5.12S432.39,333.15,432.39,330.23Zm36,6.27v.82h-9.9v-.82l1.1-1.65V315c0-2.37-.71-3.79-2.42-3.79-2,0-3.52,1.71-3.52,5.06v18.53l1.1,1.65v.82h-9.9v-.82l1.1-1.65V312.47l-1.1-1.32v-.82l7.92-.94h.66l.22,3.08c.93-2.42,3.19-3.74,6.43-3.74,4.51,0,7.2,2.86,7.2,8.41v17.71Z" transform="translate(-280.17 -299.27)"/></g></svg>