<svg width="176" height="88" viewBox="0 0 176 88" fill="none" xmlns="http://www.w3.org/2000/svg">
<rect width="176" height="88" fill="white"/>
<g clip-path="url(#clip0_18_69)">
<path d="M38.762 38.9864V43.4727H49.5854C49.2981 45.9545 48.436 47.8636 47.0951 49.1045C45.5625 50.6318 43.0722 52.35 38.762 52.35C32.153 52.35 26.9807 47.0045 26.9807 40.4182C26.9807 33.8318 32.0572 28.4864 38.762 28.4864C42.3059 28.4864 44.9878 29.9182 46.9035 31.7318L50.0643 28.5818C47.3824 26.0045 43.7427 24 38.762 24C29.6626 24 22 31.35 22 40.4182C22 49.4864 29.6626 56.8364 38.762 56.8364C43.6469 56.8364 47.3824 55.2136 50.2559 52.2545C53.2252 49.2955 54.183 45.0955 54.183 41.7545C54.183 40.7045 54.0872 39.75 53.9914 38.9864H38.762Z" fill="#4285F4"/>
<path d="M67.5924 35.2637C61.7497 35.2637 56.8647 39.75 56.8647 45.8591C56.8647 51.9682 61.6539 56.4546 67.5924 56.4546C73.5309 56.4546 78.3201 52.0637 78.3201 45.9546C78.3201 39.75 73.5309 35.2637 67.5924 35.2637ZM67.5924 52.35C64.3358 52.35 61.5581 49.6773 61.5581 45.9546C61.5581 42.1364 64.3358 39.5591 67.5924 39.5591C70.849 39.5591 73.6267 42.1364 73.6267 45.9546C73.6267 49.6773 70.849 52.35 67.5924 52.35Z" fill="#EA4335"/>
<path d="M119.986 37.65H119.794C118.741 36.4091 116.729 35.2637 114.143 35.2637C108.779 35.2637 104.182 39.8455 104.182 45.8591C104.182 51.7773 108.779 56.4546 114.143 56.4546C116.729 56.4546 118.741 55.3091 119.794 54.0682H119.986V55.5955C119.986 59.6046 117.783 61.8 114.335 61.8C111.461 61.8 109.737 59.7955 108.971 57.9819L104.948 59.7C106.097 62.4682 109.258 66 114.43 66C119.89 66 124.583 62.7546 124.583 54.9273V35.8364H120.177V37.65H119.986ZM114.622 52.35C111.365 52.35 108.971 49.5819 108.971 45.9546C108.971 42.2319 111.461 39.5591 114.622 39.5591C117.783 39.5591 120.273 42.3273 120.273 46.05C120.369 49.6773 117.879 52.35 114.622 52.35Z" fill="#4285F4"/>
<path d="M91.4425 35.2637C85.5998 35.2637 80.7148 39.75 80.7148 45.8591C80.7148 51.9682 85.504 56.4546 91.4425 56.4546C97.381 56.4546 102.17 52.0637 102.17 45.9546C102.17 39.75 97.381 35.2637 91.4425 35.2637ZM91.4425 52.35C88.1859 52.35 85.4082 49.6773 85.4082 45.9546C85.4082 42.1364 88.1859 39.5591 91.4425 39.5591C94.6991 39.5591 97.4768 42.1364 97.4768 45.9546C97.4768 49.6773 94.6991 52.35 91.4425 52.35Z" fill="#FBBC05"/>
<path d="M128.127 24.4773H132.725V56.55H128.127V24.4773Z" fill="#34A853"/>
<path d="M146.901 52.35C144.506 52.35 142.878 51.3 141.729 49.1046L156 43.2819L155.521 42.0409C154.659 39.6546 151.882 35.2637 146.422 35.2637C140.962 35.2637 136.365 39.5591 136.365 45.8591C136.365 51.7773 140.867 56.4546 146.901 56.4546C151.786 56.4546 154.563 53.4955 155.809 51.7773L152.169 49.3909C150.924 51.2046 149.295 52.35 146.901 52.35ZM146.613 39.2728C148.529 39.2728 150.157 40.2273 150.636 41.5637L141.058 45.5728C140.962 41.1819 144.219 39.2728 146.613 39.2728Z" fill="#EA4335"/>
</g>
<defs>
<clipPath id="clip0_18_69">
<rect width="134" height="42" fill="white" transform="translate(22 24)"/>
</clipPath>
</defs>
</svg>
