<svg width="176" height="88" viewBox="0 0 176 88" fill="none" xmlns="http://www.w3.org/2000/svg">
<rect width="176" height="88" fill="white"/>
<g clip-path="url(#clip0_18_80)">
<path d="M47.448 47.2409V29H43V47.4704C43 54.4111 47.9101 59 54.2644 59C57.3838 59 60.0988 57.7954 62.1207 55.7304V58.4837H66.5109V29H62.0629V47.2409C62.0629 51.9445 58.8858 55.0994 54.7843 55.0994C50.6252 55.0421 47.448 52.0019 47.448 47.2409ZM70.9012 58.5411H75.1181V55.8451C77.0822 57.8528 79.8549 59.0574 82.8588 59.0574C89.2131 59.0574 94.2388 54.0669 94.2388 47.8145C94.2388 41.5621 89.2131 36.5717 82.8588 36.5717C79.8549 36.5717 77.1399 37.7763 75.1759 39.7839V29H70.9012V58.5411ZM75.1181 47.8145C75.1181 43.6272 78.4685 40.3576 82.57 40.3576C86.6714 40.3576 90.0218 43.6272 90.0218 47.8145C90.0218 51.9445 86.6714 55.2715 82.57 55.2715C78.4108 55.2715 75.1181 51.9445 75.1181 47.8145ZM96.7805 47.7572C96.7805 54.1816 101.806 59 108.276 59C112.204 59 115.439 57.2792 117.634 54.4111L114.515 52.1166C112.897 54.239 110.76 55.2715 108.276 55.2715C104.637 55.2715 101.691 52.6329 101.113 49.1338H118.732V47.7572C118.732 41.3327 114.168 36.5717 107.929 36.5717C101.575 36.5717 96.7805 41.6769 96.7805 47.7572ZM107.814 40.3002C110.991 40.3002 113.648 42.4799 114.399 45.8069H101.171C101.979 42.4799 104.637 40.3002 107.814 40.3002ZM133 40.8164V36.8585H131.498C129.13 36.8585 127.397 37.9484 126.299 39.6692V37.0306H122.14V58.5411H126.415V46.2658C126.415 42.9388 128.436 40.7591 131.267 40.7591H133V40.8164Z" fill="black"/>
</g>
<defs>
<clipPath id="clip0_18_80">
<rect width="90" height="30" fill="white" transform="translate(43 29)"/>
</clipPath>
</defs>
</svg>
