<svg width="176" height="88" viewBox="0 0 176 88" fill="none" xmlns="http://www.w3.org/2000/svg">
<rect width="176" height="88" fill="white"/>
<g clip-path="url(#clip0_18_93)">
<mask id="mask0_18_93" style="mask-type:luminance" maskUnits="userSpaceOnUse" x="32" y="28" width="114" height="38">
<path d="M32 28H146V66H32V28Z" fill="white"/>
</mask>
<g mask="url(#mask0_18_93)">
<path fill-rule="evenodd" clip-rule="evenodd" d="M104.103 36.3727C104.099 36.075 104.156 35.7797 104.269 35.5042C104.382 35.2287 104.548 34.9785 104.759 34.7684C104.97 34.5583 105.221 34.3925 105.497 34.2808C105.773 34.1691 106.068 34.1138 106.366 34.118H107.96V30.8031C107.909 30.4543 107.935 30.0987 108.034 29.7606C108.134 29.4224 108.305 29.1097 108.536 28.8437C108.768 28.5777 109.054 28.3647 109.375 28.2191C109.696 28.0735 110.044 27.9988 110.397 28C110.927 28.0006 111.443 28.1724 111.869 28.4898C112.294 28.8073 112.605 29.2534 112.756 29.7619C112.858 30.0989 112.883 30.4548 112.832 30.8031V34.118H118.013C118.461 34.113 118.901 34.2425 119.275 34.4897C119.649 34.737 119.94 35.0906 120.111 35.505C120.251 35.8488 120.305 36.2219 120.267 36.5914C120.229 36.9609 120.101 37.3154 119.894 37.6237C119.687 37.932 119.407 38.1846 119.079 38.3592C118.752 38.5337 118.386 38.625 118.014 38.6248H112.834V46.6086C112.834 50.5011 115.005 52.491 118.014 52.491C118.618 52.492 119.197 52.7322 119.625 53.1589C120.052 53.5857 120.294 54.1644 120.296 54.7685C120.296 55.0681 120.237 55.3649 120.122 55.6418C120.008 55.9187 119.84 56.1702 119.628 56.3819C119.416 56.5936 119.164 56.7614 118.887 56.8755C118.61 56.9897 118.313 57.048 118.013 57.0472C112.298 57.0472 107.96 53.0243 107.96 46.6086V38.6261H106.366C105.768 38.6238 105.195 38.3858 104.771 37.9637C104.347 37.5416 104.107 36.9707 104.103 36.3727ZM84.1601 63.0309V54.3606C86.1879 56.1429 88.7996 57.1183 91.4992 57.1017C97.8667 57.1017 102.688 51.9273 102.688 45.3774C102.688 38.8287 97.8667 33.6544 91.4992 33.6544C88.7906 33.6299 86.1715 34.623 84.1601 36.4373V36.132C84.0976 35.6952 83.9186 35.2833 83.6419 34.9395C83.3653 34.5957 83.0011 34.3328 82.5877 34.1783C82.1744 34.0239 81.7271 33.9836 81.2927 34.0617C80.8584 34.1398 80.4531 34.3334 80.1195 34.6221C79.6721 35.0098 79.3798 35.546 79.2961 36.132V63.0322C79.3585 63.4693 79.5375 63.8815 79.8143 64.2254C80.091 64.5694 80.4553 64.8325 80.8689 64.987C81.2825 65.1414 81.7301 65.1817 82.1646 65.1034C82.5991 65.0251 83.0044 64.8312 83.3381 64.5421C83.7854 64.1544 84.0778 63.6182 84.1614 63.0322L84.1601 63.0309ZM90.971 38.1637C94.771 38.1637 97.7819 41.2607 97.7819 45.3774C97.7819 49.4941 94.7723 52.5911 90.971 52.5911C87.1697 52.5911 84.1601 49.4941 84.1601 45.3774V45.0645C84.2957 41.1315 87.1697 38.1637 90.971 38.1637ZM53.9793 45.3407C53.9968 43.1104 54.6459 40.9307 55.8514 39.0542C57.0555 37.1796 58.7673 35.6857 60.7876 34.7463C62.8063 33.8078 65.0505 33.4634 67.2577 33.7535C69.4649 34.0435 71.5439 34.9559 73.2516 36.3841C73.5164 36.6138 73.7312 36.8955 73.8827 37.2116C74.0341 37.5278 74.1189 37.8717 74.1319 38.222C74.1353 38.8822 73.8808 39.5175 73.4226 39.9928L66.6523 48.0741C66.4557 48.3295 66.2015 48.5346 65.9105 48.6729C65.6195 48.8111 65.2998 48.8785 64.9777 48.8696C64.5296 48.8939 64.085 48.7783 63.7054 48.5389C63.3258 48.2995 63.0299 47.9481 62.8586 47.5333C62.7449 47.258 62.6888 46.9622 62.6939 46.6643C62.6794 46.3986 62.7182 46.1326 62.8083 45.8822C62.8984 45.6318 63.0378 45.402 63.2183 45.2064L68.5472 38.9453C67.6749 38.4091 66.6678 38.1327 65.644 38.1485C61.8617 38.1485 58.8673 41.3279 58.8673 45.3407C58.8673 49.3535 61.8187 52.5328 65.644 52.5328C66.5167 52.5419 67.3818 52.3696 68.1844 52.0268C68.987 51.684 69.7097 51.1783 70.3066 50.5416L70.5764 50.3187C71.1464 49.8411 71.6201 49.4447 72.4207 49.4447C72.7326 49.431 73.0439 49.4817 73.3353 49.5938C73.6267 49.7058 73.8918 49.8767 74.1142 50.0957C74.3374 50.3148 74.5133 50.5773 74.631 50.8671C74.7486 51.1569 74.8056 51.4677 74.7982 51.7804C74.7529 52.3753 74.5022 52.936 74.0889 53.3663C73.0331 54.556 71.7305 55.5012 70.2721 56.1361C68.8136 56.7709 67.2342 57.0801 65.644 57.0421C64.1041 57.0664 62.5752 56.78 61.1484 56.2003C59.7216 55.6205 58.4263 54.7592 57.3397 53.6677C56.2507 52.5754 55.3921 51.2755 54.8149 49.8451C54.2376 48.4147 53.9535 46.8829 53.9793 45.3407ZM44.5439 38.5627H34.7703C34.1733 38.559 33.6019 38.3195 33.1806 37.8965C32.7578 37.4719 32.5194 36.8976 32.5173 36.2984C32.5151 35.6991 32.7494 35.1232 33.1692 34.6956C33.379 34.4853 33.6287 34.319 33.9036 34.2066C34.1786 34.0941 34.4732 34.0377 34.7703 34.0407H49.4091C49.8572 34.0353 50.2965 34.1652 50.6694 34.4136C51.0423 34.662 51.3315 35.0173 51.4991 35.4328C51.6119 35.7077 51.6676 36.0028 51.6638 36.3017C51.6416 36.9044 51.3891 37.4757 50.9583 37.8977L39.0579 52.1376H49.4091C49.8573 52.1322 50.2967 52.2624 50.6697 52.511C51.0426 52.7597 51.3317 53.1152 51.4991 53.5309C51.6671 53.9452 51.7093 54.3998 51.6205 54.8379C51.5318 55.276 51.316 55.6783 51.0001 55.9946C50.5783 56.4175 50.0064 56.6565 49.4091 56.6596H34.2547C33.9558 56.6564 33.6605 56.5943 33.3855 56.477C33.1106 56.3596 32.8615 56.1893 32.6524 55.9756C32.2293 55.5437 31.995 54.961 32.0001 54.3555C32.0153 53.7577 32.2534 53.1877 32.6638 52.7545L44.5451 38.5615L44.5439 38.5627ZM124.582 38.8528C123.297 40.7762 122.611 43.0376 122.611 45.3508C122.583 46.8941 122.867 48.4271 123.445 49.8584C124.023 51.2896 124.883 52.5898 125.975 53.6812C127.066 54.7726 128.366 55.633 129.797 56.2109C131.229 56.7887 132.762 57.0723 134.305 57.0447C136.326 57.045 138.312 56.5218 140.07 55.526C141.828 54.5303 143.298 53.096 144.337 51.363C145.376 49.6299 145.949 47.6573 145.998 45.6373C146.048 43.6173 145.573 41.6189 144.621 39.8369C143.669 38.0548 142.271 36.5499 140.564 35.4689C138.856 34.3879 136.898 33.7676 134.88 33.6685C132.862 33.5694 130.853 33.9949 129.048 34.9034C127.243 35.812 125.704 37.1727 124.582 38.8528ZM134.305 38.1536C138.185 38.1536 141.103 41.3785 141.103 45.3495C141.103 49.2787 138.191 52.5455 134.305 52.5455C130.419 52.5455 127.508 49.3218 127.508 45.3508C127.508 41.3785 130.425 38.1536 134.305 38.1536Z" fill="#950EDB"/>
</g>
</g>
<defs>
<clipPath id="clip0_18_93">
<rect width="114" height="38" fill="white" transform="translate(32 28)"/>
</clipPath>
</defs>
</svg>
