<svg width="50" height="50" viewBox="0 0 100 100" fill="none" xmlns="http://www.w3.org/2000/svg">
<path d="M50.8936 4.01074C60.1171 4.2396 68.9149 8.00397 75.4551 14.5439C82.0641 21.1522 85.8444 30.0722 85.9961 39.417C86.1476 48.7619 82.6589 57.7999 76.2676 64.6191L75.4551 65.459L58.4834 82.4268C56.33 84.5788 53.4392 85.8323 50.3965 85.9326L49.8271 85.9375C46.9856 85.8963 44.243 84.8471 42.0957 82.9668L41.5195 82.4268L24.5439 65.4551C18.004 58.9149 14.2396 50.1171 14.0107 40.8936L14 40C14.0001 30.4524 17.7928 21.2951 24.5439 14.5439C31.2951 7.79281 40.4525 4.00011 50 4L50.8936 4.01074ZM50 5C40.7177 5.00011 31.8146 8.68737 25.251 15.251C18.6874 21.8146 15.0001 30.7177 15 40C15.0001 49.2821 18.6876 58.1845 25.251 64.748L42.2041 81.6973L42.7588 82.2178C44.8577 84.0539 47.5759 85.0244 50.3633 84.9326C53.1524 84.8407 55.8024 83.6923 57.7764 81.7197L74.748 64.752L75.5479 63.9238C81.755 57.2954 85.1433 48.5138 84.9961 39.4336C84.8487 30.3483 81.1736 21.6758 74.748 15.251C68.1845 8.68765 59.2821 5.0001 50 5Z" fill="#C64747"/>
<circle cx="50.0003" cy="38.4848" r="23.4996" fill="white" stroke="#C64747"/>
<path d="M46.3451 51.2484H40.6291V38.9697H38.1946V35.5824H40.6291C39.2742 30.3322 43.099 27.1849 45.1807 26.2675C51.2778 23.0497 57.6006 27.326 59.9999 29.8665V51.2484H54.284V32.7244C50.9814 27.3049 46.8391 28.561 45.1807 29.8665C43.0637 33.5077 46.0628 35.1943 47.827 35.5824H50.7909V38.9697H46.3451V51.2484Z" fill="#C64747"/>
</svg>
