<svg width="50" height="50" viewBox="0 0 100 100" fill="none" xmlns="http://www.w3.org/2000/svg">
<path d="M50 4C59.5477 4 68.7048 7.79271 75.4561 14.5439C82.0652 21.1524 85.8446 30.073 85.9961 39.418C86.1475 48.7628 82.6588 57.8 76.2676 64.6191L75.4561 65.459L63.9824 76.9287C71.7862 78.6817 77.001 81.8581 77.001 85.4854C77.001 91.0081 64.9124 95.4853 50.001 95.4854C35.0893 95.4854 23.001 91.0082 23.001 85.4854C23.001 81.8578 28.2155 78.6806 36.0205 76.9277L24.5449 65.4551C17.7937 58.7039 14 49.5477 14 40C14 30.4523 17.7937 21.2952 24.5449 14.5439C31.2961 7.79298 40.4525 4 50 4ZM36.8633 77.7705C34.7983 78.2061 32.9131 78.7382 31.2568 79.3516C28.8788 80.2323 27.0232 81.2583 25.7812 82.3457C24.5377 83.4348 24.001 84.4984 24.001 85.4854C24.001 86.4723 24.5377 87.5359 25.7812 88.625C27.0232 89.7124 28.8788 90.7384 31.2568 91.6191C36.0055 93.3777 42.6326 94.4854 50.001 94.4854C57.3694 94.4853 63.9966 93.3778 68.7451 91.6191C71.1231 90.7384 72.9789 89.7124 74.2207 88.625C75.4641 87.536 76.001 86.4722 76.001 85.4854C76.001 84.4985 75.4641 83.4347 74.2207 82.3457C72.9789 81.2583 71.1231 80.2323 68.7451 79.3516C67.0893 78.7383 65.204 78.207 63.1396 77.7715L58.4834 82.4268C56.3299 84.5788 53.4393 85.8324 50.3965 85.9326C47.3537 86.0328 44.3861 84.9724 42.0957 82.9668L41.5205 82.4268L36.8633 77.7705ZM50 14.4854C36.7457 14.4855 26.0012 25.2301 26.001 38.4844C26.001 51.7389 36.7455 62.4842 50 62.4844C63.2546 62.4844 74 51.739 74 38.4844C73.9998 25.23 63.2545 14.4854 50 14.4854ZM44.3926 23.8701C51.7166 20.0046 59.3122 25.1417 62.1943 28.1934V53.8779H55.3281V31.626C51.3609 25.1158 46.3846 26.6251 44.3926 28.1934C41.8498 32.5672 45.4521 34.5933 47.5713 35.0596H51.1318V39.1279H45.791V53.8779H38.9248V39.1279H36.001V35.0596H38.9248C37.2973 28.7528 41.8919 24.9722 44.3926 23.8701Z" fill="#C64747"/>
</svg>
