<svg xmlns="http://www.w3.org/2000/svg" width="99" height="110" fill="none" viewBox="0 0 99 110"><g fill="#bababa" style="opacity:.48"><path d="M1.109 100.78c1.08-.036 2.323.709 1.709 1.956-.217.44-.737.518-1.183.637.995.227 1.633.8 1.284 1.977-.109.371-.424.564-.772.708-1.288.027-2.715-.028-1.916-2.193.115-.311 1.182-.392 1.567-.449-1.578-.486-2.137-1.382-.689-2.636m86.433-6.516c-2.108-1.836.707-3.48 2.184-2.302.631.504.513 2.017-.483 2.409.053.075.13.165.148.241-.335 1.385-2.225 1.782-2.176-.176z"/><path d="M87.542 94.264c.593.012 1.117.001 1.701.107.053.075.13.165.148.241-.335 1.385-2.225 1.782-2.176-.176zM77.31 18.41c1.203.066 2.017 1.223 1.502 2.372-.31.691-1.022.822-1.696 1.035-.627.084-1.139-.244-1.444-.786a1.54 1.54 0 0 1-.113-1.246c.286-.828 1.012-1.047 1.751-1.375m-9.156.967c1.322-.106 2.26.996 1.761 2.274-.257.66-.827.824-1.438 1.06-1.065.161-2.096-.709-1.968-1.831.067-.586 1.148-1.176 1.645-1.503m1.759 9.964c2.825-.176 2.419 2.842 1.052 3.139-.44.017-1.139.094-1.516-.105-1.511-.796-1.085-2.605.464-3.034m8.188-.766c1.479-.08 2.88-.301 2.522 1.984-.077.49-.285.734-.708.988-.846.121-1.801.266-2.383-.515-.591-.793-.205-1.945.569-2.457m.823 3.459c.879-.051 1.577.169 1.791 1.126a1.75 1.75 0 0 1-.294 1.415c-.34.457-.679.48-1.211.544-.988-.027-1.782-.118-1.927-1.344a1.7 1.7 0 0 1 .429-1.332c.371-.407.667-.368 1.212-.409m-59.878 3.447c.283-.021 1.065-.087 1.302-.01 1.428.466 1.504 2.448.148 3.075-1.005.073-1.918.115-2.367-.978-.345-.84.046-1.796.917-2.087m68.199 10.971c.768-.025 1.541.629 1.714 1.337.347 1.424-.492 1.811-1.569 2.094-1.069.113-1.968-.812-1.656-1.88.253-.867.781-1.151 1.511-1.551M69.474 32.787c.883-.049 1.667-.096 2.301.646.741.867.229 1.799-.574 2.351-2.317.598-3.56-1.529-1.727-2.997m9.052 2.681c.893-.065 1.679.001 2.099.894.5 1.061-.084 1.81-1.008 2.217-.339.021-1.066.057-1.346-.101-1.338-.757-1.322-2.568.255-3.01m-59.349-3.431c.468-.04.981-.095 1.437.067 1.155.412 1.074 2.677-.071 2.956-.598.018-1.117.1-1.676-.157-1.25-.575-1.03-2.557.31-2.866M10.586 53.09c1.537.164 2.182 1.397 1.182 2.735-.307.412-.777.388-1.268.386-2.128.017-2.539-2.724.086-3.121m55.698-36.5c.655-.034 1.483.247 1.751.856.588 1.332-.471 2.034-1.421 2.483-.571.038-1.334-.175-1.622-.719-.678-1.277.321-2.019 1.292-2.62M9.889 63.203c.37-.02 1.068-.071 1.392.086 1.355.659 1.278 2.452-.191 2.946-.257.009-.931.052-1.154-.022-.831-.276-1.525-1.229-1.087-2.1.255-.507.527-.682 1.04-.91m9.064-34.628c.88-.066 1.466-.165 2.202.465.836.716.421 1.909-.306 2.541a16 16 0 0 1-.665.04c-2.005.07-2.725-1.616-1.231-3.046m9.057 7.646c.422-.012.975-.081 1.353.122 1.155.622 1.184 2.551-.206 2.92-.412.007-1.116.085-1.459-.105-1.4-.776-1.168-2.437.312-2.937m-1.7-26.349c1.756.39 3.02 2.764.544 3.636-1.147-.155-1.663-.803-2.065-1.829.42-.809.75-1.305 1.521-1.807m52.168 15.254c.344-.022.951-.1 1.218.098 1.085.803.952 2.664-.518 2.945-.488.066-.97.179-1.41-.078a1.5 1.5 0 0 1-.683-.93c-.266-1.1.37-1.799 1.393-2.035m-46.665-8.242.081-.001c2.095-.049 3.024 2.132.937 3.477-.488-.009-1.333-.371-1.65-.718-1.027-1.124-.171-2.095.632-2.758m56.092 46.322c.339-.019.865-.053 1.177.062 1.321.486 1.595 2.417.119 2.906-.959.115-1.952.147-2.375-.889-.41-1.005.175-1.746 1.079-2.079M69.772 36.221c.507-.023.963-.065 1.437.16 1.149.545 1.115 2.438-.148 2.806-.7.032-1.982.209-2.298-.544-.451-1.078.045-1.987 1.009-2.422m-.298-13.586c.847-.087 1.453.222 1.679 1.094.113.437.044.901-.19 1.287-.297.498-.8.582-1.322.701-.752.107-1.37.015-1.726-.765a1.52 1.52 0 0 1 .003-1.239c.337-.751.816-.818 1.556-1.078m8.802 16.278c.699-.041.951-.123 1.626.137 1.117.431 1.071 2.502.04 2.804-1.357.041-2.963.336-2.494-1.778.129-.583.311-.86.828-1.163M19.974 25.16c.208.013.894.044 1.04.129 1.4.818 1.013 2.531-.423 2.984-.562-.081-1.117-.092-1.547-.467-.748-.651-.828-1.617-.109-2.318.384-.375.518-.307 1.039-.328m67.563 41.389c.661-.033 1.924-.169 2.317.44.511.793.292 1.814-.393 2.397-.355.062-1.057.165-1.395.107-1.612-.28-1.784-2.095-.529-2.944m.232-13.298c.886-.023 1.757-.101 2.247.818.446.836-.081 1.778-.861 2.169-1.067.122-2.449.165-2.387-1.538.022-.608.519-1.098 1.001-1.449m-9.578-31.478c.898.07 1.516.251 1.712 1.226.24 1.2-.458 1.631-1.425 1.84-1.387.231-2.291-.56-1.781-2.023.231-.664.873-.828 1.494-1.043m-8.346 4.226c.969-.073 1.739.168 1.904 1.266.068.45-.057.909-.346 1.26-.355.428-.714.43-1.237.472-2.12.108-2.66-2.516-.321-2.998m2.376-16.094c1.059-.076 1.618.904 2.053 1.732-.484.881-.838 1.12-1.663 1.618-1.734.477-2.838-1.958-.39-3.35m-43.456 22.91c1.389-.354 2.433 3.035-.228 3.048-1.51-.092-2.296-1.312-1.272-2.612.351-.446.959-.413 1.5-.436"/><path d="M34.253 14.391c1.143.058 2.348 1.405 1.813 2.542a1.95 1.95 0 0 1-1.117 1.009c-1.054-.065-2.288-1.215-1.922-2.342.223-.685.642-.88 1.226-1.209M10.02 59.874c.326-.02.973-.097 1.259.034 1.299.594 1.221 2.413-.139 2.906-.402.016-1.059.068-1.414-.118-1.364-.718-1.344-2.505.294-2.822m1.239-13.543c2.123.211 2.857 2.562.797 3.502-2.461-.703-2.834-1.73-.797-3.502m64.538-30.896c1.331-.144 1.657.858 1.946 1.934-.571.697-.785.835-1.573 1.196-1.089.301-2.113-.33-1.941-1.544.113-.808.922-1.2 1.568-1.586m-45.773 4.11c1.965.346 3.372 2.145 1.235 3.385-2.393-.026-3.087-1.797-1.235-3.385"/><path d="M28.525 22.819c2.097-.197 3.597 1.369 1.836 3.146-2.189.153-3.473-1.264-1.836-3.146m26.501-13.01q.161-.018.325-.026c2.199-.092 2.539 1.883 1.034 3.225-.913.244-1.255.061-2.044-.367-.224-1.165-.258-1.992.685-2.832M27.792 29.434a6 6 0 0 1 .692-.007c1.776.083 2.368 1.936.935 3.045-.263.008-.959.051-1.184-.011-1.822-.507-1.859-2.076-.443-3.027M18.951 38.9c1.907-.072 2.297.099 2.43 2.015l-.055.113c-.209.428-.273.675-.698.82a38 38 0 0 1-1.957-.025c-.785-1.107-.907-2.049.28-2.923m-9.07 27.669c.93-.07 1.885-.115 2.284.951.13.342.115.722-.041 1.052-.225.48-.528.704-1.004.873-2.564.27-3.223-2.157-1.239-2.876m53.964-52.354c.602-.025 1.421.111 1.768.625.831 1.231-.358 2.151-1.161 2.704-1.526.41-2.813-1.883-.607-3.329m-43.913 7.546c2.395-.095 3.471 1.962 1.42 3.151-.68-.035-1.488-.112-1.979-.648-.746-.815-.181-1.884.559-2.503m-9.673 27.953c2.346.246 2.721 2.447.996 3.061-.587.007-1.222.088-1.722-.252-1.203-.816-.632-2.524.726-2.809m74.289-5.794c.518.144 1.416.488 1.785.852 1.015 1.004-.135 1.885-.811 2.515-2.221.604-2.771-1.896-.974-3.367M44.625 70.664c.973-.046 1.3.183 2.069.728.217 1.199.235 1.971-1.025 2.454-.752-.099-1.569-.253-2.015-.933a1.2 1.2 0 0 1-.153-.992c.173-.603.617-.951 1.124-1.257"/><path d="M51.792 9.243q.103-.008.208-.012c.63-.026 1.248.007 1.728.47.761.735.258 2.102-.398 2.737-2.541.439-2.969-1.692-1.538-3.195m6.705 1.512c1.255.226 2.521.708 1.707 2.326a3.2 3.2 0 0 1-.862 1.072c-2.224.371-2.819-2.374-.845-3.398M27.789 26.073c.912-.016 1.791.012 2.413.764.563.681.183 1.729-.463 2.179a4 4 0 0 1-.214.042c-.647.11-1.343.097-1.887-.311a1.33 1.33 0 0 1-.53-.941c-.058-.633.281-1.266.681-1.733m59.756 43.741c.298-.02.978-.091 1.243-.033 1.651.366 1.889 1.991.528 2.872q-.452.036-.905.033c-1.788-.015-2.348-1.747-.866-2.872M9.633 56.631c.443-.041 1.071-.137 1.504-.031 1.438.35 1.384 2.328.086 2.84l-.079.007-.131.014c-2.287.236-3.06-1.861-1.38-2.83m77.912 3.329c.283-.019.953-.07 1.204-.009 1.643.399 1.959 1.867.643 2.851-.865.132-1.718.209-2.335-.534-.673-.81-.217-1.736.488-2.308M61.263 12.176c2.39 0 2.591 2.111.652 3.522-.813.175-1.54-.686-1.975-1.254.329-.926.589-1.588 1.323-2.268m27.353 37.638c.165-.014.598-.044.703.05 1.392 1.251.767 2.885-.977 3.118-1.069-.198-2.057-.844-1.445-2.104.351-.725.997-.837 1.719-1.064M9.774 69.81c.834-.059 1.759-.207 2.299.626.181.275.242.613.17.935-.143.628-.437.96-.96 1.273-.26.014-.98.073-1.2.009-1.545-.447-1.847-2.15-.309-2.843m64.353-57.126c.646-.08 1.331.14 1.597.735.619 1.392-.344 2.005-1.298 2.453-1.108.255-2.03-.683-1.743-1.784.209-.8.782-1.037 1.444-1.404m-51.772 2.684c2.158.276 3.346 2.164 1.125 3.397-.41.064-1.229-.198-1.518-.483-1.07-1.057-.413-2.022.393-2.914M43 10.006c1.377-.085 1.879 1.84 1.201 2.795-.312.439-.785.458-1.27.532-1.379.004-1.801-1.443-1.253-2.529.277-.551.77-.646 1.322-.798M42.751.829c.3-.031.956-.112 1.172.071 1.112.936 1.021 2.542-.463 2.957-.27.02-.808.064-1.028-.055-.845-.453-1.286-1.616-.802-2.48.215-.383.74-.417 1.121-.493"/><path d="M45.691 9.331c.166-.011.757-.026.875.028 1.471.681 1.504 2.581.014 3.239-.895.043-1.389-.032-1.811-.924a1.94 1.94 0 0 1-.065-1.505c.195-.515.513-.624.987-.838m50.481 97.118c.451-.038 1.191-.012 1.669-.008 1.124 1.083.945 1.99-.19 2.947-.839.047-1.512.124-2.106-.601a1.26 1.26 0 0 1-.275-.99c.091-.614.443-.982.902-1.348M31.115 5.578c1.176.039 2.923 2.375.175 3.523-.523-.271-1.317-.82-1.613-1.334-.682-1.186.631-1.77 1.438-2.189M9.608 72.956c.682-.016 1.969-.158 2.361.437.546.83.172 1.85-.58 2.363-2.194.31-3.489-1.095-1.781-2.8m.658 15.516c2.6-.196 2.426 2.694.805 2.857-.427.011-1.084.07-1.442-.174-1.371-.933-.941-2.413.637-2.683"/><path d="M34.126 3.859c.467.156 1.131.948 1.24 1.419.318 1.372-.605 1.813-1.742 2.049-.467-.231-1.091-.773-1.293-1.243-.578-1.346.938-1.924 1.795-2.225M20.841 18.513c2.089-.137 3.443 1.775 1.447 3.205-2.188.172-3.042-1.829-1.447-3.205M9.627 82.344c.622-.034 1.921-.237 2.288.324.504.773.341 1.869-.372 2.43l-.838.01c-1.009.007-1.901-.151-1.822-1.497.034-.581.287-.914.744-1.267m14.418-69.692c1.975.061 3.263 2.428 1.126 3.304-1.214-.031-1.723-.589-2.409-1.504.369-.697.667-1.289 1.283-1.8m12.797-.083c1.699.094 2.926 2.623.47 3.401-.524-.047-1.437-.7-1.632-1.185-.5-1.242.134-1.741 1.162-2.216m50.906 66.624c.262-.012 1.019-.065 1.237.008 1.486.503 1.657 2.199.153 2.817-.334.018-1.024.081-1.317-.028-1.518-.559-1.447-2.123-.073-2.797m-.208-22.478c.384-.022.917-.072 1.288-.015 1.471.229 1.782 1.976.566 2.761-.301.043-.864.14-1.151.102-1.809-.24-1.963-1.855-.703-2.848M9.689 76.113c.698-.023 1.849-.212 2.256.425.501.788.321 1.866-.504 2.341-.694.01-1.952.13-2.35-.485-.546-.842-.128-1.778.598-2.281M48.794 9.065c.264-.017.858-.079 1.078.018 1.01.442 1.224 1.76.71 2.657-.225.392-.334.416-.726.55-1.953.052-1.877-.6-1.99-2.352.313-.478.413-.634.928-.873m38.954 79.408c.317-.017.937-.074 1.224.014 1.479.455 1.61 2.199.197 2.814-.262.012-1.04.071-1.256.003-1.582-.498-1.594-2.132-.165-2.831M58.596 1.269c.476.102 1.166.217 1.572.489 1.112.744.407 2.067-.265 2.879l-.261.006c-2.274.025-2.547-2.065-1.046-3.374m6.028 2.581c2.301.181 2.753 1.686 1.159 3.326-2.332.234-2.821-1.79-1.159-3.326"/><path d="M61.662 2.418c2.34.223 2.881 1.565 1.202 3.252-2.186.529-2.849-1.947-1.202-3.252m25.893 79.923c.736-.026 1.97-.205 2.367.514.456.819.213 1.719-.564 2.198-.556.075-1.231.042-1.802.037-1.052-.862-1.073-1.884-.001-2.749m.215-6.229c1-.038 2.111-.05 2.419 1.282.123.53-.354 1.201-.807 1.484-.652.016-2.153.212-2.458-.573-.374-.963-.082-1.736.846-2.193M28.414 7.562c1.965.654 2.909 2.254.725 3.456-.51.044-1.207-.163-1.525-.543-.987-1.182.043-2.222.8-2.913M9.782 79.184c1.138-.041 2.864 0 2.366 1.923-.112.433-.406.687-.821.855-2.255.261-3.507-1.326-1.545-2.778m78.217-6.211c.46-.026.871-.087 1.284.129.397.211.691.573.817 1.005.254.907-.362 1.454-1.166 1.678-.312.026-1.04.084-1.295-.062-1.405-.805-1.173-2.333.36-2.75m-.447 12.438c.659-.034 1.965-.205 2.316.415.486.857.208 1.779-.539 2.318-.841.063-1.509.172-2.205-.413-.846-.712-.272-1.774.428-2.32m-77.685-.007c.292-.013.979-.069 1.238-.005 1.458.361 1.555 2.182.216 2.754-.318.028-1.035.111-1.321-.001-1.502-.587-1.661-2.071-.133-2.748M55.417.626c2.494-.121 2.863 1.927 1.23 3.214-.73.055-1.372-.076-1.812-.715a1.63 1.63 0 0 1-.253-1.276c.13-.564.353-.923.835-1.223M43.49 77.158c.341.001.91.004 1.222.11 1.491.507 1.636 2.266.2 2.918-2.114.19-3.13-1.512-1.422-3.028M36.672 2.639c1.336-.082 1.961 1.285 1.468 2.419-.215.492-.771.622-1.249.775-1.185-.075-2.113-1.231-1.548-2.373.252-.511.827-.643 1.329-.821m17.069 67.829c.308-.015.633-.03.912.105.444.218.775.615.91 1.09.301 1.094-.31 1.648-1.309 1.85-.243.014-.522.043-.758-.004-.841-.168-1.213-1.021-.974-1.795.228-.738.593-.913 1.219-1.246M39.819 11.047c1.812.273 2.421 2.804.051 3.338a3 3 0 0 1-.303-.12c-.805-.366-1.609-1.46-1.125-2.34.292-.531.852-.687 1.377-.878m52.961 95.927a1.571 1.571 0 1 1 1.212 2.9 1.571 1.571 0 0 1-1.212-2.9M13.862 44.052c1.182-.036 1.422.947 1.845 1.876-.388.777-.702 1.074-1.474 1.412-1.091-.064-2.1-1.01-1.701-2.15.224-.64.766-.866 1.33-1.138"/><path d="M40.286 1.395c.997.136 1.384 2.199.591 2.859-.582.486-.888.403-1.58.399-.408-.293-.906-.953-1.017-1.435-.07-.31-.009-.635.168-.899.428-.643 1.133-.759 1.838-.924M49.122 0c.64.029 1.22-.026 1.646.517 1.276 1.625-1.065 3.799-2.46 1.983-.293-1.24-.477-1.917.814-2.5"/><path d="M52.263.245c1.092-.046 2.308.061 2.117 1.709-.065.557-.445 1.048-.918 1.354-1.177-.002-2.41-.426-2.122-2 .095-.523.459-.821.923-1.063m44.458 99.874c1.716-.068 2.514 2.757.092 3.163-.552.005-1.197-.198-1.409-.722-.533-1.314.396-1.982 1.317-2.441M9.667 91.72c.358-.017 1.358-.078 1.65-.013.308.067.575.257.737.527.443.748.135 1.654-.628 2.063a5.3 5.3 0 0 1-1.1.053c-1.547-.085-2.058-1.669-.659-2.63m80.111 15.233c.87.008 1.514.124 1.778 1.094.117.432.05.893-.186 1.274-.287.471-.588.519-1.094.649-.923.001-1.525-.228-1.726-1.238a1.6 1.6 0 0 1 .254-1.233c.273-.393.528-.456.974-.546m-45.03-51.954c-.068-1.562 1.534-2.078 2.599-.924 1.488 1.611-.625 3.064-1.97 2.165l-.161.165a70 70 0 0 1-.637-1.138zM55.38 80.233c1.381.063 1.688 1.719.906 2.643-.362.428-.724.407-1.243.437-1.95-.213-2.038-2.589.337-3.08m-11.499-6.201c.346-.031.699-.06 1.043-.013 1.777.245 1.827 2 .56 2.929-1.017.063-2.383-.21-2.293-1.597.024-.358.409-1.079.69-1.319m10.418 3.044c.855-.045 1.492.041 1.862.935.167.394.154.841-.037 1.222-.26.532-.546.577-1.086.746-.819.093-1.437.098-1.804-.806a1.6 1.6 0 0 1 .036-1.266c.232-.507.539-.631 1.029-.831M70.256 7.493c.359.129 1.171.659 1.369.975.711 1.135-.494 1.887-1.293 2.391-.469-.02-1.183-.252-1.416-.65-.744-1.266.519-2.216 1.34-2.716M16.564 42.827c1.489-.093 2.108.966 1.581 2.376-.159.426-.517.538-.929.682-.173-.002-.781.025-.888-.058-1.329-1.03-1.605-2.483.236-3m3.132-.097c.854-.017 1.42.107 1.8.967.187.412.199.881.033 1.302-.205.535-.406.666-.902.898-.775.017-1.215.076-1.691-.64a1.6 1.6 0 0 1-.227-1.243c.151-.669.44-.935.987-1.284m34.518 31.103c.788-.054 1.294.053 1.6.879.159.44.128.927-.088 1.341-.252.487-.567.548-1.06.69-.366.042-.841.103-1.158-.121a1.627 1.627 0 0 1-.394-2.282c.294-.412.624-.417 1.1-.507M67.511 5.554c.84.062 1.679.898 2.137 1.545-.48.815-.828 1.156-1.491 1.808-.993-.043-1.367-.438-2.056-1.096.312-.966.686-1.571 1.41-2.257M47.812 1.517c-.018 1.23-.408 2.078-1.859 1.743a1.36 1.36 0 0 1-.876-.651c-1.205-2.078 2.04-3.412 2.729-1.373z"/><path d="M23.067 42.84c.221.006.864.013 1.04.123 1.247.776 1.185 2.481-.228 2.995-2.165.11-2.514-2.237-.812-3.118m19.312 25.715c2.114-.153 2.39 1.974.35 3.099a4 4 0 0 1-.397-.035c-.812-.113-1.574-1.001-1.276-1.823.275-.76.685-.886 1.323-1.241m.783 11.867c2.549-.126 2.784 2.156 1.258 2.861-.353.007-.918.039-1.242-.064-1.469-.467-1.261-2.242-.016-2.797m26.227-40.855c.407-.019 1.45-.109 1.792 0 .95.303 1.172 2.044.216 2.462-1.187.036-3.001.35-2.746-1.446.073-.518.343-.719.738-1.016"/><path d="M26.255 42.919c1.264-.076 2.213.355 2.013 1.968-.059.476-.388.824-.804 1.067q-.303.02-.606.025c-1.656.012-2.022-1.89-.603-3.06m3.414.006c1.428-.074 2.218.61 1.79 2.221-.122.457-.453.641-.876.832-.766.097-1.308.04-1.72-.696a1.68 1.68 0 0 1-.14-1.285c.178-.608.41-.797.946-1.072m56.351 64.109c.273-.023.842-.088 1.091-.03 1.552.357 1.653 2.066.437 2.866-2.231.498-2.916-1.664-1.528-2.836m-81.958-.091c2.307-.115 2.461 2.338.916 2.976-.36.003-.923.047-1.233-.133-1.197-.695-1.06-2.468.317-2.843m79.494-.004c1.895.008 2.203 2.372.373 3.061-1.267-.059-1.437-.245-1.814-1.429.193-1.096.293-1.451 1.441-1.632M32.764 42.993c2.297-.203 2.676 2.161 1.15 2.999-2.221.297-2.643-1.888-1.15-2.999m47.027 64.034c.443-.017.943-.009 1.39-.014.263.254.446.52.664.811.007.438-.009.915-.015 1.356-.363.402-.428.484-.896.744-2.035.292-2.725-1.892-1.143-2.897M55.299 83.579c2.234-.089 2.216 2.413.6 2.979-2.335-.075-2.48-2.371-.6-2.979m23.487-40.663c2.249-.108 2.159 2.515.793 3.06-.168.004-.744.026-.867-.037-1.461-.747-1.437-2.407.074-3.023m-68.73 64.106c.837-.047 1.458-.059 1.934.743.522.879.159 1.693-.681 2.137-2.237.241-2.783-1.886-1.253-2.88m53.863-9.169c.762-.004 1.254.247 1.505 1.019.15.472.098.984-.142 1.418-.235.423-.49.472-.926.602-.324 0-.807.037-1.052-.178-1.074-.943-.921-2.599.615-2.861m9.666 9.179c.446-.023.959-.012 1.412-.015.216.204.438.519.624.764.021 1.07.144 1.583-.833 2.175-2.127.1-2.73-1.812-1.203-2.924m-33.668.001c1.051-.116 2.144.01 2.166 1.486.008.579-.4 1.044-.839 1.402-2.173.292-2.74-1.746-1.327-2.888"/><path d="M81.838 43.018c2.448-.053 2.1 2.054.827 3.021-.217.011-.696.047-.89-.022a1.56 1.56 0 0 1-.931-.894c-.394-.958.119-1.713.994-2.105M45.216 56.405c.075 1.739-2.668 2.281-2.922.296-.18-1.406 1.032-2.458 2.285-1.434q.313.573.637 1.138m-9.083-13.39c2.059-.082 2.402 2.188.804 3.008-1.492.114-2.211-.647-1.73-2.239.142-.47.481-.584.926-.769m33.452.009c2.258-.268 2.626 1.885 1.183 2.932-.831.068-1.435.084-1.869-.748-.458-.879-.128-1.716.686-2.184M5.842 97.933c2.299-.24 2.715 2.146 1.052 3.001-1.853.23-2.633-1.978-1.052-3.001m81.978.009c.821-.104 1.438-.131 1.925.644.522.834.236 1.757-.573 2.244-2.284.365-2.616-1.823-1.352-2.888m-44.747-14.37c2.152.044 2.2 2.383.609 3.027-2.35-.115-2.378-2.501-.609-3.027M6.998 107.019c.231-.013.792-.056.997.018 1.357.485 1.464 2.279.132 2.882-2.215.19-2.67-1.982-1.129-2.9m66.083-9.173c.816.036.947.181 1.488.804.036 1.203.249 1.847-1.063 2.254-.841-.014-1.354-.118-1.63-1.02a1.76 1.76 0 0 1 .166-1.403c.272-.465.551-.52 1.039-.635m3.499 9.179c.789-.044 1.473-.136 1.977.602.568.833.177 1.741-.596 2.242-.583.14-1.174.133-1.629-.303a1.48 1.48 0 0 1-.454-1.145c.028-.64.256-.979.702-1.396m-10.201-9.096c.19-.019.831-.071.992-.033 1.437.343 1.555 2.112.478 2.891-2.165.54-2.815-1.596-1.47-2.858"/><path d="M91.021 97.932c.813-.05 1.466-.097 1.871.737.414.851.105 1.737-.695 2.183-2.297.269-2.628-1.958-1.176-2.92"/><path d="M94.093 98.028c1.99-.149 2.978 1.482 1.072 2.868-1.677.635-2.809-1.748-1.072-2.868m-18.092-.177c1.393.094 2.083.85 1.523 2.377-.153.414-.481.53-.894.667-.319.003-.777.042-1.038-.153-1.044-.773-.982-2.554.409-2.891m-5.741.002c.657.078.803.31 1.25.778.057 1.35.235 1.933-1.265 2.292-1.502-.121-1.906-1.427-1.096-2.654.242-.367.692-.379 1.111-.416M41.035 66.078c1.001-.12 1.704.969 1.26 1.851-.337.669-.837.79-1.48 1.042-1.398.075-2.594-2.326.22-2.893m17.741-6.139c1.371-.055 2.304 2.377.065 2.972-1.261.043-1.958-.917-1.491-2.077.223-.556.894-.704 1.426-.895m4.902-16.915c1.348-.096 2.052.556 1.702 2.041-.13.55-.452.698-.948.93-.738.068-1.394-.088-1.665-.828-.378-1.029-.063-1.771.911-2.143m11.85-.01c2.265-.304 2.625 1.912 1.177 2.941-2.305.197-2.615-2.09-1.177-2.941m-32.662 64.008c.782-.035 1.352-.164 1.928.486.25.281.366.658.316 1.032-.081.627-.313.965-.799 1.32-2.019.475-2.763-1.463-1.445-2.838m39.425-9.173c1.919.089 2.066 2.532.45 3.051-.894-.001-1.476-.107-1.705-1.125a1.72 1.72 0 0 1 .257-1.356c.289-.423.516-.475.998-.57m-39.767-54.82c.801.021 1.276.206 1.504 1.054.13.484.047 1-.228 1.418-.279.419-.519.451-.987.554-1.969-.037-2.212-2.574-.289-3.026"/><path d="M84.762 97.939c1.081-.118 2.08.081 2.138 1.543.022.538-.365 1.018-.785 1.346-.646.107-1.205.18-1.681-.345a1.5 1.5 0 0 1-.387-1.091c.035-.676.228-1.038.715-1.453m-17.421 9.091c.8-.051 1.502-.147 1.981.631.501.809.069 1.805-.695 2.257-2.109.189-2.63-1.662-1.286-2.888M48.442 43.023c2.081-.172 2.367 2.422.571 3.036-.903.023-1.04-.136-1.586-.838-.058-1.054-.175-1.825 1.015-2.198m8.427 14.048c.761-.037 1.434.205 1.811.919.181.343.217.746.099 1.118-.167.523-.602.669-1.063.891-1.367.461-2.812-1.426-.847-2.928"/><path d="M64.267 107.026c.814-.041 1.472-.133 1.971.642.534.833.061 1.79-.697 2.261-1.975.308-2.681-1.938-1.274-2.903m-15.229-.003c.431-.017.931-.005 1.368-.007 1.045.773 1.056 2.051.026 2.839-2.036.504-2.818-1.637-1.394-2.832m7.131-38.671c2.023.028 2.523 1.793.794 3.091-1.009.193-1.932-.557-1.801-1.602.097-.774.459-1.009 1.007-1.489m23.055 29.505c1.923.108 2.075 2.493.405 3.044h-.078l-.131-.004c-1.879-.045-2.108-2.699-.196-3.04"/><path d="M45.963 107.024c1.975-.08 2.079.126 2.123 2.082-.278.356-.372.441-.711.746-1.982.469-2.834-1.484-1.412-2.828m-6.559-43.921c.247-.005 1.08.014 1.304.111 1.082.467 1.354 2.118.147 2.643-2.294.528-2.836-1.803-1.451-2.754M12.397 97.85c.739.042 1.193.218 1.475.969.173.465.136.982-.101 1.418-.234.437-.484.509-.937.662-.83-.004-1.328-.14-1.613-1.023a1.72 1.72 0 0 1 .134-1.373c.246-.437.586-.531 1.042-.653m47.922.085c1.159-.134 2.168.193 2.089 1.714-.028.524-.348.895-.785 1.182a3.5 3.5 0 0 1-.688.059 1.25 1.25 0 0 1-.98-.461 1.53 1.53 0 0 1-.371-1.216c.082-.658.241-.892.735-1.278M39.246 43.022c.861-.021 1.394.124 1.667 1.035.146.471.086.981-.164 1.405-.231.387-.471.482-.885.584-.964.017-1.091-.076-1.63-.87-.059-1.162-.157-1.643 1.012-2.154M27.5 97.843c.743-.027 1.229.145 1.563.861.211.439.221.948.028 1.395-.209.479-.429.625-.896.791-2.096.076-2.472-2.256-.695-3.047m3.345.011c.682.05 1.236.351 1.364 1.036.228 1.216-.236 1.782-1.289 2.04-.821-.055-.949-.241-1.404-.905-.044-1.312-.087-1.919 1.329-2.171m-17.627 9.163c1.208-.06 2.129.323 1.933 1.892-.056.445-.314.734-.697.976-.853.062-1.53.103-2.003-.739-.505-.901.011-1.662.767-2.129m44.393-40.958c2.166-.078 3.187 1.418 1.302 2.849-1.77.151-2.878-1.361-1.302-2.849m.329 31.792c.709.094 1.128.37 1.332 1.098.133.474.061.982-.198 1.4-.285.454-.593.484-1.088.582-.751-.082-1.208-.32-1.417-1.106a1.75 1.75 0 0 1 .232-1.399c.298-.45.639-.491 1.139-.575M54.7 43.027c.847-.009.887.061 1.493.673.037 1.211.263 2.002-1.115 2.362-1.876.005-2.331-2.387-.378-3.035m3.471 64.008c.768-.06 1.429-.157 1.913.546.58.846.184 1.775-.58 2.307-1.987.46-2.704-1.708-1.333-2.853m-3.902-9.108c.757-.048 1.318-.065 1.767.632.55.856.218 1.782-.581 2.303-2.246.218-2.64-2.025-1.186-2.935m-6.078.009c.79-.058 1.376-.149 1.855.624.207.33.271.73.18 1.11-.15.649-.269.843-.804 1.169-1.078.13-1.268.076-1.909-.787-.038-.997-.228-1.47.678-2.116m18.446-54.922c2.136-.111 2.514 2.005.985 2.946-.735.07-1.355.089-1.736-.639-.506-.965-.124-1.805.751-2.307"/><path d="M57.638 43.011c2.11-.063 2.339 2.375.579 3.037-1.968.012-2.341-2.198-.579-3.037m-12.255.004c.795-.028 1.293.072 1.603.897a1.77 1.77 0 0 1-.079 1.425c-.226.452-.473.567-.929.707-1.938.033-2.397-2.248-.595-3.029m-14.402 64.014c.218-.013.886-.069 1.079-.003 1.378.468 1.41 2.168.225 2.873-1.445.241-1.732-.24-2.031-1.516.151-.715.122-.949.727-1.354m-6.769-9.092c2.15-.333 2.581 1.975 1.107 2.924-2.176.212-2.646-1.967-1.107-2.924"/><path d="M34.064 107.022c1.108-.055 2.163.16 1.977 1.754-.057.49-.469.883-.89 1.146-2.198.289-2.518-2.146-1.087-2.9m-17.872.005c.849-.052 1.51-.054 1.915.82.36.777.07 1.672-.693 2.051-2.169.266-2.734-1.754-1.222-2.871m35.016-9.096c.751-.032 1.254-.112 1.733.57.585.834.239 1.807-.528 2.364-1.131.071-2.094-.191-2.018-1.7.029-.564.365-.907.813-1.234m-14.831-.002c2.238-.204 2.635 1.99 1.087 2.929-2.051.238-2.604-1.82-1.087-2.929m-15.301.009c1.175-.116 2.132.236 2.01 1.76-.04.503-.383.894-.813 1.166-1.104.077-1.963-.167-1.989-1.578-.01-.573.36-.994.792-1.348m-11.828-.122c1.942.059 2.293 2.482.606 3.08-1.18.024-1.91-.5-1.689-1.847.109-.667.523-.906 1.083-1.233M60.606 43.02c2.161-.144 2.33 2.302.814 2.994-2.07.144-2.51-2.086-.814-2.994m9.872 64c.795-.034 1.287-.138 1.817.561.231.301.326.685.261 1.058-.108.606-.356.961-.844 1.295-.602.049-1.093.058-1.554-.39a1.46 1.46 0 0 1-.446-1.119c.03-.666.295-.996.766-1.405m-42.438.003c.783-.046 1.408-.131 1.857.643.436.754.146 1.784-.593 2.222-2.284.316-2.636-1.909-1.264-2.865m-8.901-.004c.813-.046 1.443-.075 1.892.715.466.818.194 1.74-.629 2.17-1.05.087-1.977-.077-2.01-1.491-.014-.568.327-1.023.747-1.394"/><path d="M33.398 97.934c.734-.06 1.277-.069 1.69.633.56.953.199 1.784-.67 2.307-.704.049-1.203.043-1.621-.605-.611-.949-.296-1.805.601-2.335M27.75 39.67c.943-.034 2.147-.177 2.465.991.15.551-.059 1.196-.678 1.305-.408-.007-1.631.078-1.918-.025-1.124-.403-.9-1.817.131-2.271m11.886 20.254c1.919-.029 2.937 1.254 1.553 2.899-2.199.175-3.057-1.316-1.553-2.899m12.342 47.109q.305-.016.61-.024c1.764-.042 2.143 1.736.924 2.839-1.172.188-2.109-.031-2.131-1.519-.009-.517.259-.919.597-1.296m-29.865-.013c.234-.013.835-.043 1.023.026 1.265.463 1.456 2.203.236 2.842-1.12.087-2.061-.09-2.043-1.582.007-.574.356-.932.784-1.286m19.186-49.85c2.039-.053 2.154 2.691.575 3.034a4 4 0 0 1-.348-.074c-.561-.143-1.098-.366-1.382-.904a1.1 1.1 0 0 1-.068-.889c.205-.568.706-.918 1.223-1.167m10.162-14.136c.809-.019 1.293.048 1.632.88.183.444.165.946-.048 1.377-.23.473-.437.579-.911.736-.784-.007-1.248-.088-1.596-.881-.19-.424-.189-.91.004-1.333.2-.443.497-.606.919-.779m9.858 63.989c1.09-.063 2.257.085 2.039 1.732-.068.51-.439.894-.889 1.152-1.983.291-2.578-1.96-1.15-2.884M49.274 52.975c1.865.201 2 2.865.227 2.972-1.674-.062-1.543-.924-1.52-2.283.455-.444.675-.552 1.293-.689"/><path d="M55.197 107.021c.795-.044 1.393-.127 1.871.645.205.326.261.723.156 1.092-.17.615-.348.844-.873 1.138-2.004.307-2.585-1.903-1.154-2.875M51.55 53.446c2.115-.163 3.027.983 1.601 2.744-2.051.664-2.761-1.291-1.601-2.744m3.014 1.302c2.145.034 2.725 1.737.932 3.052-.347.03-1.208-.25-1.437-.512-.812-.936-.161-1.866.505-2.54M18.118 97.927c.175-.016.735-.058.881.001 1.314.531 1.466 2.185.247 2.892-2.224.381-2.585-2.025-1.128-2.893"/><path d="M15.054 97.934c2.185-.228 2.595 2.031 1.123 2.908-2.187.321-2.545-1.962-1.123-2.908M72.657 43.02c1.142-.051 2 .294 1.853 1.758-.056.554-.401.894-.864 1.188-.719.052-1.311.029-1.689-.672-.514-.952-.177-1.785.7-2.274M25.18 107.026c.21-.016.842-.056 1.006.02 1.205.562 1.366 2.221.144 2.857-2.175.285-2.65-2.002-1.15-2.877m11.857-.006c1.083-.05 1.292-.188 1.918.781l.024 1.376c-.315.367-.392.428-.789.707-2.043.411-2.634-1.93-1.153-2.864m8.924-23.339c1.166-.075 2.07.282 1.837 1.811-.073.477-.473.84-.906 1.061-2.149.143-2.575-1.917-.931-2.872M57.969 63.2c.782-.023 1.462-.139 2.16.327.778.52.242 1.727-.286 2.243-.624.153-1.408.136-1.918-.305a1.24 1.24 0 0 1-.434-.853c-.035-.501.165-1.023.478-1.412M42.506 97.925c2.23-.163 2.441 2.203.982 2.88-2.135.414-2.501-2.01-.982-2.88m53.696 5.654c.76-.027 1.602-.168 2.229.358.689.58.127 1.534-.339 2.057-.388.078-1.043.201-1.421.09-1.318-.388-1.292-1.592-.469-2.505M3.111 98.607c1.868-.257 2.577 2.174.646 3.015-.554-.036-1.224-.414-1.513-.895a1.42 1.42 0 0 1-.151-1.067c.156-.595.526-.775 1.018-1.053"/><path d="M39.384 97.935c.685-.06 1.236-.118 1.676.503.597.843.349 1.83-.496 2.376-2.075.425-2.567-1.814-1.18-2.879m25.154-4.971c.682-.037 1.18.001 1.592.611.246.361.325.812.215 1.236-.151.591-.338.792-.829 1.096-2.168.09-2.595-2.156-.978-2.943m-32.296.02c1.885.132 1.956 2.658.262 2.968-.868-.036-1.395-.323-1.566-1.242-.082-.43.024-.874.292-1.22.321-.415.51-.443 1.012-.506m16.762-9.311c.757-.037 1.263-.067 1.668.684.457.849.115 1.759-.712 2.2-.73.012-1.251.04-1.668-.65-.576-.957-.108-1.723.712-2.234"/><path d="M67.612 92.95c2.174-.048 2.346 2.247.861 2.965-2.072.047-2.474-2.237-.861-2.965m-32.547.01c1.953.056 2.258 2.304.692 2.983-2.288-.067-2.31-2.466-.692-2.983m38.311.094c2.17-.296 2.666 1.753 1.228 2.795-1.884.434-2.759-1.653-1.228-2.795m-27.997 4.874c.751-.044 1.259-.043 1.674.685.497.872.177 1.745-.655 2.214-2.045.411-2.43-1.871-1.019-2.899m16.274-4.961c2.1-.079 2.24 2.369.599 2.971-.752-.079-1.247-.231-1.573-.978a1.42 1.42 0 0 1-.017-1.116c.209-.528.498-.652.991-.877m-32.597.004c1.95.028 2.13 2.309.704 2.961-.903.024-1.487-.136-1.764-1.112a1.53 1.53 0 0 1 .176-1.244c.259-.42.425-.483.884-.605"/><path d="M38.229 92.981c.705.031 1.238.267 1.417.978.261 1.038-.084 1.701-1.067 1.975-.85-.005-1.368-.281-1.559-1.171a1.6 1.6 0 0 1 .232-1.226c.279-.421.505-.476.977-.556m6.059-.01c.689.049 1.056.223 1.303.915.165.472.125.991-.11 1.432-.232.44-.484.496-.935.63-1.294-.155-2-1.042-1.344-2.396.193-.398.662-.518 1.086-.581m32.872 0c1.648.185 1.791 2.39-.039 2.996-.753-.154-1.241-.393-1.424-1.217a1.5 1.5 0 0 1 .243-1.2c.332-.467.688-.503 1.22-.579m-6.3.009c1.971.113 2.008 2.421.361 2.986-.832-.162-1.349-.394-1.549-1.285-.222-.985.287-1.529 1.188-1.701m-12.39-.022c1.176-.041 2.029.36 1.794 1.821-.092.58-.404.837-.909 1.123-1.996-.004-2.364-2.086-.885-2.944m-35.641.105q.337-.055.678-.056c1.362.009 1.932 1.882.605 2.818-2.117.419-2.546-1.623-1.283-2.762"/><path d="M40.959 92.968c2.068-.075 2.358 2.425.721 2.955-2.106-.011-2.14-2.321-.721-2.955M.884 106.258q.3-.018.6.004c.454.039.879.216 1.158.587.21.275.288.628.214.965-.138.608-.409.863-.892 1.198-1.013.06-2.035-.158-1.941-1.562.034-.515.434-.914.861-1.192m15.88-13.199c.818-.049 1.229-.136 1.787.536.578.696.285 1.729-.366 2.248-2.169.339-2.659-1.559-1.421-2.784m29.833.011c.778-.116 1.279-.146 1.765.566.53.779.292 1.742-.506 2.215-2.095.326-2.513-1.728-1.259-2.781m5.637-9.489c1.944.186 2.102 2.338.426 3-1.898-.122-2.247-2.368-.426-3"/><path d="M19.836 93.043c2.207-.311 2.626 1.867 1.222 2.81-2.077.283-2.457-1.639-1.222-2.81m35.808-.084c2.056-.033 2.241 2.264.645 2.962-1.956-.118-2.255-2.29-.645-2.962m23.818.1c.163-.009.831-.055.948-.011 1.399.534 1.272 2.078.254 2.776-1.987.455-2.615-1.716-1.202-2.765m-53.392-.097c2.052.1 2.207 2.328.717 2.964-.838.007-1.32-.168-1.622-1.022a1.63 1.63 0 0 1 .074-1.271c.203-.415.418-.527.831-.671m-12.059.084c2.11-.064 2.345 1.992.897 2.854-.661.022-1.246.043-1.605-.603-.528-.951-.125-1.746.708-2.251"/><path d="M52.458 93.052c1.041-.059 2.011.037 1.974 1.566-.013.526-.347.912-.78 1.206a2.3 2.3 0 0 1-.487.071 1.32 1.32 0 0 1-.987-.39c-.735-.748-.461-1.813.28-2.453m-2.469-.089c.734.009 1.192.244 1.425.972.147.456.096.952-.139 1.369-.245.437-.488.499-.949.611-1.713.017-2.091-2.343-.337-2.952M16.408 60.896c.174-.005.69-.018.831.037 1.3.511 1.242 2.186.063 2.782-1.914.1-2.546-2.051-.894-2.819m-.282-3.44c.605-.026 1.114-.132 1.615.283.834.692.499 1.764-.217 2.434-1.878.533-2.525-1.437-1.398-2.717m.698-6.514c2.023.01 2.178 1.703.808 2.904-2.038-.165-2.538-1.698-.808-2.904m-.703 3.169c.937-.075 1.983.051 2.062 1.357.027.463-.316.964-.664 1.268-2.126.592-2.479-1.413-1.398-2.625m66.51 38.934c1.905-.137 2.137 2.23.54 2.874-1.76-.096-2.202-2.031-.54-2.874"/><path d="M85.272 93.14c1.869-.049 2.114 1.814.715 2.775-1.921-.018-2.124-2.028-.715-2.775M18.735 48.448c1.756.038 2.006 1.681.402 2.732-1.302.224-2.047-1.807-.402-2.732m-2.341 16.146a1.264 1.264 0 1 1 .869 2.373 1.264 1.264 0 0 1-.869-2.373m-.112 3.448a1.189 1.189 0 1 1 1.078 2.119 1.189 1.189 0 0 1-1.078-2.119m-3.935 25.963c.184 1.661-.811 2.29-2.306 1.652-.24-.275-.226-.3-.334-.637.221-.878 1.375.02 2.64-1.015"/></g></svg>