<svg xmlns="http://www.w3.org/2000/svg" width="154" height="110" fill="none" viewBox="0 0 154 110"><g fill="#bababa" style="opacity:.48"><path d="M70.027 90.04c.606-.014 1.145-.023 1.638.359.213.342.115.799.133 1.275l.159.127.377-.046c.328.131.388.491.574.903.51-.702.537-.864 1.314-1.207l.122-.053c1.862.852 1.985 1.809.207 2.916-.93-.16-1.186-.397-1.596-1.216-.208.344-.359.901-.709 1.055-.674.298-1.685.109-2.018-.583-.031-.354.106-.506.285-.827l.075-.131-.227-.104c-1.575.2-1.743-1.553-.334-2.468m3.193-42.991.108-.012.181-.016c1.075-.103 1.237.07 1.88.926.055 1.43-.141 2.628-2.185 2.045-.554-.158-.68-.824-.869-1.331-.076.904.031 1.161-.666 1.808-2.322.415-3.366-1.619-1.53-2.992.739-.552 1.796.063 2.189 1.051.262-.679.354-.992.892-1.479m18.347 50.455q.25-.006.501-.002c.361.011.596.043.848.308.169.479.243.632.494 1.074 1.599-.966 2.396.261 1.902 1.902-.393.254-.74.376-1.17.554-.315-.016-1.25-.705-1.578-.925l.048-.034c-2.037 1.305-3.442-1.755-1.045-2.877m41.339-22.89c2.455.157 2.988 3.051.286 3.837-2.866-.237-3.074-3.295-.286-3.837m4.332-1.661a1.945 1.945 0 1 1 1.168 3.71 1.945 1.945 0 0 1-1.168-3.71m-41.585.085c1.004-.046 1.519.304 1.781 1.397.086.364-.16.705-.382.99-.304.182-.436.149-.791.148l-.125-.002c.885 1.423 1.044 2.437-1.062 2.722-2.163-.866-1.236-3.338.477-2.854l.119.035.106-.073c-.491-.436-.951-.565-1.019-1.285.13-.531.441-.789.896-1.078m-80.337-.174a1.94 1.94 0 1 1 .298 3.867 1.94 1.94 0 0 1-.298-3.867m4.354 1.918a1.915 1.915 0 1 1 1.538 3.505 1.915 1.915 0 0 1-1.538-3.505m3.496 8.628c.853-.12 1.736.018 2.232.804.222.357.287.788.181 1.194-.167.641-.533.973-1.077 1.285l-.095.014c-.778.115-1.593-.028-2.078-.714a1.53 1.53 0 0 1-.253-1.157c.142-.76.493-1.04 1.09-1.426m106.068-.101c.871-.004 1.65.144 2.098.983.216.396.247.867.084 1.287-.239.623-.61.836-1.178 1.099-1.27.012-2.568-.444-2.263-2.068.13-.697.685-.961 1.259-1.301m-20.164 9.838c.638.009 1.491.52 1.764 1.113.173.385.183.822.028 1.214-.241.619-.707.835-1.266 1.102-.889.019-1.684-.067-1.997-1.014-.439-1.328.367-2.057 1.471-2.415m-20.675 11.645c1.669-3.739 5.539 1.403 1.998 2.044a1.47 1.47 0 0 1-1.116-.248c-.328-.235-.493-.503-.653-.857l-.265.166c-.042-.262-.12-.567-.178-.831z"/><path d="m88.181 105.066.214-.274.229.939-.265.166c-.042-.262-.12-.567-.178-.831m54.781-47.881c1.978.637 2.121 3.371-.683 3.452-.893-.381-1.766-1.43-1.167-2.381.439-.697 1.117-.865 1.85-1.071m-6.877 24.02c2.261-.049 3.163 2.312 1.111 3.417-1.528.309-2.342-.844-2.105-2.327.091-.558.536-.81.994-1.09m-72.544 25.479a1.694 1.694 0 1 1 .977 3.244 1.694 1.694 0 0 1-.977-3.244m59.752-35.16c2.015.255 1.853 2.819-.599 3.359-2.344-.855-1.919-3.139.599-3.359m-90.084-6.168c2.235.025 3.223 2.178 1.031 3.319-1.301.047-1.778-.393-2.377-1.508.301-1.008.374-1.38 1.346-1.811m3.252-6.219c2.203-.146 2.916 2.187.872 3.377-2.285-.084-3.178-2.534-.872-3.377"/><path d="M88.359 105.896c-.124.621-.554 1.63-1.258 1.73-2.274.32-3.235-3.571-.382-3.342.698.057.997.258 1.462.782.058.263.136.569.178.83m57.592-42.487c.715-.061 1.25.397 1.506 1.046.153.394.144.833-.025 1.221-.302.704-.911.87-1.579 1.126-1.042-.153-2.092-.897-1.645-2.081.313-.829.984-1.008 1.743-1.312m-29.364-4.16c2.274.233 2.647 2.498.299 3.335-1.883.295-2.87-2.492-.299-3.335m-106.393-2.01c2.334.104 3.283 1.854 1.231 3.351-2.33.187-3.114-1.837-1.231-3.351m115.759 20.157c2.324-.035 2.718 2.385.384 3.269-1.193.132-2.253-1.007-1.793-2.179.273-.699.777-.819 1.409-1.09m-8.045-14.94c1.416-.058 1.615.264 2.208 1.454q-.046.144-.095.287c-.322.922-.583 1.084-1.444 1.501-2.083.315-2.869-1.902-.669-3.242M55.466 91.39c2.127-.1 2.541 2.207.438 3.295-2.076.141-3.108-2.469-.438-3.295m-15.241 5.92c2.618-.264 2.871 2.115.886 3.275-1.725.433-3.077-1.968-.886-3.275m56.523 1.959c2.367-.138 2.852 2.387 1.188 3.42-.839.027-1.503-.066-1.997-.831a1.62 1.62 0 0 1-.214-1.281c.172-.667.471-.957 1.023-1.308M29.79 71.598c2.297-.247 3.73 1.687 1.66 3.128-.677.15-1.558-.082-2.047-.574a1.55 1.55 0 0 1-.447-1.205c.045-.609.412-.968.834-1.349M61.922 7.999c1.541-.02 2.492 3.006-.17 3.564-.931-.148-1.882-.87-1.557-1.918.298-.964.912-1.195 1.727-1.646M34.534 62.356c2.395-.244 3.116 2.003 1.159 3.353-2.048-.101-3.225-1.93-1.159-3.353m104.858-11.184c.77.058 1.559.397 1.777 1.164.399 1.394-.498 1.864-1.539 2.153-1.251.004-2.107-.973-1.615-2.211.26-.651.773-.835 1.377-1.106M127.875 80.52c2.319.433 1.907 2.653-.378 3.273-2.285-.493-2.153-2.826.378-3.273m19.66-14.019c1.633.019 2.527 2.62-.081 3.389-.613-.078-1.398-.356-1.613-.96-.515-1.448.702-2.061 1.694-2.429M16.437 81.316c2.472.317 2.781 2.581.653 3.325-2.316.065-2.745-2.291-.653-3.325m50.98 25.146a1.664 1.664 0 1 1 .783 3.235 1.664 1.664 0 0 1-.783-3.235M7.406 63.411c.661.062 1.409.343 1.738.96.192.359.226.781.094 1.166-.228.671-.675.979-1.275 1.267a5 5 0 0 1-.754-.155c-.771-.218-1.016-.658-1.377-1.32.368-.996.45-1.633 1.574-1.918m49.721-49.148-.174.129c-1.278.918-2.999.242-2.849-1.442.058-.655 1.325-1.221 1.894-1.521.35.208.605.418.927.669l.29-.146.352.578-.1.295c.121.653-.04.839-.34 1.438"/><path d="m56.925 12.098.29-.146.352.578-.1.295zM31.504 68.474c2.109-.137 3.503 1.928 1.336 3.141-.375.031-.635.036-1.011-.035a1.77 1.77 0 0 1-1.146-.79c-.604-.945-.028-1.812.821-2.316m85.613 19.308c.272-.747.402-.804 1.078-1.166 1.917-1.029 2.931 2.664 1.039 3.129-.522.128-.99.069-1.457-.181l-.156.07c-.259-.371-.519-.683-.662-1.107.184-.242.129-.379.158-.745"/><path d="M117.117 87.782c.045.819.355 1.032.66 1.782l-.156.07c-.259-.37-.519-.682-.662-1.106.184-.243.129-.38.158-.746M73.61 1.378c1.666-.081 2.799 2.596.285 3.371-.683-.081-1.496-.438-1.74-1.097-.506-1.372.533-1.869 1.455-2.274M43.704 98.606a1.65 1.65 0 1 1 .53 3.259 1.65 1.65 0 0 1-.53-3.259m89.483-16.337c.856.094 1.478.417 1.733 1.314.129.442.07.918-.161 1.317-.299.501-.722.6-1.25.756-1.782-.018-2.804-2.504-.322-3.387m7.762-28.008c1.356.007 2.301.957 1.644 2.329-.283.593-.864.724-1.445.919-1.139.086-1.981-.809-1.628-1.939.252-.806.736-.955 1.429-1.309m3.215 6.238c1.838-.1 2.875 2.286.142 3.216-.643 0-1.448-.326-1.663-.937-.47-1.332.626-1.892 1.521-2.279M5.33 66.616c2.249-.176 3.382 1.604 1.453 3.192-1.743.457-3.349-1.483-1.453-3.192m109.434-10.364c2.102-.129 2.916 2.109.648 3.175-2.03.479-2.927-1.926-.648-3.175M52.271 93.988c.798-.046 1.547.041 2.068.728.241.31.331.713.247 1.098-.139.656-.556.927-1.075 1.277-.805.191-1.509.103-1.986-.667a1.76 1.76 0 0 1-.2-1.359c.154-.585.463-.774.946-1.077m53.29.052a1.644 1.644 0 0 1 1.739 1.514 1.644 1.644 0 0 1-2.991 1.068 1.65 1.65 0 0 1-.13-1.658 1.65 1.65 0 0 1 1.382-.924M21.756 41.08a1.623 1.623 0 1 1-.261.733l-.272-.178.256-.633z"/><path d="m21.479 41.002.277.078c-.145.22-.235.471-.261.733l-.272-.178zm3.922 39.512c2.362-.147 3.387 1.944 1.168 3.027-.345.064-.585.105-.936.046a1.58 1.58 0 0 1-1.066-.697c-.61-.954-.027-1.867.834-2.376m92.22 9.12c-.273 1.257-1.284 2.201-2.564 1.514a1.77 1.77 0 0 1-.871-1.064c-.409-1.414 1.504-2.608 2.773-1.556.143.424.403.736.662 1.106m-9.999-69.71c.653-1.529 1.922-2.251 3.275-.67.346.404.243.827.124 1.329-.254.236-.248.231-.428.528-1.406 1.27-2.38.214-2.971-1.187m12.304 45.554c1.136.215 1.256.605 1.774 1.575-.482 1.098-.67 1.276-1.762 1.715-1.783.114-2.052-1.337-1.297-2.697.553-.326.67-.397 1.285-.593"/><path d="M111.28 20.651c1.462-1.117 2.937-.135 2.633 1.548-.398 2.203-3.649 1.28-3.044-.973l-.276-.115c.18-.297.174-.292.428-.528z"/><path d="m111.021 20.584.259.067-.411.576-.276-.115c.18-.298.174-.293.428-.528m.698 29.658a1.64 1.64 0 1 1 .68 3.21 1.64 1.64 0 0 1-.68-3.21m-60.965 1.014c.909.047 1.552.403 1.832 1.323.138.45.089.938-.136 1.352-.268.494-.524.545-1.039.715-.321-.01-.766-.073-1.094-.108-.417-.463-.499-.579-.804-1.123-.014-1.348.008-1.583 1.241-2.159M67.451 4.811c.775-.04 1.473.311 1.794 1.046.186.427.184.912-.006 1.337-.252.558-.622.699-1.154.915-1.299.079-2.263-.891-1.877-2.181.194-.649.69-.835 1.243-1.117m53.9 63.659c1.357-.034 1.456.695 1.858 1.79-.42.993-.756 1.098-1.739 1.438-1.168.003-2.093-.789-1.596-2.014.3-.741.794-.919 1.477-1.214M47.473 98.369c.547.092 1.302.474 1.499.998.495 1.319-.515 1.949-1.425 2.394-2.199-.478-2.469-2.944-.074-3.392m40.57-46.045c-.576 1.193-2.443.794-2.767-.256-.69-2.23 2.238-3.433 3.011-.949.049.256.029.251.21.433l-.129.819z"/><path d="M88.287 51.119c.048.256.029.251.21.433l-.129.819-.325-.047zm-74.94.148c2.519-.135 2.937 2.119.967 3.28-1.995-.056-3.007-2.019-.967-3.28m-4.602 9.101c2.177.161 3.024 1.882 1.09 3.325-2.17.162-3.132-1.949-1.09-3.325m128.997-12.21c2.067-.046 2.947 2.151.501 3.204-1.15.165-2.119-.597-1.817-1.805.202-.808.652-1.006 1.316-1.399M39.22 52.917c2.348-.121 3.084 1.941 1.18 3.314-2.12-.043-3.056-1.826-1.18-3.314m-7.18 36.814c2.418.291 2.223 2.753.152 3.452-2.276-.46-2.14-2.408-.152-3.452m19.521 13.363c.75.016 1.555.231 1.915.954.176.347.201.752.068 1.118-.239.646-.64.935-1.238 1.185-2.297-.031-2.779-2.071-.745-3.257m88.401-22.991c.708.115 1.255.538 1.462 1.245.134.459.074.953-.166 1.367-.309.543-.794.642-1.354.78-.14.008-.346-.008-.486-.014-.448-.244-.891-.597-.996-1.105-.301-1.458.335-1.982 1.54-2.273m-47.408 20.85c1.983.627 2.089 2.976-.306 3.479-.304-.184-1.066-.852-1.38-1.116-.246-1.185-.159-1.246.658-2.104zm-29.485-3.137c1.931-.274 3.43 1.476 1.372 3.081-1.852.447-3.474-1.768-1.372-3.081m51.955-76.013c.893.317 1.909.56 2.012 1.663l.051.518.226.236-.557.702-.24-.215c-.775.678-1.741.657-2.328-.223a1.83 1.83 0 0 1-.261-1.393c.141-.667.568-.928 1.097-1.288"/><path d="m117.087 23.984.226.236-.557.702-.24-.215zM85.389 4.793c2.136.174 2.855 1.925.847 3.327-.777.032-1.52-.219-1.913-.938a1.54 1.54 0 0 1-.095-1.296c.229-.603.608-.846 1.161-1.093M27.271 77.406c2.308.22 2.912 2.162.694 3.325-1.849-.049-2.98-2.354-.694-3.325M70.532 3.05c.736.071 1.334.392 1.682 1.073.214.421.234.914.054 1.351-.241.585-.715.774-1.258.994a4 4 0 0 1-.685-.126c-.884-.249-1.368-1.332-1.054-2.167.25-.665.678-.82 1.261-1.125m-12.299 99.117c.882.057 1.62.361 1.889 1.286.113.385.058.802-.152 1.145-.314.515-.675.608-1.222.749-2.043.049-2.895-2.139-.515-3.18m-43.278-54.02c2-.094 3.085 1.917 1.054 3.233-2.268.227-3.052-1.7-1.054-3.233m22.682 7.889c.724-.04 1.493.08 1.97.686.222.278.318.636.264.987-.098.651-.564 1.08-1.063 1.442-.832.052-1.669-.113-2.127-.893a1.32 1.32 0 0 1-.141-1.008c.17-.635.574-.897 1.097-1.214m45.882-28.508c.855-.041 1.419-.082 1.861.77.529 1.015.061 1.949-.911 2.385-2.237.221-3.006-1.982-.95-3.155m24.938 57.339c2.575-.138 2.868 2.046.696 3.141-.584.08-1.454-.184-1.713-.723-.585-1.215.16-1.857 1.017-2.418M82.186 3.145c2.222-.193 2.96 1.824 1.014 3.279-2.01.265-2.948-1.918-1.014-3.279m54.49 42.024c1.102.204 1.632 1.099 1.188 2.117-.353.809-.873.97-1.629 1.247-1.959-.375-2.187-2.858.441-3.364m-76.387 59.935a1.624 1.624 0 1 1 .944 3.108 1.624 1.624 0 0 1-.944-3.108m90.117-32.387c.647-.067 1.37.291 1.579.888.486 1.398-.328 1.932-1.359 2.327-1.287.076-2.113-.888-1.628-2.123.26-.661.803-.827 1.408-1.092M11.718 54.259c2.28-.119 3.194 1.527 1.255 3.138-1.732.495-3.267-1.475-1.255-3.138M148.98 69.598c1.129-.08 1.355.699 1.702 1.581-.311 1.06-.385 1.309-1.436 1.677-.658-.001-1.447-.13-1.728-.773-.617-1.412.537-2.044 1.462-2.485m-43.214-52.983c.669.01 1.417.211 1.872.734.239.269.356.625.325.983-.059.726-.607 1.148-1.132 1.571-2.112.193-2.951-1.861-1.065-3.288"/><path d="M79.476 1.268c2.151.48 2.737 2.239.716 3.427-2.175.18-2.717-2.119-.716-3.427M46.748 16.625c1.685-.101 2.668 2.273.33 3.332-1.256.008-2.169-.884-1.701-2.157.264-.72.725-.866 1.371-1.175m18.56 34.788c-.646.311-1.67.53-2.14-.056-1.345-1.676 1.215-4.43 2.575-1.942l.174-.309.092.791c-.374.649.066 1.308-.701 1.516"/><path d="m65.743 49.414.174-.308.092.79c-.374.65.066 1.309-.701 1.517.522-.824.439-1.016.435-1.999M2.277 72.835c2.229-.18 3.301 1.703 1.305 3.087-2.183.324-3.113-1.585-1.305-3.087m43.349 12.027c2.096-.106 3.085 1.899 1.042 3.178-.762.22-1.424.007-1.836-.705a1.84 1.84 0 0 1-.159-1.488c.192-.577.432-.738.953-.985m34.237-70.18c.815-.053 1.519.006 1.867.881.173.427.159.908-.041 1.324-.277.597-.556.789-1.145.989-1.981.004-2.835-2.427-.681-3.194m20.371-1.694c2.205-.122 2.599 2.277.524 3.341-1.288-.006-1.507-.475-1.962-1.596.438-.953.55-1.227 1.438-1.745m-51.56 88.468c2.422-.24 2.525 1.946.796 3.223-2.098.141-2.932-1.916-.796-3.223m75.701-26.975c2.045-.009 2.619 2.232.219 3.222-1.08-.018-2.016-.612-1.678-1.809.229-.814.772-1.027 1.459-1.413m-3.273-49.269c2.259.315 2.313 2.907.761 3.261l-1.317-.056c-1.508-1.34-1.038-2.243.556-3.205M72.7 21.3c.349-.016.7-.046 1.035.066.366.119.668.382.837.728.548 1.116-.225 2.031-1.223 2.471-1.91.14-2.517-2.11-.649-3.265M35.066 91.566a1.614 1.614 0 0 1 .143 3.224 1.613 1.613 0 1 1-.143-3.224m-6.27-64.262c1.756-.035 2.996 2.233.631 3.229-.767.027-1.374-.201-1.771-.906a1.59 1.59 0 0 1-.095-1.335c.224-.605.683-.763 1.235-.988M3.979 69.722a1.612 1.612 0 1 1 1.076 3.039 1.612 1.612 0 0 1-1.076-3.039m33.603-29.016c.848-.048 1.6-.095 2.109.73.183.296.24.653.158.992-.162.669-.563.987-1.107 1.333-2.202.242-2.958-2.026-1.16-3.055m31.331-13.081a1.612 1.612 0 1 1 1.325 2.938 1.612 1.612 0 0 1-1.325-2.938m49.387-4.128c.951.381 2.228 1 1.587 2.291-.244.482-.68.839-1.2.984-1.31.353-1.982-.632-1.931-1.85l.557-.702c.366-.302.57-.49.987-.723m-80.365-1.684c1.748-.011 2.63 2.678.185 3.333-1.21-.005-2.021-1.114-1.517-2.238.305-.678.694-.808 1.332-1.095m75.453 31.525c2.381-.076 2.503 2.214.41 3.09-1.232.083-2.221-.795-1.743-2.075.243-.649.74-.786 1.333-1.015m-76.383-5.831c-1.768 1.779-3.784-.587-2.448-1.996a1.8 1.8 0 0 1 1.289-.556c.951-.01 1.404.746 1.38 1.621l.324.083-.222.9z"/><path d="m37.226 46.576.324.083-.222.901-.323-.053zm-20.715-1.534c1.111.199 2.304.669 1.854 2.205-.159.54-.654.882-1.161 1.109-.731.001-1.49-.316-1.811-1.012a1.5 1.5 0 0 1-.032-1.181c.242-.597.58-.882 1.15-1.121M91.24 8.217c2.083-.002 2.681 2.017.847 3.394-1.939.308-2.82-1.948-.847-3.394M39.657 91.595l.582.652-.135.206c.693 1.032.245 1.908-.812 2.403l-.743-.188c-.319-.09-.839-.208-1.004-.488-.984-1.682.282-2.633 1.858-2.439z"/><path d="m39.657 91.595.582.652-.135.206a59 59 0 0 1-.701-.712zm16.567-24.133c.739.284.886.555 1.345 1.2-.395 1.349-.451 1.913-1.947 2.163a7 7 0 0 1-.405-.186c-1.886-.923-.909-2.804 1.007-3.177M88.502 6.563c2.136.135 2.572 2.133.592 3.199-2.456.219-2.648-2.095-.592-3.199M75.786 99.721a1.606 1.606 0 1 1 .514 3.17 1.606 1.606 0 0 1-.514-3.17m-14.893.045c.657.06 1.213.342 1.598.899.266.384.355.864.244 1.318-.143.599-.613.888-1.101 1.18-2.179-.105-2.837-2.132-.741-3.397m37.734-8.94c.714-.015 1.505.248 1.944.837.247.327.348.739.28 1.143-.117.655-.464.913-.972 1.264-1.185.29-2.225-.503-2.142-1.745.052-.775.363-.996.89-1.499m-21.84-63.078c1.747-.129 2.329 2.473-.009 3.154-1.393-.102-2.219-1.233-1.381-2.527.32-.496.84-.54 1.39-.627M52.388 13.326c1.836-.151 3.09 1.89.914 3.162-1.801.399-3.108-1.894-.914-3.162M28.64 74.468c1.916-.029 3.271 1.784 1.171 3.142-2.311.06-3.127-1.617-1.171-3.142m-2.599-32.964c2.22.269 2.709 2.348.695 3.324-2.017.053-2.796-2.168-.695-3.324m94.494 2.346a1.605 1.605 0 1 1 .272 3.199 1.605 1.605 0 0 1-.272-3.199M34.812 23.578c1.885-.005 2.738 2.613.394 3.349-1.987-.341-2.554-2.337-.394-3.349m31.105 25.529c.195-.469.496-1.075 1.045-1.218 2.146-.558 3.057 2.838.663 3.251-.825.142-1.322-.589-1.616-1.243zm34.336 49.23c2.001.006 2.941 2.03.756 3.115-.942.033-1.644-.185-1.982-1.17a1.48 1.48 0 0 1 .078-1.164c.27-.527.617-.621 1.148-.781m34.438-56.2c1.853-.159 2.84 2.151.6 3.149-1.196.147-2.182-.445-1.882-1.789.164-.734.674-.993 1.282-1.36"/><path d="M49.854 14.963c1.921.25 2.332 2.56.131 3.399a3 3 0 0 1-.584-.155c-.895-.34-1.342-1.274-.951-2.155.299-.676.781-.816 1.404-1.089m96.124 63.144c.333-.01.551.001.837.17.405.245.695.643.802 1.105.282 1.178-.321 1.764-1.381 2.045-.698-.151-1.281-.443-1.581-1.136a1.55 1.55 0 0 1 .043-1.298c.279-.568.716-.675 1.28-.886m-42.856-63.456c2.214.349 2.532 2.377.449 3.444-2.303-.549-2.35-2.276-.449-3.444M80.09 21.32a1.6 1.6 0 1 1 .489 3.163 1.6 1.6 0 0 1-.489-3.163M49.881 96.213a1.6 1.6 0 0 1 .674 3.129 1.601 1.601 0 1 1-.674-3.129M31.66 25.349c.786-.065 1.366.07 1.772.825.217.394.252.864.097 1.286-.189.512-.483.753-.949.989-.902.082-1.525.019-1.993-.891a1.53 1.53 0 0 1-.059-1.292c.229-.572.593-.678 1.132-.917M86.981 69.52q.213-.01.425-.014c2.037-.026 2.147 1.894.728 3.105a3.7 3.7 0 0 1-.778.034 1.7 1.7 0 0 1-1.206-.656c-.695-.905-.001-1.963.831-2.469m27.241-28.806c.946-.095 1.704-.125 2.277.764.585.908-.103 1.696-.844 2.164-2.018.491-3.051-1.516-1.433-2.928M77.064 17.827c1.245.304 1.616 1.445.856 2.432-.465.603-.877.611-1.576.694-1.441.097-2.18-3.043.72-3.126m33.449 73.075c2.653-.304 3.266 1.991 1.177 2.93-1.387.185-3.507-1.905-1.177-2.93M70.45 104.763c2.37-.085 2.702 2.332.835 3.138-2.153.027-2.916-2.002-.835-3.138M94.169 9.788c2.267-.144 2.764 1.964.793 3.253-1.672.427-2.81-1.758-.793-3.253m-39.196 94.053c2.083-.093 2.955 2.363.807 3.103-.323.026-.608.032-.927-.058a1.5 1.5 0 0 1-.928-.753 1.42 1.42 0 0 1-.081-1.145c.22-.627.566-.875 1.129-1.147m62.806-58.884c1.45.102 2.063 2.93-.441 3.236-.693-.155-1.343-.5-1.449-1.235-.206-1.43.881-1.789 1.89-2.001m-79.23 49.711.743.187.057.233c.216.235.618.758.586 1.034-.363 3.166-4.423 1.617-2.819-.978.166-.267.673-.324 1.028-.307z"/><path d="m38.549 94.668.743.187.057.233c-.375-.096-.819-.174-1.205-.251zm44.423 8.429c2.368-.048 2.585 2.575.709 3.221a14 14 0 0 1-.541-.061c-1.971-.282-1.697-2.116-.168-3.16M72.62 27.757a1.593 1.593 0 1 1 1.023 3.018 1.593 1.593 0 0 1-1.023-3.018m7.345-.024c.927-.045 1.656.165 1.941 1.162.112.379.063.788-.136 1.13-.261.458-.535.592-1.013.737-2.136.288-2.959-2.111-.792-3.029m70.39 49.644c.164-.582.198-.857.732-1.173 2.342-1.39 3.091 2.138 1.212 2.909-.488.2-1.045-.144-1.405-.453l-.221.195c-.249-.39-.415-.797-.605-1.219.161-.107.151-.116.287-.259"/><path d="M150.068 77.636c.161-.107.151-.117.287-.26.141.641.243.731.539 1.284l-.221.195c-.249-.39-.415-.797-.605-1.219M40.686 20.156c1.337-.038 2.213 1.088 1.691 2.361-.234.57-.661.696-1.194.927-1.259.017-2.074-1.163-1.645-2.329.212-.574.631-.719 1.148-.959m6.672 31.391a1.59 1.59 0 0 1 1.687 2.2 1.592 1.592 0 1 1-1.687-2.2M13.085 80.198c.708-.08 1.469.164 1.842.809.202.348.251.762.136 1.147-.176.598-.51.918-1.035 1.199-2.245.314-2.812-2.11-.943-3.155m87.118-1.247c2.142-.113 2.98 2.089.937 3.092-1.284.29-1.743-.365-2.219-1.421.397-.811.546-1.106 1.282-1.671M76.739 24.444c1.684-.279 2.423 2.669-.096 3.04-.408.012-.621.041-.981-.209-.791-.55-.749-1.617-.172-2.312.392-.471.643-.467 1.249-.519m33.257 63.326c.458-.032 1.1-.117 1.475.154 1.319.954 1.188 2.28-.448 2.617-.762.095-1.541.061-1.949-.662-.581-1.034.204-1.655.922-2.109M54.208 50.853c2.058-.055 2.691 2.594.506 3.092-1.99.048-2.778-2.438-.506-3.092M19.845 82.571c2.352.25 2.715 2.46.783 3.216-2.071-.058-2.843-2.321-.783-3.216m23.387 4.588 1.047.176c1.329 1.068 1.333 2.3-.253 3.11l-.424-.086a2.2 2.2 0 0 1-1.387-1c-.583-.984.131-1.789 1.017-2.2m33.116-72.756c.31-.037.488-.061.798.015.39.092.72.351.9.709.208.401.233.873.067 1.293-.209.547-.557.818-1.062 1.057-1.302.043-2.351-.489-1.875-2.138.132-.456.719-.789 1.172-.936M64.337 6.58c.887-.101 1.548.2 1.885 1.07.166.42.152.889-.039 1.298-.229.489-.481.576-.967.766-1.337.194-2.342-.953-1.896-2.249.186-.543.526-.643 1.017-.885m23.795 76.526c.22.044.584.125.788.206.397.161.715.473.882.868.449 1.034-.303 1.842-1.233 2.197l-.122-.015c-2.236-.287-2.264-2.206-.315-3.256m8.919-71.668c.27-.021.557-.047.821.007.441.086.823.358 1.047.746.551.967-.078 1.982-1.004 2.409-1.984.205-2.651-1.836-.864-3.162M58.336 57.173c2.09.472 2.328 2.847.221 3.308-2.144-.495-2.342-2.576-.221-3.308m65.555-29.903a1.58 1.58 0 0 1 1.537.412 1.58 1.58 0 0 1-.741 2.65 1.583 1.583 0 0 1-.796-3.062m19.099 51.895c1.297.123 1.899 1.491 1.286 2.602-.244.441-.828.573-1.278.699-1.452-.12-2.608-2.736-.008-3.301M17.939 42.152c2.279-.119 2.837 2.308.934 3.109a3.6 3.6 0 0 1-.885-.119c-1.583-.433-1.548-2.325-.049-2.99m94.115 40.68a1.576 1.576 0 0 1 .597 3.098 1.577 1.577 0 1 1-.597-3.098m-54.838-70.88c-.003-1.62.358-1.651 1.789-2.219 2.917 2.081.289 4.363-1.438 2.797zM7.108 78.219c2.351-.003 2.58 2.619.74 3.221-2.292-.279-2.6-2.256-.74-3.221m83.493 6.952c.728-.041 1.466.09 1.876.765.208.34.257.756.13 1.134-.183.571-.602.9-1.103 1.175-.801-.04-1.495-.126-1.923-.908a1.24 1.24 0 0 1-.107-.961c.168-.559.647-.926 1.127-1.205M53.352 65.06l1.241-.04c1.141.776 1.119.866 1.071 2.199-.414.318-.675.459-1.123.713-1.708.529-3.034-1.297-1.189-2.872m30.082-16.172c2.345.318 2.156 2.599.382 3.184-2.372-.242-2.424-2.622-.382-3.184m49.971-9.635c2.27.756 1.87 2.517-.217 3.263-1.996-.334-2.069-2.618.217-3.263"/><path d="M57.365 50.034c1.013-.072 1.713.203 1.97 1.251.246 1.002-.298 1.546-1.182 1.741-.834.053-1.47-.13-1.849-.958a1.47 1.47 0 0 1-.021-1.177c.231-.556.552-.642 1.082-.857m35.064 23c.738-.022 1.413.165 1.77.877.183.371.206.801.063 1.188-.199.546-.6.884-1.106 1.127-2.372-.183-2.61-1.939-.727-3.192M79.753 48.046c1.449.155 1.609.231 2.099 1.604-.221.791-.235 1.322-1.063 1.627-1.826 0-2.16-.9-1.944-2.487.274-.254.612-.508.908-.744m23.216 32.876c2.215-.286 2.751 1.774.717 3.135-1.836.1-2.776-1.894-.717-3.135M39.657 91.594c-.125-1.474.481-1.88 1.832-2.254 2.546 2.001.564 4.337-1.25 2.907zm43.679-73.909c2.49-.151 2.853 2.235 1.088 2.979-.91.034-1.573.028-2.025-.928a1.3 1.3 0 0 1-.027-1.075c.207-.504.489-.762.964-.976m-10.685-3.036a1.57 1.57 0 1 1 .847 3.023 1.57 1.57 0 0 1-.847-3.023M58.098 88.808c1.735-.146 2.704 2.195.616 3.197-.751.01-1.406-.256-1.757-.964a1.58 1.58 0 0 1-.032-1.299c.234-.555.649-.699 1.173-.934M37.55 46.659c.641-.676 1.605-.999 2.326-.236.338.356.515.835.489 1.326-.101 2.009-2.956 1.933-3.037-.189zM2.792 78.55c-1.127 1.409-2.512.329-2.769-.921-.347-1.69 3.324-2.331 3.231-.059-.156.323-.323.651-.462.98m40.856-60.064c1.867-.118 2.544 2.069.529 3.202-1.215.042-2.212-.956-1.77-2.162.237-.645.675-.764 1.241-1.04m29.703 83.797c2.185.391 2.305 2.381.388 3.162-.812-.12-1.438-.229-1.77-1.061a1.3 1.3 0 0 1 .012-1.018c.278-.64.759-.864 1.37-1.083m-12.753-52.94a1.562 1.562 0 1 1 .917 2.986 1.562 1.562 0 0 1-.917-2.986M76.551.012a1.56 1.56 0 1 1-1.028 2.515A1.56 1.56 0 0 1 75.304.97a1.56 1.56 0 0 1 1.247-.958m16.925 87.007c.694.061 1.088.36 1.644.748.103.341.197.741.29 1.09-.421.609-.605.921-1.221 1.335-2.162.271-2.848-1.888-.713-3.173m-8.948-19.151c2.26.426 2.087 2.45.174 3.281-2.211-.568-2.265-2.334-.174-3.281M68.955 21.113c.321-.044.589-.079.904.009.485.134.895.457 1.141.895.481.868.024 1.583-.773 1.997-.869.043-1.536.161-2.091-.685a1.2 1.2 0 0 1-.162-.954c.168-.645.444-.926.981-1.262m58.039 20.511c1.861-.026 2.356 2.201.182 3.218-.632-.053-1.393-.388-1.576-1.006-.393-1.336.483-1.81 1.394-2.212M68.955 17.781c2.272-.157 3.042 1.806 1.3 2.87-.798.096-1.483.192-2.003-.524-.684-.941-.07-1.785.703-2.346m28.486 59.2c.775-.055 1.386-.006 1.854.71.22.332.291.739.197 1.126-.149.61-.512.9-1.011 1.22q-.328.051-.661.041c-1.764-.061-1.688-2-.379-3.097m-1.988-25.075c2.543-.319 2.891 1.937 1.235 2.922-.812.158-1.43.107-1.896-.676a1.55 1.55 0 0 1-.169-1.202c.144-.548.359-.784.83-1.044m-6.788 43.693a1.555 1.555 0 1 1 1.078 2.918 1.555 1.555 0 0 1-1.078-2.918m-59.513-8.246c.94-.034 1.608-.13 2.304.666.666.762.029 1.618-.606 2.11a5 5 0 0 1-.565.103c-1.722.211-2.385-1.498-1.133-2.879M60.8 55.315c.675-.067 1.347.206 1.745.768.226.322.307.724.225 1.109-.136.611-.577.889-1.076 1.175-1.845.434-2.972-1.865-.894-3.052m53.718-20.924c2.678-.196 2.55 2.615 1.073 2.809-.846.109-1.593.158-2.046-.702-.505-.962.208-1.685.973-2.107m6.652 50.362c.77.004 1.426.35 1.672 1.123.138.435.087.909-.14 1.305-.281.485-.615.632-1.12.788-1.625-.062-2.697-2.23-.412-3.216m-41.271 16.751a1.55 1.55 0 1 1 1.146 2.881 1.55 1.55 0 0 1-1.146-2.881M38.351 31.152c2.154.254 2.074 2.82.073 3.036-2.072.021-2.355-2.365-.073-3.036m51.232 40.236c2.484-.097 2.705 1.72.88 3.11-1.833.364-2.564-1.662-.88-3.11M76.478 21.213c2.236-.012 2.396 2.582.3 2.99-.296.001-.673-.048-.936-.188a1.45 1.45 0 0 1-.741-.938 1.42 1.42 0 0 1 .187-1.103c.314-.488.656-.63 1.19-.761m-7.192 3.103c.866-.016 1.412.135 1.778 1.001.159.377.147.804-.033 1.171-.225.45-.489.581-.935.744-1.274.054-2.571-.447-1.949-2.16.148-.406.73-.634 1.139-.756m33.892-13.991c2.277-.237 2.539 2.138.687 3.052a2.3 2.3 0 0 1-.797-.088 1.46 1.46 0 0 1-1.002-1.881c.216-.638.541-.82 1.112-1.083m7.864 36.694c.351.002.521.004.831.195.33.198.565.524.649.9.277 1.232-.544 1.758-1.577 1.993-1.19.046-1.809-1.186-1.296-2.187.324-.634.773-.704 1.393-.901M77.211 96.567c2.305-.066 2.584 2.635.611 2.983-2.152-.062-2.639-2.05-.611-2.983m28.334-13.673c.81-.008 1.532.181 1.916.977.159.323.178.697.055 1.035-.182.493-.536.774-.984 1.003-1.917.293-3.041-1.65-.987-3.015M83.493 21.03c2.434-.245 2.642 2.379.822 2.857-.852.033-1.485.038-1.894-.843-.444-.958.253-1.667 1.072-2.014m40.109 21.758a1.544 1.544 0 0 1 1.761 2.032 1.547 1.547 0 0 1-2.541.583 1.545 1.545 0 0 1 .78-2.615M83.34 24.321c.272-.028.961-.104 1.192.008 1.38.673 1.38 2.292-.09 2.837-.693.062-1.323.127-1.791-.49-.712-.938-.065-1.804.689-2.355m31.656 6.834c.383.009.701.026 1.025.258.323.234.531.593.572.989.133 1.168-.647 1.61-1.66 1.703-1.819.083-2.208-2.487.063-2.95M55.594 59.317a1.544 1.544 0 1 1 .505 3.047 1.544 1.544 0 0 1-.505-3.047m47.479-52.289a1.542 1.542 0 1 1 .959 2.931 1.542 1.542 0 0 1-.959-2.931M65.766 95.651c2.311-.167 2.827 1.969.745 3.048-1.447.115-2.908-1.884-.745-3.048m20.398-1.979c2.194.049 2.465 1.872.775 3.167-2.386-.081-2.614-1.808-.775-3.167"/><path d="M129.697 40.493c1.597-.114 1.661.496 2.027 1.853-.348.74-.423.875-1.145 1.241-1.754.365-2.808-1.974-.882-3.094M101.39 95.752c.199-.001.905-.017 1.059.047 1.568.643 1.449 2.21.146 2.928-1.727-.372-3.689-1.754-1.205-2.975M28.932 42.974a1.54 1.54 0 1 1 1.064 2.89 1.54 1.54 0 0 1-1.064-2.89m3.354 1.035q.175.006.351.026c1.743.209 1.467 1.396 1.088 2.629-.303.205-.629.347-.959.505-.663-.093-1.251-.302-1.594-.928a1.4 1.4 0 0 1-.094-1.148c.232-.648.623-.829 1.208-1.084m69.796 48.513c1.784.21 2.746 2.541.653 3.028-.533-.003-.907-.076-1.43-.156-.862-1.208-.744-2.341.777-2.872m17.614-14.928c1.784-.121 2.866 2.099.755 3.098-1.843.085-2.844-1.992-.755-3.098m-4.672-49.753c1.341.019 1.811 1.325 1.149 2.38-.303.485-.648.524-1.169.653l-.099.006c-1.764.117-2.311-2.537.119-3.039M103.266 3.67c.839-.046 1.437.199 1.706 1.058.139.454.09.946-.137 1.364-.261.48-.51.546-1.011.689-2.122-.04-2.436-2.102-.558-3.111m10.661 42.362a1.533 1.533 0 0 1 1.709 2.062 1.535 1.535 0 1 1-1.709-2.062m-45.271 47.37a1.53 1.53 0 1 1 .432 3.028 1.53 1.53 0 0 1-.432-3.028m46.292-55.934c1.29.155 2.231 1.114 1.345 2.42-.275.404-.78.405-1.249.453-2.164.219-2.096-2.246-.096-2.873m-7.515 10.899c2.417-.208 2.533 2.296 1.117 2.852-.909.096-1.6.048-2.054-.851-.495-.977.14-1.616.937-2.001M85.248 81.325c1.943-.153 2.891 1.645.98 2.929-2.179.161-2.902-1.571-.98-2.929M68.952 14.671c2.12-.058 3.179 1.511 1.35 2.784-.819.028-1.542.134-2.098-.608-.64-.852.087-1.683.748-2.176M37.846 27.939c2.595-.18 2.317 2.739.977 2.949-.809.001-1.422.026-1.85-.79-.508-.969.035-1.713.873-2.159m6.533 53.907a1.519 1.519 0 1 1 .18 3.036 1.519 1.519 0 0 1-.18-3.036M38.29 37.623c2.067.144 2.041 2.678.315 2.799-.421-.003-1.06.032-1.364-.269-1.14-1.123-.425-2.442 1.049-2.53m45.233-23.056c2.099 0 2.612 2.162.765 2.787-.268.017-.899.079-1.121-.045-1.605-.893-1.175-2.223.356-2.742m12.54 74.47a1.517 1.517 0 1 1 .84 2.915 1.517 1.517 0 0 1-.84-2.915M76.75 47.313c2.097-.04 2.451 2.438.84 3.121-2.168.05-2.629-2.075-.84-3.121m41.355-19.471c.64.024 1.201.368 1.454.967.177.426.164.908-.036 1.325-.24.494-.5.563-.993.744-.886-.002-1.582-.235-1.812-1.204a1.54 1.54 0 0 1 .183-1.162c.312-.509.655-.55 1.204-.67"/><path d="M117.075 79.246c1.665.038 2.911 2.019.715 3.076-1.717.204-2.781-1.966-.715-3.076M88.497 51.551c.281-.465.591-.783 1.127-.924 1.747-.46 2.574 2.793.694 3.021-.892.108-1.652-.426-1.95-1.277zm-48.023 29.23c-1.19.682-2.388.158-2.466-1.187-.089-1.524 3.193-2.175 3.049.202l.315-.029a1.47 1.47 0 0 0-.389.943z"/><path d="m41.057 79.796.315-.029a1.47 1.47 0 0 0-.389.943l-.509.07c.187-.353.334-.668.583-.984m57.414-27.075c2.239-.088 2.957 1.714 1.414 3.02-.997.026-2.262-.27-2.167-1.545.038-.574.31-1.107.753-1.475"/><path d="M101.84 52.408c1.483-.104 2.248.702 1.771 2.276-.139.46-.54.591-.973.773-.537.06-1.097.027-1.396-.458-.698-1.134-.355-1.948.598-2.591M31.056 81.965q.27-.019.54-.021c1.734-.001 2.482 1.535.858 2.85-1.925.424-2.965-1.797-1.398-2.829m6.759-47.477c1.24-.086 2.426.302 1.978 1.969-.135.502-.606.72-1.083.887l-.558-.062c-1.647-.172-1.779-1.865-.337-2.794m38.343 59.083c1.34-.061 2.156 1.045 1.519 2.277-.239.461-.758.543-1.226.677-.394.096-1.216-.17-1.379-.578-.512-1.282.099-1.846 1.086-2.376M10.202 79.244c2.143-.019 2.117 2.584.547 3.279-2.164-.272-2.186-2.178-.547-3.279m58.979-14.505c2.082.025 2.813 1.89.824 2.973-1.952.286-2.574-1.906-.824-2.973m-5.795-11.317a1.497 1.497 0 1 1 .788 2.89 1.497 1.497 0 0 1-.788-2.89m30.645-47.2c.317-.036.385-.065.699.008l.3.233c3.232 1.687-2.379 4.739-2.033.966.037-.386.483-.801.834-.968z"/><path d="M94.031 6.222c.317-.036.384-.065.699.008l.3.233-1.199-.002zm11.19 45.442c1.777.457 2.175 2.581.367 3.173-.682-.076-1.307-.202-1.571-.896-.508-1.33.186-1.859 1.204-2.277M58.377 68.888c2.146-.069 2.607 2.247.714 3.02-2.102-.097-2.387-2.099-.714-3.02m-54.861 8.78c.517-.329.728-.348 1.328-.234 1.904.361.979 3.323-.727 2.802-.589-.18-.935-.717-1.188-1.244 0-.219-.038-.217-.137-.442.139-.33.306-.657.462-.98z"/><path d="m3.254 77.57.262.098c-.179.399-.436.928-.587 1.324 0-.219-.038-.217-.137-.442.139-.33.306-.657.462-.98m17.969-35.935c-1.821 1.926-3.325-.843-2.447-1.805.85-.93 2.69-.665 2.703 1.172zm26.975 41.203a1.487 1.487 0 1 1 .781 2.871 1.487 1.487 0 0 1-.781-2.871m44.287-31.45c1.244-.108 2.201.256 1.893 1.836-.107.55-.447.784-.934 1.043-2.117.439-2.45-1.996-.959-2.879m58.188 27.467c-.028.594-.497 1.364-1.097 1.397-1.916.102-2.959-2.557-.588-3.015.442-.084.752.124 1.079.399.191.422.357.829.606 1.219M44.248 48.376c2.314-.148 2.751 1.789 1.131 2.82-2.22.294-2.679-1.498-1.131-2.82m-3.638 1.641.356.075c1.911.399 2.328 1.712.668 2.879-.225-.012-.506-.026-.725-.061a1.65 1.65 0 0 1-1.127-.757c-.551-.892.079-1.662.828-2.136m-5.347 30.851c.061.904-.667 2.113-1.598 1.797-1.951-.659-1.645-4.224 1.06-2.596l.355-.101.315.872z"/><path d="m35.08 79.967.315.872-.132.029-.538-.799zM83.242 92.12c.933-.072 2.104.136 2.129 1.326.014.654-.5 1.077-.932 1.504-1.897.6-2.624-1.357-1.197-2.83m-2.538-1.853c2.386-.175 2.663 2.056.947 2.976a4 4 0 0 1-.701-.13c-.707-.209-.997-.749-1.334-1.347.362-.586.559-1.075 1.088-1.499m33.771-9.134c1.944-.095 2.747 1.811.968 2.888-.827.028-.947-.043-1.645-.506-.531-1.184-.586-1.797.677-2.382M53.123 61.93c1.914.035 2.686 1.839 1.05 2.81-.831.029-1.51.058-1.996-.749-.579-.962.173-1.658.946-2.061M41.372 79.767a1.464 1.464 0 1 1 2.147 1.99 1.464 1.464 0 0 1-2.147-1.99m20.037-10.88c1.957-.067 2.66 1.803 1.029 2.926-2.138.086-2.706-1.952-1.029-2.926M34.79 27.934c.834-.047 1.019.13 1.711.586.14 1.107.455 1.905-.743 2.4-1.976-.205-2.765-1.7-.968-2.986m46.499 38.341a1.46 1.46 0 0 1 1.956 1.627 1.46 1.46 0 1 1-1.956-1.627M29.865 84.218c1.233.227 2.96 1.927.845 2.906-2.36.013-2.846-2.192-.845-2.906m28.691-2.279c1.806-.012 2.247 2.014.157 2.996-1.96-.19-2.134-2.052-.157-2.996"/><path d="M35.08 79.967c-.063-1.051.064-1.999 1.42-1.833.391.045.743.26.961.588.855 1.266-.159 3.024-2.066 2.117zm41.022-16.88c2.413-.179 2.556 1.789.888 2.819-.546.06-1.153-.011-1.479-.475-.755-1.077-.228-1.745.591-2.344m-4.336-.172a1.451 1.451 0 1 1-.937 1.817 1.45 1.45 0 0 1 .937-1.817M96.919.789c.855-.074 1.371-.1 1.886.693.192.293.257.653.178.995-.116.526-.355.787-.789 1.061-2.079.434-2.65-1.498-1.275-2.749M66.712 66.382c.639.033 1.182.225 1.532.799.204.338.262.745.159 1.126-.175.623-.54.821-1.075 1.097-.626.153-1.038-.012-1.343-.59-.621-1.179-.198-1.868.727-2.432"/><path d="M102.022 2.735c-.261.628-.706.809-1.344.904-1.865.28-1.685-3.06.002-2.954.56.036.988.401 1.351.796zm-.437 69.172c.697.098 1.141.334 1.358 1.041.13.424.075.885-.151 1.266-.256.434-.632.552-1.091.652-.723-.222-1.313-.553-1.499-1.355a1.17 1.17 0 0 1 .161-.91c.309-.472.708-.568 1.222-.694m-50.938 9.108c.609.025 1.199.296 1.558.803.219.306.294.693.205 1.058-.137.544-.562.771-1.013 1.027-1.583.1-2.842-1.821-.75-2.888m27.9-16.268.206-.01c1.959-.073 2.428 1.383.954 2.745-2.027.331-2.611-1.37-1.16-2.735M94.031 6.222c-.382-.13-.896-.327-1.035-.721-.723-2.056 2.264-2.826 2.817-.825.089.316.038.656-.142.931-.257.396-.517.479-.941.623-.314-.073-.382-.044-.699-.008"/><path d="M52.755 79.472c1.09-.056 2.178.232 1.893 1.763-.088.467-.53.766-.959.957-1.643.095-2.809-1.685-.934-2.72m13.075 4.571c1.602.189 2.13 2.238.299 2.943-1.861-.2-2.444-2.526-.299-2.943"/><path d="M62.949 85.125a1.417 1.417 0 1 1 .433 2.8 1.417 1.417 0 0 1-.433-2.8m-6.658-5.213a1.415 1.415 0 1 1-1.04 2.241 1.413 1.413 0 0 1 1.04-2.241m17.742-19.075a1.41 1.41 0 0 1 1.886 1.62 1.411 1.411 0 1 1-1.886-1.62m-5.379 24.022c1.996-.197 2.661 1.534.579 2.592-1.618.366-2.574-1.673-.579-2.592m1.567 2.389c2.06.05 2.316 2.005.599 2.583-2.355-.022-2.56-1.815-.599-2.583m28.209-14.73c2.139-.205 2.303 2.092.789 2.788-.714.047-1.221-.143-1.578-.807a1.5 1.5 0 0 1-.096-1.177c.162-.478.457-.585.885-.804"/><path d="M60.884 87.229a1.397 1.397 0 1 1 .099 2.793 1.397 1.397 0 0 1-.099-2.793m-1.707-2.353c2.22-.207 2.961 1.322.902 2.421-1.604.573-2.637-1.424-.902-2.421m5.309-16.922c1.468.035 2.428 1.931.399 2.797-1.159-.109-2.012-.743-1.49-2.087.177-.454.643-.557 1.091-.71m13.816 20.944a1.385 1.385 0 0 1 1.62 1.796 1.386 1.386 0 1 1-1.62-1.796m-36.704-41.59c2.029.014 2.367 1.991.827 2.85-.633-.168-1.204-.231-1.596-.812-.63-.932-.039-1.577.769-2.038m27.538-9.926c.22-.005.68-.023.878.052.411.16.74.479.912.884.337.811-.207 1.373-.917 1.637-1.899.389-2.572-1.52-.873-2.573M93.918.773c1.736-.077 2.763 1.538 1.043 2.497-2.07.13-2.95-1.352-1.043-2.497M66.114 51.565c1.798-.058 2.064 1.833.094 2.727-.849-.177-1.713-.683-1.401-1.679.195-.623.771-.794 1.307-1.048m6.184-14.084c1.206.021 2.182.532 1.536 2.044-.147.344-.52.433-.875.528-1.167.069-1.932-.4-1.574-1.779.117-.45.496-.612.913-.793m36.397 14.026c1.357-.181 1.82 2.226-.237 2.55-.913-.183-1.943-.851-1.259-1.948.311-.499.953-.53 1.496-.602m-6.219-50.203c1.947-1.328 3.585 1.055 1.882 2.037-.625.359-1.73.15-2.022-.73 0-.427.081-.88.14-1.307M83.699 37.47c.234-.005.436-.015.665.041.375.091.692.339.87.68.422.811-.069 1.504-.808 1.866-2.161.151-2.43-1.804-.727-2.587m20.139 34.136q.292-.032.586-.047c1.44-.061 2.071 1.545.731 2.52-1.982.337-2.631-1.203-1.317-2.473m-34.201-31.2c.657-.084 1.069.115 1.26.79.118.434.042.897-.209 1.27-.252.369-.423.367-.788.43-.366-.012-.914.056-1.181-.197-1.098-1.04-.394-2.158.918-2.293"/><path d="M80.897 37.505a1.303 1.303 0 1 1 .377 2.578 1.303 1.303 0 0 1-.377-2.578m2.772 2.876a1.302 1.302 0 1 1 .773 2.485 1.302 1.302 0 0 1-.773-2.485m-8.854-2.793c.738-.029 1.321-.162 1.83.505.497.651.085 1.485-.479 1.929-.604.062-1.009.156-1.496-.279-.71-.634-.481-1.559.145-2.155m2.978.038a1.298 1.298 0 1 1 1.168 2.318 1.298 1.298 0 0 1-1.168-2.318m5.592 5.558c1.576-.067 2.921.777 1.385 2.165-1.746.445-2.642-.756-1.385-2.165m40.06 39.88c1.264.143 2.06 2.192.404 2.825-1.529-.429-1.943-1.907-.404-2.825M68.923 43.186c.674-.055 1.216-.156 1.716.403.549.613.061 1.346-.43 1.795-1.674.179-2.617-.909-1.286-2.198m-24.984 8.621c1.656.161 2.493 1.481.778 2.312-1.719-.075-2.478-1.443-.778-2.312m76.471-23.108c1.144-.029 3.287.609 1.607 1.819a3 3 0 0 1-.654.124 1.41 1.41 0 0 1-1.119-.441c-.485-.511-.267-1.077.166-1.502m-88.003.002c1.24-.116 1.273.997.665 1.73-.224.269-.623.246-.949.269-.86-.105-1.527-1.048-.797-1.754.255-.247.737-.224 1.081-.245m36.658 22.573c.287.051.4.192.568.393.17.684-.228 1.096-.793 1.392-1.291-.42-1.154-1.431.225-1.785"/></g></svg>