<svg preserveAspectRatio="none" width="100%" height="100%" overflow="visible" style="display: block;" viewBox="0 0 2.28981 75.5637" fill="none" xmlns="http://www.w3.org/2000/svg">
<g id="Buttons Right">
<path id="Lock" d="M0 0H1.52654C1.94808 0 2.28981 0.341728 2.28981 0.76327V74.8005C2.28981 75.222 1.94808 75.5637 1.52654 75.5637H0V0Z" fill="url(#paint0_linear_0_31)"/>
<path id="Lock (Stroke)" fill-rule="evenodd" clip-rule="evenodd" d="M1.52654 0.381635H0.381635V75.1821H1.52654C1.73731 75.1821 1.90817 75.0112 1.90817 74.8005V0.76327C1.90817 0.552499 1.73731 0.381635 1.52654 0.381635ZM0 0V75.5637H1.52654C1.94808 75.5637 2.28981 75.222 2.28981 74.8005V0.76327C2.28981 0.341728 1.94808 0 1.52654 0H0Z" fill="var(--fill-0, #474C57)"/>
</g>
<defs>
<linearGradient id="paint0_linear_0_31" x1="1.1449" y1="0" x2="1.1449" y2="75.5637" gradientUnits="userSpaceOnUse">
<stop offset="0.00827206" stop-color="#E6EDF9"/>
<stop offset="0.0202206" stop-color="#596776"/>
<stop offset="0.0431985" stop-color="#000102"/>
<stop offset="0.0680147" stop-color="#849AAF"/>
<stop offset="0.0891544" stop-color="#B4C9E0"/>
<stop offset="0.520221" stop-color="#B5CAE2"/>
<stop offset="0.889706" stop-color="#B3C8E0"/>
<stop offset="0.913603" stop-color="#849AAF"/>
<stop offset="0.946691" stop-color="#00081C"/>
<stop offset="0.974265" stop-color="#596776"/>
<stop offset="0.98989" stop-color="#E6EDF9"/>
</linearGradient>
</defs>
</svg>
