<svg preserveAspectRatio="none" width="100%" height="100%" overflow="visible" style="display: block;" viewBox="0 0 322.1 672.441" fill="none" xmlns="http://www.w3.org/2000/svg">
<path id="Glass (Stroke)" fill-rule="evenodd" clip-rule="evenodd" d="M264.091 0.76327H58.0085C26.3928 0.76327 0.76327 26.3929 0.76327 58.0085V614.432C0.76327 646.048 26.3928 671.678 58.0085 671.678H264.091C295.707 671.678 321.337 646.048 321.337 614.432V58.0085C321.337 26.3928 295.707 0.76327 264.091 0.76327ZM58.0085 0C25.9713 0 0 25.9713 0 58.0085V614.432C0 646.469 25.9713 672.441 58.0085 672.441H264.091C296.129 672.441 322.1 646.469 322.1 614.432V58.0085C322.1 25.9713 296.129 0 264.091 0H58.0085Z" fill="var(--fill-0, #3E3C3F)"/>
</svg>
