<svg preserveAspectRatio="none" width="100%" height="100%" overflow="visible" style="display: block;" viewBox="0 0 70.9841 3.05308" fill="none" xmlns="http://www.w3.org/2000/svg">
<g id="Speaker (Stroke)" filter="url(#filter0_i_0_11)">
<path fill-rule="evenodd" clip-rule="evenodd" d="M0 0H70.9841V0.733913C70.9841 1.65637 70.5326 2.2556 69.9741 2.60697C69.4361 2.94544 68.8061 3.05308 68.385 3.05308H2.59913C1.68364 3.05308 1.04274 2.71805 0.625021 2.27169C0.218258 1.83703 0.0404971 1.31603 0.00208308 0.949872L0 0.930017V0ZM0.76327 0.76327V0.888405C0.790846 1.11056 0.909826 1.45897 1.18232 1.75016C1.45142 2.03771 1.88847 2.28981 2.59913 2.28981H68.385C68.703 2.28981 69.1817 2.2037 69.5677 1.96091C69.9274 1.73462 70.2118 1.37305 70.2206 0.76327H0.76327Z" fill="var(--fill-0, #272728)"/>
</g>
<defs>
<filter id="filter0_i_0_11" x="0" y="0" width="70.9841" height="3.81635" filterUnits="userSpaceOnUse" color-interpolation-filters="sRGB">
<feFlood flood-opacity="0" result="BackgroundImageFix"/>
<feBlend mode="normal" in="SourceGraphic" in2="BackgroundImageFix" result="shape"/>
<feColorMatrix in="SourceAlpha" type="matrix" values="0 0 0 0 0 0 0 0 0 0 0 0 0 0 0 0 0 0 127 0" result="hardAlpha"/>
<feOffset dy="1.1449"/>
<feGaussianBlur stdDeviation="0.381635"/>
<feComposite in2="hardAlpha" operator="arithmetic" k2="-1" k3="1"/>
<feColorMatrix type="matrix" values="0 0 0 0 0 0 0 0 0 0 0 0 0 0 0 0 0 0 1 0"/>
<feBlend mode="normal" in2="shape" result="effect1_innerShadow_0_11"/>
</filter>
</defs>
</svg>
