<?xml version="1.0" encoding="UTF-8" standalone="no"?>
<!-- Created with Inkscape (http://www.inkscape.org/) -->

<svg
   width="777.85541mm"
   height="674.49518mm"
   viewBox="0 0 777.85543 674.49518"
   version="1.1"
   id="svg5"
   xml:space="preserve"
   xmlns="http://www.w3.org/2000/svg"
   xmlns:svg="http://www.w3.org/2000/svg"><defs
     id="defs2" /><g
     id="layer1"
     transform="translate(-1443.6237,-1376.9899)"><g
       id="notion-working-with-computer-content-creator"
       transform="matrix(2,0,0,2,-394.08685,-88.124184)"
       style="stroke-width:0.5"><title
         id="title91409">notion-working-with-computer-content-creator</title><path
         style="fill:#000000;fill-opacity:1;stroke:none;stroke-width:1.05833;stroke-linecap:round;stroke-linejoin:round;stroke-dasharray:none;stroke-opacity:1;paint-order:fill markers stroke"
         d="m 993.48555,795.29091 c 0.022,0.62399 1.5165,17.65321 1.5165,17.65321 0,0 16.38335,-8.62706 15.54885,-8.56176 -0.8345,0.0653 -17.06535,-9.09145 -17.06535,-9.09145 z"
         id="path41567" /><g
         id="g41729"
         transform="translate(2406.9998)"
         style="stroke-width:0.5"><path
           style="fill:#000000;stroke-width:1.28994;stroke-linecap:round;stroke-linejoin:round;paint-order:fill markers stroke"
           d="m -1322.4804,821.0488 c -7.5233,-6.67408 -12.7286,-14.67976 -7.8291,-28.49031 -10.9456,-15.61515 -1.319,-35.67474 13.1569,-39.39614 -3.5853,-18.91118 33.0257,-29.88512 39.921,-10.18046 14.5872,-8.12767 27.966,-2.17293 27.9897,18.66002 9.3805,-1.41837 15.4487,13.90272 6.5535,21.11134 7.6533,13.16294 3.8265,32.01684 -3.7271,28.56534 -0.7167,-1.35559 -0.4961,-2.92631 -2.9765,-3.8771 -3.6936,0.64346 -5.2437,2.25422 -5.6029,4.40236 -11.3836,0.10421 -15.4361,-7.51198 -19.4602,-15.15814 -5.8593,4.84299 -12.5556,6.38463 -20.811,1.77596 -2.6058,8.33996 -6.6919,15.2229 -17.6843,15.30823 l 0.4252,5.57798 -4.7024,-6.37843 c -5.0761,-0.82552 -4.8268,3.9842 -5.2528,8.07935 z"
           id="path41569" /><path
           style="color:#000000;fill:#000000;stroke-width:0.5;stroke-linecap:round;stroke-linejoin:round;-inkscape-stroke:none;paint-order:fill markers stroke"
           d="m -1255.0977,807.55078 a 1.28994,1.28994 0 0 0 -1.3203,1.25781 c -0.4783,20.43833 -4.2793,34.06858 -9.539,42.18164 -5.2597,8.11307 -11.7834,10.78387 -18.42,9.76368 -13.2731,-2.04039 -27.3628,-20.02005 -28.2265,-43.9668 a 1.28994,1.28994 0 0 0 -1.336,-1.24219 1.28994,1.28994 0 0 0 -1.2421,1.33594 c 0.898,24.89837 15.2269,44.08921 30.414,46.42383 7.5936,1.16731 15.3105,-2.17335 20.9746,-10.91016 5.6641,-8.73681 9.47,-22.79656 9.9551,-43.52539 a 1.28994,1.28994 0 0 0 -1.2598,-1.31836 z"
           id="path41571" /><path
           style="color:#000000;fill:#000000;stroke-width:0.5;stroke-linecap:round;stroke-linejoin:round;-inkscape-stroke:none;paint-order:fill markers stroke"
           d="m -1246.7051,807.73047 a 1.28994,1.28994 0 0 0 -0.6465,1.70508 c 0.8474,1.88506 0.051,5.69505 -1.7148,8.5 -0.883,1.40247 -1.9732,2.54231 -2.9551,3.12109 -0.9819,0.57878 -1.6796,0.65466 -2.4297,0.22656 a 1.28994,1.28994 0 0 0 -1.7597,0.48047 1.28994,1.28994 0 0 0 0.4824,1.75977 c 1.6232,0.9264 3.5174,0.64011 5.0176,-0.24414 1.5001,-0.88425 2.7814,-2.30948 3.8261,-3.96875 2.0894,-3.31855 3.3774,-7.61115 1.8848,-10.93164 a 1.28994,1.28994 0 0 0 -1.7051,-0.64844 z"
           id="path41573" /><path
           style="color:#000000;fill:#000000;stroke-width:0.5;stroke-linecap:round;stroke-linejoin:round;-inkscape-stroke:none;paint-order:fill markers stroke"
           d="m -1323.6055,816.59961 a 1.28994,1.28994 0 0 0 -0.7383,1.66797 c 1.9117,4.95527 3.8106,7.74795 5.8399,9.35351 2.0293,1.60557 4.1353,1.8739 5.8476,1.98438 a 1.28994,1.28994 0 0 0 1.3711,-1.20313 1.28994,1.28994 0 0 0 -1.205,-1.37109 c -1.6095,-0.10385 -2.921,-0.2538 -4.4121,-1.43359 -1.4912,-1.17979 -3.2147,-3.53878 -5.0352,-8.25782 a 1.28994,1.28994 0 0 0 -1.668,-0.74023 z"
           id="path41575" /><path
           style="color:#000000;fill:#000000;stroke-width:0.5;stroke-linecap:round;stroke-linejoin:round;-inkscape-stroke:none;paint-order:fill markers stroke"
           d="m -1294.7734,810.54687 c -4.5136,0.19617 -8.9622,1.6794 -13.2774,4.3418 a 1.28994,1.28994 0 0 0 -0.4219,1.77539 1.28994,1.28994 0 0 0 1.7754,0.41992 c 5.3468,-3.29882 10.6473,-4.55227 16.0782,-3.74804 a 1.28994,1.28994 0 0 0 1.4648,-1.08789 1.28994,1.28994 0 0 0 -1.0859,-1.46485 c -1.5163,-0.22453 -3.0287,-0.30171 -4.5332,-0.23633 z"
           id="path41577" /><path
           style="color:#000000;fill:#000000;stroke-width:0.5;stroke-linecap:round;stroke-linejoin:round;-inkscape-stroke:none;paint-order:fill markers stroke"
           d="m -1271.1348,808.69336 c -3.3268,0.0378 -6.045,1.06079 -8.0234,1.96094 a 1.290069,1.290069 0 0 0 -0.6523,0.67187 c -1.9027,4.50353 -2.9326,8.56706 -2.6875,12.59375 0.245,4.02669 1.7828,7.94463 4.7656,12.07422 a 1.28994,1.28994 0 0 0 1.8008,0.29102 1.28994,1.28994 0 0 0 0.291,-1.80079 c -2.7796,-3.84832 -4.0693,-7.23662 -4.2813,-10.7207 -0.2036,-3.34624 0.6553,-6.87763 2.3281,-10.95703 3.7315,-1.66115 8.8899,-3.39763 16.6778,1.96094 a 1.28994,1.28994 0 0 0 1.793,-0.33203 1.28994,1.28994 0 0 0 -0.3301,-1.79297 c -4.4177,-3.03968 -8.3549,-3.98699 -11.6817,-3.94922 z"
           id="path41579" /><path
           style="color:#000000;fill:#000000;stroke-width:0.5;stroke-linecap:round;stroke-linejoin:round;-inkscape-stroke:none;paint-order:fill markers stroke"
           d="m -1293.0898,820.02539 a 1.28994,1.28994 0 0 0 -1.0313,1.50391 c 0.4606,2.4574 0.1577,4.28523 -0.4238,5.45117 -0.5815,1.16594 -1.3838,1.66941 -2.1406,1.75 -0.7569,0.0806 -1.6049,-0.2202 -2.4141,-1.30469 -0.8092,-1.08449 -1.5005,-2.98232 -1.5645,-5.81836 a 1.28994,1.28994 0 0 0 -1.3183,-1.25976 1.28994,1.28994 0 0 0 -1.2598,1.31836 c 0.073,3.2215 0.8387,5.64691 2.0742,7.30273 1.2355,1.65582 3.0216,2.5128 4.7559,2.32812 1.7343,-0.18467 3.2814,-1.37084 4.1758,-3.16406 0.8943,-1.79322 1.191,-4.19412 0.6504,-7.07812 a 1.28994,1.28994 0 0 0 -1.5039,-1.0293 z"
           id="path41581" /><path
           style="color:#000000;fill:#000000;stroke-width:0.5;stroke-linecap:round;stroke-linejoin:round;-inkscape-stroke:none;paint-order:fill markers stroke"
           d="m -1275.7207,819.29492 a 1.28994,1.28994 0 0 0 -1.2559,1.32227 c 0.076,3.05277 0.8759,5.4252 2.1504,7.07812 1.2746,1.65292 3.0522,2.55957 4.836,2.56836 1.7838,0.009 3.5215,-0.88668 4.6894,-2.4707 1.1679,-1.58402 1.7862,-3.82208 1.6094,-6.56641 a 1.28994,1.28994 0 0 0 -1.3691,-1.20312 1.28994,1.28994 0 0 0 -1.2051,1.36914 c 0.1463,2.27089 -0.3759,3.87167 -1.1114,4.86914 -0.7354,0.99747 -1.6625,1.4265 -2.6015,1.42187 -0.939,-0.005 -1.9437,-0.44789 -2.8047,-1.56445 -0.861,-1.11656 -1.5498,-2.93246 -1.6152,-5.56641 a 1.28994,1.28994 0 0 0 -1.3223,-1.25781 z"
           id="path41583" /><path
           style="color:#000000;fill:#000000;stroke-width:0.5;stroke-linecap:round;stroke-linejoin:round;-inkscape-stroke:none;paint-order:fill markers stroke"
           d="m -1288.5879,846.77148 a 1.28994,1.28994 0 0 0 -0.8633,0.48047 1.28994,1.28994 0 0 0 0.209,1.8125 c 2.3784,1.88687 4.8568,2.56239 7.1875,2.38282 2.3308,-0.17958 4.4763,-1.13432 6.5156,-2.26563 a 1.28994,1.28994 0 0 0 0.502,-1.75391 1.28994,1.28994 0 0 0 -1.7539,-0.50195 c -1.8982,1.053 -3.7242,1.81526 -5.4629,1.94922 -1.7387,0.13396 -3.429,-0.28044 -5.3848,-1.83203 a 1.28994,1.28994 0 0 0 -0.9492,-0.27149 z"
           id="path41585" /><path
           style="color:#000000;fill:#000000;stroke-width:0.5;stroke-linecap:round;stroke-linejoin:round;-inkscape-stroke:none;paint-order:fill markers stroke"
           d="m -1312.5918,843.14062 a 1.28994,1.28994 0 0 0 -1.0996,1.45704 c 1.9608,14.01261 6.9562,23.63636 13.5351,30.79101 6.579,7.15466 14.683,11.83755 22.8243,16.22266 a 1.290069,1.290069 0 0 0 1.3574,-0.082 c 16.5751,-11.75185 24.2912,-27.39334 20.7754,-46.99414 a 1.28994,1.28994 0 0 0 -1.4981,-1.04102 1.28994,1.28994 0 0 0 -1.041,1.49805 c 3.3128,18.46869 -3.5534,32.64833 -19.0859,43.92578 -7.83,-4.23998 -15.3803,-8.69237 -21.4336,-15.27539 -6.243,-6.78929 -10.9764,-15.82067 -12.877,-29.40235 a 1.28994,1.28994 0 0 0 -1.457,-1.09961 z"
           id="path41587" /><path
           style="color:#000000;fill:#000000;stroke-width:0.5;stroke-linecap:round;stroke-linejoin:round;-inkscape-stroke:none;paint-order:fill markers stroke"
           d="m -1312.084,843.63672 a 1.28994,1.28994 0 0 0 -1.6777,0.71875 c -10.4254,26.08266 -3.7491,45.66834 3.9687,62.61719 a 1.290069,1.290069 0 0 0 2.4004,-0.13868 c 3.4085,-10.56889 8.1704,-19.20626 16.0137,-23.87109 a 1.28994,1.28994 0 0 0 0.4492,-1.76953 1.28994,1.28994 0 0 0 -1.7676,-0.44922 c -7.7761,4.62487 -12.5271,12.70433 -15.9648,22.1543 -7.0173,-16.01507 -12.2399,-33.72644 -2.7031,-57.58594 a 1.28994,1.28994 0 0 0 -0.7188,-1.67578 z"
           id="path41589" /><path
           style="color:#000000;fill:#000000;stroke-width:0.5;stroke-linecap:round;stroke-linejoin:round;-inkscape-stroke:none;paint-order:fill markers stroke"
           d="m -1257.0645,843.58984 a 1.28994,1.28994 0 0 0 -0.2617,1.80469 c 14.0495,18.78663 12.3457,36.97615 6.3438,52.96484 -0.6628,-4.25461 -1.646,-8.1306 -3.4746,-11.07226 -2.5246,-4.06122 -6.4453,-6.64834 -11.668,-7.08203 a 1.28994,1.28994 0 0 0 -1.3926,1.17969 1.28994,1.28994 0 0 0 1.1778,1.39257 c 4.5214,0.37547 7.5214,2.37719 9.6933,5.8711 2.1719,3.49391 3.4005,8.56279 3.8164,14.78125 a 1.290069,1.290069 0 0 0 2.4707,0.42578 c 7.5303,-17.43387 11.0632,-38.65978 -4.9004,-60.00586 a 1.28994,1.28994 0 0 0 -1.8047,-0.25977 z"
           id="path41591" /><path
           style="color:#000000;fill:#000000;stroke-width:0.5;stroke-linecap:round;stroke-linejoin:round;-inkscape-stroke:none;paint-order:fill markers stroke"
           d="m -1276.7891,889.44727 a 1.28994,1.28994 0 0 0 -1.2226,1.35351 l 1.5996,31.73828 a 1.28994,1.28994 0 0 0 1.3535,1.22461 1.28994,1.28994 0 0 0 1.2227,-1.35351 l -1.5996,-31.74024 a 1.28994,1.28994 0 0 0 -1.3536,-1.22265 z"
           id="path41593" /><path
           style="color:#000000;fill:#000000;fill-rule:evenodd;stroke-width:0.5;-inkscape-stroke:none"
           d="m -1268.1777,898.00586 c -2.5951,4e-5 -4.5918,2.29383 -4.5918,4.94141 0,2.64757 1.9967,4.94332 4.5918,4.94335 2.595,-3e-5 4.5937,-2.29578 4.5937,-4.94335 0,-2.64758 -1.9987,-4.94137 -4.5937,-4.94141 z m 0,2.58008 c 1.0533,10e-6 2.0136,0.97466 2.0136,2.36133 0,1.38666 -0.9603,2.36326 -2.0136,2.36328 -1.0534,-2e-5 -2.0118,-0.97662 -2.0118,-2.36328 0,-1.38667 0.9584,-2.36132 2.0118,-2.36133 z"
           id="ellipse41595" /><path
           style="color:#000000;fill:#000000;stroke-width:0.5;stroke-linecap:round;stroke-linejoin:round;-inkscape-stroke:none;paint-order:fill markers stroke"
           d="m -1226.25,879.26562 a 1.28994,1.28994 0 0 0 -1.2168,1.35938 c 0.9829,17.7127 -2.2804,34.56037 -7.3906,51.0957 a 1.28994,1.28994 0 0 0 0.8515,1.61328 1.28994,1.28994 0 0 0 1.6133,-0.85156 c 5.1648,-16.71164 8.5074,-33.88146 7.502,-52 a 1.28994,1.28994 0 0 0 -1.3594,-1.2168 z"
           id="path41597" /><path
           style="color:#000000;fill:#000000;stroke-width:0.5;stroke-linecap:round;stroke-linejoin:round;-inkscape-stroke:none;paint-order:fill markers stroke"
           d="m -1247.1543,846.32812 a 1.28994,1.28994 0 0 0 -1.4141,1.15235 1.28994,1.28994 0 0 0 1.1524,1.41406 c 22.6488,2.31079 38.8164,12.56053 49.9883,26.87305 11.1719,14.31251 17.3003,32.73851 19.5351,51.27539 2.2349,18.53688 0.5719,37.17481 -3.7129,51.79883 -4.2848,14.62402 -11.2683,25.0717 -18.9707,27.6973 a 1.28994,1.28994 0 0 0 -0.8047,1.6367 1.28994,1.28994 0 0 0 1.6368,0.8047 c 9.1669,-3.1249 16.2133,-14.39697 20.6132,-29.41409 4.4,-15.01713 6.0764,-33.94135 3.7989,-52.83204 -2.2775,-18.89068 -8.5123,-37.75748 -20.0625,-52.55468 -11.5503,-14.7972 -28.4641,-25.47478 -51.7598,-27.85157 z"
           id="path41599" /><path
           style="color:#000000;fill:#000000;stroke-width:0.5;stroke-linecap:round;stroke-linejoin:round;-inkscape-stroke:none;paint-order:fill markers stroke"
           d="m -1195.0176,960.40039 c -10.3206,-0.0212 -20.2451,3.02081 -30.3242,10.13672 a 1.28994,1.28994 0 0 0 -0.3105,1.79883 1.28994,1.28994 0 0 0 1.7988,0.30859 c 12.955,-9.1464 25.1765,-11.20693 38.8437,-8.70117 a 1.28994,1.28994 0 0 0 1.502,-1.03711 1.28994,1.28994 0 0 0 -1.0371,-1.50195 c -3.5485,-0.65058 -7.0325,-0.99684 -10.4727,-1.00391 z"
           id="path41601" /><path
           style="color:#000000;fill:#000000;stroke-width:0.5;stroke-linecap:round;stroke-linejoin:round;-inkscape-stroke:none;paint-order:fill markers stroke"
           d="m -1317.7188,843.25 c -30.3498,6.54276 -51.5555,28.3996 -63.8632,55.83398 -12.3077,27.43439 -15.8185,60.48641 -10.9004,89.86719 a 1.28994,1.28994 0 0 0 1.4844,1.0586 1.28994,1.28994 0 0 0 1.0605,-1.48438 c -4.8328,-28.87144 -1.3563,-61.49072 10.709,-88.38477 12.0653,-26.89404 32.6181,-48.02326 62.0547,-54.36914 a 1.28994,1.28994 0 0 0 0.9883,-1.5332 1.28994,1.28994 0 0 0 -1.5333,-0.98828 z"
           id="path41603" /><path
           style="color:#000000;fill:#000000;stroke-width:0.5;stroke-linecap:round;stroke-linejoin:round;-inkscape-stroke:none;paint-order:fill markers stroke"
           d="m -1339.7715,875.74023 c -0.636,-0.043 -1.1243,0.38873 -1.3105,0.65625 -0.1862,0.26753 -0.2563,0.48148 -0.3223,0.70313 -0.1321,0.44329 -0.2038,0.92808 -0.2656,1.53516 -0.1238,1.21415 -0.175,2.87509 -0.1641,4.90429 0.022,4.05842 0.3029,9.56283 0.8633,15.46094 1.1208,11.79621 3.2215,25.01599 7.0234,31.60156 a 1.28994,1.28994 0 0 0 1.7618,0.47266 1.28994,1.28994 0 0 0 0.4726,-1.76367 c -3.2267,-5.58921 -5.5819,-18.89856 -6.6894,-30.55469 -0.5538,-5.82806 -0.8304,-11.27905 -0.8516,-15.23047 -0.011,-1.97571 0.046,-3.5842 0.1523,-4.62891 0.053,-0.51751 0.1239,-0.90017 0.168,-1.05078 a 1.28994,1.28994 0 0 0 0.3613,-0.73047 1.28994,1.28994 0 0 0 -1.1992,-1.375 z"
           id="path41605" /><path
           style="color:#000000;fill:#000000;stroke-width:0.5;stroke-linecap:round;stroke-linejoin:round;-inkscape-stroke:none;paint-order:fill markers stroke"
           d="m -1348.3789,934.46875 a 1.290069,1.290069 0 0 0 -1.2676,1.57422 l 17.0098,75.49023 a 1.290069,1.290069 0 0 0 1.2578,1.0059 h 95.9746 a 1.290069,1.290069 0 0 0 1.2461,-0.9551 l 20.0019,-74.64455 a 1.290069,1.290069 0 0 0 -1.2382,-1.62304 z m 1.6074,2.58984 129.6914,0.82813 -19.3125,72.07228 h -93.9551 z"
           id="path41607" /><path
           style="color:#000000;fill:#000000;stroke-width:0.5;stroke-linecap:round;stroke-linejoin:round;-inkscape-stroke:none;paint-order:fill markers stroke"
           d="m -1331.8535,1009.7852 a 1.28994,1.28994 0 0 0 -1.291,1.289 v 6.7285 a 1.290069,1.290069 0 0 0 1.291,1.291 h 96.75 a 1.290069,1.290069 0 0 0 1.291,-1.291 v -6.7031 a 1.28994,1.28994 0 0 0 -1.291,-1.2891 1.28994,1.28994 0 0 0 -1.2891,1.2891 v 5.4141 h -94.1719 v -5.4395 a 1.28994,1.28994 0 0 0 -1.289,-1.289 z"
           id="path41609" /><path
           style="color:#000000;fill:#000000;stroke-width:0.5;stroke-linecap:round;stroke-linejoin:round;-inkscape-stroke:none;paint-order:fill markers stroke"
           d="m -1448.1406,1006.4824 a 1.28994,1.28994 0 0 0 -1.2891,1.291 1.28994,1.28994 0 0 0 1.2891,1.2891 h 60.4511 a 1.28994,1.28994 0 0 0 1.2891,-1.2891 1.28994,1.28994 0 0 0 -1.2891,-1.291 z m 98.4082,0 a 1.28994,1.28994 0 0 0 -1.2891,1.291 1.28994,1.28994 0 0 0 1.2891,1.2891 h 16.3535 a 1.28994,1.28994 0 0 0 1.291,-1.2891 1.28994,1.28994 0 0 0 -1.291,-1.291 z m 115.5312,0 a 1.28994,1.28994 0 0 0 -1.291,1.291 1.28994,1.28994 0 0 0 1.291,1.2891 h 65.336 a 1.28994,1.28994 0 0 0 1.289,-1.2891 1.28994,1.28994 0 0 0 -1.289,-1.291 z m 117.5918,0 a 1.28994,1.28994 0 0 0 -1.291,1.291 1.28994,1.28994 0 0 0 1.291,1.2891 h 16.1016 a 1.28994,1.28994 0 0 0 1.291,-1.2891 1.28994,1.28994 0 0 0 -1.291,-1.291 z"
           id="path41611" /><path
           style="color:#000000;fill:#000000;stroke-width:0.5;stroke-linecap:round;stroke-linejoin:round;-inkscape-stroke:none;paint-order:fill markers stroke"
           d="m -1157.2617,826.95117 a 1.28994,1.28994 0 0 0 -1.2012,1.37305 c 0.087,1.30567 -0.5903,3.50174 -2.0234,5.6289 -1.4331,2.12717 -3.5721,4.20918 -6.17,5.57618 -5.1957,2.734 -12.1734,2.90664 -20.2207,-5.11133 -4.6566,-4.63964 -8.9352,-6.85888 -13.3945,-6.75977 -4.4593,0.0991 -8.8122,2.42363 -13.873,6.1875 a 1.28994,1.28994 0 0 0 -0.2657,1.80469 1.28994,1.28994 0 0 0 1.8047,0.26563 c 4.8945,-3.64011 8.8096,-5.60005 12.3926,-5.67969 3.583,-0.0796 7.1198,1.62799 11.5156,6.00781 8.6155,8.58408 17.1806,8.75801 23.2422,5.56836 3.0308,-1.59482 5.449,-3.95629 7.1074,-6.41797 1.6585,-2.46168 2.6082,-5.00158 2.459,-7.24219 a 1.28994,1.28994 0 0 0 -1.373,-1.20117 z"
           id="path41613" /><path
           style="color:#000000;fill:#000000;stroke-width:0.5;stroke-linecap:round;stroke-linejoin:round;-inkscape-stroke:none;paint-order:fill markers stroke"
           d="m -1363.9688,943.49805 c -4.2335,-0.52578 -8.7005,0.64635 -12.8476,3.5332 -5.5295,3.84913 -10.5585,10.67844 -14.2481,20.61523 a 1.28994,1.28994 0 0 0 0.7598,1.65821 1.28994,1.28994 0 0 0 1.6582,-0.76172 c 3.5568,-9.57932 8.3519,-15.94684 13.3047,-19.39453 4.9528,-3.44769 9.9951,-4.04268 14.5254,-2.17383 9.0606,3.73769 16.4274,18.08277 13.6523,42.05859 a 1.28994,1.28994 0 0 0 1.1328,1.42969 1.28994,1.28994 0 0 0 1.4297,-1.13281 c 2.8483,-24.60806 -4.5238,-40.32269 -15.2324,-44.74024 -1.3386,-0.55219 -2.7236,-0.91653 -4.1348,-1.09179 z"
           id="path41615" /><path
           style="color:#000000;fill:#000000;stroke-width:0.5;stroke-linecap:round;stroke-linejoin:round;-inkscape-stroke:none;paint-order:fill markers stroke"
           d="m -1369.75,977.39453 c -1.5437,0.24146 -2.4876,1.41332 -3.0605,2.44727 -0.4904,0.88484 -0.7093,1.65799 -0.879,2.1914 -0.2247,0.0401 -0.6475,0.0684 -1.1777,0.0586 -1.1131,-0.0205 -2.5914,-0.15964 -3.9785,-0.0606 -1.0643,0.076 -1.9151,0.77762 -2.3731,1.51367 -0.4579,0.73605 -0.6684,1.53393 -0.8007,2.28516 -0.1691,0.95986 -0.1142,1.31736 -0.1094,1.85547 -0.5264,0.11922 -0.8998,0.15506 -1.8613,0.55078 -0.7391,0.30419 -1.5193,0.70047 -2.209,1.26953 -0.6898,0.56906 -1.3222,1.35941 -1.5039,2.39453 -0.081,0.46367 -0.1894,0.60569 -0.2676,0.68555 -0.078,0.0798 -0.2006,0.15434 -0.5078,0.24023 -0.6144,0.17179 -1.8387,0.23074 -3.1934,0.86914 -0.9149,0.43119 -1.4941,1.33397 -1.6758,2.18946 -0.1816,0.85548 -0.094,1.70073 0.08,2.53906 0.3476,1.67672 1.0959,3.35992 1.6348,4.53132 1.7128,3.7232 4.0323,6.1899 5.9394,7.8379 0.9536,0.8239 1.8083,1.4509 2.4063,1.9101 0.299,0.2296 0.5333,0.4203 0.6641,0.543 0.1308,0.1226 0.1236,0.2031 0.041,-0.029 a 1.290069,1.290069 0 0 0 2.0254,0.5703 l 2.8964,-2.3379 2.0723,1.4024 a 1.290069,1.290069 0 0 0 1.4473,0 l 4.8164,-3.2559 2.2871,2.1835 a 1.290069,1.290069 0 0 0 1.7793,0 l 3.3574,-3.1914 2.3887,2.2969 a 1.290069,1.290069 0 0 0 1.6543,0.1133 l 4.9648,-3.627 a 1.290069,1.290069 0 0 0 0.459,-1.4628 c -1.4493,-4.2032 -2.7308,-9.19298 -4.4375,-13.80273 -1.7034,-4.60097 -3.818,-8.86854 -7.1816,-11.58594 -0.1066,-0.11928 -0.6937,-0.78875 -1.6426,-1.55078 -1.0302,-0.82728 -2.3254,-1.84668 -4.0547,-1.57617 z m 0.3984,2.54883 c 0.171,-0.0267 1.2106,0.37216 2.0411,1.03906 0.8304,0.66691 1.4648,1.38086 1.4648,1.38086 a 1.290069,1.290069 0 0 0 0.1582,0.15039 c 2.7359,2.20229 4.7552,6.05724 6.3965,10.49024 1.5321,4.13833 2.7497,8.70059 4.125,12.83399 l -3.3379,2.4394 -2.4961,-2.4003 a 1.290069,1.290069 0 0 0 -1.7832,-0.01 l -3.3613,3.1934 -2.1504,-2.0528 a 1.290069,1.290069 0 0 0 -1.6133,-0.1367 l -4.9551,3.3516 -2.1406,-1.4493 a 1.290069,1.290069 0 0 0 -1.5352,0.065 l -2.7168,2.1934 c -0.1516,-0.1244 -0.2897,-0.2475 -0.4609,-0.379 -0.6386,-0.4903 -1.4241,-1.067 -2.2891,-1.8144 -1.7298,-1.4948 -3.7575,-3.6485 -5.2832,-6.9648 -0.5175,-1.125 -1.1879,-2.70671 -1.4511,-3.97661 -0.1317,-0.63495 -0.1473,-1.18222 -0.084,-1.48047 0.063,-0.29825 0.079,-0.30902 0.2519,-0.39062 0.8215,-0.38713 1.715,-0.41646 2.7891,-0.7168 0.537,-0.15017 1.1529,-0.40805 1.6562,-0.92188 0.5034,-0.51382 0.8212,-1.22665 0.9649,-2.04492 0.043,-0.24682 0.2146,-0.53069 0.6035,-0.85156 0.3889,-0.32087 0.9622,-0.62968 1.5488,-0.87109 1.1732,-0.48283 2.3301,-0.69336 2.3301,-0.69336 a 1.290069,1.290069 0 0 0 1.0625,-1.34571 c 0,0 -0.059,-1.18269 0.1387,-2.30664 0.099,-0.56197 0.274,-1.08746 0.4492,-1.36914 0.1752,-0.28167 0.2058,-0.29121 0.3672,-0.30273 1.0642,-0.076 2.488,0.0412 3.748,0.0645 0.6301,0.0116 1.2168,0.008 1.8047,-0.11328 0.294,-0.0606 0.5977,-0.14872 0.916,-0.3457 0.3183,-0.19698 0.6586,-0.55236 0.8067,-1.00196 0.1851,-0.56246 0.4448,-1.41489 0.834,-2.11718 0.3891,-0.70229 0.8062,-1.08666 1.2011,-1.14844 z"
           id="path41617" /><path
           style="color:#000000;fill:#000000;stroke-width:0.5;stroke-linecap:round;stroke-linejoin:round;-inkscape-stroke:none;paint-order:fill markers stroke"
           d="m -1382.9219,999.25195 a 1.28994,1.28994 0 0 0 -0.5097,1.75195 c 0,0 1.1136,2.0254 2.25,4.1445 0.5682,1.0596 1.1422,2.1428 1.582,3 0.2199,0.4287 0.4054,0.8017 0.5371,1.0782 0.1317,0.2764 0.2257,0.5739 0.1738,0.373 a 1.28994,1.28994 0 0 0 1.5723,0.9258 1.28994,1.28994 0 0 0 0.9258,-1.5703 c -0.1019,-0.3948 -0.1912,-0.5219 -0.3418,-0.8379 -0.1506,-0.316 -0.3458,-0.705 -0.5723,-1.1465 -0.453,-0.8831 -1.0313,-1.974 -1.6035,-3.041 -1.1444,-2.134 -2.2617,-4.16798 -2.2617,-4.16798 a 1.28994,1.28994 0 0 0 -1.752,-0.50977 z"
           id="path41619" /><path
           style="color:#000000;fill:#000000;stroke-width:0.5;stroke-linecap:round;stroke-linejoin:round;-inkscape-stroke:none;paint-order:fill markers stroke"
           d="m -1375.5664,995.60352 a 1.28994,1.28994 0 0 0 -0.5879,1.72656 l 5.1738,10.51362 a 1.28994,1.28994 0 0 0 1.7285,0.586 1.28994,1.28994 0 0 0 0.5879,-1.7266 l -5.1757,-10.51169 a 1.28994,1.28994 0 0 0 -1.7266,-0.58789 z"
           id="path41621" /><path
           style="color:#000000;fill:#000000;stroke-width:0.5;stroke-linecap:round;stroke-linejoin:round;-inkscape-stroke:none;paint-order:fill markers stroke"
           d="m -1368.0918,992.43945 a 1.28994,1.28994 0 0 0 -0.9844,0.082 1.28994,1.28994 0 0 0 -0.5566,1.73633 l 6.4355,12.51172 a 1.28994,1.28994 0 0 0 1.7383,0.5567 1.28994,1.28994 0 0 0 0.5567,-1.7383 l -6.4356,-12.50981 a 1.28994,1.28994 0 0 0 -0.7539,-0.63867 z"
           id="path41623" /><path
           style="color:#000000;fill:#000000;stroke-width:0.5;stroke-linecap:round;stroke-linejoin:round;-inkscape-stroke:none;paint-order:fill markers stroke"
           d="m -1362.1445,982.19141 a 1.28994,1.28994 0 0 0 -1.8067,0.24023 1.28994,1.28994 0 0 0 0.2403,1.80859 c 2.5848,1.97875 4.463,2.13852 6.5097,3.25586 2.0268,1.10644 4.664,3.30841 9.0625,9.41993 1.6458,4.29898 2.0016,6.83098 1.7071,9.08988 -0.3901,-0.014 -0.4848,-5e-4 -0.9649,-0.041 -0.5467,-0.046 -1.0926,-0.1209 -1.4277,-0.2011 -0.1598,-0.6821 -0.5355,-2.2935 -1.127,-4.2774 -0.3316,-1.1124 -0.7,-2.23566 -1.0918,-3.18552 -0.3917,-0.94986 -0.6006,-1.70277 -1.5136,-2.34375 -1.7265,-1.21193 -4.1719,-1.71094 -4.1719,-1.71094 a 1.28994,1.28994 0 0 0 -1.5547,0.95313 1.28994,1.28994 0 0 0 0.9531,1.55469 c 0,0 2.3467,0.65154 3.291,1.31445 -0.2454,-0.17228 0.2772,0.40651 0.6114,1.2168 0.3342,0.81024 0.6866,1.87524 1.0039,2.93944 0.6345,2.1285 1.1363,4.2696 1.2207,4.6367 0.1583,0.6879 0.6195,0.9542 0.9179,1.1094 0.2985,0.1552 0.5695,0.2321 0.8555,0.3008 0.5721,0.1374 1.1995,0.2115 1.8164,0.2637 1.2339,0.1043 2.4141,0.1054 2.4141,0.1054 a 1.290069,1.290069 0 0 0 1.2597,-0.998 c 0.7455,-3.1976 0.1828,-6.5764 -1.8398,-11.81252 a 1.290069,1.290069 0 0 0 -0.1543,-0.28516 c -4.5936,-6.41298 -7.5555,-8.96093 -10.0312,-10.3125 -2.4758,-1.35156 -4.0361,-1.40006 -6.1797,-3.04101 z"
           id="path41625" /><path
           style="color:#000000;fill:#000000;stroke-width:0.5;stroke-linecap:round;stroke-linejoin:round;-inkscape-stroke:none;paint-order:fill markers stroke"
           d="m -1349.7051,1006.3086 a 1.28994,1.28994 0 0 0 -1.2969,1.2832 l -0.049,8.8047 c -9.1333,2.0733 -17.5538,2.5302 -27.4746,-0.072 v -3.834 a 1.28994,1.28994 0 0 0 -1.291,-1.291 1.28994,1.28994 0 0 0 -1.2891,1.291 v 4.8809 a 1.290069,1.290069 0 0 0 0.9414,1.2422 c 11.1613,3.1235 20.6203,2.4992 30.6973,0.1015 a 1.290069,1.290069 0 0 0 0.9902,-1.248 l 0.053,-9.8613 a 1.28994,1.28994 0 0 0 -1.2813,-1.2969 z"
           id="path41627" /><path
           style="color:#000000;fill:#000000;stroke-width:0.5;stroke-linecap:round;stroke-linejoin:round;-inkscape-stroke:none;paint-order:fill markers stroke"
           d="m -1232.1426,1011.6016 c -0.7887,-0.041 -1.4125,-0.041 -1.9883,0.066 -0.2879,0.054 -0.576,0.1087 -0.9394,0.375 -0.3635,0.2662 -0.7226,1.0558 -0.5781,1.6015 a 1.28994,1.28994 0 0 0 1.5761,0.918 1.28994,1.28994 0 0 0 0.5977,-0.3613 c 0.2291,-0.027 0.6038,-0.055 1.1973,-0.024 1.367,0.072 3.4592,0.356 5.9433,0.8438 4.9681,0.9755 11.5462,2.7643 17.6035,5.248 6.0574,2.4837 11.5842,5.7076 14.4629,9.2618 1.4394,1.777 2.218,3.5832 2.25,5.4765 0.032,1.8933 -0.6721,3.9651 -2.5449,6.3106 -3.1778,3.9797 -6.2649,4.9631 -9.6816,4.6035 -3.4168,-0.3596 -7.1969,-2.2849 -11.0235,-4.5781 -3.8265,-2.2933 -7.6861,-4.9242 -11.5195,-6.5254 -3.8334,-1.6012 -7.8613,-2.1499 -11.4199,0.1152 -7.3158,4.6565 -11.962,13.2503 -17.461,20.3164 -5.499,7.0661 -11.5261,12.5674 -21.7031,11.9277 -11.6251,-0.7306 -18.1051,-7.73 -23.9707,-15.6933 -5.8656,-7.9634 -10.8877,-16.9289 -19.7148,-20.4414 -5.7319,-2.2808 -11.8824,-0.062 -17.6426,1.8047 -5.7602,1.8666 -11.0581,3.3835 -15.3731,1.082 -2.9131,-1.5538 -5.9014,-6.5971 -7.8867,-11.2832 -1.9852,-4.6862 -3.1094,-8.9219 -3.1094,-8.9219 a 1.28994,1.28994 0 0 0 -1.5781,-0.916 1.28994,1.28994 0 0 0 -0.916,1.5781 c 0,0 1.162,4.3876 3.2285,9.2656 2.0666,4.8781 4.8957,10.3406 9.0469,12.5547 5.4688,2.917 11.5922,0.9703 17.3828,-0.9062 5.7907,-1.8765 11.3218,-3.6801 15.8926,-1.8613 7.709,3.0676 12.6107,11.4514 18.5937,19.5742 5.9831,8.1227 13.2751,15.9457 25.8848,16.7383 11.1891,0.7032 18.2265,-5.6227 23.9023,-12.9161 5.6759,-7.2933 10.3159,-15.5927 16.8106,-19.7265 2.6812,-1.7066 5.5753,-1.359 9.039,0.088 3.4638,1.4468 7.2765,4.0154 11.1875,6.3593 3.9111,2.3439 7.9356,4.4936 12.0801,4.9297 4.1446,0.4362 8.3764,-1.0621 11.9668,-5.5586 2.1453,-2.6866 3.153,-5.3806 3.1094,-7.9629 -0.044,-2.5822 -1.1292,-4.9615 -2.8262,-7.0566 -3.3939,-4.1902 -9.2282,-7.4586 -15.4883,-10.0254 -6.26,-2.5668 -12.9543,-4.3873 -18.0839,-5.3945 -2.5649,-0.5036 -4.7293,-0.8041 -6.3067,-0.8867 z"
           id="path41629" /><path
           id="circle41631"
           style="fill-rule:evenodd;stroke-width:0.161242"
           d="m -1363.2428,1014.9064 a 2.4419365,2.4419365 0 0 1 -2.4419,2.4419 2.4419365,2.4419365 0 0 1 -2.4419,-2.4419 2.4419365,2.4419365 0 0 1 2.4419,-2.442 2.4419365,2.4419365 0 0 1 2.4419,2.442 z" /><path
           style="color:#000000;fill:#000000;stroke-width:0.5;stroke-linecap:round;stroke-linejoin:round;-inkscape-stroke:none;paint-order:fill markers stroke"
           d="m -1161.2266,976.95508 a 1.290069,1.290069 0 0 0 -1.2871,1.37109 c 1.0711,17.14497 3.0966,32.94363 12.0293,40.42773 a 1.290069,1.290069 0 0 0 0.8281,0.3008 h 26.5528 a 1.290069,1.290069 0 0 0 0.9512,-0.4199 c 9.6945,-10.5936 11.4183,-25.56966 13.1543,-40.23636 a 1.290069,1.290069 0 0 0 -1.2813,-1.44336 z m 1.4102,2.58008 h 48.0664 c -1.6654,13.95461 -3.6067,27.47664 -11.9766,36.93944 h -25.3847 c -7.2087,-6.3771 -9.612,-20.72408 -10.7051,-36.93944 z"
           id="path41633" /><path
           style="color:#000000;fill:#000000;stroke-width:0.5;stroke-linecap:round;stroke-linejoin:round;-inkscape-stroke:none;paint-order:fill markers stroke"
           d="m -1152.3867,927.57422 a 1.28994,1.28994 0 0 0 -0.8555,0.49414 1.28994,1.28994 0 0 0 0.2363,1.80859 c 0,0 1.2083,0.90898 2.3731,3.0625 1.1647,2.15353 2.2096,5.46104 1.582,10.20899 -0.4895,3.70289 -1.8139,4.75786 -3.457,6.46679 -1.6431,1.70894 -3.4792,4.04626 -3.7383,8.9336 -0.3868,7.29839 4.3496,13.34375 4.3496,13.34375 a 1.28994,1.28994 0 0 0 1.8086,0.24023 1.28994,1.28994 0 0 0 0.2402,-1.80859 c 0,0 -4.1446,-5.55561 -3.8222,-11.63867 0.2309,-4.35561 1.4594,-5.65661 3.0215,-7.28125 1.562,-1.62464 3.5853,-3.59933 4.1562,-7.91797 0.6979,-5.27942 -0.4823,-9.20197 -1.873,-11.77344 -1.3908,-2.57147 -3.0684,-3.88086 -3.0684,-3.88086 a 1.28994,1.28994 0 0 0 -0.9531,-0.25781 z"
           id="path41635" /><path
           style="color:#000000;fill:#000000;stroke-width:0.5;stroke-linecap:round;stroke-linejoin:round;-inkscape-stroke:none;paint-order:fill markers stroke"
           d="m -1135.8203,927.83203 a 1.28994,1.28994 0 0 0 -1.8086,0.23633 1.28994,1.28994 0 0 0 0.2363,1.80859 c 0,0 1.2083,0.90898 2.3731,3.0625 1.1647,2.15352 2.2097,5.46104 1.582,10.20899 -0.4895,3.70289 -1.814,4.75786 -3.457,6.46679 -1.6431,1.70894 -3.4792,4.04626 -3.7383,8.9336 -0.3869,7.29841 4.3496,13.34375 4.3496,13.34375 a 1.28994,1.28994 0 0 0 1.8086,0.24023 1.28994,1.28994 0 0 0 0.2402,-1.80859 c 0,0 -4.1447,-5.55564 -3.8222,-11.63867 0.2309,-4.35561 1.4594,-5.65661 3.0214,-7.28125 1.5621,-1.62465 3.5835,-3.59933 4.1543,-7.91797 0.698,-5.27942 -0.4803,-9.20197 -1.8711,-11.77344 -1.3907,-2.57147 -3.0683,-3.88086 -3.0683,-3.88086 z"
           id="path41637" /><path
           style="color:#000000;fill:#000000;stroke-width:0.5;stroke-linecap:round;stroke-linejoin:round;-inkscape-stroke:none;paint-order:fill markers stroke"
           d="m -1120.5684,930.76562 a 1.28994,1.28994 0 0 0 -0.8164,0.55665 1.28994,1.28994 0 0 0 0.3731,1.78515 c 0,0 1.0609,0.67201 2.1387,2.50586 1.0777,1.83386 2.0865,4.74895 1.5957,9.20899 -0.3829,3.47936 -1.5537,4.54249 -3.0118,6.23632 -1.458,1.69384 -3.0899,3.98028 -3.2929,8.58203 -0.3041,6.89048 4.1582,12.28125 4.1582,12.28125 a 1.28994,1.28994 0 0 0 1.8144,0.18946 1.28994,1.28994 0 0 0 0.1895,-1.81446 c 0,0 -3.8375,-4.84459 -3.586,-10.54296 0.1807,-4.09375 1.2838,-5.39917 2.6719,-7.01172 1.3881,-1.61255 3.1736,-3.56965 3.6211,-7.63672 0.5473,-4.9734 -0.5984,-8.52556 -1.9355,-10.80078 -1.3371,-2.27522 -2.9493,-3.35547 -2.9493,-3.35547 a 1.28994,1.28994 0 0 0 -0.9707,-0.1836 z"
           id="path41639" /><path
           style="color:#000000;fill:#000000;stroke-width:0.5;stroke-linecap:round;stroke-linejoin:round;-inkscape-stroke:none;paint-order:fill markers stroke"
           d="m -1164.5586,980.31445 c -2.7178,0.26089 -5.0625,1.496 -6.3828,2.93555 -4.6408,5.06018 -4.7914,11.27434 -3.1602,16.36523 1.6313,5.09087 4.8112,9.18867 7.5938,10.87887 a 1.290069,1.290069 0 0 0 0.062,0.035 c 3.769,2.0096 7.2291,1.7908 10.7363,0.8516 a 1.28994,1.28994 0 0 0 0.9121,-1.5801 1.28994,1.28994 0 0 0 -1.5801,-0.9121 c -3.219,0.862 -5.67,1.0428 -8.8085,-0.6153 -1.8386,-1.1255 -5.0213,-4.9584 -6.459,-9.44528 -1.4411,-4.49715 -1.3597,-9.51261 2.6035,-13.83398 0.9132,-0.99573 4.0531,-2.50436 6.8828,-2.04102 a 1.28994,1.28994 0 0 0 1.4824,-1.06445 1.28994,1.28994 0 0 0 -1.0644,-1.48242 c -0.9648,-0.15797 -1.9125,-0.17876 -2.8184,-0.0918 z"
           id="path41641" /><path
           style="color:#000000;fill:#000000;stroke-width:0.5;stroke-linecap:round;stroke-linejoin:round;-inkscape-stroke:none;paint-order:fill markers stroke"
           d="m -1161.6816,985.82227 c -2.9084,0.1322 -5.0956,1.53586 -6.3536,3.42968 -1.2579,1.89382 -1.6708,4.19614 -1.5,6.32813 0.3228,4.0277 2.0407,6.76162 4.2657,8.38862 2.225,1.6271 4.8453,2.1954 7.0547,2.42 a 1.28994,1.28994 0 0 0 1.414,-1.1543 1.28994,1.28994 0 0 0 -1.1543,-1.4121 c -1.966,-0.1999 -4.129,-0.7188 -5.7929,-1.9356 -1.664,-1.2168 -2.9402,-3.08396 -3.2149,-6.5117 -0.1314,-1.63971 0.2203,-3.40675 1.0762,-4.69531 0.8559,-1.28857 2.1337,-2.18177 4.3222,-2.28125 a 1.28994,1.28994 0 0 0 1.2286,-1.34571 1.28994,1.28994 0 0 0 -1.3457,-1.23046 z"
           id="path41643" /><path
           id="circle41645"
           style="fill-rule:evenodd;stroke-width:0.161242"
           d="m -1151.6888,986.74664 a 1.6648039,1.6648039 0 0 1 -1.6648,1.66481 1.6648039,1.6648039 0 0 1 -1.6648,-1.66481 1.6648039,1.6648039 0 0 1 1.6648,-1.6648 1.6648039,1.6648039 0 0 1 1.6648,1.6648 z" /><path
           id="circle41647"
           style="fill-rule:evenodd;stroke-width:0.161242"
           d="m -1140.6699,986.74664 a 1.6648039,1.6648039 0 0 1 -1.6648,1.66481 1.6648039,1.6648039 0 0 1 -1.6648,-1.66481 1.6648039,1.6648039 0 0 1 1.6648,-1.6648 1.6648039,1.6648039 0 0 1 1.6648,1.6648 z" /><path
           id="circle41649"
           style="fill-rule:evenodd;stroke-width:0.161242"
           d="m -1130.3407,986.74664 a 1.6648039,1.6648039 0 0 1 -1.6648,1.66481 1.6648039,1.6648039 0 0 1 -1.6648,-1.66481 1.6648039,1.6648039 0 0 1 1.6648,-1.6648 1.6648039,1.6648039 0 0 1 1.6648,1.6648 z" /><path
           id="circle41651"
           style="fill-rule:evenodd;stroke-width:0.161242"
           d="m -1118.2472,986.74664 a 1.6648039,1.6648039 0 0 1 -1.6648,1.66481 1.6648039,1.6648039 0 0 1 -1.6648,-1.66481 1.6648039,1.6648039 0 0 1 1.6648,-1.6648 1.6648039,1.6648039 0 0 1 1.6648,1.6648 z" /><path
           id="circle41653"
           style="fill-rule:evenodd;stroke-width:0.161242"
           d="m -1124.0486,993.73749 a 1.6648039,1.6648039 0 0 1 -1.6648,1.6648 1.6648039,1.6648039 0 0 1 -1.6648,-1.6648 1.6648039,1.6648039 0 0 1 1.6648,-1.66481 1.6648039,1.6648039 0 0 1 1.6648,1.66481 z" /><path
           id="circle41655"
           style="fill-rule:evenodd;stroke-width:0.161242"
           d="m -1147.4263,993.73749 a 1.6648039,1.6648039 0 0 1 -1.6648,1.6648 1.6648039,1.6648039 0 0 1 -1.6648,-1.6648 1.6648039,1.6648039 0 0 1 1.6648,-1.66481 1.6648039,1.6648039 0 0 1 1.6648,1.66481 z" /><path
           id="circle41657"
           style="fill-rule:evenodd;stroke-width:0.161242"
           d="m -1124.0486,993.73749 a 1.6648039,1.6648039 0 0 1 -1.6648,1.6648 1.6648039,1.6648039 0 0 1 -1.6648,-1.6648 1.6648039,1.6648039 0 0 1 1.6648,-1.66481 1.6648039,1.6648039 0 0 1 1.6648,1.66481 z" /><path
           id="circle41659"
           style="fill-rule:evenodd;stroke-width:0.161242"
           d="m -1135.5494,993.73749 a 1.6648039,1.6648039 0 0 1 -1.6648,1.6648 1.6648039,1.6648039 0 0 1 -1.6648,-1.6648 1.6648039,1.6648039 0 0 1 1.6648,-1.66481 1.6648039,1.6648039 0 0 1 1.6648,1.66481 z" /><path
           id="circle41661"
           style="fill-rule:evenodd;stroke-width:0.161242"
           d="m -1150.6321,1002.0195 a 1.6648039,1.6648039 0 0 1 -1.6648,1.6648 1.6648039,1.6648039 0 0 1 -1.6648,-1.6648 1.6648039,1.6648039 0 0 1 1.6648,-1.6648 1.6648039,1.6648039 0 0 1 1.6648,1.6648 z" /><path
           id="circle41663"
           style="fill-rule:evenodd;stroke-width:0.161242"
           d="m -1141.3596,1002.0195 a 1.6648039,1.6648039 0 0 1 -1.6648,1.6648 1.6648039,1.6648039 0 0 1 -1.6648,-1.6648 1.6648039,1.6648039 0 0 1 1.6648,-1.6648 1.6648039,1.6648039 0 0 1 1.6648,1.6648 z" /><path
           id="circle41665"
           style="fill-rule:evenodd;stroke-width:0.161242"
           d="m -1129.2529,1002.0195 a 1.6648039,1.6648039 0 0 1 -1.6648,1.6648 1.6648039,1.6648039 0 0 1 -1.6648,-1.6648 1.6648039,1.6648039 0 0 1 1.6648,-1.6648 1.6648039,1.6648039 0 0 1 1.6648,1.6648 z" /><path
           id="circle41667"
           style="fill-rule:evenodd;stroke-width:0.161242"
           d="m -1119.4587,1002.0195 a 1.6648039,1.6648039 0 0 1 -1.6648,1.6648 1.6648039,1.6648039 0 0 1 -1.6648,-1.6648 1.6648039,1.6648039 0 0 1 1.6648,-1.6648 1.6648039,1.6648039 0 0 1 1.6648,1.6648 z" /><path
           id="circle41669"
           style="fill-rule:evenodd;stroke-width:0.161242"
           d="m -1124.6631,1009.227 a 1.6648039,1.6648039 0 0 1 -1.6648,1.6648 1.6648039,1.6648039 0 0 1 -1.6648,-1.6648 1.6648039,1.6648039 0 0 1 1.6648,-1.6648 1.6648039,1.6648039 0 0 1 1.6648,1.6648 z" /><path
           id="circle41671"
           style="fill-rule:evenodd;stroke-width:0.161242"
           d="m -1146.2943,1009.227 a 1.6648039,1.6648039 0 0 1 -1.6648,1.6648 1.6648039,1.6648039 0 0 1 -1.6648,-1.6648 1.6648039,1.6648039 0 0 1 1.6648,-1.6648 1.6648039,1.6648039 0 0 1 1.6648,1.6648 z" /><path
           id="circle41673"
           style="fill-rule:evenodd;stroke-width:0.161242"
           d="m -1124.6631,1009.227 a 1.6648039,1.6648039 0 0 1 -1.6648,1.6648 1.6648039,1.6648039 0 0 1 -1.6648,-1.6648 1.6648039,1.6648039 0 0 1 1.6648,-1.6648 1.6648039,1.6648039 0 0 1 1.6648,1.6648 z" /><path
           id="circle41675"
           style="fill-rule:evenodd;stroke-width:0.161242"
           d="m -1135.4477,1009.227 a 1.6648039,1.6648039 0 0 1 -1.6648,1.6648 1.6648039,1.6648039 0 0 1 -1.6649,-1.6648 1.6648039,1.6648039 0 0 1 1.6649,-1.6648 1.6648039,1.6648039 0 0 1 1.6648,1.6648 z" /><path
           style="color:#000000;fill:#000000;stroke-width:0.5;stroke-linecap:round;stroke-linejoin:round;-inkscape-stroke:none;paint-order:fill markers stroke"
           d="m -1161.7715,803.6582 a 1.290069,1.290069 0 0 0 -1.3047,1.28907 v 9.06835 a 1.290069,1.290069 0 0 0 1.291,1.28907 h 19.6485 a 1.290069,1.290069 0 0 0 1.289,-1.28907 v -8.85546 a 1.290069,1.290069 0 0 0 -1.2753,-1.28907 z m 1.2754,2.59375 17.0684,0.18555 v 6.28711 h -17.0684 z"
           id="path41677" /><path
           style="color:#000000;fill:#000000;stroke-width:0.5;stroke-linecap:round;stroke-linejoin:round;-inkscape-stroke:none;paint-order:fill markers stroke"
           d="m -1159.3379,813.20312 a 1.28994,1.28994 0 0 0 -1.084,1.4668 c 0.7433,4.93635 4.4352,7.75655 8.1289,7.82422 3.6938,0.0677 7.3547,-2.71059 7.8555,-7.6543 a 1.28994,1.28994 0 0 0 -1.1523,-1.41406 1.28994,1.28994 0 0 0 -1.4141,1.1543 c -0.3915,3.86412 -2.7781,5.37912 -5.2422,5.33398 -2.4641,-0.0451 -5.0403,-1.74595 -5.625,-5.6289 a 1.28994,1.28994 0 0 0 -1.4668,-1.08204 z"
           id="path41679" /><path
           style="color:#000000;fill:#000000;stroke-width:0.5;stroke-linecap:round;stroke-linejoin:round;-inkscape-stroke:none;paint-order:fill markers stroke"
           d="m -1160.1992,796.2793 a 1.290069,1.290069 0 0 0 -1.2891,1.28906 v 6.63476 a 1.28994,1.28994 0 0 0 1.2891,1.28907 1.28994,1.28994 0 0 0 1.291,-1.28907 v -5.3457 h 13.4355 v 4.92774 a 1.28994,1.28994 0 0 0 1.2891,1.28906 1.28994,1.28994 0 0 0 1.2891,-1.28906 v -6.2168 a 1.290069,1.290069 0 0 0 -1.2891,-1.28906 z"
           id="path41681" /><path
           style="color:#000000;fill:#000000;stroke-width:0.5;stroke-linecap:round;stroke-linejoin:round;-inkscape-stroke:none;paint-order:fill markers stroke"
           d="m -1151.0664,755.70508 c -9.7279,-0.11736 -17.2534,6.23473 -19.8086,14.79101 -2.5552,8.55629 -0.1916,19.31859 9.2402,28.10938 a 1.28994,1.28994 0 0 0 1.8243,-0.0644 1.28994,1.28994 0 0 0 -0.064,-1.82227 c -8.8268,-8.22684 -10.7922,-17.90663 -8.5293,-25.48438 2.2629,-7.57774 8.7038,-13.053 17.3066,-12.94921 4.3193,0.0521 7.5951,1.55157 10.0118,3.98046 2.4167,2.4289 3.9671,5.84041 4.5546,9.74415 1.1752,7.80747 -1.5651,17.48429 -8.4687,24.44335 a 1.28994,1.28994 0 0 0 0.01,1.82422 1.28994,1.28994 0 0 0 1.8242,-0.008 c 7.4998,-7.55997 10.4956,-17.9544 9.1875,-26.64453 -0.654,-4.34507 -2.3998,-8.28765 -5.2773,-11.17969 -2.8775,-2.89204 -6.8937,-4.68094 -11.8086,-4.74023 z"
           id="path41683" /><path
           style="color:#000000;fill:#000000;stroke-width:0.5;stroke-linecap:round;stroke-linejoin:round;-inkscape-stroke:none;paint-order:fill markers stroke"
           d="m -1169.6094,797.62891 a 1.28994,1.28994 0 0 0 -0.9121,0.3789 l -3.7012,3.70117 a 1.28994,1.28994 0 0 0 0,1.82422 1.28994,1.28994 0 0 0 1.8243,0 l 3.7011,-3.70117 a 1.28994,1.28994 0 0 0 0,-1.82422 1.28994,1.28994 0 0 0 -0.9121,-0.3789 z"
           id="path41685" /><path
           style="color:#000000;fill:#000000;stroke-width:0.5;stroke-linecap:round;stroke-linejoin:round;-inkscape-stroke:none;paint-order:fill markers stroke"
           d="m -1177.4551,783.45703 a 1.28994,1.28994 0 0 0 -0.9804,0.12891 l -4.3575,2.51562 a 1.28994,1.28994 0 0 0 -0.4707,1.76172 1.28994,1.28994 0 0 0 1.7617,0.47266 l 4.3575,-2.51563 a 1.28994,1.28994 0 0 0 0.4726,-1.76172 1.28994,1.28994 0 0 0 -0.7832,-0.60156 z"
           id="path41687" /><path
           style="color:#000000;fill:#000000;stroke-width:0.5;stroke-linecap:round;stroke-linejoin:round;-inkscape-stroke:none;paint-order:fill markers stroke"
           d="m -1180.9629,768.74414 a 1.28994,1.28994 0 0 0 -1.5801,0.91406 1.28994,1.28994 0 0 0 0.9121,1.57813 l 4.5918,1.23047 a 1.28994,1.28994 0 0 0 1.5801,-0.91211 1.28994,1.28994 0 0 0 -0.9121,-1.58008 z"
           id="path41689" /><path
           style="color:#000000;fill:#000000;stroke-width:0.5;stroke-linecap:round;stroke-linejoin:round;-inkscape-stroke:none;paint-order:fill markers stroke"
           d="m -1172.2051,750.38477 a 1.28994,1.28994 0 0 0 -0.9121,0.3789 1.28994,1.28994 0 0 0 0,1.82422 l 5.0371,5.03711 a 1.28994,1.28994 0 0 0 1.8242,0 1.28994,1.28994 0 0 0 0,-1.82422 l -5.0371,-5.03711 a 1.28994,1.28994 0 0 0 -0.9121,-0.3789 z"
           id="path41691" /><path
           style="color:#000000;fill:#000000;stroke-width:0.5;stroke-linecap:round;stroke-linejoin:round;-inkscape-stroke:none;paint-order:fill markers stroke"
           d="m -1150.625,742.69922 a 1.28994,1.28994 0 0 0 -1.2891,1.29101 v 6.84766 a 1.28994,1.28994 0 0 0 1.2891,1.28906 1.28994,1.28994 0 0 0 1.291,-1.28906 v -6.84766 a 1.28994,1.28994 0 0 0 -1.291,-1.29101 z"
           id="path41693" /><path
           style="color:#000000;fill:#000000;stroke-width:0.5;stroke-linecap:round;stroke-linejoin:round;-inkscape-stroke:none;paint-order:fill markers stroke"
           d="m -1132.9863,754.58594 -3.5235,3.52539 a 1.28994,1.28994 0 0 0 0,1.82422 1.28994,1.28994 0 0 0 1.8243,0 l 3.5234,-3.52539 a 1.28994,1.28994 0 0 0 0,-1.82422 1.28994,1.28994 0 0 0 -1.8242,0 z"
           id="path41695" /><path
           style="color:#000000;fill:#000000;stroke-width:0.5;stroke-linecap:round;stroke-linejoin:round;-inkscape-stroke:none;paint-order:fill markers stroke"
           d="m -1129.2695,773.48437 a 1.28994,1.28994 0 0 0 -1.2891,1.29102 1.28994,1.28994 0 0 0 1.2891,1.28906 h 7.916 a 1.28994,1.28994 0 0 0 1.291,-1.28906 1.28994,1.28994 0 0 0 -1.291,-1.29102 z"
           id="path41697" /><path
           style="color:#000000;fill:#000000;stroke-width:0.5;stroke-linecap:round;stroke-linejoin:round;-inkscape-stroke:none;paint-order:fill markers stroke"
           d="m -1130.7012,787.38477 a 1.28994,1.28994 0 0 0 -1.7617,0.4707 1.28994,1.28994 0 0 0 0.4727,1.76172 l 4.8691,2.8125 a 1.28994,1.28994 0 0 0 1.7617,-0.47266 1.28994,1.28994 0 0 0 -0.4726,-1.76172 z"
           id="path41699" /><path
           style="color:#000000;fill:#000000;stroke-width:0.5;stroke-linecap:round;stroke-linejoin:round;-inkscape-stroke:none;paint-order:fill markers stroke"
           d="m -1138.0332,798.22266 a 1.28994,1.28994 0 0 0 -0.9121,1.58007 l 1.5547,5.80469 a 1.28994,1.28994 0 0 0 1.5801,0.91211 1.28994,1.28994 0 0 0 0.9121,-1.58008 l -1.5547,-5.80468 a 1.28994,1.28994 0 0 0 -1.5801,-0.91211 z"
           id="path41701" /><path
           style="color:#000000;fill:#000000;stroke-width:0.5;stroke-linecap:round;stroke-linejoin:round;-inkscape-stroke:none;paint-order:fill markers stroke"
           d="m -1157.5176,770.99609 c -1.8361,0.1443 -3.3341,1.03808 -4.1211,2.36719 -1.0493,1.77215 -0.6608,4.2347 1.1973,5.82031 a 1.28994,1.28994 0 0 0 1.8184,-0.14453 1.28994,1.28994 0 0 0 -0.1446,-1.81836 c -1.0815,-0.92294 -1.0856,-1.81127 -0.6523,-2.54297 0.3363,-0.56798 1.184,-0.94678 2.3574,-0.98437 0.047,0.60723 0.1117,1.03634 0.096,2.3457 -0.1173,9.73661 0.1621,20.18164 0.1621,20.18164 a 1.28994,1.28994 0 0 0 1.3242,1.25586 1.28994,1.28994 0 0 0 1.2539,-1.32422 c 0,0 -0.2785,-10.41721 -0.1621,-20.08203 0.026,-2.12876 -0.1562,-3.82812 -0.1562,-3.82812 a 1.290069,1.290069 0 0 0 -1.0371,-1.12891 c -0.6732,-0.12985 -1.3235,-0.16528 -1.9356,-0.11719 z"
           id="path41703" /><path
           style="color:#000000;fill:#000000;stroke-width:0.5;stroke-linecap:round;stroke-linejoin:round;-inkscape-stroke:none;paint-order:fill markers stroke"
           d="m -1149.9492,776.22852 a 1.290069,1.290069 0 0 0 -1.0391,1.15429 c 0,0 -0.1162,1.33599 -0.1,3.00977 0.074,7.58858 -0.1016,15.76758 -0.1016,15.76758 a 1.28994,1.28994 0 0 0 1.2618,1.31836 1.28994,1.28994 0 0 0 1.3164,-1.26172 c 0,0 0.178,-8.20301 0.1035,-15.84961 -0.01,-0.89935 0.024,-1.10918 0.053,-1.61133 0.2098,0.0134 0.5508,-0.0445 0.6856,-0.002 0.3313,0.10451 0.468,0.231 0.5957,0.44336 0.2552,0.42471 0.3302,1.45624 -0.1055,2.69726 a 1.28994,1.28994 0 0 0 0.791,1.64453 1.28994,1.28994 0 0 0 1.6445,-0.78906 c 0.5906,-1.68197 0.7513,-3.43803 -0.1171,-4.88281 -0.4342,-0.7224 -1.1621,-1.30002 -2.0313,-1.57422 -0.8692,-0.2742 -1.8536,-0.28 -2.957,-0.0644 z"
           id="path41705" /><g
           id="path41707"
           style="stroke-width:0.5"><path
             style="color:#000000;fill:#eb635c;stroke-width:1.05833;stroke-linecap:round;stroke-linejoin:round;-inkscape-stroke:none;paint-order:fill markers stroke"
             d="m -1469.9792,773.92241 -9.4273,-8.90681"
             id="path74593" /><path
             style="color:#000000;fill:#000000;stroke-width:0.5;stroke-linecap:round;stroke-linejoin:round;-inkscape-stroke:none;paint-order:fill markers stroke"
             d="m -1478.6797,764.24609 a 1.0583301,1.0583301 0 0 0 -1.4961,0.043 1.0583301,1.0583301 0 0 0 0.043,1.4961 l 9.4277,8.90625 a 1.0583301,1.0583301 0 0 0 1.4961,-0.043 1.0583301,1.0583301 0 0 0 -0.043,-1.4961 z"
             id="path74595" /></g><g
           id="path41709"
           style="stroke-width:0.5"><path
             style="color:#000000;fill:#eb635c;stroke-width:1.05833;stroke-linecap:round;stroke-linejoin:round;-inkscape-stroke:none;paint-order:fill markers stroke"
             d="m -1475.7471,784.43398 -11.3384,-10e-6"
             id="path74599" /><path
             style="color:#000000;fill:#000000;stroke-width:0.5;stroke-linecap:round;stroke-linejoin:round;-inkscape-stroke:none;paint-order:fill markers stroke"
             d="m -1487.0859,783.375 a 1.0583301,1.0583301 0 0 0 -1.0586,1.05859 1.0583301,1.0583301 0 0 0 1.0586,1.0586 h 11.3379 a 1.0583301,1.0583301 0 0 0 1.0585,-1.0586 1.0583301,1.0583301 0 0 0 -1.0585,-1.05859 z"
             id="path74601" /></g><g
           id="path41711"
           style="stroke-width:0.5"><path
             style="color:#000000;fill:#eb635c;stroke-width:1.05833;stroke-linecap:round;stroke-linejoin:round;-inkscape-stroke:none;paint-order:fill markers stroke"
             d="M -1456.4731,765.97435 V 755.11506"
             id="path74605" /><path
             style="color:#000000;fill:#000000;stroke-width:0.5;stroke-linecap:round;stroke-linejoin:round;-inkscape-stroke:none;paint-order:fill markers stroke"
             d="m -1456.4727,754.05664 a 1.0583301,1.0583301 0 0 0 -1.0586,1.05859 v 10.85938 a 1.0583301,1.0583301 0 0 0 1.0586,1.05859 1.0583301,1.0583301 0 0 0 1.0586,-1.05859 v -10.85938 a 1.0583301,1.0583301 0 0 0 -1.0586,-1.05859 z"
             id="path74607" /></g><path
           style="color:#000000;fill:#000000;stroke-width:0.5;stroke-linecap:round;stroke-linejoin:round;-inkscape-stroke:none;paint-order:fill markers stroke"
           d="m -1460.6016,782.03125 a 1.0584359,1.0584359 0 0 0 -1.0625,1.08008 l 1.1973,59.48437 a 1.0584359,1.0584359 0 0 0 1.0586,1.03711 h 106.4141 a 1.0584359,1.0584359 0 0 0 1.0586,-1.07812 l -1.0958,-59.04688 a 1.0584359,1.0584359 0 0 0 -1.0546,-1.03906 z m 1.0743,2.12109 104.3984,0.42969 1.0566,56.93359 h -104.2988 z"
           id="path41713" /><path
           style="color:#000000;fill:#000000;stroke-width:0.5;stroke-linecap:round;stroke-linejoin:round;-inkscape-stroke:none;paint-order:fill markers stroke"
           d="m -1459.3691,827.76953 a 1.0583301,1.0583301 0 0 0 -1.0606,1.05859 1.0583301,1.0583301 0 0 0 1.0586,1.0586 l 105.1406,0.10351 a 1.0583301,1.0583301 0 0 0 1.0586,-1.05664 1.0583301,1.0583301 0 0 0 -1.0566,-1.06054 z"
           id="path41715" /><g
           id="g41721"
           transform="matrix(0,1.7772332,-1.756257,0,213.54783,4878.7657)"
           style="stroke:#000000;stroke-width:0.283011"><path
             style="color:#000000;fill:#000000;stroke:none;stroke-width:0.283011;stroke-linecap:round;stroke-linejoin:round;-inkscape-stroke:none;paint-order:fill markers stroke"
             d="m -2293.0762,916.01172 a 0.59903997,0.59903997 0 0 0 -0.2246,0.8164 l 5.3692,9.44727 a 0.59903997,0.59903997 0 0 0 0.8164,0.22461 0.59903997,0.59903997 0 0 0 0.2246,-0.81641 l -5.3692,-9.44726 a 0.59903997,0.59903997 0 0 0 -0.8164,-0.22461 z"
             id="path41717" /><path
             style="color:#000000;fill:#000000;stroke:none;stroke-width:0.283011;stroke-linecap:round;stroke-linejoin:round;-inkscape-stroke:none;paint-order:fill markers stroke"
             d="m -2292.0605,915.38672 a 0.59903997,0.59903997 0 0 0 -0.3653,0.27734 l -6.1523,10.45508 a 0.59909988,0.59909988 0 0 0 0.5547,0.90039 l 10.2539,-0.68164 a 0.59903997,0.59903997 0 0 0 0.5566,-0.63672 0.59903997,0.59903997 0 0 0 -0.6367,-0.55859 l -9.1211,0.60742 5.5781,-9.47852 a 0.59903997,0.59903997 0 0 0 -0.2129,-0.82031 0.59903997,0.59903997 0 0 0 -0.455,-0.0645 z"
             id="path41719" /></g><path
           style="color:#000000;fill:#000000;stroke-width:0.5;stroke-linecap:round;stroke-linejoin:round;-inkscape-stroke:none;paint-order:fill markers stroke"
           d="m -1444.7676,834.9668 a 1.0583301,1.0583301 0 0 0 -1.0586,1.05664 1.0583301,1.0583301 0 0 0 1.0586,1.05859 h 80.4961 a 1.0583301,1.0583301 0 0 0 1.0586,-1.05859 1.0583301,1.0583301 0 0 0 -1.0586,-1.05664 z"
           id="path41723" /><path
           style="fill:#000000;stroke-width:1.05833;stroke-linecap:round;stroke-linejoin:round;paint-order:fill markers stroke"
           d="m -1348.3036,939.05235 17.5718,71.89085 h 95.9211 l 19.7028,-74.50503 z"
           id="path41725" /><path
           style="fill:#000000;stroke-width:1.05833;stroke-linecap:round;stroke-linejoin:round;paint-order:fill markers stroke"
           d="m -1331.6808,1014.6882 96.0414,-0.448 0.2703,2.9505 -96.1756,0.3469 z"
           id="path41727" /></g></g></g></svg>
