<?xml version="1.0" encoding="UTF-8" standalone="no"?>
<!-- Created with Inkscape (http://www.inkscape.org/) -->

<svg
   width="512.50391mm"
   height="758.82837mm"
   viewBox="0 0 512.50392 758.82837"
   version="1.1"
   id="svg5"
   xml:space="preserve"
   xmlns="http://www.w3.org/2000/svg"
   xmlns:svg="http://www.w3.org/2000/svg"><defs
     id="defs2" /><g
     id="layer1"
     transform="translate(-2853.7058,-106.18027)"><g
       id="notion-vlogging-content-creator"
       transform="matrix(2,0,0,2,4419.9128,-88.124184)"
       style="stroke-width:0.5"><title
         id="title88219">notion-vlogging-content-creator</title><path
         style="fill:#000000;stroke-width:6.4215;stroke-linecap:round;stroke-linejoin:round;paint-order:fill markers stroke"
         d="m -737.65708,167.97431 c -11.34824,-3.41544 -48.3862,31.4519 -25.59263,48.74255 27.44636,20.82011 39.55741,-29.27016 37.68462,-30.53836 0.94063,4.36499 26.78094,10.78717 34.58092,-0.99791 6.84705,-10.34528 3.89987,-36.81595 -19.72429,-37.60805 -24.16613,-0.81027 -26.94862,20.40177 -26.94862,20.40177 z"
         id="path40509" /><path
         style="fill:#000000;stroke-width:6.4215;stroke-linecap:round;stroke-linejoin:round;paint-order:fill markers stroke"
         d="m -739.93607,163.52744 c 0,0 -1.29504,-6.64036 -0.34484,-9.38089 0.95019,-2.74054 1.37209,-1.70228 1.37209,-1.70228 0,0 -0.78143,1.83803 0.10648,6.74677 0.88782,4.90873 3.2321,9.82481 3.2321,9.82481 l -3.08903,0.4329 c -3.51139,-9.63485 -13.2715,-5.36086 -13.98865,-7.24937 -0.29739,-1.47448 3.0927,-1.57022 7.19426,-0.82179 3.53512,0.64506 6.09,4.08328 6.09,4.08328 z"
         id="path40511" /><path
         style="color:#000000;fill:#000000;stroke-width:0.5;stroke-linecap:round;stroke-linejoin:round;-inkscape-stroke:none;paint-order:fill markers stroke"
         d="m -699.25586,183.15234 a 0.80269003,0.80269003 0 0 0 -0.61523,0.0137 0.80269003,0.80269003 0 0 0 -0.41016,1.05859 c 0,0 4.69147,10.63366 6.25586,14.82226 0.35581,0.95268 1.14384,3.78136 1.82227,7.48047 0.67842,3.69911 1.2661,8.31241 1.29492,12.9961 0.0288,4.68369 -0.50581,9.43483 -2.02149,13.39843 -1.51567,3.96361 -3.96969,7.12044 -7.85742,8.82618 -9.83083,4.31326 -18.59537,0.14849 -25.07617,-5.19727 -6.4808,-5.34575 -10.48633,-11.80664 -10.48633,-11.80664 a 0.8027703,0.8027703 0 0 0 -1.2793,-0.11523 c 0,0 -0.44216,0.4975 -1.35351,0.83984 -0.91135,0.34234 -2.22339,0.51585 -4.04492,-0.35156 -1.72958,-0.82362 -2.25717,-2.21163 -2.41993,-3.52344 -0.16275,-1.31181 0.11524,-2.41992 0.11524,-2.41992 a 0.80269003,0.80269003 0 0 0 -0.57813,-0.97656 0.80269003,0.80269003 0 0 0 -0.97656,0.57812 c 0,0 -0.35645,1.37045 -0.15234,3.01563 0.20411,1.64517 1.04565,3.69127 3.32226,4.77539 2.18467,1.04033 4.042,0.87641 5.29883,0.40429 0.73736,-0.27698 0.83017,-0.46891 1.16211,-0.74218 0.592,0.92787 4.18452,6.45944 10.37109,11.5625 6.71991,5.54298 16.23918,10.03677 26.74415,5.42773 4.33263,-1.90093 7.08828,-5.4793 8.71093,-9.72266 1.62266,-4.24336 2.15656,-9.17156 2.12696,-13.98242 -0.0296,-4.81085 -0.62884,-9.50706 -1.32032,-13.27734 -0.69147,-3.77029 -1.45815,-6.57115 -1.89843,-7.75 -1.61999,-4.33748 -6.29102,-14.91016 -6.29102,-14.91016 a 0.80269003,0.80269003 0 0 0 -0.44336,-0.42383 z"
         id="path40513" /><path
         style="color:#000000;fill:#000000;stroke-width:0.5;stroke-linecap:round;stroke-linejoin:round;-inkscape-stroke:none;paint-order:fill markers stroke"
         d="m -682.43164,199.14453 a 0.80269003,0.80269003 0 0 0 -1.08594,0.33008 l -3.92578,7.36719 a 0.80269003,0.80269003 0 0 0 0.33008,1.08593 0.80269003,0.80269003 0 0 0 1.08594,-0.33007 l 3.92578,-7.36719 a 0.80269003,0.80269003 0 0 0 -0.33008,-1.08594 z"
         id="path40515" /><path
         style="color:#000000;fill:#000000;stroke-width:0.5;stroke-linecap:round;stroke-linejoin:round;-inkscape-stroke:none;paint-order:fill markers stroke"
         d="m -677.99219,206.48633 a 0.80269003,0.80269003 0 0 0 -0.60937,0.0859 l -6.02344,3.53515 a 0.80269003,0.80269003 0 0 0 -0.28516,1.09961 0.80269003,0.80269003 0 0 0 1.09766,0.28516 l 6.02344,-3.53711 a 0.80269003,0.80269003 0 0 0 0.28711,-1.09766 0.80269003,0.80269003 0 0 0 -0.49024,-0.37109 z"
         id="path40517" /><path
         style="color:#000000;fill:#000000;stroke-width:0.5;stroke-linecap:round;stroke-linejoin:round;-inkscape-stroke:none;paint-order:fill markers stroke"
         d="m -677.61523,214.44531 -5.34961,1.10156 a 0.80269003,0.80269003 0 0 0 -0.625,0.94727 0.80269003,0.80269003 0 0 0 0.94922,0.625 l 5.3496,-1.10156 a 0.80269003,0.80269003 0 0 0 0.62305,-0.94727 0.80269003,0.80269003 0 0 0 -0.94726,-0.625 z"
         id="path40519" /><path
         style="color:#000000;fill:#000000;stroke-width:0.5;stroke-linecap:round;stroke-linejoin:round;-inkscape-stroke:none;paint-order:fill markers stroke"
         d="m -700.66211,194.67773 a 0.80269003,0.80269003 0 0 0 -0.60351,0.11719 c 0,0 -5.01325,3.23254 -6.96875,8.15039 -0.97776,2.45893 -1.13833,5.41469 0.56445,8.38672 1.70278,2.97203 5.17224,5.93149 11.30273,8.75195 a 0.80269003,0.80269003 0 0 0 1.06446,-0.39257 0.80269003,0.80269003 0 0 0 -0.39454,-1.06446 c -5.95043,-2.73762 -9.11931,-5.54414 -10.58007,-8.09375 -1.46076,-2.54961 -1.30951,-4.86992 -0.46485,-6.99414 1.68932,-4.24842 6.36133,-7.40429 6.36133,-7.40429 a 0.80269003,0.80269003 0 0 0 0.22852,-1.11133 0.80269003,0.80269003 0 0 0 -0.50977,-0.34571 z"
         id="path40521" /><path
         style="color:#000000;fill:#000000;stroke-width:0.5;stroke-linecap:round;stroke-linejoin:round;-inkscape-stroke:none;paint-order:fill markers stroke"
         d="m -717.66797,202.75586 c -5.48644,0.13207 -9.80041,3.17602 -13.49805,7.30273 a 0.80269003,0.80269003 0 0 0 0.0625,1.13477 0.80269003,0.80269003 0 0 0 1.13282,-0.0625 c 3.54807,-3.9598 7.42468,-6.65116 12.34179,-6.76953 a 0.80269003,0.80269003 0 0 0 0.78321,-0.82227 0.80269003,0.80269003 0 0 0 -0.82227,-0.7832 z"
         id="path40523" /><path
         id="ellipse40525"
         style="fill-rule:evenodd;stroke-width:0.80269"
         transform="rotate(-12.316564)"
         d="m -748.16767,57.996563 a 1.7719702,3.1991236 0 0 1 -1.77197,3.199124 1.7719702,3.1991236 0 0 1 -1.77197,-3.199124 1.7719702,3.1991236 0 0 1 1.77197,-3.199124 1.7719702,3.1991236 0 0 1 1.77197,3.199124 z" /><path
         style="fill:#000000;stroke-width:0.8657;stroke-linecap:round;stroke-linejoin:round;paint-order:fill markers stroke"
         d="m -701.91996,205.5365 c -0.54443,0.69234 -0.81299,1.33779 -0.7797,2.46855 0.0148,0.50309 0.13978,0.75222 0.32865,1.21679 0.10994,0.27018 0.19671,0.58447 0.34492,0.82207 0.73987,1.18582 1.94172,1.38544 2.4704,0.21384 0.45535,-1.00904 -0.33786,-4.18185 -1.20664,-4.84923 -0.43402,-0.33339 -0.79787,-0.0844 -1.1576,0.12785 z"
         id="path40527" /><path
         style="color:#000000;fill:#000000;stroke-width:0.5;stroke-linecap:round;stroke-linejoin:round;-inkscape-stroke:none;paint-order:fill markers stroke"
         d="m -698.26172,225.23047 c -2.91264,2.05283 -5.43969,4.03452 -10.90625,4.76172 a 0.8027703,0.8027703 0 0 0 -0.5,1.32226 c 0,0 1.30435,1.5102 3.03711,2.71289 0.86638,0.60135 1.84649,1.14147 2.90039,1.35938 1.05391,0.21791 2.24133,0.0565 3.17188,-0.75977 1.53023,-1.34231 2.31121,-2.47512 2.70507,-3.31836 0.19693,-0.42161 0.29577,-0.76995 0.34375,-1.02929 0.048,-0.25935 0.041,-0.49219 0.041,-0.49219 a 0.80269003,0.80269003 0 0 0 -0.85547,-0.74805 0.80269003,0.80269003 0 0 0 -0.74609,0.85547 c 0,0 0.005,-0.0318 -0.0176,0.0918 -0.0229,0.12358 -0.0792,0.33962 -0.2207,0.64258 -0.28302,0.60591 -0.91122,1.56524 -2.3086,2.79101 -0.53326,0.46778 -1.07306,0.54258 -1.78906,0.39453 -0.716,-0.14804 -1.547,-0.57685 -2.30859,-1.10547 -0.91345,-0.63401 -1.14722,-0.96662 -1.64453,-1.46875 4.68951,-0.94795 7.44361,-2.88038 10.02148,-4.69726 a 0.80269003,0.80269003 0 0 0 0.19336,-1.11914 0.80269003,0.80269003 0 0 0 -1.11719,-0.19336 z"
         id="path40529" /><path
         style="color:#000000;fill:#000000;stroke-width:0.5;stroke-linecap:round;stroke-linejoin:round;-inkscape-stroke:none;paint-order:fill markers stroke"
         d="m -740.56445,215.00977 a 0.80269003,0.80269003 0 0 0 -0.58203,0.20117 0.80269003,0.80269003 0 0 0 -0.0684,1.13281 c 1.2947,1.4614 2.06982,2.97227 2.04297,4.79102 a 0.80269003,0.80269003 0 0 0 0.79101,0.81445 0.80269003,0.80269003 0 0 0 0.81445,-0.79102 c 0.034,-2.29995 -0.99223,-4.23653 -2.44726,-5.8789 a 0.80269003,0.80269003 0 0 0 -0.55078,-0.26953 z"
         id="path40531" /><path
         style="fill:#000000;stroke-width:0.80269;stroke-linecap:round;stroke-linejoin:round;paint-order:fill markers stroke"
         d="m -726.94025,236.91277 3.31012,7.76176 -1.33857,-6.28827 z"
         id="path40533" /><path
         style="fill:#000000;stroke-width:0.80269;stroke-linecap:round;stroke-linejoin:round;paint-order:fill markers stroke"
         d="m -698.63295,241.64455 c -0.23866,0.86125 -1.44233,5.35438 -0.95465,6.7137 0.48771,1.35935 0.98574,2.947 1.26594,-0.69522 0.2802,-3.64223 1.56688,-7.1703 1.56688,-7.1703 z"
         id="path40535" /><path
         style="color:#000000;fill:#000000;stroke-width:0.5;stroke-linecap:round;stroke-linejoin:round;-inkscape-stroke:none;paint-order:fill markers stroke"
         d="m -728.26172,243.62891 a 0.8027703,0.8027703 0 0 0 -0.7207,0.26562 c 0,0 -0.98543,1.15965 -1.37695,3.29883 -0.39153,2.13918 -0.24877,5.31764 1.68554,9.53906 5.86352,12.79648 18.51563,15.30274 18.51563,15.30274 a 0.8027703,0.8027703 0 0 0 0.86718,-0.41602 l 4.74219,-9.04687 a 0.8027703,0.8027703 0 0 0 -0.80859,-1.16993 c 0,0 -1.41334,0.18999 -3.95899,-0.58398 -2.54565,-0.77397 -6.13889,-2.52122 -10.23437,-6.48047 -6.15672,-5.95191 -8.09766,-10.24805 -8.09766,-10.24805 a 0.8027703,0.8027703 0 0 0 -0.61328,-0.46093 z m -0.0606,2.43359 c 0.78443,1.43621 2.68102,4.61996 7.65625,9.42969 4.2637,4.12187 8.09383,6.01532 10.88282,6.86328 1.336,0.40619 2.4142,0.55068 3.21484,0.61133 l -3.8418,7.33203 c -1.50579,-0.34898 -11.67123,-3.03545 -16.80273,-14.23438 -1.82076,-3.97359 -1.89574,-6.78262 -1.56641,-8.58203 0.12055,-0.65862 0.29401,-1.03125 0.45703,-1.41992 z"
         id="path40537" /><path
         style="color:#000000;fill:#000000;stroke-width:0.5;stroke-linecap:round;stroke-linejoin:round;-inkscape-stroke:none;paint-order:fill markers stroke"
         d="m -690.22852,238.38281 c -1.21988,-0.18421 -2.61534,-0.17742 -4.20312,0.0371 a 0.8027703,0.8027703 0 0 0 -0.37695,1.4336 c 2.121,1.61474 2.86535,3.85092 2.94336,6.64257 0.078,2.79165 -0.57563,6.06566 -1.26172,9.38672 a 0.8027703,0.8027703 0 0 0 0.62695,0.94922 l 9.44336,1.89844 a 0.8027703,0.8027703 0 0 0 0.95703,-0.85938 c -0.40336,-4.44468 -0.17149,-9.56449 -1.4707,-13.55078 -0.64961,-1.99314 -1.72514,-3.73799 -3.50391,-4.83203 -0.88938,-0.54702 -1.93442,-0.92125 -3.1543,-1.10547 z m -0.25195,1.58203 c 1.03513,0.15489 1.87368,0.46577 2.56445,0.89063 1.38155,0.84972 2.24497,2.19562 2.82032,3.96094 1.06323,3.26226 1.02061,7.83129 1.33398,12.13671 l -7.64258,-1.53906 c 0.62853,-3.06245 1.22351,-6.13435 1.14453,-8.96094 -0.0671,-2.40286 -0.68299,-4.65684 -2.16015,-6.46484 0.6489,-0.009 1.40186,-0.10388 1.93945,-0.0234 z"
         id="path40539" /><path
         style="color:#000000;fill:#000000;stroke-width:0.5;stroke-linecap:round;stroke-linejoin:round;-inkscape-stroke:none;paint-order:fill markers stroke"
         d="m -730.12891,249.22656 a 0.80269003,0.80269003 0 0 0 -0.59961,0.13281 c -18.17154,12.73367 -21.33477,33.88825 -23.59179,55.22657 a 0.8027703,0.8027703 0 0 0 0.53125,0.84179 c 8.84386,3.11395 16.45075,2.64181 24.46484,1.91993 a 0.80269003,0.80269003 0 0 0 0.72852,-0.8711 0.80269003,0.80269003 0 0 0 -0.87305,-0.72656 c -7.78589,0.70133 -14.91432,1.08994 -23.16602,-1.66992 2.24765,-21.04522 5.45825,-41.23434 22.82813,-53.40625 a 0.80269003,0.80269003 0 0 0 0.19727,-1.11719 0.80269003,0.80269003 0 0 0 -0.51954,-0.33008 z"
         id="path40541" /><path
         style="color:#000000;fill:#000000;stroke-width:0.5;stroke-linecap:round;stroke-linejoin:round;-inkscape-stroke:none;paint-order:fill markers stroke"
         d="m -680.23047,237.74805 a 0.79374999,0.79374999 0 0 0 -0.30469,1.08007 l 45.66602,81.32813 c -21.41537,32.53499 -53.0249,44.53542 -94.54492,40.35156 0.0118,-0.73438 0.30018,-18.65505 0.59765,-37.45898 0.15176,-9.59266 0.30414,-19.22272 0.41602,-26.53125 0.0559,-3.65427 0.10131,-6.72731 0.13281,-8.92578 0.0157,-1.09924 0.0273,-1.98027 0.0352,-2.60547 0.008,-0.6252 0.0142,-0.94723 0.0117,-1.0918 a 0.79374999,0.79374999 0 0 0 -0.8086,-0.78125 0.79374999,0.79374999 0 0 0 -0.77929,0.80859 c 1.2e-4,0.007 -0.002,0.42151 -0.01,1.04493 -0.008,0.62342 -0.0214,1.50282 -0.0371,2.60156 -0.0315,2.19747 -0.0769,5.27178 -0.13281,8.92578 -0.11187,7.308 -0.26231,16.93873 -0.41406,26.53125 -0.30351,19.18505 -0.60938,38.2168 -0.60938,38.2168 a 0.79382936,0.79382936 0 0 0 0.70899,0.80273 c 42.44317,4.46141 75.19915,-7.90447 97.04296,-41.39453 a 0.79382936,0.79382936 0 0 0 0.0273,-0.82227 l -45.91797,-81.77734 a 0.79374999,0.79374999 0 0 0 -1.08008,-0.30273 z"
         id="path40543" /><path
         style="color:#000000;fill:#000000;stroke-width:0.5;stroke-linecap:round;stroke-linejoin:round;-inkscape-stroke:none;paint-order:fill markers stroke"
         d="m -692.14844,255.25195 a 0.80269003,0.80269003 0 0 0 -1.05273,0.42578 l -3.54297,8.33789 -8.02734,-2.22851 a 0.80269003,0.80269003 0 0 0 -0.98829,0.55859 0.80269003,0.80269003 0 0 0 0.5586,0.98828 l 8.70508,2.41602 a 0.8027703,0.8027703 0 0 0 0.95507,-0.45898 l 3.81836,-8.98633 a 0.80269003,0.80269003 0 0 0 -0.42578,-1.05274 z"
         id="path40545" /><path
         style="color:#000000;fill:#000000;stroke-width:0.5;stroke-linecap:round;stroke-linejoin:round;-inkscape-stroke:none;paint-order:fill markers stroke"
         d="m -696.6875,264.4082 a 0.80269003,0.80269003 0 0 0 -0.48242,1.02735 l 9.18164,25.56836 a 0.80269003,0.80269003 0 0 0 1.02734,0.48437 0.80269003,0.80269003 0 0 0 0.48438,-1.02734 l -9.1836,-25.56836 a 0.80269003,0.80269003 0 0 0 -1.02734,-0.48438 z"
         id="path40547" /><path
         style="color:#000000;fill:#000000;stroke-width:0.5;stroke-linecap:round;stroke-linejoin:round;-inkscape-stroke:none;paint-order:fill markers stroke"
         d="m -691.78711,263.36523 c -0.0645,9.9e-4 -0.22964,0.002 -0.41601,0.0215 -0.0932,0.01 -0.19158,0.0226 -0.3125,0.0547 -0.12093,0.032 -0.27926,0.0382 -0.51172,0.29296 a 0.8027703,0.8027703 0 0 0 -0.002,0.004 c -0.24736,0.27341 -0.32437,0.49745 -0.36718,0.56641 l 0.0859,0.0234 c -0.39366,0.29955 -0.79749,0.63489 -0.87304,1.0586 -0.0997,0.55908 0.0296,1.05736 0.18164,1.5039 0.46283,1.35965 1.67767,2.08343 2.79101,1.91797 1.11279,-0.16537 2.05536,-1.18148 2.10547,-2.53515 v -0.002 c 0.0241,-0.64711 -0.23157,-1.16776 -0.45703,-1.5625 -0.22012,-0.38519 -0.44992,-0.74593 -0.84766,-1.00976 -0.39774,-0.26383 -0.87763,-0.34232 -1.37695,-0.33399 z m 0.0254,1.60547 c 0.33675,-0.006 0.41267,0.0331 0.46289,0.0664 0.0502,0.0333 0.15988,0.14846 0.3418,0.4668 0.19352,0.33882 0.25671,0.48189 0.24805,0.70898 -0.0255,0.70271 -0.38533,0.95536 -0.73829,1.00781 -0.35295,0.0525 -0.76584,-0.0565 -1.03515,-0.84765 -0.10981,-0.32257 -0.13868,-0.59548 -0.11914,-0.70508 0.0195,-0.1096 -0.02,-0.10504 0.20703,-0.20313 l -0.16602,-0.10937 a 0.8027703,0.8027703 0 0 0 0.5293,-0.20508 c 0.0738,-0.11887 0.0682,-0.1156 0.0996,-0.17187 0.0615,-0.003 0.12827,-0.007 0.16992,-0.008 z"
         id="path40549" /><path
         style="color:#000000;fill:#000000;stroke-width:0.5;stroke-linecap:round;stroke-linejoin:round;-inkscape-stroke:none;paint-order:fill markers stroke"
         d="m -687.25977,277.42187 a 0.8027703,0.8027703 0 0 0 -0.0254,0.008 c -0.16812,0.047 -0.10288,0.0341 -0.1289,0.0449 -0.026,0.0109 -0.0541,0.0236 -0.084,0.0371 -0.0298,0.0135 -0.0601,0.0264 -0.0996,0.0469 -0.0198,0.0103 -0.04,0.0214 -0.0801,0.0469 -0.0201,0.0127 -0.0449,0.0271 -0.0898,0.0644 -0.0225,0.0187 -0.0894,0.0874 -0.0898,0.0879 -4.5e-4,5.1e-4 -0.1522,0.25742 -0.15235,0.25781 a 0.8027703,0.8027703 0 0 0 -0.002,0.004 c -0.0598,0.16685 -0.0456,0.20396 -0.0566,0.30078 -0.13294,0.13382 -0.30136,0.27934 -0.53516,0.50196 -0.28618,0.27249 -0.64231,0.66544 -0.73242,1.25 -0.14578,0.94625 0.50598,1.67534 1.17188,2.03515 0.66589,0.35981 1.50184,0.54229 2.25781,0.0527 0.73505,-0.476 1.03781,-1.20815 1.20898,-1.83008 0.0487,-0.17694 0.11343,-0.42711 0.13672,-0.72071 0.0233,-0.29307 0.0281,-0.65848 -0.21289,-1.04687 -0.24487,-0.39453 -0.59295,-0.69982 -1.00976,-0.91797 -0.41681,-0.21814 -0.92776,-0.35616 -1.47657,-0.22266 z m 0.61719,1.61719 c 0.0467,0.0137 0.061,-0.001 0.11524,0.0274 0.16547,0.0866 0.32815,0.24429 0.38867,0.34179 a 0.8027703,0.8027703 0 0 0 0.002,0.002 c -0.0554,-0.089 -0.014,-0.0464 -0.0234,0.0723 -0.009,0.11872 -0.0466,0.28421 -0.084,0.41992 -0.0887,0.32239 -0.42521,0.83896 -0.53516,0.91016 0.007,-0.005 -0.33528,0.0372 -0.62109,-0.11719 -0.28582,-0.15443 -0.35774,-0.31345 -0.34766,-0.3789 0.007,-0.0457 0.0566,-0.14599 0.25196,-0.33204 0.19538,-0.18604 0.50022,-0.40798 0.78906,-0.75976 a 0.8027703,0.8027703 0 0 0 0.0645,-0.18555 z"
         id="path40551" /><path
         style="color:#000000;fill:#000000;stroke-width:0.5;stroke-linecap:round;stroke-linejoin:round;-inkscape-stroke:none;paint-order:fill markers stroke"
         d="m -691.69922,242.15625 a 0.80269003,0.80269003 0 0 0 -0.77734,0.82812 c 0.0562,1.72281 -1.08213,3.72603 -3.11133,5.625 -2.0292,1.89898 -4.89098,3.66202 -7.98828,4.95704 -3.0973,1.29501 -6.43227,2.12421 -9.38867,2.2207 -2.95641,0.0965 -5.49219,-0.54167 -7.13477,-2.03711 a 0.80269003,0.80269003 0 0 0 -1.13281,0.0527 0.80269003,0.80269003 0 0 0 0.0527,1.13477 c 2.07463,1.88878 5.05351,2.55802 8.26758,2.45312 3.21407,-0.10489 6.70627,-0.98539 9.95508,-2.34375 3.24881,-1.35835 6.25186,-3.19283 8.4668,-5.26562 2.21493,-2.07279 3.69846,-4.41587 3.61914,-6.84961 a 0.80269003,0.80269003 0 0 0 -0.82813,-0.77539 z"
         id="path40553" /><path
         style="color:#000000;fill:#000000;stroke-width:0.5;stroke-linecap:round;stroke-linejoin:round;-inkscape-stroke:none;paint-order:fill markers stroke"
         d="m -645.375,181.66406 a 0.8027703,0.8027703 0 0 0 -0.73633,0.29688 c -5e-5,6e-5 -0.007,0.0162 -0.008,0.0176 l -0.004,-0.002 c -12.77276,17.10762 -23.42689,35.50965 -42.30859,47.87305 a 0.80269003,0.80269003 0 0 0 -0.23242,1.11133 0.80269003,0.80269003 0 0 0 1.11133,0.23242 c 18.85314,-12.34471 29.57592,-30.45227 41.92968,-47.16406 0.32868,0.62485 0.75866,1.41966 1.29883,2.40429 1.1567,2.10845 2.70736,4.89873 4.24024,7.70703 1.53287,2.80831 3.04915,5.63573 4.12695,7.80469 0.5389,1.08449 0.96904,2.00743 1.23047,2.65821 0.11675,0.29064 0.18469,0.50273 0.22656,0.65429 -4.73569,5.80273 -13.15031,11.54423 -19.07812,20.98438 -10.02964,15.97235 -11.68598,23.99828 -11.42383,39.11718 a 0.80269003,0.80269003 0 0 0 0.8164,0.78907 0.80269003,0.80269003 0 0 0 0.78907,-0.81641 c -0.26005,-14.99759 1.23199,-22.39759 11.17773,-38.23633 5.78308,-9.20964 14.19615,-14.83537 19.16406,-21.03906 0.22941,-0.28648 0.21201,-0.51544 0.20703,-0.67578 -0.005,-0.16034 -0.0321,-0.29058 -0.0664,-0.42969 -0.0686,-0.27822 -0.17628,-0.58191 -0.32227,-0.94531 -0.29197,-0.7268 -0.73467,-1.67153 -1.2832,-2.77539 -1.09706,-2.20773 -2.61746,-5.04381 -4.1543,-7.85938 -1.53683,-2.81557 -3.08934,-5.60951 -4.24219,-7.71093 -0.57642,-1.05072 -1.05334,-1.92933 -1.375,-2.54493 -0.16082,-0.3078 -0.28408,-0.55178 -0.35546,-0.70507 -0.0357,-0.0767 -0.0598,-0.13325 -0.0625,-0.14063 -10e-4,-0.004 0.004,8.4e-4 0.0156,0.0566 0.006,0.0279 0.0151,0.0683 0.0137,0.1543 -7.2e-4,0.043 -0.004,0.0979 -0.0234,0.17578 -0.0178,0.0706 -0.11202,0.23434 -0.13086,0.26758 a 0.8027703,0.8027703 0 0 0 -0.54102,-1.25977 z"
         id="path40555" /><path
         style="color:#000000;fill:#000000;stroke-width:0.5;stroke-linecap:round;stroke-linejoin:round;-inkscape-stroke:none;paint-order:fill markers stroke"
         d="m -607.20508,125.30078 a 0.80269003,0.80269003 0 0 0 -0.54492,0.28516 c -4.45313,5.33396 -10.16704,8.72052 -14.24023,15.5332 0.16901,-1.07844 0.43103,-2.29528 0.39453,-3.02148 -0.064,-1.27264 -0.64148,-2.80321 -1.1836,-4.10938 -0.54212,-1.30617 -1.07031,-2.34766 -1.07031,-2.34766 a 0.8027703,0.8027703 0 0 0 -1.33203,-0.15234 c 0,0 -0.13192,0.1826 -0.2207,0.37891 -0.0888,0.1963 -0.19314,0.47773 -0.30274,0.89843 -0.21919,0.84141 -0.46375,2.23686 -0.62695,4.58985 -0.14884,2.14617 -0.87689,3.25518 -1.68945,4.34375 -0.81257,1.08857 -1.80236,2.19385 -1.95118,3.9668 -0.21145,2.51954 0.26785,5.54523 0.7793,7.96093 0.25573,1.20785 0.52236,2.25864 0.72266,3 0.0999,0.36991 0.18448,0.66215 0.24218,0.85938 1.3e-4,4.1e-4 -1.2e-4,0.002 0,0.002 -0.0132,0.0253 -0.017,0.0327 -0.0332,0.0625 -0.11049,0.20318 -0.28738,0.50599 -0.51562,0.88281 -0.45649,0.75364 -1.1217,1.80857 -1.92188,3.05664 -1.60035,2.49616 -3.74629,5.76927 -5.89453,9.02344 -4.29649,6.50834 -8.60352,12.9375 -8.60352,12.9375 a 0.80269003,0.80269003 0 0 0 0.22071,1.11328 0.80269003,0.80269003 0 0 0 1.11328,-0.21875 c 0,0 4.30888,-6.43286 8.60937,-12.94726 2.15025,-3.2572 4.2983,-6.53497 5.90625,-9.04297 0.80398,-1.254 1.47317,-2.31357 1.94336,-3.08985 0.2351,-0.38813 0.41988,-0.7049 0.55274,-0.94921 0.0664,-0.12216 0.11878,-0.22482 0.16406,-0.32618 0.0226,-0.0507 0.0447,-0.0995 0.0664,-0.16796 0.0217,-0.0684 0.074,-0.12388 0.0391,-0.39454 l -0.23828,0.0488 c 0.0615,-0.0247 0.23047,-0.0937 0.23047,-0.0937 -7e-5,-3.3e-4 -0.0118,-0.0575 -0.0137,-0.0644 a 0.8027703,0.8027703 0 0 0 -0.25781,-0.1582 c 0.0304,-0.0122 0.15821,-0.0625 0.15821,-0.0625 -4e-5,-6e-5 0.0736,0.14233 0.0781,0.15429 -10e-4,-0.004 -4.1e-4,-0.005 -0.002,-0.01 -0.0127,-0.0416 -0.0352,-0.11171 -0.0625,-0.20508 -0.0546,-0.18674 -0.13536,-0.46888 -0.23242,-0.82813 -0.19413,-0.7185 -0.45317,-1.74268 -0.70118,-2.91406 -0.496,-2.34276 -0.93469,-5.29341 -0.75,-7.49414 0.10446,-1.24452 0.7739,-1.98211 1.63868,-3.14062 0.86477,-1.15852 1.83106,-2.70116 2.0039,-5.19336 0.11075,-1.59674 0.26387,-2.23267 0.40625,-3.00196 0.0317,0.0749 0.0305,0.0617 0.0625,0.13868 0.51628,1.2439 1.02269,2.7819 1.0625,3.57421 0.0398,0.79142 -0.2944,3.02086 -0.66211,4.91211 -0.36771,1.89126 -0.75,3.5293 -0.75,3.5293 a 0.8027703,0.8027703 0 0 0 1.53906,0.45117 c 3.67191,-10.31691 10.78299,-13.54173 16.55469,-20.45508 a 0.80269003,0.80269003 0 0 0 -0.10156,-1.13085 0.80269003,0.80269003 0 0 0 -0.58594,-0.1836 z"
         id="path40557" /><path
         style="color:#000000;fill:#000000;stroke-width:0.5;stroke-linecap:round;stroke-linejoin:round;-inkscape-stroke:none;paint-order:fill markers stroke"
         d="m -599.46875,122.94531 a 0.80269003,0.80269003 0 0 0 -1.0957,0.29492 c -1.23695,2.14799 -3.38684,4.98639 -5.49414,7.375 -1.05366,1.19431 -2.09884,2.28064 -3.00782,3.11524 -0.90898,0.83459 -1.7228,1.41779 -2.10742,1.58203 a 0.80269003,0.80269003 0 0 0 -0.42383,1.05469 0.80269003,0.80269003 0 0 0 1.05469,0.42187 c 0.77533,-0.33108 1.59485,-0.98848 2.5625,-1.87695 0.96765,-0.88847 2.04245,-2.00731 3.125,-3.23438 2.16511,-2.45413 4.35059,-5.32531 5.68164,-7.63671 a 0.80269003,0.80269003 0 0 0 -0.29492,-1.09571 z"
         id="path40559" /><path
         style="color:#000000;fill:#000000;stroke-width:0.5;stroke-linecap:round;stroke-linejoin:round;-inkscape-stroke:none;paint-order:fill markers stroke"
         d="m -593.44531,122.61719 c -0.14795,0.002 -0.22766,0.0339 -0.28711,0.0566 a 0.80269003,0.80269003 0 0 0 -0.44922,0.48242 c -0.0322,0.0513 -0.10932,0.16614 -0.23047,0.33008 -0.26088,0.35303 -0.68523,0.89559 -1.2168,1.55469 -1.06312,1.31819 -2.56305,3.11674 -4.13476,4.95703 -1.57171,1.84029 -3.21716,3.72403 -4.57227,5.20898 -0.67755,0.74247 -1.2839,1.38505 -1.76562,1.86914 -0.48172,0.4841 -0.88931,0.82921 -0.95508,0.8711 a 0.80269003,0.80269003 0 0 0 -0.24609,1.10937 0.80269003,0.80269003 0 0 0 1.10937,0.24609 c 0.37135,-0.23649 0.72174,-0.5825 1.23047,-1.09375 0.50873,-0.51124 1.12537,-1.16695 1.8125,-1.91992 1.37426,-1.50593 3.02751,-3.39815 4.60742,-5.24804 1.57991,-1.8499 3.08619,-3.65571 4.16406,-4.99219 0.53894,-0.66824 0.96951,-1.21728 1.25782,-1.60742 0.14415,-0.19508 0.24842,-0.3434 0.33398,-0.48633 0.0428,-0.0715 0.0838,-0.0965 0.13867,-0.31641 0.0137,-0.055 0.0327,-0.12725 0.0254,-0.2539 -0.004,-0.0633 -0.0146,-0.14325 -0.0488,-0.23633 -0.0342,-0.0931 -0.18666,-0.29017 -0.1875,-0.29102 -8.5e-4,-8.4e-4 -0.31129,-0.19685 -0.3125,-0.19726 -10e-4,-4.2e-4 -0.19947,-0.044 -0.27344,-0.043 z m -0.73633,0.5664 a 0.80269003,0.80269003 0 0 0 -0.0137,0.44532 c -0.0134,-0.0543 -0.0289,-0.11207 -0.0312,-0.15235 -0.007,-0.11985 0.0103,-0.18372 0.0215,-0.22851 0.0247,-0.099 0.0183,-0.0593 0.0234,-0.0645 z m 0.0137,0.53907 a 0.80269003,0.80269003 0 0 0 1.00781,0.45117 c -0.05,0.0191 -0.12211,0.0469 -0.26367,0.0488 -0.0708,9.8e-4 -0.26684,-0.0414 -0.26562,-0.041 0.001,4.1e-4 -0.30749,-0.1942 -0.30664,-0.19336 7.8e-4,7.9e-4 -0.12733,-0.16918 -0.17188,-0.26562 z"
         id="path40561" /><path
         style="color:#000000;fill:#000000;stroke-width:0.5;stroke-linecap:round;stroke-linejoin:round;-inkscape-stroke:none;paint-order:fill markers stroke"
         d="m -594.23828,131.26172 a 0.80269003,0.80269003 0 0 0 -1.11328,0.22656 c -1.05358,1.59223 -2.8595,3.74125 -4.64063,5.60547 -1.78112,1.86422 -3.61865,3.48193 -4.4414,3.94336 a 0.80269003,0.80269003 0 0 0 -0.3086,1.09375 0.80269003,0.80269003 0 0 0 1.09375,0.30664 c 1.24542,-0.69848 2.98574,-2.31829 4.81641,-4.23438 1.83067,-1.91608 3.6699,-4.08956 4.82031,-5.82812 a 0.80269003,0.80269003 0 0 0 -0.22656,-1.11328 z"
         id="path40563" /><path
         style="color:#000000;fill:#000000;stroke-width:0.5;stroke-linecap:round;stroke-linejoin:round;-inkscape-stroke:none;paint-order:fill markers stroke"
         d="m -595.26953,137.81641 a 0.80269003,0.80269003 0 0 0 -0.54102,0.29101 c -8.49471,10.38708 -25.01172,19.83594 -25.01172,19.83594 a 0.8027703,0.8027703 0 0 0 -0.20117,0.16211 c 0,0 -0.83758,0.95981 -2.07812,3.58789 -1.24055,2.62808 -2.95038,7.00003 -4.88477,14.05469 -1.89545,6.91261 -4.6576,11.36958 -6.92578,14.0957 -2.26818,2.72612 -3.97656,3.68164 -3.97656,3.68164 a 0.80269003,0.80269003 0 0 0 -0.30078,1.09375 0.80269003,0.80269003 0 0 0 1.0957,0.30273 c 0,0 2.00695,-1.15729 4.41602,-4.05273 2.40906,-2.89544 5.28598,-7.57024 7.24023,-14.69727 1.91529,-6.98499 3.5989,-11.27161 4.78906,-13.79296 1.17122,-2.48121 1.77125,-3.12879 1.79102,-3.15039 0.29923,-0.16992 16.53569,-9.40212 25.28906,-20.10547 a 0.80269003,0.80269003 0 0 0 -0.11328,-1.12891 0.80269003,0.80269003 0 0 0 -0.58789,-0.17773 z"
         id="path40565" /><path
         style="color:#000000;fill:#000000;stroke-width:0.5;stroke-linecap:round;stroke-linejoin:round;-inkscape-stroke:none;paint-order:fill markers stroke"
         d="m -603.41602,97.158203 a 0.80269003,0.80269003 0 0 0 -0.89453,0.699219 c 0,0 -0.3326,2.671748 -0.66406,5.437498 -0.16573,1.38288 -0.33118,2.78863 -0.45508,3.89844 -0.0619,0.55491 -0.11419,1.03485 -0.15039,1.4043 -0.0362,0.36945 -0.061,0.56806 -0.0586,0.79101 a 0.80269003,0.80269003 0 0 0 0.8125,0.79492 0.80269003,0.80269003 0 0 0 0.79297,-0.8125 c 4e-4,0.0377 0.0158,-0.26054 0.0508,-0.61718 0.0349,-0.35664 0.0869,-0.83195 0.14844,-1.38282 0.12299,-1.10173 0.28767,-2.50418 0.45312,-3.88476 0.33091,-2.76116 0.66211,-5.431643 0.66211,-5.431643 a 0.80269003,0.80269003 0 0 0 -0.69727,-0.896484 z"
         id="path40567" /><path
         style="color:#000000;fill:#000000;stroke-width:0.5;stroke-linecap:round;stroke-linejoin:round;-inkscape-stroke:none;paint-order:fill markers stroke"
         d="m -584.29687,102.33594 a 0.80269003,0.80269003 0 0 0 -1.0879,0.32226 l -4.9746,9.16407 a 0.80269003,0.80269003 0 0 0 0.32226,1.08789 0.80269003,0.80269003 0 0 0 1.08789,-0.32227 l 4.97461,-9.16406 a 0.80269003,0.80269003 0 0 0 -0.32226,-1.08789 z"
         id="path40569" /><path
         style="color:#000000;fill:#000000;stroke-width:0.5;stroke-linecap:round;stroke-linejoin:round;-inkscape-stroke:none;paint-order:fill markers stroke"
         d="m -572.36328,120.23047 -9.23047,3.27344 a 0.80269003,0.80269003 0 0 0 -0.48828,1.02539 0.80269003,0.80269003 0 0 0 1.02344,0.48828 l 9.23047,-3.27344 a 0.80269003,0.80269003 0 0 0 0.48828,-1.02539 0.80269003,0.80269003 0 0 0 -1.02344,-0.48828 z"
         id="path40571" /><path
         style="color:#000000;fill:#000000;stroke-width:0.5;stroke-linecap:round;stroke-linejoin:round;-inkscape-stroke:none;paint-order:fill markers stroke"
         d="m -734.60547,306.69922 a 0.80269003,0.80269003 0 0 0 -0.82226,0.7832 c -0.49318,20.21752 -5.66411,29.70511 -14.05664,44.23633 a 0.8027703,0.8027703 0 0 0 -0.10743,0.40039 c -0.004,1.90484 0.38677,4.5709 0.53711,6.88281 0.0752,1.15596 0.0878,2.21993 -0.0156,2.98633 -0.10343,0.7664 -0.34607,1.11079 -0.41992,1.15039 l -4.00586,2.14844 a 0.8027703,0.8027703 0 0 0 -0.34961,0.375 c -1.62821,3.58115 -3.33294,6.96718 -6.58008,9.57422 a 0.80269003,0.80269003 0 0 0 -0.12305,1.1289 0.80269003,0.80269003 0 0 0 1.12891,0.12305 c 3.47662,-2.79129 5.28624,-6.37042 6.90039,-9.90234 l 3.78906,-2.03125 c 0.85805,-0.46015 1.12143,-1.38442 1.25195,-2.35157 0.13053,-0.96714 0.10366,-2.10114 0.0254,-3.30468 -0.15238,-2.34327 -0.50332,-4.91701 -0.51954,-6.59571 8.32543,-14.42267 13.65342,-24.4081 14.15039,-44.78125 a 0.80269003,0.80269003 0 0 0 -0.7832,-0.82226 z"
         id="path40573" /><path
         style="color:#000000;fill:#000000;stroke-width:0.5;stroke-linecap:round;stroke-linejoin:round;-inkscape-stroke:none;paint-order:fill markers stroke"
         d="m -748.875,305.51758 a 0.80269003,0.80269003 0 0 0 -0.93164,0.64648 l -8.76758,48.25977 c -0.46425,0.28622 -3.28098,2.04631 -5.65625,4.6582 -0.77724,0.85467 -1.22746,1.8531 -1.62305,2.71289 -0.39558,0.8598 -0.7552,1.57007 -1.12304,1.91211 -3.05815,2.84363 -10.07032,7.93555 -10.07031,7.93555 a 0.80269003,0.80269003 0 0 0 -0.17969,1.12109 0.80269003,0.80269003 0 0 0 1.12109,0.17969 c 0,0 6.97287,-5.03872 10.22266,-8.06055 0.72391,-0.67313 1.09462,-1.56234 1.48828,-2.41797 0.39366,-0.85562 0.79233,-1.68779 1.35156,-2.30273 2.35901,-2.59401 5.61524,-4.57813 5.61524,-4.57813 a 0.8027703,0.8027703 0 0 0 0.37304,-0.54492 l 8.82617,-48.58789 a 0.80269003,0.80269003 0 0 0 -0.64648,-0.93359 z"
         id="path40575" /><path
         style="color:#000000;fill:#000000;stroke-width:0.5;stroke-linecap:round;stroke-linejoin:round;-inkscape-stroke:none;paint-order:fill markers stroke"
         d="m -765.68359,362.45703 a 0.80269003,0.80269003 0 0 0 -0.6875,0.90234 c 0.31923,2.37828 -3e-5,3.98929 -0.66993,5.18165 -0.66989,1.19235 -1.72655,2.01814 -3.0625,2.70117 a 0.80269003,0.80269003 0 0 0 -0.3496,1.08008 0.80269003,0.80269003 0 0 0 1.08007,0.34765 c 1.50067,-0.76725 2.86068,-1.79559 3.73047,-3.34375 0.86979,-1.54816 1.21275,-3.56359 0.86133,-6.18164 a 0.80269003,0.80269003 0 0 0 -0.90234,-0.6875 z"
         id="path40577" /><path
         style="color:#000000;fill:#000000;stroke-width:0.5;stroke-linecap:round;stroke-linejoin:round;-inkscape-stroke:none;paint-order:fill markers stroke"
         d="m -773.26953,373.3418 -5.49805,2.50586 a 0.80269003,0.80269003 0 0 0 -0.39844,1.06445 0.80269003,0.80269003 0 0 0 1.0625,0.39648 l 5.5,-2.50586 a 0.80269003,0.80269003 0 0 0 0.39844,-1.0625 0.80269003,0.80269003 0 0 0 -1.06445,-0.39843 z"
         id="path40579" /><path
         style="color:#000000;fill:#000000;stroke-width:0.5;stroke-linecap:round;stroke-linejoin:round;-inkscape-stroke:none;paint-order:fill markers stroke"
         d="m -765.18359,372.04687 a 0.80269003,0.80269003 0 0 0 -1.12891,0.13086 c -2.29079,2.89098 -5.3508,4.92006 -9.38477,6.00782 a 0.80269003,0.80269003 0 0 0 -0.5664,0.98437 0.80269003,0.80269003 0 0 0 0.98437,0.56445 c 4.32493,-1.16621 7.72762,-3.40492 10.22657,-6.55859 a 0.80269003,0.80269003 0 0 0 -0.13086,-1.12891 z"
         id="path40581" /><path
         style="color:#000000;fill:#000000;stroke-width:0.5;stroke-linecap:round;stroke-linejoin:round;-inkscape-stroke:none;paint-order:fill markers stroke"
         d="m -757.04102,366.7207 a 0.80269003,0.80269003 0 0 0 -1.08398,0.33985 c -2.2491,4.30951 -4.66066,8.13192 -8.83984,9.75586 a 0.80269003,0.80269003 0 0 0 -0.45703,1.03906 0.80269003,0.80269003 0 0 0 1.03906,0.45703 c 4.77377,-1.85498 7.39633,-6.13087 9.68164,-10.50977 a 0.80269003,0.80269003 0 0 0 -0.33985,-1.08203 z"
         id="path40583" /><g
         id="path40585"
         style="stroke-width:0.5"><path
           style="color:#000000;fill:#000000;stroke-width:0.80269;stroke-linecap:round;stroke-linejoin:round;-inkscape-stroke:none;paint-order:fill markers stroke"
           d="m -728.02044,361.59109 1.83434,102.75338 8.07106,-2.43605 c 6.26725,-33.01614 18.54927,-62.08567 35.96768,-87.785 -1.20135,30.1424 -9.5062,59.0651 -21.04351,87.43281 l 3.94747,-0.38145 c 5.05363,-9.57876 13.1286,-16.8254 19.55219,-24.82847 19.65665,-24.48994 37.65927,-48.09712 42.1735,-95.28374 0.33411,-3.49265 -2.52393,-6.86569 -2.80678,-10.67015 -26.24453,31.27103 -57.06998,32.94264 -87.69595,31.19867 z"
           id="path72463" /><path
           style="color:#000000;fill:#000000;stroke-width:0.5;stroke-linecap:round;stroke-linejoin:round;-inkscape-stroke:none;paint-order:fill markers stroke"
           d="m -640.07812,329.62891 a 0.8027703,0.8027703 0 0 0 -0.86133,0.24804 c -26.0546,31.04472 -56.46881,32.65269 -87.03516,30.91211 a 0.8027703,0.8027703 0 0 0 -0.84766,0.81641 l 1.83399,102.7539 a 0.8027703,0.8027703 0 0 0 1.0332,0.75391 l 8.07227,-2.43555 a 0.8027703,0.8027703 0 0 0 0.55664,-0.61914 c 6.03809,-31.8089 17.71782,-59.89641 34.16211,-84.86718 -1.6231,28.89906 -9.65168,56.72614 -20.76953,84.0625 a 0.8027703,0.8027703 0 0 0 0.82031,1.10156 l 3.94726,-0.38086 a 0.8027703,0.8027703 0 0 0 0.63282,-0.42578 c 4.96692,-9.41441 12.98767,-16.62453 19.46875,-24.69922 19.66449,-24.49972 37.81463,-48.34824 42.3457,-95.71094 0.19005,-1.98668 -0.51244,-3.82342 -1.22656,-5.59375 -0.71413,-1.77032 -1.45022,-3.49252 -1.57813,-5.21289 a 0.8027703,0.8027703 0 0 0 -0.55468,-0.70312 z m -0.69532,2.46093 c 0.33863,1.42921 0.831,2.79324 1.33985,4.05469 0.70208,1.74047 1.26125,3.33583 1.11718,4.8418 -4.49737,47.01045 -22.35123,70.3773 -42,94.85742 -6.27643,7.81973 -14.24255,15.03023 -19.39257,24.56836 l -2.28125,0.22266 c 11.30185,-28.03058 19.45536,-56.64173 20.64453,-86.47852 a 0.8027703,0.8027703 0 0 0 -1.4668,-0.48242 c -17.39202,25.66039 -29.67318,54.68448 -35.98828,87.60351 l -6.60156,1.99219 -1.80078,-100.84375 c 30.0005,1.64183 60.47001,-0.31938 86.42968,-30.33594 z"
           id="path72465" /></g><path
         style="color:#000000;fill:#000000;stroke-width:0.5;stroke-linecap:round;stroke-linejoin:round;-inkscape-stroke:none;paint-order:fill markers stroke"
         d="m -725.40234,463.10352 a 0.80269003,0.80269003 0 0 0 -0.82422,0.77734 c 0,0 -0.0536,1.81315 -0.084,3.82226 -0.0304,2.00912 -0.0545,4.12498 0.0586,5.08008 0.22752,1.92002 1.64648,3.47657 1.64648,3.47657 a 0.8027703,0.8027703 0 0 0 0.61914,0.2832 c 0,0 2.58549,-0.0265 5.1836,-0.10938 1.29905,-0.0415 2.59927,-0.0965 3.59765,-0.17187 0.49919,-0.0377 0.9187,-0.0795 1.25,-0.13281 0.16565,-0.0267 0.30574,-0.0515 0.45899,-0.10157 0.0766,-0.025 0.1567,-0.0526 0.27343,-0.12695 0.11673,-0.0744 0.34893,-0.2315 0.39844,-0.61523 -0.01,0.0754 0.0145,-0.0549 0.0508,-0.19336 0.0363,-0.13848 0.0853,-0.32393 0.12891,-0.53907 0.0872,-0.43026 0.16202,-0.98044 0.0898,-1.58398 -0.0722,-0.60354 -0.31216,-1.27705 -0.8457,-1.81641 -0.53354,-0.53936 -1.32223,-0.91245 -2.36328,-1.06445 -3.81255,-0.55664 -6.44336,0.14453 -6.44336,0.14453 a 0.80269003,0.80269003 0 0 0 -0.56641,0.98438 0.80269003,0.80269003 0 0 0 0.98438,0.5664 c 0,0 2.26818,-0.62009 5.79297,-0.10547 0.79329,0.11583 1.21175,0.35754 1.45507,0.60352 0.24332,0.24598 0.35102,0.52938 0.39258,0.87695 0.0416,0.34758 -0.002,0.7413 -0.0703,1.07617 -0.0241,0.11887 -0.0505,0.21879 -0.0762,0.32032 -0.24646,0.0365 -0.5917,0.0743 -1.03125,0.10742 -0.95244,0.0719 -2.24194,0.12688 -3.5293,0.16797 -2.36267,0.0754 -4.34973,0.0936 -4.72265,0.0976 -0.26703,-0.36452 -0.96405,-1.35476 -1.08008,-2.33398 -0.0702,-0.5931 -0.0771,-2.86993 -0.0469,-4.86523 0.0302,-1.99531 0.082,-3.80079 0.082,-3.80079 a 0.80269003,0.80269003 0 0 0 -0.77929,-0.82421 z"
         id="path40587" /><path
         style="color:#000000;fill:#000000;stroke-width:0.5;stroke-linecap:round;stroke-linejoin:round;-inkscape-stroke:none;paint-order:fill markers stroke"
         d="m -719.25781,461.40234 c -0.23248,-0.0204 -0.48292,0.0793 -0.62305,0.19141 -0.14013,0.11215 -0.2047,0.21945 -0.25195,0.30859 -0.0945,0.17829 -0.12242,0.31199 -0.15039,0.45508 -0.056,0.28619 -0.0771,0.60309 -0.0859,0.98242 -0.0177,0.75866 0.0296,1.73545 0.13281,2.74024 0.10318,1.00478 0.26168,2.03051 0.48438,2.88476 0.11135,0.42713 0.23493,0.80985 0.39843,1.14844 0.16351,0.33859 0.34114,0.67125 0.7793,0.89258 a 0.80269003,0.80269003 0 0 0 1.07813,-0.35547 0.80269003,0.80269003 0 0 0 -0.35352,-1.07812 c 0.13711,0.0693 0.0348,0.0331 -0.0566,-0.15625 -0.0914,-0.18935 -0.19823,-0.49403 -0.29297,-0.85743 -0.18947,-0.72679 -0.34221,-1.6956 -0.43945,-2.64257 -0.0972,-0.94698 -0.14039,-1.87948 -0.125,-2.53711 0.008,-0.32882 0.0335,-0.59666 0.0566,-0.71485 0.0116,-0.0591 0.031,-0.0831 -0.008,-0.01 -0.0194,0.0366 -0.0539,0.1048 -0.16211,0.1914 -0.10821,0.0866 -0.32508,0.17351 -0.52149,0.15625 a 0.80269003,0.80269003 0 0 0 0.8711,-0.72851 0.80269003,0.80269003 0 0 0 -0.73047,-0.8711 z"
         id="path40589" /><path
         style="color:#000000;fill:#000000;stroke-width:0.5;stroke-linecap:round;stroke-linejoin:round;-inkscape-stroke:none;paint-order:fill markers stroke"
         d="m -699.28125,460.50977 a 0.80269003,0.80269003 0 0 0 -0.60742,0.95898 c 0,0 0.54399,2.66162 1.81055,4.42969 0.44618,0.62287 1.14617,1.0576 2.05468,1.5625 0.90852,0.5049 2.01455,1.01447 3.16797,1.47461 2.30685,0.92027 4.70593,1.66499 6.31445,1.64257 0.45026,-0.006 0.66881,0.1182 0.88282,0.34961 0.214,0.23142 0.39165,0.6151 0.49414,1.0586 0.10249,0.4435 0.13169,0.93661 0.11328,1.33398 -0.0139,0.30072 -0.0569,0.42493 -0.0684,0.49805 -0.18916,0.0547 -0.49919,0.11933 -0.89258,0.17773 -0.7987,0.11858 -1.93032,0.21979 -3.22461,0.28711 -2.58857,0.13466 -5.84497,0.1401 -8.58789,-0.0547 -0.81762,-0.0581 -2.05884,-0.20318 -3.06055,-0.41993 -0.50085,-0.10837 -0.94517,-0.23907 -1.21289,-0.35742 -0.087,-0.0384 -0.11342,-0.0602 -0.15429,-0.0859 -0.006,-0.094 -0.0163,-0.20066 -0.0254,-0.46679 -0.0123,-0.36186 -0.0234,-0.84325 -0.0332,-1.40235 -0.0195,-1.1182 -0.034,-2.54664 -0.0391,-3.97656 -0.005,-1.42992 -5.6e-4,-2.86314 0.0137,-3.98437 0.007,-0.56062 0.0167,-1.04356 0.0293,-1.40625 0.0126,-0.3627 0.0442,-0.66623 0.0352,-0.61719 a 0.80269003,0.80269003 0 0 0 -0.64454,-0.93555 0.80269003,0.80269003 0 0 0 -0.93359,0.64453 c -0.0475,0.25816 -0.0473,0.47075 -0.0606,0.85352 -0.0132,0.38277 -0.024,0.87378 -0.0312,1.4414 -0.0144,1.13525 -0.0187,2.57156 -0.0137,4.00782 0.005,1.43626 0.0193,2.87088 0.0391,4 0.01,0.56456 0.0204,1.05295 0.0332,1.42968 0.0128,0.37674 0.0182,0.5906 0.0508,0.8125 0.0536,0.36477 0.26536,0.61615 0.46094,0.78125 0.19558,0.16511 0.40096,0.27488 0.62304,0.37305 0.44416,0.19636 0.96247,0.33761 1.52344,0.45899 1.12193,0.24275 2.40044,0.38818 3.28711,0.45117 2.83347,0.20121 6.12936,0.19479 8.78516,0.0566 1.32789,-0.0691 2.49288,-0.16953 3.37695,-0.30078 0.44203,-0.0656 0.81169,-0.13716 1.12305,-0.22852 0.15567,-0.0457 0.29623,-0.094 0.44336,-0.16992 0.14712,-0.0759 0.33055,-0.15947 0.48828,-0.45898 0.23175,-0.43887 0.24897,-0.80593 0.27343,-1.33399 0.0245,-0.52806 -0.008,-1.14543 -0.15234,-1.76953 -0.14423,-0.6241 -0.39851,-1.26552 -0.88086,-1.78711 -0.48235,-0.52159 -1.22624,-0.87726 -2.08203,-0.86523 -1.00356,0.014 -3.49349,-0.65014 -5.69727,-1.5293 -1.10189,-0.43958 -2.15771,-0.9284 -2.98242,-1.38672 -0.8247,-0.45832 -1.4308,-0.95352 -1.53125,-1.09375 -0.91996,-1.28424 -1.54883,-3.8457 -1.54883,-3.8457 a 0.80269003,0.80269003 0 0 0 -0.95898,-0.60742 z"
         id="path40591" /><path
         id="circle40593"
         style="fill-rule:evenodd;stroke-width:0.80269"
         d="m -707.60409,258.47055 a 0.78733122,0.78733122 0 0 1 -0.78733,0.78733 0.78733122,0.78733122 0 0 1 -0.78733,-0.78733 0.78733122,0.78733122 0 0 1 0.78733,-0.78733 0.78733122,0.78733122 0 0 1 0.78733,0.78733 z" /><path
         id="circle40595"
         style="fill-rule:evenodd;stroke-width:0.80269"
         d="m -704.62864,257.88559 a 0.70302123,0.70302123 0 0 1 -0.70303,0.70302 0.70302123,0.70302123 0 0 1 -0.70302,-0.70302 0.70302123,0.70302123 0 0 1 0.70302,-0.70302 0.70302123,0.70302123 0 0 1 0.70303,0.70302 z" /><path
         id="circle40597"
         style="fill-rule:evenodd;stroke-width:0.80269"
         d="m -700.55323,260.48624 a 0.92741752,0.92741752 0 0 1 -0.92742,0.92741 0.92741752,0.92741752 0 0 1 -0.92742,-0.92741 0.92741752,0.92741752 0 0 1 0.92742,-0.92742 0.92741752,0.92741752 0 0 1 0.92742,0.92742 z" /><path
         id="circle40599"
         style="fill-rule:evenodd;stroke-width:0.80269"
         d="m -697.86824,262.42926 a 0.84440362,0.84440362 0 0 1 -0.84441,0.8444 0.84440362,0.84440362 0 0 1 -0.8444,-0.8444 0.84440362,0.84440362 0 0 1 0.8444,-0.8444 0.84440362,0.84440362 0 0 1 0.84441,0.8444 z" /><path
         id="circle40601"
         style="fill-rule:evenodd;stroke-width:0.80269"
         d="m -697.2949,256.68057 a 0.92482263,0.92482263 0 0 1 -0.92483,0.92483 0.92482263,0.92482263 0 0 1 -0.92482,-0.92483 0.92482263,0.92482263 0 0 1 0.92482,-0.92482 0.92482263,0.92482263 0 0 1 0.92483,0.92482 z" /><path
         id="circle40603"
         style="fill-rule:evenodd;stroke-width:0.80269"
         d="m -696.01865,260.3111 a 0.88979316,0.88979316 0 0 1 -0.8898,0.88979 0.88979316,0.88979316 0 0 1 -0.88979,-0.88979 0.88979316,0.88979316 0 0 1 0.88979,-0.8898 0.88979316,0.88979316 0 0 1 0.8898,0.8898 z" /><path
         id="circle40605"
         style="fill-rule:evenodd;stroke-width:0.80269"
         d="m -694.83312,255.83354 a 0.59406543,0.59406543 0 0 1 -0.59407,0.59407 0.59406543,0.59406543 0 0 1 -0.59406,-0.59407 0.59406543,0.59406543 0 0 1 0.59406,-0.59406 0.59406543,0.59406543 0 0 1 0.59407,0.59406 z" /><path
         id="circle40607"
         style="fill-rule:evenodd;stroke-width:0.80269"
         d="m -694.35318,253.24846 a 0.65762264,0.65762264 0 0 1 -0.65762,0.65762 0.65762264,0.65762264 0 0 1 -0.65763,-0.65762 0.65762264,0.65762264 0 0 1 0.65763,-0.65762 0.65762264,0.65762264 0 0 1 0.65762,0.65762 z" /><path
         id="circle40609"
         style="fill-rule:evenodd;stroke-width:0.80269"
         d="m -692.87198,251.39622 a 0.61092776,0.61092776 0 0 1 -0.61093,0.61093 0.61092776,0.61092776 0 0 1 -0.61093,-0.61093 0.61092776,0.61092776 0 0 1 0.61093,-0.61092 0.61092776,0.61092776 0 0 1 0.61093,0.61092 z" /><path
         id="circle40611"
         style="fill-rule:evenodd;stroke-width:0.80269"
         d="m -700.51949,257.00873 a 1.0921464,1.0921464 0 0 1 -1.09214,1.09214 1.0921464,1.0921464 0 0 1 -1.09215,-1.09214 1.0921464,1.0921464 0 0 1 1.09215,-1.09215 1.0921464,1.0921464 0 0 1 1.09214,1.09215 z" /><path
         id="circle40613"
         style="fill-rule:evenodd;stroke-width:0.80269"
         d="m -703.87891,260.63928 a 0.64465129,0.64465129 0 0 1 -0.64465,0.64465 0.64465129,0.64465129 0 0 1 -0.64465,-0.64465 0.64465129,0.64465129 0 0 1 0.64465,-0.64465 0.64465129,0.64465129 0 0 1 0.64465,0.64465 z" /><path
         style="color:#000000;fill:#000000;stroke-width:0.5;stroke-linecap:round;stroke-linejoin:round;-inkscape-stroke:none;paint-order:fill markers stroke"
         d="m -598.43945,272.22461 a 0.8027703,0.8027703 0 0 0 -0.80078,0.85156 l 0.26367,4.30078 a 0.8027703,0.8027703 0 0 0 0.80078,0.75391 h 14.93945 a 0.8027703,0.8027703 0 0 0 0.80274,-0.80274 v -4.30078 a 0.8027703,0.8027703 0 0 0 -0.80274,-0.80273 z m 0.85351,1.60547 h 13.54688 v 2.69531 h -13.38086 z"
         id="path40615" /><path
         style="color:#000000;fill:#000000;stroke-width:0.5;stroke-linecap:round;stroke-linejoin:round;-inkscape-stroke:none;paint-order:fill markers stroke"
         d="m -597.58008,276.57031 a 0.8027703,0.8027703 0 0 0 -0.85156,0.68946 l -26.67578,193.24609 a 0.8027703,0.8027703 0 0 0 0.4375,0.82812 l 1.57031,0.77735 a 0.8027703,0.8027703 0 0 0 1.15234,-0.60547 L -594.4043,277.6582 a 0.8027703,0.8027703 0 0 0 -0.73632,-0.91406 z m 0.63477,1.6543 0.83203,0.0586 -27.26758,191.89844 -0.0586,-0.0293 z"
         id="path40617" /><path
         style="color:#000000;fill:#000000;stroke-width:0.5;stroke-linecap:round;stroke-linejoin:round;-inkscape-stroke:none;paint-order:fill markers stroke"
         d="m -624.48828,470.04102 c -1.9454,-0.21102 -3.75117,0.34266 -5.67578,0.73828 a 0.8027703,0.8027703 0 0 0 -0.32813,0.15039 c 0,0 -0.85239,0.65509 -1.57031,1.38086 -0.35896,0.36288 -0.69108,0.71145 -0.90625,1.18164 -0.10759,0.23509 -0.22313,0.56019 -0.0703,0.96679 0.15282,0.40661 0.57674,0.63764 0.89453,0.69727 0.46924,0.088 1.20973,0.13077 2.20703,0.17969 0.9973,0.0489 2.19505,0.0891 3.35156,0.12304 2.31302,0.0679 4.45899,0.10547 4.45899,0.10547 a 0.8027703,0.8027703 0 0 0 0.80273,-0.95508 l -0.67187,-3.4746 a 0.8027703,0.8027703 0 0 0 -0.49024,-0.59375 c -0.68934,-0.27463 -1.35348,-0.42967 -2.00195,-0.5 z m -1.79688,1.61328 c 0.94788,-0.10674 1.86109,0.0227 2.81836,0.33203 l 0.37696,1.94922 c -0.66566,-0.0126 -1.66225,-0.0276 -3.44922,-0.0801 -1.15051,-0.0338 -2.34138,-0.075 -3.32031,-0.12305 -0.60198,-0.0295 -0.85014,-0.061 -1.22266,-0.0937 0.0721,-0.0832 0.0782,-0.11442 0.16211,-0.19922 0.55375,-0.5598 1.16284,-1.03268 1.28515,-1.1289 1.24092,-0.26164 2.33393,-0.54188 3.34961,-0.65625 z"
         id="path40619" /><path
         style="color:#000000;fill:#000000;stroke-width:0.5;stroke-linecap:round;stroke-linejoin:round;-inkscape-stroke:none;paint-order:fill markers stroke"
         d="m -782.24219,474.8457 a 0.86052001,0.86052001 0 0 0 -0.86133,0.86133 0.86052001,0.86052001 0 0 0 0.86133,0.85938 h 254.53125 a 0.86052001,0.86052001 0 0 0 0.85938,-0.85938 0.86052001,0.86052001 0 0 0 -0.85938,-0.86133 z"
         id="path40622" /><path
         style="color:#000000;fill:#000000;stroke-width:0.5;stroke-linecap:round;stroke-linejoin:round;-inkscape-stroke:none;paint-order:fill markers stroke"
         d="m -589.9707,276.61914 a 0.8027703,0.8027703 0 0 0 -0.8086,0.85742 l 13.47071,193.46094 -1.64453,0.11133 a 0.8027703,0.8027703 0 0 0 -0.74219,0.90234 l 0.19726,1.53711 a 0.8027703,0.8027703 0 0 0 0.86524,0.69727 l 7.55273,-0.6543 a 0.8027703,0.8027703 0 0 0 0.70508,-1.01563 l -0.30078,-1.07812 a 0.8027703,0.8027703 0 0 0 -0.74609,-0.58789 l -3.53516,-0.11914 -11.84961,-193.33399 a 0.8027703,0.8027703 0 0 0 -0.79297,-0.7539 z m 0.85351,1.61328 0.75391,0.008 5.53125,90.26172 z m 13.25196,193.95703 a 0.8027703,0.8027703 0 0 0 0.12304,0.1211 l 0.10938,0.004 -0.36719,0.0312 a 0.8027703,0.8027703 0 0 0 0.13477,-0.15625 z"
         id="path40624" /><path
         style="color:#000000;fill:#000000;stroke-width:0.5;stroke-linecap:round;stroke-linejoin:round;-inkscape-stroke:none;paint-order:fill markers stroke"
         d="m -584.97852,276.8418 a 0.8027703,0.8027703 0 0 0 -0.81835,0.9082 l 25.32226,192.33789 a 0.8027703,0.8027703 0 0 0 0.82617,0.69727 l 5.48828,-0.20704 a 0.8027703,0.8027703 0 0 0 0.76368,-0.92382 l -29.4375,-192.09571 a 0.8027703,0.8027703 0 0 0 -0.77149,-0.67968 z m 2.3418,12.60547 27.51563,179.55859 -3.85743,0.14648 z"
         id="path40626" /><path
         style="color:#000000;fill:#000000;stroke-width:0.5;stroke-linecap:round;stroke-linejoin:round;-inkscape-stroke:none;paint-order:fill markers stroke"
         d="m -559.96875,469.3125 a 0.8027703,0.8027703 0 0 0 -0.80664,0.75 l -0.19727,3.00977 a 0.8027703,0.8027703 0 0 0 0.8086,0.85546 l 9.47265,-0.0723 a 0.8027703,0.8027703 0 0 0 0.79297,-0.72266 l 0.29102,-2.875 a 0.8027703,0.8027703 0 0 0 -0.79297,-0.88281 z m 0.74805,1.61133 7.92578,0.0508 -0.12891,1.28125 -7.88867,0.0606 z"
         id="path40628" /><path
         style="color:#000000;fill:#000000;stroke-width:0.5;stroke-linecap:round;stroke-linejoin:round;-inkscape-stroke:none;paint-order:fill markers stroke"
         d="m -597.02344,226.39453 c -0.58235,0 -1.07413,0.48218 -1.08398,1.06445 l -0.59961,35.4336 c -0.01,0.59036 0.48377,1.09375 1.07422,1.09375 h 15.15039 c 0.57988,0 1.07016,-0.47893 1.08594,-1.0586 l 0.96484,-35.43359 c 0.0161,-0.59267 -0.47937,-1.09961 -1.07227,-1.09961 z M -596.50977,228 h 14.45704 l -0.93555,34.38086 h -14.10352 z"
         id="path40630" /><path
         style="color:#000000;fill:#000000;stroke-width:0.5;stroke-linecap:round;stroke-linejoin:round;-inkscape-stroke:none;paint-order:fill markers stroke"
         d="m -594.9668,228.84375 c -0.52816,0 -0.97554,0.44066 -0.98437,0.96875 l -0.46485,27.71875 c -0.009,0.53662 0.44183,0.99609 0.97852,0.99609 h 10.73047 c 0.52456,0 0.97016,-0.43272 0.98633,-0.95703 l 0.85351,-27.7207 c 0.0167,-0.54002 -0.43433,-1.00586 -0.97461,-1.00586 z m 0.60938,1.60547 h 9.86719 l -0.81836,26.47265 h -9.49219 z"
         id="path40632" /><path
         style="color:#000000;fill:#000000;stroke-width:0.5;stroke-linecap:round;stroke-linejoin:round;-inkscape-stroke:none;paint-order:fill markers stroke"
         d="m -597.12891,226.62109 -2.73046,0.96875 a 0.8027703,0.8027703 0 0 0 -0.53321,0.75586 l -0.0117,34.26563 a 0.8027703,0.8027703 0 0 0 0.63477,0.78515 l 2.56641,0.54883 a 0.80269003,0.80269003 0 0 0 0.95312,-0.61523 0.80269003,0.80269003 0 0 0 -0.61719,-0.95313 l -1.93164,-0.41406 0.01,-33.04883 2.19726,-0.77929 a 0.80269003,0.80269003 0 0 0 0.48828,-1.02344 0.80269003,0.80269003 0 0 0 -1.02539,-0.49024 z"
         id="path40634" /><path
         style="color:#000000;fill:#000000;stroke-width:0.5;stroke-linecap:round;stroke-linejoin:round;-inkscape-stroke:none;paint-order:fill markers stroke"
         d="m -581.61719,252.67383 a 0.80269003,0.80269003 0 0 0 -0.82617,0.77929 0.80269003,0.80269003 0 0 0 0.7793,0.82618 l 1.19531,0.0351 -0.30469,10.24024 h -21.51367 v -9.97461 h 2.12891 a 0.80269003,0.80269003 0 0 0 0.80273,-0.80274 0.80269003,0.80269003 0 0 0 -0.80273,-0.80273 h -2.76367 c -0.52636,0 -0.97071,0.44435 -0.97071,0.9707 v 11.24414 c 0,0.52635 0.44435,0.97071 0.97071,0.97071 h 22.76171 c 0.5187,0 0.95917,-0.42881 0.97461,-0.94727 l 0.3418,-11.48633 c 0.0157,-0.52623 -0.41517,-0.98259 -0.94141,-0.99804 z"
         id="path40636" /><path
         style="color:#000000;fill:#000000;stroke-width:0.5;stroke-linecap:round;stroke-linejoin:round;-inkscape-stroke:none;paint-order:fill markers stroke"
         d="m -589.9043,264.63281 a 0.80269003,0.80269003 0 0 0 -0.80273,0.80274 v 2.14257 h -1.21094 v -1.94335 a 0.80269003,0.80269003 0 0 0 -0.80273,-0.80274 0.80269003,0.80269003 0 0 0 -0.80274,0.80274 v 2.74609 a 0.8027703,0.8027703 0 0 0 0.80274,0.80273 h 2.8164 a 0.8027703,0.8027703 0 0 0 0.80274,-0.80273 v -2.94531 a 0.80269003,0.80269003 0 0 0 -0.80274,-0.80274 z"
         id="path40638" /><path
         style="color:#000000;fill:#000000;stroke-width:0.5;stroke-linecap:round;stroke-linejoin:round;-inkscape-stroke:none;paint-order:fill markers stroke"
         d="m -591.40039,267.83984 c -2.49332,0.0965 -3.87714,1.27559 -4.43555,2.45118 -0.55841,1.17558 -0.39453,2.31054 -0.39453,2.31054 a 0.80269003,0.80269003 0 0 0 0.90039,0.68946 0.80269003,0.80269003 0 0 0 0.68946,-0.9004 c 0,0 -0.0802,-0.70452 0.25585,-1.4121 0.33611,-0.70759 0.98516,-1.45546 3.04493,-1.53516 2.18161,-0.0844 2.84891,0.70129 3.2207,1.51562 0.37179,0.81434 0.28711,1.69727 0.28711,1.69727 a 0.80269003,0.80269003 0 0 0 0.70508,0.89062 0.80269003,0.80269003 0 0 0 0.89062,-0.70507 c 0,0 0.16534,-1.26462 -0.42187,-2.55078 -0.58722,-1.28617 -2.0885,-2.55386 -4.74219,-2.45118 z"
         id="path40640" /><path
         style="color:#000000;fill:#000000;stroke-width:0.5;stroke-linecap:round;stroke-linejoin:round;-inkscape-stroke:none;paint-order:fill markers stroke"
         d="m -593.31641,231.79297 a 0.80269003,0.80269003 0 0 0 -0.80273,0.80273 0.80269003,0.80269003 0 0 0 0.80273,0.80274 h 3.28321 a 0.80269003,0.80269003 0 0 0 0.80273,-0.80274 0.80269003,0.80269003 0 0 0 -0.80273,-0.80273 z"
         id="path40642" /><path
         style="color:#000000;fill:#000000;stroke-width:0.5;stroke-linecap:round;stroke-linejoin:round;-inkscape-stroke:none;paint-order:fill markers stroke"
         d="m -593.48828,233.96484 a 0.80269003,0.80269003 0 0 0 -0.80274,0.80274 0.80269003,0.80269003 0 0 0 0.80274,0.80273 h 2.18164 a 0.80269003,0.80269003 0 0 0 0.80273,-0.80273 0.80269003,0.80269003 0 0 0 -0.80273,-0.80274 z"
         id="path40644" /><path
         style="color:#000000;fill:#000000;stroke-width:0.5;stroke-linecap:round;stroke-linejoin:round;-inkscape-stroke:none;paint-order:fill markers stroke"
         d="m -587.26367,249.25586 a 0.80269003,0.80269003 0 0 0 -0.80274,0.80273 0.80269003,0.80269003 0 0 0 0.80274,0.80274 h 1.2832 a 0.80269003,0.80269003 0 0 0 0.80274,-0.80274 0.80269003,0.80269003 0 0 0 -0.80274,-0.80273 z"
         id="path40646" /><path
         style="color:#000000;fill:#000000;stroke-width:0.5;stroke-linecap:round;stroke-linejoin:round;-inkscape-stroke:none;paint-order:fill markers stroke"
         d="m -587.26367,251.4043 a 0.80269003,0.80269003 0 0 0 -0.80274,0.80273 0.80269003,0.80269003 0 0 0 0.80274,0.80274 h 1.2832 a 0.80269003,0.80269003 0 0 0 0.80274,-0.80274 0.80269003,0.80269003 0 0 0 -0.80274,-0.80273 z"
         id="path40648" /><path
         style="color:#000000;fill:#000000;stroke-width:0.5;stroke-linecap:round;stroke-linejoin:round;-inkscape-stroke:none;paint-order:fill markers stroke"
         d="m -587.26367,253.7207 a 0.80269003,0.80269003 0 0 0 -0.80274,0.80274 0.80269003,0.80269003 0 0 0 0.80274,0.80273 h 1.2832 a 0.80269003,0.80269003 0 0 0 0.80274,-0.80273 0.80269003,0.80269003 0 0 0 -0.80274,-0.80274 z"
         id="path40650" /><path
         style="color:#000000;fill:#000000;fill-rule:evenodd;stroke-width:0.5;-inkscape-stroke:none"
         d="m -590.48633,236.28711 c -0.63011,0 -1.1254,0.40449 -1.41015,0.85742 -0.28476,0.45294 -0.42579,0.99803 -0.42579,1.58789 0,0.58986 0.14103,1.13496 0.42579,1.58789 0.28475,0.45294 0.78004,0.85742 1.41015,0.85742 0.63011,0 1.1254,-0.40448 1.41016,-0.85742 0.28476,-0.45293 0.42578,-0.99803 0.42578,-1.58789 0,-0.58986 -0.14102,-1.13495 -0.42578,-1.58789 -0.28476,-0.45293 -0.78005,-0.85742 -1.41016,-0.85742 z m 0,1.60547 c -0.0599,0 -0.0381,-0.036 0.0508,0.10547 0.0889,0.14143 0.17969,0.41725 0.17969,0.73437 0,0.31713 -0.0908,0.59294 -0.17969,0.73438 -0.0889,0.14143 -0.11067,0.10547 -0.0508,0.10547 0.0599,0 0.0381,0.036 -0.0508,-0.10547 -0.0889,-0.14144 -0.17969,-0.41725 -0.17969,-0.73438 0,-0.31712 0.0908,-0.59294 0.17969,-0.73437 0.0889,-0.14144 0.11068,-0.10547 0.0508,-0.10547 z"
         id="ellipse40652" /><path
         style="color:#000000;fill:#000000;stroke-width:0.5;stroke-linecap:round;stroke-linejoin:round;-inkscape-stroke:none;paint-order:fill markers stroke"
         d="m -586.19531,232.94336 a 0.80269003,0.80269003 0 0 0 -0.99805,0.54101 l -2.35742,7.9629 -1.95313,-0.1836 a 0.8027703,0.8027703 0 0 0 -0.875,0.73047 l -0.66015,7.60938 a 0.8027703,0.8027703 0 0 0 0.80078,0.87109 l 2.36719,-0.008 a 0.8027703,0.8027703 0 0 0 0.77734,-0.61719 c 0,0 0.19497,-0.821 0.38281,-1.67188 0.0939,-0.42543 0.18679,-0.85844 0.25391,-1.20898 0.0336,-0.17527 0.0592,-0.32812 0.0781,-0.46094 0.009,-0.0664 0.0187,-0.12607 0.0234,-0.19336 0.005,-0.0673 0.0355,-0.0961 -0.0273,-0.33593 0.0209,0.0798 -0.0583,-0.27973 -0.13281,-0.6504 -0.0746,-0.37066 -0.16908,-0.8457 -0.26172,-1.31445 -0.0961,-0.48648 -0.11907,-0.61044 -0.1875,-0.95898 a 0.8027703,0.8027703 0 0 0 0.76562,-0.51953 l 2.54492,-8.59375 a 0.80269003,0.80269003 0 0 0 -0.54101,-0.99805 z m -4.6543,9.99609 0.22852,0.0195 c 0.0603,0.30757 0.13244,0.67357 0.26953,1.36719 0.0928,0.46969 0.18647,0.94629 0.26172,1.32031 0.0617,0.30696 0.0903,0.45026 0.12695,0.60743 -10e-4,0.0116 -0.002,0.0124 -0.004,0.0273 -0.0124,0.0874 -0.0375,0.2254 -0.0684,0.38672 -0.0618,0.32264 -0.15193,0.74639 -0.24414,1.16406 -0.11551,0.52322 -0.16384,0.72025 -0.23632,1.03125 l -0.84961,0.004 z"
         id="path40654" /><path
         style="color:#000000;fill:#000000;stroke-width:0.5;stroke-linecap:round;stroke-linejoin:round;-inkscape-stroke:none;paint-order:fill markers stroke"
         d="m -592.42383,241.5293 -1.66797,1.43164 a 0.8027703,0.8027703 0 0 0 -0.27343,0.51172 l -0.37891,3.07031 a 0.80269003,0.80269003 0 0 0 0.69922,0.89648 0.80269003,0.80269003 0 0 0 0.89453,-0.69922 l 0.33984,-2.76367 1.4336,-1.22851 a 0.80269003,0.80269003 0 0 0 0.0859,-1.13282 0.80269003,0.80269003 0 0 0 -1.13281,-0.0859 z"
         id="path40656" /><path
         style="color:#000000;fill:#000000;stroke-width:0.5;stroke-linecap:round;stroke-linejoin:round;-inkscape-stroke:none;paint-order:fill markers stroke"
         d="m -592.11328,249.39648 a 0.80269003,0.80269003 0 0 0 -0.92578,0.65821 l -0.91602,5.41601 a 0.80269003,0.80269003 0 0 0 0.65821,0.92578 0.80269003,0.80269003 0 0 0 0.92382,-0.6582 l 0.91602,-5.41601 a 0.80269003,0.80269003 0 0 0 -0.65625,-0.92579 z"
         id="path40658" /><path
         style="color:#000000;fill:#000000;stroke-width:0.5;stroke-linecap:round;stroke-linejoin:round;-inkscape-stroke:none;paint-order:fill markers stroke"
         d="m -590.26367,249.18555 a 0.80269003,0.80269003 0 0 0 -0.84766,0.7539 l -0.30273,5.13867 a 0.80269003,0.80269003 0 0 0 0.7539,0.84766 0.80269003,0.80269003 0 0 0 0.84766,-0.75391 l 0.30273,-5.13867 a 0.80269003,0.80269003 0 0 0 -0.7539,-0.84765 z"
         id="path40660" /><path
         style="color:#000000;fill:#000000;fill-rule:evenodd;stroke-width:0.5;-inkscape-stroke:none"
         d="m -590.07031,258.2207 c -1.23314,0 -2.25,1.01687 -2.25,2.25 10e-6,1.23313 1.01687,2.25 2.25,2.25 1.23312,0 2.24999,-1.01688 2.25,-2.25 0,-1.23312 -1.01688,-2.24999 -2.25,-2.25 z m 0,1.60547 c 0.36552,0 0.64453,0.27901 0.64453,0.64453 0,0.36552 -0.27902,0.64453 -0.64453,0.64453 -0.36552,0 -0.64453,-0.27901 -0.64453,-0.64453 0,-0.36552 0.27901,-0.64453 0.64453,-0.64453 z"
         id="circle40662" /></g></g></svg>
