<?xml version="1.0" encoding="UTF-8" standalone="no"?>
<!-- Created with Inkscape (http://www.inkscape.org/) -->

<svg
   width="820.98822mm"
   height="787.7204mm"
   viewBox="0 0 820.98824 787.7204"
   version="1.1"
   id="svg5"
   xml:space="preserve"
   xmlns="http://www.w3.org/2000/svg"
   xmlns:svg="http://www.w3.org/2000/svg"><defs
     id="defs2" /><g
     id="layer1"
     transform="translate(-197.53778,-88.124183)"><g
       id="notion-using-computer-in-the-cafe-content-creator"
       transform="matrix(2,0,0,2,4419.9128,-88.124184)"
       style="stroke-width:0.5"><title
         id="title81847">using-computer-in-the-cafe-content-creator</title><path
         style="fill:#000000;stroke-width:1.05833;stroke-linecap:round;stroke-linejoin:round;paint-order:fill markers stroke"
         d="m -2031.9149,138.71282 c -2.6765,0.39652 -7.0107,-19.98419 3.3246,-26.55588 9.7217,-6.18149 11.6463,-2.54477 11.6463,-2.54477 0,0 -2.9039,-14.909471 11.6975,-19.332029 10.8326,-3.281007 11.5848,4.802222 11.7797,4.135247 0.195,-0.666975 8.3929,-8.02594 16.1407,-5.910429 11.6873,3.191222 8.9168,12.713581 8.9168,12.713581 0,0 9.7544,-4.362586 14.5707,4.29942 6.7723,12.17999 -0.6054,16.90014 -0.6054,16.90014 0,0 4.2046,-0.36447 5.1305,10.70239 0.7021,8.39196 -8.4448,17.95705 -11.359,18.75741 -2.9141,0.80036 -2.3492,-2.7661 -2.7096,-4.47114 -1.2485,-5.90687 -3.3444,-9.09412 -3.3444,-9.09412 0,0 -11.5539,-3.5914 -15.0735,-8.41415 -3.5195,-4.82275 -3.3964,-3.61193 -3.3964,-3.61193 0,0 -0.2975,10.05593 -9.3067,16.52047 -9.0092,6.46453 -10.9383,8.32179 -10.9383,8.32179 l 4.4122,10.12777 c 0,0 -1.3363,1.27717 -1.727,0.42467 -2.4974,-5.44971 -4.8066,-6.39867 -6.0201,-6.81736 0,0 -3.7452,0.1847 -3.4784,2.23693 0.2667,2.05223 1.1595,4.57648 1.1595,4.57648 0,0 -9.1472,5.78637 -18.8496,-0.54384 -4.1605,-2.71444 -8.2704,-11.77982 -6.0848,-16.32551 2.1856,-4.5457 4.1147,-6.09514 4.1147,-6.09514 z"
         id="path40908" /><path
         style="color:#000000;fill:#000000;stroke-width:0.5;stroke-linecap:round;stroke-linejoin:round;-inkscape-stroke:none;paint-order:fill markers stroke"
         d="m -1961.4766,150.28711 a 1.0583349,1.0583349 0 0 0 -0.9414,1.16406 c 1.3506,12.81134 -4.2575,22.48633 -11.7812,25.94336 -3.7619,1.72851 -8.0024,1.94347 -12.2735,0.21875 -4.271,-1.72472 -8.59,-5.42283 -12.3242,-11.63867 -0.5185,-0.86316 -1.3393,-1.40058 -2.1699,-1.64063 -0.8305,-0.24005 -1.6759,-0.22587 -2.4512,-0.0859 -0.7493,0.13524 -1.2733,0.53997 -1.5566,0.76172 -0.2833,0.22174 -0.3533,0.30022 -0.7559,0.375 0,4e-4 -0.5406,-0.0393 -1.1601,-0.29883 -0.6196,-0.25955 -1.3589,-0.6804 -2.0489,-1.18555 -1.3798,-1.01029 -2.4531,-2.43417 -2.5156,-3.17969 a 1.0583349,1.0583349 0 0 0 -1.1426,-0.96679 1.0583349,1.0583349 0 0 0 -0.9668,1.14257 c 0.1658,1.97742 1.7435,3.51637 3.375,4.71094 0.8158,0.59729 1.6716,1.09082 2.4805,1.42969 0.8089,0.33887 1.5316,0.58259 2.3652,0.42773 0.7995,-0.14849 1.3636,-0.54427 1.6739,-0.78711 0.3103,-0.24283 0.339,-0.29373 0.6269,-0.3457 0.5244,-0.0947 1.0675,-0.0865 1.4883,0.0352 0.4208,0.12162 0.7138,0.31512 0.9434,0.69726 3.9145,6.51612 8.5602,10.57924 13.3457,12.51172 4.7855,1.93248 9.6933,1.69859 13.9511,-0.25781 8.5157,-3.91281 14.4284,-14.55864 13.002,-28.08984 a 1.0583349,1.0583349 0 0 0 -1.1641,-0.94141 z"
         id="path40910" /><path
         style="color:#000000;fill:#000000;stroke-width:0.5;stroke-linecap:round;stroke-linejoin:round;-inkscape-stroke:none;paint-order:fill markers stroke"
         d="m -1986.5703,145.83984 a 1.0583349,1.0583349 0 0 0 -0.6914,1.32813 c 0.6946,2.19662 0.705,3.88144 0.3887,4.99219 -0.3164,1.11074 -0.8879,1.64249 -1.5528,1.84765 -0.6648,0.20516 -1.5403,0.083 -2.5117,-0.60937 -0.9714,-0.69234 -1.9975,-1.96017 -2.7695,-3.90625 a 1.0583349,1.0583349 0 0 0 -1.3731,-0.59375 1.0583349,1.0583349 0 0 0 -0.5937,1.37304 c 0.8912,2.24642 2.1228,3.86452 3.5078,4.85157 1.3849,0.98705 2.9645,1.33786 4.3633,0.90625 1.3987,-0.43162 2.4981,-1.64576 2.9668,-3.29102 0.4686,-1.64526 0.3785,-3.72731 -0.4063,-6.20898 a 1.0583349,1.0583349 0 0 0 -1.3281,-0.68946 z"
         id="path40912" /><path
         style="color:#000000;fill:#000000;stroke-width:0.5;stroke-linecap:round;stroke-linejoin:round;-inkscape-stroke:none;paint-order:fill markers stroke"
         d="m -1967.2773,143.625 a 1.0583349,1.0583349 0 0 0 -0.8965,1.19922 c 0.3533,2.43024 0.1399,4.13243 -0.2637,5.11328 -0.4036,0.98085 -0.8509,1.20452 -1.2773,1.2168 -0.4265,0.0123 -1.086,-0.28185 -1.711,-1.16993 -0.6249,-0.88807 -1.1629,-2.32187 -1.291,-4.26367 a 1.0583349,1.0583349 0 0 0 -1.125,-0.98633 1.0583349,1.0583349 0 0 0 -0.9863,1.125 c 0.1488,2.2562 0.7665,4.05718 1.6718,5.34375 0.9054,1.28658 2.1504,2.10534 3.502,2.06641 1.3516,-0.0389 2.5571,-1.02859 3.1738,-2.52734 0.6167,-1.49876 0.7921,-3.54237 0.4024,-6.22266 a 1.0583349,1.0583349 0 0 0 -1.1992,-0.89453 z"
         id="path40914" /><path
         style="color:#000000;fill:#000000;stroke-width:0.5;stroke-linecap:round;stroke-linejoin:round;-inkscape-stroke:none;paint-order:fill markers stroke"
         d="m -1979.791,146.07227 a 1.0583349,1.0583349 0 0 0 -0.8731,1.21484 c 0.4702,2.88434 0.772,6.02305 1.8399,8.66211 1.0679,2.63906 3.1482,4.81103 6.6328,5.12305 a 1.0583349,1.0583349 0 0 0 1.1504,-0.95899 1.0583349,1.0583349 0 0 0 -0.961,-1.15039 c -2.764,-0.24749 -3.9679,-1.59874 -4.8613,-3.80664 -0.8934,-2.2079 -1.2288,-5.23933 -1.7129,-8.20898 a 1.0583349,1.0583349 0 0 0 -1.2148,-0.875 z"
         id="path40916" /><path
         style="color:#000000;fill:#000000;stroke-width:0.5;stroke-linecap:round;stroke-linejoin:round;-inkscape-stroke:none;paint-order:fill markers stroke"
         d="m -1990.5664,136.51758 c -0.9035,7.3e-4 -1.6939,0.14723 -2.3926,0.40429 -1.3973,0.51413 -2.3547,1.41056 -3.1992,2.16602 a 1.0583349,1.0583349 0 0 0 -0.082,1.49414 1.0583349,1.0583349 0 0 0 1.4941,0.082 c 0.8571,-0.76676 1.5817,-1.4115 2.5176,-1.75586 0.9359,-0.34435 2.1547,-0.44906 4.1582,0.11524 a 1.0583349,1.0583349 0 0 0 1.3066,-0.73242 1.0583349,1.0583349 0 0 0 -0.7324,-1.30469 c -1.1502,-0.32395 -2.1668,-0.46948 -3.0703,-0.46875 z"
         id="path40918" /><path
         style="color:#000000;fill:#000000;stroke-width:0.5;stroke-linecap:round;stroke-linejoin:round;-inkscape-stroke:none;paint-order:fill markers stroke"
         d="m -1975.8516,133.77734 c -1.1625,0.2125 -2.3074,0.69783 -3.3554,1.46289 a 1.0583349,1.0583349 0 0 0 -0.2305,1.48047 1.0583349,1.0583349 0 0 0 1.4785,0.23047 c 1.6115,-1.1764 3.3601,-1.43885 4.9746,-0.9668 1.6145,0.47206 3.1139,1.70546 4.086,3.71485 a 1.0583349,1.0583349 0 0 0 1.414,0.49023 1.0583349,1.0583349 0 0 0 0.4903,-1.41211 c -1.1996,-2.47949 -3.1624,-4.171 -5.3965,-4.82422 -1.1171,-0.3266 -2.2984,-0.38827 -3.461,-0.17578 z"
         id="path40920" /><path
         style="color:#000000;fill:#000000;stroke-width:0.5;stroke-linecap:round;stroke-linejoin:round;-inkscape-stroke:none;paint-order:fill markers stroke"
         d="m -1973.0723,164.89453 a 1.0583349,1.0583349 0 0 0 -1.0332,1.08399 c 0.029,1.17862 -0.3263,1.97269 -0.8886,2.57421 -0.5624,0.60153 -1.3754,1.00377 -2.2754,1.16602 -1.8002,0.32451 -3.7484,-0.37528 -4.4082,-1.69336 a 1.0583349,1.0583349 0 0 0 -1.42,-0.47266 1.0583349,1.0583349 0 0 0 -0.4726,1.42188 c 1.2103,2.41772 4.1201,3.28882 6.6758,2.82812 1.2778,-0.23034 2.517,-0.80972 3.4453,-1.80273 0.9283,-0.99301 1.5014,-2.40662 1.4609,-4.07227 a 1.0583349,1.0583349 0 0 0 -1.084,-1.0332 z"
         id="path40922" /><path
         style="color:#000000;fill:#000000;stroke-width:0.5;stroke-linecap:round;stroke-linejoin:round;-inkscape-stroke:none;paint-order:fill markers stroke"
         d="m -1970.7305,176.28711 a 1.0583349,1.0583349 0 0 0 -1.3047,0.73633 c -1.4775,5.30677 -1.9393,9.5621 -1.4707,12.98047 0.4687,3.41837 1.9275,6.01449 4.1739,7.71484 a 1.0583349,1.0583349 0 0 0 1.4824,-0.20508 1.0583349,1.0583349 0 0 0 -0.2051,-1.48242 c -1.7879,-1.35327 -2.9432,-3.32166 -3.3535,-6.31445 -0.4103,-2.99279 -0.017,-6.99456 1.4121,-12.12696 a 1.0583349,1.0583349 0 0 0 -0.7344,-1.30273 z"
         id="path40924" /><path
         style="color:#000000;fill:#000000;stroke-width:0.5;stroke-linecap:round;stroke-linejoin:round;-inkscape-stroke:none;paint-order:fill markers stroke"
         d="m -1968.6875,181.33594 a 1.0584408,1.0584408 0 0 0 -0.6563,1.27343 c 0.9379,3.40012 2.5738,8.19144 3.0997,12.20313 0.2629,2.00585 0.228,3.79981 -0.1954,5.03711 -0.4234,1.2373 -1.0713,1.94299 -2.5136,2.24805 -4.1606,0.87998 -8.891,-0.61847 -13.5938,-4.14844 -4.7027,-3.52998 -9.3171,-9.06325 -13.125,-15.97266 a 1.0584408,1.0584408 0 0 0 -1.9511,0.77344 c 4.2818,16.66242 10.9924,25.75014 17.7363,29.5625 6.7438,3.81236 13.5607,2.12715 17.1191,-2.60742 2.4667,-3.28191 2.8739,-7.05894 1.8633,-11.48633 -1.0106,-4.42739 -3.3541,-9.62795 -6.459,-16.33594 a 1.0584408,1.0584408 0 0 0 -1.3242,-0.54687 z m -24.3652,8.59375 c 2.8755,3.93328 5.9875,7.27383 9.2343,9.71093 5.0182,3.76676 10.3537,5.57411 15.3028,4.52735 2.0822,-0.4404 3.4757,-1.87243 4.0781,-3.63281 0.5278,-1.54237 0.5266,-3.33833 0.3379,-5.2168 0.3755,1.11645 0.9079,2.38579 1.1328,3.37109 0.9309,4.07847 0.591,6.96987 -1.4941,9.74414 -2.9415,3.91379 -8.3787,5.43132 -14.3829,2.03711 -4.9354,-2.79006 -10.1519,-9.3347 -14.2089,-20.54101 z"
         id="path40926" /><path
         style="color:#000000;fill:#000000;stroke-width:0.5;stroke-linecap:round;stroke-linejoin:round;-inkscape-stroke:none;paint-order:fill markers stroke"
         d="m -1964.4238,188.47852 a 1.0583349,1.0583349 0 0 0 -0.6582,0.47265 1.0583349,1.0583349 0 0 0 0.3398,1.45703 c 7.9277,4.93265 12.2805,10.43318 14.918,16.29102 a 1.0583349,1.0583349 0 0 0 1.4004,0.5293 1.0583349,1.0583349 0 0 0 0.5293,-1.39844 c -2.7943,-6.20605 -7.4934,-12.0948 -15.7285,-17.21875 a 1.0583349,1.0583349 0 0 0 -0.8008,-0.13281 z"
         id="path40928" /><path
         style="color:#000000;fill:#000000;stroke-width:0.5;stroke-linecap:round;stroke-linejoin:round;-inkscape-stroke:none;paint-order:fill markers stroke"
         d="m -1953.6758,205.23828 a 1.0583349,1.0583349 0 0 0 -1.2871,0.76367 c 0,0 -0.2321,0.90521 -0.3633,2.05078 -0.1311,1.14558 -0.2201,2.54274 0.2813,3.79883 0.2968,0.74348 0.8728,1.21948 1.3847,1.5293 0.512,0.30982 0.999,0.50281 1.336,0.68359 0.3369,0.18079 0.4639,0.31873 0.4902,0.37305 0.026,0.0543 0.092,0.18223 -0.1211,0.72656 -0.4863,1.23959 -1.7226,3.30262 -2.7207,5.39258 -0.9981,2.08996 -1.9215,4.25851 -1.209,6.26172 a 1.0584408,1.0584408 0 0 0 0.1,0.20703 l 2.25,3.58594 a 1.0583349,1.0583349 0 0 0 1.459,0.33398 1.0583349,1.0583349 0 0 0 0.334,-1.45898 l -2.1465,-3.41992 c -0.2683,-0.82649 0.2,-2.66474 1.1231,-4.59766 0.9337,-1.9551 2.1574,-3.9411 2.7812,-5.53125 0.3415,-0.87053 0.3894,-1.73044 0.055,-2.42188 -0.3347,-0.69143 -0.9116,-1.05731 -1.3945,-1.3164 -0.4829,-0.25909 -0.9305,-0.44344 -1.2403,-0.63086 -0.3097,-0.18742 -0.444,-0.32758 -0.5136,-0.50195 -0.2314,-0.57961 -0.2583,-1.78039 -0.1446,-2.77344 0.1137,-0.99305 0.3106,-1.76758 0.3106,-1.76758 a 1.0583349,1.0583349 0 0 0 -0.7637,-1.28711 z"
         id="path40930" /><path
         style="color:#000000;fill:#000000;stroke-width:0.5;stroke-linecap:round;stroke-linejoin:round;-inkscape-stroke:none;paint-order:fill markers stroke"
         d="m -1945.1445,207.51367 a 1.0583349,1.0583349 0 0 0 -1.0137,1.10156 c -0.012,-0.28439 -0.032,0.0952 -0.1211,0.44922 -0.089,0.35398 -0.2053,0.82518 -0.2852,1.35352 -0.1598,1.05667 -0.2059,2.43247 0.6446,3.60156 0.5641,0.77519 0.8124,1.21523 0.8418,1.79492 0.029,0.5797 -0.1922,1.49209 -1.0157,3.05274 -0.8764,1.66071 -1.5312,3.03676 -1.8691,4.29883 -0.3379,1.26207 -0.3377,2.50095 0.2578,3.55078 0.8741,1.54062 1.9258,3.21289 1.9258,3.21289 a 1.0583349,1.0583349 0 0 0 1.459,0.33203 1.0583349,1.0583349 0 0 0 0.334,-1.45899 c 0,0 -1.0386,-1.65113 -1.877,-3.1289 -0.2606,-0.45937 -0.3117,-1.00094 -0.055,-1.96094 0.2571,-0.95999 0.8448,-2.24775 1.6953,-3.85937 0.9031,-1.71169 1.3194,-2.96848 1.2598,-4.14649 -0.06,-1.17801 -0.6275,-2.08351 -1.2461,-2.93359 -0.3319,-0.45619 -0.385,-1.22376 -0.2617,-2.03907 0.062,-0.40765 0.159,-0.80718 0.2461,-1.15429 0.087,-0.34711 0.2043,-0.49988 0.1816,-1.05274 a 1.0583349,1.0583349 0 0 0 -1.1015,-1.01367 z"
         id="path40932" /><path
         style="color:#000000;fill:#000000;stroke-width:0.5;stroke-linecap:round;stroke-linejoin:round;-inkscape-stroke:none;paint-order:fill markers stroke"
         d="m -1939.2012,212.91406 a 1.0583349,1.0583349 0 0 0 -0.5195,1.40235 c 0.4906,1.06741 1.0611,2.00738 1.3672,2.86523 0.3061,0.85785 0.3926,1.56106 0.023,2.45898 -0.6942,1.68826 -1.1804,2.16857 -1.6269,2.6875 -0.2233,0.25947 -0.4997,0.58622 -0.6504,1.0625 -0.1507,0.47629 -0.138,0.98118 -0.045,1.5586 0.2052,1.27347 0.8658,2.42483 1.4531,3.32226 0.5873,0.89744 1.1406,1.53907 1.1406,1.53907 a 1.0583349,1.0583349 0 0 0 1.4922,0.11132 1.0583349,1.0583349 0 0 0 0.1113,-1.49414 c 0,0 -0.4643,-0.53763 -0.9726,-1.31445 -0.5084,-0.77682 -1.0208,-1.79461 -1.1348,-2.50195 -0.067,-0.41299 -0.039,-0.54675 -0.027,-0.58203 0.011,-0.0353 0.043,-0.0929 0.2382,-0.32032 0.3914,-0.45484 1.1924,-1.35186 1.9786,-3.26367 0.5884,-1.43116 0.424,-2.82639 0.014,-3.97656 -0.4104,-1.15017 -1.021,-2.12901 -1.4375,-3.03516 a 1.0583349,1.0583349 0 0 0 -1.4043,-0.51953 z"
         id="path40934" /><path
         style="color:#000000;fill:#000000;stroke-width:0.5;stroke-linecap:round;stroke-linejoin:round;-inkscape-stroke:none;paint-order:fill markers stroke"
         d="m -1995.1816,189.64648 c -14.541,6.80551 -22.5724,15.89771 -27.5567,25.90039 -4.9843,10.00269 -6.9719,20.87146 -9.6621,31.375 a 1.0583349,1.0583349 0 0 0 0.7617,1.28907 1.0583349,1.0583349 0 0 0 1.2891,-0.76367 c 2.7143,-10.59807 4.6954,-21.30331 9.5058,-30.95704 4.8105,-9.65372 12.3987,-18.29857 26.5586,-24.92578 a 1.0583349,1.0583349 0 0 0 0.5098,-1.4082 1.0583349,1.0583349 0 0 0 -1.4062,-0.50977 z"
         id="path40936" /><path
         style="color:#000000;fill:#000000;stroke-width:0.5;stroke-linecap:round;stroke-linejoin:round;-inkscape-stroke:none;paint-order:fill markers stroke"
         d="m -1962.7285,225.94336 c -0.5515,0 -1.0231,0.36603 -1.2403,0.62891 -0.2171,0.26288 -0.3374,0.48462 -0.4843,0.70312 -0.294,0.437 -0.6273,0.87649 -1.4375,1.30469 -1.8627,0.98442 -3.2768,1.38496 -5.5918,0.70898 -1.5171,-0.443 -2.7548,-0.18157 -3.541,0.26953 -0.7863,0.45111 -1.1836,1.125 -1.1836,1.125 a 1.0584408,1.0584408 0 0 0 -0.041,0.0801 c 0,0 -0.7502,1.61364 -1.7012,3.39844 -0.4755,0.8924 -1.001,1.82596 -1.4961,2.60351 -0.4951,0.77756 -0.9996,1.41354 -1.2324,1.61329 -0.5572,0.47802 -2.7527,1.66713 -4.9219,2.55859 -1.0846,0.44573 -2.1855,0.84336 -3.127,1.11523 -0.9414,0.27188 -1.7634,0.39714 -2.0605,0.38086 -1.0631,-0.0582 -7.7864,-0.52403 -14.832,-0.64648 -3.5229,-0.0612 -7.138,-0.0369 -10.2207,0.16797 -3.0828,0.20483 -5.5693,0.51529 -7.1836,1.34375 -2.6233,1.34623 -4.3021,2.70528 -5.334,3.7539 -1.0319,1.04863 -1.4629,1.87891 -1.4629,1.87891 a 1.0584408,1.0584408 0 0 0 -0.051,0.12109 c -1.2013,3.44107 -0.7517,8.35049 0.3516,11.4668 0.6646,1.87735 2.7036,2.89171 5.2988,3.66992 2.5952,0.77822 5.8948,1.22611 9.4512,1.28907 7.1128,0.12591 15.2431,-1.24557 20.5215,-5.13868 4.9605,-3.6587 7.2288,-5.53234 8.5683,-6.57226 1.3395,-1.03992 1.6076,-1.18971 3.041,-1.6836 1.0406,-0.35854 2.6566,-0.0347 4.7481,0.61914 2.0914,0.65384 4.6039,1.56065 7.4804,1.91407 3.5044,0.43054 7.2514,-2.07323 8.2071,-6.94141 0.3516,-1.79092 0.3066,-3.08481 0.1699,-4.01953 0.4177,0.0397 0.463,0.11623 0.9766,0.0781 0.6856,-0.0509 1.4388,-0.19537 2.125,-0.64062 0.6861,-0.44525 1.2431,-1.26778 1.3398,-2.25977 0.1486,-1.52428 0.1163,-3.02111 -0.6406,-4.25586 -0.6875,-1.12145 -2.0989,-1.66946 -3.7949,-1.59765 0.2152,-0.29434 0.4431,-0.57975 0.5683,-0.94922 0.571,-1.68393 0.6728,-3.46769 0.5527,-4.89648 -0.06,-0.7144 -0.1709,-1.3338 -0.3515,-1.85547 -0.09,-0.26084 -0.1925,-0.49843 -0.375,-0.74414 -0.1826,-0.24571 -0.53,-0.5918 -1.0957,-0.5918 z m -0.375,2.88281 c 0.029,0.18054 0.07,0.27341 0.088,0.48438 0.098,1.16728 0,2.72869 -0.4492,4.04101 -0.1543,0.45493 -0.4736,0.78953 -1.0118,1.09766 -0.5381,0.30813 -1.2709,0.54336 -2.0214,0.71289 -0.7506,0.16953 -1.5105,0.27814 -2.1563,0.40039 -0.3229,0.0611 -0.6139,0.1207 -0.9062,0.22266 -0.2924,0.10195 -0.6909,0.18807 -0.9766,0.7832 -0.094,0.19617 -0.1975,0.54147 -0.061,0.92969 0.137,0.38821 0.4697,0.61691 0.6836,0.70312 0.4278,0.17243 0.6438,0.12084 0.9043,0.10156 0.5211,-0.0385 1.1214,-0.16333 1.8457,-0.31836 1.4487,-0.31005 3.3198,-0.75578 4.9239,-0.95507 1.4481,-0.17992 1.8769,0.12095 2.205,0.65625 0.3282,0.5353 0.4644,1.62531 0.336,2.94336 -0.042,0.42918 -0.1503,0.53731 -0.3848,0.68945 -0.2344,0.15214 -0.6563,0.26962 -1.1289,0.30469 -0.9451,0.0701 -1.957,-0.15625 -1.957,-0.15625 a 1.0584408,1.0584408 0 0 0 -1.1602,1.5625 c 0,0 0.1045,0.13495 0.2129,0.81054 0.1084,0.6756 0.1578,1.78839 -0.1641,3.42774 -0.7887,4.018 -3.4982,5.54153 -5.871,5.25 -2.5858,-0.3177 -4.9488,-1.15977 -7.1055,-1.83399 -2.1567,-0.67421 -4.1596,-1.25798 -6.0703,-0.59961 -1.518,0.52304 -2.2524,0.92785 -3.6485,2.01172 -1.396,1.08387 -3.5982,2.90404 -8.5293,6.54102 -4.6133,3.40258 -12.4279,4.84692 -19.2265,4.72656 -3.3993,-0.0602 -6.5485,-0.50178 -8.8809,-1.20117 -2.3323,-0.69939 -3.6994,-1.74889 -3.9121,-2.34961 -0.9007,-2.54424 -1.2433,-7.37076 -0.3535,-9.99609 0.017,-0.0358 0.1962,-0.43275 1.0293,-1.2793 0.869,-0.88304 2.3575,-2.10563 4.793,-3.35547 0.915,-0.46956 3.3739,-0.917 6.3574,-1.11523 2.9835,-0.19824 6.5549,-0.22273 10.0429,-0.16211 6.9761,0.12124 13.5698,0.57769 14.754,0.64257 0.8264,0.0453 1.7166,-0.15719 2.7617,-0.45898 1.045,-0.30179 2.2049,-0.72261 3.3457,-1.19141 2.2815,-0.93759 4.3909,-1.96383 5.4961,-2.91211 0.5983,-0.5134 1.0967,-1.23094 1.6386,-2.08203 0.542,-0.85108 1.0885,-1.8216 1.5801,-2.74414 0.9606,-1.8027 1.6767,-3.35014 1.711,-3.42383 v -0.002 c 8e-4,-0.002 0.073,-0.15122 0.3984,-0.33789 0.3271,-0.18765 0.8445,-0.37832 1.8926,-0.0723 2.8156,0.82214 5.0757,0.23776 7.1739,-0.8711 0.9536,-0.50401 1.4005,-1.10454 1.7988,-1.625 z"
         id="path40938" /><path
         style="color:#000000;fill:#000000;stroke-width:0.5;stroke-linecap:round;stroke-linejoin:round;-inkscape-stroke:none;paint-order:fill markers stroke"
         d="m -1955.0195,232.33008 a 1.0584408,1.0584408 0 0 0 -1.0606,1.05859 c -0.1262,2.81096 -0.5431,6.35376 0.2403,9.72656 0.7873,3.38981 2.9623,6.60707 7.6074,8.27344 a 1.0584408,1.0584408 0 0 0 0.3594,0.0625 l 5.9453,-0.004 a 1.0584408,1.0584408 0 0 0 0.4062,-0.082 c 5.9801,-2.48728 8.7257,-10.06412 6.9805,-18.16992 a 1.0584408,1.0584408 0 0 0 -1.0332,-0.83594 z m 1.0097,2.11914 17.4688,0.0234 c 1.2097,6.96213 -1.184,12.89583 -5.6797,14.85742 l -5.4258,0.004 c -3.9519,-1.46314 -5.4672,-3.84006 -6.1308,-6.69726 -0.5982,-2.57536 -0.3784,-5.49946 -0.2325,-8.1875 z"
         id="path40940" /><path
         style="color:#000000;opacity:0.98;fill:#000000;stroke-width:0.5;stroke-linecap:round;stroke-linejoin:round;-inkscape-stroke:none;paint-order:fill markers stroke"
         d="m -1957.6777,232.30078 c -0.4308,0.0653 -0.8787,0.21902 -1.2989,0.5293 -0.8775,0.64794 -1.4266,1.2715 -1.7597,1.76172 -0.3332,0.49021 -0.4785,0.94531 -0.4785,0.94531 a 1.0583349,1.0583349 0 0 0 0.7363,1.30469 1.0583349,1.0583349 0 0 0 1.3027,-0.73633 c 0,0 -0.01,-0.0347 0.1895,-0.32422 0.1967,-0.28951 0.5694,-0.73401 1.2656,-1.24805 0.1717,-0.12682 0.5378,-0.18543 0.9727,-0.13086 0.2174,0.0273 0.4355,0.0754 0.621,0.12305 0.1856,0.0476 0.2156,0.0933 0.5665,0.13477 a 1.0583349,1.0583349 0 0 0 1.1757,-0.92774 1.0583349,1.0583349 0 0 0 -0.9257,-1.17578 c 0.213,0.0252 -0.063,-0.0215 -0.2911,-0.0801 -0.2283,-0.0586 -0.5329,-0.12991 -0.8828,-0.17383 -0.3499,-0.0439 -0.7626,-0.0672 -1.1933,-0.002 z"
         id="path40942" /><path
         style="color:#000000;opacity:0.98;fill:#000000;stroke-width:0.5;stroke-linecap:round;stroke-linejoin:round;-inkscape-stroke:none;paint-order:fill markers stroke"
         d="m -1960.3516,241.91992 a 1.0583349,1.0583349 0 0 0 -0.7734,1.28125 c 0.2551,1.03179 0.9243,1.81893 1.6836,2.33203 0.7592,0.51311 1.614,0.79193 2.4277,0.92188 0.8138,0.12995 1.5769,0.12084 2.2578,-0.0684 0.3405,-0.0946 0.6765,-0.22501 0.9903,-0.53125 0.3138,-0.30624 0.5384,-0.91448 0.4199,-1.41211 a 1.0583349,1.0583349 0 0 0 -1.2754,-0.78516 1.0583349,1.0583349 0 0 0 -0.7852,1.27539 c -0.043,-0.18251 0.083,-0.51623 0.1622,-0.59375 0.079,-0.0775 0.046,-0.0267 -0.078,0.008 -0.2483,0.069 -0.7956,0.10729 -1.3574,0.0176 -0.5618,-0.0897 -1.1486,-0.29565 -1.5781,-0.58593 -0.4295,-0.29028 -0.6985,-0.62478 -0.8125,-1.08594 a 1.0583349,1.0583349 0 0 0 -1.2813,-0.77344 z"
         id="path40945" /><path
         style="color:#000000;opacity:0.98;fill:#000000;stroke-width:0.5;stroke-linecap:round;stroke-linejoin:round;-inkscape-stroke:none;paint-order:fill markers stroke"
         d="m -1934.6113,233.82617 a 1.0583349,1.0583349 0 0 0 -1.1992,0.89844 1.0583349,1.0583349 0 0 0 0.8984,1.19726 c 6.8815,0.98961 16.3353,6.82913 24.4883,10.3711 2.5022,1.08709 5.0101,0.1437 7.2715,-0.74219 2.2613,-0.88589 4.3685,-1.72712 6.2402,-1.35742 0.6978,0.13782 1.5954,0.84757 2.584,1.88672 0.9885,1.03915 2.0545,2.33519 3.3691,3.36914 3.6957,2.90661 8.1348,4.15234 8.1348,4.15234 a 1.0583349,1.0583349 0 0 0 1.3086,-0.72851 1.0583349,1.0583349 0 0 0 -0.7266,-1.30664 c 0,0 -4.1347,-1.20665 -7.4082,-3.78125 -1.0637,-0.8366 -2.0841,-2.04936 -3.1445,-3.16407 -1.0604,-1.1147 -2.1738,-2.20301 -3.7071,-2.50586 -2.7098,-0.53524 -5.2038,0.59592 -7.4218,1.46485 -2.2181,0.86893 -4.0665,1.46217 -5.6563,0.77148 -7.9068,-3.43502 -17.297,-9.41315 -25.0312,-10.52539 z"
         id="path40947" /><path
         style="color:#000000;opacity:0.98;fill:#000000;stroke-width:0.5;stroke-linecap:round;stroke-linejoin:round;-inkscape-stroke:none;paint-order:fill markers stroke"
         d="m -1939.1855,248.27148 a 1.0583349,1.0583349 0 0 0 -0.6583,0.47266 1.0583349,1.0583349 0 0 0 0.3399,1.45703 c 0,0 1.5523,0.96564 3.543,1.98242 1.9906,1.01679 4.374,2.11371 6.4023,2.34961 3.5744,0.41573 7.1089,0.63765 10.7148,0.77539 6.9511,0.2655 14.2117,-0.46708 22.3379,-0.0762 a 1.0584408,1.0584408 0 0 0 0.5586,-1.98633 c -1.5268,-0.83292 -3.1508,-1.30606 -4.4257,-1.88281 -1.275,-0.57674 -2.1078,-1.16757 -2.4825,-2.16992 a 1.0583349,1.0583349 0 0 0 -1.3613,-0.62109 1.0583349,1.0583349 0 0 0 -0.6211,1.36328 c 0.6028,1.61237 1.9313,2.51689 3.2949,3.17578 -6.1694,-0.005 -11.9478,0.28335 -17.2187,0.082 -3.5719,-0.13644 -7.0515,-0.35646 -10.5528,-0.76367 -1.4104,-0.16405 -3.7797,-1.1584 -5.6835,-2.13086 -1.9039,-0.97246 -3.3868,-1.89453 -3.3868,-1.89453 a 1.0583349,1.0583349 0 0 0 -0.8007,-0.13282 z"
         id="path40949" /><path
         style="color:#000000;opacity:0.98;fill:#000000;stroke-width:0.5;stroke-linecap:round;stroke-linejoin:round;-inkscape-stroke:none;paint-order:fill markers stroke"
         d="m -1897.9609,247.19922 a 1.0583349,1.0583349 0 0 0 -0.7852,0.19726 1.0583349,1.0583349 0 0 0 -0.2207,1.48047 c 2.7316,3.6813 5.7537,4.92637 10.4375,6.38282 a 1.0583349,1.0583349 0 0 0 1.3262,-0.69727 1.0583349,1.0583349 0 0 0 -0.6973,-1.32422 c -4.6197,-1.43651 -6.9244,-2.33369 -9.3652,-5.62305 a 1.0583349,1.0583349 0 0 0 -0.6953,-0.41601 z"
         id="path40951" /><path
         style="color:#000000;opacity:0.98;fill:#000000;stroke-width:0.5;stroke-linecap:round;stroke-linejoin:round;-inkscape-stroke:none;paint-order:fill markers stroke"
         d="m -1895.6289,234.69727 a 1.0583349,1.0583349 0 0 0 -1.084,1.03125 1.0583349,1.0583349 0 0 0 1.0313,1.08398 l 11.2871,0.2832 a 1.0583349,1.0583349 0 0 0 1.0859,-1.0332 1.0583349,1.0583349 0 0 0 -1.0332,-1.08398 z"
         id="path40953" /><path
         style="color:#000000;opacity:0.98;fill:#000000;stroke-width:0.5;stroke-linecap:round;stroke-linejoin:round;-inkscape-stroke:none;paint-order:fill markers stroke"
         d="m -1887.875,213.23828 a 1.0583349,1.0583349 0 0 0 -0.7031,0.40625 1.0583349,1.0583349 0 0 0 0.1953,1.48242 l 7.7207,5.93164 a 1.0583349,1.0583349 0 0 0 1.4844,-0.19531 1.0583349,1.0583349 0 0 0 -0.1953,-1.48242 l -7.7208,-5.93164 a 1.0583349,1.0583349 0 0 0 -0.7812,-0.21094 z"
         id="path40955" /><path
         style="color:#000000;opacity:0.98;fill:#000000;stroke-width:0.5;stroke-linecap:round;stroke-linejoin:round;-inkscape-stroke:none;paint-order:fill markers stroke"
         d="m -1875.5938,196.97852 c -0.3385,0.0603 -0.6435,0.34012 -0.7539,0.54101 a 1.0583349,1.0583349 0 0 0 0.4063,1.39453 c -0.1124,-0.0742 -0.187,-0.13959 -0.2012,-0.15625 -0.036,-0.0428 0.013,0.0182 0.068,0.10938 0.1101,0.18244 0.291,0.5167 0.5019,0.92968 0.4218,0.82598 0.9779,1.9862 1.5274,3.15625 1.0988,2.34012 2.1758,4.73047 2.1758,4.73047 a 1.0583349,1.0583349 0 0 0 1.3984,0.53125 1.0583349,1.0583349 0 0 0 0.5312,-1.40039 c 0,0 -1.0808,-2.40094 -2.1894,-4.76172 -0.5543,-1.18038 -1.1151,-2.34823 -1.5586,-3.21679 -0.2218,-0.43428 -0.4101,-0.79055 -0.5742,-1.0625 -0.082,-0.13598 -0.1461,-0.24162 -0.2676,-0.38477 -0.061,-0.0716 -0.1025,-0.16038 -0.3633,-0.29883 -0.1304,-0.0692 -0.3626,-0.1716 -0.7012,-0.11132 z m 1.1016,1.56054 c -0.1041,0.18951 -0.4021,0.46498 -0.7305,0.52344 -0.3283,0.0585 -0.5457,-0.0417 -0.6621,-0.10352 -0.013,-0.007 0,-0.005 -0.014,-0.0117 a 1.0583349,1.0583349 0 0 0 1.4062,-0.40821 z"
         id="path40957" /><path
         style="color:#000000;opacity:0.98;fill:#000000;stroke-width:0.5;stroke-linecap:round;stroke-linejoin:round;-inkscape-stroke:none;paint-order:fill markers stroke"
         d="m -1853.4082,189.41992 a 1.0583349,1.0583349 0 0 0 -0.9414,1.16211 l 1.1484,10.93945 a 1.0583349,1.0583349 0 0 0 1.1641,0.94141 1.0583349,1.0583349 0 0 0 0.9414,-1.16406 l -1.1484,-10.9375 a 1.0583349,1.0583349 0 0 0 -1.1641,-0.94141 z"
         id="path40959" /><path
         style="color:#000000;opacity:0.98;fill:#000000;stroke-width:0.5;stroke-linecap:round;stroke-linejoin:round;-inkscape-stroke:none;paint-order:fill markers stroke"
         d="m -1858.8066,209.20508 a 1.0584408,1.0584408 0 0 0 -1.043,0.66797 l -17.1113,43.3164 -35.7403,0.10938 a 1.0584408,1.0584408 0 0 0 -0.9843,1.43945 l 2.7421,7.12695 a 1.0584408,1.0584408 0 0 0 0.9766,0.67774 l 78.5391,0.80078 a 1.0584408,1.0584408 0 0 0 1.0683,-1.08594 l -0.1582,-5.91015 16.9844,-43.21485 a 1.0584408,1.0584408 0 0 0 -0.9258,-1.44531 z m 0.6445,2.15625 42.125,2.35742 -16.5293,42.05469 a 1.0584408,1.0584408 0 0 0 -0.074,0.41406 l 0.1347,5.0293 -76.7207,-0.78321 -1.9316,-5.02148 34.9199,-0.10938 a 1.0584408,1.0584408 0 0 0 0.9824,-0.66992 z"
         id="path40961" /><path
         style="color:#000000;opacity:0.98;fill:#000000;stroke-width:0.5;stroke-linecap:round;stroke-linejoin:round;-inkscape-stroke:none;paint-order:fill markers stroke"
         d="m -1854.4785,210.01758 a 1.0583349,1.0583349 0 0 0 -1.3711,0.60156 l -16.6504,42.72852 -3.6992,-0.21485 a 1.0583349,1.0583349 0 0 0 -1.1172,0.9961 1.0583349,1.0583349 0 0 0 0.9961,1.11718 l 4.4648,0.25782 a 1.0584408,1.0584408 0 0 0 1.0489,-0.67188 l 16.9296,-43.44336 a 1.0583349,1.0583349 0 0 0 -0.6015,-1.37109 z"
         id="path40963" /><path
         style="color:#000000;opacity:0.98;fill:#000000;stroke-width:0.5;stroke-linecap:round;stroke-linejoin:round;-inkscape-stroke:none;paint-order:fill markers stroke"
         d="m -1872.2852,253.47656 a 1.0583349,1.0583349 0 0 0 -0.6484,0.48633 1.0583349,1.0583349 0 0 0 0.3731,1.44922 c 0.3189,0.18867 0.3315,0.1321 0.3984,0.14453 0.067,0.0124 0.1202,0.0205 0.1797,0.0273 0.1189,0.0138 0.2548,0.0251 0.4238,0.0371 0.3379,0.0241 0.7996,0.048 1.375,0.0742 1.1508,0.0524 2.7553,0.11126 4.666,0.17188 3.8214,0.12124 8.8633,0.25357 13.8887,0.37695 10.0507,0.24676 20.0352,0.45508 20.0351,0.45508 a 1.0583349,1.0583349 0 0 0 1.0801,-1.03516 1.0583349,1.0583349 0 0 0 -1.0351,-1.08008 c 0,0 -9.9837,-0.20844 -20.0293,-0.45507 -5.0228,-0.12332 -10.0617,-0.25799 -13.8731,-0.37891 -1.9057,-0.0605 -3.5049,-0.11642 -4.6367,-0.16797 -0.5659,-0.0258 -1.0167,-0.0506 -1.3203,-0.0723 -0.1518,-0.0108 -0.2677,-0.0221 -0.3301,-0.0293 -0.031,-0.004 -0.05,-0.006 -0.037,-0.004 0.013,0.002 -0.01,-0.0639 0.293,0.11524 a 1.0583349,1.0583349 0 0 0 -0.8028,-0.11524 z"
         id="path40965" /><path
         style="color:#000000;opacity:0.98;fill:#000000;stroke-width:0.5;stroke-linecap:round;stroke-linejoin:round;-inkscape-stroke:none;paint-order:fill markers stroke"
         d="m -1875.3047,254.06055 a 1.0583349,1.0583349 0 0 0 -1.0918,1.02539 c -0.01,0.32659 -0.2969,6.27929 -0.2969,6.27929 a 1.0583349,1.0583349 0 0 0 1.0059,1.10938 1.0583349,1.0583349 0 0 0 1.1094,-1.00586 c 0,0 0.2772,-5.69976 0.2968,-6.31641 a 1.0583349,1.0583349 0 0 0 -1.0234,-1.09179 z"
         id="path40967" /><path
         style="color:#000000;opacity:0.98;fill:#000000;stroke-width:0.5;stroke-linecap:round;stroke-linejoin:round;-inkscape-stroke:none;paint-order:fill markers stroke"
         d="m -2011.2617,267.1543 a 1.0583349,1.0583349 0 0 0 -1.2149,0.87304 c -3.9679,24.26836 0.6729,36.9656 3.0469,52.28516 a 1.0583349,1.0583349 0 0 0 1.207,0.88281 1.0583349,1.0583349 0 0 0 0.8848,-1.20703 c -2.4104,-15.55475 -6.9557,-27.72394 -3.0488,-51.61914 a 1.0583349,1.0583349 0 0 0 -0.875,-1.21484 z"
         id="path40969" /><path
         style="color:#000000;opacity:0.98;fill:#000000;stroke-width:0.5;stroke-linecap:round;stroke-linejoin:round;-inkscape-stroke:none;paint-order:fill markers stroke"
         d="m -1943.748,254.5957 a 1.0583349,1.0583349 0 0 0 -0.8086,0.0312 1.0583349,1.0583349 0 0 0 -0.5176,1.4043 c 5.8327,12.64324 6.7861,20.85369 8.8066,30.19727 a 1.0583349,1.0583349 0 0 0 1.2578,0.81054 1.0583349,1.0583349 0 0 0 0.8106,-1.25781 c -1.9953,-9.2266 -3.0106,-17.75545 -8.9531,-30.63672 a 1.0583349,1.0583349 0 0 0 -0.5957,-0.54883 z"
         id="path40971" /><path
         style="color:#000000;opacity:0.98;fill:#000000;stroke-width:0.5;stroke-linecap:round;stroke-linejoin:round;-inkscape-stroke:none;paint-order:fill markers stroke"
         d="m -2014.2129,203.53711 -32.5156,0.57812 a 1.0584408,1.0584408 0 0 0 -1.0176,1.27344 l 28.5879,137.68555 a 1.0584408,1.0584408 0 0 0 1.0332,0.8418 l 68.377,0.17578 a 1.0583349,1.0583349 0 0 0 1.0605,-1.05664 1.0583349,1.0583349 0 0 0 -1.0547,-1.06055 l -67.5195,-0.17188 -28.1524,-135.59375 31.2383,-0.55664 a 1.0583349,1.0583349 0 0 0 1.0391,-1.07617 1.0583349,1.0583349 0 0 0 -1.0762,-1.03906 z"
         id="path40973" /><path
         style="color:#000000;opacity:0.98;fill:#000000;stroke-width:0.5;stroke-linecap:round;stroke-linejoin:round;-inkscape-stroke:none;paint-order:fill markers stroke"
         d="m -2051.0547,214.94141 a 1.0583349,1.0583349 0 0 0 -1.0078,1.10742 c 0.012,0.2521 0.044,0.38925 0.098,0.70508 0.053,0.31583 0.1276,0.735 0.2246,1.25781 0.194,1.04561 0.4742,2.49995 0.8281,4.30664 0.7078,3.61338 1.7126,8.63602 2.9141,14.59375 2.4029,11.91545 5.5942,27.56973 8.7832,43.14648 6.362,31.07603 12.6794,61.69089 12.7109,61.84375 l -1.1152,12.07813 -21.7442,125.41406 a 1.0583349,1.0583349 0 0 0 0.8613,1.22461 1.0583349,1.0583349 0 0 0 1.2247,-0.86328 l 21.7519,-125.45508 a 1.0584408,1.0584408 0 0 0 0.012,-0.084 l 1.1309,-12.27735 a 1.0584408,1.0584408 0 0 0 -0.018,-0.31054 c 0,0 -6.3627,-30.8427 -12.7402,-61.99414 -3.1888,-15.57573 -6.3811,-31.22917 -8.7832,-43.14063 -1.2011,-5.95573 -2.2038,-10.97607 -2.9102,-14.58203 -0.3532,-1.80298 -0.6326,-3.25247 -0.8242,-4.28516 -0.096,-0.51634 -0.1708,-0.93081 -0.2207,-1.22656 -0.05,-0.29575 -0.073,-0.54909 -0.068,-0.45117 a 1.0583349,1.0583349 0 0 0 -1.1074,-1.00781 z"
         id="path40975" /><path
         style="color:#000000;opacity:0.98;fill:#000000;stroke-width:0.5;stroke-linecap:round;stroke-linejoin:round;-inkscape-stroke:none;paint-order:fill markers stroke"
         d="m -1942.1895,348.23437 -73.1074,0.28907 a 1.0584408,1.0584408 0 0 0 -1.0351,0.85351 l -25.627,129.09375 a 1.0583349,1.0583349 0 0 0 0.832,1.24414 1.0583349,1.0583349 0 0 0 1.2442,-0.83203 l 25.459,-128.24609 72.2422,-0.28711 a 1.0583349,1.0583349 0 0 0 1.0546,-1.0625 1.0583349,1.0583349 0 0 0 -1.0625,-1.05274 z"
         id="path40977" /><path
         style="color:#000000;opacity:0.98;fill:#000000;stroke-width:0.5;stroke-linecap:round;stroke-linejoin:round;-inkscape-stroke:none;paint-order:fill markers stroke"
         d="m -1974.2656,349.55664 a 1.0583349,1.0583349 0 0 0 -1.2324,0.84766 l -23.7735,127.97851 -1.6094,0.18555 c 0.2105,-1.32633 4.9042,-30.9065 9.834,-62.11133 2.5196,-15.94834 5.0443,-31.9735 6.9531,-44.16406 0.9545,-6.09528 1.7542,-11.23151 2.3223,-14.92188 0.2841,-1.84518 0.5114,-3.32814 0.6699,-4.39062 0.1585,-1.06248 0.2407,-1.59514 0.2676,-1.91797 a 1.0583349,1.0583349 0 0 0 -0.9668,-1.14258 1.0583349,1.0583349 0 0 0 -1.1426,0.9668 c 0,-0.0181 -0.094,0.72483 -0.2519,1.78125 -0.1576,1.05642 -0.3842,2.53741 -0.668,4.38086 -0.5675,3.68689 -1.366,8.82167 -2.3203,14.91601 -1.9085,12.1887 -4.4356,28.21426 -6.9551,44.16211 -5.039,31.89571 -10.0527,63.48633 -10.0527,63.48633 a 1.0584408,1.0584408 0 0 0 1.166,1.2168 l 3.7734,-0.43555 a 1.0584408,1.0584408 0 0 0 0.92,-0.85742 l 23.914,-128.74609 a 1.0583349,1.0583349 0 0 0 -0.8476,-1.23438 z"
         id="path40979" /><path
         style="color:#000000;opacity:0.98;fill:#000000;stroke-width:0.5;stroke-linecap:round;stroke-linejoin:round;-inkscape-stroke:none;paint-order:fill markers stroke"
         d="m -1917.6563,266.9707 a 1.0583349,1.0583349 0 0 0 -1.0917,1.02344 c 0,-0.0832 -0.018,0.2701 -0.055,0.7207 -0.036,0.45061 -0.091,1.09278 -0.1602,1.91407 -0.1385,1.64258 -0.3402,4.00026 -0.5957,6.96679 -0.511,5.93306 -1.2368,14.30692 -2.1074,24.30469 -1.7413,19.99555 -4.0585,46.4832 -6.3731,72.91211 -4.6291,52.85783 -9.25,105.48437 -9.25,105.48437 a 1.0584408,1.0584408 0 0 0 1.1739,1.14258 l 6.8496,-0.7832 a 1.0584408,1.0584408 0 0 0 0.9336,-0.95117 l 20.0117,-211.24414 a 1.0583349,1.0583349 0 0 0 -0.9551,-1.15235 1.0583349,1.0583349 0 0 0 -1.1523,0.95313 l -19.9317,210.38867 -4.709,0.53906 c 0.1111,-1.26465 4.5662,-51.98211 9.1387,-104.19336 2.3146,-26.42908 4.6297,-52.91588 6.3711,-72.91211 0.8707,-9.99811 1.5983,-18.37227 2.1094,-24.30664 0.2555,-2.96718 0.457,-5.32567 0.5957,-6.9707 0.069,-0.82252 0.1233,-1.46695 0.1601,-1.92187 0.037,-0.45493 0.054,-0.62496 0.061,-0.82422 a 1.0583349,1.0583349 0 0 0 -1.0235,-1.08985 z"
         id="path40981" /><path
         style="color:#000000;opacity:0.98;fill:#000000;stroke-width:0.5;stroke-linecap:round;stroke-linejoin:round;-inkscape-stroke:none;paint-order:fill markers stroke"
         d="m -1912.7168,313.58008 a 1.0583349,1.0583349 0 0 0 -1.0684,1.04687 1.0583349,1.0583349 0 0 0 1.0469,1.07032 l 138.1778,1.42187 a 1.0583349,1.0583349 0 0 0 1.0683,-1.04687 1.0583349,1.0583349 0 0 0 -1.0469,-1.07032 z"
         id="path40983" /><path
         style="color:#000000;opacity:0.98;fill:#000000;stroke-width:0.5;stroke-linecap:round;stroke-linejoin:round;-inkscape-stroke:none;paint-order:fill markers stroke"
         d="m -1778.959,266.82031 a 1.0583349,1.0583349 0 0 0 -0.9785,1.13086 c 0.046,0.63928 1.1133,13.99199 2.707,33.93555 1.5938,19.94356 3.7057,46.34842 5.8125,72.68945 4.2137,52.68207 8.4082,105.11328 8.4082,105.11328 a 1.0584408,1.0584408 0 0 0 1.0801,0.97266 l 7.6035,-0.17383 a 1.0584408,1.0584408 0 0 0 1.0313,-1.13281 l -15.084,-211.42578 a 1.0583349,1.0583349 0 0 0 -1.1309,-0.98047 1.0583349,1.0583349 0 0 0 -0.9804,1.13281 l 15.0058,210.31641 -5.4961,0.125 c -0.078,-0.9797 -4.1543,-51.93442 -8.3281,-104.11719 -2.1068,-26.34101 -4.2188,-52.74404 -5.8125,-72.6875 -1.5937,-19.94346 -2.6788,-33.5579 -2.7051,-33.91992 a 1.0583349,1.0583349 0 0 0 -1.1328,-0.97852 z"
         id="path40985" /><path
         style="color:#000000;opacity:0.98;fill:#000000;stroke-width:0.5;stroke-linecap:round;stroke-linejoin:round;-inkscape-stroke:none;paint-order:fill markers stroke"
         d="m -1748.1484,261.04687 -193.1446,0.14649 a 1.0583349,1.0583349 0 0 0 -1.0566,1.05859 1.0583349,1.0583349 0 0 0 1.0586,1.05664 l 192.0703,-0.14453 -0.055,3.68946 -189.957,0.11523 a 1.0583349,1.0583349 0 0 0 -1.0567,1.05859 1.0583349,1.0583349 0 0 0 1.0586,1.05664 l 190.9981,-0.11523 a 1.0584408,1.0584408 0 0 0 1.0566,-1.04297 l 0.088,-5.80469 a 1.0584408,1.0584408 0 0 0 -1.0605,-1.07422 z"
         id="path40987" /><path
         style="color:#000000;opacity:0.98;fill:#000000;stroke-width:0.5;stroke-linecap:round;stroke-linejoin:round;-inkscape-stroke:none;paint-order:fill markers stroke"
         d="m -1701.7559,478.19922 -408.3789,1.66797 a 1.0583349,1.0583349 0 0 0 -1.0527,1.0625 1.0583349,1.0583349 0 0 0 1.0625,1.05468 l 408.377,-1.66796 a 1.0583349,1.0583349 0 0 0 1.0546,-1.0625 1.0583349,1.0583349 0 0 0 -1.0625,-1.05469 z"
         id="path40989" /><path
         style="color:#000000;opacity:0.98;fill:#000000;stroke-width:0.5;stroke-linecap:round;stroke-linejoin:round;-inkscape-stroke:none;paint-order:fill markers stroke"
         d="m -1760.9902,227.5332 -31.9395,0.2168 a 1.0584408,1.0584408 0 0 0 -1.043,1.18359 l 3.9473,32.91211 a 1.0584408,1.0584408 0 0 0 1.0547,0.9336 l 21.9551,-0.0879 a 1.0584408,1.0584408 0 0 0 1.0371,-0.86719 l 6.0371,-33.04297 a 1.0584408,1.0584408 0 0 0 -1.0488,-1.24805 z m -1.2637,2.12305 -5.6484,30.92187 -20.1329,0.0801 -3.6953,-30.79883 z"
         id="path40991" /><path
         style="color:#000000;opacity:0.98;fill:#000000;stroke-width:0.5;stroke-linecap:round;stroke-linejoin:round;-inkscape-stroke:none;paint-order:fill markers stroke"
         d="m -1776.9043,168.41211 a 1.0583349,1.0583349 0 0 0 -1.084,1.0332 l -1.4512,58.60352 a 1.0583349,1.0583349 0 0 0 1.0313,1.08398 1.0583349,1.0583349 0 0 0 1.084,-1.03125 l 1.4512,-58.60351 a 1.0583349,1.0583349 0 0 0 -1.0313,-1.08594 z"
         id="path40993" /><path
         style="opacity:0.98;fill:#000000;stroke-width:1.05833;stroke-linecap:round;stroke-linejoin:round;paint-order:fill markers stroke"
         d="m -1777.4236,210.24825 c 0.6181,-3.89824 3.6768,-8.03421 6.8058,-10.39022 0.7222,-0.54376 1.4694,-0.88664 2.3073,-1.20445 0.2632,-0.0998 1.0498,-0.40161 0.7981,-0.27572 -1.3498,0.67499 -2.2647,1.9098 -3.1925,3.07644 -1.9583,2.46253 -3.0642,4.84737 -4.2227,7.82168 -0.2405,0.61727 -0.2615,1.34403 -0.3919,1.98807 -0.4144,2.04786 -1.1184,4.10049 -1.8574,6.05128 -0.5928,1.56493 -0.7779,3.1892 -1.2044,4.7888 -0.1801,0.67538 -0.2268,1.42515 -0.3193,2.11867 0,0.005 0,0.20316 0,0.20316 -0.1231,0 -0.159,-1.20364 -0.1016,-1.93003 0.2206,-2.78717 0.6821,-5.47664 0.6821,-8.28605 0,-1.37908 0.4751,-2.6055 0.6965,-3.96163 z"
         id="path40995" /><path
         style="opacity:0.98;fill:#000000;stroke-width:1.05833;stroke-linecap:round;stroke-linejoin:round;paint-order:fill markers stroke"
         d="m -1779.223,223.06188 c -0.2643,-1.60891 -0.8579,-3.16153 -1.0884,-4.77428 -0.1447,-1.01274 -0.163,-2.08405 -0.5369,-3.0474 -0.6842,-1.76321 -5.614,-5.77877 -7.4007,-6.35603 -1.736,-0.56086 -3.4771,-1.07086 -5.2386,-1.53821 -0.551,-0.14618 -1.1274,-0.20741 -1.6833,-0.33377 -0.029,-0.007 -0.492,-0.13103 -0.4789,-0.14512 1.1707,-1.26092 3.1202,-1.22348 4.6291,-0.94324 0.6644,0.1234 1.3454,0.0734 2.0026,0.2612 3.0211,0.86321 5.2392,3.08276 7.4298,5.19511 0.8364,0.80658 1.5635,1.12496 2.1041,2.30733 0.7823,1.71123 0.3892,3.73158 0.3192,5.51436 -0.051,1.30499 0.05,2.54751 -0.058,3.86005 z"
         id="path40997" /><path
         style="opacity:0.98;fill:#000000;stroke-width:1.05833;stroke-linecap:round;stroke-linejoin:round;paint-order:fill markers stroke"
         d="m -1778.628,205.28532 c -0.3772,-2.43281 -1.3182,-4.6626 -2.3509,-6.86392 -0.5955,-1.26939 -1.0422,-2.62469 -2.1332,-3.59885 -0.6369,-0.56869 -1.5769,-0.82482 -2.3508,-1.1319 -1.1015,-0.43714 -2.3651,-0.3285 -3.5262,-0.29022 -0.5961,0.0197 -1.1981,0.0423 -1.7849,0.15962 -0.1174,0.0235 -0.4178,0.18445 -0.3483,0.0871 0.7911,-1.10761 2.4734,-2.8502 3.831,-3.1635 1.7958,-0.41441 5.0167,1.7354 6.0802,3.07643 1.2762,1.6091 2.3291,3.72037 2.8733,5.70301 0.4345,1.58309 0.01,4.4579 -0.2902,6.02226 z"
         id="path40999" /><path
         style="opacity:0.98;fill:#000000;stroke-width:1.05833;stroke-linecap:round;stroke-linejoin:round;paint-order:fill markers stroke"
         d="m -1778.1056,189.35172 c -0.3931,-1.50225 -0.6613,-3.05137 -1.3206,-4.46953 -0.7678,-1.65151 -1.9867,-3.00213 -3.2795,-4.25186 -0.6237,-0.60285 -1.1857,-1.28469 -1.4366,-2.13319 -0.1456,-0.49228 -0.1383,-2.53748 0.8706,-2.1477 1.0893,0.42087 1.9379,1.89004 2.5685,2.7862 2.86,4.06425 3.1699,5.3288 2.5976,10.21608 z"
         id="path41001" /><path
         style="opacity:0.98;fill:#000000;stroke-width:1.05833;stroke-linecap:round;stroke-linejoin:round;paint-order:fill markers stroke"
         d="m -1777.3075,194.77902 c -0.7444,-2.45737 -0.08,-4.98767 1.0593,-7.22672 1.23,-2.41795 3.0842,-4.64125 5.2821,-6.25445 1.2922,-0.94836 2.5957,-1.50727 2.5685,-1.33505 -0.054,0.34341 -0.3117,0.5489 -0.4933,0.82715 -0.4625,0.70839 -0.7978,1.50383 -1.2916,2.19124 -1.2587,1.7524 -2.6912,3.40676 -4.0196,5.10804 -1.0032,1.28478 -2.5423,5.12205 -3.1054,6.68979 z"
         id="path41003" /><path
         style="opacity:0.98;fill:#000000;stroke-width:1.05833;stroke-linecap:round;stroke-linejoin:round;paint-order:fill markers stroke"
         d="m -1992.4792,342.43857 c 0,0 -13.778,-12.96546 -11.1738,-30.96749 5.8841,-40.67421 83.7857,-30.96794 84.0786,-21.44797 0,0 -5.9007,73.32707 -12.2316,131.36733 -1.1836,10.85065 -3.2041,21.0482 -4.3113,30.2615 -0.8631,7.18129 -5.2531,9.95484 -5.2531,9.95484 l -17.2309,-0.26349 0.4268,-119.13691 z"
         id="path41005" /><path
         style="opacity:0.98;fill:#000000;stroke-width:1.05833;stroke-linecap:round;stroke-linejoin:round;paint-order:fill markers stroke"
         d="m -1923.2551,418.43069 10.1869,-104.14887 34.9868,0.91422 c 0,0 68.2612,70.49675 68.6675,72.57188 0.4064,2.07515 -6.9799,11.47858 -6.9799,11.47858 0,0 -36.6265,4.44053 -61.2813,-16.67367 -24.6547,-21.1142 -28.5582,-28.51505 -28.5582,-28.51505 -3.6503,23.20022 -9.1931,44.77078 -17.0218,64.37291 z"
         id="path41007" /><path
         style="color:#000000;opacity:0.98;fill:#000000;stroke-width:0.5;stroke-linecap:round;stroke-linejoin:round;-inkscape-stroke:none;paint-order:fill markers stroke"
         d="m -1946.5488,456.1875 a 1.0583349,1.0583349 0 0 0 -1.2598,0.80859 c 0,0 -0.3644,1.66691 -0.623,3.73047 -0.2586,2.06357 -0.4606,4.49102 0.039,6.36328 0.3603,1.34998 1.2982,2.67677 2.1387,3.79102 0.075,0.1 0.071,0.0805 0.1445,0.17578 l -3.8594,-0.0254 a 1.0590265,1.0590265 0 0 0 -0.06,2.11719 c 0,0 0.047,-2e-5 0.047,0 0.052,0.003 4.7391,0.2378 8.4726,0.0918 0.6546,-0.0256 0.8885,0.1333 1.1309,0.41993 0.2423,0.28662 0.4413,0.80289 0.5371,1.41601 0.096,0.61313 0.098,1.29989 0.066,1.86719 -0.013,0.23072 -0.03,0.32771 -0.047,0.50195 -0.4222,0.0569 -1.0307,0.11344 -1.7871,0.16211 -1.5872,0.10213 -3.7276,0.17678 -5.8672,0.23047 -3.7459,0.094 -6.6167,0.10936 -7.4922,0.11523 0,-0.89009 0.01,-4.13129 0.016,-8.35937 0,-2.3862 0.01,-4.80002 0,-6.67188 0,-0.93592 0,-1.73646 -0.01,-2.33203 0,-0.59557 0,-0.91729 -0.016,-1.14257 a 1.0583349,1.0583349 0 0 0 -1.1191,-0.99415 1.0583349,1.0583349 0 0 0 -0.9941,1.11915 c -6e-4,-0.01 0.01,0.44166 0.012,1.03125 0,0.58959 0.01,1.3881 0.01,2.32226 0,1.86833 0,4.27883 0,6.66406 -0.01,4.77047 -0.019,9.4336 -0.019,9.4336 a 1.0584408,1.0584408 0 0 0 1.0645,1.0625 c 0,0 4.2927,-0.0228 8.5996,-0.13086 2.1534,-0.054 4.309,-0.13067 5.9511,-0.23633 0.8211,-0.0528 1.5085,-0.11068 2.0352,-0.18555 0.2634,-0.0374 0.4807,-0.075 0.7031,-0.14062 0.1113,-0.0328 0.2228,-0.0653 0.3867,-0.16211 0.164,-0.0968 0.5269,-0.31823 0.5704,-0.89258 0,-0.0438 0.078,-0.61776 0.1152,-1.27539 0.037,-0.65763 0.043,-1.47563 -0.088,-2.31445 -0.1311,-0.83883 -0.3919,-1.722 -1.0117,-2.45508 -0.6199,-0.73308 -1.6499,-1.2142 -2.8321,-1.16797 -0.7505,0.0294 -0.9433,-0.0218 -1.7402,-0.0195 -0.1876,-0.21126 -0.5878,-0.64801 -1.2305,-1.5 -0.7773,-1.03056 -1.596,-2.36119 -1.7832,-3.0625 -0.3265,-1.22361 -0.2299,-3.59318 0.016,-5.55274 0.2455,-1.95955 0.5918,-3.54296 0.5918,-3.54296 a 1.0583349,1.0583349 0 0 0 -0.8086,-1.25977 z"
         id="path41009" /><path
         style="color:#000000;opacity:0.98;fill:#000000;stroke-width:0.5;stroke-linecap:round;stroke-linejoin:round;-inkscape-stroke:none;paint-order:fill markers stroke"
         d="m -1779.7852,379.89062 c -0.8445,0.11997 -1.7193,0.49773 -2.5371,1.1543 -0.4992,0.40086 -1.2314,1.13735 -2.2988,2.13477 -1.0674,0.99741 -2.41,2.21084 -3.8848,3.38476 -2.9495,2.34785 -6.4825,4.45211 -9.041,4.50782 -5.7353,0.12489 -14.0215,-3.00782 -14.0215,-3.00782 a 1.0583349,1.0583349 0 0 0 -1.3691,0.60547 1.0583349,1.0583349 0 0 0 0.6055,1.36914 c 0,0 8.3157,3.2923 14.832,3.15039 3.5674,-0.0777 7.2298,-2.51493 10.3125,-4.96875 1.5413,-1.2269 2.9238,-2.47759 4.0117,-3.49414 1.0879,-1.01654 1.9408,-1.84097 2.1778,-2.03125 1.176,-0.9443 1.9056,-0.90413 2.5644,-0.55078 0.6588,0.35335 1.2929,1.25519 1.5488,2.39844 -0.053,-0.23894 0.01,-0.16426 -0.082,0.0332 -0.091,0.19746 -0.276,0.50979 -0.541,0.87891 -0.5301,0.73822 -1.3709,1.717 -2.4141,2.82226 -2.0863,2.21053 -4.9889,4.9425 -7.9922,7.59375 -3.0032,2.65125 -6.1122,5.22858 -8.6191,7.14258 -1.2535,0.957 -2.3577,1.74842 -3.2051,2.29297 -0.4237,0.27227 -0.7848,0.48262 -1.0488,0.61523 -0.264,0.13262 -0.4719,0.16703 -0.3496,0.15625 -2.1084,0.18582 -4.9315,-1.53061 -7.9551,-3.36914 -1.5879,-0.96554 -3.0903,-2.15031 -4.291,-3.09961 -0.6004,-0.47464 -1.122,-0.8887 -1.5762,-1.20507 -0.2271,-0.15819 -0.4351,-0.29363 -0.6621,-0.40625 -0.227,-0.11262 -0.4579,-0.26414 -0.9609,-0.19336 a 1.0583349,1.0583349 0 0 0 -0.9004,1.19531 1.0583349,1.0583349 0 0 0 1.1953,0.90039 c -0.3388,0.0477 -0.3389,-0.0383 -0.2734,-0.006 0.065,0.0325 0.2098,0.12018 0.3906,0.24609 0.3615,0.25183 0.8744,0.6544 1.4746,1.12891 1.2004,0.94903 2.7673,2.19214 4.5039,3.24805 2.978,1.81079 5.9922,3.95618 9.2402,3.66992 0.4571,-0.0403 0.7446,-0.18979 1.1133,-0.375 0.3687,-0.18521 0.7784,-0.42657 1.2422,-0.72461 0.9276,-0.59608 2.0658,-1.41391 3.3477,-2.39258 2.5636,-1.95733 5.6996,-4.55563 8.7363,-7.23633 3.0366,-2.68069 5.9681,-5.4392 8.1289,-7.72851 1.0804,-1.14466 1.9663,-2.16724 2.5937,-3.04102 0.3137,-0.43689 0.5644,-0.83319 0.7461,-1.22851 0.1817,-0.39533 0.3531,-0.79818 0.2227,-1.38086 -0.3597,-1.60675 -1.225,-3.05619 -2.6133,-3.80078 -0.6941,-0.3723 -1.507,-0.50864 -2.3516,-0.38868 z"
         id="path41011" /><path
         style="fill:#000000;stroke-width:1.05833;stroke-linecap:round;stroke-linejoin:round;paint-order:fill markers stroke"
         d="m -1792.0728,228.97551 h 30.8088 l -5.7667,32.76389 -22.128,-0.39505 z"
         id="path41013" /></g></g></svg>
