<?xml version="1.0" encoding="UTF-8" standalone="no"?>
<!-- Created with Inkscape (http://www.inkscape.org/) -->

<svg
   width="466.12292mm"
   height="657.57465mm"
   viewBox="0 0 466.12294 657.57465"
   version="1.1"
   id="svg5"
   xml:space="preserve"
   xmlns="http://www.w3.org/2000/svg"
   xmlns:svg="http://www.w3.org/2000/svg"><defs
     id="defs2" /><g
     id="layer1"
     transform="translate(-395.58169,-3903.9654)"><g
       id="notion-using-computer"
       transform="matrix(2,0,0,2,-394.08685,-88.124184)"
       style="stroke-width:0.5"><title
         id="title94606">notion-using-computer</title><g
         id="g42126"
         transform="translate(4435.3991,1895.9001)"
         style="stroke-width:0.5"><path
           style="fill:#000000;stroke-width:1.05833;stroke-linecap:round;stroke-linejoin:round;paint-order:fill markers stroke"
           d="m -4015.43,118.89234 c -13.6534,4.59106 -21.0906,14.00131 -14.2791,30.64825 -10.1861,16.37426 -3.3553,26.11599 8.2714,31.19965 12.6733,38.22296 44.9985,21.61293 51.7184,11.40602 3.9684,-3.51626 6.2498,-10.83247 -1.427,-12.29035 -8.9389,-1.69756 -9.1157,-18.38303 -1.1559,-14.06248 2.0037,1.08758 4.3958,4.54787 5.4433,4.9251 3.7563,0.77826 1.8124,-5.84245 2.4284,-7.32086 4.0154,-8.90221 15.7272,-26.45828 12.2989,-37.22055 -9.8355,-30.876135 -29.2407,-26.0167 -29.8643,-23.59568 -17.0603,-5.396843 -29.6523,-2.610578 -33.4341,16.3109 z"
           id="path42025" /><path
           style="color:#000000;fill:#000000;stroke-width:0.5;stroke-linecap:round;stroke-linejoin:round;-inkscape-stroke:none;paint-order:fill markers stroke"
           d="m -3954.7012,139.15039 a 1.0583349,1.0583349 0 0 0 -0.7578,0.2832 1.0583349,1.0583349 0 0 0 -0.053,1.4961 c 0.7107,0.7615 4.3411,4.64758 6.041,12.21289 0.8594,3.8249 0.9063,6.04704 0.9961,7.83984 0.09,1.79281 0.2681,3.30379 1.3926,5.0586 1.0176,1.58822 2.1608,3.40224 2.6074,4.77734 0.2233,0.68755 0.2539,1.22865 0.1641,1.53906 -0.09,0.31041 -0.2198,0.51283 -0.8223,0.74414 -1.6854,0.64702 -2.6976,1.11837 -3.3125,1.44336 -0.3075,0.1625 -0.5156,0.28826 -0.6602,0.38477 -0.1445,0.0965 -0.2793,0.21289 -0.2793,0.21289 a 1.0584408,1.0584408 0 0 0 -0.3183,0.57812 c 0,0 -1.6699,8.42265 -5.4063,13.21289 -1.8945,2.42885 -4.3648,4.35042 -6.5039,5.61524 -1.0695,0.63241 -2.0569,1.10003 -2.8262,1.38867 -0.7692,0.28864 -1.4288,0.32942 -1.3066,0.34766 -0.645,-0.0963 -0.913,-0.21124 -0.8008,-0.15625 0.017,0.008 0.094,0.15664 0.1406,0.18359 a 1.0583349,1.0583349 0 0 0 -1.3359,-0.16602 c 0,0 -0.5221,0.56977 -0.3848,1.11914 0.1374,0.54938 0.4666,0.67657 0.6485,0.76563 0.3637,0.17813 0.6899,0.23871 1.4199,0.34766 0.8097,0.12084 1.449,-0.11593 2.3633,-0.45899 0.9142,-0.34306 1.9954,-0.86206 3.1601,-1.55078 2.3296,-1.37743 4.9864,-3.43107 7.0938,-6.13281 4.0668,-5.21388 5.554,-12.90251 5.6953,-13.65235 0.083,-0.05 0.1326,-0.0853 0.2891,-0.16796 0.5112,-0.27017 1.4531,-0.71253 3.082,-1.3379 1.0546,-0.40487 1.8287,-1.20127 2.0977,-2.13085 0.2689,-0.92959 0.1125,-1.86935 -0.1836,-2.78125 -0.5924,-1.82382 -1.824,-3.68315 -2.8379,-5.26563 -0.9073,-1.41588 -0.9753,-2.28127 -1.0625,-4.02344 -0.087,-1.74216 -0.1478,-4.21341 -1.043,-8.19726 -1.8093,-8.05214 -5.8347,-12.41566 -6.5605,-13.19336 a 1.0583349,1.0583349 0 0 0 -0.7364,-0.33594 z m -11.3867,57.58203 c 0,0.0156 0.012,0.003 0.016,0.0195 0,0.005 -0.01,0.005 0,0.01 a 1.0583349,1.0583349 0 0 0 -0.012,-0.0293 z"
           id="path42027" /><path
           style="color:#000000;fill:#000000;stroke-width:0.5;stroke-linecap:round;stroke-linejoin:round;-inkscape-stroke:none;paint-order:fill markers stroke"
           d="m -3949.4551,153.11523 c -4.0035,2.00949 -5.7942,5.65463 -6.664,9.58204 a 1.0583349,1.0583349 0 0 0 0.8046,1.26171 1.0583349,1.0583349 0 0 0 1.2618,-0.80468 c 0.8019,-3.62049 2.2154,-6.47629 5.5468,-8.14844 a 1.0583349,1.0583349 0 0 0 0.4707,-1.41992 1.0583349,1.0583349 0 0 0 -1.4199,-0.47071 z"
           id="path42029" /><path
           style="color:#000000;fill:#000000;stroke-width:0.5;stroke-linecap:round;stroke-linejoin:round;-inkscape-stroke:none;paint-order:fill markers stroke"
           d="m -3958.0996,182.15234 a 1.0583349,1.0583349 0 0 0 -0.707,0.39258 1.0583349,1.0583349 0 0 0 0.1699,1.48828 c 1.4953,1.18909 2.7859,1.65706 3.8965,1.78516 1.1105,0.1281 1.9409,-0.0162 2.6992,0.0586 a 1.0583349,1.0583349 0 0 0 1.1582,-0.94922 1.0583349,1.0583349 0 0 0 -0.9492,-1.1582 c -1.0953,-0.108 -1.9064,0.0347 -2.6641,-0.0527 -0.7577,-0.0874 -1.5613,-0.3375 -2.8242,-1.3418 a 1.0583349,1.0583349 0 0 0 -0.7793,-0.22266 z"
           id="path42031" /><path
           style="color:#000000;fill:#000000;stroke-width:0.5;stroke-linecap:round;stroke-linejoin:round;-inkscape-stroke:none;paint-order:fill markers stroke"
           d="m -3949.084,167.66406 a 1.0583349,1.0583349 0 0 0 -0.5058,1.40821 c 1.2728,2.69408 0.2582,5.03892 -0.379,7.89453 a 1.0583349,1.0583349 0 0 0 0.8028,1.26367 1.0583349,1.0583349 0 0 0 1.2637,-0.80274 c 0.5778,-2.59012 1.8897,-5.73939 0.2265,-9.25976 a 1.0583349,1.0583349 0 0 0 -1.4082,-0.50391 z"
           id="path42033" /><path
           style="fill:#000000;stroke-width:1.05833;stroke-linecap:round;stroke-linejoin:round;paint-order:fill markers stroke"
           d="m -3954.094,165.63652 c 0,0 2.1622,-3.31227 2.6883,-3.62061 0.526,-0.30838 1.0448,0.81989 1.0267,1.54908 -0.018,0.72922 0.054,5.05362 -0.6277,5.01735 -0.682,-0.0363 -1.7051,-1.87561 -1.5055,-2.9676 0.1995,-1.09199 0.3337,-1.901 0.3337,-1.901 0,0 -1.3568,2.0824 -1.861,2.4996 -0.5043,0.41722 -0.055,-0.57682 -0.055,-0.57682 z"
           id="path42035" /><path
           style="color:#000000;fill:#000000;stroke-width:0.5;stroke-linecap:round;stroke-linejoin:round;-inkscape-stroke:none;paint-order:fill markers stroke"
           d="m -3968.9004,193.54297 a 1.0583349,1.0583349 0 0 0 -0.6797,0.4414 c -1.8518,2.69141 -2.9548,5.85134 -2.8281,8.85157 0.1267,3.00022 1.6109,5.86576 4.707,7.47461 a 1.0583349,1.0583349 0 0 0 1.4278,-0.45118 1.0583349,1.0583349 0 0 0 -0.4512,-1.42773 c -2.463,-1.27987 -3.4668,-3.27779 -3.5684,-5.68359 -0.1015,-2.4058 0.8263,-5.19435 2.4571,-7.56446 a 1.0583349,1.0583349 0 0 0 -0.2715,-1.47265 1.0583349,1.0583349 0 0 0 -0.793,-0.16797 z"
           id="path42037" /><path
           style="color:#000000;fill:#000000;stroke-width:0.5;stroke-linecap:round;stroke-linejoin:round;-inkscape-stroke:none;paint-order:fill markers stroke"
           d="m -3990.7461,204.90234 a 1.0583349,1.0583349 0 0 0 -1.4687,0.28516 1.0583349,1.0583349 0 0 0 0.2832,1.46875 c 11.033,7.45553 20.6657,9.3147 29.4453,8.18945 a 1.0583349,1.0583349 0 0 0 0.916,-1.18359 1.0583349,1.0583349 0 0 0 -1.1856,-0.91602 c -8.3018,1.06402 -17.2912,-0.61397 -27.9902,-7.84375 z"
           id="path42039" /><path
           style="color:#000000;fill:#000000;stroke-width:0.5;stroke-linecap:round;stroke-linejoin:round;-inkscape-stroke:none;paint-order:fill markers stroke"
           d="m -3964.8301,202.16797 a 1.0583349,1.0583349 0 0 0 -1.2988,0.74023 1.0583349,1.0583349 0 0 0 0.7402,1.30078 c 0,0 3.4879,0.92772 8.5703,5.25586 5.0825,4.32814 11.6423,12.02744 17.3789,25.51953 a 1.0583349,1.0583349 0 0 0 1.3868,0.5586 1.0583349,1.0583349 0 0 0 0.5605,-1.38672 c -5.8507,-13.76046 -12.613,-21.75349 -17.9551,-26.30273 -5.3421,-4.54924 -9.3828,-5.68555 -9.3828,-5.68555 z"
           id="path42041" /><path
           style="color:#000000;fill:#000000;stroke-width:0.5;stroke-linecap:round;stroke-linejoin:round;-inkscape-stroke:none;paint-order:fill markers stroke"
           d="m -4006.1328,206.16016 a 1.0583349,1.0583349 0 0 0 -1.4395,0.40625 c -3.5046,6.25644 -4.4487,7.91636 -5.457,14.96484 a 1.0583349,1.0583349 0 0 0 0.8965,1.19922 1.0583349,1.0583349 0 0 0 1.1992,-0.89844 c 0.9905,-6.92449 1.6965,-7.96361 5.207,-14.23047 a 1.0583349,1.0583349 0 0 0 -0.4062,-1.4414 z"
           id="path42043" /><path
           style="color:#000000;fill:#000000;stroke-width:0.5;stroke-linecap:round;stroke-linejoin:round;-inkscape-stroke:none;paint-order:fill markers stroke"
           d="m -4031.0176,201.14648 a 1.0583349,1.0583349 0 0 0 -0.7617,0.27539 1.0583349,1.0583349 0 0 0 -0.07,1.49415 l 53.2363,58.54101 c 0.6711,5.35364 3.2344,33.42276 5.6387,60.32813 2.417,27.04733 4.666,52.77734 4.666,52.77734 a 1.0583349,1.0583349 0 0 0 1.1465,0.96289 1.0583349,1.0583349 0 0 0 0.9629,-1.14648 c 0,0 -2.2488,-25.73134 -4.666,-52.78125 -2.4173,-27.04991 -4.9893,-55.32041 -5.6778,-60.72657 a 1.0584408,1.0584408 0 0 0 -0.2675,-0.57812 l -53.4747,-58.80078 a 1.0583349,1.0583349 0 0 0 -0.7324,-0.34571 z"
           id="path42045" /><path
           style="color:#000000;fill:#000000;stroke-width:0.5;stroke-linecap:round;stroke-linejoin:round;-inkscape-stroke:none;paint-order:fill markers stroke"
           d="m -4036.1074,203.80664 -4.1211,3.8457 a 1.0584408,1.0584408 0 0 0 -0.3262,0.91993 c 0,0 3.7907,27.2431 7.5234,54.71289 1.8664,13.73489 3.7185,27.52638 5.0743,37.99414 0.6779,5.23387 1.2323,9.63777 1.6015,12.7832 0.1847,1.57272 0.3241,2.83147 0.4082,3.71484 0.042,0.44169 0.07,0.79129 0.084,1.02735 0.01,0.11803 0.01,0.20797 0.01,0.25586 1e-4,0.0479 -0.032,0.10804 0.022,-0.10157 -0.086,0.33375 -0.085,0.54477 -0.1094,0.94141 -0.025,0.39664 -0.044,0.90502 -0.062,1.51758 -0.036,1.22511 -0.063,2.86385 -0.08,4.78125 -0.033,3.83479 -0.03,8.78164 0,13.71484 0.03,4.93321 0.086,9.85091 0.1602,13.6211 0.037,1.88509 0.078,3.48234 0.123,4.6582 0.022,0.58793 0.046,1.06989 0.07,1.4375 0.025,0.36761 -0.01,0.47811 0.1133,0.88867 0.1641,0.54688 0.6169,0.88277 0.9922,1.04102 0.3753,0.15824 0.7413,0.21141 1.125,0.23632 0.7675,0.0498 1.6162,-0.0426 2.4551,-0.20117 0.8389,-0.15858 1.651,-0.38313 2.3164,-0.66015 0.3327,-0.13852 0.6263,-0.28293 0.9062,-0.49414 0.2799,-0.21122 0.706,-0.55499 0.6602,-1.26563 0,0.0679 0,-0.19367 -0.01,-0.50781 0,-0.31414 0,-0.75233 0,-1.29492 -4e-4,-1.08518 0,-2.58828 0.01,-4.36719 0.01,-3.55781 0.029,-8.21907 0.049,-12.85156 0.033,-7.74211 0.061,-13.08043 0.072,-15.39063 l 43.4785,55.13281 1.2813,47.8418 a 1.0584408,1.0584408 0 0 0 0.9043,1.01953 c 1.5044,0.22152 3.0727,0.2941 4.6289,-0.16211 1.5562,-0.4562 3.0531,-1.46436 4.3281,-3.1875 a 1.0584408,1.0584408 0 0 0 0.2071,-0.64258 l -0.5137,-43.44726 59.1308,-33.61914 -2.9316,44.28515 a 1.0584408,1.0584408 0 0 0 0.9492,1.12305 c 0,0 1.3314,0.13782 2.7383,0.043 0.7034,-0.0474 1.4303,-0.14105 2.1074,-0.40234 0.3386,-0.13065 0.6742,-0.304 0.9727,-0.5918 0.2984,-0.2878 0.5455,-0.72497 0.5937,-1.19922 0.035,-0.34221 0.088,-1.26167 0.1817,-2.85937 0.093,-1.59771 0.2177,-3.7855 0.3613,-6.36133 0.2871,-5.15167 0.6527,-11.85795 1.0137,-18.51172 0.722,-13.30755 1.4218,-26.40234 1.4218,-26.40234 a 1.0584408,1.0584408 0 0 0 -1.5722,-0.98047 l -62.0059,34.55273 a 1.0583349,1.0583349 0 0 0 -0.4101,1.43945 1.0583349,1.0583349 0 0 0 1.4394,0.40821 l 60.332,-33.61719 c -0.091,1.69817 -0.6487,12.14272 -1.3183,24.48437 -0.361,6.65324 -0.7267,13.36011 -1.0137,18.50977 -0.1435,2.57483 -0.2682,4.75938 -0.3613,6.35352 -0.09,1.54133 -0.1555,2.53285 -0.168,2.67968 -0.029,0.0226 -0.089,0.0673 -0.2285,0.1211 -0.3241,0.12507 -0.9002,0.22597 -1.4883,0.26562 -0.6704,0.0452 -0.8977,0.003 -1.3594,-0.0215 l 2.9883,-45.14063 a 1.0584408,1.0584408 0 0 0 -1.58,-0.99023 l -61.3829,34.90039 a 1.0584408,1.0584408 0 0 0 -0.5351,0.93359 l 0.5176,43.64453 c -0.9795,1.23116 -1.9618,1.89201 -3.0098,2.19922 -0.8589,0.25178 -1.8509,0.15822 -2.8477,0.0742 l -1.2656,-47.15039 a 1.0584408,1.0584408 0 0 0 -0.2265,-0.62695 l -45.5704,-57.78516 a 1.0584408,1.0584408 0 0 0 -1.8906,0.65039 c 0,0 -0.046,9.15181 -0.086,18.41797 -0.02,4.63308 -0.039,9.29541 -0.049,12.85547 0,1.78003 -0.01,3.28377 -0.01,4.37305 2e-4,0.54463 10e-5,0.98562 0,1.30664 5e-4,0.0845 0,0.10357 0,0.16601 -0.081,0.0448 -0.1249,0.0778 -0.2617,0.13477 -0.4652,0.19368 -1.1789,0.40183 -1.8945,0.53711 -0.7156,0.13528 -1.4503,0.19885 -1.9258,0.16797 -0.1321,-0.009 -0.1659,-0.0244 -0.2441,-0.041 -0.014,-0.0944 0,-0.034 -0.012,-0.15625 -0.022,-0.33156 -0.045,-0.79875 -0.066,-1.375 -0.044,-1.1525 -0.084,-2.74146 -0.1211,-4.61914 -0.074,-3.75537 -0.1303,-8.66628 -0.1602,-13.5918 -0.03,-4.92551 -0.033,-9.86781 0,-13.68554 0.017,-1.90887 0.042,-3.53786 0.078,-4.73633 0.018,-0.59923 0.038,-1.09113 0.061,-1.44922 0.022,-0.35809 0.074,-0.65583 0.047,-0.54883 0.068,-0.26629 0.043,-0.31593 0.043,-0.42773 -3e-4,-0.1118 0,-0.23168 -0.012,-0.37305 -0.016,-0.28274 -0.048,-0.64931 -0.092,-1.10547 -0.087,-0.91232 -0.2265,-2.17893 -0.4121,-3.75976 -0.3712,-3.16168 -0.9251,-7.57041 -1.6035,-12.8086 -1.3569,-10.47637 -3.2095,-24.2707 -5.0762,-38.00781 -3.6961,-27.20068 -7.3748,-53.64128 -7.4492,-54.17578 l 3.7207,-3.4707 a 1.0583349,1.0583349 0 0 0 0.051,-1.4961 1.0583349,1.0583349 0 0 0 -1.4961,-0.0508 z"
           id="path42047" /><path
           style="color:#000000;fill:#000000;stroke-width:0.5;stroke-linecap:round;stroke-linejoin:round;-inkscape-stroke:none;paint-order:fill markers stroke"
           d="m -3951.7324,230.37891 a 1.0583349,1.0583349 0 0 0 -0.1778,1.48632 c 0,0 0.4837,0.59407 2.1016,1.98438 1.6179,1.3903 4.4427,3.66216 9.3281,7.25 6.0966,4.47729 10.4277,4.78568 13.2227,3.68555 1.1231,-0.44205 1.9056,-1.09388 2.5195,-1.72071 2.1731,6.41694 2.663,13.9738 1.3028,20.51172 -1.4624,7.02892 -4.9336,12.64829 -10.0821,14.60547 -16.9961,-4.78949 -31.0133,-16.80667 -42.6543,-34.86523 a 1.0583349,1.0583349 0 0 0 -1.4629,-0.31641 1.0583349,1.0583349 0 0 0 -0.3144,1.46289 c 11.9167,18.48636 26.471,31.00226 44.2441,35.88477 a 1.0584408,1.0584408 0 0 0 0.6289,-0.0215 c 6.2939,-2.20261 10.1339,-8.72892 11.7129,-16.31836 1.579,-7.58944 0.9465,-16.36711 -1.9863,-23.58203 a 1.0584408,1.0584408 0 0 0 -1.9453,-0.0371 c 0,0 -0.7356,1.63945 -2.7383,2.42774 -2.0027,0.78828 -5.4341,0.80772 -11.1934,-3.42188 -4.8553,-3.56573 -7.6441,-5.81075 -9.2031,-7.15039 -1.5589,-1.33964 -1.8164,-1.6875 -1.8164,-1.6875 a 1.0583349,1.0583349 0 0 0 -1.4863,-0.17773 z"
           id="path42049" /><path
           style="color:#000000;fill:#000000;stroke-width:0.5;stroke-linecap:round;stroke-linejoin:round;-inkscape-stroke:none;paint-order:fill markers stroke"
           d="m -3874.1777,194.88672 c 0,0 -3.6875,-0.27382 -8.9434,2.01367 -3.6346,1.58189 -6.1784,3.41074 -7.7715,4.64063 -0.035,-1.05593 -0.076,-2.19036 -0.3066,-3.04297 -0.2732,-1.01003 -1.2858,-1.67092 -2.1602,-1.66211 -0.8744,0.009 -1.6484,0.4077 -2.2441,1.0332 -0.5442,0.57136 -0.6009,1.16764 -0.6778,1.83398 -0.077,0.66635 -0.088,1.43185 -0.082,2.28711 0.012,1.71053 0.1021,3.76854 0.018,5.74805 0,-0.0631 -0.3374,0.93115 -1.0859,2.08008 -0.7486,1.14893 -1.8366,2.61851 -3.1446,4.27148 -2.616,3.30596 -6.1116,7.36071 -9.6015,11.28907 -6.9799,7.8567 -13.9434,15.21093 -13.9434,15.21093 a 1.0583349,1.0583349 0 0 0 0.041,1.4961 1.0583349,1.0583349 0 0 0 1.4961,-0.041 c 0,0 6.9797,-7.37073 13.9883,-15.25976 3.5043,-3.94452 7.0154,-8.01838 9.6777,-11.38282 1.3312,-1.68221 2.4498,-3.18445 3.2598,-4.42773 0.81,-1.24328 1.3814,-2.06243 1.4277,-3.14649 0.09,-2.1044 0,-4.20668 -0.016,-5.85156 -0.01,-0.82244 0.011,-1.53295 0.068,-2.03125 0.058,-0.4983 0.2411,-0.75561 0.1074,-0.61523 0.2252,-0.23643 0.5884,-0.3755 0.7324,-0.37696 0.144,-10e-4 0.03,-0.14416 0.096,0.0977 0.1,0.36973 0.2103,1.62673 0.2442,2.66406 0.034,1.03733 0.027,1.92383 0.027,1.92383 a 1.0584408,1.0584408 0 0 0 1.748,0.81055 c 0,0 4.0679,-3.48378 8.9473,-5.60742 3.6146,-1.57316 5.7085,-1.75297 6.8184,-1.7793 -0.1333,0.21104 -0.1761,0.3229 -0.3965,0.62109 -0.1587,0.21466 -0.2906,0.41936 -0.3867,0.67969 -0.096,0.26033 -0.164,0.62764 -0.016,1.01953 0.1484,0.39189 0.496,0.6549 0.7598,0.76367 0.2638,0.10878 0.4808,0.13206 0.6895,0.14258 0.8346,0.0421 1.7073,-0.165 2.6543,-0.32031 0.9469,-0.15531 1.9221,-0.2612 2.4335,-0.19336 0.2558,0.0339 0.3511,0.10907 0.3243,0.084 -0.027,-0.0251 -0.031,-0.14545 -0.045,0.0273 -0.024,0.28646 -0.3574,0.76367 -1.1503,1.26562 -0.793,0.50196 -1.917,0.96548 -3,1.3418 -1.0831,0.37633 -2.1155,0.66846 -2.836,0.91406 -0.3602,0.1228 -0.5707,0.12914 -0.9902,0.4668 -0.1049,0.0844 -0.2574,0.20019 -0.3731,0.50586 -0.1156,0.30567 -0.029,0.82906 0.1641,1.07617 0.3862,0.49422 0.6103,0.42226 0.8008,0.46484 0.6518,0.1457 1.4155,0.15435 2.334,0.17383 0.9185,0.0195 1.9406,0.0273 2.8398,0.0742 0.3489,0.0182 0.4755,0.0673 0.7715,0.10156 -0.083,0.0329 -0.072,0.0563 -0.1641,0.0879 -0.718,0.24675 -1.6525,0.47172 -2.6386,0.71875 -1.9724,0.49407 -4.1879,0.99391 -5.6055,2.51954 -1.1628,1.25138 -2.2572,2.8376 -3.3672,3.96289 -0.555,0.56264 -1.1064,0.99949 -1.6055,1.24023 -0.499,0.24074 -0.9152,0.30757 -1.4082,0.19141 -1.6665,-0.39274 -3.2326,0.16238 -4.3828,1.19531 -1.1502,1.03293 -2.0065,2.48293 -2.7715,4.10742 -1.5299,3.24898 -2.6853,7.27376 -4.0351,10.07617 -1.3633,2.83035 -5.0719,9.24198 -8.916,15.08789 -1.9221,2.92296 -3.8839,5.71634 -5.6016,7.86524 -1.7177,2.1489 -3.3492,3.65686 -3.9141,3.90234 -4.0979,1.78085 -6.4257,2.36524 -6.4257,2.36524 a 1.0583349,1.0583349 0 0 0 -0.7657,1.28515 1.0583349,1.0583349 0 0 0 1.2852,0.76758 c 0,0 2.5365,-0.64549 6.75,-2.47656 1.513,-0.65749 2.9378,-2.28856 4.7226,-4.52149 1.7849,-2.23292 3.7737,-5.06546 5.7188,-8.02343 3.8902,-5.91594 7.584,-12.28469 9.0527,-15.33399 1.4822,-3.07723 2.6315,-7.09012 4.0449,-10.09179 0.7068,-1.50084 1.4837,-2.72983 2.2696,-3.43555 0.7858,-0.70573 1.4593,-0.95055 2.4844,-0.70899 0.9973,0.23505 1.9816,0.0551 2.8125,-0.3457 0.8308,-0.40079 1.5388,-0.99857 2.1914,-1.66016 1.3052,-1.32316 2.42,-2.94018 3.4121,-4.00781 0.7372,-0.79341 2.6306,-1.42233 4.5703,-1.9082 0.9698,-0.24294 1.9423,-0.47051 2.8125,-0.76953 0.8701,-0.29902 1.676,-0.63474 2.2558,-1.36719 0.3025,-0.38211 0.5334,-1.08977 0.2539,-1.66211 -0.2794,-0.57234 -0.7251,-0.75487 -1.1035,-0.89062 -0.7566,-0.2715 -1.6222,-0.33419 -2.5918,-0.38477 -0.1225,-0.006 -0.2428,-0.005 -0.3672,-0.01 0.8403,-0.32716 1.7038,-0.63482 2.4473,-1.10546 1.0438,-0.66076 2.0192,-1.55438 2.1289,-2.87891 0.052,-0.6327 -0.1679,-1.32546 -0.6191,-1.74805 -0.4513,-0.42258 -0.9877,-0.56979 -1.4922,-0.63672 -1.0091,-0.13385 -2.07,0.0397 -3.0547,0.20118 -0.4827,0.0792 -0.6895,0.0896 -1.0801,0.14453 0.1471,-0.24029 0.377,-0.54628 0.4707,-0.74805 0.2087,-0.4492 0.3547,-0.84177 0.2364,-1.36914 -0.1183,-0.52737 -0.6977,-0.93847 -1.0332,-1.00391 -0.3356,-0.0654 -0.5899,0.006 -0.5899,0.006 z"
           id="path42051" /><path
           style="fill:#000000;stroke-width:1.05833;stroke-linecap:round;stroke-linejoin:round;paint-order:fill markers stroke"
           d="m -3910.2299,254.42036 c 0.7901,0.0204 15.0556,-0.26681 19.26,6.34139 10.458,16.43714 6.1772,20.86096 5.2742,24.60627 -0.903,3.74533 10.2512,-4.72229 20.05,4.6278 11.8147,11.27365 10.9178,16.90012 9.7891,24.4113 -1.1287,7.51118 -19.4453,44.75398 -28.906,50.29499 -9.4607,5.54104 -13.7601,7.15203 -13.7601,7.15203 l 1.7034,-34.90846 -25.0267,12.12868 c 0,0 -19.0753,11.14365 -34.0975,3.60168 -11.733,-5.89063 -14.3552,-13.2369 -14.3962,-13.90389 -0.041,-0.66696 -1.9086,-21.10719 -1.9086,-21.10719 0,0 -1.3544,14.03726 17.8542,12.29286 19.2087,-1.7444 30.4215,-14.72894 35.7905,-21.81524 6.2505,-8.24973 -0.8335,-36.64024 -4.3237,-37.89286 -1.3529,-0.48553 1.8162,-9.45055 1.8162,-9.45055 z"
           id="path42053" /><path
           style="fill:#000000;stroke-width:1.05833;stroke-linecap:round;stroke-linejoin:round;paint-order:fill markers stroke"
           d="m -3921.6416,357.24959 c -0.072,0.71829 -0.01,2.81157 -0.01,2.81157 3.4379,1.3913 6.7383,1.98935 9.471,-0.68749 l 2.1445,-8.49625"
           id="path42056" /><path
           style="color:#000000;fill:#000000;stroke-width:0.5;stroke-linecap:round;stroke-linejoin:round;-inkscape-stroke:none;paint-order:fill markers stroke"
           d="m -3879.1582,364.01367 a 1.0584408,1.0584408 0 0 0 -0.8281,0.30078 c 0,0 -0.2389,0.25389 -1.0625,0.72657 -0.8237,0.47267 -2.17,1.10341 -4.1934,1.66601 -1.9046,0.5296 -2.4545,0.23551 -2.4648,0.23633 a 1.0583349,1.0583349 0 0 0 -0.8047,-1.09375 1.0583349,1.0583349 0 0 0 -1.2578,0.81445 c 0,0 -0.202,1.15125 0.6582,1.88477 0.8602,0.73352 2.1921,0.82159 4.4375,0.19726 1.663,-0.46242 2.6157,-0.95539 3.5625,-1.42382 -0.135,0.37868 -0.083,0.35679 -0.2637,0.7871 -0.7539,1.79426 -1.9389,3.83603 -3.3477,4.86915 -1.4647,1.07419 -5.2385,2.82657 -8.5332,4.20507 -3.2946,1.37851 -6.1699,2.44922 -6.1699,2.44922 a 1.0583349,1.0583349 0 0 0 -0.623,1.36133 1.0583349,1.0583349 0 0 0 1.3613,0.62305 c 0,0 2.9109,-1.08529 6.25,-2.48242 3.3391,-1.39713 7.0455,-3.0402 8.9668,-4.44922 1.9774,-1.45009 3.2206,-3.7894 4.0469,-5.75586 0.8263,-1.96646 1.2109,-3.6211 1.2109,-3.6211 a 1.0584408,1.0584408 0 0 0 -0.9453,-1.29492 z"
           id="path42058" /><path
           style="color:#000000;fill:#000000;stroke-width:0.5;stroke-linecap:round;stroke-linejoin:round;-inkscape-stroke:none;paint-order:fill markers stroke"
           d="m -3915.125,356.15234 a 1.0583349,1.0583349 0 0 0 -0.8086,0.0371 1.0583349,1.0583349 0 0 0 -0.5098,1.40625 c 0,0 0.4232,0.85118 1.3789,1.53321 0.9558,0.68203 2.4934,1.27317 4.6875,1.14843 2.21,-0.12563 4.0524,-0.62377 5.3868,-1.08984 l -0.6719,2.69336 c -0.2562,0.18406 -1.5809,1.14049 -3.4004,2.35156 -0.9932,0.66108 -2.0514,1.34141 -2.9766,1.88672 -0.9252,0.54531 -1.7671,0.9589 -2.0898,1.05664 -0.8157,0.24707 -2.0822,0.26005 -3.2012,-0.0723 -1.1189,-0.33232 -2.0575,-0.9673 -2.5312,-1.87696 -1.0185,-1.95539 0.029,-3.40662 0.4961,-4.27344 a 1.0583349,1.0583349 0 0 0 -0.4297,-1.43359 1.0583349,1.0583349 0 0 0 -1.4336,0.42969 c -0.2516,0.4671 -2.0567,3.28396 -0.5098,6.2539 0.8089,1.553 2.2911,2.4796 3.8067,2.92969 1.5155,0.4501 3.0974,0.46774 4.416,0.0684 0.7444,-0.22547 1.5712,-0.68244 2.5508,-1.25976 0.9795,-0.57732 2.0613,-1.27312 3.0742,-1.94727 2.0256,-1.3483 3.7793,-2.61133 3.7793,-2.61133 a 1.0584408,1.0584408 0 0 0 0.4062,-0.60351 l 1.2735,-5.09961 a 1.0584408,1.0584408 0 0 0 -1.5176,-1.19336 c 0,0 -2.8233,1.46605 -6.5469,1.67773 -1.7769,0.10102 -2.7642,-0.34702 -3.3398,-0.75781 -0.5757,-0.41079 -0.6914,-0.70898 -0.6914,-0.70898 a 1.0583349,1.0583349 0 0 0 -0.5977,-0.54493 z"
           id="path42060" /><path
           style="color:#000000;fill:#000000;stroke-width:0.5;stroke-linecap:round;stroke-linejoin:round;-inkscape-stroke:none;paint-order:fill markers stroke"
           d="m -3940.3965,196.47266 a 1.0583349,1.0583349 0 0 0 -1.4961,0.0742 1.0583349,1.0583349 0 0 0 0.074,1.4961 l 31.0723,28.14062 a 1.0583349,1.0583349 0 0 0 1.4961,-0.0742 1.0583349,1.0583349 0 0 0 -0.074,-1.49414 z m 42.0762,38.52539 a 1.0583349,1.0583349 0 0 0 -0.7324,0.34765 1.0583349,1.0583349 0 0 0 0.074,1.49414 l 58.5195,52.99805 a 1.0583349,1.0583349 0 0 0 1.4942,-0.0742 1.0583349,1.0583349 0 0 0 -0.074,-1.49414 l -58.5195,-52.99805 a 1.0583349,1.0583349 0 0 0 -0.7617,-0.27343 z"
           id="path42062" /><path
           style="color:#000000;fill:#000000;stroke-width:0.5;stroke-linecap:round;stroke-linejoin:round;-inkscape-stroke:none;paint-order:fill markers stroke"
           d="m -3945.707,202.63477 a 1.0583349,1.0583349 0 0 0 -1.4942,0.0625 1.0583349,1.0583349 0 0 0 0.062,1.49609 l 30.6133,28.15234 a 1.0583349,1.0583349 0 0 0 1.4961,-0.0625 1.0583349,1.0583349 0 0 0 -0.062,-1.49609 z m 43.2382,40.18164 a 1.0583349,1.0583349 0 0 0 -0.7363,0.33984 1.0583349,1.0583349 0 0 0 0.062,1.49609 l 58.8184,54.08789 a 1.0583349,1.0583349 0 0 0 1.4961,-0.0625 1.0583349,1.0583349 0 0 0 -0.062,-1.49609 l -58.8184,-54.08789 a 1.0583349,1.0583349 0 0 0 -0.7598,-0.27734 z"
           id="path42064" /><path
           style="color:#000000;fill:#000000;stroke-width:0.5;stroke-linecap:round;stroke-linejoin:round;-inkscape-stroke:none;paint-order:fill markers stroke"
           d="m -3887.416,171.81836 -33.086,20.81055 a 1.0584408,1.0584408 0 0 0 -0.1328,1.6914 c 0,0 9.8637,8.62157 21.8106,18.76758 a 1.0583349,1.0583349 0 0 0 1.4922,-0.12109 1.0583349,1.0583349 0 0 0 -0.1211,-1.49219 c -11.3425,-9.63271 -19.7985,-17.02329 -20.709,-17.81836 l 31.2558,-19.6582 49.9317,37.47461 c -1.1545,0.73495 -8.4002,5.3509 -16.8535,10.67187 -4.5509,2.86457 -9.1161,5.72088 -12.5684,7.84375 -1.7261,1.06144 -3.1751,1.94107 -4.1973,2.54102 -0.4392,0.25782 -0.7569,0.43435 -1.0195,0.57812 -0.2399,-0.20457 -0.5373,-0.45966 -0.9433,-0.81055 -0.908,-0.7846 -2.2084,-1.91392 -3.8262,-3.31445 -3.2356,-2.80106 -7.7371,-6.68593 -12.9004,-11.06836 a 1.0583349,1.0583349 0 0 0 -1.4922,0.1211 1.0583349,1.0583349 0 0 0 0.1211,1.49218 c 5.1556,4.37589 9.6516,8.25569 12.8848,11.05469 1.6166,1.3995 2.9185,2.52877 3.83,3.31641 0.4558,0.39382 0.8139,0.70169 1.0684,0.91797 0.1273,0.10814 0.2276,0.193 0.3066,0.25781 0.039,0.0324 0.072,0.0589 0.1075,0.0859 0.035,0.027 -0.015,0.0228 0.209,0.13671 0.3468,0.17611 0.5143,0.12008 0.621,0.10743 0.1068,-0.0127 0.1656,-0.0299 0.2149,-0.0449 0.099,-0.03 0.1573,-0.0558 0.2207,-0.084 0.1268,-0.0563 0.2547,-0.12281 0.4121,-0.20703 0.3149,-0.16844 0.7344,-0.40762 1.2578,-0.71484 1.0469,-0.61445 2.502,-1.49722 4.2344,-2.5625 3.4648,-2.13058 8.0338,-4.98892 12.5879,-7.85547 9.1081,-5.7331 18.1543,-11.4961 18.1543,-11.4961 a 1.0584408,1.0584408 0 0 0 0.066,-1.73828 l -51.7383,-38.83203 a 1.0584408,1.0584408 0 0 0 -1.1992,-0.0508 z"
           id="path42066" /><path
           style="color:#000000;fill:#000000;stroke-width:0.5;stroke-linecap:round;stroke-linejoin:round;-inkscape-stroke:none;paint-order:fill markers stroke"
           d="m -3872.9707,124.51953 a 1.0584408,1.0584408 0 0 0 -0.6602,0.68555 l -14.2714,46.15234 a 1.0584408,1.0584408 0 0 0 0.3808,1.16406 l 53.9258,39.9043 a 1.0584408,1.0584408 0 0 0 1.6055,-0.44141 l 19.4297,-46.23046 a 1.0584408,1.0584408 0 0 0 -0.3848,-1.28711 l -59.082,-39.82617 a 1.0584408,1.0584408 0 0 0 -0.9434,-0.1211 z m 0.9414,2.67188 57.1797,38.54492 -18.5703,44.18554 -52.2383,-38.65625 z"
           id="path42068" /><path
           style="color:#000000;fill:#000000;stroke-width:0.5;stroke-linecap:round;stroke-linejoin:round;-inkscape-stroke:none;paint-order:fill markers stroke"
           d="m -3870.5332,130.85547 a 1.0584408,1.0584408 0 0 0 -0.6543,0.68945 l -11.2012,37.19141 a 1.0584408,1.0584408 0 0 0 0.4102,1.17383 l 47.4199,32.92187 a 1.0584408,1.0584408 0 0 0 1.5723,-0.44141 c 0,0 3.8517,-8.70162 7.7148,-17.46289 1.9316,-4.38063 3.8661,-8.77634 5.3242,-12.10742 0.7291,-1.66554 1.3379,-3.06431 1.7696,-4.06445 0.2158,-0.50007 0.3873,-0.90066 0.5078,-1.1875 0.06,-0.14342 0.1066,-0.2578 0.1426,-0.34766 0.018,-0.0449 0.034,-0.0821 0.049,-0.12109 0.014,-0.0389 0.022,-0.013 0.061,-0.20703 4e-4,-0.002 -0.017,-0.51253 -0.064,-0.625 -0.047,-0.11247 -0.087,-0.16818 -0.1192,-0.21289 -0.064,-0.0894 -0.1021,-0.12722 -0.1367,-0.16211 -0.069,-0.0698 -0.1219,-0.11298 -0.1836,-0.16406 -0.1234,-0.10217 -0.2738,-0.21679 -0.4687,-0.36133 -0.3898,-0.28909 -0.9464,-0.68643 -1.6543,-1.18164 -1.4158,-0.99043 -3.4333,-2.37224 -5.8574,-4.01758 -4.8483,-3.29068 -11.3174,-7.63146 -17.7891,-11.95703 -12.9435,-8.65114 -25.8984,-17.24219 -25.8984,-17.24219 a 1.0584408,1.0584408 0 0 0 -0.9434,-0.11328 z m 0.9609,2.66797 c 1.1077,0.73478 12.3594,8.19562 24.7051,16.44726 6.4696,4.32417 12.9354,8.66417 17.7754,11.94922 2.42,1.64253 4.4344,3.02092 5.834,4 0.665,0.4652 1.1667,0.82528 1.5254,1.08985 -0.1081,0.2549 -0.222,0.52192 -0.3887,0.9082 -0.4288,0.99357 -1.0373,2.39086 -1.7656,4.05469 -1.4566,3.32764 -3.3911,7.7218 -5.3223,12.10156 -3.6032,8.17163 -6.7292,15.23586 -7.1953,16.28906 l -45.7344,-31.75195 z"
           id="path42070" /><path
           style="color:#000000;fill:#000000;stroke-width:0.5;stroke-linecap:round;stroke-linejoin:round;-inkscape-stroke:none;paint-order:fill markers stroke"
           d="m -3889.582,177.24023 -14.4102,9.89063 a 1.0584408,1.0584408 0 0 0 -0.086,1.67969 l 14.6484,12.43554 a 1.0583349,1.0583349 0 0 0 1.4922,-0.12109 1.0583349,1.0583349 0 0 0 -0.1211,-1.49219 l -13.5937,-11.54101 12.6289,-8.66797 42.6504,33.30078 -14.2715,8.97266 -16.002,-13 a 1.0583349,1.0583349 0 0 0 -1.4883,0.15429 1.0583349,1.0583349 0 0 0 0.1543,1.48828 l 16.5899,13.47852 a 1.0584408,1.0584408 0 0 0 1.2324,0.0742 l 16.1855,-10.17969 a 1.0584408,1.0584408 0 0 0 0.09,-1.73047 l -44.4492,-34.70312 a 1.0584408,1.0584408 0 0 0 -1.25,-0.0391 z"
           id="path42072" /><path
           style="color:#000000;fill:#000000;stroke-width:0.5;stroke-linecap:round;stroke-linejoin:round;-inkscape-stroke:none;paint-order:fill markers stroke"
           d="m -3893.457,181.59961 a 1.0583349,1.0583349 0 0 0 -1.4864,0.17383 1.0583349,1.0583349 0 0 0 0.1739,1.48633 l 17.123,13.54101 a 1.0583349,1.0583349 0 0 0 1.4863,-0.17383 1.0583349,1.0583349 0 0 0 -0.1738,-1.48828 z"
           id="path42074" /><path
           style="color:#000000;fill:#000000;stroke-width:0.5;stroke-linecap:round;stroke-linejoin:round;-inkscape-stroke:none;paint-order:fill markers stroke"
           d="m -3868.6855,200.29102 a 1.0583349,1.0583349 0 0 0 -0.7188,0.375 1.0583349,1.0583349 0 0 0 0.1289,1.49023 l 17.7246,14.90234 a 1.0583349,1.0583349 0 0 0 1.4922,-0.1289 1.0583349,1.0583349 0 0 0 -0.1289,-1.49024 l -17.7266,-14.90234 a 1.0583349,1.0583349 0 0 0 -0.7714,-0.24609 z"
           id="path42076" /><path
           style="color:#000000;fill:#000000;stroke-width:0.5;stroke-linecap:round;stroke-linejoin:round;-inkscape-stroke:none;paint-order:fill markers stroke"
           d="m -3849.7832,208.95117 -15.2754,9.25977 a 1.0583349,1.0583349 0 0 0 -0.3555,1.45312 1.0583349,1.0583349 0 0 0 1.4532,0.35742 l 15.2734,-9.25976 a 1.0583349,1.0583349 0 0 0 0.3574,-1.45313 1.0583349,1.0583349 0 0 0 -1.4531,-0.35742 z"
           id="path42078" /><path
           style="color:#000000;fill:#000000;stroke-width:0.5;stroke-linecap:round;stroke-linejoin:round;-inkscape-stroke:none;paint-order:fill markers stroke"
           d="m -3854.5938,203.72461 a 1.0583349,1.0583349 0 0 0 -0.8007,0.12305 c 0,0 -3.8426,2.32656 -7.7403,4.66796 -1.9488,1.17071 -3.9116,2.34551 -5.4121,3.23243 -0.7502,0.44346 -1.3841,0.81483 -1.8398,1.07617 -0.2279,0.13067 -0.4129,0.23526 -0.5371,0.30273 -0.062,0.0337 -0.1101,0.059 -0.1328,0.0703 -0.023,0.0113 -0.1008,0.0167 0.123,-0.041 a 1.0583349,1.0583349 0 0 0 -0.7617,1.28906 1.0583349,1.0583349 0 0 0 1.289,0.76172 c 0.2519,-0.065 0.2312,-0.0845 0.293,-0.11523 0.062,-0.0307 0.126,-0.0646 0.2012,-0.10547 0.1504,-0.0817 0.3425,-0.18913 0.5781,-0.32422 0.4712,-0.27018 1.1108,-0.64585 1.8652,-1.0918 1.5089,-0.89189 3.4728,-2.06821 5.4239,-3.24023 3.9021,-2.34405 7.748,-4.67188 7.748,-4.67188 a 1.0583349,1.0583349 0 0 0 0.3574,-1.45312 1.0583349,1.0583349 0 0 0 -0.6543,-0.48047 z"
           id="path42080" /><path
           style="color:#000000;fill:#000000;stroke-width:0.5;stroke-linecap:round;stroke-linejoin:round;-inkscape-stroke:none;paint-order:fill markers stroke"
           d="m -3866.8594,211.10547 a 1.0583349,1.0583349 0 0 0 -0.707,0.39453 1.0583349,1.0583349 0 0 0 0.1719,1.48633 l 10.1445,8.02539 a 1.0583349,1.0583349 0 0 0 1.4863,-0.17383 1.0583349,1.0583349 0 0 0 -0.1738,-1.48633 l -10.1426,-8.02344 a 1.0583349,1.0583349 0 0 0 -0.7793,-0.22265 z"
           id="path42082" /><path
           style="color:#000000;fill:#000000;stroke-width:0.5;stroke-linecap:round;stroke-linejoin:round;-inkscape-stroke:none;paint-order:fill markers stroke"
           d="m -3885.5723,180.34375 a 1.0583349,1.0583349 0 0 0 -0.791,0.17187 l -12.9668,8.9668 a 1.0583349,1.0583349 0 0 0 -0.2676,1.47266 1.0583349,1.0583349 0 0 0 1.4727,0.26953 l 12.9648,-8.96875 a 1.0583349,1.0583349 0 0 0 0.2696,-1.47266 1.0583349,1.0583349 0 0 0 -0.6817,-0.43945 z"
           id="path42084" /><path
           style="color:#000000;fill:#000000;stroke-width:0.5;stroke-linecap:round;stroke-linejoin:round;-inkscape-stroke:none;paint-order:fill markers stroke"
           d="m -3881.4902,184.15234 -13.6778,9.51172 a 1.0583349,1.0583349 0 0 0 -0.2636,1.47266 1.0583349,1.0583349 0 0 0 1.4726,0.26562 l 13.6777,-9.51367 a 1.0583349,1.0583349 0 0 0 0.2637,-1.47265 1.0583349,1.0583349 0 0 0 -1.4726,-0.26368 z"
           id="path42086" /><path
           style="color:#000000;fill:#000000;stroke-width:0.5;stroke-linecap:round;stroke-linejoin:round;-inkscape-stroke:none;paint-order:fill markers stroke"
           d="m -3875.5898,187.83398 a 1.0583349,1.0583349 0 0 0 -0.793,0.16602 l -14.7149,10.06445 a 1.0583349,1.0583349 0 0 0 -0.2753,1.47071 1.0583349,1.0583349 0 0 0 1.4707,0.27539 l 14.7148,-10.0625 a 1.0583349,1.0583349 0 0 0 0.2754,-1.47266 1.0583349,1.0583349 0 0 0 -0.6777,-0.44141 z"
           id="path42088" /><path
           style="color:#000000;fill:#000000;stroke-width:0.5;stroke-linecap:round;stroke-linejoin:round;-inkscape-stroke:none;paint-order:fill markers stroke"
           d="m -3870.0879,191.83789 a 1.0583349,1.0583349 0 0 0 -0.7812,0.20703 l -3.5997,2.75 a 1.0583349,1.0583349 0 0 0 -0.1992,1.48438 1.0583349,1.0583349 0 0 0 1.4844,0.19726 l 3.5996,-2.75 a 1.0583349,1.0583349 0 0 0 0.1973,-1.48242 1.0583349,1.0583349 0 0 0 -0.7012,-0.40625 z"
           id="path42090" /><path
           style="color:#000000;fill:#000000;stroke-width:0.5;stroke-linecap:round;stroke-linejoin:round;-inkscape-stroke:none;paint-order:fill markers stroke"
           d="m -3865.6465,195.92969 -3.1406,1.97265 a 1.0583349,1.0583349 0 0 0 -0.334,1.46094 1.0583349,1.0583349 0 0 0 1.459,0.33203 l 3.1426,-1.97265 a 1.0583349,1.0583349 0 0 0 0.332,-1.45899 1.0583349,1.0583349 0 0 0 -1.459,-0.33398 z"
           id="path42092" /><path
           style="color:#000000;fill:#000000;stroke-width:0.5;stroke-linecap:round;stroke-linejoin:round;-inkscape-stroke:none;paint-order:fill markers stroke"
           d="m -3859.7559,200.98047 -4.455,3.11914 a 1.0583349,1.0583349 0 0 0 -0.2598,1.47461 1.0583349,1.0583349 0 0 0 1.4746,0.25976 l 4.4551,-3.12109 a 1.0583349,1.0583349 0 0 0 0.2597,-1.47266 1.0583349,1.0583349 0 0 0 -1.4746,-0.25976 z"
           id="path42094" /><path
           style="color:#000000;fill:#000000;stroke-width:0.5;stroke-linecap:round;stroke-linejoin:round;-inkscape-stroke:none;paint-order:fill markers stroke"
           d="m -3920.1992,192.81641 a 1.0583349,1.0583349 0 0 0 -1.1621,0.9414 l -0.7227,6.84571 a 1.0584408,1.0584408 0 0 0 0.3672,0.91796 l 18.7988,15.99219 a 1.0583349,1.0583349 0 0 0 1.4922,-0.12109 1.0583349,1.0583349 0 0 0 -0.1211,-1.49219 l -18.373,-15.62891 0.6621,-6.29101 a 1.0583349,1.0583349 0 0 0 -0.9414,-1.16406 z"
           id="path42096" /><g
           id="path42098"
           style="stroke-width:0.5"><path
             style="color:#000000;fill:#000000;stroke-width:1.05833;stroke-linecap:round;stroke-linejoin:round;-inkscape-stroke:none;paint-order:fill markers stroke"
             d="m -3892.299,224.151 20.3086,16.20204 41.2701,-26.30928 22.1588,-50.16619 -57.8011,-39.54897 -5.9497,0.58047 58.6185,40.37817 -19.2678,45.92423 -38.1084,23.2682 -19.2126,-16.0962 m -7.9308,-6.47326 -22.0898,-18.13522 -0.7219,6.65349 19.097,16.15147"
             id="path75373" /><path
             style="color:#000000;fill:#000000;stroke-width:0.5;stroke-linecap:round;stroke-linejoin:round;-inkscape-stroke:none;paint-order:fill markers stroke"
             d="m -3866.4648,123.27539 -5.9512,0.58008 a 1.0584408,1.0584408 0 0 0 -0.4961,1.92578 l 57.9101,39.89062 -18.8027,44.81446 -37.168,22.69336 -18.6308,-15.60742 a 1.0583349,1.0583349 0 0 0 -1.4903,0.13085 1.0583349,1.0583349 0 0 0 0.1309,1.49219 l 19.2129,16.09571 a 1.0584408,1.0584408 0 0 0 1.2324,0.0918 l 38.1074,-23.26758 a 1.0584408,1.0584408 0 0 0 0.4239,-0.49414 l 19.2675,-45.92382 a 1.0584408,1.0584408 0 0 0 -0.375,-1.28125 l -56.2324,-38.73438 2.6836,-0.26172 56.7578,38.83399 -21.6738,49.07031 -40.3633,25.73047 -19.7168,-15.73047 a 1.0583349,1.0583349 0 0 0 -1.4883,0.16601 1.0583349,1.0583349 0 0 0 0.168,1.48829 l 20.3086,16.20117 a 1.0584408,1.0584408 0 0 0 1.2285,0.0664 l 41.2696,-26.31054 a 1.0584408,1.0584408 0 0 0 0.4003,-0.46485 l 22.1582,-50.16601 a 1.0584408,1.0584408 0 0 0 -0.3691,-1.30078 l -57.8027,-39.54883 a 1.0584408,1.0584408 0 0 0 -0.6992,-0.17969 z m -54.2383,69.51953 a 1.0584408,1.0584408 0 0 0 -0.6524,0.86524 l -0.7226,6.65429 a 1.0584408,1.0584408 0 0 0 0.3691,0.92188 l 19.0977,16.15234 a 1.0583349,1.0583349 0 0 0 1.4922,-0.125 1.0583349,1.0583349 0 0 0 -0.125,-1.49219 l -18.668,-15.78711 0.4492,-4.15039 20.5781,16.89454 a 1.0583349,1.0583349 0 0 0 1.4903,-0.14649 1.0583349,1.0583349 0 0 0 -0.1465,-1.49023 l -22.0899,-18.13477 a 1.0584408,1.0584408 0 0 0 -1.0722,-0.16211 z"
             id="path75375" /></g><g
           id="path42100"
           style="stroke-width:0.5"><path
             style="color:#000000;fill:#000000;stroke-width:1.05833;stroke-linecap:round;stroke-linejoin:round;-inkscape-stroke:none;paint-order:fill markers stroke"
             d="m -3865.2955,145.00936 38.0921,25.65629"
             id="path75379" /><path
             style="color:#000000;fill:#000000;stroke-width:0.5;stroke-linecap:round;stroke-linejoin:round;-inkscape-stroke:none;paint-order:fill markers stroke"
             d="m -3864.7051,144.13086 a 1.0583349,1.0583349 0 0 0 -1.4687,0.28711 1.0583349,1.0583349 0 0 0 0.2871,1.46875 l 38.0918,25.65625 a 1.0583349,1.0583349 0 0 0 1.4687,-0.28516 1.0583349,1.0583349 0 0 0 -0.2851,-1.4707 z"
             id="path75381" /></g><g
           id="path42102"
           style="stroke-width:0.5"><path
             style="color:#000000;fill:#000000;stroke-width:1.05833;stroke-linecap:round;stroke-linejoin:round;-inkscape-stroke:none;paint-order:fill markers stroke"
             d="m -3846.1188,170.2303 14.5549,9.22206"
             id="path75385" /><path
             style="color:#000000;fill:#000000;stroke-width:0.5;stroke-linecap:round;stroke-linejoin:round;-inkscape-stroke:none;paint-order:fill markers stroke"
             d="m -3845.5527,169.33594 a 1.0583349,1.0583349 0 0 0 -1.461,0.32812 1.0583349,1.0583349 0 0 0 0.3282,1.46094 l 14.5546,9.2207 a 1.0583349,1.0583349 0 0 0 1.461,-0.32617 1.0583349,1.0583349 0 0 0 -0.3281,-1.46094 z"
             id="path75387" /></g><g
           id="path42104"
           style="stroke-width:0.5"><path
             style="color:#000000;fill:#000000;stroke-width:1.05833;stroke-linecap:round;stroke-linejoin:round;-inkscape-stroke:none;paint-order:fill markers stroke"
             d="m -3867.0079,167.45862 30.5246,20.84573"
             id="path75391" /><path
             style="color:#000000;fill:#000000;stroke-width:0.5;stroke-linecap:round;stroke-linejoin:round;-inkscape-stroke:none;paint-order:fill markers stroke"
             d="m -3866.4102,166.58398 a 1.0583349,1.0583349 0 0 0 -1.4726,0.27735 1.0583349,1.0583349 0 0 0 0.2773,1.4707 l 30.5254,20.8457 a 1.0583349,1.0583349 0 0 0 1.4707,-0.27734 1.0583349,1.0583349 0 0 0 -0.2773,-1.4707 z"
             id="path75393" /></g><g
           id="path42106"
           style="stroke-width:0.5"><path
             style="color:#000000;fill:#000000;stroke-width:1.05833;stroke-linecap:round;stroke-linejoin:round;-inkscape-stroke:none;paint-order:fill markers stroke"
             d="m -3908.779,172.84734 -8.2397,-2.20782"
             id="path75397" /><path
             style="color:#000000;fill:#000000;stroke-width:0.5;stroke-linecap:round;stroke-linejoin:round;-inkscape-stroke:none;paint-order:fill markers stroke"
             d="m -3916.7441,169.61719 a 1.0583349,1.0583349 0 0 0 -1.2969,0.74804 1.0583349,1.0583349 0 0 0 0.748,1.29688 l 8.2403,2.20703 a 1.0583349,1.0583349 0 0 0 1.2968,-0.74805 1.0583349,1.0583349 0 0 0 -0.75,-1.29687 z"
             id="path75399" /></g><g
           id="path42108"
           style="stroke-width:0.5"><path
             style="color:#000000;fill:#000000;stroke-width:1.05833;stroke-linecap:round;stroke-linejoin:round;-inkscape-stroke:none;paint-order:fill markers stroke"
             d="m -3900.9806,158.91269 -6.1875,-6.18749"
             id="path75403" /><path
             style="color:#000000;fill:#000000;stroke-width:0.5;stroke-linecap:round;stroke-linejoin:round;-inkscape-stroke:none;paint-order:fill markers stroke"
             d="m -3907.916,151.97656 a 1.0583349,1.0583349 0 0 0 0,1.4961 l 6.1875,6.1875 a 1.0583349,1.0583349 0 0 0 1.4961,0 1.0583349,1.0583349 0 0 0 0,-1.4961 l -6.1875,-6.1875 a 1.0583349,1.0583349 0 0 0 -1.4961,0 z"
             id="path75405" /></g><g
           id="path42110"
           style="stroke-width:0.5"><path
             style="color:#000000;fill:#000000;stroke-width:1.05833;stroke-linecap:round;stroke-linejoin:round;-inkscape-stroke:none;paint-order:fill markers stroke"
             d="m -3889.4266,147.99479 -3.3452,-8.88614"
             id="path75409" /><path
             style="color:#000000;fill:#000000;stroke-width:0.5;stroke-linecap:round;stroke-linejoin:round;-inkscape-stroke:none;paint-order:fill markers stroke"
             d="m -3893.1445,138.11914 a 1.0583349,1.0583349 0 0 0 -0.6172,1.36328 l 3.3437,8.88477 a 1.0583349,1.0583349 0 0 0 1.3633,0.61718 1.0583349,1.0583349 0 0 0 0.6192,-1.36328 l -3.3458,-8.88476 a 1.0583349,1.0583349 0 0 0 -1.3632,-0.61719 z"
             id="path75411" /></g><path
           style="color:#000000;fill:#000000;stroke-width:0.5;stroke-linecap:round;stroke-linejoin:round;-inkscape-stroke:none;paint-order:fill markers stroke"
           d="m -3820.4512,203.46289 a 1.0583349,1.0583349 0 0 0 -0.707,0.39453 c 0,0 -0.5953,0.76677 -1.125,2.08985 -0.5297,1.32307 -1.0438,3.26914 -1.0332,5.79492 0.01,2.28729 -0.2849,3.78394 -0.5606,4.68164 -0.2757,0.8977 -0.457,1.09961 -0.457,1.09961 a 1.0583349,1.0583349 0 0 0 0.209,1.48242 1.0583349,1.0583349 0 0 0 1.4805,-0.20899 c 0,0 0.4459,-0.62821 0.791,-1.75195 0.3451,-1.12374 0.6649,-2.83863 0.6543,-5.3125 -0.01,-2.23543 0.441,-3.90144 0.8808,-5 0.4398,-1.09856 0.8204,-1.5625 0.8204,-1.5625 a 1.0583349,1.0583349 0 0 0 -0.1739,-1.48633 1.0583349,1.0583349 0 0 0 -0.7793,-0.2207 z"
           id="path42112" /><path
           style="color:#000000;fill:#000000;stroke-width:0.5;stroke-linecap:round;stroke-linejoin:round;-inkscape-stroke:none;paint-order:fill markers stroke"
           d="m -3810.0234,196.97852 a 1.0583349,1.0583349 0 0 0 -1.4825,0.20507 c 0,0 -4.6191,5.9819 -2.8711,12.88477 0.7567,2.9877 0.5306,5.23168 0.1407,6.72656 -0.39,1.49488 -0.8926,2.15625 -0.8926,2.15625 a 1.0583349,1.0583349 0 0 0 0.2285,1.47852 1.0583349,1.0583349 0 0 0 1.4805,-0.22852 c 0,0 0.7585,-1.06188 1.2304,-2.87109 0.472,-1.80922 0.7074,-4.44809 -0.1367,-7.78125 -1.4533,-5.73886 2.5078,-11.08789 2.5078,-11.08789 a 1.0583349,1.0583349 0 0 0 -0.205,-1.48242 z"
           id="path42114" /><path
           style="color:#000000;fill:#000000;stroke-width:0.5;stroke-linecap:round;stroke-linejoin:round;-inkscape-stroke:none;paint-order:fill markers stroke"
           d="m -3832.1016,229.00195 a 1.0583349,1.0583349 0 0 0 -0.6054,1.36719 c 3.8743,10.02934 16.1783,8.52045 18.7812,1.79688 a 1.0583349,1.0583349 0 0 0 -0.6035,-1.36915 1.0583349,1.0583349 0 0 0 -1.3691,0.60547 c -1.8003,4.65018 -11.5166,6.79287 -14.834,-1.79492 a 1.0583349,1.0583349 0 0 0 -1.3692,-0.60547 z"
           id="path42116" /><path
           style="fill:#000000;stroke-width:1.05833;stroke-linecap:round;stroke-linejoin:round;paint-order:fill markers stroke"
           d="m -3829.7903,232.67683 c 0.2976,-0.9543 1.6829,-4.29943 4.1557,-4.37126 2.4729,-0.0718 4.7098,-0.49255 6.7415,1.62126 2.0317,2.11378 2.514,4.15575 2.514,4.15575 0,0 -6.2592,2.81157 -7.4393,2.45243 -1.18,-0.35915 -6.054,-1.97014 -6.054,-1.97014 z"
           id="path42118" /><path
           style="color:#000000;fill:#000000;stroke-width:0.5;stroke-linecap:round;stroke-linejoin:round;-inkscape-stroke:none;paint-order:fill markers stroke"
           d="m -3822.8594,222.18945 c -2.9159,-0.15612 -5.8721,0.16619 -8.3125,1.11719 -2.4404,0.951 -4.4499,2.63184 -4.9687,5.12109 -0.8802,4.2229 -1.2199,9.36198 -1.2012,13.75586 0.01,2.19695 0.1092,4.20328 0.2832,5.82422 0.174,1.62095 0.3406,2.77618 0.8145,3.66016 2.5655,4.78624 7.2802,6.61215 11.5546,6.50586 4.2745,-0.10629 8.2895,-1.94848 9.75,-5.03516 2.5772,-5.44659 5.1232,-14.52712 4.3868,-24.0332 -0.1752,-2.2606 -1.9798,-3.92176 -4.25,-5.02344 -2.2702,-1.10168 -5.1407,-1.73645 -8.0567,-1.89258 z m -0.1133,2.11328 c 2.6777,0.14337 5.3278,0.75268 7.2461,1.6836 1.9183,0.93091 2.9722,2.09138 3.0645,3.2832 0.699,9.02236 -1.7758,17.85965 -4.1914,22.96484 -0.9078,1.91857 -4.2317,3.73133 -7.8887,3.82227 -3.6569,0.0909 -7.4664,-1.3435 -9.6348,-5.38867 -0.1031,-0.19247 -0.4129,-1.36603 -0.5761,-2.88672 -0.1632,-1.52069 -0.2624,-3.46931 -0.2715,-5.60742 -0.018,-4.27623 0.3226,-9.32421 1.1543,-13.31446 0.3371,-1.61731 1.6256,-2.78418 3.668,-3.58007 2.0423,-0.7959 4.752,-1.11993 7.4296,-0.97657 z"
           id="path42120" /><path
           style="color:#000000;fill:#000000;stroke-width:0.5;stroke-linecap:round;stroke-linejoin:round;-inkscape-stroke:none;paint-order:fill markers stroke"
           d="m -3836.8223,234.83008 c -1.3699,-0.0235 -2.5453,0.54179 -3.3086,1.39453 -0.7632,0.85274 -1.1457,1.9466 -1.2089,3.04101 -0.063,1.09442 0.1897,2.2157 0.83,3.14454 0.6404,0.92884 1.7156,1.6304 3.0371,1.75586 a 1.0583349,1.0583349 0 0 0 1.1543,-0.95313 1.0583349,1.0583349 0 0 0 -0.955,-1.1543 c -0.7345,-0.0697 -1.1655,-0.37763 -1.4922,-0.85156 -0.3268,-0.47393 -0.4998,-1.1482 -0.461,-1.82031 0.039,-0.67211 0.2857,-1.31629 0.6739,-1.75 0.3882,-0.43371 0.8842,-0.70338 1.6953,-0.68945 a 1.0583349,1.0583349 0 0 0 1.0761,-1.04102 1.0583349,1.0583349 0 0 0 -1.041,-1.07617 z"
           id="path42122" /><path
           style="color:#000000;fill:#000000;stroke-width:0.5;stroke-linecap:round;stroke-linejoin:round;-inkscape-stroke:none;paint-order:fill markers stroke"
           d="m -3836.7637,230.7832 c -5.4312,0.56644 -8.221,4.45359 -8.1113,8.44141 0.1097,3.98782 2.8823,8.09155 7.7148,9.51953 a 1.0583349,1.0583349 0 0 0 1.3145,-0.71484 1.0583349,1.0583349 0 0 0 -0.7148,-1.31446 c -3.9893,-1.17879 -6.1155,-4.5 -6.1993,-7.54687 -0.084,-3.04687 1.6403,-5.8022 6.2149,-6.2793 a 1.0583349,1.0583349 0 0 0 0.9433,-1.16211 1.0583349,1.0583349 0 0 0 -1.1621,-0.94336 z"
           id="path42124" /></g></g></g></svg>
