<?xml version="1.0" encoding="UTF-8" standalone="no"?>
<!-- Created with Inkscape (http://www.inkscape.org/) -->

<svg
   width="655.30389mm"
   height="812.698mm"
   viewBox="0 0 655.30391 812.698"
   version="1.1"
   id="svg5"
   xml:space="preserve"
   xmlns="http://www.w3.org/2000/svg"
   xmlns:svg="http://www.w3.org/2000/svg"><defs
     id="defs2" /><g
     id="layer1"
     transform="translate(-2786.2346,-3778.3545)"><g
       id="notion-live-streaming"
       transform="matrix(2,0,0,2,-394.08685,-88.124184)"
       style="stroke-width:0.5"><title
         id="title94610">notion-live-streaming</title><g
         id="g41951"
         transform="translate(2398.8016)"
         style="stroke-width:0.5"><g
           id="g41841"
           transform="translate(-2014.3601,1432.2513)"
           style="stroke-width:0.5" /><g
           id="g41949"
           style="stroke-width:0.5"><path
             style="fill:#000000;stroke-width:1.05833;stroke-linecap:round;stroke-linejoin:round;paint-order:fill markers stroke"
             d="m 1340.4058,570.33697 c -0.4711,0.50504 -1.2386,0.29483 -1.6945,-0.11309 -1.5677,-1.26753 -2.8576,-2.8834 -3.6782,-4.72974 -1.1006,-2.43456 -1.5129,-5.17273 -1.2158,-7.82525 0.01,-0.62156 0.7416,-0.74727 1.1442,-0.393 3.5038,2.75369 5.8362,9.45978 5.4443,13.06108 z"
             id="path41843"
             transform="translate(-2014.3601,1432.2513)" /><path
             style="fill:#000000;stroke-width:1.05833;stroke-linecap:round;stroke-linejoin:round;paint-order:fill markers stroke"
             d="m 1330.4927,601.2204 c -8.3185,-16.54706 0.897,-27.2856 11.3795,-26.30963 0.5268,-12.27357 10.4518,-16.63846 18.4396,-15.61162 6.9638,0.89519 6.5897,5.27342 8.7625,7.11537 21.4187,-12.12004 22.3145,0.71457 26.6992,9.30688 8.2161,3.70755 13.9888,10.94779 3.4272,27.346 9.8607,26.68589 -4.923,21.07995 -13.5446,22.0307 3.2353,-4.7617 8.1475,-9.82125 5.0176,-14.42717 -1.9543,-2.15404 -3.6555,3.30089 -5.1312,8.24082 -0.3689,1.23511 -1.5689,-3.1232 -1.9155,1.21483 l -1.0186,-13.3959 -2.7703,-6.51588 c -3.5971,4.06692 -7.2456,5.02644 -10.9793,0.84141 -2.0554,2.64333 -4.2473,4.25083 -7.1417,0.53358 -4.2949,3.7254 -8.7102,5.01345 -13.3599,1.55969 -1.6426,-0.60905 -4.2633,18.27585 -4.2568,21.66406 8e-4,0.45451 -1.9847,0.38518 -2.0309,-0.79486 -0.096,-2.43969 0.045,-6.98012 -0.7083,-8.98558 -1.3451,-3.58269 -2.6749,-6.23244 -5.1531,-3.60285 -2.6328,8.14797 2.3758,11.55254 6.721,15.28914 -6.9947,6.45367 -20.6288,-4.41084 -12.4364,-25.49899 z"
             id="path41845"
             transform="translate(-2014.3601,1432.2513)" /><path
             style="color:#000000;fill:#000000;stroke-width:0.5;stroke-linecap:round;stroke-linejoin:round;-inkscape-stroke:none;paint-order:fill markers stroke"
             d="m 1384.5234,617.73047 a 1.0585001,1.0585001 0 0 0 -0.9863,1.125 c 0.7937,12.22228 -1.3744,21.06481 -4.9433,26.80078 -3.569,5.73597 -8.4809,8.39874 -13.4805,8.46094 -9.9992,0.1244 -20.8371,-10.4191 -20.8985,-30.73242 a 1.0585001,1.0585001 0 0 0 -1.0625,-1.05665 1.0585001,1.0585001 0 0 0 -1.0546,1.0625 c 0.064,21.07238 11.551,32.98673 23.0429,32.84375 5.746,-0.0715 11.3705,-3.22374 15.25,-9.45898 3.8796,-6.23524 6.0719,-15.52069 5.2578,-28.05664 a 1.0585001,1.0585001 0 0 0 -1.125,-0.98828 z"
             id="path41847"
             transform="translate(-2014.3601,1432.2513)" /><path
             style="color:#000000;fill:#000000;stroke-width:0.5;stroke-linecap:round;stroke-linejoin:round;-inkscape-stroke:none;paint-order:fill markers stroke"
             d="m 1354.5508,608.94141 c -2.442,0.21145 -4.5171,1.30656 -6.4063,2.5664 a 1.0585001,1.0585001 0 0 0 -0.2929,1.46875 1.0585001,1.0585001 0 0 0 1.4668,0.29297 c 1.7625,-1.17541 3.5,-2.05284 5.416,-2.21875 1.916,-0.16591 4.0905,0.33976 6.8672,2.21484 a 1.0585001,1.0585001 0 0 0 1.4707,-0.28515 1.0585001,1.0585001 0 0 0 -0.2852,-1.46875 c -3.0647,-2.06964 -5.7944,-2.78177 -8.2363,-2.57031 z"
             id="path41849"
             transform="translate(-2014.3601,1432.2513)" /><path
             style="color:#000000;fill:#000000;stroke-width:0.5;stroke-linecap:round;stroke-linejoin:round;-inkscape-stroke:none;paint-order:fill markers stroke"
             d="m 1373.4941,609.17969 c -0.7161,0.0316 -1.3933,0.16468 -2.0293,0.39062 -2.5436,0.90378 -4.1916,3.19818 -5.0585,5.83789 -0.867,2.63972 -1.0053,5.69175 -0.4629,8.49414 0.5423,2.80239 1.7636,5.39285 3.8496,6.94336 a 1.0585001,1.0585001 0 0 0 1.4804,-0.21875 1.0585001,1.0585001 0 0 0 -0.2187,-1.48047 c -1.476,-1.09712 -2.5597,-3.19992 -3.0332,-5.64648 -0.4735,-2.44656 -0.3374,-5.19711 0.3965,-7.43164 0.7338,-2.23453 2.0116,-3.88418 3.7558,-4.50391 1.7442,-0.61972 4.1854,-0.32294 7.541,1.96485 a 1.0585001,1.0585001 0 0 0 1.4707,-0.27735 1.0585001,1.0585001 0 0 0 -0.2792,-1.4707 c -2.7673,-1.8866 -5.2637,-2.69648 -7.4122,-2.60156 z"
             id="path41851"
             transform="translate(-2014.3601,1432.2513)" /><path
             style="color:#000000;fill:#000000;stroke-width:0.5;stroke-linecap:round;stroke-linejoin:round;-inkscape-stroke:none;paint-order:fill markers stroke"
             d="m 1356.6934,615.52734 c -0.3283,-0.002 -0.617,0.0306 -0.8536,0.0723 -0.5482,0.0967 -0.8886,0.29772 -1.0664,0.35742 -1.0615,0.35661 -1.9741,0.79641 -2.8652,1.07617 l 0.078,-0.0215 a 1.0586059,1.0586059 0 0 0 0.4336,2.07031 c 0.016,-0.003 0.031,-0.007 0.047,-0.01 0.9324,-0.17361 1.8586,-0.34426 2.7852,-0.51563 -0.01,0.0187 -0.013,0.0359 -0.02,0.0547 -0.3624,1.11023 -0.3753,2.00191 -0.2461,3.05859 0.01,0.0547 0.062,0.83795 0.2442,1.54688 0.091,0.35446 0.1941,0.71763 0.4883,1.10351 0.147,0.19294 0.3639,0.40665 0.6894,0.53125 0.3256,0.1246 0.7322,0.10834 1.0371,-0.008 0.6427,-0.24486 0.8283,-0.74323 0.9336,-1.05078 0.1053,-0.30755 0.1369,-0.56792 0.1543,-0.67188 0.1332,-0.79451 0.124,-1.47159 0.2188,-2.00586 0.1783,-1.00545 0.2367,-1.97523 0.207,-2.97656 a 1.0586059,1.0586059 0 0 0 0,-0.01 c 0,-0.0945 0.068,-0.42428 -0.033,-0.9375 a 1.0586059,1.0586059 0 0 0 0,-0.002 c -0.1387,-0.69806 -0.6112,-1.15517 -1.084,-1.41406 -0.4726,-0.25883 -0.8182,-0.24586 -1.1464,-0.24805 z"
             id="path41853"
             transform="translate(-2014.3601,1432.2513)" /><path
             style="color:#000000;fill:#000000;stroke-width:0.5;stroke-linecap:round;stroke-linejoin:round;-inkscape-stroke:none;paint-order:fill markers stroke"
             d="m 1374.4805,615.01953 c -0.3283,-0.002 -0.617,0.0305 -0.8535,0.0723 -0.5483,0.0967 -0.8887,0.29771 -1.0665,0.35742 -1.0615,0.35661 -1.9721,0.79445 -2.8632,1.07422 l 0.076,-0.0195 a 1.0586059,1.0586059 0 0 0 0.4336,2.07031 c 0.016,-0.003 0.031,-0.007 0.047,-0.01 0.9324,-0.1736 1.8586,-0.34425 2.7852,-0.51562 -0.01,0.0187 -0.013,0.0359 -0.02,0.0547 -0.3623,1.11023 -0.3734,2.00191 -0.2441,3.05859 0.01,0.0547 0.06,0.83795 0.2422,1.54687 0.091,0.35447 0.1941,0.71764 0.4883,1.10352 0.147,0.19294 0.3639,0.40665 0.6894,0.53125 0.3256,0.1246 0.7342,0.10833 1.0391,-0.008 0.6426,-0.24486 0.8263,-0.74324 0.9316,-1.05078 0.1053,-0.30755 0.1369,-0.56792 0.1543,-0.67188 0.1332,-0.79452 0.1259,-1.47159 0.2207,-2.00586 0.1784,-1.00545 0.2349,-1.97523 0.2051,-2.97656 a 1.0586059,1.0586059 0 0 0 0,-0.01 c 0,-0.0945 0.066,-0.42427 -0.035,-0.9375 a 1.0586059,1.0586059 0 0 0 0,-0.002 c -0.1387,-0.69806 -0.6112,-1.15518 -1.0839,-1.41406 -0.4727,-0.25884 -0.8183,-0.24586 -1.1465,-0.24805 z"
             id="path41855"
             transform="translate(-2014.3601,1432.2513)" /><path
             style="color:#000000;fill:#000000;stroke-width:0.5;stroke-linecap:round;stroke-linejoin:round;-inkscape-stroke:none;paint-order:fill markers stroke"
             d="m 1360.168,639.30078 a 1.0586059,1.0586059 0 0 0 -1.1602,1.34375 c 0,0 0.5254,1.84801 1.7266,3.61328 0.6005,0.88264 1.3799,1.77 2.414,2.39453 1.0342,0.62454 2.3533,0.95092 3.7891,0.67188 1.5716,-0.30544 2.6312,-1.02816 3.2656,-1.69922 0.6345,-0.67106 0.8926,-1.37305 0.8926,-1.37305 a 1.0585001,1.0585001 0 0 0 -0.6543,-1.34765 1.0585001,1.0585001 0 0 0 -1.3457,0.65429 c 0,0 -0.064,0.22421 -0.4297,0.61133 -0.366,0.38712 -0.9853,0.85315 -2.1328,1.07617 -0.9237,0.17953 -1.6245,-0.004 -2.291,-0.40625 -0.6665,-0.4025 -1.2706,-1.0574 -1.7578,-1.77343 -0.4733,-0.69562 -0.462,-0.89555 -0.7012,-1.46289 2.8985,0.37983 5.9068,0.67849 9.209,-0.23243 a 1.0585001,1.0585001 0 0 0 0.7402,-1.30273 1.0585001,1.0585001 0 0 0 -1.3027,-0.73828 c -3.508,0.9677 -6.7736,0.44857 -10.2617,-0.0293 z"
             id="path41857"
             transform="translate(-2014.3601,1432.2513)" /><path
             style="color:#000000;fill:#000000;stroke-width:0.5;stroke-linecap:round;stroke-linejoin:round;-inkscape-stroke:none;paint-order:fill markers stroke"
             d="m 1346.5742,648.40234 a 1.0586059,1.0586059 0 0 0 -1.0722,0.81446 c -1.4076,5.98744 -2.3168,11.20179 -1.3301,17.55664 0.9866,6.35485 3.839,13.79006 9.7969,24.38867 a 1.0586059,1.0586059 0 0 0 1.9785,-0.57031 c 0,0 -0.028,-0.34134 0.1933,-1.47071 0.2218,-1.12937 0.6986,-2.94709 1.7246,-5.59765 0.9321,-2.40786 2.0515,-2.71313 3.086,-2.72266 1.0344,-0.01 1.9472,0.5 1.9472,0.5 a 1.0586059,1.0586059 0 0 0 1.2286,-1.71289 c 0,0 -1.9962,-1.71377 -4.3204,-3.98633 -2.3241,-2.27256 -4.9761,-5.14114 -6.1796,-7.19531 -3.4041,-5.81014 -4.554,-9.16689 -6.0489,-19.10352 a 1.0586059,1.0586059 0 0 0 -1.0039,-0.90039 z m 0.033,6.54102 c 1.1891,5.84702 2.5189,9.96834 5.1934,14.5332 1.4399,2.45761 4.1484,5.31442 6.5254,7.63867 1.0443,1.02115 1.1726,1.09021 1.9433,1.79102 -1.5886,0.24942 -3.3615,1.22335 -4.3789,3.85156 -0.849,2.19342 -1.1647,3.52029 -1.459,4.75391 -4.8559,-9.02002 -7.3214,-15.61 -8.1679,-21.0625 -0.638,-4.10923 -0.29,-7.75996 0.3437,-11.50586 z"
             id="path41859"
             transform="translate(-2014.3601,1432.2513)" /><path
             style="color:#000000;fill:#000000;stroke-width:0.5;stroke-linecap:round;stroke-linejoin:round;-inkscape-stroke:none;paint-order:fill markers stroke"
             d="m 1382.1973,648.04297 a 1.0586059,1.0586059 0 0 0 -0.9063,1.06445 c 0.1363,7.90593 -0.7518,13.85365 -3.7617,19.83789 -0.6995,1.39071 -2.5325,3.43867 -4.168,5.03321 -1.6355,1.59454 -3.0664,2.7832 -3.0664,2.7832 a 1.0586059,1.0586059 0 0 0 0.4883,1.85547 c 0,0 -0.097,-0.0254 0.01,0.008 0.1027,0.0332 0.3109,0.10493 0.6894,0.24023 0.7571,0.27061 2.1986,0.80092 4.8985,1.83204 3.3512,1.27992 3.4121,4.58984 3.4121,4.58984 a 1.0586059,1.0586059 0 0 0 2.0605,0.29883 c 7.5607,-22.2785 5.4689,-22.58803 1.5195,-36.7793 a 1.0586059,1.0586059 0 0 0 -1.1718,-0.76367 z m 0.9961,7.63086 c 2.2813,7.56876 2.4463,11.40031 -2.4336,26.25586 -0.6901,-1.22023 -1.7265,-2.48314 -3.627,-3.20899 -2.2692,-0.86664 -3.2906,-1.2417 -4.1406,-1.55078 0.5952,-0.51972 0.8633,-0.71606 1.8476,-1.67578 1.7008,-1.65819 3.6199,-3.68845 4.5801,-5.59766 2.2674,-4.50794 3.3601,-9.0726 3.7735,-14.22265 z"
             id="path41861"
             transform="translate(-2014.3601,1432.2513)" /><path
             style="color:#000000;fill:#000000;stroke-width:0.5;stroke-linecap:round;stroke-linejoin:round;-inkscape-stroke:none;paint-order:fill markers stroke"
             d="m 1370.6934,677.22852 a 1.0585001,1.0585001 0 0 0 -0.7305,0.34765 l -3.6231,4.02344 -2.1796,-1.61719 a 1.0585001,1.0585001 0 0 0 -1.4805,0.21875 1.0585001,1.0585001 0 0 0 0.2187,1.48047 l 2.9532,2.19141 a 1.0586059,1.0586059 0 0 0 1.4179,-0.14063 l 4.2657,-4.73828 a 1.0585001,1.0585001 0 0 0 -0.078,-1.49609 1.0585001,1.0585001 0 0 0 -0.7636,-0.26953 z"
             id="path41863"
             transform="translate(-2014.3601,1432.2513)" /><path
             style="color:#000000;fill:#000000;stroke-width:0.5;stroke-linecap:round;stroke-linejoin:round;-inkscape-stroke:none;paint-order:fill markers stroke"
             d="m 1366.3965,682.22266 a 1.0585001,1.0585001 0 0 0 -0.8379,1.24023 c -0.028,-0.14652 -0.01,-0.0497 0,0.0176 0,0.0673 0.01,0.16956 0.016,0.29883 0.011,0.25854 0.026,0.62797 0.041,1.08593 0.03,0.91593 0.064,2.19163 0.1035,3.70508 0.078,3.02692 0.1699,7.00285 0.2579,10.95703 0.1759,7.90837 0.3359,15.73243 0.3359,15.73243 a 1.0585001,1.0585001 0 0 0 1.0801,1.0371 1.0585001,1.0585001 0 0 0 1.0371,-1.08007 c 0,0 -0.16,-7.82538 -0.336,-15.73633 -0.088,-3.95547 -0.1795,-7.93299 -0.2578,-10.96485 -0.039,-1.51592 -0.075,-2.79372 -0.1054,-3.71875 -0.015,-0.46251 -0.029,-0.83721 -0.041,-1.11132 -0.01,-0.13706 -0.012,-0.24907 -0.018,-0.33985 -0.01,-0.0908 0.01,-0.0945 -0.031,-0.2832 a 1.0585001,1.0585001 0 0 0 -1.2402,-0.83984 z"
             id="path41865"
             transform="translate(-2014.3601,1432.2513)" /><path
             id="circle41867"
             style="fill-rule:evenodd;stroke-width:0.132291"
             transform="translate(-2014.3601,1432.2513)"
             d="m 1375.6751,687.48914 a 2.5358396,2.5358396 0 0 1 -2.5358,2.53584 2.5358396,2.5358396 0 0 1 -2.5359,-2.53584 2.5358396,2.5358396 0 0 1 2.5359,-2.53584 2.5358396,2.5358396 0 0 1 2.5358,2.53584 z" /><path
             id="circle41869"
             style="fill-rule:evenodd;stroke-width:0.132291"
             transform="translate(-2014.3601,1432.2513)"
             d="m 1375.6751,708.13171 a 2.5358396,2.5358396 0 0 1 -2.5358,2.53584 2.5358396,2.5358396 0 0 1 -2.5359,-2.53584 2.5358396,2.5358396 0 0 1 2.5359,-2.53584 2.5358396,2.5358396 0 0 1 2.5358,2.53584 z" /><path
             style="color:#000000;fill:#000000;stroke-width:0.5;stroke-linecap:round;stroke-linejoin:round;-inkscape-stroke:none;paint-order:fill markers stroke"
             d="m 1374.4766,650.9043 c -3.1083,2.72166 -4.5851,5.98536 -5.0782,9.38672 -0.493,3.40135 -0.056,6.9401 0.5313,10.45507 a 1.0585001,1.0585001 0 0 0 1.2187,0.8711 1.0585001,1.0585001 0 0 0 0.8692,-1.21875 c -0.5765,-3.45159 -0.9622,-6.78937 -0.5254,-9.80274 0.4368,-3.01336 1.6412,-5.70238 4.3789,-8.09961 a 1.0585001,1.0585001 0 0 0 0.1,-1.49414 1.0585001,1.0585001 0 0 0 -1.4941,-0.0976 z"
             id="path41871"
             transform="translate(-2014.3601,1432.2513)" /><path
             style="color:#000000;fill:#000000;stroke-width:0.5;stroke-linecap:round;stroke-linejoin:round;-inkscape-stroke:none;paint-order:fill markers stroke"
             d="m 1338.4941,657.23633 a 1.0585001,1.0585001 0 0 0 -0.8086,0.0137 c -23.1964,10.09437 -34.4371,32.54241 -42.998,57.39062 a 1.0585001,1.0585001 0 0 0 0.6563,1.34571 1.0585001,1.0585001 0 0 0 1.3457,-0.65625 c 8.5029,-24.67994 19.4673,-46.40286 41.8398,-56.13867 a 1.0585001,1.0585001 0 0 0 0.5488,-1.39258 1.0585001,1.0585001 0 0 0 -0.584,-0.5625 z"
             id="path41873"
             transform="translate(-2014.3601,1432.2513)" /><path
             style="color:#000000;fill:#000000;stroke-width:0.5;stroke-linecap:round;stroke-linejoin:round;-inkscape-stroke:none;paint-order:fill markers stroke"
             d="m 1393.4492,654.36719 a 1.0585001,1.0585001 0 0 0 -1.3437,0.6582 1.0585001,1.0585001 0 0 0 0.6582,1.34375 c 11.5694,3.96549 20.1719,12.69312 26.541,23.74414 6.369,11.05102 10.4649,24.40026 12.9648,37.39063 a 1.0585001,1.0585001 0 0 0 1.2403,0.83984 1.0585001,1.0585001 0 0 0 0.8379,-1.24023 c -2.53,-13.14664 -6.6663,-26.69794 -13.2071,-38.04688 -6.5407,-11.34894 -15.5244,-20.51915 -27.6914,-24.68945 z"
             id="path41875"
             transform="translate(-2014.3601,1432.2513)" /><path
             style="color:#000000;fill:#000000;stroke-width:0.5;stroke-linecap:round;stroke-linejoin:round;-inkscape-stroke:none;paint-order:fill markers stroke"
             d="m 1404.0801,684.49023 c -10e-4,-10e-4 -1.8569,0.3185 -1.8574,0.32032 -6e-4,0.002 -0.047,0.24972 -0.049,0.29101 a 1.0585001,1.0585001 0 0 0 0.2461,0.65625 c 0,2e-4 -0.031,0.006 -0.031,0.006 9e-4,10e-4 -0.1491,-0.27714 -0.1602,-0.3125 -0.011,-0.0353 -0.014,-0.0476 -0.016,-0.0547 -0.01,-0.0282 0.01,0.0249 0.018,0.0937 0.023,0.1377 0.06,0.38374 0.1093,0.7168 0.098,0.66613 0.2417,1.69001 0.4239,3.01367 0.3644,2.64734 0.8846,6.50092 1.5058,11.16211 1.2426,9.32238 2.8954,21.8717 4.5469,34.46094 3.2379,24.68196 6.3425,48.54966 6.4688,49.51953 -30.9771,6.2699 -62.0259,10.99194 -95.5684,0.93164 l 9.459,-95.21484 a 1.0585001,1.0585001 0 0 0 -0.9492,-1.15821 1.0585001,1.0585001 0 0 0 -1.1582,0.94922 l -9.5489,96.11719 a 1.0586059,1.0586059 0 0 0 0.7422,1.11719 c 34.7444,10.66467 66.7976,5.58521 98.416,-0.8457 a 1.0586059,1.0586059 0 0 0 0.8379,-1.17383 c 0,0 -3.2983,-25.33767 -6.6015,-50.51758 -1.6517,-12.58996 -3.304,-25.13954 -4.5469,-34.46484 -0.6215,-4.66266 -1.1406,-8.51839 -1.5059,-11.17188 -0.1826,-1.32674 -0.3257,-2.35344 -0.4258,-3.0332 -0.05,-0.33988 -0.09,-0.58995 -0.1191,-0.76172 -0.015,-0.0859 -0.022,-0.14112 -0.043,-0.22852 -0.01,-0.0218 -0.012,-0.0438 -0.025,-0.0879 -0.014,-0.0441 -0.167,-0.32879 -0.1679,-0.33008 z m 0.209,0.6836 c 0,0.0314 -0.047,0.27329 -0.047,0.27148 0,-8e-5 -0.077,0.0125 -0.084,0.0137 a 1.0585001,1.0585001 0 0 0 0.1309,-0.28515 z"
             id="path41877"
             transform="translate(-2014.3601,1432.2513)" /><path
             style="color:#000000;fill:#000000;stroke-width:0.5;stroke-linecap:round;stroke-linejoin:round;-inkscape-stroke:none;paint-order:fill markers stroke"
             d="m 1237.707,683.18164 c -0.4546,-0.0172 -0.889,0.0791 -1.25,0.28711 -0.7219,0.41602 -1.0887,1.07355 -1.3379,1.67969 -0.4983,1.21227 -0.5488,2.48047 -0.5488,2.48047 a 1.0586059,1.0586059 0 0 0 0.2188,0.70898 l 8.416,10.88477 a 1.0585001,1.0585001 0 0 0 1.4844,0.18945 1.0585001,1.0585001 0 0 0 0.1914,-1.48438 l -8.125,-10.50586 c 0.03,-0.27923 0.07,-0.85964 0.3203,-1.46875 0.1535,-0.37339 0.3567,-0.60384 0.4375,-0.65039 0.081,-0.0465 0.1,-0.12103 0.5527,0.125 0.1736,0.0943 0.7627,0.51238 1.4883,1.09766 0.7256,0.58528 1.6334,1.35442 2.6504,2.24023 2.034,1.77163 4.5077,4.00774 6.8984,6.19922 4.7814,4.38298 9.2324,8.58789 9.2324,8.58789 a 1.0586059,1.0586059 0 0 0 0,0.004 c 0,0 0.331,0.29327 1.0411,0.73047 0.71,0.4372 1.8698,1.08372 3.7421,1.9707 3.7448,1.77397 10.3375,4.51268 21.834,8.43946 22.582,7.71307 36.2051,25.99804 36.2051,25.99804 a 1.0585001,1.0585001 0 0 0 1.4805,0.2168 1.0585001,1.0585001 0 0 0 0.2187,-1.48047 c 0,0 -13.9179,-18.77899 -37.2207,-26.73828 -11.4457,-3.90941 -17.9735,-6.62631 -21.6113,-8.34961 -1.8189,-0.86165 -2.9146,-1.47486 -3.5391,-1.85938 -0.6205,-0.38206 -0.7001,-0.46954 -0.7011,-0.4707 v -0.004 c 0,-0.004 -4.458,-4.21094 -9.252,-8.60547 -2.398,-2.19823 -4.8793,-4.44163 -6.9375,-6.23438 -1.0291,-0.89637 -1.9529,-1.67992 -2.7129,-2.29297 -0.76,-0.61305 -1.3107,-1.04014 -1.8047,-1.30859 -0.4411,-0.23977 -0.9164,-0.36955 -1.3711,-0.38672 z"
             id="path41879"
             transform="translate(-2014.3601,1432.2513)" /><path
             style="color:#000000;fill:#000000;stroke-width:0.5;stroke-linecap:round;stroke-linejoin:round;-inkscape-stroke:none;paint-order:fill markers stroke"
             d="m 1218.2266,688.68945 a 1.0585001,1.0585001 0 0 0 -1.1934,0.9043 1.0585001,1.0585001 0 0 0 0.9043,1.19141 c 0.3544,0.0488 1.6659,0.68673 3.0664,1.67773 1.4006,0.991 3.0057,2.29782 4.5117,3.59375 3.0122,2.59186 5.6289,5.13477 5.6289,5.13477 a 1.0586059,1.0586059 0 0 0 0.3809,0.23828 c 0,0 0.7232,0.23615 2.0039,0.27734 1.2807,0.0412 3.2336,-0.0722 6.0508,-0.64453 5.3253,-1.0819 10.6953,-0.76367 10.6953,-0.76367 a 1.0585001,1.0585001 0 0 0 1.1211,-0.99219 1.0585001,1.0585001 0 0 0 -0.9922,-1.12109 c 0,0 -5.5698,-0.35008 -11.2441,0.80273 -2.6826,0.54502 -4.4743,0.63656 -5.5625,0.60156 -0.9773,-0.0314 -1.166,-0.11867 -1.2207,-0.13867 -0.2126,-0.20619 -2.5398,-2.46956 -5.4805,-5 -1.5359,-1.32157 -3.1768,-2.66031 -4.6699,-3.7168 -1.4931,-1.05648 -2.7219,-1.86881 -4,-2.04492 z"
             id="path41881"
             transform="translate(-2014.3601,1432.2513)" /><path
             style="color:#000000;fill:#000000;stroke-width:0.5;stroke-linecap:round;stroke-linejoin:round;-inkscape-stroke:none;paint-order:fill markers stroke"
             d="m 1208.9785,689.85352 a 1.0585001,1.0585001 0 0 0 -1.3437,0.65625 1.0585001,1.0585001 0 0 0 0.6562,1.3457 c 6.7633,2.32538 13.2331,5.77951 19.252,11.46484 a 1.0585001,1.0585001 0 0 0 1.4961,-0.043 1.0585001,1.0585001 0 0 0 -0.043,-1.49609 c -6.2592,-5.91233 -13.0359,-9.52726 -20.0176,-11.92773 z"
             id="path41883"
             transform="translate(-2014.3601,1432.2513)" /><path
             style="color:#000000;fill:#000000;stroke-width:0.5;stroke-linecap:round;stroke-linejoin:round;-inkscape-stroke:none;paint-order:fill markers stroke"
             d="m 1206.9316,700.28516 a 1.0585001,1.0585001 0 0 0 -1.2011,0.89257 1.0585001,1.0585001 0 0 0 0.8925,1.20118 c 6.4681,0.94981 12.6633,3.20279 18.6915,6.33593 a 1.0585001,1.0585001 0 0 0 1.4277,-0.45117 1.0585001,1.0585001 0 0 0 -0.4512,-1.42773 c -6.1864,-3.21537 -12.6076,-5.5593 -19.3594,-6.55078 z"
             id="path41885"
             transform="translate(-2014.3601,1432.2513)" /><path
             style="color:#000000;fill:#000000;stroke-width:0.5;stroke-linecap:round;stroke-linejoin:round;-inkscape-stroke:none;paint-order:fill markers stroke"
             d="m 1207.8711,708.63477 a 1.0585001,1.0585001 0 0 0 -0.9727,1.13867 1.0585001,1.0585001 0 0 0 1.1368,0.97265 c 0,0 7.7474,-0.48775 12.4472,2.6543 2.6105,1.74525 5.189,3.29166 7.2871,4.46094 2.0981,1.16928 3.6075,1.93505 4.4961,2.22461 0.5912,0.19263 0.8827,0.10809 1.4336,0.0723 0.5509,-0.0358 1.2307,-0.10708 2.0137,-0.20312 1.566,-0.19208 3.5359,-0.48134 5.5469,-0.76758 2.0109,-0.28624 4.0625,-0.57075 5.7636,-0.75391 1.7012,-0.18316 3.1493,-0.22934 3.5235,-0.16797 -0.19,-0.0312 0.1234,0.0539 0.4746,0.26563 0.3511,0.21175 0.8285,0.5321 1.3984,0.93945 1.1399,0.81471 2.6564,1.97705 4.4199,3.36914 3.5272,2.7842 8.0543,6.49258 12.6973,10.26368 4.643,3.77109 9.4014,7.60455 13.4082,10.65625 4.0068,3.05169 7.1048,5.28913 9.0606,6.02929 3.2046,1.21277 7.4709,2.60321 11.7656,3.38086 4.2947,0.77766 8.6224,0.98403 12.0351,-0.40039 3.1706,-1.28619 5.063,-2.58515 6.1817,-3.61133 0.5593,-0.51309 0.9237,-0.95865 1.1562,-1.29492 0.2325,-0.33626 0.3614,-0.63867 0.3614,-0.63867 a 1.0585001,1.0585001 0 0 0 -0.6016,-1.37109 1.0585001,1.0585001 0 0 0 -1.3711,0.60156 c 0,0 0.01,0.004 -0.1289,0.20508 -0.1394,0.20157 -0.3985,0.52548 -0.8477,0.9375 -0.8983,0.82404 -2.5627,1.9992 -5.5449,3.20898 -2.7401,1.11155 -6.7632,1.02172 -10.8633,0.2793 -4.1001,-0.74242 -8.2721,-2.09571 -11.3945,-3.27735 -1.2077,-0.45703 -4.556,-2.70925 -8.5254,-5.73242 -3.9694,-3.02317 -8.7167,-6.84958 -13.3555,-10.61719 -4.6387,-3.7676 -9.1697,-7.47671 -12.7226,-10.28125 -1.7765,-1.40227 -3.3059,-2.57761 -4.4981,-3.42968 -0.596,-0.42604 -1.1064,-0.76957 -1.5371,-1.0293 -0.4307,-0.25973 -0.6937,-0.45362 -1.2265,-0.54102 -0.9972,-0.16354 -2.3393,-0.0363 -4.0918,0.15235 -1.7526,0.1887 -3.8181,0.47476 -5.834,0.76172 -2.016,0.28695 -3.983,0.57468 -5.5078,0.76172 -0.7624,0.0935 -1.4151,0.16034 -1.8926,0.1914 -0.4775,0.0311 -0.9089,-0.0601 -0.6406,0.0273 -0.4029,-0.13126 -2.0726,-0.91888 -4.1211,-2.06055 -2.0486,-1.14167 -4.5852,-2.66264 -7.1406,-4.3711 -5.6323,-3.76542 -13.7891,-3.00585 -13.7891,-3.00585 z"
             id="path41887"
             transform="translate(-2014.3601,1432.2513)" /><path
             style="color:#000000;fill:#000000;stroke-width:0.5;stroke-linecap:round;stroke-linejoin:round;-inkscape-stroke:none;paint-order:fill markers stroke"
             d="m 1245.8652,705.80078 c -2.6536,-0.15744 -5.0518,0.52313 -7.0078,1.51953 -3.9119,1.99281 -6.2676,5.15821 -6.2676,5.15821 a 1.0585001,1.0585001 0 0 0 0.211,1.48046 1.0585001,1.0585001 0 0 0 1.4805,-0.21093 c 0,0 2.128,-2.80634 5.5371,-4.54297 3.409,-1.73664 7.8891,-2.49455 13.2773,1.76367 a 1.0585001,1.0585001 0 0 0 1.4863,-0.17383 1.0585001,1.0585001 0 0 0 -0.1738,-1.48633 c -2.9798,-2.35493 -5.8894,-3.35036 -8.543,-3.50781 z"
             id="path41889"
             transform="translate(-2014.3601,1432.2513)" /><path
             style="color:#000000;fill:#000000;stroke-width:0.5;stroke-linecap:round;stroke-linejoin:round;-inkscape-stroke:none;paint-order:fill markers stroke"
             d="m 1502.3242,675.19531 c -0.3587,-0.025 -0.7245,0.0431 -0.9961,0.21485 -0.5432,0.34352 -0.8469,0.83376 -1.1426,1.45507 -0.073,0.15311 -0.9881,1.36945 -2.2988,2.8125 -1.3107,1.44306 -3.0645,3.27645 -5.0449,5.30664 -3.9608,4.06039 -8.8267,8.91491 -12.9199,13.11719 -7.9816,8.19431 -19.9053,14.15324 -37.4395,18.95899 -18.1944,4.98666 -26.9394,23.44922 -26.9394,23.44922 a 1.0585001,1.0585001 0 0 0 0.498,1.4121 1.0585001,1.0585001 0 0 0 1.4102,-0.49804 c 0,0 8.5237,-17.64235 25.5918,-22.32031 17.7281,-4.85891 30.0383,-10.94446 38.3965,-19.5254 4.0767,-4.18535 8.941,-9.03832 12.9179,-13.11523 1.9885,-2.03846 3.7546,-3.88259 5.0977,-5.36133 1.3431,-1.47873 2.2148,-2.42914 2.6426,-3.32812 0.035,-0.0736 0.029,-0.0387 0.062,-0.0977 0.01,0.0148 0,0.006 0.01,0.0215 0.1292,0.38474 0.2508,0.94926 0.3281,1.65234 0.1721,1.56293 0.432,3.13752 0.3028,4.60742 -0.1292,1.4699 -0.5875,2.82104 -1.9551,4.17578 a 1.0585001,1.0585001 0 0 0 -0.01,1.4961 1.0585001,1.0585001 0 0 0 1.4961,0.008 c 1.7234,-1.70717 2.4133,-3.66464 2.5743,-5.4961 0.1609,-1.83145 -0.1449,-3.55153 -0.3067,-5.02148 -0.09,-0.81337 -0.2285,-1.50818 -0.4258,-2.0957 -0.1973,-0.58752 -0.4251,-1.08702 -0.9043,-1.48633 -0.2395,-0.19966 -0.5904,-0.31684 -0.9492,-0.3418 z"
             id="path41891"
             transform="translate(-2014.3601,1432.2513)" /><path
             style="color:#000000;fill:#000000;stroke-width:0.5;stroke-linecap:round;stroke-linejoin:round;-inkscape-stroke:none;paint-order:fill markers stroke"
             d="m 1524.7891,679.54883 c 0,0 -15.1862,7.509 -19.5176,9.26953 -4.2266,1.71792 -13.8653,3.48047 -13.8652,3.48047 a 1.0585001,1.0585001 0 0 0 -0.8555,1.22656 1.0585001,1.0585001 0 0 0 1.2285,0.85742 c 0,0 9.5186,-1.66452 14.2891,-3.60351 4.6655,-1.89633 19.6601,-9.33399 19.6601,-9.33399 a 1.0585001,1.0585001 0 0 0 0.4785,-1.41797 1.0585001,1.0585001 0 0 0 -1.4179,-0.47851 z"
             id="path41893"
             transform="translate(-2014.3601,1432.2513)" /><path
             style="color:#000000;fill:#000000;stroke-width:0.5;stroke-linecap:round;stroke-linejoin:round;-inkscape-stroke:none;paint-order:fill markers stroke"
             d="m 1529.3164,685.66602 c -1.2249,0.1158 -2.5421,0.42783 -3.9258,0.84179 -2.7672,0.82792 -5.7914,2.1377 -8.6386,3.52149 -2.8473,1.38378 -5.5144,2.84321 -7.5274,3.96679 -1.0065,0.5618 -1.8505,1.0399 -2.4629,1.37891 -0.3062,0.1695 -0.5557,0.30407 -0.7285,0.39258 -0.1728,0.0885 -0.405,0.13875 -0.1191,0.0781 a 1.0585001,1.0585001 0 0 0 -0.8164,1.25391 1.0585001,1.0585001 0 0 0 1.2558,0.81641 c 0.4056,-0.086 0.432,-0.1548 0.6445,-0.26368 0.2126,-0.10888 0.4743,-0.25149 0.7891,-0.42578 0.6297,-0.34858 1.4693,-0.82495 2.4688,-1.38281 1.9989,-1.11571 4.6333,-2.55491 7.4218,-3.91016 2.7886,-1.35525 5.7351,-2.6236 8.3184,-3.39648 2.5833,-0.77288 4.8059,-0.97122 5.9453,-0.54688 a 1.0585001,1.0585001 0 0 0 1.3633,-0.62304 1.0585001,1.0585001 0 0 0 -0.6231,-1.36133 c -1.0083,-0.37555 -2.1403,-0.45565 -3.3652,-0.33984 z"
             id="path41895"
             transform="translate(-2014.3601,1432.2513)" /><path
             style="color:#000000;fill:#000000;stroke-width:0.5;stroke-linecap:round;stroke-linejoin:round;-inkscape-stroke:none;paint-order:fill markers stroke"
             d="m 1525.332,695.46289 c -3.0184,-0.24867 -7.2869,1.17936 -11.0117,2.5918 -3.7248,1.41243 -6.7988,2.87695 -6.7988,2.87695 a 1.0585001,1.0585001 0 0 0 -0.5,1.41016 1.0585001,1.0585001 0 0 0 1.4101,0.50195 c 0,0 3.0063,-1.43121 6.6387,-2.80859 3.6324,-1.37739 7.9983,-2.63504 10.0879,-2.46289 a 1.0585001,1.0585001 0 0 0 1.1406,-0.9668 1.0585001,1.0585001 0 0 0 -0.9668,-1.14258 z"
             id="path41897"
             transform="translate(-2014.3601,1432.2513)" /><path
             style="color:#000000;fill:#000000;stroke-width:0.5;stroke-linecap:round;stroke-linejoin:round;-inkscape-stroke:none;paint-order:fill markers stroke"
             d="m 1523.5859,703.67969 c 0,0 -12.8978,2.58499 -17.0839,3.3789 -0.826,0.15664 -2.766,0.18984 -5.0372,0.0937 -2.2711,-0.0961 -4.9296,-0.29879 -7.4589,-0.52734 -5.0588,-0.4571 -9.5977,-1.01367 -9.5977,-1.01367 a 1.0586059,1.0586059 0 0 0 -1.0781,0.58203 c -4.2777,8.65842 -17.0451,23.32161 -30.7324,34.0625 -6.8437,5.37045 -13.93,9.78087 -20.2442,12.05859 -6.3142,2.27772 -11.7113,2.40545 -15.5508,-0.40429 a 1.0585001,1.0585001 0 0 0 -1.4785,0.22851 1.0585001,1.0585001 0 0 0 0.2285,1.48047 c 4.6229,3.38303 10.8616,3.08658 17.5176,0.68555 6.6561,-2.40104 13.8763,-6.92481 20.834,-12.38477 13.6253,-10.69219 26.0911,-24.82845 30.918,-34.13672 0.5725,0.0695 4.2493,0.5205 8.9941,0.94922 2.5496,0.23038 5.2334,0.4367 7.5606,0.53516 2.3271,0.0985 4.2412,0.11351 5.5195,-0.12891 4.2304,-0.80231 17.1055,-3.38476 17.1055,-3.38476 a 1.0585001,1.0585001 0 0 0 0.83,-1.24414 1.0585001,1.0585001 0 0 0 -1.2461,-0.83008 z"
             id="path41899"
             transform="translate(-2014.3601,1432.2513)" /><path
             style="color:#000000;fill:#000000;stroke-width:0.5;stroke-linecap:round;stroke-linejoin:round;-inkscape-stroke:none;paint-order:fill markers stroke"
             d="m 1493.623,696.63477 c -0.9225,-0.0958 -1.8343,-0.0657 -2.6972,0.0547 -1.7258,0.24077 -3.2885,0.80493 -4.5254,1.40821 -1.2369,0.60327 -2.0945,1.15564 -2.6367,1.76562 a 1.0585001,1.0585001 0 0 0 0.088,1.49414 1.0585001,1.0585001 0 0 0 1.4941,-0.0879 c 0.096,-0.10835 0.9134,-0.74816 1.9824,-1.26953 1.069,-0.52137 2.4439,-1.01301 3.8907,-1.21484 2.8935,-0.40367 5.9585,0.17472 8.2597,4.02343 a 1.0585001,1.0585001 0 0 0 1.4512,0.36524 1.0585001,1.0585001 0 0 0 0.3652,-1.45313 c -2.0289,-3.39329 -4.9042,-4.7986 -7.6719,-5.08593 z"
             id="path41901"
             transform="translate(-2014.3601,1432.2513)" /><path
             style="color:#000000;fill:#000000;stroke-width:0.5;stroke-linecap:round;stroke-linejoin:round;-inkscape-stroke:none;paint-order:fill markers stroke"
             d="m 1321.8242,786.47852 a 1.0585001,1.0585001 0 0 0 -1.1074,1.00585 c -0.041,0.84392 0.2616,1.40931 0.5488,2.20313 0.2873,0.79382 0.6207,1.70023 0.8457,2.62891 0.4501,1.85735 0.4968,3.60274 -0.9062,4.98828 -1.6705,1.64961 -2.7853,2.22097 -3.6035,3.19726 -0.4092,0.48815 -0.6878,1.2105 -0.6328,1.91602 0.055,0.70552 0.3182,1.37211 0.7265,2.24219 0.068,0.14559 0.2791,0.95614 0.4238,2.02734 0.1448,1.0712 0.2726,2.45843 0.3829,4.03516 0.2205,3.15344 0.3723,7.0736 0.4746,10.89257 0.2045,7.63794 0.2148,14.86915 0.2148,14.86914 a 1.0585001,1.0585001 0 0 0 1.0606,1.05665 1.0585001,1.0585001 0 0 0 1.0566,-1.0586 c 0,0 -0.01,-7.25218 -0.2148,-14.92383 -0.1028,-3.83582 -0.2542,-7.77636 -0.4786,-10.98437 -0.1121,-1.60401 -0.2436,-3.02381 -0.3984,-4.16992 -0.1549,-1.14611 -0.2837,-1.96297 -0.6035,-2.64453 -0.3681,-0.78425 -0.516,-1.28491 -0.5332,-1.50586 -0.017,-0.22096 -0.029,-0.18404 0.1445,-0.39063 0.3463,-0.41318 1.6546,-1.26314 3.4668,-3.05273 2.0796,-2.05367 2.0042,-4.82261 1.4785,-6.99219 -0.2628,-1.08479 -0.6312,-2.06998 -0.914,-2.85156 -0.2829,-0.78158 -0.4192,-1.47549 -0.4239,-1.37891 a 1.0585001,1.0585001 0 0 0 -1.0078,-1.10937 z"
             id="path41903"
             transform="translate(-2014.3601,1432.2513)" /><path
             style="color:#000000;fill:#000000;stroke-width:0.5;stroke-linecap:round;stroke-linejoin:round;-inkscape-stroke:none;paint-order:fill markers stroke"
             d="m 1413.9414,785.92969 a 1.0585001,1.0585001 0 0 0 -1.1465,0.96289 c -0.2318,2.64336 -0.4551,11.76172 -0.4551,11.76172 a 1.0586059,1.0586059 0 0 0 0.9395,1.07812 c 0,0 1.8138,0.22287 3.3379,0.89258 0.762,0.33486 1.4123,0.78133 1.7324,1.22656 0.3202,0.44524 0.4406,0.8309 0.1387,1.63867 -0.7355,1.96774 -2.0049,3.63666 -3.1621,5.06836 -0.5786,0.71586 -1.126,1.36869 -1.5703,2.00782 -0.4444,0.63912 -0.8268,1.2638 -0.8907,2.0625 -0.04,0.49586 0.039,0.91329 0.1446,1.57226 0.1059,0.65898 0.2622,1.47835 0.4511,2.41211 0.3778,1.86751 0.8899,4.1909 1.3985,6.52149 0.5085,2.33058 1.0129,4.66721 1.375,6.53906 0.181,0.93592 0.327,1.75701 0.4179,2.39062 0.091,0.63362 0.1076,1.14178 0.1055,1.16211 a 1.0585001,1.0585001 0 0 0 0.9434,1.16016 1.0585001,1.0585001 0 0 0 1.1621,-0.94336 c 0.052,-0.50933 -0.016,-0.98806 -0.1153,-1.67969 -0.099,-0.69163 -0.2508,-1.53536 -0.4355,-2.49023 -0.3694,-1.90975 -0.8757,-4.25681 -1.3848,-6.58985 -0.509,-2.33303 -1.0208,-4.65233 -1.3925,-6.49023 -0.1859,-0.91895 -0.3377,-1.71899 -0.4356,-2.32813 -0.098,-0.60913 -0.1196,-1.10879 -0.123,-1.0664 0.01,-0.10827 0.1579,-0.50618 0.5175,-1.02344 0.3597,-0.51726 0.8872,-1.15505 1.4786,-1.88672 1.1827,-1.46333 2.6226,-3.31409 3.498,-5.65625 0.5035,-1.34717 0.2665,-2.687 -0.4023,-3.61719 -0.6689,-0.93018 -1.6403,-1.50813 -2.5996,-1.92968 -1.4473,-0.63597 -2.325,-0.69875 -2.9805,-0.79688 0.03,-1.14318 0.225,-8.65419 0.414,-10.81055 a 1.0585001,1.0585001 0 0 0 -0.9609,-1.14843 z"
             id="path41905"
             transform="translate(-2014.3601,1432.2513)" /><path
             style="color:#000000;fill:#000000;stroke-width:0.5;stroke-linecap:round;stroke-linejoin:round;-inkscape-stroke:none;paint-order:fill markers stroke"
             d="m 1372.1113,832.40039 c -1.8667,-0.28141 -3.8652,0.39925 -5.9336,1.94336 -2.0684,1.54411 -4.2765,3.96866 -6.7382,7.43164 a 1.0585001,1.0585001 0 0 0 0.25,1.47656 1.0585001,1.0585001 0 0 0 1.4746,-0.25 c 2.3841,-3.35374 4.4909,-5.62639 6.2812,-6.96289 1.7903,-1.33649 3.1943,-1.71909 4.3496,-1.54492 1.1553,0.17417 2.2366,0.93183 3.3028,2.38867 1.0661,1.45685 2.056,3.57648 2.9355,6.17969 a 1.0585001,1.0585001 0 0 0 1.3418,0.66406 1.0585001,1.0585001 0 0 0 0.6641,-1.34179 c -0.9206,-2.72495 -1.9628,-5.01697 -3.2325,-6.75196 -1.2696,-1.73499 -2.8286,-2.951 -4.6953,-3.23242 z"
             id="path41907"
             transform="translate(-2014.3601,1432.2513)" /><path
             style="fill:#000000;stroke-width:1.0585;stroke-linecap:round;stroke-linejoin:round;paint-order:fill markers stroke"
             d="m 1380.7779,792.46581 0.3193,11.50033 c 0,0 11.6743,0.37732 11.6453,-0.74734 -0.029,-1.12464 0.2031,-12.24767 0.2031,-12.24767 0,0 3.2651,-0.4789 3.236,0.2612 -0.029,0.74009 -0.1959,12.54516 -0.1959,12.54516 0,0 14.0688,-2.00258 14.1486,-3.08366 0.08,-1.08112 0.2467,-12.001 0.2467,-12.001 l 1.7703,-0.312 1.5237,-0.17415 -0.5441,-2.18397 -32.5852,4.9194 z"
             id="path41909"
             transform="translate(-2014.3601,1432.2513)" /><path
             style="fill:#000000;stroke-width:1.0585;stroke-linecap:round;stroke-linejoin:round;paint-order:fill markers stroke"
             d="m 1323.0954,797.62463 c 0,0 7.5314,3.09093 7.4661,2.57579 -0.065,-0.51517 0,-8.48195 0,-8.48195 l 2.1259,0.35552 0.4644,9.4107 11.4566,2.3581 0.4572,-10.47001 2.3145,0.55869 0.043,10.52807 11.9936,-0.0363 0.8852,-12.02274 -17.2322,-1.50196 c 0,0 -16.5065,-2.38713 -16.9564,-2.44518 -0.4499,-0.0581 -4.5638,-1.79943 -4.5638,-1.79943 0,0 1.1464,4.32443 1.3205,4.91215 0.1741,0.58772 0.5877,4.15753 0.5877,4.15753 z"
             id="path41911"
             transform="translate(-2014.3601,1432.2513)" /><path
             style="color:#000000;fill:#000000;fill-rule:evenodd;stroke-width:0.5;-inkscape-stroke:none"
             d="m 1362.5449,791.16797 c -2.0392,0 -3.7148,1.67563 -3.7148,3.71484 v 8.17578 c 0,2.03922 1.6756,3.71485 3.7148,3.71485 h 15.9102 c 2.0392,0 3.7148,-1.67563 3.7148,-3.71485 v -8.17578 c 0,-2.03921 -1.6756,-3.71484 -3.7148,-3.71484 z m 0,2.11719 h 15.9102 c 0.9032,0 1.5976,0.69447 1.5976,1.59765 v 8.17578 c 0,0.9032 -0.6944,1.59766 -1.5976,1.59766 h -15.9102 c -0.9032,0 -1.5976,-0.69446 -1.5976,-1.59766 v -8.17578 c 0,-0.90318 0.6944,-1.59765 1.5976,-1.59765 z"
             id="rect41913"
             transform="translate(-2014.3601,1432.2513)" /><path
             id="path41915"
             style="color:#000000;fill:#000000;fill-rule:evenodd;stroke-width:0.5;-inkscape-stroke:none"
             d="m 1279.0979,500.98803 c -12.4376,0 -22.4844,10.05558 -22.4844,22.50394 v 176.57706 l 2.1172,2.23075 V 523.49197 c 0,-11.31135 9.0656,-20.38491 20.3672,-20.38491 h 181.4959 c 11.3015,0 20.3672,9.07356 20.3672,20.38491 v 175.08852 c 0.1771,-0.16049 0.3547,-0.31818 0.5183,-0.45772 l 0.037,-0.44274 1.5596,-1.96955 V 523.49197 c 0,-12.44836 -10.0447,-22.50394 -22.4823,-22.50394 z m 203.9782,209.87058 -2.1151,1.65096 v 172.32349 c 0,11.31139 -9.0657,20.38492 -20.3672,20.38492 h -181.4959 c -11.3016,0 -20.3672,-9.07353 -20.3672,-20.38492 V 723.55257 l -2.1172,-1.49111 v 162.7716 c 0,12.4484 10.0468,22.50396 22.4844,22.50396 h 181.4959 c 12.4376,0 22.4823,-10.05556 22.4823,-22.50396 z"
             transform="translate(-2014.3601,1432.2513)" /><path
             style="color:#000000;fill:#000000;fill-rule:evenodd;stroke-width:0.5;-inkscape-stroke:none"
             d="m 1286.2598,860.19922 c -9.311,0 -16.8399,7.5288 -16.8399,16.83984 0,9.31104 7.5289,16.83985 16.8399,16.83985 h 133.0664 c 9.311,0 16.8398,-7.5288 16.8398,-16.83985 0,-9.31104 -7.5288,-16.83984 -16.8398,-16.83984 z m 0,2.11719 h 133.0664 c 8.175,0 14.7226,6.54764 14.7226,14.72265 0,8.17502 -6.5476,14.72461 -14.7226,14.72461 h -133.0664 c -8.175,0 -14.7227,-6.54958 -14.7227,-14.72461 0,-8.17502 6.5477,-14.72265 14.7227,-14.72265 z"
             id="rect41917"
             transform="translate(-2014.3601,1432.2513)" /><g
             id="path41919"
             style="stroke-width:0.5"><path
               style="color:#000000;fill:#6b37f4;stroke-width:1.05833;stroke-linecap:round;stroke-linejoin:round;-inkscape-stroke:none;paint-order:fill markers stroke"
               d="m -723.7052,1958.9273 h 156.39"
               id="path75047" /><path
               style="color:#000000;fill:#000000;stroke-width:0.5;stroke-linecap:round;stroke-linejoin:round;-inkscape-stroke:none;paint-order:fill markers stroke"
               d="m -723.70508,1957.8691 a 1.0583349,1.0583349 0 0 0 -1.05859,1.0586 1.0583349,1.0583349 0 0 0 1.05859,1.0586 h 156.39063 a 1.0583349,1.0583349 0 0 0 1.05664,-1.0586 1.0583349,1.0583349 0 0 0 -1.05664,-1.0586 z"
               id="path75049" /></g><path
             style="fill:#000000;stroke-width:0.499999"
             d="m 1456.1849,780.00933 c -4.7192,-3.8712 -6.1951,-5.56916 -6.7737,-7.79331 -0.7396,-2.84174 0.709,-5.39605 3.3738,-5.94926 1.8352,-0.38099 4.1524,0.50441 5.0988,1.94834 l 0.4612,0.70344 0.6397,-0.83812 c 1.7225,-2.25636 5.5174,-2.52675 7.3383,-0.52288 0.9303,1.02384 1.1739,1.8171 1.0762,3.5051 -0.1213,2.08004 -0.7982,3.36267 -2.8696,5.42994 -2.0732,2.0691 -5.7201,5.00365 -6.1952,4.98503 -0.2077,-0.008 -1.1749,-0.66887 -2.1495,-1.46828 z"
             id="path41921"
             transform="translate(-2014.3601,1432.2513)" /><g
             id="g41935"
             transform="matrix(-0.76092047,0,0,0.75869342,377.99201,1587.5324)"
             style="stroke-width:0.658065"><path
               style="color:#000000;fill:#000000;stroke-width:0.658065;stroke-linecap:round;stroke-linejoin:round;-inkscape-stroke:none;paint-order:fill markers stroke"
               d="m 1442.7324,615.82227 c -8.9124,1.00956 -17.6686,7.11487 -23.6816,18.38281 l -18.4649,4.33594 a 1.3930393,1.3930393 0 0 0 -0.096,2.6875 l 16.5743,5.13867 c 0.2597,6.12945 3.3958,12.07503 7.7734,16.63086 4.6379,4.8267 10.58,8.1913 16.1543,8.32812 11.0559,0.27139 20.9964,-6.45703 26.4902,-15.29492 5.4831,-8.8205 6.5482,-20.03835 -0.5176,-28.4375 -6.0987,-8.58589 -15.163,-12.79882 -24.2324,-11.77148 z m 0.3125,2.76757 c 8.0416,-0.91091 16.082,2.74341 21.6817,10.65625 a 1.3930393,1.3930393 0 0 0 0.074,0.0957 c 6.2377,7.37153 5.3465,17.12688 0.3164,25.21875 -5.0301,8.09187 -14.1821,14.22285 -24.0567,13.98047 -4.4604,-0.10949 -9.9646,-3.05151 -14.2128,-7.47266 -4.2483,-4.42115 -7.2103,-10.23503 -7.1192,-15.74024 a 1.3930393,1.3930393 0 0 0 -0.9805,-1.35351 l -12.5429,-3.89063 14.0176,-3.29296 a 1.3930393,1.3930393 0 0 0 0.9199,-0.71875 c 5.6917,-11.06068 13.8608,-16.57151 21.9023,-17.48243 z"
               id="path41923" /><path
               style="color:#000000;fill:#000000;stroke-width:0.658065;stroke-linecap:round;stroke-linejoin:round;-inkscape-stroke:none;paint-order:fill markers stroke"
               d="m 1432.4277,626.54687 c -0.6988,0.21095 -1.1173,0.55405 -1.5507,0.83399 -0.3065,0.19792 -0.7221,0.38015 -1.2286,0.70898 -0.5064,0.32884 -1.0915,0.86257 -1.457,1.62305 a 1.3929,1.3929 0 0 0 0.6504,1.85938 1.3929,1.3929 0 0 0 1.8594,-0.65235 c 0.1187,-0.24711 0.2083,-0.32562 0.4648,-0.49219 0.2565,-0.16656 0.6914,-0.36396 1.2227,-0.70703 0.4984,-0.32189 0.7847,-0.48942 0.8457,-0.50781 0.061,-0.0184 0,-0.0657 0.3847,0.10742 0.1216,0.0551 0.5266,0.36572 1.0645,0.71875 0.5379,0.35304 1.3592,0.79839 2.3828,0.63477 1.9417,-0.31041 3.7053,-0.87688 5.3633,-1.08985 0.7939,-0.10198 1.7216,-0.0104 2.707,0.12891 0.1591,0.0225 0.5181,0.21068 1.0586,0.54492 0.5405,0.33425 1.3216,0.82965 2.3965,0.78711 1.1201,-0.0444 1.8065,-0.56371 2.1738,-0.7207 0.9179,-0.39225 1.7963,-0.62389 2.5157,-0.52539 0.5068,0.0694 1.2437,0.53356 2.4472,0.80078 1.1843,0.26293 2.1948,-0.02 2.9922,-0.24024 a 1.3929,1.3929 0 0 0 0.9707,-1.71289 1.3929,1.3929 0 0 0 -1.7129,-0.97265 c -0.7818,0.21595 -1.1855,0.30936 -1.6465,0.20703 -0.5604,-0.12444 -1.377,-0.66419 -2.6738,-0.8418 -1.5205,-0.2082 -2.8776,0.24882 -3.9863,0.72266 -0.6958,0.29735 -1.1278,0.49756 -1.1895,0.5 -0.1006,0.004 -0.3437,-0.0771 -0.8222,-0.37305 -0.4786,-0.29593 -1.134,-0.79246 -2.1329,-0.93359 -1.0374,-0.1467 -2.2078,-0.29278 -3.4531,-0.13281 -1.9998,0.25687 -3.7932,0.83713 -5.4472,1.10156 0.014,-0.002 -0.083,0.006 -0.4161,-0.21289 -0.3327,-0.2184 -0.7486,-0.61373 -1.4414,-0.92774 -0.7692,-0.34861 -1.6429,-0.44727 -2.3418,-0.23633 z"
               id="path41925" /><path
               style="color:#000000;fill:#000000;stroke-width:0.658065;stroke-linecap:round;stroke-linejoin:round;-inkscape-stroke:none;paint-order:fill markers stroke"
               d="m 1430.6113,635.88867 c -1.0909,-0.0842 -1.9189,0.2316 -2.5,0.35547 -0.3426,0.073 -0.8009,0.10259 -1.3828,0.25586 -0.5819,0.15327 -1.3132,0.50889 -1.8359,1.16016 a 1.3929,1.3929 0 0 0 0.2129,1.95703 1.3929,1.3929 0 0 0 1.959,-0.21485 c 0.108,-0.13466 0.1299,-0.14494 0.373,-0.20898 0.2431,-0.064 0.6808,-0.10244 1.2539,-0.22461 0.8068,-0.17199 1.349,-0.33022 1.7051,-0.30273 0.6549,0.0506 1.3514,0.41759 2.2402,0.94335 0.8888,0.52577 1.9624,1.21121 3.3926,1.35743 2.4399,0.24945 4.2358,-0.95436 5.5195,-1.08203 0.5985,-0.0595 1.2028,0.11532 2.0215,0.39453 0.8187,0.2792 1.8464,0.66881 3.1133,0.58007 2.6621,-0.18648 4.42,-1.49071 6.1387,-1.51953 0.7481,-0.0125 1.5704,0.4322 2.7832,0.84961 1.2128,0.41741 3.0332,0.519 4.6328,-0.70312 a 1.3929,1.3929 0 0 0 0.2617,-1.95117 1.3929,1.3929 0 0 0 -1.9531,-0.26172 c -0.9243,0.7062 -1.1866,0.57261 -2.0332,0.28125 -0.8466,-0.29137 -2.0606,-1.02808 -3.7383,-1 -2.792,0.0468 -4.6617,1.41167 -6.2852,1.52539 -0.5695,0.0399 -1.1843,-0.152 -2.0214,-0.4375 -0.8372,-0.28551 -1.9037,-0.65778 -3.1954,-0.5293 -2.2427,0.22305 -3.8056,1.20016 -4.9609,1.08203 -0.6491,-0.0664 -1.3584,-0.45035 -2.2578,-0.98242 -0.8994,-0.53207 -1.9949,-1.21239 -3.4434,-1.32422 z"
               id="path41927" /><path
               style="color:#000000;fill:#000000;stroke-width:0.658065;stroke-linecap:round;stroke-linejoin:round;-inkscape-stroke:none;paint-order:fill markers stroke"
               d="m 1443.6133,645.23828 c -0.5183,0.0276 -1.0376,0.14927 -1.5781,0.39844 -0.5406,0.24917 -1.1535,0.62903 -1.5039,1.41406 -0.2819,0.63122 -0.2507,1.05477 -0.2696,1.14649 a 1.3929,1.3929 0 0 0 1.084,1.64648 1.3929,1.3929 0 0 0 1.6445,-1.08398 c 0.099,-0.48137 0.1273,-0.66913 0.084,-0.57227 -0.071,0.15878 -0.05,0.0599 0.127,-0.0215 0.1766,-0.0814 0.4576,-0.14101 0.5605,-0.14649 0.1204,-0.006 0.3811,0.0931 1,0.32227 0.8003,0.29634 1.7686,0.68745 2.9082,0.7832 1.0468,0.088 1.8978,-0.25172 2.5254,-0.51563 0.6277,-0.2639 1.0664,-0.44631 1.4141,-0.4746 0.2901,-0.0236 0.5102,0.0417 0.9219,0.23632 0.4116,0.19462 0.9602,0.53478 1.7304,0.76563 1.3041,0.39086 2.5869,0.0163 3.5371,-0.53516 0.3153,-0.18302 0.251,-0.16823 0.3848,-0.25976 0.084,-0.0577 0.1712,-0.11068 0.2598,-0.16602 a 1.3929,1.3929 0 0 0 0.047,0.0527 1.3929,1.3929 0 0 0 1.4883,-1.29102 c 0.024,-0.3304 -0.087,-0.95758 -0.5683,-1.33984 -0.4815,-0.38227 -0.9543,-0.34994 -1.2149,-0.3125 -0.5212,0.0749 -0.7258,0.23129 -0.9668,0.36718 -0.241,0.13589 -0.4538,0.27752 -0.6191,0.39063 -0.1654,0.1131 -0.4548,0.29111 -0.209,0.14844 -0.6211,0.36043 -0.8424,0.42586 -1.3379,0.27734 -0.3461,-0.10373 -0.7597,-0.34201 -1.3418,-0.61719 -0.5821,-0.27518 -1.3866,-0.57138 -2.3359,-0.49414 -0.9807,0.0798 -1.7151,0.45046 -2.2696,0.6836 -0.5545,0.23313 -0.8955,0.33527 -1.2129,0.30859 -0.5952,-0.05 -1.3559,-0.31824 -2.1738,-0.62109 -0.4118,-0.15251 -1.106,-0.54402 -2.1152,-0.49024 z m 13.5879,1.5 a 1.3929,1.3929 0 0 0 1.041,1.20313 c -0.1762,-0.0119 -0.3096,0.0402 -0.5645,-0.16211 -0.4128,-0.32773 -0.4896,-0.85861 -0.4765,-1.04102 z"
               id="path41929" /><path
               style="color:#000000;fill:#000000;stroke-width:0.658065;stroke-linecap:round;stroke-linejoin:round;-inkscape-stroke:none;paint-order:fill markers stroke"
               d="m 1431.1406,653.18359 c -1.1828,0.0832 -2.3685,0.29439 -3.5429,0.67578 a 1.3929,1.3929 0 0 0 -0.8946,1.75586 1.3929,1.3929 0 0 0 1.7539,0.89454 c 1.8754,-0.60904 3.8487,-0.69393 5.8985,-0.46485 1.3584,0.15179 2.3814,0.27219 3.2304,0.79688 0.4388,0.27116 1.008,0.83972 1.7188,1.4414 0.7108,0.60168 1.645,1.27542 2.9043,1.39258 1.2352,0.11493 2.2777,-0.28162 3.1308,-0.64453 0.8532,-0.36291 1.5646,-0.69955 2.1133,-0.80469 1.2278,-0.23524 2.6724,0.56291 4.9121,0.59571 1.7167,0.025 3.0326,-0.58443 4.1153,-0.80079 0.3828,-0.0765 1.2713,-0.1582 1.5859,-0.1582 a 1.3929,1.3929 0 0 0 1.3926,-1.39258 1.3929,1.3929 0 0 0 -1.3926,-1.39258 c -0.619,0 -1.4403,0.073 -2.1309,0.21094 -1.4856,0.29689 -2.5873,0.7618 -3.5292,0.74805 -1.3391,-0.0196 -3.085,-1.00513 -5.4766,-0.54688 -1.0816,0.20724 -1.9415,0.66452 -2.6797,0.97852 -0.7382,0.314 -1.3078,0.47783 -1.7832,0.43359 -0.3877,-0.0361 -0.8055,-0.27196 -1.3633,-0.74414 -0.5578,-0.47218 -1.1747,-1.1429 -2.0527,-1.68554 -1.5066,-0.93099 -3.0616,-1.0492 -4.3867,-1.19727 -1.1614,-0.12979 -2.3407,-0.175 -3.5235,-0.0918 z"
               id="path41931" /><path
               style="color:#000000;fill:#000000;stroke-width:0.658065;stroke-linecap:round;stroke-linejoin:round;-inkscape-stroke:none;paint-order:fill markers stroke"
               d="m 1446.6934,661.7168 c -1.0312,0.0874 -1.8492,0.46458 -2.5176,0.75195 -0.6685,0.28737 -1.1864,0.48461 -1.6172,0.51367 -0.1997,0.0135 -0.3729,-0.0376 -0.7422,-0.23047 -0.3692,-0.19286 -0.8693,-0.53563 -1.5918,-0.77734 -0.8342,-0.27917 -1.5968,-0.24762 -2.4609,-0.18945 -0.8641,0.0582 -1.6348,0.10222 -2.4785,0.58203 -0.4346,0.24708 -0.736,0.49575 -0.9629,0.65039 a 1.3929,1.3929 0 0 0 -0.3672,1.93554 1.3929,1.3929 0 0 0 1.9355,0.36524 c 0.3509,-0.23906 0.5981,-0.43068 0.7715,-0.5293 -0.092,0.0525 0.6387,-0.18083 1.2891,-0.22461 0.6503,-0.0438 1.4158,0.0592 1.3906,0.0508 0.2727,0.0913 0.648,0.32468 1.1855,0.60547 0.5376,0.28079 1.3012,0.60292 2.2188,0.54102 1.0351,-0.0698 1.8572,-0.44459 2.5312,-0.73438 0.6741,-0.28978 1.2031,-0.49724 1.6504,-0.53515 0.3727,-0.0316 0.8741,0.0539 1.5391,0.14258 0.665,0.0887 1.5307,0.16745 2.4629,-0.1543 a 1.3929,1.3929 0 0 0 0.8613,-1.77149 1.3929,1.3929 0 0 0 -1.7715,-0.86132 c -0.2935,0.10132 -0.6355,0.0985 -1.1836,0.0254 -0.548,-0.0731 -1.2641,-0.23069 -2.1425,-0.15625 z"
               id="path41933" /></g><path
             style="fill:#000000;stroke-width:0.499999"
             d="m 1457.5553,829.20135 c -3.3913,-0.62118 -5.9864,-2.98628 -6.9458,-6.33051 -0.3152,-1.09839 -0.3152,-3.25945 0,-4.35785 0.881,-3.07091 3.0812,-5.27105 6.1521,-6.15214 1.0984,-0.31515 3.2595,-0.31515 4.3579,0 3.0708,0.88109 5.271,3.08123 6.1521,6.15214 0.181,0.63104 0.2184,1.00412 0.2184,2.17893 0,1.51195 -0.1427,2.25609 -0.658,3.43209 l -0.2307,0.5262 0.486,1.94236 c 0.5297,2.11702 0.5331,2.3248 0.042,2.60028 -0.2477,0.13897 -0.3919,0.11682 -2.249,-0.34526 l -1.9842,-0.49376 -0.5213,0.22843 c -1.0246,0.44903 -1.8617,0.62636 -3.1413,0.6654 -0.6721,0.0205 -1.4274,-2.9e-4 -1.6786,-0.0462 z m 3.1938,-1.7218 c 0.3226,-0.086 0.8568,-0.28457 1.1871,-0.44139 0.3302,-0.15682 0.7262,-0.28466 0.8799,-0.28408 0.1535,7.4e-4 0.8511,0.14991 1.5501,0.33183 0.699,0.18193 1.2772,0.32444 1.285,0.31668 0.01,-0.008 -0.1348,-0.58602 -0.3166,-1.285 -0.182,-0.69898 -0.3314,-1.39657 -0.3319,-1.55018 0,-0.15362 0.1274,-0.54954 0.2843,-0.87985 1.2701,-2.67284 0.7135,-5.82488 -1.4019,-7.94029 -2.7688,-2.76882 -7.1203,-2.76882 -9.8892,0 -2.7688,2.76881 -2.7688,7.12047 0,9.88929 1.053,1.05299 2.3467,1.73217 3.7947,1.99218 0.6845,0.12291 2.2296,0.0449 2.9585,-0.14919 z"
             id="path41937"
             transform="translate(-2014.3601,1432.2513)" /><path
             style="fill:#000000;stroke-width:0.5"
             d="m 1459.7296,880.42436 c -0.3355,-0.22649 -1.2361,-1.2123 -1.6535,-1.80996 l -0.1743,-0.24955 -1.4345,0.67525 c -2.0985,0.98772 -2.0436,1.06001 -2.2126,-2.91369 -0.054,-1.26476 -0.1,-2.46124 -0.1017,-2.65886 0,-0.19763 -0.065,-0.3792 -0.1408,-0.4035 -0.076,-0.0243 -0.5803,-0.17471 -1.1224,-0.33428 -3.0819,-0.90726 -4.6824,-1.51098 -5.0233,-1.89477 -0.2782,-0.31322 -0.2621,-0.78153 0.035,-1.02223 1.1093,-0.89828 17.7675,-5.14064 20.866,-5.31397 1.0143,-0.0568 1.1102,-0.0444 1.3005,0.16774 0.3736,0.41639 0.2051,1.25055 -0.5634,2.78798 -1.983,3.96767 -7.8369,12.62961 -8.8457,13.08929 -0.3893,0.17738 -0.5132,0.16147 -0.9294,-0.11945 z m 1.9526,-2.87442 c 2.4953,-3.35222 7.0307,-10.58206 7.0307,-11.20778 0,-0.20297 -11.5968,5.68434 -12.7108,6.45282 l -0.2502,0.17264 1.0342,1.57939 c 1.3646,2.08387 2.2807,3.4081 2.8968,4.18739 0.4389,0.55513 0.5263,0.61842 0.6808,0.49276 0.097,-0.0793 0.6908,-0.83406 1.3185,-1.67722 z m -5.3004,0.20721 0.8097,-0.39504 -0.8792,-1.3602 c -0.4835,-0.74812 -0.895,-1.34438 -0.9144,-1.32504 -0.047,0.0466 0.088,3.47533 0.1366,3.47533 0.02,0 0.402,-0.17778 0.8473,-0.39505 z m -0.019,-6.54249 c 1.4936,-0.82708 4.3588,-2.31724 8.0247,-4.17368 1.1443,-0.57947 1.9819,-1.02873 1.8615,-0.99834 -0.1204,0.0303 -1.0283,0.23085 -2.0174,0.44549 -4.2109,0.91379 -14.337,3.61778 -14.6244,3.9052 -0.031,0.031 0.7688,0.31512 1.7773,0.63143 1.0086,0.3163 2.1048,0.66576 2.436,0.77656 0.3313,0.11081 0.7115,0.20536 0.8451,0.21011 0.1334,0.005 0.8972,-0.35379 1.6972,-0.79677 z"
             id="path41939"
             transform="translate(-2014.3601,1432.2513)" /><g
             id="path41941"
             transform="translate(-2014.3601,1432.2513)"
             style="stroke-width:0.5"><path
               style="color:#000000;fill:#000000;stroke-width:1.05833;stroke-linecap:round;stroke-linejoin:round;-inkscape-stroke:none;paint-order:fill markers stroke"
               d="m 1452.9815,792.29533 h 12.3674"
               id="path75083" /><path
               style="color:#000000;fill:#000000;stroke-width:0.5;stroke-linecap:round;stroke-linejoin:round;-inkscape-stroke:none;paint-order:fill markers stroke"
               d="m 1452.9824,791.23633 a 1.0583349,1.0583349 0 0 0 -1.0586,1.05859 1.0583349,1.0583349 0 0 0 1.0586,1.0586 h 12.3672 a 1.0583349,1.0583349 0 0 0 1.0586,-1.0586 1.0583349,1.0583349 0 0 0 -1.0586,-1.05859 z"
               id="path75085" /></g><g
             id="path41943"
             transform="translate(-2014.3601,1432.2513)"
             style="stroke-width:0.5"><path
               style="color:#000000;fill:#000000;stroke-width:1.05833;stroke-linecap:round;stroke-linejoin:round;-inkscape-stroke:none;paint-order:fill markers stroke"
               d="m 1453.4284,840.86526 h 11.4736"
               id="path75089" /><path
               style="color:#000000;fill:#000000;stroke-width:0.5;stroke-linecap:round;stroke-linejoin:round;-inkscape-stroke:none;paint-order:fill markers stroke"
               d="m 1453.4277,839.80664 a 1.0583349,1.0583349 0 0 0 -1.0586,1.05859 1.0583349,1.0583349 0 0 0 1.0586,1.0586 h 11.4746 a 1.0583349,1.0583349 0 0 0 1.0586,-1.0586 1.0583349,1.0583349 0 0 0 -1.0586,-1.05859 z"
               id="path75091" /></g><path
             style="color:#000000;fill:#000000;stroke-width:0.5;stroke-linecap:round;stroke-linejoin:round;-inkscape-stroke:none;paint-order:fill markers stroke"
             d="m -578.40039,2085.2109 c -3.19675,-0.3019 -6.53403,0.4782 -10.21094,1.795 a 1.0583349,1.0583349 0 0 0 -0.64062,1.3535 1.0583349,1.0583349 0 0 0 1.35351,0.6406 c 3.54051,-1.2679 6.58586,-1.9379 9.29883,-1.6816 2.71297,0.2562 5.15034,1.3872 7.67383,3.9726 0.0718,0.075 0.16761,0.2235 0.24219,0.3047 -3.59756,3.3812 -4.53821,8.2636 -3.38086,12.9785 0.35791,1.4583 0.81525,3.7728 2.81054,4.8633 a 1.0584408,1.0584408 0 0 0 0.002,0 c 1.43008,0.7815 3.03163,0.4841 4.28125,-0.1797 1.24962,-0.6638 2.26843,-1.6771 2.89453,-2.7402 1.60692,-2.7285 0.8998,-6.1494 -0.41797,-9.2031 -0.90253,-2.0916 -2.10377,-3.9009 -3.29688,-5.4649 1.50476,-0.9049 3.58319,-1.0844 5.63477,-0.029 2.111,1.0857 4.20421,3.4648 5.36914,7.7422 a 1.0583349,1.0583349 0 0 0 1.29883,0.7422 1.0583349,1.0583349 0 0 0 0.74414,-1.2988 c -1.28298,-4.7109 -3.71617,-7.6658 -6.44336,-9.0684 -2.72719,-1.4026 -5.71588,-1.2302 -7.90039,0.1797 -0.0187,0.012 -0.0264,0.031 -0.0449,0.043 -0.0873,-0.095 -0.18819,-0.2553 -0.27344,-0.3438 a 1.0584408,1.0584408 0 0 0 -0.004,0 c -2.7949,-2.8635 -5.79348,-4.2996 -8.99023,-4.6016 z m 9.00391,8.0176 c 1.06989,1.4239 2.16205,3.079 2.95898,4.9258 1.1912,2.7605 1.5859,5.5083 0.53711,7.2891 -0.39475,0.6702 -1.21073,1.4928 -2.0625,1.9453 -0.85177,0.4524 -1.61812,0.5506 -2.27539,0.1914 -0.88139,-0.4817 -1.41543,-2.069 -1.76953,-3.5117 -1.01754,-4.1454 -0.31113,-8.0422 2.61133,-10.8399 z"
             id="path41945" /><path
             style="fill:#000000;stroke-width:1.05833;stroke-linecap:round;stroke-linejoin:round;paint-order:fill markers stroke"
             d="m -688.89709,2154.1003 c 28.20457,3.3912 55.83667,3.525 82.82577,0 l 2.44179,20.9482 c -31.35349,5.2659 -60.0501,5.4835 -87.91459,0.892 z"
             id="path41947" /></g></g><path
         id="path41953"
         style="opacity:1;vector-effect:none;fill-rule:evenodd;stroke-width:0.09874;stop-color:#000000;stop-opacity:1"
         d="m 1710.0428,1935.0038 h 87.8868 v 4.2071 a 6.5400039,5.1154215 0 0 1 -6.54,5.1155 h -74.8068 a 6.5400039,5.1154215 0 0 1 -6.54,-5.1155 z" /></g></g></svg>
