<?xml version="1.0" encoding="UTF-8" standalone="no"?>
<!-- Created with Inkscape (http://www.inkscape.org/) -->

<svg
   width="799.22034mm"
   height="738.48846mm"
   viewBox="0 0 799.22036 738.48847"
   version="1.1"
   id="svg5"
   xml:space="preserve"
   xmlns="http://www.w3.org/2000/svg"
   xmlns:svg="http://www.w3.org/2000/svg"><defs
     id="defs2" /><g
     id="layer1"
     transform="translate(-2689.2205,-2560.1801)"><g
       id="notion-digital-journaling"
       transform="matrix(2,0,0,2,-394.08685,-88.124184)"
       style="stroke-width:0.5"><title
         id="title94604">notion-digital-journaling</title><g
         id="g41561"
         transform="translate(2406.9998)"
         style="stroke-width:0.5"><g
           id="g41491"
           transform="matrix(1.1741102,0,0,1.1737415,-1440.6661,671.98156)"
           style="stroke-width:0.425921"><path
             style="fill:#000000;stroke-width:0.901535;stroke-linecap:round;stroke-linejoin:round;paint-order:fill markers stroke"
             d="m 614.8623,651.14069 c 1.39164,13.98036 4.62269,26.60463 11.3043,36.68501 -11.47079,6.65635 -21.34133,1.72226 -24.77079,-22.72498 -12.9084,2.14974 -20.69978,-21.01635 -5.73196,-35.7708 -9.83498,-31.55843 15.68412,-47.06274 26.86042,-37.93299 5.28324,-19.1838 23.78882,-19.53002 30.69142,-11.43503 10.15279,-11.91639 32.2732,-15.38171 32.94068,6.26896 10.89879,-3.71873 29.28443,0.52175 19.64833,28.99392 16.16243,9.07953 11.29796,29.02519 -1.79943,35.69824 8.26349,22.96886 -2.48031,26.16482 -17.03626,25.39508 l -0.49345,-12.58147 c 2.55983,-3.95654 3.21004,-4.47195 4.01814,-8.41855 1.80374,-8.80916 -0.87746,-16.72278 -4.03996,-16.80281 -8.78316,-0.22226 -3.8272,19.20275 -3.64951,20.70831 0.17769,1.50556 -1.10927,1.26029 -1.5527,1.00129 -0.44343,-0.259 -4.48398,-7.0816 -4.48398,-7.0816 -17.55654,7.67916 -33.93623,1.57311 -49.87536,-9.69367 -2.53664,3.90575 -2.23311,10.39861 -12.02989,7.69109 z"
             id="path41369" /><path
             style="color:#000000;fill:#000000;stroke-width:0.425921;stroke-linecap:round;stroke-linejoin:round;-inkscape-stroke:none;paint-order:fill markers stroke"
             d="m 614.97656,650.71094 a 0.90153497,0.90153497 0 0 0 -0.77539,1.01172 c 1.94545,14.76055 5.57455,26.94436 11.27539,35.97656 12.26484,19.43191 31.52581,25.22491 45.1836,18.73242 12.018,-5.713 18.4978,-23.49188 17.4707,-41.94727 a 0.90153497,0.90153497 0 0 0 -0.95117,-0.8496 0.90153497,0.90153497 0 0 0 -0.84961,0.94921 c 0.99976,17.96424 -5.53229,35.03392 -16.44336,40.22071 -12.68651,6.03077 -30.98659,0.78458 -42.88477,-18.06641 -5.49374,-8.70406 -9.08948,-20.65275 -11.01367,-35.25195 a 0.90153497,0.90153497 0 0 0 -1.01172,-0.77539 z"
             id="path41371" /><path
             style="color:#000000;fill:#000000;stroke-width:0.425921;stroke-linecap:round;stroke-linejoin:round;-inkscape-stroke:none;paint-order:fill markers stroke"
             d="m 621.93164,658.90039 c -0.77278,0.0625 -1.54782,0.21084 -2.31836,0.45117 a 0.90153497,0.90153497 0 0 0 -0.5918,1.12891 0.90153497,0.90153497 0 0 0 1.12891,0.5918 c 2.57858,-0.80427 5.17786,-0.39377 7.59961,0.95117 2.42175,1.34493 4.63597,3.64189 6.26953,6.54297 3.26711,5.80214 4.20879,13.95877 0.23438,21.61718 a 0.90153497,0.90153497 0 0 0 0.38476,1.21485 0.90153497,0.90153497 0 0 0 1.21485,-0.38477 c 4.26897,-8.22601 3.28548,-17.02899 -0.26368,-23.33203 -1.77457,-3.15152 -4.1925,-5.69474 -6.96484,-7.23437 -2.07925,-1.15473 -4.37503,-1.73439 -6.69336,-1.54688 z"
             id="path41373" /><path
             style="color:#000000;fill:#000000;stroke-width:0.425921;stroke-linecap:round;stroke-linejoin:round;-inkscape-stroke:none;paint-order:fill markers stroke"
             d="m 655.95508,651.86914 -15.05469,5.88477 a 0.90153497,0.90153497 0 0 0 -0.51172,1.16796 0.90153497,0.90153497 0 0 0 1.16797,0.51172 l 15.05469,-5.88476 a 0.90153497,0.90153497 0 0 0 0.51172,-1.16797 0.90153497,0.90153497 0 0 0 -1.16797,-0.51172 z"
             id="path41375" /><path
             style="color:#000000;fill:#000000;stroke-width:0.425921;stroke-linecap:round;stroke-linejoin:round;-inkscape-stroke:none;paint-order:fill markers stroke"
             d="m 624.49219,667.92969 c -1.3603,0.0946 -2.61739,0.2631 -3.5625,0.40039 -0.47256,0.0686 -0.86915,0.1288 -1.15039,0.16797 -0.14062,0.0196 -0.25392,0.0345 -0.32227,0.041 -0.0684,0.007 -0.15312,-0.023 0.0527,0.0137 a 0.90153497,0.90153497 0 0 0 -1.04493,0.73047 0.90153497,0.90153497 0 0 0 0.73047,1.04492 c 0.27207,0.0484 0.31581,0.0171 0.4336,0.006 0.11779,-0.0112 0.24791,-0.0295 0.40039,-0.0508 0.30496,-0.0425 0.69654,-0.10257 1.16015,-0.16992 0.92723,-0.13469 2.13869,-0.29514 3.42774,-0.38476 2.57808,-0.17926 5.46374,0.0323 6.78906,0.9707 1.36115,0.96377 2.63423,3.83117 3.375,6.45508 0.62917,2.22859 0.81391,3.64858 0.89648,4.20507 -4.54022,1.7267 -7.08923,1.83282 -11.07617,2.04102 a 0.90153497,0.90153497 0 0 0 -0.85351,0.94727 0.90153497,0.90153497 0 0 0 0.94726,0.85351 c 4.18708,-0.21865 7.06564,-0.23235 12.37305,-2.3789 a 0.90162513,0.90162513 0 0 0 0.55469,-0.95704 c 0,0 -0.3271,-2.43716 -1.10743,-5.20117 -0.78032,-2.76401 -1.90743,-5.90548 -4.06835,-7.43554 -2.09831,-1.48573 -5.23448,-1.48799 -7.95508,-1.29883 z"
             id="path41377" /><path
             style="color:#000000;fill:#000000;stroke-width:0.425921;stroke-linecap:round;stroke-linejoin:round;-inkscape-stroke:none;paint-order:fill markers stroke"
             d="m 624.27148,673.69141 a 0.90153497,0.90153497 0 0 0 -0.63281,0.27343 0.90153497,0.90153497 0 0 0 0.0195,1.27539 c 2.50715,2.43092 4.7668,3.21551 6.77735,3.0586 2.01054,-0.15691 3.65045,-1.14063 5.18554,-1.85156 a 0.90153497,0.90153497 0 0 0 0.43946,-1.19532 0.90153497,0.90153497 0 0 0 -1.19727,-0.43945 c -1.63932,0.7592 -3.08753,1.57403 -4.56641,1.68945 -1.47887,0.11542 -3.11005,-0.35298 -5.38281,-2.55664 a 0.90153497,0.90153497 0 0 0 -0.64258,-0.2539 z"
             id="path41379" /><path
             style="color:#000000;fill:#000000;stroke-width:0.425921;stroke-linecap:round;stroke-linejoin:round;-inkscape-stroke:none;paint-order:fill markers stroke"
             d="m 662.00195,665.04883 c -6.73637,-0.50657 -13.17249,1.32239 -19.51562,1.9707 a 0.90162513,0.90162513 0 0 0 -0.008,0.002 l -6.37891,0.71094 a 0.90153497,0.90153497 0 0 0 -0.79492,0.9961 0.90153497,0.90153497 0 0 0 0.99609,0.79492 l 5.62109,-0.62696 c 1.73201,4.58624 2.63214,8.76576 7.88282,13.27344 a 0.90162513,0.90162513 0 0 0 0.043,0.0352 c 0.85032,0.64397 2.08561,0.94096 3.70117,1.23047 1.61556,0.28951 3.5566,0.47969 5.52734,0.52343 1.97074,0.0438 3.96568,-0.0574 5.69727,-0.37109 1.73159,-0.31373 3.22269,-0.7921 4.18945,-1.79687 1.7081,-1.77527 2.20563,-4.53192 2.13477,-7.29297 -0.0709,-2.76105 -0.73812,-5.56534 -1.7461,-7.58594 a 0.90162513,0.90162513 0 0 0 -0.50586,-0.44727 c -2.31999,-0.81818 -4.59829,-1.24716 -6.84375,-1.41601 z m -0.16015,1.81054 c 1.99399,0.14248 4.00044,0.55365 6.02539,1.22852 0.77187,1.6967 1.36756,4.11079 1.42773,6.45508 0.064,2.49291 -0.4812,4.80319 -1.63086,5.99805 -0.46212,0.48029 -1.6543,0.9914 -3.21094,1.27343 -1.55663,0.28204 -3.4555,0.38354 -5.33593,0.3418 -1.88043,-0.0417 -3.74784,-0.2269 -5.25,-0.49609 -1.49428,-0.26778 -2.66978,-0.70696 -2.91602,-0.88868 -4.72224,-4.06772 -5.54164,-7.64462 -7.18945,-12.10937 6.15013,-0.73631 12.08243,-2.23127 18.08008,-1.80274 z"
             id="path41381" /><path
             style="color:#000000;fill:#000000;stroke-width:0.425921;stroke-linecap:round;stroke-linejoin:round;-inkscape-stroke:none;paint-order:fill markers stroke"
             d="m 679.8457,655.24805 a 0.90153497,0.90153497 0 0 0 -0.64258,0.25 c 0,0 -2.69913,2.59635 -5.43945,5.29492 -1.37016,1.34928 -2.75135,2.72438 -3.81445,3.81836 -0.53155,0.54699 -0.98218,1.02284 -1.32031,1.39844 -0.16907,0.1878 -0.30943,0.34901 -0.42383,0.49218 -0.11441,0.14317 -0.19342,0.18615 -0.3125,0.49805 a 0.90153497,0.90153497 0 0 0 0.51953,1.16406 0.90153497,0.90153497 0 0 0 1.16406,-0.51953 c -0.081,0.21214 -0.04,0.0809 0.0371,-0.0156 0.0771,-0.0965 0.20036,-0.23982 0.35547,-0.41211 0.31022,-0.34459 0.75065,-0.81164 1.27344,-1.34961 1.04557,-1.07594 2.41994,-2.44465 3.78515,-3.78907 2.73043,-2.68882 5.42578,-5.27929 5.42578,-5.27929 a 0.90153497,0.90153497 0 0 0 0.0254,-1.27539 0.90153497,0.90153497 0 0 0 -0.63282,-0.27539 z"
             id="path41383" /><path
             style="color:#000000;fill:#000000;stroke-width:0.425921;stroke-linecap:round;stroke-linejoin:round;-inkscape-stroke:none;paint-order:fill markers stroke"
             d="M 665.68945,663.27344 A 0.90153497,0.90153497 0 0 0 665,664.3457 c 0.98882,4.57343 -1.54224,7.52943 -4.80078,8.60547 -3.25855,1.07604 -7.09865,0.16448 -8.875,-3.57031 a 0.90153497,0.90153497 0 0 0 -1.20117,-0.42578 0.90153497,0.90153497 0 0 0 -0.42774,1.20117 c 2.16867,4.55964 7.08927,5.82179 11.06836,4.50781 3.97909,-1.31398 7.1627,-5.31255 5.99805,-10.69922 a 0.90153497,0.90153497 0 0 0 -1.07227,-0.6914 z"
             id="path41385" /><path
             style="color:#000000;fill:#000000;stroke-width:0.425921;stroke-linecap:round;stroke-linejoin:round;-inkscape-stroke:none;paint-order:fill markers stroke"
             d="m 664.26953,689.09375 a 0.90153497,0.90153497 0 0 0 -1.0625,0.70508 c -1.05596,5.20126 -4.15241,7.48046 -8.64062,8.5957 a 0.90153497,0.90153497 0 0 0 -0.65821,1.0918 0.90153497,0.90153497 0 0 0 1.0918,0.6582 c 4.89811,-1.21709 8.79304,-4.17795 9.97266,-9.98828 a 0.90153497,0.90153497 0 0 0 -0.70313,-1.0625 z"
             id="path41387" /><path
             style="color:#000000;fill:#000000;stroke-width:0.425921;stroke-linecap:round;stroke-linejoin:round;-inkscape-stroke:none;paint-order:fill markers stroke"
             d="m 690.63086,682.25195 a 0.90153497,0.90153497 0 0 0 -0.81445,0.98242 c 0.0582,0.624 0.32537,1.04366 0.6582,1.60743 0.33283,0.56377 0.76109,1.18685 1.22266,1.80273 0.92312,1.23176 1.89502,2.38562 2.6875,2.98242 0.32573,0.24532 0.47706,0.25398 0.77929,0.35938 0.30224,0.1054 0.6857,0.22516 1.15235,0.36523 0.93329,0.28016 2.19604,0.63798 3.70507,1.07422 3.01807,0.87248 7.02035,2.05762 11.27344,3.53125 8.50619,2.94726 18.02287,7.1281 22.49805,11.98828 1.69489,1.8407 4.11357,6.14314 6.62695,11.68555 2.51339,5.54241 5.17567,12.35728 7.5957,19.39453 4.84007,14.07449 8.69167,29.156 8.56836,36.48242 -0.0162,0.9611 -0.49816,1.68379 -1.60546,2.39649 -1.10731,0.71269 -2.81511,1.29933 -4.9043,1.71289 -4.17839,0.8271 -9.86548,0.99972 -15.55078,0.84375 -10.68067,-0.29302 -20.63239,-1.63809 -21.89063,-1.81055 0.14038,-1.45556 1.84893,-19.0694 3.53711,-28.22461 1.46144,-7.92553 5.81836,-23.71094 5.81836,-23.71094 a 0.90153497,0.90153497 0 0 0 -0.62891,-1.10937 0.90153497,0.90153497 0 0 0 -1.10742,0.6289 c 0,0 -4.35593,15.73117 -5.85547,23.86329 -1.79652,9.74278 -3.65039,29.25781 -3.65039,29.25781 a 0.90162513,0.90162513 0 0 0 0.77344,0.97851 c 0,0 11.44864,1.61402 22.95508,1.92969 5.75322,0.15784 11.51606,-0.001 15.94922,-0.8789 2.21658,-0.43877 4.10586,-1.04868 5.52929,-1.96485 1.42344,-0.91616 2.40624,-2.25529 2.4336,-3.88086 0.13425,-7.97694 -3.79438,-22.93333 -8.66602,-37.09961 -2.43581,-7.08314 -5.11304,-13.94026 -7.6582,-19.55273 -2.54516,-5.61247 -4.90343,-9.94864 -6.94336,-12.16406 -4.97169,-5.3994 -14.63175,-9.49003 -23.23437,-12.47071 -4.30132,-1.49033 -8.33559,-2.68333 -11.36329,-3.55859 -1.51384,-0.43763 -2.77808,-0.79537 -3.6875,-1.06836 -0.4547,-0.13649 -0.82122,-0.25289 -1.07617,-0.3418 -0.25494,-0.0889 -0.46787,-0.23232 -0.28906,-0.0976 -0.38293,-0.28838 -1.46434,-1.46852 -2.32813,-2.6211 -0.43189,-0.57628 -0.83043,-1.15957 -1.11328,-1.63867 -0.28284,-0.4791 -0.42151,-0.93919 -0.41406,-0.85937 a 0.90153497,0.90153497 0 0 0 -0.98242,-0.81446 z"
             id="path41389" /><path
             style="color:#000000;fill:#000000;stroke-width:0.425921;stroke-linecap:round;stroke-linejoin:round;-inkscape-stroke:none;paint-order:fill markers stroke"
             d="m 632.73242,696.24023 c -3.18584,0.97091 -6.7459,4.79216 -10.72461,10.01563 -3.97871,5.22347 -8.22422,11.88835 -12.07031,18.59375 -3.84609,6.7054 -7.29054,13.44505 -9.6543,18.81836 -1.18188,2.68665 -2.09342,5.02872 -2.65429,6.88086 -0.28044,0.92607 -0.47428,1.72794 -0.56641,2.41601 -0.0921,0.68808 -0.12885,1.25888 0.14062,1.84766 0.50615,1.10587 1.58141,1.86452 2.97266,2.56055 1.39125,0.69602 3.14813,1.30483 5.1582,1.85937 4.02016,1.10909 9.05094,1.98987 13.99024,2.67969 9.8786,1.37963 19.38867,1.98633 19.38867,1.98633 a 0.90153497,0.90153497 0 0 0 0.95703,-0.8418 0.90153497,0.90153497 0 0 0 -0.8418,-0.95703 c 0,0 -9.46051,-0.60688 -19.2539,-1.97461 -4.89669,-0.68386 -9.87848,-1.55955 -13.76172,-2.63086 -1.94162,-0.53566 -3.6091,-1.12353 -4.83008,-1.73437 -1.22098,-0.61084 -1.94489,-1.26963 -2.14062,-1.69727 0.011,0.0241 -0.0639,-0.32167 0.008,-0.85742 0.0717,-0.53576 0.2431,-1.26512 0.50586,-2.13281 0.52552,-1.73539 1.41437,-4.03229 2.57812,-6.67774 2.32751,-5.29089 5.75068,-11.99059 9.56836,-18.64648 3.81769,-6.6559 8.03448,-13.27372 11.93946,-18.40039 3.90498,-5.12668 7.65124,-8.72297 9.8164,-9.38282 a 0.90153497,0.90153497 0 0 0 0.59961,-1.125 0.90153497,0.90153497 0 0 0 -1.125,-0.59961 z"
             id="path41391" /><path
             style="color:#000000;fill:#000000;stroke-width:0.425921;stroke-linecap:round;stroke-linejoin:round;-inkscape-stroke:none;paint-order:fill markers stroke"
             d="m 633.57422,719.97461 a 0.90153497,0.90153497 0 0 0 -0.81055,0.98437 c 0.0174,0.17884 0.0565,0.42035 0.13086,0.92969 0.0744,0.50935 0.17853,1.22088 0.31055,2.10352 0.26403,1.76528 0.63467,4.21979 1.07617,7.13281 0.88301,5.82604 2.05015,13.48289 3.21289,21.10156 2.32548,15.23734 4.63672,30.32422 4.63672,30.32422 a 0.90153497,0.90153497 0 0 0 1.02734,0.75586 0.90153497,0.90153497 0 0 0 0.75391,-1.02734 c 0,0 -2.30938,-15.08946 -4.63477,-30.32618 -1.16269,-7.61835 -2.33006,-15.27281 -3.21289,-21.09765 -0.44141,-2.91242 -0.81247,-5.36781 -1.07617,-7.13086 -0.13185,-0.88152 -0.23675,-1.59024 -0.31055,-2.0957 -0.0738,-0.50547 -0.12207,-0.87385 -0.11914,-0.84375 a 0.90153497,0.90153497 0 0 0 -0.98437,-0.81055 z"
             id="path41393" /><path
             style="color:#000000;fill:#000000;stroke-width:0.425921;stroke-linecap:round;stroke-linejoin:round;-inkscape-stroke:none;paint-order:fill markers stroke"
             d="m 718.38281,778.8457 a 0.90153497,0.90153497 0 0 0 -0.94726,0.85157 c -0.0192,0.36453 -0.038,1.50079 -0.0625,3.13476 -0.0245,1.63397 -0.0508,3.70683 -0.0762,5.74609 -0.0508,4.07854 -0.0957,8.01954 -0.0957,8.01954 a 0.90153497,0.90153497 0 0 0 0.89258,0.91211 0.90153497,0.90153497 0 0 0 0.91016,-0.89258 c 0,0 0.0449,-3.93872 0.0957,-8.01563 0.0254,-2.03845 0.0517,-4.11107 0.0762,-5.74219 0.0245,-1.63111 0.0507,-2.8795 0.0605,-3.0664 a 0.90153497,0.90153497 0 0 0 -0.85352,-0.94727 z"
             id="path41395" /><path
             style="color:#000000;fill:#000000;stroke-width:0.425921;stroke-linecap:round;stroke-linejoin:round;-inkscape-stroke:none;paint-order:fill markers stroke"
             d="m 747.86133,779.41406 a 0.90153497,0.90153497 0 0 0 -0.98047,0.81446 c -0.29111,3.18277 -1.92161,8.64453 -3.48633,13.03906 -0.78236,2.19726 -1.54927,4.14389 -2.11133,5.43359 -0.27256,0.62543 -0.49657,1.08595 -0.6289,1.32031 a 0.90153497,0.90153497 0 0 0 -0.40821,0.71485 c 0.003,0.12921 -0.0912,0.33453 0.29297,0.70703 0.19209,0.18625 0.57355,0.28998 0.8086,0.24805 0.23504,-0.0419 0.3486,-0.13161 0.42773,-0.19336 0.31653,-0.24701 0.31903,-0.35849 0.42188,-0.53711 0.20569,-0.35725 0.44442,-0.86479 0.73828,-1.53907 0.5877,-1.34855 1.36219,-3.32065 2.15625,-5.55078 1.58811,-4.46024 3.25593,-9.89185 3.58398,-13.47851 a 0.90153497,0.90153497 0 0 0 -0.81445,-0.97852 z m -6.53321,20.5918 c 0.1727,0.0358 0.35687,0.036 0.4668,0.14258 0.35958,0.34865 0.25289,0.5021 0.25391,0.54492 a 0.90153497,0.90153497 0 0 0 -0.72071,-0.6875 z"
             id="path41397" /><path
             style="color:#000000;fill:#000000;stroke-width:0.425921;stroke-linecap:round;stroke-linejoin:round;-inkscape-stroke:none;paint-order:fill markers stroke"
             d="m 661.24023,707.2207 a 0.90153497,0.90153497 0 0 0 -0.6875,0.0586 0.90153497,0.90153497 0 0 0 -0.38671,1.21484 c 2.36061,4.5644 2.60383,7.39246 2.1914,9.72461 a 0.90153497,0.90153497 0 0 0 0.73047,1.04492 0.90153497,0.90153497 0 0 0 1.04492,-0.73047 c 0.48078,-2.71866 0.11581,-6.06993 -2.36523,-10.86718 a 0.90153497,0.90153497 0 0 0 -0.52735,-0.44532 z"
             id="path41399" /><path
             style="color:#000000;fill:#000000;stroke-width:0.425921;stroke-linecap:round;stroke-linejoin:round;-inkscape-stroke:none;paint-order:fill markers stroke"
             d="m 695.58203,689.01367 a 0.90153497,0.90153497 0 0 0 -0.98828,0.80469 c -1.34508,13.07325 -4.05439,22.69219 -7.4082,29.28125 -3.35382,6.58906 -7.32579,10.10803 -11.16407,11.2168 -3.83827,1.10876 -7.66203,-0.0804 -11.0625,-3.34571 -3.40046,-3.26535 -6.28812,-8.6316 -7.90234,-15.66797 a 0.90153497,0.90153497 0 0 0 -1.08008,-0.67773 0.90153497,0.90153497 0 0 0 -0.67578,1.08008 c 1.67386,7.29636 4.66699,12.97384 8.4082,16.5664 3.74122,3.59256 8.32155,5.07465 12.8125,3.77735 4.49096,-1.29731 8.7746,-5.26267 12.27149,-12.13281 3.49688,-6.87015 6.23272,-16.68386 7.59375,-29.91211 a 0.90153497,0.90153497 0 0 0 -0.80469,-0.99024 z"
             id="path41401" /><path
             style="color:#000000;fill:#000000;stroke-width:0.425921;stroke-linecap:round;stroke-linejoin:round;-inkscape-stroke:none;paint-order:fill markers stroke"
             d="m 703.21289,690.64258 a 0.90153497,0.90153497 0 0 0 -0.91211,0.89062 c -0.29346,26.83302 -13.12065,43.12353 -25.69922,46.50391 -6.28928,1.69019 -12.50253,0.25212 -17.38476,-4.7168 -4.88224,-4.96892 -8.42166,-13.56853 -8.92188,-26.24804 a 0.90153497,0.90153497 0 0 0 -0.93555,-0.86524 0.90153497,0.90153497 0 0 0 -0.86523,0.93555 c 0.51213,12.98147 4.13166,22.04335 9.43555,27.4414 5.30388,5.39806 12.30516,7.03229 19.14062,5.19532 13.67093,-3.67395 26.73356,-20.82787 27.03321,-48.22657 a 0.90153497,0.90153497 0 0 0 -0.89063,-0.91015 z"
             id="path41403" /><path
             style="color:#000000;fill:#000000;stroke-width:0.425921;stroke-linecap:round;stroke-linejoin:round;-inkscape-stroke:none;paint-order:fill markers stroke"
             d="m 655.89062,714.77539 -3.22851,2.38086 a 0.90153497,0.90153497 0 0 0 -0.19141,1.25977 0.90153497,0.90153497 0 0 0 1.26172,0.1914 l 3.22852,-2.3789 a 0.90153497,0.90153497 0 0 0 0.18945,-1.26172 0.90153497,0.90153497 0 0 0 -1.25977,-0.19141 z"
             id="path41405" /><path
             style="color:#000000;fill:#000000;stroke-width:0.425921;stroke-linecap:round;stroke-linejoin:round;-inkscape-stroke:none;paint-order:fill markers stroke"
             d="m 658.98437,720.66016 a 0.90153497,0.90153497 0 0 0 -0.62695,0.28515 L 655.0332,724.5 a 0.90153497,0.90153497 0 0 0 0.043,1.27539 0.90153497,0.90153497 0 0 0 1.27539,-0.043 l 3.32227,-3.55664 a 0.90153497,0.90153497 0 0 0 -0.043,-1.27344 0.90153497,0.90153497 0 0 0 -0.64649,-0.24218 z"
             id="path41407" /><path
             style="color:#000000;fill:#000000;stroke-width:0.425921;stroke-linecap:round;stroke-linejoin:round;-inkscape-stroke:none;paint-order:fill markers stroke"
             d="m 663.43359,726.41992 a 0.90153497,0.90153497 0 0 0 -1.22656,0.34375 l -2.72851,4.8457 a 0.90153497,0.90153497 0 0 0 0.34375,1.22852 0.90153497,0.90153497 0 0 0 1.22656,-0.34375 l 2.72851,-4.8457 a 0.90153497,0.90153497 0 0 0 -0.34375,-1.22852 z"
             id="path41409" /><path
             style="color:#000000;fill:#000000;stroke-width:0.425921;stroke-linecap:round;stroke-linejoin:round;-inkscape-stroke:none;paint-order:fill markers stroke"
             d="m 668.46289,730.55273 a 0.90153497,0.90153497 0 0 0 -1.10937,0.62891 l -1.52344,5.5293 a 0.90153497,0.90153497 0 0 0 0.6289,1.10742 0.90153497,0.90153497 0 0 0 1.10938,-0.62891 l 1.52344,-5.52929 a 0.90153497,0.90153497 0 0 0 -0.62891,-1.10743 z"
             id="path41411" /><path
             style="color:#000000;fill:#000000;stroke-width:0.425921;stroke-linecap:round;stroke-linejoin:round;-inkscape-stroke:none;paint-order:fill markers stroke"
             d="m 675.76172,730.67187 a 0.90153497,0.90153497 0 0 0 -0.9375,0.86524 c -0.0134,0.33224 0.009,0.85534 0.041,1.57422 0.0319,0.71888 0.0782,1.58582 0.125,2.42578 0.0936,1.67993 0.19141,3.24609 0.19141,3.24609 a 0.90153497,0.90153497 0 0 0 0.95508,0.84375 0.90153497,0.90153497 0 0 0 0.84375,-0.95508 c 0,0 -0.0982,-1.56216 -0.19141,-3.23437 -0.0466,-0.83611 -0.0917,-1.69938 -0.12304,-2.40625 -0.0314,-0.70687 -0.0438,-1.30426 -0.0391,-1.42188 a 0.90153497,0.90153497 0 0 0 -0.86523,-0.9375 z"
             id="path41413" /><path
             style="color:#000000;fill:#000000;stroke-width:0.425921;stroke-linecap:round;stroke-linejoin:round;-inkscape-stroke:none;paint-order:fill markers stroke"
             d="m 682.92187,726.75195 a 0.90153497,0.90153497 0 0 0 -0.99023,0.80274 c -0.0424,0.41028 0.035,0.52106 0.0977,0.76953 0.0626,0.24846 0.14848,0.53722 0.25195,0.86133 0.20694,0.64822 0.4823,1.43148 0.75977,2.19531 0.55492,1.52767 1.11718,2.97266 1.11718,2.97266 a 0.90153497,0.90153497 0 0 0 1.16602,0.51171 0.90153497,0.90153497 0 0 0 0.51367,-1.16601 c 0,0 -0.55545,-1.43018 -1.10156,-2.9336 -0.27306,-0.7517 -0.54457,-1.52211 -0.73828,-2.1289 -0.0969,-0.3034 -0.17365,-0.56728 -0.22071,-0.75391 -0.0471,-0.18662 -0.0266,-0.39505 -0.0527,-0.14258 a 0.90153497,0.90153497 0 0 0 -0.80274,-0.98828 z"
             id="path41415" /><path
             style="color:#000000;fill:#000000;stroke-width:0.425921;stroke-linecap:round;stroke-linejoin:round;-inkscape-stroke:none;paint-order:fill markers stroke"
             d="m 687.15234,720.11914 a 0.90153497,0.90153497 0 0 0 -0.0117,1.27539 l 5.14454,5.23047 a 0.90153497,0.90153497 0 0 0 1.27539,0.0117 0.90153497,0.90153497 0 0 0 0.0117,-1.27539 l -5.14454,-5.23047 a 0.90153497,0.90153497 0 0 0 -1.27539,-0.0117 z"
             id="path41417" /><path
             style="color:#000000;fill:#000000;stroke-width:0.425921;stroke-linecap:round;stroke-linejoin:round;-inkscape-stroke:none;paint-order:fill markers stroke"
             d="m 691.69141,712.42969 a 0.90153497,0.90153497 0 0 0 -1.23243,0.32617 0.90153497,0.90153497 0 0 0 0.32618,1.23242 l 6.91406,4.02734 a 0.90153497,0.90153497 0 0 0 1.23242,-0.32617 0.90153497,0.90153497 0 0 0 -0.32617,-1.23242 z"
             id="path41419" /><path
             style="color:#000000;fill:#000000;stroke-width:0.425921;stroke-linecap:round;stroke-linejoin:round;-inkscape-stroke:none;paint-order:fill markers stroke"
             d="m 694.26367,704.48047 a 0.90153497,0.90153497 0 0 0 -1.13867,0.57422 0.90153497,0.90153497 0 0 0 0.57227,1.13867 l 6.67578,2.20508 a 0.90153497,0.90153497 0 0 0 1.13867,-0.57227 0.90153497,0.90153497 0 0 0 -0.57227,-1.14062 z"
             id="path41421" /><path
             style="color:#000000;fill:#000000;stroke-width:0.425921;stroke-linecap:round;stroke-linejoin:round;-inkscape-stroke:none;paint-order:fill markers stroke"
             d="m 694.94141,695.76758 a 0.90153497,0.90153497 0 0 0 -1.02539,0.75781 0.90153497,0.90153497 0 0 0 0.75781,1.02539 c -0.0535,-0.008 0.15649,0.033 0.39258,0.0918 0.23608,0.0588 0.55195,0.14079 0.91601,0.23633 0.72813,0.19108 1.65355,0.43962 2.5625,0.68554 1.8179,0.49184 3.57031,0.97266 3.57031,0.97266 a 0.90153497,0.90153497 0 0 0 1.10743,-0.62891 0.90153497,0.90153497 0 0 0 -0.62891,-1.10937 c 0,0 -1.75551,-0.48149 -3.57813,-0.97461 -0.9113,-0.24656 -1.83979,-0.49621 -2.57617,-0.68945 -0.36818,-0.0966 -0.6885,-0.18017 -0.9375,-0.24219 -0.24899,-0.062 -0.37461,-0.097 -0.56054,-0.125 z"
             id="path41423" /><path
             style="fill:#000000;stroke-width:0.901535;stroke-linecap:round;stroke-linejoin:round;paint-order:fill markers stroke"
             d="m 643.6785,743.0185 1.27238,18.33671 c 17.92329,12.67477 38.31785,11.68262 58.42637,12.27235 l -0.58486,-20.16318 c -20.43346,1.89518 -39.90192,-3.32914 -59.11389,-10.44588 z"
             id="path41425" /><path
             style="color:#000000;fill:#000000;stroke-width:0.425921;stroke-linecap:round;stroke-linejoin:round;-inkscape-stroke:none;paint-order:fill markers stroke"
             d="m 604.53906,757.50391 c -0.11069,-0.009 -0.19529,0.004 -0.26172,0.0176 -0.2657,0.0557 -0.31492,0.12438 -0.3789,0.16993 -0.12797,0.0911 -0.19307,0.15991 -0.27735,0.24804 -0.16855,0.17628 -0.36144,0.41011 -0.58789,0.72071 -0.45289,0.6212 -1.02368,1.53608 -1.5664,2.70703 -1.08546,2.34188 -2.05651,5.72047 -1.62696,9.72461 0.1644,1.53243 1.08599,3.8405 2.36719,6.74609 1.2812,2.90559 2.93284,6.30257 4.57422,9.56445 1.64138,3.26189 3.27209,6.38715 4.50586,8.73243 0.61688,1.17264 1.13444,2.15022 1.50391,2.85156 0.18473,0.35067 0.33232,0.63232 0.43554,0.83203 0.10323,0.1997 0.20261,0.44127 0.13867,0.27148 1.20847,3.20942 0.34491,6.82007 1.31641,10.98047 1.84057,7.88217 6.70813,12.04565 11.8418,13.31446 5.13366,1.2688 10.49805,-0.2261 13.54297,-3.48633 a 0.90153497,0.90153497 0 0 0 -0.043,-1.27344 0.90153497,0.90153497 0 0 0 -1.27344,0.043 c -2.49581,2.67229 -7.27808,4.08315 -11.79492,2.9668 -4.51684,-1.11636 -8.80233,-4.6291 -10.51758,-11.97461 -0.85588,-3.66526 0.0623,-7.3639 -1.38477,-11.20704 -0.0917,-0.24347 -0.11676,-0.25425 -0.22461,-0.46289 -0.10784,-0.20863 -0.25587,-0.49156 -0.4414,-0.84375 -0.37106,-0.70436 -0.88825,-1.68125 -1.50391,-2.85156 -1.23132,-2.34062 -2.85657,-5.45657 -4.49023,-8.70312 -1.63367,-3.24656 -3.27743,-6.62565 -4.53711,-9.48243 -1.25968,-2.85677 -2.12447,-5.29568 -2.22266,-6.21093 -0.38726,-3.60994 0.49069,-6.65903 1.47071,-8.77344 0.49,-1.0572 1.00599,-1.88013 1.38671,-2.40234 0.19037,-0.26111 0.35008,-0.44977 0.4336,-0.53711 0.0399,-0.0417 0.0686,-0.0572 0.0215,-0.0234 -0.002,0.002 0.003,-0.004 0,-0.002 a 0.90153497,0.90153497 0 0 0 0.42578,-0.88477 c -0.0139,-0.0896 -0.0453,-0.20222 -0.11718,-0.32422 -0.036,-0.061 -0.1381,-0.17911 -0.13868,-0.17969 -5.7e-4,-5.7e-4 -0.18679,-0.14607 -0.1875,-0.14648 -7e-4,-4.1e-4 -0.13907,-0.0688 -0.20507,-0.0879 -0.066,-0.0191 -0.12825,-0.0289 -0.1836,-0.0332 z m -0.95117,1.04687 a 0.90153497,0.90153497 0 0 0 0.34375,0.5625 c -0.0476,-0.0368 -0.096,-0.0726 -0.0957,-0.0723 5.7e-4,5.7e-4 -0.0997,-0.11627 -0.13477,-0.17579 -0.0701,-0.11902 -0.10008,-0.2292 -0.11328,-0.31445 z m 0.38672,0.5957 a 0.90153497,0.90153497 0 0 0 0.5918,0.14649 c -0.0502,0.007 -0.0962,0.0154 -0.16797,0.01 -0.0534,-0.004 -0.1134,-0.0146 -0.17774,-0.0332 -0.0643,-0.0186 -0.19992,-0.0863 -0.19922,-0.0859 1.8e-4,1.1e-4 -0.0288,-0.0232 -0.0469,-0.0371 z"
             id="path41427" /><path
             style="color:#000000;fill:#000000;stroke-width:0.425921;stroke-linecap:round;stroke-linejoin:round;-inkscape-stroke:none;paint-order:fill markers stroke"
             d="m 644.01562,810.90625 c 0,0 -2.00797,1.76559 -4.63476,3.64258 -2.6268,1.87699 -5.92472,3.8308 -8.11524,4.22461 -1.52565,0.27427 -4.21145,-1.16871 -6.36718,-2.88867 -2.15573,-1.71997 -3.81055,-3.54297 -3.81055,-3.54297 a 0.90153497,0.90153497 0 0 0 -1.27344,-0.0625 0.90153497,0.90153497 0 0 0 -0.0625,1.27343 c 0,0 1.7342,1.91571 4.02344,3.74219 2.28924,1.82648 5.1053,3.73989 7.80859,3.25391 2.84046,-0.51065 6.13534,-2.59789 8.84375,-4.53321 2.70842,-1.93531 4.7793,-3.75585 4.7793,-3.75585 a 0.90153497,0.90153497 0 0 0 0.0801,-1.27149 0.90153497,0.90153497 0 0 0 -1.27149,-0.082 z"
             id="path41429" /><path
             style="color:#000000;fill:#000000;stroke-width:0.425921;stroke-linecap:round;stroke-linejoin:round;-inkscape-stroke:none;paint-order:fill markers stroke"
             d="m 620.56445,807.12891 a 0.90153497,0.90153497 0 0 0 -0.15625,1.26562 c 0,0 3.47266,4.47448 9.43946,6.4375 2.28391,0.75138 4.34535,-0.0591 6.07421,-1.10156 1.72887,-1.04243 3.27925,-2.31829 4.71094,-2.88086 4.55097,-1.78828 8.70313,-1.62305 8.70313,-1.62305 a 0.90153497,0.90153497 0 0 0 0.9375,-0.86328 0.90153497,0.90153497 0 0 0 -0.86328,-0.9375 c 0,0 -4.50258,-0.19306 -9.4375,1.74609 -1.84502,0.72499 -3.42364,2.07575 -4.98243,3.01563 -1.55878,0.93988 -2.94448,1.46909 -4.57812,0.93164 -5.39155,-1.77377 -8.58203,-5.83398 -8.58203,-5.83398 a 0.90153497,0.90153497 0 0 0 -1.26563,-0.15625 z"
             id="path41431" /><path
             style="color:#000000;fill:#000000;stroke-width:0.425921;stroke-linecap:round;stroke-linejoin:round;-inkscape-stroke:none;paint-order:fill markers stroke"
             d="m 627.91992,800.14844 a 0.90153497,0.90153497 0 0 0 -1.04492,0.73047 c -0.25214,1.4218 -0.43209,2.62568 -0.17383,3.78125 0.25827,1.15557 1.04587,2.15647 2.32617,2.88086 0.55466,0.31382 1.1244,0.33909 1.77539,0.32421 0.651,-0.0149 1.38875,-0.10921 2.20508,-0.24804 1.63267,-0.27766 3.57566,-0.74121 5.54297,-1.1836 1.96731,-0.44238 3.95883,-0.8617 5.62891,-1.05664 1.67008,-0.19494 3.02856,-0.0898 3.53906,0.17774 1.06138,0.55618 1.27527,1.10149 1.35352,1.52343 0.0782,0.42195 -0.0234,0.67969 -0.0234,0.67969 a 0.90153497,0.90153497 0 0 0 0.51953,1.16406 0.90153497,0.90153497 0 0 0 1.16406,-0.51953 c 0,0 0.28205,-0.74422 0.11328,-1.65429 -0.16877,-0.91008 -0.83119,-2.02605 -2.29101,-2.79102 -1.22503,-0.64193 -2.78333,-0.58128 -4.58399,-0.37109 -1.80066,0.21018 -3.83485,0.64425 -5.8164,1.08984 -1.98156,0.44559 -3.91199,0.90263 -5.44922,1.16406 -0.76862,0.13072 -1.43985,0.21116 -1.94336,0.22266 -0.50351,0.0115 -0.83345,-0.0849 -0.8457,-0.0918 -0.98737,-0.55863 -1.30204,-1.01837 -1.45508,-1.70312 -0.15304,-0.68475 -0.0544,-1.69913 0.18945,-3.07422 a 0.90153497,0.90153497 0 0 0 -0.73047,-1.04492 z"
             id="path41433" /><path
             style="color:#000000;fill:#000000;stroke-width:0.425921;stroke-linecap:round;stroke-linejoin:round;-inkscape-stroke:none;paint-order:fill markers stroke"
             d="m 612.6582,778.67773 c -3.16137,1.94724 -3.93306,4.34439 -4.375,6.38086 a 0.90162513,0.90162513 0 0 0 0.33985,0.91211 l 26.80273,20.10157 a 0.90153497,0.90153497 0 0 0 1.26172,-0.18165 0.90153497,0.90153497 0 0 0 -0.17969,-1.26171 L 610.2207,784.91406 c 0.3612,-1.55324 0.99254,-2.91781 2.96094,-4.30078 l 31.42773,23.57031 a 0.90153497,0.90153497 0 0 0 1.26172,-0.17968 0.90153497,0.90153497 0 0 0 -0.17968,-1.26172 l -32.01954,-24.01758 a 0.90162513,0.90162513 0 0 0 -1.01367,-0.0469 z"
             id="path41435" /><path
             style="color:#000000;fill:#000000;stroke-width:0.425921;stroke-linecap:round;stroke-linejoin:round;-inkscape-stroke:none;paint-order:fill markers stroke"
             d="m 650.26172,807.8418 a 0.90153497,0.90153497 0 0 0 -0.62305,0.29492 0.90153497,0.90153497 0 0 0 0.0625,1.27344 c 0,0 1.03963,0.94678 1.84375,1.96289 0.40206,0.50805 0.73203,1.0469 0.83594,1.35742 0.021,0.0629 0.0122,0.0481 0.0176,0.084 -0.0197,-0.0217 -0.40416,0.0272 -1.07617,-0.23047 -0.72816,-0.27924 -1.63461,-0.76868 -2.50391,-1.30273 -1.7386,-1.0681 -3.30912,-2.27885 -3.50195,-2.42578 a 0.90153497,0.90153497 0 0 0 -1.26368,0.17187 0.90153497,0.90153497 0 0 0 0.17188,1.26368 c 0.13037,0.0993 1.80549,1.39394 3.65039,2.52734 0.92245,0.5667 1.89238,1.1001 2.80273,1.44922 0.91036,0.34912 1.80929,0.64863 2.71289,0.12695 0.39567,-0.22844 0.70738,-0.65205 0.79883,-1.07812 0.0915,-0.42607 0.0185,-0.81122 -0.0976,-1.15821 -0.23224,-0.69397 -0.66681,-1.31348 -1.13282,-1.90234 -0.93201,-1.17772 -2.04687,-2.18164 -2.04687,-2.18164 a 0.90153497,0.90153497 0 0 0 -0.65039,-0.23242 z"
             id="path41437" /><path
             style="color:#000000;fill:#000000;stroke-width:0.425921;stroke-linecap:round;stroke-linejoin:round;-inkscape-stroke:none;paint-order:fill markers stroke"
             d="m 628.56055,762.16797 a 0.90153497,0.90153497 0 0 0 -1.25977,0.19531 c -0.17278,0.23647 -0.43228,0.65452 -0.88672,1.36524 -0.45443,0.71071 -1.03141,1.61985 -1.59961,2.51562 -1.13639,1.79154 -2.23633,3.53125 -2.23633,3.53125 a 0.90162513,0.90162513 0 0 0 0.0293,1.00781 c 2.35793,3.29318 3.3138,6.8155 4.33203,10.47657 1.01823,3.66106 2.10115,7.4611 4.81836,11.05468 a 0.90162513,0.90162513 0 0 0 1.13672,0.25586 c 0,0 1.23225,-0.63646 2.60938,-0.99414 0.68856,-0.17884 1.40505,-0.27759 1.95117,-0.22461 0.54612,0.053 0.86355,0.20693 1.08594,0.52539 1.51969,2.17625 3.40346,5.34833 5.10546,8.05469 0.85101,1.35318 1.65744,2.58879 2.3711,3.55078 0.35683,0.481 0.68825,0.89378 1.00976,1.22852 0.32152,0.33473 0.60199,0.60854 1.0586,0.77734 a 0.90153497,0.90153497 0 0 0 1.1582,-0.5332 0.90153497,0.90153497 0 0 0 -0.5332,-1.15821 c 0.06,0.0222 -0.14673,-0.0901 -0.38282,-0.33593 -0.23608,-0.2458 -0.53391,-0.60875 -0.86328,-1.05274 -0.65874,-0.88796 -1.44968,-2.0997 -2.29101,-3.4375 -1.68266,-2.67559 -3.5652,-5.85132 -5.1543,-8.12695 -0.57944,-0.82977 -1.51083,-1.1998 -2.39062,-1.28516 -0.8798,-0.0853 -1.76638,0.0626 -2.57813,0.27344 -1.17717,0.30575 -1.68402,0.59561 -2.16797,0.82617 -2.19795,-3.12914 -3.24829,-6.43565 -4.20703,-9.88281 -0.96248,-3.46061 -2.00869,-7.03859 -4.30078,-10.46875 0.22168,-0.35091 0.96439,-1.52658 1.96094,-3.09766 0.56757,-0.89479 1.14544,-1.80056 1.59765,-2.50781 0.45222,-0.70724 0.8508,-1.30981 0.82422,-1.27344 a 0.90153497,0.90153497 0 0 0 -0.19726,-1.25976 z"
             id="path41439" /><path
             style="color:#000000;fill:#000000;stroke-width:0.425921;stroke-linecap:round;stroke-linejoin:round;-inkscape-stroke:none;paint-order:fill markers stroke"
             d="m 618.05273,766.39258 c -0.89337,-0.0319 -1.92393,0.0729 -3.16406,0.3125 a 0.90153497,0.90153497 0 0 0 -0.71484,1.05664 0.90153497,0.90153497 0 0 0 1.05664,0.71289 c 2.31593,-0.44741 3.47385,-0.35261 4.42969,0.0742 0.95583,0.42683 1.85615,1.32174 3.36132,2.66406 a 0.90153497,0.90153497 0 0 0 1.27344,-0.0723 0.90153497,0.90153497 0 0 0 -0.0723,-1.27343 c -1.46159,-1.30346 -2.44329,-2.34644 -3.82813,-2.96485 -0.69242,-0.3092 -1.44842,-0.47782 -2.3418,-0.50976 z"
             id="path41441" /><path
             style="color:#000000;fill:#000000;stroke-width:0.425921;stroke-linecap:round;stroke-linejoin:round;-inkscape-stroke:none;paint-order:fill markers stroke"
             d="m 579.39453,769.15039 a 0.90153497,0.90153497 0 0 0 -1.06055,0.70898 0.90153497,0.90153497 0 0 0 0.70899,1.06055 l 22.35937,4.43945 a 0.90153497,0.90153497 0 0 0 1.06055,-0.70898 0.90153497,0.90153497 0 0 0 -0.70898,-1.05859 z"
             id="path41443" /><path
             style="color:#000000;fill:#000000;stroke-width:0.425921;stroke-linecap:round;stroke-linejoin:round;-inkscape-stroke:none;paint-order:fill markers stroke"
             d="m 633.41016,779.98633 a 0.90153497,0.90153497 0 0 0 -1.0586,0.71094 0.90153497,0.90153497 0 0 0 0.71094,1.05859 l 153.0293,30.19141 a 0.90153497,0.90153497 0 0 0 1.05859,-0.70899 0.90153497,0.90153497 0 0 0 -0.70898,-1.06055 z"
             id="path41445" /><path
             style="color:#000000;fill:#000000;stroke-width:0.425921;stroke-linecap:round;stroke-linejoin:round;-inkscape-stroke:none;paint-order:fill markers stroke"
             d="m 648.28125,771.40625 a 0.90153497,0.90153497 0 0 0 -0.83203,0.9668 l 0.45312,6.11132 a 0.90153497,0.90153497 0 0 0 0.9668,0.83204 0.90153497,0.90153497 0 0 0 0.83203,-0.9668 l -0.45508,-6.11133 a 0.90153497,0.90153497 0 0 0 -0.96484,-0.83203 z"
             id="path41447" /><path
             style="color:#000000;fill:#000000;stroke-width:0.425921;stroke-linecap:round;stroke-linejoin:round;-inkscape-stroke:none;paint-order:fill markers stroke"
             d="m 666.53906,774.25586 a 0.90153497,0.90153497 0 0 0 -1.05078,0.72266 L 664.375,781 a 0.90153497,0.90153497 0 0 0 0.72266,1.04883 0.90153497,0.90153497 0 0 0 1.05078,-0.72266 l 1.11328,-6.01953 a 0.90153497,0.90153497 0 0 0 -0.72266,-1.05078 z"
             id="path41449" /><path
             style="color:#000000;fill:#000000;stroke-width:0.425921;stroke-linecap:round;stroke-linejoin:round;-inkscape-stroke:none;paint-order:fill markers stroke"
             d="m 682.32031,778.89648 a 0.90153497,0.90153497 0 0 0 -1.07422,0.68555 l -1.05273,4.74414 a 0.90153497,0.90153497 0 0 0 0.68359,1.07422 0.90153497,0.90153497 0 0 0 1.07617,-0.68359 l 1.05274,-4.74414 a 0.90153497,0.90153497 0 0 0 -0.68555,-1.07618 z"
             id="path41451" /><path
             style="color:#000000;fill:#000000;stroke-width:0.425921;stroke-linecap:round;stroke-linejoin:round;-inkscape-stroke:none;paint-order:fill markers stroke"
             d="m 699.93555,797.73633 -10.60938,3.58203 a 0.90153497,0.90153497 0 0 0 -0.5664,1.14258 0.90153497,0.90153497 0 0 0 1.14257,0.5664 l 10.60938,-3.58203 a 0.90153497,0.90153497 0 0 0 0.5664,-1.14258 0.90153497,0.90153497 0 0 0 -1.14257,-0.5664 z"
             id="path41453" /><path
             style="color:#000000;fill:#000000;stroke-width:0.425921;stroke-linecap:round;stroke-linejoin:round;-inkscape-stroke:none;paint-order:fill markers stroke"
             d="m 691.37109,819.21484 -9.85351,2.08985 a 0.90153497,0.90153497 0 0 0 -0.69531,1.06836 0.90153497,0.90153497 0 0 0 1.06835,0.69531 l 9.85547,-2.08984 a 0.90153497,0.90153497 0 0 0 0.69336,-1.06836 0.90153497,0.90153497 0 0 0 -1.06836,-0.69532 z"
             id="path41455" /><path
             style="color:#000000;fill:#000000;stroke-width:0.425921;stroke-linecap:round;stroke-linejoin:round;-inkscape-stroke:none;paint-order:fill markers stroke"
             d="m 672.94922,842.60937 a 0.90153497,0.90153497 0 0 0 -1.20313,0.42188 0.90153497,0.90153497 0 0 0 0.42188,1.20312 l 8.27734,3.98829 a 0.90153497,0.90153497 0 0 0 1.20508,-0.41993 0.90153497,0.90153497 0 0 0 -0.42187,-1.20312 z"
             id="path41457" /><path
             style="color:#000000;fill:#000000;stroke-width:0.425921;stroke-linecap:round;stroke-linejoin:round;-inkscape-stroke:none;paint-order:fill markers stroke"
             d="m 661.27734,857.87695 a 0.90153497,0.90153497 0 0 0 -0.39648,1.21094 l 2.86133,5.65625 a 0.90153497,0.90153497 0 0 0 1.21093,0.39844 0.90153497,0.90153497 0 0 0 0.39844,-1.21094 l -2.86133,-5.6582 a 0.90153497,0.90153497 0 0 0 -1.21289,-0.39649 z"
             id="path41459" /><path
             style="color:#000000;fill:#000000;stroke-width:0.425921;stroke-linecap:round;stroke-linejoin:round;-inkscape-stroke:none;paint-order:fill markers stroke"
             d="m 635.83789,865.26562 a 0.90153497,0.90153497 0 0 0 -0.75586,1.02735 l 0.47656,3.16211 a 0.90153497,0.90153497 0 0 0 1.02735,0.75586 0.90153497,0.90153497 0 0 0 0.75586,-1.02539 l -0.47657,-3.16211 a 0.90153497,0.90153497 0 0 0 -1.02734,-0.75782 z"
             id="path41461" /><path
             style="color:#000000;fill:#000000;stroke-width:0.425921;stroke-linecap:round;stroke-linejoin:round;-inkscape-stroke:none;paint-order:fill markers stroke"
             d="m 613.81445,859.87109 a 0.90153497,0.90153497 0 0 0 -1.06445,0.70118 l -0.82813,4.0332 a 0.90153497,0.90153497 0 0 0 0.70313,1.06445 0.90153497,0.90153497 0 0 0 1.06445,-0.70117 l 0.82617,-4.0332 a 0.90153497,0.90153497 0 0 0 -0.70117,-1.06446 z"
             id="path41463" /><path
             style="color:#000000;fill:#000000;stroke-width:0.425921;stroke-linecap:round;stroke-linejoin:round;-inkscape-stroke:none;paint-order:fill markers stroke"
             d="m 595.45117,852.98437 -3.45312,1.43946 a 0.90153497,0.90153497 0 0 0 -0.48438,1.17773 0.90153497,0.90153497 0 0 0 1.17774,0.48633 l 3.45312,-1.43945 a 0.90153497,0.90153497 0 0 0 0.48438,-1.17969 0.90153497,0.90153497 0 0 0 -1.17774,-0.48438 z"
             id="path41465" /><path
             style="color:#000000;fill:#000000;stroke-width:0.425921;stroke-linecap:round;stroke-linejoin:round;-inkscape-stroke:none;paint-order:fill markers stroke"
             d="m 577.80469,830.46094 a 0.90153497,0.90153497 0 0 0 -1.13477,0.58008 0.90153497,0.90153497 0 0 0 0.58008,1.13476 l 4.48437,1.45313 a 0.90153497,0.90153497 0 0 0 1.13477,-0.58008 0.90153497,0.90153497 0 0 0 -0.58008,-1.13672 z"
             id="path41467" /><path
             style="color:#000000;fill:#000000;stroke-width:0.425921;stroke-linecap:round;stroke-linejoin:round;-inkscape-stroke:none;paint-order:fill markers stroke"
             d="m 579.28711,813.03516 a 0.90153497,0.90153497 0 0 0 -1.23828,0.30078 0.90153497,0.90153497 0 0 0 0.30078,1.23828 l 6.79492,4.13281 a 0.90153497,0.90153497 0 0 0 1.24024,-0.30078 0.90153497,0.90153497 0 0 0 -0.30274,-1.24023 z"
             id="path41469" /><path
             style="color:#000000;fill:#000000;stroke-width:0.425921;stroke-linecap:round;stroke-linejoin:round;-inkscape-stroke:none;paint-order:fill markers stroke"
             d="m 589.76367,798.84766 a 0.90153497,0.90153497 0 0 0 -0.42969,1.19921 l 7.95704,16.80079 a 0.90153497,0.90153497 0 0 0 1.19921,0.42773 0.90153497,0.90153497 0 0 0 0.42969,-1.19922 l -7.95508,-16.80078 a 0.90153497,0.90153497 0 0 0 -1.20117,-0.42773 z"
             id="path41471" /><path
             style="color:#000000;fill:#000000;stroke-width:0.425921;stroke-linecap:round;stroke-linejoin:round;-inkscape-stroke:none;paint-order:fill markers stroke"
             d="m 599.13672,791.5 a 0.90153497,0.90153497 0 0 0 -0.48633,1.17773 l 3.74219,9.01368 a 0.90153497,0.90153497 0 0 0 1.17969,0.48632 A 0.90153497,0.90153497 0 0 0 604.05859,801 l -3.74414,-9.01367 A 0.90153497,0.90153497 0 0 0 599.13672,791.5 Z"
             id="path41473" /><path
             style="color:#000000;fill:#000000;stroke-width:0.425921;stroke-linecap:round;stroke-linejoin:round;-inkscape-stroke:none;paint-order:fill markers stroke"
             d="m 645.2832,786.83203 c -2.57824,-0.0586 -5.12569,0.80398 -7.1582,2.48047 l -0.2793,0.23047 a 0.90153497,0.90153497 0 0 0 -0.12304,1.26953 0.90153497,0.90153497 0 0 0 1.26953,0.12109 l 0.28125,-0.23047 c 2.26137,-1.86526 5.28234,-2.52054 8.11328,-1.75976 l 31.86719,8.56445 c 1.87755,0.50457 2.69196,2.63716 1.62695,4.26367 l -30.4707,46.53516 c -1.31693,2.01126 -4.6793,3.60712 -7.03516,3.2832 -14.5514,-2.0007 -29.20737,-6.23529 -44.30078,-15.94726 -0.98158,-0.63161 -1.46972,-1.49854 -1.55664,-2.41211 -0.0869,-0.91357 0.23616,-1.89378 1.0625,-2.73242 l 17.51953,-17.7793 a 0.90153497,0.90153497 0 0 0 -0.01,-1.27539 0.90153497,0.90153497 0 0 0 -1.27539,0.01 l -17.51953,17.7793 c -1.16439,1.18172 -1.71164,2.70318 -1.57226,4.16797 0.13937,1.46479 0.97351,2.85476 2.37695,3.75781 15.34009,9.8707 30.30089,14.19149 45.03125,16.2168 3.26373,0.44874 6.99851,-1.34549 8.78906,-4.08008 l 30.46875,-46.53515 c 1.70856,-2.60937 0.34609,-6.18468 -2.66601,-6.99415 l -31.86914,-8.56445 c -0.84815,-0.22793 -1.7109,-0.3496 -2.57032,-0.36914 z"
             id="path41475" /><path
             style="color:#000000;fill:#000000;stroke-width:0.425921;stroke-linecap:round;stroke-linejoin:round;-inkscape-stroke:none;paint-order:fill markers stroke"
             d="m 682.48047,799.53516 a 0.90153497,0.90153497 0 0 0 -0.82617,0.97265 l 0.16211,1.97266 c 0.18402,2.23956 -0.35442,4.47797 -1.53711,6.38867 l -28.16993,45.51172 c -1.05802,1.70929 -3.8544,2.99719 -5.84765,2.70117 -15.38666,-2.28509 -28.95149,-3.99929 -45.42578,-13.91016 -3.19082,-3.21062 -2.65753,-5.26884 -3.07617,-8.48828 a 0.90153497,0.90153497 0 0 0 -1.00977,-0.77734 0.90153497,0.90153497 0 0 0 -0.77734,1.00977 c 0.38219,2.9391 10e-4,5.97841 3.64843,9.60351 a 0.90162513,0.90162513 0 0 0 0.16993,0.13281 c 16.82402,10.15205 30.80749,11.92589 46.20703,14.21289 2.87134,0.42643 6.11402,-1.06254 7.64453,-3.53515 l 28.16992,-45.51172 c 1.38554,-2.23841 2.01637,-4.86264 1.80078,-7.48633 l -0.16211,-1.97266 a 0.90153497,0.90153497 0 0 0 -0.9707,-0.82421 z"
             id="path41477" /><path
             style="color:#000000;fill:#000000;stroke-width:0.425921;stroke-linecap:round;stroke-linejoin:round;-inkscape-stroke:none;paint-order:fill markers stroke"
             d="m 640.82031,791.2793 a 0.90153497,0.90153497 0 0 0 -1.00586,0.7832 0.90153497,0.90153497 0 0 0 0.78321,1.00586 c 11.35233,1.4142 22.31959,4.90883 33.32812,8.47461 0.62664,0.20297 0.93849,0.54613 1.06641,0.91992 0.12792,0.37379 0.0916,0.83659 -0.2793,1.38086 l -27.06641,39.71484 c -0.75434,1.10684 -2.77638,1.95152 -4.0957,1.71289 -13.4158,-2.42653 -26.70826,-4.81731 -38.91016,-11.96093 -0.55497,-0.32492 -0.79314,-0.74217 -0.84179,-1.17969 -0.0486,-0.43752 0.0985,-0.93048 0.56054,-1.39258 l 13.34961,-13.34766 a 0.90153497,0.90153497 0 0 0 0,-1.27539 0.90153497,0.90153497 0 0 0 -1.27539,0 l -13.34961,13.34961 c -0.79998,0.79999 -1.19097,1.85037 -1.07812,2.86524 0.11284,1.01487 0.7375,1.95839 1.72266,2.53515 12.54252,7.34304 26.08832,9.7555 39.50195,12.18164 2.19325,0.3967 4.64827,-0.6297 5.9043,-2.47265 l 27.06835,-39.71485 c 0.63425,-0.93062 0.8203,-2.02743 0.49415,-2.98046 -0.32616,-0.95304 -1.14349,-1.70571 -2.21485,-2.05274 -11.01366,-3.56744 -22.09022,-7.10532 -33.66211,-8.54687 z"
             id="path41479" /><path
             style="color:#000000;fill:#000000;stroke-width:0.425921;stroke-linecap:round;stroke-linejoin:round;-inkscape-stroke:none;paint-order:fill markers stroke"
             d="m 612.39453,829.55078 a 0.90153497,0.90153497 0 0 0 -1.27344,0.0879 0.90153497,0.90153497 0 0 0 0.0879,1.27149 c 0.12849,0.11204 0.2845,0.35769 0.50977,0.70312 0.22527,0.34543 0.55186,0.8093 1.13281,1.09375 0.65868,0.32248 1.21484,0.27531 1.46875,0.32617 1.18529,0.23937 2.90725,0.54232 3.51758,0.94922 0.0389,0.0259 0.18386,0.20337 0.45703,0.47656 0.30049,0.30046 0.56211,0.45654 0.69727,0.57618 0.50477,0.44686 1.08575,1.01097 2.02734,1.23828 2.01233,0.48573 3.83558,-0.0576 5.2168,0.3125 0.5358,0.14358 0.94657,0.47004 1.50781,0.89648 0.56124,0.42644 1.29723,0.94579 2.33008,1.07227 1.18259,0.14479 2.22183,-0.16735 3.1289,-0.38672 0.90708,-0.21937 1.66,-0.35406 2.375,-0.16211 0.42364,0.11372 1.08254,0.59819 1.55469,1.06445 0.41741,0.41221 0.93326,1.142 1.95899,1.39844 0.78288,0.19573 1.48633,0.0597 2.05664,-0.0625 0.57031,-0.12222 1.02804,-0.22687 1.39258,-0.20117 0.54978,0.0388 1.73836,0.94764 2.68164,1.64648 a 0.90153497,0.90153497 0 0 0 1.26171,-0.1875 0.90153497,0.90153497 0 0 0 -0.1875,-1.26172 c -0.78242,-0.57967 -1.97438,-1.87945 -3.6289,-1.99609 -0.75012,-0.0529 -1.37837,0.12725 -1.89649,0.23828 -0.51811,0.11104 -0.90584,0.15831 -1.24218,0.0742 -0.35623,-0.0891 -0.57804,-0.38763 -1.12891,-0.93164 -0.57184,-0.5647 -1.34047,-1.24902 -2.35547,-1.52149 -1.20918,-0.32462 -2.31571,-0.0793 -3.26562,0.1504 -0.94991,0.22972 -1.76469,0.43601 -2.48633,0.34765 -0.56518,-0.0692 -0.93716,-0.3203 -1.45899,-0.7168 -0.52182,-0.39649 -1.16798,-0.94509 -2.13086,-1.20312 -2.04025,-0.54674 -3.89623,0.005 -5.25976,-0.32422 -0.46393,-0.11199 -0.71679,-0.35676 -1.25586,-0.83398 -0.29102,-0.25761 -0.51329,-0.39807 -0.61719,-0.50196 -0.11625,-0.11626 -0.30903,-0.41891 -0.73242,-0.70117 -1.30319,-0.86882 -3.11394,-1.00552 -4.16016,-1.2168 -0.55948,-0.11296 -0.93839,-0.13131 -1.0332,-0.17773 -0.11759,-0.0576 -0.23352,-0.1811 -0.41601,-0.46094 -0.1825,-0.27984 -0.39847,-0.6964 -0.83399,-1.07617 z"
             id="path41481" /><path
             style="color:#000000;fill:#000000;stroke-width:0.425921;stroke-linecap:round;stroke-linejoin:round;-inkscape-stroke:none;paint-order:fill markers stroke"
             d="m 616.65039,823.88867 a 0.90153497,0.90153497 0 0 0 -0.68945,0.0547 0.90153497,0.90153497 0 0 0 -0.39063,1.21289 c 0.53908,1.05407 1.16275,1.93004 2.03516,2.53906 0.87241,0.60902 1.95504,0.90004 3.23047,0.90625 1.72259,0.009 3.21185,-0.33649 4.39648,0.10352 0.5413,0.20106 1.06185,0.68458 1.79102,1.20312 1.09308,0.77728 2.48207,1.41289 3.89453,1.57227 1.28676,0.1452 2.63332,-0.0488 3.88867,-0.16992 1.25535,-0.1211 2.40737,-0.15681 3.17188,0.0937 0.52903,0.17338 1.13344,0.64503 1.80664,1.16992 0.67319,0.52489 1.4365,1.13094 2.48632,1.25 0.49297,0.0559 0.89158,0.0649 1.40235,-0.0156 0.65422,-0.10312 1.198,-0.30006 1.65234,-0.40234 0.45435,-0.10228 0.78084,-0.12242 1.125,-0.004 0.16142,0.0556 0.56216,0.37284 1.03125,0.75782 0.4691,0.38497 1.09435,0.89424 1.9961,0.83789 a 0.90153497,0.90153497 0 0 0 0.84375,-0.95508 0.90153497,0.90153497 0 0 0 -0.95508,-0.84375 c -0.0805,0.005 -0.34316,-0.10612 -0.74219,-0.4336 -0.39903,-0.32747 -0.84588,-0.81348 -1.58594,-1.06835 -0.76936,-0.26495 -1.50689,-0.18642 -2.10937,-0.0508 -0.60249,0.13563 -1.1088,0.31335 -1.53711,0.38086 -0.39449,0.0622 -0.473,0.0563 -0.91797,0.006 -0.4064,-0.0461 -0.94083,-0.38091 -1.58203,-0.88086 -0.64121,-0.49994 -1.36705,-1.13764 -2.35352,-1.46093 -1.25659,-0.41184 -2.6057,-0.30125 -3.90625,-0.17579 -1.30054,0.12547 -2.56477,0.27874 -3.51172,0.17188 -0.98694,-0.11136 -2.18626,-0.63191 -3.05273,-1.24805 -0.57919,-0.41188 -1.21792,-1.0557 -2.20899,-1.42383 -1.8485,-0.68659 -3.61502,-0.20962 -5.01367,-0.21679 -1.02038,-0.005 -1.67017,-0.20726 -2.20703,-0.58203 -0.53686,-0.37478 -0.99751,-0.97089 -1.46289,-1.88086 a 0.90153497,0.90153497 0 0 0 -0.52539,-0.44727 z"
             id="path41483" /><path
             style="color:#000000;fill:#000000;stroke-width:0.425921;stroke-linecap:round;stroke-linejoin:round;-inkscape-stroke:none;paint-order:fill markers stroke"
             d="m 634.49023,823.23437 a 0.90153497,0.90153497 0 0 0 -0.63476,0.26954 0.90153497,0.90153497 0 0 0 0.0117,1.27539 c 1.01309,0.99412 2.2258,1.77221 3.56836,2.27343 0.99979,0.37326 1.96015,0.23562 2.77343,0.0977 0.81329,-0.13796 1.51294,-0.27235 2.08204,-0.18945 1.05789,0.1541 2.11791,1.06273 3.67187,1.57031 0.91798,0.29987 1.77047,0.21805 2.51367,0.13867 0.47664,-0.0509 0.80884,-0.0803 1.01367,-0.0234 0.23333,0.0648 0.47123,0.19026 0.82618,0.33008 0.35494,0.13982 0.84764,0.27025 1.40625,0.20508 0.24999,-0.0292 0.44006,-0.0783 0.54882,-0.10547 0.0286,-0.007 0.0494,-0.007 0.0703,-0.0117 0.0586,0.0362 0.0865,0.0754 0.26953,0.0977 0.0686,0.008 0.2625,-0.006 0.26367,-0.006 10e-4,-2e-4 0.37421,-0.15374 0.375,-0.1543 7.9e-4,-5.6e-4 0.29646,-0.35848 0.29687,-0.35937 2.1e-4,-4.5e-4 0.0624,-0.18698 0.0625,-0.1875 1.2e-4,-5.3e-4 0.0197,-0.11258 0.0215,-0.16016 0.0142,-0.38059 -0.0945,-0.45445 -0.14844,-0.53906 -0.054,-0.0846 -0.1033,-0.13757 -0.1543,-0.1875 -0.0409,-0.04 -0.13497,-0.0304 -0.18359,-0.0664 a 0.90153497,0.90153497 0 0 0 -1.12305,0.25 c 0.086,-0.10361 0.18213,-0.21909 0.18164,-0.21875 -7.8e-4,5.6e-4 0.37032,-0.15449 0.36915,-0.15429 -10e-4,1.7e-4 0.14658,-0.009 0.22656,-0.006 -0.13463,-0.0447 -0.21097,-0.15272 -0.38477,-0.14063 a 0.90162513,0.90162513 0 0 0 -0.002,0 c -0.24863,0.0174 -0.45116,0.062 -0.57813,0.0937 -0.12696,0.0317 -0.17764,0.0478 -0.32031,0.0644 -0.20823,0.0243 -0.31214,-0.003 -0.53711,-0.0918 -0.22496,-0.0886 -0.54762,-0.2639 -1.0039,-0.39063 -0.68252,-0.18938 -1.2672,-0.0761 -1.6875,-0.0312 -0.71398,0.0763 -1.26064,0.10574 -1.76368,-0.0586 -1.07473,-0.35104 -2.23607,-1.38795 -3.9707,-1.64063 -0.99949,-0.14559 -1.88763,0.0673 -2.64258,0.19532 -0.75494,0.12806 -1.34558,0.17549 -1.84179,-0.01 -1.10289,-0.41175 -2.10016,-1.05134 -2.93555,-1.87109 a 0.90153497,0.90153497 0 0 0 -0.64063,-0.25782 z m 17.45704,4.60743 a 0.90153497,0.90153497 0 0 0 0.23437,1.05859 c -0.0325,-0.0227 -0.0857,-0.0141 -0.11523,-0.043 -0.0302,-0.0296 -0.0623,-0.0631 -0.10547,-0.13086 -0.0432,-0.0677 -0.14662,-0.12702 -0.13282,-0.49804 0.002,-0.0464 0.0196,-0.15678 0.0195,-0.15625 -1.2e-4,5.2e-4 0.0627,-0.186 0.0625,-0.18555 -6e-5,1.1e-4 0.0289,-0.035 0.0371,-0.0449 z"
             id="path41485" /><path
             style="color:#000000;fill:#000000;stroke-width:0.425921;stroke-linecap:round;stroke-linejoin:round;-inkscape-stroke:none;paint-order:fill markers stroke"
             d="m 642.25781,816.78125 a 0.90153497,0.90153497 0 0 0 -0.8457,0.95508 0.90153497,0.90153497 0 0 0 0.95508,0.84375 c 1.42986,-0.0869 1.99608,0.25861 3.19531,1.22851 0.38694,0.31295 0.89413,0.85511 1.76953,1.03711 0.83102,0.17279 1.5461,-0.007 2.11328,-0.0742 0.56718,-0.0669 0.89701,-0.0462 1.13672,0.11719 -0.002,-0.002 0.24548,0.34578 0.50195,0.79883 0.12824,0.22653 0.27319,0.47783 0.51563,0.72461 0.24243,0.24678 0.65454,0.49882 1.12695,0.49609 0.71339,-0.004 1.2395,-0.31476 1.61914,-0.52148 0.37965,-0.20672 0.61831,-0.31131 0.78907,-0.31641 0.29554,-0.009 -0.0947,-0.12821 0.15234,0.0508 -0.12809,-0.0928 -0.0167,-0.008 0.0781,0.125 0.0948,0.13274 0.21676,0.31567 0.38282,0.50782 0.16606,0.19215 0.36776,0.43974 0.8164,0.55859 0.44865,0.11885 1.04918,-0.1418 1.31641,-0.4707 A 0.90153497,0.90153497 0 0 0 657.75,821.57227 0.90153497,0.90153497 0 0 0 657,821.42383 c -0.0539,-0.0726 -0.0996,-0.1316 -0.16602,-0.22461 -0.11159,-0.15623 -0.19136,-0.32256 -0.49023,-0.53906 -0.32219,-0.23278 -0.87349,-0.40429 -1.26367,-0.39258 -0.70788,0.0212 -1.22178,0.3335 -1.59571,0.53711 -0.32058,0.17456 -0.49987,0.23161 -0.6582,0.25586 -0.0451,-0.0596 -0.094,-0.12415 -0.17187,-0.26172 -0.2083,-0.36796 -0.4014,-0.95364 -1.05664,-1.40039 -0.80013,-0.54554 -1.68707,-0.49772 -2.36329,-0.41797 -0.67621,0.0797 -1.2296,0.1655 -1.5371,0.10156 -0.28549,-0.0593 -0.50398,-0.27461 -1,-0.67578 -1.30611,-1.05634 -2.59421,-1.73712 -4.43946,-1.625 z"
             id="path41487" /><path
             style="color:#000000;fill:#000000;stroke-width:0.425921;stroke-linecap:round;stroke-linejoin:round;-inkscape-stroke:none;paint-order:fill markers stroke"
             d="m 654.9668,812.84961 c -0.63201,-0.0952 -1.3271,0.0825 -1.87696,0.51953 a 0.90153497,0.90153497 0 0 0 -0.14453,1.26563 0.90153497,0.90153497 0 0 0 1.26563,0.14453 c 0.19235,-0.15289 0.32364,-0.1713 0.48828,-0.14649 0.16464,0.0248 0.37471,0.1276 0.57031,0.33789 0.096,0.10315 0.24854,0.35368 0.47852,0.66016 0.22997,0.30648 0.58871,0.70208 1.15429,0.875 0.7026,0.21482 1.32945,0.0512 1.78907,-0.082 0.45597,-0.13213 0.78846,-0.22626 0.98242,-0.22071 0.015,0.0136 0.0648,0.0671 0.15039,0.1875 0.18211,0.25599 0.52572,0.83931 1.26562,1.04883 0.40261,0.11401 0.63669,0.0706 0.70508,0.0684 a 0.90153497,0.90153497 0 0 0 0.97461,0.19922 0.90153497,0.90153497 0 0 0 0.4043,-1.20898 c -0.24331,-0.48695 -0.86938,-0.75796 -1.19141,-0.78321 -0.32202,-0.0252 -0.45332,-0.0247 -0.40039,-0.01 -0.0183,-0.005 -0.0605,-0.0408 -0.28711,-0.35938 -0.11331,-0.15928 -0.26241,-0.37208 -0.51758,-0.57226 -0.25516,-0.20019 -0.63595,-0.36027 -1.02929,-0.375 -0.66236,-0.0249 -1.17138,0.18271 -1.5586,0.29492 -0.38722,0.11221 -0.60551,0.13505 -0.75976,0.0879 -0.0365,-0.0112 -0.10121,-0.0471 -0.24024,-0.23242 -0.13903,-0.18528 -0.30271,-0.4854 -0.60156,-0.80664 -0.43145,-0.46384 -0.98909,-0.79734 -1.62109,-0.89258 z"
             id="path41489" /></g><g
           id="path41493"
           style="stroke-width:0.5"><path
             style="color:#000000;fill:#000000;stroke-width:1.05833;stroke-linecap:round;stroke-linejoin:round;-inkscape-stroke:none;paint-order:fill markers stroke"
             d="m -571.69897,1353.3241 -0.29056,78.7737"
             id="path74179" /><path
             style="color:#000000;fill:#000000;stroke-width:0.5;stroke-linecap:round;stroke-linejoin:round;-inkscape-stroke:none;paint-order:fill markers stroke"
             d="m -571.69531,1352.2656 a 1.0583349,1.0583349 0 0 0 -1.0625,1.0547 l -0.29102,78.7735 a 1.0583349,1.0583349 0 0 0 1.05469,1.0625 1.0583349,1.0583349 0 0 0 1.0625,-1.0547 l 0.29102,-78.7735 a 1.0583349,1.0583349 0 0 0 -1.05469,-1.0625 z"
             id="path74181" /></g><g
           id="path41495"
           style="stroke-width:0.5"><path
             style="color:#000000;fill:#000000;stroke-width:1.05833;stroke-linecap:round;stroke-linejoin:round;-inkscape-stroke:none;paint-order:fill markers stroke"
             d="m -489.40381,1431.3286 1.06869,-77.5577"
             id="path74185" /><path
             style="color:#000000;fill:#000000;stroke-width:0.5;stroke-linecap:round;stroke-linejoin:round;-inkscape-stroke:none;paint-order:fill markers stroke"
             d="m -488.32031,1352.7129 a 1.0583349,1.0583349 0 0 0 -1.07227,1.043 l -1.07031,77.5586 a 1.0583349,1.0583349 0 0 0 1.04492,1.0722 1.0583349,1.0583349 0 0 0 1.07227,-1.0429 l 1.06836,-77.5586 a 1.0583349,1.0583349 0 0 0 -1.04297,-1.0723 z"
             id="path74187" /></g><g
           id="path41497"
           style="stroke-width:0.5"><path
             style="color:#000000;fill:#000000;stroke-width:1.05833;stroke-linecap:round;stroke-linejoin:round;-inkscape-stroke:none;paint-order:fill markers stroke"
             d="m -489.33953,1431.5416 -82.5424,0.5514"
             id="path74191" /><path
             style="color:#000000;fill:#000000;stroke-width:0.5;stroke-linecap:round;stroke-linejoin:round;-inkscape-stroke:none;paint-order:fill markers stroke"
             d="m -489.3457,1430.4824 -82.54297,0.5528 a 1.0583349,1.0583349 0 0 0 -1.05078,1.0644 1.0583349,1.0583349 0 0 0 1.06445,1.0508 l 82.54297,-0.5508 a 1.0583349,1.0583349 0 0 0 1.05078,-1.0644 1.0583349,1.0583349 0 0 0 -1.06445,-1.0528 z"
             id="path74193" /></g><g
           id="path41499"
           style="stroke-width:0.5"><path
             style="color:#000000;fill:#000000;stroke-width:1.05833;stroke-linecap:round;stroke-linejoin:round;-inkscape-stroke:none;paint-order:fill markers stroke"
             d="m -488.28675,1353.5118 h -83.85792"
             id="path74197" /><path
             style="color:#000000;fill:#000000;stroke-width:0.5;stroke-linecap:round;stroke-linejoin:round;-inkscape-stroke:none;paint-order:fill markers stroke"
             d="m -572.14453,1352.4531 a 1.0583349,1.0583349 0 0 0 -1.05859,1.0586 1.0583349,1.0583349 0 0 0 1.05859,1.0586 h 83.85742 a 1.0583349,1.0583349 0 0 0 1.05859,-1.0586 1.0583349,1.0583349 0 0 0 -1.05859,-1.0586 z"
             id="path74199" /></g><g
           id="path41501"
           style="stroke-width:0.5"><path
             style="color:#000000;fill:#000000;stroke-width:1.05833;stroke-linecap:round;stroke-linejoin:round;-inkscape-stroke:none;paint-order:fill markers stroke"
             d="m -560.13819,1369.4395 h 28.63374"
             id="path74203" /><path
             style="color:#000000;fill:#000000;stroke-width:0.5;stroke-linecap:round;stroke-linejoin:round;-inkscape-stroke:none;paint-order:fill markers stroke"
             d="m -560.13867,1368.3809 a 1.0583349,1.0583349 0 0 0 -1.0586,1.0586 1.0583349,1.0583349 0 0 0 1.0586,1.0585 h 28.63476 a 1.0583349,1.0583349 0 0 0 1.0586,-1.0585 1.0583349,1.0583349 0 0 0 -1.0586,-1.0586 z"
             id="path74205" /></g><g
           id="path41503"
           style="stroke-width:0.5"><path
             style="color:#000000;fill:#000000;stroke-width:1.05833;stroke-linecap:round;stroke-linejoin:round;-inkscape-stroke:none;paint-order:fill markers stroke"
             d="m -522.80414,1369.6618 h 20.62292"
             id="path74209" /><path
             style="color:#000000;fill:#000000;stroke-width:0.5;stroke-linecap:round;stroke-linejoin:round;-inkscape-stroke:none;paint-order:fill markers stroke"
             d="m -522.80469,1368.6035 a 1.0583349,1.0583349 0 0 0 -1.05859,1.0586 1.0583349,1.0583349 0 0 0 1.05859,1.0586 h 20.62305 a 1.0583349,1.0583349 0 0 0 1.05859,-1.0586 1.0583349,1.0583349 0 0 0 -1.05859,-1.0586 z"
             id="path74211" /></g><g
           id="path41505"
           style="stroke-width:0.5"><path
             style="color:#000000;fill:#000000;stroke-width:1.05833;stroke-linecap:round;stroke-linejoin:round;-inkscape-stroke:none;paint-order:fill markers stroke"
             d="m -560.13819,1391.2603 h 27.59532"
             id="path74215" /><path
             style="color:#000000;fill:#000000;stroke-width:0.5;stroke-linecap:round;stroke-linejoin:round;-inkscape-stroke:none;paint-order:fill markers stroke"
             d="m -560.13867,1390.2012 a 1.0583349,1.0583349 0 0 0 -1.0586,1.0586 1.0583349,1.0583349 0 0 0 1.0586,1.0586 h 27.5957 a 1.0583349,1.0583349 0 0 0 1.0586,-1.0586 1.0583349,1.0583349 0 0 0 -1.0586,-1.0586 z"
             id="path74217" /></g><g
           id="path41507"
           style="stroke-width:0.5"><path
             style="color:#000000;fill:#000000;stroke-width:1.05833;stroke-linecap:round;stroke-linejoin:round;-inkscape-stroke:none;paint-order:fill markers stroke"
             d="m -524.42552,1391.0652 h 24.22621"
             id="path74221" /><path
             style="color:#000000;fill:#000000;stroke-width:0.5;stroke-linecap:round;stroke-linejoin:round;-inkscape-stroke:none;paint-order:fill markers stroke"
             d="m -524.42578,1390.0078 a 1.0583349,1.0583349 0 0 0 -1.05859,1.0567 1.0583349,1.0583349 0 0 0 1.05859,1.0585 h 24.22656 a 1.0583349,1.0583349 0 0 0 1.0586,-1.0585 1.0583349,1.0583349 0 0 0 -1.0586,-1.0567 z"
             id="path74223" /></g><g
           id="path41509"
           style="stroke-width:0.5"><path
             style="color:#000000;fill:#000000;stroke-width:1.05833;stroke-linecap:round;stroke-linejoin:round;-inkscape-stroke:none;paint-order:fill markers stroke"
             d="m -525.15492,1411.0937 h 8.93168"
             id="path74227" /><path
             style="color:#000000;fill:#000000;stroke-width:0.5;stroke-linecap:round;stroke-linejoin:round;-inkscape-stroke:none;paint-order:fill markers stroke"
             d="m -525.1543,1410.0352 a 1.0583349,1.0583349 0 0 0 -1.05859,1.0586 1.0583349,1.0583349 0 0 0 1.05859,1.0585 h 8.93164 a 1.0583349,1.0583349 0 0 0 1.0586,-1.0585 1.0583349,1.0583349 0 0 0 -1.0586,-1.0586 z"
             id="path74229" /></g><g
           id="path41511"
           style="stroke-width:0.5"><path
             style="color:#000000;fill:#000000;stroke-width:1.05833;stroke-linecap:round;stroke-linejoin:round;-inkscape-stroke:none;paint-order:fill markers stroke"
             d="m -509.6204,1411.0937 h 10.81323"
             id="path74233" /><path
             style="color:#000000;fill:#000000;stroke-width:0.5;stroke-linecap:round;stroke-linejoin:round;-inkscape-stroke:none;paint-order:fill markers stroke"
             d="m -509.62109,1410.0352 a 1.0583349,1.0583349 0 0 0 -1.0586,1.0586 1.0583349,1.0583349 0 0 0 1.0586,1.0585 h 10.81445 a 1.0583349,1.0583349 0 0 0 1.05859,-1.0585 1.0583349,1.0583349 0 0 0 -1.05859,-1.0586 z"
             id="path74235" /></g><g
           id="path41513"
           style="stroke-width:0.5"><path
             style="color:#000000;fill:#000000;stroke-width:1.05833;stroke-linecap:round;stroke-linejoin:round;-inkscape-stroke:none;paint-order:fill markers stroke"
             d="m -534.03361,1411.0937 h -26.10458"
             id="path74239" /><path
             style="color:#000000;fill:#000000;stroke-width:0.5;stroke-linecap:round;stroke-linejoin:round;-inkscape-stroke:none;paint-order:fill markers stroke"
             d="m -560.13867,1410.0352 a 1.0583349,1.0583349 0 0 0 -1.0586,1.0586 1.0583349,1.0583349 0 0 0 1.0586,1.0585 h 26.10547 a 1.0583349,1.0583349 0 0 0 1.05859,-1.0585 1.0583349,1.0583349 0 0 0 -1.05859,-1.0586 z"
             id="path74241" /></g><g
           id="g41537"
           transform="matrix(2.121394,0,0,2.121394,-202.89336,-1096.1109)"
           style="stroke-width:0.235694;stroke-linecap:round"><g
             id="path41515"
             style="stroke-width:0.235694"><path
               style="color:#000000;fill:#000000;stroke-width:0.498886;stroke-linejoin:round;-inkscape-stroke:none;paint-order:fill markers stroke"
               d="m -301.76502,1202.652 0.0379,36.6573"
               id="path74245" /><path
               style="color:#000000;fill:#000000;stroke-width:0.235694;stroke-linejoin:round;-inkscape-stroke:none;paint-order:fill markers stroke"
               d="m -301.76562,1202.1523 a 0.49888599,0.49888599 0 0 0 -0.49805,0.5 l 0.0371,36.6582 a 0.49888599,0.49888599 0 0 0 0.5,0.4981 0.49888599,0.49888599 0 0 0 0.49804,-0.5 l -0.0371,-36.6563 a 0.49888599,0.49888599 0 0 0 -0.5,-0.5 z"
               id="path74247" /></g><g
             id="path41517"
             style="stroke-width:0.235694"><path
               style="color:#000000;fill:#000000;stroke-width:0.498886;stroke-linejoin:round;-inkscape-stroke:none;paint-order:fill markers stroke"
               d="m -263.01722,1239.1483 0.15848,-31.2472"
               id="path74251" /><path
               style="color:#000000;fill:#000000;stroke-width:0.235694;stroke-linejoin:round;-inkscape-stroke:none;paint-order:fill markers stroke"
               d="m -262.85547,1207.4023 a 0.49888599,0.49888599 0 0 0 -0.50195,0.4961 l -0.1582,31.2481 a 0.49888599,0.49888599 0 0 0 0.49609,0.5 0.49888599,0.49888599 0 0 0 0.50195,-0.4961 l 0.15821,-31.2461 a 0.49888599,0.49888599 0 0 0 -0.4961,-0.502 z"
               id="path74253" /></g><g
             id="path41519"
             style="stroke-width:0.235694"><path
               style="color:#000000;fill:#000000;stroke-width:0.498886;stroke-linejoin:round;-inkscape-stroke:none;paint-order:fill markers stroke"
               d="m -262.81777,1239.3954 h -38.94571"
               id="path74257" /><path
               style="color:#000000;fill:#000000;stroke-width:0.235694;stroke-linejoin:round;-inkscape-stroke:none;paint-order:fill markers stroke"
               d="m -301.76367,1238.8965 a 0.49888599,0.49888599 0 0 0 -0.49805,0.498 0.49888599,0.49888599 0 0 0 0.49805,0.5 h 38.94531 a 0.49888599,0.49888599 0 0 0 0.5,-0.5 0.49888599,0.49888599 0 0 0 -0.5,-0.498 z"
               id="path74259" /></g><path
             style="color:#000000;fill:#000000;stroke-width:0.235694;stroke-linejoin:round;-inkscape-stroke:none;paint-order:fill markers stroke"
             d="m -301.85156,1202.1133 a 0.49888599,0.49888599 0 0 0 -0.49805,0.5 0.49888599,0.49888599 0 0 0 0.49805,0.498 h 33.44531 l 5.2832,5.1934 a 0.49888599,0.49888599 0 0 0 0.70508,-0.01 0.49888599,0.49888599 0 0 0 -0.006,-0.705 l -5.42773,-5.336 a 0.49893588,0.49893588 0 0 0 -0.34961,-0.1445 z"
             id="path41521" /><g
             id="path41523"
             style="stroke-width:0.235694"><path
               style="color:#000000;fill:#000000;stroke-width:0.498886;stroke-linejoin:round;-inkscape-stroke:none;paint-order:fill markers stroke"
               d="m -294.05656,1210.1212 h 13.4055"
               id="path74267" /><path
               style="color:#000000;fill:#000000;stroke-width:0.235694;stroke-linejoin:round;-inkscape-stroke:none;paint-order:fill markers stroke"
               d="m -294.05664,1209.623 a 0.4988865,0.4988865 0 0 0 -0.49805,0.4981 0.4988865,0.4988865 0 0 0 0.49805,0.498 h 13.40625 a 0.4988865,0.4988865 0 0 0 0.49805,-0.498 0.4988865,0.4988865 0 0 0 -0.49805,-0.4981 z"
               id="path74269" /></g><g
             id="path41525"
             style="stroke-width:0.235694"><path
               style="color:#000000;fill:#000000;stroke-width:0.498886;stroke-linejoin:round;-inkscape-stroke:none;paint-order:fill markers stroke"
               d="m -278.59259,1210.226 h 9.7214"
               id="path74273" /><path
               style="color:#000000;fill:#000000;stroke-width:0.235694;stroke-linejoin:round;-inkscape-stroke:none;paint-order:fill markers stroke"
               d="m -278.5918,1209.7266 a 0.49888599,0.49888599 0 0 0 -0.5,0.5 0.49888599,0.49888599 0 0 0 0.5,0.498 h 9.72071 a 0.49888599,0.49888599 0 0 0 0.49804,-0.498 0.49888599,0.49888599 0 0 0 -0.49804,-0.5 z"
               id="path74275" /></g><g
             id="path41527"
             style="stroke-width:0.235694"><path
               style="color:#000000;fill:#000000;stroke-width:0.498886;stroke-linejoin:round;-inkscape-stroke:none;paint-order:fill markers stroke"
               d="m -293.80976,1220.4073 h 11.48879"
               id="path74279" /><path
               style="color:#000000;fill:#000000;stroke-width:0.235694;stroke-linejoin:round;-inkscape-stroke:none;paint-order:fill markers stroke"
               d="m -293.81055,1219.9082 a 0.4988865,0.4988865 0 0 0 -0.49804,0.5 0.4988865,0.4988865 0 0 0 0.49804,0.4981 h 11.49024 a 0.4988865,0.4988865 0 0 0 0.49804,-0.4981 0.4988865,0.4988865 0 0 0 -0.49804,-0.5 z"
               id="path74281" /></g><g
             id="path41529"
             style="stroke-width:0.235694"><path
               style="color:#000000;fill:#000000;stroke-width:0.498886;stroke-linejoin:round;-inkscape-stroke:none;paint-order:fill markers stroke"
               d="m -279.35689,1220.3153 h 11.41995"
               id="path74285" /><path
               style="color:#000000;fill:#000000;stroke-width:0.235694;stroke-linejoin:round;-inkscape-stroke:none;paint-order:fill markers stroke"
               d="m -279.35742,1219.8164 a 0.49888599,0.49888599 0 0 0 -0.49805,0.4981 0.49888599,0.49888599 0 0 0 0.49805,0.5 h 11.41992 a 0.49888599,0.49888599 0 0 0 0.5,-0.5 0.49888599,0.49888599 0 0 0 -0.5,-0.4981 z"
               id="path74287" /></g><g
             id="path41531"
             style="stroke-width:0.235694"><path
               style="color:#000000;fill:#000000;stroke-width:0.498886;stroke-linejoin:round;-inkscape-stroke:none;paint-order:fill markers stroke"
               d="m -279.70072,1229.8194 h 4.21029"
               id="path74291" /><path
               style="color:#000000;fill:#000000;stroke-width:0.235694;stroke-linejoin:round;-inkscape-stroke:none;paint-order:fill markers stroke"
               d="m -279.70117,1229.3203 a 0.49888599,0.49888599 0 0 0 -0.49805,0.5 0.49888599,0.49888599 0 0 0 0.49805,0.4981 h 4.21094 a 0.49888599,0.49888599 0 0 0 0.49804,-0.4981 0.49888599,0.49888599 0 0 0 -0.49804,-0.5 z"
               id="path74293" /></g><g
             id="path41533"
             style="stroke-width:0.235694"><path
               style="color:#000000;fill:#000000;stroke-width:0.498886;stroke-linejoin:round;-inkscape-stroke:none;paint-order:fill markers stroke"
               d="m -272.37793,1229.4509 h 5.09723"
               id="path74297" /><path
               style="color:#000000;fill:#000000;stroke-width:0.235694;stroke-linejoin:round;-inkscape-stroke:none;paint-order:fill markers stroke"
               d="m -272.37891,1228.9512 a 0.49888599,0.49888599 0 0 0 -0.49804,0.5 0.49888599,0.49888599 0 0 0 0.49804,0.498 h 5.09766 a 0.49888599,0.49888599 0 0 0 0.5,-0.498 0.49888599,0.49888599 0 0 0 -0.5,-0.5 z"
               id="path74299" /></g><g
             id="path41535"
             style="stroke-width:0.235694"><path
               style="color:#000000;fill:#000000;stroke-width:0.498886;stroke-linejoin:round;-inkscape-stroke:none;paint-order:fill markers stroke"
               d="m -282.59393,1229.7565 h -10.86815"
               id="path74303" /><path
               style="color:#000000;fill:#000000;stroke-width:0.235694;stroke-linejoin:round;-inkscape-stroke:none;paint-order:fill markers stroke"
               d="m -293.46289,1229.2578 a 0.4988865,0.4988865 0 0 0 -0.49805,0.4981 0.4988865,0.4988865 0 0 0 0.49805,0.5 h 10.86914 a 0.4988865,0.4988865 0 0 0 0.49805,-0.5 0.4988865,0.4988865 0 0 0 -0.49805,-0.4981 z"
               id="path74305" /></g></g><path
           id="circle41539"
           style="fill-rule:evenodd;stroke-width:0.132291;stroke-linecap:round"
           d="m -830.74992,1471.3026 a 2.4524136,2.4524136 0 0 1 -2.45241,2.4524 2.4524136,2.4524136 0 0 1 -2.45242,-2.4524 2.4524136,2.4524136 0 0 1 2.45242,-2.4524 2.4524136,2.4524136 0 0 1 2.45241,2.4524 z" /><path
           id="circle41541"
           style="fill-rule:evenodd;stroke-width:0.132291;stroke-linecap:round"
           d="m -830.71364,1493.9188 a 2.4886951,2.4886951 0 0 1 -2.48869,2.4887 2.4886951,2.4886951 0 0 1 -2.4887,-2.4887 2.4886951,2.4886951 0 0 1 2.4887,-2.4887 2.4886951,2.4886951 0 0 1 2.48869,2.4887 z" /><path
           id="circle41543"
           style="fill-rule:evenodd;stroke-width:0.132291;stroke-linecap:round"
           d="m -830.42341,1512.2614 a 2.7789207,2.7789207 0 0 1 -2.77892,2.7789 2.7789207,2.7789207 0 0 1 -2.77892,-2.7789 2.7789207,2.7789207 0 0 1 2.77892,-2.779 2.7789207,2.7789207 0 0 1 2.77892,2.779 z" /><path
           style="color:#000000;fill:#000000;stroke-width:0.5;stroke-linecap:round;stroke-linejoin:round;-inkscape-stroke:none;paint-order:fill markers stroke"
           d="m -496.17578,1324.1523 a 1.0583349,1.0583349 0 0 0 -1.07617,1.0391 l -0.26172,14.4238 a 1.0583349,1.0583349 0 0 0 1.03906,1.0782 1.0583349,1.0583349 0 0 0 1.07617,-1.0391 l 0.26172,-14.4258 a 1.0583349,1.0583349 0 0 0 -1.03906,-1.0762 z"
           id="path41545" /><path
           style="color:#000000;fill:#000000;stroke-width:0.5;stroke-linecap:round;stroke-linejoin:round;-inkscape-stroke:none;paint-order:fill markers stroke"
           d="m -470.05664,1330.4785 a 1.0583349,1.0583349 0 0 0 -0.73633,0.3399 l -11.63867,12.5664 a 1.0583349,1.0583349 0 0 0 0.0586,1.4961 1.0583349,1.0583349 0 0 0 1.4961,-0.059 l 11.63672,-12.5664 a 1.0583349,1.0583349 0 0 0 -0.0566,-1.4961 1.0583349,1.0583349 0 0 0 -0.75977,-0.2813 z"
           id="path41547" /><path
           style="color:#000000;fill:#000000;stroke-width:0.5;stroke-linecap:round;stroke-linejoin:round;-inkscape-stroke:none;paint-order:fill markers stroke"
           d="m -480.31836,1356.1543 a 1.0583349,1.0583349 0 0 0 -0.62109,0.5215 1.0583349,1.0583349 0 0 0 0.45117,1.4277 l 13.20508,6.877 a 1.0583349,1.0583349 0 0 0 1.42773,-0.4492 1.0583349,1.0583349 0 0 0 -0.45117,-1.4278 l -13.20508,-6.8789 a 1.0583349,1.0583349 0 0 0 -0.80664,-0.07 z"
           id="path41549" /><path
           style="color:#000000;fill:#000000;stroke-width:0.5;stroke-linecap:round;stroke-linejoin:round;-inkscape-stroke:none;paint-order:fill markers stroke"
           d="m -845.56836,1416.2813 a 1.0583349,1.0583349 0 0 0 -0.61328,1.3652 l 4.03516,10.5937 a 1.0583349,1.0583349 0 0 0 1.36523,0.6133 1.0583349,1.0583349 0 0 0 0.61328,-1.3652 l -4.03515,-10.5938 a 1.0583349,1.0583349 0 0 0 -1.36524,-0.6132 z"
           id="path41551" /><path
           style="color:#000000;fill:#000000;stroke-width:0.5;stroke-linecap:round;stroke-linejoin:round;-inkscape-stroke:none;paint-order:fill markers stroke"
           d="m -858.35352,1433.9004 a 1.0583349,1.0583349 0 0 0 -0.0156,1.4961 l 5.77539,5.8906 a 1.0583349,1.0583349 0 0 0 1.49609,0.016 1.0583349,1.0583349 0 0 0 0.0156,-1.4961 l -5.77539,-5.8925 a 1.0583349,1.0583349 0 0 0 -1.4961,-0.014 z"
           id="path41553" /><path
           style="color:#000000;fill:#000000;stroke-width:0.5;stroke-linecap:round;stroke-linejoin:round;-inkscape-stroke:none;paint-order:fill markers stroke"
           d="m -854.62109,1453.7207 -9.95508,2.8164 a 1.0583349,1.0583349 0 0 0 -0.73047,1.3047 1.0583349,1.0583349 0 0 0 1.30664,0.7305 l 9.95508,-2.8145 a 1.0583349,1.0583349 0 0 0 0.72851,-1.3066 1.0583349,1.0583349 0 0 0 -1.30468,-0.7305 z"
           id="path41555" /><path
           style="color:#000000;fill:#000000;stroke-width:0.5;stroke-linecap:round;stroke-linejoin:round;-inkscape-stroke:none;paint-order:fill markers stroke"
           d="m -816.57227,1539.8633 a 1.0583349,1.0583349 0 0 0 -1.18554,0.914 1.0583349,1.0583349 0 0 0 0.91406,1.1856 c 5.77547,0.7459 12.29071,3.0367 17.21289,6.75 3.26128,2.4603 5.69767,5.5573 6.98633,9.209 -1.89188,0.1826 -3.78921,0.6819 -5.62695,1.7832 -2.85462,1.6654 -4.15741,3.6859 -3.99219,5.6367 0.16522,1.9508 1.66743,3.412 3.42969,4.2109 1.76225,0.7989 3.91032,1.0125 5.79492,0.1934 1.88459,-0.8191 3.35203,-2.7803 3.53711,-5.7168 a 1.0584408,1.0584408 0 0 0 0,-0.029 c 0.0479,-1.3637 -0.17745,-2.6199 -0.40039,-3.875 0.37795,0.052 0.76358,-0.033 1.13867,0.055 2.76399,0.6454 5.43285,2.2748 7.67187,4.5019 4.47806,4.4543 7.11486,11.2488 5.75782,16.6641 a 1.0583349,1.0583349 0 0 0 0.76953,1.2832 1.0583349,1.0583349 0 0 0 1.28515,-0.7695 c 1.60731,-6.4141 -1.38347,-13.7691 -6.31836,-18.6778 -2.46744,-2.4543 -5.45119,-4.3092 -8.68554,-5.0644 -0.67463,-0.1575 -1.38722,-0.039 -2.08008,-0.094 -1.35455,-4.4604 -4.25847,-8.1833 -7.99219,-11 -5.29998,-3.9982 -12.1003,-6.3701 -18.2168,-7.1601 z m 23.61329,20.1133 c 0.31834,-0.046 0.62975,0.062 0.94726,0.045 0.25321,1.2429 0.43948,2.5168 0.39258,3.8887 -0.15182,2.3378 -1.07656,3.3785 -2.26367,3.8945 -1.1902,0.5173 -2.79586,0.4016 -4.07813,-0.1797 -1.28226,-0.5813 -2.11615,-1.5512 -2.19336,-2.4629 -0.0772,-0.9117 0.47236,-2.1838 2.94922,-3.6289 a 1.0584408,1.0584408 0 0 0 0.0117,-0.01 c 1.40803,-0.8456 2.82441,-1.3429 4.23438,-1.5488 z"
           id="path41557" /><path
           style="color:#000000;fill:#000000;stroke-width:0.5;stroke-linecap:round;stroke-linejoin:round;-inkscape-stroke:none;paint-order:fill markers stroke"
           d="m -548.6875,1447.5566 a 1.0583349,1.0583349 0 0 0 -0.60742,0.5352 l -0.54102,1.1016 a 1.0584408,1.0584408 0 0 0 -0.008,0.019 l -0.51758,1.1133 a 1.0584408,1.0584408 0 0 0 -0.0352,0.086 c -2.92836,8.0803 -6.91199,17.5116 -4.44336,26.4512 0.19756,0.8872 0.49981,1.6668 0.86718,2.3691 -0.50668,1.0651 -0.95968,2.1675 -1.24218,3.3164 -1.31024,5.3287 -0.21911,11.4462 4.41797,14.5977 a 1.0583349,1.0583349 0 0 0 1.4707,-0.2813 1.0583349,1.0583349 0 0 0 -0.28125,-1.4687 c -3.6965,-2.5123 -4.70689,-7.642 -3.55078,-12.3438 0.15897,-0.6465 0.44855,-1.2267 0.68359,-1.8379 0.83408,0.8161 1.78287,1.4387 2.8125,1.7793 2.36745,0.7832 4.9495,0.4442 7.01758,-0.5156 2.06807,-0.9598 3.77698,-2.6153 3.82617,-4.7656 0.0246,-1.0751 -0.4248,-2.1809 -1.29883,-3.1387 -0.87403,-0.9578 -2.15911,-1.8088 -3.93554,-2.5703 a 1.0584408,1.0584408 0 0 0 -0.50196,-0.082 c -3.40977,0.2752 -6.05704,2.3054 -7.97461,4.9961 -0.063,-0.2119 -0.19868,-0.2949 -0.25,-0.5274 a 1.0584408,1.0584408 0 0 0 -0.0137,-0.057 c -2.22196,-7.9844 1.41457,-17.0073 4.36914,-25.1563 l 0.49414,-1.0625 0.53516,-1.0918 a 1.0583349,1.0583349 0 0 0 -0.48438,-1.416 1.0583349,1.0583349 0 0 0 -0.80859,-0.051 z m 4.04883,26.5508 c 1.38504,0.6332 2.41225,1.2976 2.95703,1.8946 0.59042,0.647 0.75722,1.1759 0.74609,1.6621 -0.0222,0.9723 -0.98581,2.1455 -2.59961,2.8945 -1.6138,0.749 -3.72302,1.0007 -5.46093,0.4258 -0.97877,-0.3238 -1.8081,-0.9731 -2.50196,-1.8789 1.57521,-2.6928 3.93018,-4.6587 6.85938,-4.9981 z"
           id="path41559" /></g><path
         style="fill:#000000;fill-opacity:1;stroke:none;stroke-width:1.05833;stroke-linecap:round;stroke-linejoin:round;stroke-dasharray:none;stroke-opacity:1;paint-order:fill markers stroke"
         d="m 1668.0982,1653.2029 c 0.7798,0.3078 18.0184,9.3274 18.0184,9.3274 l 24.4111,8.3525 13.8113,1.6316 4.4841,-2.0728 23.9492,-34.6109 11.5847,-18.0802 2.8424,-4.5149 c 0,0 0.6669,6.5159 0.1436,7.2957 -0.5233,0.7799 -18.121,28.6184 -18.121,28.6184 l -16.2842,26.1967 c 0,0 -3.3349,3.2118 -4.0224,3.5402 -0.6874,0.3283 -10.261,-0.7491 -10.261,-0.7491 l -21.2917,-3.8069 -16.5511,-6.5569 -10.3328,-6.1669 c 0,0 -2.6782,-4.2276 -2.7602,-4.8946 -0.082,-0.667 0.3796,-3.5093 0.3796,-3.5093 z"
         id="path41565" /></g></g></svg>
