<svg preserveAspectRatio="none" width="100%" height="100%" overflow="visible" style="display: block;" viewBox="0 0 22.0789 26.3618" fill="none" xmlns="http://www.w3.org/2000/svg">
<g id="moon">
<path id="Vector" d="M1.11351 11.4561C4.63978 11.785 4.9032 13.0086 3.16253 15.3177C3.12624 15.3659 4.42435 16.7033 4.35887 17.3801C4.28476 18.1456 3.67977 18.445 3.68188 19.0352C4.09564 18.8723 4.19895 18.8197 4.65552 18.7554C5.18391 19.296 5.84956 19.8892 5.86128 20.6912C5.87952 21.9403 4.98096 23.0714 3.70128 23.1095C2.05814 22.0887 1.46025 20.9998 3.02889 19.5816L3.17942 19.4467C2.815 19.0448 0.617176 19.5297 0.425944 18.504C-0.00413612 16.1987 0.973537 15.9058 2.53258 15.4533C2.0568 14.9087 0.818012 15.4539 0.0582681 14.6765C-0.171556 13.6704 0.298658 12.1044 1.11351 11.4561Z" fill="var(--fill-0, #BABABA)"/>
<path id="Vector_2" d="M3.86098 3.46364C6.95122 3.16482 8.09286 5.4181 5.89753 7.79718C5.15737 8.02495 4.14898 7.67254 3.67186 7.12655C2.26123 5.51259 2.73663 4.59556 3.86098 3.46364Z" fill="var(--fill-0, #BABABA)"/>
<path id="Vector_3" d="M2.42325 7.28581C4.84092 7.18268 6.39285 10.3182 3.53781 11.3854C0.472916 11.0609 -0.218667 8.94241 2.42325 7.28581Z" fill="var(--fill-0, #BABABA)"/>
<path id="Vector_4" d="M7.75695 0.556396C10.4782 0.577906 10.8437 3.11907 8.30645 4.64258C4.95663 3.90301 5.87708 2.25025 7.75695 0.556396Z" fill="var(--fill-0, #BABABA)"/>
<path id="Vector_5" d="M6.55203 21.91C9.38518 22.0497 9.72636 24.1604 7.73455 25.9115C5.1414 25.5318 4.47919 23.5974 6.55203 21.91Z" fill="var(--fill-0, #BABABA)"/>
<path id="Vector_6" d="M10.9802 22.8377C11.8966 22.7776 12.7057 23.4313 12.8399 24.3401C12.9741 25.249 12.3883 26.1086 11.4936 26.3162C10.8466 26.4662 10.17 26.2398 9.74336 25.7305C9.31693 25.2212 9.21266 24.5152 9.47378 23.9043C9.73509 23.2932 10.3172 22.8811 10.9802 22.8377Z" fill="var(--fill-0, #BABABA)"/>
<path id="Vector_7" d="M19.293 8.86081C21.8624 8.53472 22.8734 9.7329 21.391 12.0486C18.904 13.3094 18.4753 10.8374 19.293 8.86081Z" fill="var(--fill-0, #BABABA)"/>
<path id="Vector_8" d="M14.0182 23.2566C14.517 22.9533 15.1402 22.9418 15.65 23.2262C16.1598 23.5105 16.4775 24.0469 16.4817 24.6307C16.4862 25.2145 16.1767 25.7557 15.6711 26.0476C14.9016 26.492 13.9178 26.2343 13.4648 25.4695C13.0121 24.7048 13.2588 23.7181 14.0182 23.2566Z" fill="var(--fill-0, #BABABA)"/>
<path id="Vector_9" d="M17.693 22.8333C18.1202 22.5579 18.6658 22.5455 19.1051 22.8016C19.5442 23.0576 19.8027 23.5385 19.7735 24.0463C19.7445 24.5539 19.4329 25.0021 18.9673 25.2065C18.3223 25.4891 17.5682 25.2289 17.2349 24.6082C16.9017 23.9877 17.101 23.2151 17.693 22.8333Z" fill="var(--fill-0, #BABABA)"/>
<path id="Vector_10" d="M10.8903 0.136789C11.5118 -0.175672 12.2689 0.0647693 12.5962 0.678743C12.9236 1.29253 12.7015 2.05553 12.0959 2.39757C11.691 2.62649 11.1939 2.61784 10.797 2.3749C10.4003 2.13215 10.1663 1.69333 10.1857 1.22838C10.2051 0.763628 10.4748 0.345736 10.8903 0.136789Z" fill="var(--fill-0, #BABABA)"/>
</g>
</svg>
