<svg preserveAspectRatio="none" width="100%" height="100%" overflow="visible" style="display: block;" viewBox="0 0 28.8657 102.01" fill="none" xmlns="http://www.w3.org/2000/svg">
<g id="lamp">
<path id="Vector" d="M13.3801 25.8066C14.9563 25.7204 16.0718 26.4321 16.0303 28.1114C15.4868 28.8936 15.4578 28.6272 14.5045 29.1548C15.6187 29.6103 16.4322 30.2124 16.2882 31.5248C16.2229 32.1186 15.386 32.3608 14.8793 32.7011C14.8587 33.9295 16.7152 33.1519 15.9927 36.1987C15.264 36.4831 14.117 36.892 13.4001 36.36C11.544 34.983 13.272 34.2002 13.4224 32.7946C13.4164 32.85 12.4908 31.7236 12.3679 31.1006C12.5463 30.0129 12.6035 30.2804 13.4915 29.3176C13.5312 27.9971 11.2754 27.9981 13.3801 25.8066Z" fill="var(--fill-0, #BABABA)"/>
<path id="Vector_2" d="M14.1489 86.4816C16.5921 86.2888 17.7 88.7095 15.3537 89.9745L15.2057 90.0533L15.1157 90.3682C16.4802 91.7629 17.6679 92.8231 15.4674 94.2721C14.444 94.257 13.4236 94.2867 12.7621 93.3857C12.4782 92.1896 13.3686 91.3876 14.0005 90.2276C12.9691 88.6671 11.6792 88.3665 14.1489 86.4816Z" fill="var(--fill-0, #BABABA)"/>
<path id="Vector_3" d="M20.0968 26.8325C23.7402 27.3989 20.3925 32.0965 22.0014 34.0005C23.2133 35.4345 22.6026 35.9665 21.4059 36.9342C20.3406 36.9809 19.5744 36.9131 18.941 36.025C18.7726 34.9959 19.5429 33.9571 19.6498 32.883C19.8631 30.7386 19.6679 28.9796 20.0968 26.8325Z" fill="var(--fill-0, #BABABA)"/>
<path id="Vector_4" d="M14.6472 44.9446C18.8176 47.6419 15.5321 48.198 14.7867 49.5303C16.9168 49.9545 17.2248 52.2671 15.0417 53.3814C13.287 53.3418 12.3731 51.6758 13.1473 50.1986C13.8719 49.8199 13.85 49.9845 14.1013 49.4016C13.2363 47.7537 11.5538 46.4399 14.6472 44.9446Z" fill="var(--fill-0, #BABABA)"/>
<path id="Vector_5" d="M13.7776 70.0928C14.9448 70.0884 15.9472 70.0867 16.6048 71.1537C16.6954 72.3688 15.8769 73.102 15.1408 74.044C16.8582 75.566 17.517 76.7499 15.1229 78.1697C12.4945 77.4225 11.7017 74.6274 14.6798 74.1197C14.1489 72.8934 11.431 72.8462 13.7776 70.0928Z" fill="var(--fill-0, #BABABA)"/>
<path id="Vector_6" d="M14.6471 44.9447C13.5302 44.6411 12.5372 44.209 12.9308 42.8297C13.0368 42.4579 13.8054 41.1074 13.6362 40.8731C12.7745 39.6801 12.4919 38.1531 13.9283 37.1902C14.6963 36.9767 15.0904 37.1437 15.7202 37.5968C16.727 39.2061 16.5832 40.9943 14.3157 40.8783L14.2351 41.0661C16.4606 42.1562 18.139 43.8823 14.6471 44.9447Z" fill="var(--fill-0, #BABABA)"/>
<path id="Vector_7" d="M13.8604 57.7033C15.0081 57.6052 15.9336 57.8155 16.4923 58.8477C16.5399 60.0672 15.9451 60.6593 15.2149 61.598C15.8059 62.6789 16.7826 62.7211 16.5482 64.1369C16.1671 64.7789 16.0764 64.8338 15.4451 65.2415C14.4824 65.3522 14.1975 65.3255 13.3097 64.9496C12.0673 63.4755 14.1194 62.0497 14.086 61.5619C13.9909 60.1778 11.4729 60.3795 13.8604 57.7033Z" fill="var(--fill-0, #BABABA)"/>
<path id="Vector_8" d="M24.9544 10.4992C25.9404 10.4978 26.7268 10.5929 27.4554 11.3526C27.8385 12.5685 27.1657 12.9526 26.5386 14.1799C28.267 15.5869 29.5876 16.7787 26.6183 17.8588C25.5279 17.6387 24.8448 17.1109 24.4869 16.046C24.6979 14.3015 25.5986 14.9535 26.1205 14.0428C23.6018 13.4699 22.4031 12.425 24.9544 10.4992Z" fill="var(--fill-0, #BABABA)"/>
<path id="Vector_9" d="M6.59092 0.0118408C7.76616 0.0852027 8.6361 0.692646 8.81313 1.94134C8.8761 2.3623 8.7705 2.79114 8.51937 3.13471C8.09025 3.72353 7.7362 3.75541 7.0473 3.85931L6.83975 3.88927C6.10804 4.6202 7.07726 4.9027 6.31847 5.92592C5.59214 6.30886 5.17569 6.19959 4.37217 6.1245C3.7931 5.56891 3.3083 5.12528 3.09595 4.34615C3.34497 2.93787 4.47259 3.03446 5.70273 2.9949C5.87284 2.62752 5.64571 1.93346 5.58926 1.34868C5.81255 0.66672 6.07636 0.488885 6.59092 0.0118408Z" fill="var(--fill-0, #BABABA)"/>
<path id="Vector_10" d="M14.2735 82.2136C16.6666 82.4005 17.6408 84.7413 15.5741 86.2251C12.4749 86.1709 12.0567 84.0529 14.2735 82.2136Z" fill="var(--fill-0, #BABABA)"/>
<path id="Vector_11" d="M24.8529 6.68103L25.8398 7.05226C28.078 7.88517 27.6385 9.20357 25.9414 10.2833C22.8018 10.3687 22.0382 8.01153 24.8529 6.68103Z" fill="var(--fill-0, #BABABA)"/>
<path id="Vector_12" d="M14.5855 65.4441C16.8086 66.5476 17.4138 68.229 15.1862 69.7471C13.9223 69.4281 12.7309 69.1433 12.9934 67.2958C13.1269 66.3573 13.81 65.8862 14.5855 65.4441Z" fill="var(--fill-0, #BABABA)"/>
<path id="Vector_13" d="M3.33707 10.0778C5.68887 11.0941 6.28312 12.5598 3.96165 14.0627C3.8115 14.0234 3.66174 13.9826 3.51217 13.9408C0.826094 13.1857 0.872747 11.1747 3.33707 10.0778Z" fill="var(--fill-0, #BABABA)"/>
<path id="Vector_14" d="M14.1037 53.7834C14.7404 53.5561 15.4502 53.6899 15.9604 54.1337C16.4703 54.5774 16.7015 55.262 16.5646 55.9242C16.4279 56.5864 15.9444 57.1231 15.3003 57.3282C14.328 57.638 13.287 57.111 12.9606 56.1441C12.6342 55.1769 13.1428 54.1266 14.1037 53.7834Z" fill="var(--fill-0, #BABABA)"/>
<path id="Vector_15" d="M13.8997 78.248C14.8631 78.3024 15.4117 78.1851 16.1165 79.0066C17.0602 80.1067 16.6192 81.1376 15.5478 81.9087C13.1248 82.4717 11.9657 80.1568 13.8997 78.248Z" fill="var(--fill-0, #BABABA)"/>
<path id="Vector_16" d="M1.93025 13.968C4.39879 14.2054 5.88219 15.9486 3.68724 17.817C1.23079 17.4024 -0.25855 16.2004 1.93025 13.968Z" fill="var(--fill-0, #BABABA)"/>
<path id="Vector_17" d="M1.12487 22.1358C2.06299 21.7335 3.14971 22.1642 3.55771 23.1001C3.96571 24.0359 3.54158 25.1256 2.60827 25.5393C1.66728 25.9564 0.566538 25.5278 0.155082 24.5838C-0.256182 23.6401 0.178889 22.5418 1.12487 22.1358Z" fill="var(--fill-0, #BABABA)"/>
<path id="Vector_18" d="M20.7155 0.0481479C23.4596 -0.174626 24.4269 1.9498 22.1191 3.6642C21.9559 3.71106 21.7875 3.7583 21.6201 3.78673C21.227 3.85452 20.8236 3.75638 20.5055 3.51555C19.3245 2.6306 19.9965 0.999164 20.7155 0.0481479Z" fill="var(--fill-0, #BABABA)"/>
<path id="Vector_19" d="M10.0132 0.0296796C12.7978 -0.0081536 13.3845 2.08785 11.4269 3.83624C9.03245 3.99872 8.29652 1.73121 10.0132 0.0296796Z" fill="var(--fill-0, #BABABA)"/>
<path id="Vector_20" d="M3.54714 6.33728C6.14778 6.74308 6.78849 8.34033 4.82894 10.1481C2.21025 9.95717 1.34874 8.04803 3.54714 6.33728Z" fill="var(--fill-0, #BABABA)"/>
<path id="Vector_21" d="M23.8964 2.75115C26.651 2.58618 26.8747 5.42885 24.3911 6.63702C21.5616 5.74996 22.3366 4.32593 23.8964 2.75115Z" fill="var(--fill-0, #BABABA)"/>
<path id="Vector_22" d="M26.2169 18.3015C27.087 17.8425 28.1643 18.1643 28.6401 19.0257C29.1159 19.8868 28.8152 20.9705 27.9637 21.4631C27.3979 21.7906 26.6994 21.7865 26.1374 21.4528C25.5752 21.119 25.2375 20.5075 25.254 19.8538C25.2705 19.2002 25.6388 18.6066 26.2169 18.3015Z" fill="var(--fill-0, #BABABA)"/>
<path id="Vector_23" d="M9.12098 22.0916C10.051 21.8032 11.0419 22.3052 11.3595 23.2258C11.6773 24.1465 11.2067 25.153 10.2968 25.4997C9.68201 25.7338 8.98869 25.6145 8.48757 25.1886C7.98626 24.7624 7.75682 24.0974 7.88873 23.4526C8.02044 22.8081 8.49276 22.2865 9.12098 22.0916Z" fill="var(--fill-0, #BABABA)"/>
<path id="Vector_24" d="M1.63712 18.1059C2.53818 17.7562 3.55463 18.182 3.93748 19.0698C4.32032 19.9576 3.93249 20.9893 3.05965 21.4049C2.46561 21.6878 1.76442 21.6233 1.23181 21.2369C0.699202 20.8505 0.420422 20.2036 0.504902 19.5511C0.589382 18.8983 1.02368 18.344 1.63712 18.1059Z" fill="var(--fill-0, #BABABA)"/>
<path id="Vector_25" d="M19.027 23.1042C19.6375 22.0758 20.7649 21.6871 21.6881 22.3277C23.7832 23.7819 20.5005 27.8631 18.9841 24.4875L19.027 23.1042Z" fill="var(--fill-0, #BABABA)"/>
<path id="Vector_26" d="M16.3232 1.12434C20.6041 -3.25682 20.4342 6.96603 16.3812 2.96646L16.3232 1.12434Z" fill="var(--fill-0, #BABABA)"/>
<path id="Vector_27" d="M15.8875 2.81664C13.8917 5.73575 11.536 1.9121 13.4764 0.207107C14.129 -0.057918 14.2308 -0.0335303 14.9312 0.0859228C15.5713 0.416243 15.6867 0.75252 16.0263 1.37264L15.8875 2.81664Z" fill="var(--fill-0, #BABABA)"/>
<path id="Vector_28" d="M13.5165 94.3048C14.3558 94.2155 14.932 94.3678 15.6529 94.7841C16.5098 96.0679 15.8079 96.7 14.94 97.7138C13.2128 98.2242 11.164 95.9727 13.5165 94.3048Z" fill="var(--fill-0, #BABABA)"/>
<path id="Vector_29" d="M26.7076 96.1338C27.6321 96.2498 28.0397 96.4583 28.385 97.3483C28.4479 98.8255 27.5905 99.2571 26.3782 99.634C25.3285 99.0702 24.2472 97.8691 24.8698 96.6343C25.4357 96.1926 25.9978 96.2075 26.7076 96.1338Z" fill="var(--fill-0, #BABABA)"/>
<path id="Vector_30" d="M5.16468 22.3207C5.75585 22.0531 6.44628 22.1336 6.96007 22.5302C7.47367 22.9267 7.72673 23.5743 7.61767 24.2142C7.50881 24.8539 7.05569 25.3815 6.43975 25.5856C5.55386 25.8791 4.59329 25.4276 4.25364 24.5582C3.91418 23.6888 4.3145 22.7055 5.16468 22.3207Z" fill="var(--fill-0, #BABABA)"/>
<path id="Vector_31" d="M18.5684 24.5712C16.9746 28.1574 12.856 21.904 17.4531 22.0215C17.958 22.0344 18.5192 22.6995 18.7458 23.1406C18.6782 23.5859 18.577 24.1293 18.5684 24.5712Z" fill="var(--fill-0, #BABABA)"/>
<path id="Vector_32" d="M23.6235 97.3748C25.5176 97.9428 25.6374 100.387 23.2504 101.214C22.2221 100.859 21.3976 100.105 21.7549 98.9447C22.0416 98.0139 22.819 97.7573 23.6235 97.3748Z" fill="var(--fill-0, #BABABA)"/>
<path id="Vector_33" d="M23.9851 21.96C26.357 22.7998 26.5237 24.1159 24.764 25.823C22.3437 25.3665 21.8235 23.3504 23.9851 21.96Z" fill="var(--fill-0, #BABABA)"/>
<path id="Vector_34" d="M8.58968 98.3452C11.0924 98.1656 12.1432 99.5656 10.5131 101.631C7.9196 102.299 7.66078 100.235 8.58968 98.3452Z" fill="var(--fill-0, #BABABA)"/>
<path id="Vector_35" d="M15.9038 98.548C18.7708 98.5572 18.3779 100.041 17.4557 101.948C14.9596 102.395 14.1009 100.348 15.9038 98.548Z" fill="var(--fill-0, #BABABA)"/>
<path id="Vector_36" d="M12.8403 21.9143C15.2267 22.2352 15.9394 24.3443 13.8716 25.6262C11.812 25.0055 10.9273 23.4603 12.8403 21.9143Z" fill="var(--fill-0, #BABABA)"/>
<path id="Vector_37" d="M19.4565 97.9352C22.056 98.4925 21.9998 99.8891 20.5003 101.739C18.1976 101.606 17.8729 99.524 19.4565 97.9352Z" fill="var(--fill-0, #BABABA)"/>
<path id="Vector_38" d="M2.15725 96.1941C2.69447 95.9216 3.33709 95.9615 3.83629 96.2984C4.33568 96.6354 4.61332 97.2164 4.56167 97.8167C4.51021 98.4168 4.13754 98.9421 3.58803 99.1889C2.76589 99.5582 1.79917 99.2037 1.41056 98.3903C1.02195 97.5768 1.35354 96.602 2.15725 96.1941Z" fill="var(--fill-0, #BABABA)"/>
<path id="Vector_39" d="M5.51518 97.7549C6.03723 97.4657 6.67525 97.483 7.18079 97.8003C7.68652 98.1175 7.97951 98.6846 7.9461 99.2807C7.91269 99.8769 7.55787 100.407 7.02008 100.666C6.22098 101.051 5.26117 100.73 4.85375 99.9418C4.44652 99.154 4.7397 98.1849 5.51518 97.7549Z" fill="var(--fill-0, #BABABA)"/>
<path id="Vector_40" d="M12.5857 98.7385C13.1482 98.5363 13.7765 98.659 14.2217 99.0581C14.6668 99.4571 14.8574 100.068 14.7178 100.65C14.5784 101.232 14.1313 101.689 13.5535 101.842C12.7112 102.067 11.8422 101.587 11.5827 100.754C11.3233 99.9223 11.7654 99.0333 12.5857 98.7385Z" fill="var(--fill-0, #BABABA)"/>
<path id="Vector_41" d="M8.69711 93.7515C9.22204 93.4913 9.84622 93.5339 10.331 93.8631C10.8156 94.1923 11.0856 94.7569 11.0374 95.3409C10.9892 95.9249 10.6304 96.4377 10.0983 96.6829C9.29173 97.0547 8.33615 96.7096 7.95292 95.9082C7.56988 95.1068 7.90127 94.1462 8.69711 93.7515Z" fill="var(--fill-0, #BABABA)"/>
<path id="Vector_42" d="M19.3459 93.9574C19.8251 93.6507 20.4324 93.6261 20.9351 93.8925C21.4378 94.1591 21.758 94.6757 21.7734 95.2445C21.7887 95.8134 21.4969 96.3465 21.0094 96.6397C20.2698 97.0847 19.31 96.8529 18.855 96.1193C18.3999 95.3855 18.6186 94.4224 19.3459 93.9574Z" fill="var(--fill-0, #BABABA)"/>
<path id="Vector_43" d="M23.0214 93.6411C23.4854 93.6999 24.0359 93.7508 24.4285 94.0189C24.7319 94.2284 24.9306 94.5579 24.9744 94.924C25.0627 95.7152 24.6096 96.2503 24.1526 96.8429C21.8294 97.0864 21.2774 94.8938 23.0214 93.6411Z" fill="var(--fill-0, #BABABA)"/>
<path id="Vector_44" d="M5.13345 94.1038C5.85057 93.669 6.78331 93.8841 7.23777 94.589C7.69243 95.2938 7.5037 96.2323 6.81192 96.7065C6.34709 97.0253 5.74574 97.0662 5.24174 96.8134C4.73793 96.5607 4.41115 96.0539 4.38869 95.4906C4.36622 94.9271 4.65134 94.3961 5.13345 94.1038Z" fill="var(--fill-0, #BABABA)"/>
<path id="Vector_45" d="M16.3233 1.12427L16.3813 2.96638L15.8877 2.81658L16.0265 1.37258L16.3233 1.12427Z" fill="var(--fill-0, #BABABA)"/>
<path id="Vector_46" d="M18.7458 23.1406L19.027 23.1041L18.9842 24.4874L18.5684 24.5712C18.577 24.1293 18.6782 23.586 18.7458 23.1406Z" fill="var(--fill-0, #BABABA)"/>
</g>
</svg>
