<svg preserveAspectRatio="none" width="100%" height="100%" overflow="visible" style="display: block;" viewBox="0 0 23.5685 25.222" fill="none" xmlns="http://www.w3.org/2000/svg">
<g id="clock">
<path id="Vector" d="M14.1892 9.37769C14.6058 9.5899 14.675 9.67574 15.009 9.98244C15.1799 10.3512 15.3259 10.7201 15.1915 11.1205C14.5367 13.046 9.8193 17.2614 8.20842 18.1594C7.4097 17.5821 7.17545 17.4463 7.08521 16.5019C7.15433 16.2975 13.4884 9.96861 14.1892 9.37769Z" fill="var(--fill-0, #BABABA)"/>
<path id="Vector_2" d="M16.8811 21.4867C17.7567 20.9712 18.8837 21.2464 19.4232 22.1076C19.9627 22.9685 19.7189 24.1025 18.8741 24.666C18.3058 25.0447 17.5762 25.0847 16.9695 24.7705C16.3647 24.4563 15.9768 23.8373 15.9576 23.1546C15.9404 22.4719 16.2936 21.8331 16.8811 21.4867Z" fill="var(--fill-0, #BABABA)"/>
<path id="Vector_3" d="M20.9419 12.3954C23.4936 12.3097 24.5265 14.3756 22.4856 16.1801C19.7957 17.1495 19.6632 14.2894 20.9419 12.3954Z" fill="var(--fill-0, #BABABA)"/>
<path id="Vector_4" d="M21.4334 0C24.0178 0.477044 23.8334 2.92295 21.6811 4.08176C19.3253 3.67923 19.1102 1.02303 21.4334 0Z" fill="var(--fill-0, #BABABA)"/>
<path id="Vector_5" d="M1.53459 16.3886C4.14579 16.287 4.47986 18.6248 2.77682 20.1439C-0.110856 20.0181 -0.71373 17.8276 1.53459 16.3886Z" fill="var(--fill-0, #BABABA)"/>
<path id="Vector_6" d="M13.1814 21.6245C13.8303 21.4152 14.5427 21.5863 15.0265 22.0681C15.5084 22.55 15.6812 23.2615 15.4739 23.9114C15.2665 24.5615 14.7136 25.0408 14.0416 25.1534C13.1008 25.3109 12.1964 24.7153 11.9718 23.7883C11.7452 22.8615 12.2732 21.9174 13.1814 21.6245Z" fill="var(--fill-0, #BABABA)"/>
<path id="Vector_7" d="M1.10071 21.1604C4.44343 21.1775 3.78871 24.3828 2.30071 24.96C-0.318168 24.764 -0.677208 22.8773 1.10071 21.1604Z" fill="var(--fill-0, #BABABA)"/>
<path id="Vector_8" d="M8.6886 0.823801C9.51036 0.32083 10.5836 0.553979 11.1231 1.35328C11.6646 2.15258 11.4803 3.23534 10.7065 3.81109C10.1728 4.20786 9.46618 4.27949 8.8633 3.99776C8.26234 3.71622 7.8649 3.12664 7.82842 2.4635C7.79194 1.80017 8.1222 1.17025 8.6886 0.823801Z" fill="var(--fill-0, #BABABA)"/>
<path id="Vector_9" d="M21.8327 16.7708C24.4209 17.6436 23.7393 19.3499 22.0439 20.7296C21.1089 20.4805 20.5118 20.2656 20.1374 19.2318C19.9588 18.7431 19.9991 18.2009 20.2506 17.7448C20.6231 17.0607 21.1319 16.9515 21.8327 16.7708Z" fill="var(--fill-0, #BABABA)"/>
<path id="Vector_10" d="M12.9355 0.432617C15.6466 0.690728 15.9999 3.08882 13.9685 4.18445C13.8322 4.17408 13.6939 4.16121 13.5576 4.14546C11.4053 3.8885 11.1231 1.60545 12.9355 0.432617Z" fill="var(--fill-0, #BABABA)"/>
<path id="Vector_11" d="M16.7255 0.386963C19.4672 0.456292 19.9223 2.58398 18.2538 4.14283C15.6868 4.12228 14.9668 2.20603 16.7255 0.386963Z" fill="var(--fill-0, #BABABA)"/>
<path id="Vector_12" d="M1.71495 0.377111C2.69031 0.268989 3.56968 0.968425 3.68487 1.94345C3.80007 2.91847 3.10696 3.80342 2.13352 3.92499C1.14856 4.0479 0.253841 3.34597 0.138641 2.36153C0.0215209 1.37691 0.729993 0.486194 1.71495 0.377111Z" fill="var(--fill-0, #BABABA)"/>
<path id="Vector_13" d="M5.40513 0.518782C7.85697 0.475956 8.08738 2.75901 6.40546 4.16172C5.19778 4.08836 4.49123 4.01577 4.08227 2.72502C3.93635 2.2593 3.99778 1.75403 4.24738 1.33575C4.56418 0.810501 4.83873 0.654944 5.40513 0.518782Z" fill="var(--fill-0, #BABABA)"/>
<path id="Vector_14" d="M1.75143 8.2283C2.69607 7.96923 3.66951 8.5231 3.93063 9.46605C4.19175 10.4088 3.63878 11.3848 2.69798 11.6471C1.75334 11.9102 0.77414 11.3566 0.51302 10.4111C0.2519 9.46586 0.806794 8.48795 1.75143 8.2283Z" fill="var(--fill-0, #BABABA)"/>
<path id="Vector_15" d="M1.41546 12.4515C1.9953 12.1845 2.67306 12.254 3.18762 12.6331C3.70026 13.012 3.96714 13.6404 3.88266 14.2728C3.79818 14.9052 3.37578 15.4416 2.78058 15.6727C1.8993 16.0151 0.904727 15.5953 0.536087 14.7245C0.167447 13.8536 0.557222 12.8471 1.41546 12.4515Z" fill="var(--fill-0, #BABABA)"/>
<path id="Vector_16" d="M22.094 4.36084C22.5951 4.68233 23.0808 5.03589 23.5685 5.38061C23.3381 7.3877 23.342 7.46739 21.4239 8.14186C19.3484 6.62815 19.6114 5.02359 22.094 4.36084Z" fill="var(--fill-0, #BABABA)"/>
<path id="Vector_17" d="M5.43801 21.6073C7.83033 22.0002 7.67289 24.2257 5.67609 25.222C3.20505 24.6044 3.01497 22.2987 5.43801 21.6073Z" fill="var(--fill-0, #BABABA)"/>
<path id="Vector_18" d="M9.38162 21.6724C10.3013 21.5727 11.1346 22.2184 11.269 23.1337C11.4015 24.0491 10.7871 24.9059 9.87697 25.0728C9.25873 25.1864 8.62706 24.9527 8.23154 24.4636C7.83602 23.9744 7.73809 23.308 7.97809 22.7261C8.21809 22.1444 8.75762 21.7402 9.38162 21.6724Z" fill="var(--fill-0, #BABABA)"/>
<path id="Vector_19" d="M21.3259 21.4372C21.925 21.2897 22.5586 21.4773 22.981 21.9282C23.4034 22.3792 23.5493 23.0231 23.363 23.6123C23.1768 24.2017 22.6872 24.6445 22.0824 24.7707C21.1704 24.961 20.2738 24.3851 20.0664 23.4759C19.861 22.567 20.4197 21.6599 21.3259 21.4372Z" fill="var(--fill-0, #BABABA)"/>
<path id="Vector_20" d="M20.9304 8.66046C21.9422 8.50279 22.6046 8.39103 23.2017 9.41079C23.4263 10.5076 23.0731 10.9441 22.4932 11.8492C20.1835 12.4376 19.0238 9.99577 20.9304 8.66046Z" fill="var(--fill-0, #BABABA)"/>
<path id="Vector_21" d="M1.8745 4.32058C2.77498 4.09647 3.68698 4.64188 3.91546 5.54104C4.14394 6.44002 3.60441 7.35512 2.70585 7.58826C1.80153 7.82333 0.878018 7.27772 0.647618 6.37222C0.417218 5.46653 0.968261 4.54624 1.8745 4.32058Z" fill="var(--fill-0, #BABABA)"/>
</g>
</svg>
