<svg preserveAspectRatio="none" width="100%" height="100%" overflow="visible" style="display: block;" viewBox="0 0 44.8304 57.1351" fill="none" xmlns="http://www.w3.org/2000/svg">
<g id="plant-leaves">
<path id="Vector" d="M31.5794 22.2265C32.5835 22.1693 33.5781 22.2202 34.3768 22.9135C35.093 24.5299 33.0712 25.3175 33.0213 26.1583C35.1505 28.0909 34.9317 28.3795 32.9541 30.0935C33.3131 30.448 33.3458 30.9769 33.4514 31.4909L33.7259 31.5763C33.7221 30.5114 34.9816 29.6566 36.0069 29.7177C36.9419 30.0591 37.6446 31.0922 37.5352 32.0749C37.1473 32.6929 37.0187 32.7388 36.3678 33.086C34.899 33.4065 35.0757 33.2644 33.6395 32.8582L33.8738 32.24L33.6568 32.0735C32.8965 32.5915 32.8254 32.9617 31.9154 33.0939C31.3202 32.9583 31.3048 32.8941 30.8824 32.4108C30.7576 31.8048 30.7749 31.7303 30.9746 31.1421C31.3893 30.5942 31.6024 30.5354 32.2245 30.2948L32.4165 30.2214C30.1182 28.4988 29.6766 27.5289 32.4529 25.9795C30.7998 24.9551 29.1621 23.8541 31.5794 22.2265Z" fill="var(--fill-0, #BABABA)"/>
<path id="Vector_2" d="M31.2664 9.39597C32.8216 9.16417 34.204 10.3781 33.7182 12.0355C33.4974 12.7835 32.4434 12.9523 31.7387 13.1699C31.8923 13.9294 35.907 13.9815 33.027 17.2578C32.1189 17.6183 31.0974 17.8161 30.3237 16.8833C28.8261 15.0777 31.18 14.1036 31.2453 13.1609C29.3598 11.5496 29.1045 11.0516 31.2664 9.39597Z" fill="var(--fill-0, #BABABA)"/>
<path id="Vector_3" d="M19.3567 39.9169C19.7119 39.8833 19.9615 39.9092 20.3167 39.9257C22.2021 40.9801 21.3765 44.1853 18.9631 43.1444L18.7846 43.0657C18.5081 43.5694 18.5714 43.7298 18.6117 44.3142L18.6252 44.506C18.2585 45.1926 18.0261 45.1832 17.3061 45.6552C16.0025 45.81 14.7909 44.6804 14.8581 43.4281C15.5743 42.468 16.7954 42.5314 17.9686 42.2019C17.7785 41.6357 17.7746 41.5631 17.8495 40.9699C18.3794 40.2136 18.4082 40.3711 19.3567 39.9169Z" fill="var(--fill-0, #BABABA)"/>
<path id="Vector_4" d="M24.6346 21.8599C25.7271 21.6878 26.7562 22.4166 26.9578 23.5034C27.1594 24.5902 26.4586 25.6393 25.3776 25.8694C24.6519 26.024 23.8992 25.7724 23.4135 25.2126C22.9277 24.6528 22.7837 23.8731 23.0371 23.1762C23.2906 22.4794 23.9031 21.9753 24.6346 21.8599Z" fill="var(--fill-0, #BABABA)"/>
<path id="Vector_5" d="M24.1373 30.6719C26.689 30.4822 28.1789 33.0812 24.9879 34.6984C22.7453 35.1242 21.697 32.1271 24.1373 30.6719Z" fill="var(--fill-0, #BABABA)"/>
<path id="Vector_6" d="M25.6907 34.7727C28.4133 35.2797 28.7032 38.0882 25.877 39.1176C22.949 38.0442 23.1966 36.2413 25.6907 34.7727Z" fill="var(--fill-0, #BABABA)"/>
<path id="Vector_7" d="M25.1512 17.1649C27.5685 17.8943 28.4728 20.6102 25.3547 21.4706C23.212 21.5202 22.1157 18.7587 25.1512 17.1649Z" fill="var(--fill-0, #BABABA)"/>
<path id="Vector_8" d="M32.0649 17.8097C33.1401 17.7798 34.0464 18.6087 34.1117 19.6832C34.1769 20.7577 33.3782 21.6901 32.3069 21.7907C31.5811 21.8587 30.8784 21.526 30.4694 20.9228C30.0605 20.3198 30.0144 19.542 30.3466 18.8938C30.6787 18.2457 31.3373 17.8301 32.0649 17.8097Z" fill="var(--fill-0, #BABABA)"/>
<path id="Vector_9" d="M25.9364 8.35645C28.8049 8.96178 29.5614 10.8496 26.9425 12.5488C26.4183 12.608 25.4276 12.3001 25.1396 11.9149C24.0183 10.4154 24.9726 9.24985 25.9364 8.35645Z" fill="var(--fill-0, #BABABA)"/>
<path id="Vector_10" d="M26.1323 39.2748C27.1268 38.8697 28.2596 39.3506 28.6609 40.3473C29.0603 41.3439 28.5745 42.4758 27.5761 42.8712C26.5835 43.2638 25.4622 42.7811 25.0647 41.7915C24.6673 40.8019 25.1435 39.6771 26.1323 39.2748Z" fill="var(--fill-0, #BABABA)"/>
<path id="Vector_11" d="M25.1414 12.8053C26.4451 12.7442 26.8042 13.3106 27.8333 14.2049C27.599 15.5794 27.6355 15.8269 26.6525 16.7641C26.4509 16.7972 26.2473 16.8196 26.0419 16.8312C23.5862 16.9955 23.567 14.3745 25.1414 12.8053Z" fill="var(--fill-0, #BABABA)"/>
<path id="Vector_12" d="M32.6488 36.9369C33.6414 36.8627 34.515 37.5852 34.6302 38.5743C34.7435 39.5633 34.0581 40.4665 33.075 40.6211C32.4011 40.7267 31.7253 40.4555 31.3125 39.9144C30.8997 39.3732 30.8152 38.649 31.0936 38.0275C31.372 37.4062 31.9691 36.9876 32.6488 36.9369Z" fill="var(--fill-0, #BABABA)"/>
<path id="Vector_13" d="M19.1991 23.9512C21.6528 24.0783 21.8967 26.6754 20.1917 28.0243C17.6823 27.3902 16.5898 25.4587 19.1991 23.9512Z" fill="var(--fill-0, #BABABA)"/>
<path id="Vector_14" d="M20.04 29.5823C20.7466 26.9899 22.3018 26.7037 23.8225 28.8764C23.6573 29.7509 23.3597 30.5041 22.5092 30.9122C22.0829 31.1204 21.5895 31.1364 21.1498 30.956C20.4951 30.6893 20.3127 30.1917 20.04 29.5823Z" fill="var(--fill-0, #BABABA)"/>
<path id="Vector_15" d="M23.8226 28.8763C23.5365 26.5794 24.9112 25.4581 26.5528 27.2084C26.7218 27.3897 26.885 27.5754 27.0443 27.7655C27.1058 30.4357 24.9285 31.1651 23.8226 28.8763Z" fill="var(--fill-0, #BABABA)"/>
<path id="Vector_16" d="M32.3953 33.5407C34.4766 33.3248 36.4445 34.6665 34.8529 36.6334C32.2455 36.5351 30.8631 36.31 32.3953 33.5407Z" fill="var(--fill-0, #BABABA)"/>
<path id="Vector_17" d="M40.7109 41.5018C40.0639 41.6923 39.1999 40.9616 38.8985 40.3659C38.8927 38.6626 39.9986 38.2789 40.7148 36.9509C40.2981 36.075 39.605 34.9171 40.1407 33.8977C41.0469 32.1704 41.5596 33.0727 42.4505 32.7399C43.3106 33.2561 43.5909 33.4679 43.806 34.4731C44.2725 36.6553 42.8767 36.86 41.2524 37.1064C41.9609 38.2795 43.8885 39.1834 43.182 40.7843C42.4293 41.5189 41.7343 41.4557 40.7109 41.5018Z" fill="var(--fill-0, #BABABA)"/>
<path id="Vector_18" d="M9.06751 33.3932C11.2678 33.6626 12.5062 34.7118 10.7494 36.6881C9.20381 37.1506 9.06943 35.9699 7.74463 35.7523C7.81759 36.6263 9.37856 35.9215 8.94848 37.9806C8.74496 38.3927 8.63934 38.5533 8.37822 38.9334C7.02846 39.7649 4.88767 39.343 4.90687 37.473C4.92031 36.0371 6.71359 36.1299 7.26079 35.5564C8.09215 34.6857 7.84831 34.213 9.06751 33.3932Z" fill="var(--fill-0, #BABABA)"/>
<path id="Vector_19" d="M13.5735 17.7365C15.8525 17.9974 16.7472 21.351 14.3376 22.1754C13.6464 22.0782 13.2432 21.741 12.648 21.3594C12.6538 22.8514 12.5693 22.6941 11.4518 23.5015C11.185 23.4867 10.8355 23.427 10.5802 23.3483C10.0656 23.1885 9.64321 22.8146 9.42433 22.322C9.19969 21.804 9.2189 21.2123 9.47618 20.7099C9.68354 20.3034 10.1616 19.8651 10.6166 19.8125C11.6669 19.6917 11.2272 19.9627 11.9645 20.4702C12.5597 19.1378 12.6423 18.8246 13.5735 17.7365Z" fill="var(--fill-0, #BABABA)"/>
<path id="Vector_20" d="M12.0702 35.6328C14.4645 36.2391 15.1903 37.2539 13.1128 39.256C12.9419 39.4194 12.2815 39.2366 12.0146 39.1924C11.6114 39.9247 12.101 40.0654 11.8015 41.1507C11.3675 41.8135 11.0623 41.8855 10.3519 42.1933C8.79474 41.5976 7.53905 40.3136 9.26897 38.667C9.87761 38.0881 10.4267 38.3633 11.1871 38.5567L11.2619 38.3195L10.7858 37.5882C10.8895 36.8986 11.5922 36.2141 12.0702 35.6328Z" fill="var(--fill-0, #BABABA)"/>
<path id="Vector_21" d="M36.2717 50.4141C40.1809 50.7394 39.7969 52.6151 36.8017 54.3176C36.4349 55.4347 37.4218 55.602 36.8324 56.6892C36.1911 57.1273 35.7514 57.0887 34.9873 57.1351C32.5585 56.3429 32.9962 53.6236 36.0509 54.3977L36.2698 54.4547C36.6173 54.003 33.4666 52.9716 36.2717 50.4141Z" fill="var(--fill-0, #BABABA)"/>
<path id="Vector_22" d="M29.1544 48.6775C30.364 49.3122 30.4658 53.5653 30.1816 54.8397C30.0415 55.4761 29.861 55.5 29.381 55.7825C27.3861 55.0897 27.6472 51.5955 27.9179 49.8315C28.0101 49.2392 28.6783 48.9627 29.1544 48.6775Z" fill="var(--fill-0, #BABABA)"/>
<path id="Vector_23" d="M43.228 28.3174C45.6108 29.994 45.0175 31.7925 42.4505 32.7398C41.9743 31.9959 41.1199 32.4996 40.5458 30.6513C39.9429 28.7046 41.8476 28.3531 43.228 28.3174Z" fill="var(--fill-0, #BABABA)"/>
<path id="Vector_24" d="M9.31896 14.9585C11.7881 15.1676 13.4297 17.6802 10.9625 19.186C7.99609 19.1726 6.66744 16.4547 9.31896 14.9585Z" fill="var(--fill-0, #BABABA)"/>
<path id="Vector_25" d="M31.9229 40.8445C34.9545 41.1929 35.1619 43.735 32.4106 45.1217C30.5827 45.9416 28.9181 42.1227 31.9229 40.8445Z" fill="var(--fill-0, #BABABA)"/>
<path id="Vector_26" d="M38.3165 45.8718C40.559 46.2285 41.0544 48.8979 38.3472 50.1806C35.1561 49.3792 35.3635 46.6544 38.3165 45.8718Z" fill="var(--fill-0, #BABABA)"/>
<path id="Vector_27" d="M27.3439 4.13928C30.3871 4.33555 30.5599 6.17883 28.8204 8.29057C25.6312 8.80776 25.5736 6.15712 27.3439 4.13928Z" fill="var(--fill-0, #BABABA)"/>
<path id="Vector_28" d="M39.5799 41.5466C42.0701 42.1969 42.6557 44.3572 40.3345 45.9935C36.8746 45.2614 37.5236 43.5714 39.5799 41.5466Z" fill="var(--fill-0, #BABABA)"/>
<path id="Vector_29" d="M37.7252 25.6927C40.0829 26.8011 40.1943 28.7302 37.7252 29.7392C34.4228 29.2844 34.9796 26.4354 37.7252 25.6927Z" fill="var(--fill-0, #BABABA)"/>
<path id="Vector_30" d="M41.5902 19.1441C44.8101 19.0139 45.2421 21.6412 42.9688 23.0643C40.3 23.4747 39.8718 20.8944 41.5902 19.1441Z" fill="var(--fill-0, #BABABA)"/>
<path id="Vector_31" d="M23.2408 47.1334C25.4334 47.3109 26.5105 49.8997 24.1777 51.462C21.315 50.6099 21.1192 49.1282 23.2408 47.1334Z" fill="var(--fill-0, #BABABA)"/>
<path id="Vector_32" d="M11.281 24.4516C11.953 24.2853 12.6615 24.4934 13.1357 24.996C13.6119 25.4986 13.7789 26.218 13.5754 26.8788C13.3719 27.5397 12.8285 28.0398 12.1527 28.1876C11.1274 28.4118 10.1137 27.7709 9.87558 26.7492C9.63558 25.7273 10.2634 24.7037 11.281 24.4516Z" fill="var(--fill-0, #BABABA)"/>
<path id="Vector_33" d="M21.336 43.1579C21.5319 43.1396 21.7277 43.1281 21.9255 43.1235C24.1565 43.0853 24.4676 45.4021 22.7818 46.9216C19.8193 47.3939 19.7712 45.1477 21.336 43.1579Z" fill="var(--fill-0, #BABABA)"/>
<path id="Vector_34" d="M0.857331 30.657C3.64133 30.6675 5.07173 32.4234 2.46629 34.2004C-0.162188 34.698 -0.674829 32.5392 0.857331 30.657Z" fill="var(--fill-0, #BABABA)"/>
<path id="Vector_35" d="M5.48261 31.6477C8.13797 32.3412 8.34724 34.3375 6.02404 35.6886C5.21764 35.4082 4.49957 34.9661 3.75269 34.5466C4.01573 33.1 4.03109 32.3233 5.48261 31.6477Z" fill="var(--fill-0, #BABABA)"/>
<path id="Vector_36" d="M12.5311 28.3756C13.6715 28.5598 14.2783 28.685 15.1557 29.579C15.7893 30.2223 14.7698 31.8109 14.2821 32.1086L14.2226 31.6287C12.6194 33.1889 10.396 31.002 12.5311 28.3756Z" fill="var(--fill-0, #BABABA)"/>
<path id="Vector_37" d="M29.2753 0C32.0939 0.359128 32.4759 2.0378 30.3678 3.81673C30.1604 3.82173 29.9531 3.82115 29.7457 3.81501C27.2977 3.72916 27.7624 1.32647 29.2753 0Z" fill="var(--fill-0, #BABABA)"/>
<path id="Vector_38" d="M20.9501 52.9221C21.144 52.9769 21.338 53.0364 21.53 53.1007C23.6746 53.8307 23.7207 55.9288 21.5184 56.8925C19.6925 57.4684 18.6327 54.7034 20.9501 52.9221Z" fill="var(--fill-0, #BABABA)"/>
<path id="Vector_39" d="M30.7615 45.8546C33.6396 45.604 34.2828 47.1344 33.2248 49.5725C32.2936 49.7123 31.6332 49.8431 30.8997 49.1162C30.2969 48.001 30.5618 47.0834 30.7615 45.8546Z" fill="var(--fill-0, #BABABA)"/>
<path id="Vector_40" d="M16.3806 20.8706C19.0091 20.8796 19.3796 22.8982 17.6151 24.6276C15.0615 24.8304 14.5086 22.46 16.3806 20.8706Z" fill="var(--fill-0, #BABABA)"/>
<path id="Vector_41" d="M27.8948 43.1501C29.7495 43.3143 30.6385 46.6656 27.8276 46.7981C27.1057 46.4916 26.5777 46.331 25.8308 46.1031C26.1803 44.4056 26.1572 43.7726 27.8948 43.1501Z" fill="var(--fill-0, #BABABA)"/>
<path id="Vector_42" d="M15.242 32.0533C17.7054 32.8619 17.4788 34.4274 15.9927 36.0038L15.8295 35.8999C15.3553 35.5935 13.875 35.7908 13.5486 34.221C13.3124 33.0862 14.4567 32.5219 15.242 32.0533Z" fill="var(--fill-0, #BABABA)"/>
<path id="Vector_43" d="M39.3458 22.3868C40.325 22.3375 41.1602 23.0937 41.2062 24.0743C41.2542 25.0551 40.4958 25.8876 39.5147 25.9322C38.5374 25.9767 37.708 25.2218 37.6619 24.2443C37.6158 23.267 38.3685 22.436 39.3458 22.3868Z" fill="var(--fill-0, #BABABA)"/>
<path id="Vector_44" d="M17.9013 45.6041C19.8943 46.0725 21.3036 47.9129 18.9996 49.2152L17.7958 49.2705C16.0102 48.582 16.4153 46.5882 17.9013 45.6041Z" fill="var(--fill-0, #BABABA)"/>
<path id="Vector_45" d="M17.8918 35.9121C20.3916 36.7519 18.9996 38.8931 17.3196 39.6852C17.1238 39.5923 16.9299 39.4944 16.7379 39.3912C16.1983 39.0966 15.7817 38.706 15.6396 38.0765C15.5513 37.6855 15.6339 37.2754 15.8643 36.9478C16.3923 36.1896 17.0662 36.074 17.8918 35.9121Z" fill="var(--fill-0, #BABABA)"/>
<path id="Vector_46" d="M42.1374 23.7862C44.8811 23.5623 45.5857 25.2888 43.9863 27.3794C41.9262 27.8422 40.7934 25.6992 42.1374 23.7862Z" fill="var(--fill-0, #BABABA)"/>
<path id="Vector_47" d="M32.5239 50.3405C32.9444 51.7336 33.3418 53.7097 32.7428 55.0796C32.1648 55.5816 32.4586 55.4533 31.5293 55.452C30.5463 54.0328 30.4004 52.6527 31.13 50.9948C31.3508 50.4922 32.0304 50.4516 32.5239 50.3405Z" fill="var(--fill-0, #BABABA)"/>
<path id="Vector_48" d="M25.5639 51.2341C26.7774 51.9449 26.7735 53.9024 26.211 55.0532C25.8903 55.71 25.4026 55.6915 24.769 55.8657C23.3233 55.0495 23.5556 52.0693 25.5639 51.2341Z" fill="var(--fill-0, #BABABA)"/>
<path id="Vector_49" d="M13.8674 39.0265C14.7717 38.7529 15.7259 39.2668 15.9967 40.1727C16.2674 41.0788 15.749 42.0317 14.8427 42.2984C13.9403 42.5639 12.9938 42.0498 12.725 41.1485C12.4562 40.2474 12.9669 39.2987 13.8674 39.0265Z" fill="var(--fill-0, #BABABA)"/>
<path id="Vector_50" d="M31.491 5.25C33.4897 5.96288 33.8065 7.62332 31.9172 8.77329C31.1224 8.63905 30.5848 8.6114 30.0875 7.99839C29.692 6.61642 30.4388 6.01876 31.491 5.25Z" fill="var(--fill-0, #BABABA)"/>
<path id="Vector_51" d="M19.4911 49.9937C20.2821 49.758 21.1174 50.1995 21.367 50.9865C21.6166 51.7737 21.1922 52.6164 20.4089 52.8817C19.8905 53.0576 19.3164 52.9395 18.9093 52.5727C18.5023 52.206 18.3238 51.6478 18.4447 51.1129C18.5657 50.5781 18.965 50.15 19.4911 49.9937Z" fill="var(--fill-0, #BABABA)"/>
<path id="Vector_52" d="M38.981 36.2209C39.3746 36.3873 39.3976 36.4529 39.6914 36.7518L39.5723 37.0195L39.2171 37.0784C38.8773 36.7272 38.981 36.8704 38.981 36.2209Z" fill="var(--fill-0, #BABABA)"/>
</g>
</svg>
