<svg preserveAspectRatio="none" width="100%" height="100%" overflow="visible" style="display: block;" viewBox="0 0 320 262.021" fill="none" xmlns="http://www.w3.org/2000/svg">
<g id="Frame 1686557325">
<path d="M0 16.0209C0 9.39347 5.37258 4.02088 12 4.02088H308C314.627 4.02088 320 9.39347 320 16.0209V250.021C320 256.648 314.627 262.021 308 262.021H12C5.37259 262.021 0 256.648 0 250.021V16.0209Z" fill="var(--fill-0, #202020)"/>
<g id="Frame 2095586320" clip-path="url(#clip0_0_4)">
<path id="Rectangle 120" d="M266 15.6224C266 8.99503 271.373 3.62245 278 3.62245H308C314.627 3.62245 320 8.99503 320 15.6224V45.6224C320 52.2499 314.627 57.6224 308 57.6224H278C271.373 57.6224 266 52.2499 266 45.6224V15.6224Z" fill="var(--fill-0, #131313)"/>
<path id="Vector 44" d="M331.692 57.1224H278C271.649 57.1224 266.5 51.9737 266.5 45.6224V-1.25939L331.692 57.1224Z" fill="var(--fill-0, #1A1A1A)" stroke="var(--stroke-0, #202020)"/>
</g>
<path id="Vector" d="M13.9792 21.6736C12.4851 16.58 10.8048 11.5033 9.4875 6.36089C8.45925 2.34683 13.2241 -1.70417 16.9797 0.742059C18.0915 1.46639 18.5779 2.59268 18.9484 3.79783C19.6147 5.96544 20.2255 8.15171 20.8638 10.3277C22.3382 15.3542 23.9819 20.3622 25.2948 25.4335C26.562 30.3287 19.3074 32.1181 17.5919 27.5366C15.7996 22.7498 18.5182 30.8707 17.0789 25.9639C16.8592 25.2149 18.0228 24.8721 18.2429 25.6224C19.4152 29.6188 16.7486 20.3517 17.9208 24.3479C18.2419 25.4427 18.4265 26.8424 19.0472 27.8325C20.6477 30.3855 24.8435 28.6874 24.1308 25.7751C23.1668 21.836 21.836 17.952 20.6948 14.0614C19.6834 10.6134 18.8872 6.99494 17.6335 3.62514C16.4662 0.487612 11.7743 0.701489 10.6589 3.88209C10.3043 4.89325 10.4979 5.49575 10.7717 6.42903C12.0251 10.7021 13.2785 14.9752 14.532 19.2484C15.7854 23.5214 17.0389 27.7947 18.2923 32.0677C18.8227 33.876 19.4422 35.8617 21.2896 36.722C23.3893 37.7 26.3092 36.6494 27.448 34.7015C29.0635 31.9378 26.7095 27.0865 25.9186 24.3901C24.6399 20.0306 23.3611 15.6712 22.0824 11.3118C21.8627 10.5628 23.0263 10.2202 23.2464 10.9704C24.647 15.7453 26.0477 20.5203 27.4484 25.2954C28.3059 28.2188 30.1682 32.124 28.6166 35.1022C27.6247 37.0057 25.3626 38.2382 23.2365 38.3041C20.4945 38.3891 18.5516 36.4978 17.6319 34.0436C16.1334 30.0454 15.1798 25.7669 13.9792 21.6736Z" fill="var(--fill-0, #4D4D4D)"/>
</g>
<defs>
<clipPath id="clip0_0_4">
<rect width="54" height="54" fill="white" transform="translate(266 3.62245)"/>
</clipPath>
</defs>
</svg>
