<svg preserveAspectRatio="xMidYMid meet"  overflow="visible" viewBox="0 0 34.7328 36.7252" fill="none" xmlns="http://www.w3.org/2000/svg">
<g id="Group 48095669" opacity="0.48">
<path id="Vector" d="M16.5514 8.69531C18.8502 8.86031 20.6102 11.0353 19.5389 13.3178C19.0202 14.4253 17.9251 14.7541 16.8451 15.1053C18.8789 15.6703 18.9264 16.0653 20.1789 17.6253C21.1502 16.5028 20.7176 16.3028 22.5464 15.7841L22.7264 15.7341C23.9889 16.1091 25.1702 16.7566 25.5714 18.1141C25.7702 18.7666 25.6864 19.4716 25.3389 20.0578C24.7601 21.0453 23.8939 21.3491 22.8751 21.6091C21.5564 21.2128 20.6827 20.9728 20.2714 19.5516L20.0439 19.4316C19.9651 19.6091 19.8839 19.7841 19.8001 19.9591C19.1714 21.2503 18.2264 21.5216 16.9676 21.9503C15.3739 21.4316 14.6139 21.1591 13.9902 19.5503L13.9226 19.3716L13.6989 19.5153C13.5814 19.9503 13.5589 19.9653 13.2789 20.3353L13.2077 20.4278C12.3214 21.1591 11.5639 21.5178 10.4064 21.1753C9.14265 20.8016 9.04515 19.9778 8.43765 19.0891C8.00765 19.6103 8.13514 20.0716 7.45139 20.5466C5.53514 21.8753 2.87889 20.5316 3.49764 18.0591C3.84889 16.6553 5.0989 16.1328 6.4139 16.4303C7.5214 16.6803 7.96264 17.3991 8.48014 18.2928C8.85889 17.3303 9.61765 15.8928 10.8001 15.7266C12.2826 15.5191 12.9239 16.8416 13.9001 17.5578C14.5214 16.2103 15.2839 15.5391 16.7227 15.1291C15.4252 14.6416 15.0189 14.4103 14.1976 13.3103C14.0251 10.8753 14.2164 9.76656 16.5514 8.69531Z" fill="var(--fill-0, #FF9A6D)"/>
<path id="Vector_2" d="M16.3942 22.2943C18.5554 22.1593 20.1367 23.9306 19.5879 26.0868C19.3154 27.1568 18.5154 27.6394 17.6142 28.1419C16.3904 28.3569 15.2179 27.7481 14.6504 26.6419C14.2879 25.9356 14.2192 25.1144 14.4592 24.3581C14.8317 23.1969 15.3904 22.8231 16.3942 22.2943Z" fill="var(--fill-0, #FF9A6D)"/>
<path id="Vector_3" d="M28.1208 16.3068C29.3458 16.298 30.4433 16.7005 30.9483 17.9143C31.197 18.4968 31.182 19.158 30.907 19.728C30.5358 20.498 29.967 20.7893 29.2158 21.0793C28.612 21.1668 28.0595 21.198 27.4833 20.938C26.8983 20.678 26.4433 20.1893 26.2258 19.5855C25.6895 18.0593 26.727 16.8118 28.1208 16.3068Z" fill="var(--fill-0, #FF9A6D)"/>
<path id="Vector_4" d="M16.1651 28.957C18.9326 28.582 21.0688 31.6758 17.8638 33.2683C15.0938 33.872 13.2176 30.8858 16.1651 28.957Z" fill="var(--fill-0, #FF9A6D)"/>
<path id="Vector_5" d="M16.9093 3.56641C17.903 3.73391 18.658 4.01516 19.1055 5.01891C19.3643 5.60766 19.3618 6.28016 19.098 6.86766C18.6793 7.82141 17.9968 8.13141 17.098 8.47891C15.118 8.64141 13.4155 4.51391 16.9093 3.56641Z" fill="var(--fill-0, #FF9A6D)"/>
<path id="Vector_6" d="M16.8789 34.0213C17.6227 33.9163 18.3114 34.4351 18.4152 35.1801C18.5189 35.9238 17.9977 36.6113 17.2527 36.7126C16.5114 36.8138 15.8277 36.2951 15.7239 35.5538C15.6214 34.8126 16.1377 34.1276 16.8789 34.0213Z" fill="var(--fill-0, #FF9A6D)"/>
<path id="Vector_7" d="M22.4693 22.877C24.3243 23.372 23.6456 25.0519 23.0518 26.3244C21.4156 25.8807 21.0743 23.9945 22.4693 22.877Z" fill="var(--fill-0, #FF9A6D)"/>
<path id="Vector_8" d="M11.2259 22.7637C12.7797 23.1299 12.9722 24.6412 11.6459 25.4924C10.0684 25.0112 9.8522 23.7574 11.2259 22.7637Z" fill="var(--fill-0, #FF9A6D)"/>
<path id="Vector_9" d="M10.6961 11.8592C11.2824 11.633 11.9399 11.9292 12.1599 12.5167C12.3811 13.1042 12.0799 13.7592 11.4899 13.9742C10.9074 14.188 10.2624 13.8905 10.0449 13.3105C9.82738 12.7292 10.1174 12.0817 10.6961 11.8592Z" fill="var(--fill-0, #FF9A6D)"/>
<path id="Vector_10" d="M22.2676 11.9092C22.6351 11.7705 23.0488 11.843 23.3476 12.098C23.6451 12.353 23.7813 12.7505 23.7013 13.1355C23.6226 13.5193 23.3401 13.8305 22.9638 13.9455C22.4088 14.118 21.8163 13.8155 21.6288 13.2655C21.4401 12.7155 21.7226 12.1142 22.2676 11.9092Z" fill="var(--fill-0, #FF9A6D)"/>
<path id="Vector_11" d="M16.8332 0C18.4269 0.33625 18.2869 1.4025 17.2069 2.31125C15.6294 2.26375 15.8744 0.85 16.8332 0Z" fill="var(--fill-0, #FF9A6D)"/>
<path id="Vector_12" d="M33.5346 17.8539C34.0596 17.7314 34.5858 18.0576 34.7071 18.5839C34.8296 19.1101 34.5021 19.6351 33.9758 19.7564C33.4508 19.8776 32.9258 19.5501 32.8046 19.0251C32.6833 18.5001 33.0096 17.9764 33.5346 17.8539Z" fill="var(--fill-0, #FF9A6D)"/>
<path id="Vector_13" d="M0.977005 17.6426C2.36075 18.2838 2.04074 19.1638 1.05949 19.9313C-0.410506 19.3276 -0.267995 18.4201 0.977005 17.6426Z" fill="var(--fill-0, #FF9A6D)"/>
</g>
</svg>
