<svg preserveAspectRatio="none" width="100%" height="100%" overflow="visible" style="display: block;" viewBox="0 0 195.85 405.596" fill="none" xmlns="http://www.w3.org/2000/svg">
<g id="Group 47">
<path id="Vector 48" d="M195.411 395.61C195.997 395.025 195.997 394.075 195.411 393.489L185.865 383.943C185.279 383.357 184.329 383.357 183.743 383.943C183.158 384.529 183.158 385.479 183.743 386.065L192.229 394.55L183.743 403.035C183.158 403.621 183.158 404.571 183.743 405.156C184.329 405.742 185.279 405.742 185.865 405.156L195.411 395.61ZM2.3501 4.5498V6.0498H82.3501V4.5498V3.0498H2.3501V4.5498ZM98.3501 20.5498H96.8501V378.55H98.3501H99.8501V20.5498H98.3501ZM114.35 394.55V396.05H194.35V394.55V393.05H114.35V394.55ZM98.3501 378.55H96.8501C96.8501 388.215 104.685 396.05 114.35 396.05V394.55V393.05C106.342 393.05 99.8501 386.558 99.8501 378.55H98.3501ZM82.3501 4.5498V6.0498C90.3582 6.0498 96.8501 12.5417 96.8501 20.5498H98.3501H99.8501C99.8501 10.8848 92.0151 3.0498 82.3501 3.0498V4.5498Z" fill="var(--stroke-0, #444444)"/>
<circle id="Ellipse 50" cx="4" cy="4" r="4" fill="var(--fill-0, #FF9A6D)"/>
</g>
</svg>
