<svg preserveAspectRatio="none" width="100%" height="100%" overflow="visible" style="display: block;" viewBox="0 0 195.193 187.445" fill="none" xmlns="http://www.w3.org/2000/svg">
<g id="Group 47">
<path id="Vector 48" d="M194.754 177.46C195.34 176.874 195.34 175.924 194.754 175.339L185.208 165.793C184.622 165.207 183.673 165.207 183.087 165.793C182.501 166.378 182.501 167.328 183.087 167.914L191.572 176.399L183.087 184.884C182.501 185.47 182.501 186.42 183.087 187.006C183.673 187.592 184.622 187.592 185.208 187.006L194.754 177.46ZM1.69336 3.99273V5.49273H81.6934V3.99273V2.49273H1.69336V3.99273ZM97.6934 19.9927H96.1934V160.399H97.6934H99.1934V19.9927H97.6934ZM113.693 176.399V177.899H193.693V176.399V174.899H113.693V176.399ZM97.6934 160.399H96.1934C96.1934 170.064 104.028 177.899 113.693 177.899V176.399V174.899C105.685 174.899 99.1934 168.407 99.1934 160.399H97.6934ZM81.6934 3.99273V5.49273C89.7015 5.49273 96.1934 11.9846 96.1934 19.9927H97.6934H99.1934C99.1934 10.3277 91.3583 2.49273 81.6934 2.49273V3.99273Z" fill="var(--stroke-0, #444444)"/>
<circle id="Ellipse 50" cx="4" cy="4" r="4" fill="var(--fill-0, #FF9A6D)"/>
</g>
</svg>
