<svg preserveAspectRatio="none" width="100%" height="100%" overflow="visible" style="display: block;" viewBox="0 0 195.288 130.646" fill="none" xmlns="http://www.w3.org/2000/svg">
<g id="Group 47">
<path id="Vector 48" d="M194.848 120.661C195.434 120.075 195.434 119.125 194.848 118.54L185.302 108.994C184.717 108.408 183.767 108.408 183.181 108.994C182.595 109.579 182.595 110.529 183.181 111.115L191.666 119.6L183.181 128.086C182.595 128.671 182.595 129.621 183.181 130.207C183.767 130.793 184.717 130.793 185.302 130.207L194.848 120.661ZM1.7876 4.0175V5.5175H81.7876V4.0175V2.5175H1.7876V4.0175ZM97.7876 20.0175H96.2876V103.6H97.7876H99.2876V20.0175H97.7876ZM113.788 119.6V121.1H193.788V119.6V118.1H113.788V119.6ZM97.7876 103.6H96.2876C96.2876 113.265 104.123 121.1 113.788 121.1V119.6V118.1C105.779 118.1 99.2876 111.608 99.2876 103.6H97.7876ZM81.7876 4.0175V5.5175C89.7957 5.5175 96.2876 12.0094 96.2876 20.0175H97.7876H99.2876C99.2876 10.3525 91.4526 2.5175 81.7876 2.5175V4.0175Z" fill="var(--stroke-0, #444444)"/>
<circle id="Ellipse 50" cx="4" cy="4" r="4" fill="var(--fill-0, #FF9A6D)"/>
</g>
</svg>
