<svg preserveAspectRatio="none" width="100%" height="100%" overflow="visible" style="display: block;" viewBox="0 0 1535.93 767.964" fill="none" xmlns="http://www.w3.org/2000/svg">
<g id="Group 48095706">
<path id="Ellipse 45" opacity="0.48" d="M1416.96 767.964C1416.96 682.736 1400.18 598.342 1367.56 519.602C1334.95 440.862 1287.14 369.316 1226.88 309.051C1166.61 248.786 1095.07 200.981 1016.33 168.366C937.585 135.75 853.191 118.964 767.964 118.964C682.736 118.964 598.342 135.75 519.602 168.366C440.862 200.981 369.316 248.786 309.051 309.051C248.786 369.317 200.981 440.862 168.366 519.602C135.75 598.342 118.964 682.736 118.964 767.964" stroke="var(--stroke-0, #202020)" stroke-width="1.63065"/>
<path id="Ellipse 46" opacity="0.48" d="M1534.96 767.964C1534.96 564.543 1454.15 369.453 1310.31 225.613C1166.47 81.7723 971.385 0.963583 767.964 0.963568C564.543 0.963552 369.453 81.7722 225.613 225.613C81.7723 369.453 0.963599 564.542 0.963568 767.963" stroke="var(--stroke-0, #202020)" stroke-width="1.92714"/>
<path id="Ellipse 44" opacity="0.48" d="M1295.96 767.964C1295.96 627.929 1240.34 493.63 1141.32 394.611C1042.3 295.592 907.998 239.964 767.964 239.964C627.929 239.964 493.63 295.592 394.611 394.611C295.592 493.63 239.964 627.929 239.964 767.964" stroke="var(--stroke-0, #202020)" stroke-width="1.32663"/>
</g>
</svg>
