<svg preserveAspectRatio="none" width="100%" height="100%" overflow="visible" style="display: block;" viewBox="0 0 808.643 590.287" fill="none" xmlns="http://www.w3.org/2000/svg">
<g id="Group" opacity="0.02">
<path id="Union" d="M314.683 10.6846C349.645 2.99612 385.044 -0.56337 420.08 0.0722656C447.642 0.426913 474.991 3.35077 501.844 8.83105C519.998 12.4645 537.944 17.3093 555.529 23.2178C555.817 23.2913 556.105 23.4322 556.319 23.5059C572.205 28.9192 587.796 35.189 602.966 42.4492C608.239 44.8782 613.358 47.5154 618.497 50.2188C619.768 50.8543 621.053 51.4902 622.338 52.2061C625.536 53.919 628.741 55.6992 631.946 57.5459C648.186 66.7333 663.718 76.9914 678.379 88.1729C692.27 98.6383 705.298 109.887 717.624 121.925C722.89 126.984 727.956 132.256 732.861 137.596L733.43 138.165C764.906 172.352 790.341 211.591 808.643 254.47L788.916 273.982C770.552 227.432 743.343 185.297 708.803 149.347L707.152 147.64C704.73 145.01 702.1 142.441 699.537 139.878C688.068 128.696 675.889 118.224 663.075 108.468C650.453 98.7881 637.149 89.7961 623.207 81.6084L620.41 79.9824C620.402 79.9775 620.393 79.9727 620.385 79.9678L620.361 80.0078L537.039 220.931L537.004 220.989C546.683 226.327 556.154 231.887 565.411 237.579C608.567 264.001 646.733 293.628 679.345 324.887C679.372 324.872 679.399 324.858 679.426 324.843C711.05 306.896 744.876 292.65 780.06 282.753L739.609 322.774L737.141 323.809C724.817 329.006 712.755 334.656 701.006 340.936L697.372 342.855C697.346 342.87 697.318 342.885 697.292 342.899C697.295 342.903 697.298 342.906 697.301 342.909C700.927 346.69 704.421 350.458 707.76 354.231L690.094 371.677C685.919 367.063 681.529 362.454 677.059 357.891L675.139 355.939L672.287 357.745C665.467 362.094 658.758 366.605 652.212 371.342L650.173 372.813C607.461 403.849 570.506 442.706 542.183 487.358C542.18 487.363 542.177 487.367 542.174 487.371L562.279 498.177L543.557 516.712L529.331 509.037L529.295 509.018V509.02L527.904 511.559C521.004 524.269 514.898 537.182 509.422 550.399L469.474 590L469.186 590.287C477.876 558.315 490.62 527.118 507.21 497.146L405.899 442.644L405.867 442.626L405.852 442.653L329.837 571.05L311.141 553.364L383.703 430.763L383.719 430.735L271.319 370.402L271.307 370.396C271.295 370.413 271.285 370.431 271.273 370.449L269.852 372.688C262.708 383.866 255.061 394.789 246.85 405.266C233.955 422.008 219.855 437.82 204.472 452.628L189.088 438.094L186.098 435.257C206.174 416.14 224.177 395.152 239.853 372.427L241.362 370.222C244.066 366.381 246.628 362.46 249.124 358.552C249.128 358.546 249.13 358.541 249.134 358.535L36.4219 244.181L36.3467 244.139C36.3382 244.158 36.3298 244.177 36.3213 244.196L36.0664 244.732C35.8227 245.267 35.6082 245.799 35.3975 246.331C30.1982 258.155 26.9198 270.829 25.7822 283.938L19.1641 277.741L3.55957 263V262.926C3.56501 262.9 3.57072 262.875 3.57617 262.85L0 259.478C0.930098 257.343 1.92682 255.275 2.92383 253.141C7.10675 244.291 11.6885 235.642 16.666 227.124C16.8315 226.811 16.9952 226.496 17.1631 226.184C17.8004 224.954 18.5247 223.728 19.2363 222.5L19.9404 221.271C20.6384 220.095 21.3524 218.928 22.083 217.771C24.6798 213.463 27.3488 209.196 30.1133 204.991L31.624 202.714C35.4715 196.953 39.3858 191.185 43.5879 185.624C45.6707 182.743 47.8331 179.858 50.0176 177.004L52.207 174.161C57.4566 167.471 62.9104 160.932 68.5498 154.555C68.6383 154.455 68.7259 154.354 68.8145 154.254C69.0929 153.94 69.372 153.626 69.6514 153.312C69.823 153.12 69.995 152.928 70.167 152.735C70.4359 152.435 70.7049 152.134 70.9746 151.834C71.0686 151.729 71.1627 151.625 71.2568 151.521C71.6471 151.087 72.0387 150.655 72.4307 150.224C72.4407 150.213 72.4499 150.201 72.46 150.189C72.7935 149.822 73.1281 149.456 73.4629 149.09C73.6059 148.933 73.7493 148.777 73.8926 148.621C74.1439 148.347 74.3945 148.072 74.6465 147.799C74.8104 147.621 74.9755 147.444 75.1396 147.267C75.4474 146.934 75.7557 146.601 76.0645 146.27C76.1409 146.187 76.2175 146.106 76.2939 146.023C76.6558 145.635 77.0186 145.247 77.3818 144.86C77.4915 144.743 77.6011 144.627 77.7109 144.51C77.9545 144.251 78.1982 143.992 78.4424 143.733C78.6719 143.491 78.9018 143.248 79.1318 143.006C79.308 142.82 79.4837 142.634 79.6602 142.449C79.9885 142.104 80.318 141.761 80.6475 141.417C80.7286 141.332 80.8095 141.248 80.8906 141.163C81.2406 140.799 81.5912 140.435 81.9424 140.071C82.039 139.971 82.1357 139.871 82.2324 139.771C84.5275 137.402 86.8491 135.058 89.1953 132.74C89.834 132.109 90.4748 131.481 91.1172 130.854C91.2318 130.742 91.3452 130.628 91.46 130.517L92.8193 129.198C103.425 118.873 114.533 109.128 126.128 100.013V99.9521C126.135 99.9464 126.142 99.9403 126.149 99.9346V99.9297C133.771 93.874 141.607 88.0381 149.583 82.4775C151.455 81.1979 153.365 79.8774 155.284 78.5742L157.205 77.2783C157.988 76.7833 158.771 76.2079 159.627 75.7129C161.694 74.3546 163.756 73.0026 165.823 71.7246C167.964 70.2994 170.1 68.9478 172.308 67.6631C181.786 61.8604 191.518 56.3632 201.442 51.2383L203.43 50.2188C207.063 48.3653 210.764 46.511 214.471 44.8047C214.541 44.7313 214.632 44.678 214.722 44.6338L214.973 44.5176C225.652 39.4656 236.553 34.7608 247.587 30.5586C248.089 30.3445 248.665 30.1301 249.227 29.916C266.818 23.2915 284.839 17.7376 303.14 13.3213C304.726 12.9303 306.327 12.5546 307.939 12.1846L314.661 10.5674V10.6885C314.668 10.6869 314.676 10.6861 314.683 10.6846ZM513.098 500.328L513.074 500.369C501.146 521.918 491.246 544.096 483.443 566.729L503.762 546.588C509.547 532.744 516.025 519.213 523.383 505.885C523.389 505.873 523.395 505.861 523.401 505.85L513.104 500.313L513.098 500.328ZM389.461 434.17L389.462 434.171L319.62 552.174L328.347 560.43L399.966 439.458L389.618 433.903L389.461 434.17ZM538.603 493.048C537.589 494.701 536.581 496.369 535.559 498.052C534.548 499.738 533.538 501.441 532.543 503.167L542.371 508.469L551.142 499.787L539.004 493.265L538.998 493.261L538.603 493.048ZM522.426 484.332C521.344 486.092 520.276 487.843 519.223 489.601L519.191 489.653C518.217 491.246 517.27 492.848 516.346 494.46L526.646 499.997C527.702 498.162 528.766 496.367 529.819 494.61L529.83 494.594L529.84 494.577C530.786 493.021 531.738 491.447 532.704 489.869L522.426 484.332ZM409.27 436.858L510.403 491.266L510.449 491.29C511.432 489.573 512.442 487.864 513.483 486.161C514.485 484.489 515.503 482.821 516.526 481.154L415.471 426.954L415.455 426.946L415.44 426.938L415.199 426.807L409.27 436.858ZM660.608 343.859C606.617 378.586 560.145 424.555 525.952 478.631L536.265 484.188C536.354 484.05 536.443 483.912 536.532 483.774C565.78 437.664 604.063 397.663 648.31 365.905C655.51 360.696 662.888 355.769 670.363 351.043C667.658 348.303 664.901 345.605 662.057 342.949C661.574 343.252 661.091 343.555 660.608 343.859ZM418.601 421.04L418.633 421.058L520.045 475.449C554.263 421.201 600.61 375.011 654.421 339.896L656.914 338.28L656.904 338.272C627.241 310.541 592.691 284.072 553.92 260.105L550.154 257.794C541.687 252.605 533.094 247.556 524.207 242.654L418.601 421.04ZM254.763 362.153L254.764 362.154C252.265 366.067 249.66 370.052 246.896 373.983C231.913 396.023 214.794 416.466 195.77 435.2L204.393 443.347C217.77 430.07 230.136 415.999 241.548 401.183L241.583 401.138C250.098 390.274 258.01 378.898 265.39 367.23L255.053 361.701C254.955 361.852 254.859 362.003 254.763 362.153ZM393.039 428.145L403.369 433.69L409.314 423.611L399.044 418.035L393.039 428.145ZM280.891 354.617C279.918 356.295 278.924 357.965 277.897 359.616C276.896 361.321 275.877 363.01 274.843 364.699L386.915 424.857L387.139 424.978L393.159 414.841L281.031 354.692L281.027 354.69L280.891 354.617ZM507.95 234.096L402.464 412.277L412.717 417.845L412.822 417.667L412.828 417.658L518.417 239.301C517.595 238.851 516.769 238.406 515.948 237.968L513.185 236.502C511.525 235.561 509.836 234.649 508.146 233.765L507.95 234.096ZM336.438 169.366C332.733 231.378 315.071 292.752 284.174 348.784L284.194 348.796L396.58 409.082L502.161 230.739C502.157 230.737 502.153 230.735 502.149 230.733L501.293 230.305C500.226 229.736 499.157 229.184 498.088 228.642L494.883 227.033C478.993 219.085 463.043 211.765 447.085 205.131L443.894 203.813C437.771 201.251 431.568 198.828 425.445 196.479C406 189.072 386.561 182.662 367.403 177.182C356.962 174.339 346.667 171.71 336.438 169.366ZM691.257 346.309C687.805 348.275 684.374 350.268 680.97 352.326C684.127 355.538 687.26 358.783 690.319 362.049L698.506 353.965C696.545 351.83 694.532 349.69 692.472 347.542L692.209 347.268L692.203 347.26C692.115 347.179 691.985 347.06 691.842 346.92L691.739 346.819L691.641 346.715C691.513 346.579 691.385 346.444 691.257 346.309ZM264.655 345.895C263.644 347.678 262.619 349.438 261.59 351.187L261.534 351.281L261.475 351.374C261.087 351.985 260.711 352.605 260.296 353.289C259.904 353.935 259.475 354.642 259.022 355.358C258.891 355.581 258.757 355.802 258.624 356.023L268.934 361.537C270.02 359.765 271.085 358.002 272.128 356.227L272.171 356.154L272.215 356.084C273.163 354.559 274.085 353.012 274.993 351.448L264.655 345.895ZM43.7617 230.357C43.2105 231.257 42.6763 232.147 42.1777 233.037L41.7979 233.704C40.9645 235.148 40.0624 236.599 39.2402 238.095L39.2432 238.097L39.5898 238.287L252.307 352.645L252.717 352.863C252.749 352.809 252.784 352.756 252.816 352.702L253.327 351.848C254.184 350.496 254.966 349.144 255.822 347.792C256.82 346.097 257.8 344.415 258.76 342.727L46.8955 228.802L45.3896 228.466L45.1045 228.181L43.7617 230.357ZM678.255 333.177C674.797 335.157 671.361 337.207 667.941 339.3C670.763 341.972 673.495 344.676 676.173 347.411C679.593 345.322 683.029 343.311 686.465 341.342C683.779 338.611 681.026 335.89 678.255 333.177ZM317.723 165.523C314.761 225.815 297.853 285.539 267.862 340.022L278.278 345.617C278.286 345.603 278.294 345.59 278.302 345.576L278.309 345.564C308.74 290.382 326.121 229.954 329.762 168.925L329.764 168.895L329.766 168.863C329.787 168.552 329.807 168.24 329.827 167.928C325.77 167.075 321.733 166.278 317.723 165.523ZM755.676 297.464C730.971 306.122 707.08 316.969 684.328 329.76C687.073 332.457 689.811 335.181 692.486 337.926C693.024 337.624 693.561 337.322 694.098 337.021L694.167 336.981L694.237 336.944C694.85 336.619 695.462 336.296 696.066 335.978C696.673 335.658 697.272 335.342 697.87 335.024C710.231 328.419 722.906 322.512 735.826 317.104L755.676 297.464ZM238.712 156.237C182.664 154.25 133.027 163.149 95.4941 183.585L93.8604 184.475C85.7326 188.959 78.2333 194.003 71.3516 199.611L70.7227 200.049C70.5179 200.2 70.3202 200.36 70.1396 200.541C68.1524 202.174 66.2251 203.881 64.3047 205.594C58.61 210.861 53.5622 216.475 49.1494 222.449L49.2559 222.474L261.968 336.855C291.186 283.796 307.781 225.709 310.947 167.059L311.086 164.302L311 164.287C286.853 159.873 263.372 157.191 240.885 156.316L238.712 156.237ZM527.611 236.892C536.536 241.818 545.158 246.884 553.638 252.08C594.278 276.857 630.444 304.387 661.396 333.313C661.877 333.737 662.354 334.163 662.829 334.588C666.276 332.462 669.753 330.367 673.261 328.333C641.323 297.924 604.035 269.072 561.917 243.285L561.906 243.279C552.724 237.633 543.34 232.127 533.761 226.844L533.599 226.754L527.611 236.892ZM75.1279 174.63C70.3152 177.664 65.7301 180.886 61.3945 184.295L61.3555 184.326L61.3154 184.356C60.0724 185.304 59.0537 186.085 58.126 186.903L58.0518 186.969L57.9746 187.033C55.6284 188.982 53.3882 191.01 51.0898 193.171L51.0889 193.17C46.4412 197.542 42.0872 202.174 38.1572 206.983L38.1416 207.003L38.126 207.021C34.4249 211.484 31.0284 216.169 27.9326 221.044C27.2251 222.217 26.5204 223.393 25.8223 224.573C24.736 226.498 23.9813 227.695 23.1992 229.204L23.1172 229.363L23.0254 229.519C22.8259 229.857 22.6278 230.197 22.4297 230.536C18.3067 238.392 14.9971 246.535 12.5518 254.906L12.542 254.941L12.5312 254.977C11.9559 256.869 11.4311 258.753 10.957 260.646L17.0273 266.382C18.4987 263.257 20.0251 260.155 21.6123 257.119C23.7395 252.443 26.1223 247.969 28.5938 243.588C29.1095 242.508 29.7414 241.395 30.0537 240.809L30.0723 240.771L24.5977 237.837L37.5527 216.277L42.4766 218.933L43.46 217.949L43.6875 217.72C47.2916 212.07 51.0362 206.509 54.8379 201.087L54.8682 201.044L54.8994 201.001C56.3951 198.938 57.8927 196.87 59.3955 194.804L59.4316 194.754L59.4688 194.704C61.8311 191.578 64.3455 188.177 66.9023 184.96L66.9268 184.93L66.9502 184.9C67.2112 184.58 67.4653 184.252 67.7754 183.852C68.0571 183.487 68.3901 183.056 68.751 182.61C70.3924 180.54 72.1197 178.38 73.7432 176.339L73.8613 176.19L73.8975 176.148C74.3045 175.637 74.7154 175.131 75.1279 174.63ZM419.959 6.7627C385.664 6.1405 351.002 9.60208 316.743 17.0859L318.147 21.3877C318.817 23.5435 319.487 25.6977 320.141 27.834C320.35 27.7924 320.559 27.7506 320.77 27.71C351.325 21.1469 382.176 17.897 412.834 17.9648C440.029 17.9658 467.075 20.6148 493.536 25.71L496.096 26.2109L496.109 26.2129L496.124 26.2158C501.001 27.2071 505.97 28.228 510.959 29.4736C521.611 31.9412 532.099 34.9057 542.417 38.2275H542.416C544.934 39.0371 547.735 39.9249 550.487 40.959C552.892 41.6887 555.254 42.5021 557.64 43.4629C572.486 48.8079 587.129 55.081 601.322 62.1406C601.479 62.2145 601.635 62.2899 601.792 62.3643L604.877 57.1562L626.952 69.0342L623.831 74.2305C639.016 82.9824 653.467 92.668 667.128 103.144C680.152 113.06 692.539 123.709 704.208 135.086L704.239 135.116L704.269 135.146C706.73 137.608 709.481 140.297 712.006 143.033C745.575 177.564 772.454 217.799 791.316 262.194L800.681 252.932C782.845 212.418 758.495 175.288 728.592 142.79L728.029 142.228L727.933 142.122C723.094 136.854 718.128 131.687 712.989 126.75L712.969 126.73L712.949 126.712C700.82 114.866 688.008 103.804 674.353 93.5166L674.321 93.4932C659.902 82.4964 644.626 72.406 628.651 63.3691L628.629 63.3564L628.605 63.3438C625.461 61.532 622.317 59.7851 619.179 58.1045L619.129 58.0781L619.08 58.0508C617.954 57.4235 616.82 56.8609 615.504 56.2031L615.442 56.1729L615.382 56.1406C610.266 53.4494 605.273 50.8799 600.166 48.5273L600.121 48.5068L600.077 48.4854C585.165 41.3482 569.819 35.1757 554.161 29.8398L554.144 29.834C554.028 29.7943 553.928 29.7567 553.852 29.7275C553.775 29.6982 553.706 29.671 553.657 29.6514C553.641 29.6448 553.624 29.6381 553.608 29.6318L553.398 29.5615C536.069 23.7388 518.395 18.9681 500.53 15.3926L500.518 15.3906L500.506 15.3877C474.069 9.99228 447.139 7.11296 419.994 6.76367L419.977 6.7627H419.959ZM511.566 228.002C513.179 228.849 514.797 229.725 516.396 230.631C518.11 231.538 519.959 232.514 521.821 233.536L527.813 223.392C526.225 222.523 524.56 221.631 522.771 220.639L522.748 220.625C521.066 219.683 519.327 218.759 517.584 217.866L511.566 228.002ZM337.118 151.286C337.093 155.063 336.995 158.835 336.824 162.597L337.821 162.818L337.831 162.82L337.842 162.823C348.208 165.197 358.623 167.856 369.16 170.725L369.202 170.736L369.243 170.748C387.368 175.933 405.745 181.943 424.146 188.836L427.827 190.227L427.835 190.229L427.842 190.232C433.984 192.589 440.261 195.039 446.478 197.641H446.477C463.644 204.68 480.795 212.505 497.867 221.044C499.97 222.092 502.161 223.187 504.359 224.356L505.143 224.748H505.142C505.29 224.821 505.438 224.894 505.587 224.968L511.582 214.868C507.481 212.751 503.372 210.697 499.209 208.609L496.067 207.068C480.349 199.398 464.469 192.294 448.6 185.882L448.578 185.873L448.557 185.863C445.367 184.548 442.097 183.293 438.735 182.005L438.7 181.991C416.621 173.388 394.485 166.053 372.633 160.061L372.621 160.058L372.609 160.054C360.711 156.744 348.878 153.82 337.118 151.286ZM604.085 71.623L604.086 71.624L521.006 212.101C522.689 212.967 524.375 213.866 526.019 214.787C527.75 215.748 529.495 216.682 531.218 217.627L531.277 217.527L531.279 217.525L614.562 76.6699C612.906 75.7404 611.251 74.8341 609.59 73.9326C607.854 72.9643 606.12 72.0284 604.38 71.124L604.085 71.623ZM412.82 24.6572C382.615 24.5903 352.208 27.7951 322.083 34.2725C322.077 34.2735 322.072 34.2743 322.066 34.2754C322.067 34.2777 322.068 34.28 322.068 34.2822C322.202 34.8509 322.35 35.4196 322.49 35.9883C323.775 40.4716 324.913 44.962 325.983 49.4453C333.531 80.6409 337.305 112.546 337.084 144.397C337.084 144.41 337.084 144.423 337.084 144.436C349.452 147.068 361.894 150.128 374.402 153.607C396.484 159.663 418.841 167.07 441.13 175.756C444.482 177.041 447.829 178.325 451.107 179.677C468.197 186.582 485.287 194.279 502.17 202.609C506.439 204.751 510.715 206.885 514.984 209.093L515.005 209.103L515.051 209.026L598.326 68.2178L598.368 68.1445C585.232 61.6098 571.709 55.7616 558.002 50.7158L555.255 49.7168C552.973 48.7934 550.698 48.01 548.343 47.3008C546.371 46.5531 544.357 45.8844 542.358 45.2383L540.366 44.5977C530.182 41.3189 519.857 38.4008 509.392 35.9785C504.547 34.7674 499.696 33.7704 494.791 32.7734C468.771 27.6006 442.166 24.833 415.41 24.665L412.82 24.6572ZM221.818 138.503L221.819 138.504C189.546 138.715 159.515 142.507 132.826 149.873L132.812 149.877C126.974 151.475 121.225 153.273 115.771 155.214L115.723 155.231L115.674 155.248C113.034 156.142 110.445 157.112 107.821 158.156C107.726 158.209 107.621 158.266 107.508 158.321C107.261 158.441 106.984 158.555 106.681 158.657C101.885 160.586 97.2252 162.653 92.7129 164.857L92.6836 164.89C89.7718 168.033 86.9188 171.272 84.1787 174.516C82.4817 176.505 80.7773 178.488 79.0078 180.472C79.0054 180.475 79.0034 180.478 79.001 180.481C77.3616 182.542 75.655 184.678 74.0156 186.745L73.5459 187.335C73.2354 187.731 72.9319 188.124 72.6211 188.521C72.61 188.535 72.5981 188.548 72.5869 188.562C72.447 188.741 72.3078 188.922 72.1621 189.101C71.2656 190.228 70.3803 191.377 69.498 192.533C76.5321 187.033 84.1407 182.087 92.3281 177.689C131.247 156.51 182.172 147.538 238.938 149.549C262.21 150.336 286.502 153.041 311.454 157.568C311.608 153.86 311.679 150.146 311.675 146.438C311.306 146.383 310.938 146.326 310.569 146.273L310.476 146.26L310.382 146.243C279.683 140.963 249.878 138.365 221.818 138.503ZM309.416 18.71L304.684 19.8506L304.683 19.8496C286.661 24.1988 268.913 29.6676 251.586 36.1914L251.587 36.1924C250.939 36.4392 250.537 36.5888 250.191 36.7363L250.07 36.7881L249.947 36.835C239.335 40.8764 228.831 45.3973 218.516 50.2578L218.407 50.3721L217.247 50.9062C213.666 52.5547 210.062 54.3591 206.449 56.2021H206.448C195.995 61.5343 185.747 67.2905 175.779 73.3926L175.716 73.4316L175.651 73.4697C173.587 74.6711 171.568 75.948 169.51 77.3184L169.416 77.3809L169.32 77.4395C167.343 78.6616 165.356 79.9637 163.279 81.3281L163.12 81.4336L162.955 81.5293C162.159 81.9894 162.184 82.0485 160.901 82.8652L159.014 84.1377C157.146 85.4062 155.285 86.6935 153.389 87.9902L150.447 90.0586C144.482 94.2871 138.602 98.669 132.841 103.181V103.248L132.819 103.265V103.271L130.264 105.28C118.85 114.252 107.913 123.845 97.4658 134.016L97.4561 134.024L97.4463 134.034C92.1903 139.111 87.058 144.32 82.0596 149.653C81.8523 149.874 81.6453 150.096 81.4385 150.317C80.1628 151.684 78.8965 153.059 77.6387 154.442C70.6442 162.133 63.9265 170.071 57.5186 178.236L56.3926 179.697C56.6806 179.476 56.9697 179.256 57.2588 179.035C66.6411 171.659 77.0948 165.152 88.4131 159.518C88.599 159.319 88.7845 159.12 88.9707 158.922C92.4551 155.078 96.1333 151.249 99.8027 147.579C101.77 145.539 103.896 143.338 106.047 141.264C109.391 137.923 112.795 134.737 116.217 131.604L116.222 131.6C120.332 127.842 124.641 124.035 129.121 120.406C129.702 119.847 130.329 119.305 130.97 118.811C134.502 115.909 138.129 112.937 141.84 110.094C148.616 104.834 155.539 99.7803 162.606 94.9531C167.081 91.8025 171.678 88.8126 176.249 85.9785C183.749 81.2174 191.404 76.6711 199.219 72.4033C212.965 64.8042 227.147 57.9995 241.762 52.0039L242.653 51.6377L243.652 51.21L243.681 51.2158L243.737 51.1934L243.979 51.249C247.717 49.6752 251.54 48.2724 255.052 46.9023L255.058 46.8994C257.627 45.9 260.309 44.8855 263.014 43.9365C264.725 43.2928 266.567 42.6283 268.441 42.0264L271.736 40.9258C278.98 38.5374 286.371 36.3026 293.675 34.2656L300.395 27.5469L301.689 32.1348C303.527 31.6599 305.353 31.2066 307.19 30.7695C309.13 30.2539 311.122 29.8089 313.111 29.4375C313.272 29.3963 313.434 29.357 313.595 29.3164C312.994 27.3576 312.379 25.3741 311.757 23.373H311.756L310.177 18.5342C309.923 18.592 309.669 18.6518 309.416 18.71ZM318.365 147.536C318.355 151.282 318.268 155.036 318.1 158.785C322.095 159.533 326.128 160.322 330.189 161.167C330.345 157.417 330.425 153.655 330.433 149.89L329.26 149.646C325.588 148.894 321.965 148.178 318.365 147.536ZM297.056 40.3516C297.052 40.3548 296.979 40.4231 296.842 40.3516C288.083 42.7672 279.183 45.4771 270.558 48.3945L269.224 48.834C267.892 49.2847 266.571 49.7663 265.291 50.248L263.314 50.9531C261.341 51.6698 259.377 52.4173 257.455 53.165C253.253 54.8044 249.124 56.3041 245.062 58.084C244.775 58.2243 244.561 58.2913 244.273 58.2246C236.799 61.4298 229.244 64.922 221.983 68.5488C221.917 68.6157 221.696 68.5492 221.629 68.6895C216.932 70.9645 212.228 73.3137 207.53 75.8096C206.46 76.4519 205.396 77.0211 204.325 77.5898L204.272 77.5986C204.148 77.6412 204.018 77.8212 203.83 77.9443L203.613 78.0322C203.101 78.2517 202.548 78.5578 202.05 78.874L201.872 78.9834C201.819 79.0193 201.765 79.0545 201.695 79.0879C194.355 83.1496 187.161 87.4197 180.115 91.9766L178.404 93.0469C174.415 95.5536 170.442 98.127 166.578 100.809C159.739 105.506 152.974 110.417 146.423 115.55C142.221 118.762 138.019 122.035 133.957 125.595L132.308 126.936C128.473 130.082 124.737 133.344 120.996 136.775L119.717 137.929C116.74 140.627 113.811 143.39 110.878 146.317C108.891 148.171 106.897 150.092 104.97 152.086L104.965 152.09C107.801 150.955 110.625 149.893 113.527 148.91C118.446 147.159 123.585 145.526 128.805 144.047L131.046 143.423C158.394 135.875 189.022 132.027 221.776 131.812C250.268 131.672 280.467 134.309 311.516 139.648C311.538 139.652 311.561 139.655 311.583 139.658V139.626C311.168 110.578 307.481 81.399 300.389 52.9941L299.692 50.248C298.91 46.9024 297.979 43.6236 297.056 40.3516ZM314.535 35.9785C312.608 36.3331 310.687 36.7617 308.834 37.2568C307.051 37.6806 305.281 38.1176 303.506 38.5752C304.41 41.7782 305.372 45.1656 306.188 48.6426C313.856 78.3954 317.831 109 318.272 139.451L318.302 140.729C322.327 141.428 326.355 142.222 330.396 143.049C330.502 112.189 326.799 81.2716 319.479 51.0186L319.477 51.0088L319.475 50.999C318.418 46.5725 317.305 42.1864 316.058 37.832L316.023 37.7129L315.994 37.5938C315.892 37.1818 315.742 36.5856 315.608 36.0312C315.579 35.9313 315.549 35.8316 315.52 35.7314C315.192 35.8134 314.863 35.894 314.535 35.9785Z" fill="var(--fill-0, #E6E6E6)"/>
</g>
</svg>
