<svg width="720" height="360" viewBox="0 0 720 360" fill="none" xmlns="http://www.w3.org/2000/svg">
<g id="seamless_halftone_background 2 [Vectorized]" clip-path="url(#clip0_0_4)">
<path id="Vector" d="M0 0H720V360H0V0Z" fill="#0D0D0D"/>
<path id="Vector_2" d="M665.522 206.547C666.879 205.947 668.465 206.526 669.119 207.859C669.77 209.191 669.254 210.8 667.947 211.503C667.055 211.983 665.974 211.937 665.126 211.383C664.279 210.829 663.804 209.856 663.886 208.847C663.968 207.838 664.596 206.955 665.522 206.547Z" fill="white" fill-opacity="0.2"/>
<path id="Vector_3" d="M242.651 5.9848C244.111 5.75021 245.496 6.70717 245.794 8.15535C246.091 9.60356 245.195 11.0289 243.76 11.3884C242.776 11.6352 241.736 11.3221 241.051 10.573C240.367 9.82399 240.148 8.75979 240.482 7.80163C240.817 6.84346 241.649 6.1458 242.651 5.9848Z" fill="white" fill-opacity="0.2"/>
<path id="Vector_4" d="M431.079 268.956C432.519 268.827 433.815 269.831 434.049 271.258C434.284 272.685 433.375 274.05 431.968 274.387C430.962 274.627 429.91 274.286 429.236 273.502C428.561 272.718 428.382 271.624 428.769 270.666C429.159 269.709 430.05 269.049 431.079 268.956Z" fill="white" fill-opacity="0.2"/>
<path id="Vector_5" d="M324.592 331.71C325.539 331.402 326.58 331.631 327.313 332.305C328.043 332.982 328.356 333.999 328.125 334.967C327.896 335.937 327.16 336.708 326.205 336.981C324.759 337.397 323.247 336.576 322.807 335.14C322.367 333.7 323.162 332.176 324.592 331.71Z" fill="white" fill-opacity="0.2"/>
<path id="Vector_6" d="M547.816 344.322C549.205 343.686 550.847 344.298 551.477 345.691C552.11 347.083 551.486 348.722 550.091 349.344C548.707 349.962 547.083 349.346 546.458 347.966C545.831 346.585 546.438 344.955 547.816 344.322Z" fill="white" fill-opacity="0.2"/>
<path id="Vector_7" d="M700.698 31.2574C702.056 30.5787 703.706 31.126 704.389 32.4816C705.075 33.8369 704.533 35.49 703.181 36.1792C701.821 36.8723 700.156 36.3276 699.467 34.9647C698.781 33.6018 699.332 31.9396 700.698 31.2574Z" fill="white" fill-opacity="0.2"/>
<path id="Vector_8" d="M607.33 5.99832C608.799 5.73148 610.215 6.68581 610.52 8.14929C610.822 9.61274 609.904 11.0517 608.45 11.3925C607.474 11.6207 606.453 11.3023 605.779 10.5609C605.108 9.81951 604.891 8.77167 605.21 7.82374C605.533 6.87583 606.345 6.17703 607.33 5.99832Z" fill="white" fill-opacity="0.2"/>
<path id="Vector_9" d="M653.652 81.3535C654.552 80.9188 655.616 81.0053 656.434 81.5796C657.252 82.1542 657.695 83.1266 657.592 84.1207C657.487 85.1145 656.853 85.9743 655.936 86.3672C654.558 86.9555 652.963 86.3375 652.345 84.9752C651.723 83.6129 652.307 82.0049 653.652 81.3535Z" fill="white" fill-opacity="0.2"/>
<path id="Vector_10" d="M712.51 294.233C713.867 293.576 715.497 294.13 716.174 295.479C716.848 296.824 716.315 298.463 714.978 299.155C714.096 299.612 713.037 299.559 712.208 299.017C711.375 298.475 710.9 297.528 710.962 296.537C711.026 295.546 711.619 294.666 712.51 294.233Z" fill="white" fill-opacity="0.2"/>
<path id="Vector_11" d="M642.392 244.015C643.353 243.747 644.385 244.022 645.086 244.734C645.784 245.446 646.045 246.482 645.76 247.439C645.476 248.396 644.693 249.124 643.717 249.338C642.266 249.657 640.826 248.763 640.466 247.322C640.108 245.881 640.961 244.415 642.392 244.015Z" fill="white" fill-opacity="0.2"/>
<path id="Vector_12" d="M548.15 332.062C548.979 331.751 549.912 331.915 550.583 332.493C551.257 333.07 551.559 333.97 551.375 334.838C551.19 335.703 550.548 336.401 549.698 336.656C548.446 337.028 547.124 336.345 546.705 335.105C546.288 333.868 546.927 332.522 548.15 332.062Z" fill="white" fill-opacity="0.2"/>
<path id="Vector_13" d="M230.907 6.30994C232.223 6.08998 233.468 6.97377 233.695 8.28771C233.922 9.60168 233.045 10.8521 231.732 11.0859C230.41 11.3215 229.148 10.4363 228.919 9.11249C228.691 7.7887 229.583 6.53157 230.907 6.30994Z" fill="white" fill-opacity="0.2"/>
<path id="Vector_14" d="M7.09719 18.8991C8.3832 18.5444 9.71338 19.299 10.0687 20.5848C10.424 21.8707 9.67002 23.2012 8.38431 23.5571C7.09781 23.9132 5.76628 23.1586 5.41073 21.872C5.05519 20.5853 5.81037 19.2541 7.09719 18.8991Z" fill="white" fill-opacity="0.2"/>
<path id="Vector_15" d="M230.82 106.54C232.128 106.266 233.409 107.106 233.679 108.414C233.949 109.722 233.104 111 231.795 111.265C230.493 111.529 229.222 110.69 228.954 109.388C228.685 108.087 229.52 106.814 230.82 106.54Z" fill="white" fill-opacity="0.2"/>
<path id="Vector_16" d="M395.505 56.4314C396.806 56.1549 398.081 56.9834 398.36 58.2824C398.635 59.5814 397.809 60.859 396.51 61.1363C395.208 61.4139 393.93 60.5851 393.655 59.2856C393.376 57.986 394.206 56.7081 395.505 56.4314Z" fill="white" fill-opacity="0.2"/>
<path id="Vector_17" d="M347.822 44.1537C348.605 43.7395 349.552 43.7879 350.285 44.2795C351.021 44.7711 351.428 45.6266 351.343 46.5072C351.261 47.3876 350.701 48.1513 349.886 48.4951C348.699 48.9956 347.33 48.4734 346.776 47.3108C346.224 46.1478 346.685 44.7565 347.822 44.1537Z" fill="white" fill-opacity="0.2"/>
<path id="Vector_18" d="M347.898 307.108C348.687 306.724 349.619 306.8 350.335 307.304C351.05 307.809 351.437 308.662 351.34 309.532C351.246 310.4 350.683 311.151 349.877 311.488C348.675 311.989 347.294 311.444 346.761 310.259C346.224 309.072 346.729 307.677 347.898 307.108Z" fill="white" fill-opacity="0.2"/>
<path id="Vector_19" d="M66.0902 156.66C66.9368 156.485 67.8122 156.779 68.3803 157.431C68.9485 158.083 69.1209 158.99 68.8315 159.805C68.5419 160.62 67.8357 161.215 66.9837 161.363C65.6962 161.586 64.4681 160.734 64.2242 159.451C63.9803 158.167 64.8108 156.925 66.0902 156.66Z" fill="white" fill-opacity="0.2"/>
<path id="Vector_20" d="M219.031 106.885C220.149 106.606 221.281 107.289 221.554 108.408C221.827 109.528 221.138 110.656 220.017 110.924C218.904 111.189 217.786 110.506 217.515 109.395C217.244 108.283 217.921 107.162 219.031 106.885Z" fill="white" fill-opacity="0.2"/>
<path id="Vector_21" d="M313.03 294.757C314.094 294.414 315.24 294.977 315.619 296.029C316 297.082 315.478 298.246 314.44 298.662C313.736 298.946 312.93 298.82 312.344 298.34C311.758 297.856 311.482 297.091 311.626 296.346C311.766 295.599 312.306 294.989 313.03 294.757Z" fill="white" fill-opacity="0.2"/>
<path id="Vector_22" d="M77.5574 132.018C78.256 131.739 79.0508 131.861 79.6342 132.335C80.2176 132.81 80.4981 133.563 80.3671 134.304C80.236 135.044 79.7139 135.656 79.003 135.901C77.9394 136.269 76.7767 135.72 76.3842 134.666C75.9917 133.611 76.5123 132.436 77.5574 132.018Z" fill="white" fill-opacity="0.2"/>
<path id="Vector_23" d="M653.89 44.4497C654.869 43.9334 656.082 44.2808 656.639 45.2374C657.196 46.1943 656.903 47.4205 655.971 48.0186C655.332 48.429 654.517 48.4557 653.854 48.0881C653.189 47.7205 652.779 47.0178 652.787 46.2582C652.793 45.4983 653.218 44.8041 653.89 44.4497Z" fill="white" fill-opacity="0.2"/>
<path id="Vector_24" d="M31.2748 19.1541C32.3692 19.1488 33.2768 19.9996 33.3422 21.0919C33.4076 22.1843 32.6078 23.1373 31.5208 23.2627C30.7624 23.3501 30.0178 23.0112 29.5857 22.3819C29.1535 21.7526 29.1046 20.9359 29.4587 20.2595C29.8126 19.5831 30.5115 19.1578 31.2748 19.1541Z" fill="white" fill-opacity="0.2"/>
<path id="Vector_25" d="M6.80985 6.88424C7.50127 6.52966 8.33343 6.59474 8.96132 7.05251C9.58918 7.51031 9.90568 8.2827 9.7795 9.04943C9.65336 9.81616 9.10611 10.4465 8.36466 10.679C7.34484 10.9987 6.24995 10.4846 5.84471 9.49556C5.43951 8.50658 5.85884 7.372 6.80985 6.88424Z" fill="white" fill-opacity="0.2"/>
<path id="Vector_26" d="M54.3104 156.977C55.3623 156.714 56.4373 157.314 56.7654 158.348C57.0931 159.381 56.561 160.491 55.5499 160.883C54.8375 161.16 54.0305 161.017 53.4556 160.514C52.8804 160.01 52.6327 159.229 52.8121 158.486C52.9918 157.743 53.569 157.162 54.3104 156.977Z" fill="white" fill-opacity="0.2"/>
<path id="Vector_27" d="M124.903 207.091C125.94 206.836 126.999 207.421 127.336 208.434C127.672 209.448 127.173 210.55 126.19 210.966C125.48 211.266 124.662 211.142 124.072 210.646C123.483 210.149 123.223 209.364 123.398 208.614C123.573 207.863 124.155 207.275 124.903 207.091Z" fill="white" fill-opacity="0.2"/>
<path id="Vector_28" d="M536.233 345.213C537.115 344.671 538.27 344.935 538.827 345.811C539.384 346.685 539.135 347.846 538.27 348.414C537.699 348.793 536.966 348.831 536.356 348.517C535.746 348.203 535.353 347.585 535.33 346.902C535.304 346.216 535.65 345.571 536.233 345.213Z" fill="white" fill-opacity="0.2"/>
<path id="Vector_29" d="M501.291 345.213C502.179 344.861 503.185 345.292 503.546 346.177C503.906 347.063 503.484 348.071 502.602 348.441C501.707 348.813 500.681 348.385 500.318 347.488C499.954 346.591 500.391 345.571 501.291 345.213Z" fill="white" fill-opacity="0.2"/>
<path id="Vector_30" d="M395.531 157.298C396.405 157.034 397.334 157.491 397.659 158.344C397.985 159.198 397.595 160.157 396.768 160.543C396.179 160.819 395.481 160.741 394.968 160.342C394.452 159.943 394.203 159.289 394.32 158.648C394.44 158.007 394.907 157.486 395.531 157.298Z" fill="white" fill-opacity="0.2"/>
<path id="Vector_31" d="M571.735 220.038C572.599 219.603 573.652 219.957 574.08 220.826C574.505 221.694 574.144 222.744 573.271 223.163C572.409 223.577 571.377 223.219 570.955 222.361C570.533 221.504 570.881 220.467 571.735 220.038Z" fill="white" fill-opacity="0.2"/>
<path id="Vector_32" d="M465.901 132.374C466.757 131.974 467.777 132.33 468.196 133.177C468.616 134.024 468.284 135.051 467.446 135.491C466.889 135.784 466.215 135.752 465.684 135.407C465.156 135.061 464.857 134.457 464.901 133.827C464.945 133.197 465.329 132.641 465.901 132.374Z" fill="white" fill-opacity="0.2"/>
<path id="Vector_33" d="M512.848 270.179C513.41 269.87 514.102 269.899 514.639 270.254C515.178 270.609 515.474 271.233 515.413 271.874C515.348 272.515 514.938 273.069 514.343 273.314C513.487 273.665 512.507 273.288 512.112 272.454C511.713 271.621 512.036 270.622 512.848 270.179Z" fill="white" fill-opacity="0.2"/>
<path id="Vector_34" d="M42.3624 32.1309C43.2293 31.7551 44.2378 32.1403 44.6335 32.9981C45.0296 33.8559 44.6684 34.8732 43.82 35.2891C43.253 35.5668 42.5802 35.5161 42.0619 35.1558C41.5433 34.7958 41.2607 34.1831 41.3232 33.5551C41.3856 32.9269 41.7831 32.3819 42.3624 32.1309Z" fill="white" fill-opacity="0.2"/>
<path id="Vector_35" d="M466.13 207.408C466.992 207.146 467.912 207.585 468.249 208.419C468.586 209.254 468.232 210.209 467.428 210.619C466.842 210.918 466.138 210.862 465.608 210.472C465.077 210.083 464.813 209.428 464.925 208.779C465.033 208.13 465.502 207.6 466.13 207.408Z" fill="white" fill-opacity="0.2"/>
<path id="Vector_36" d="M677.876 207.422C678.764 207.132 679.723 207.595 680.045 208.471C680.371 209.348 679.943 210.323 679.081 210.68C678.491 210.924 677.817 210.826 677.322 210.425C676.826 210.025 676.589 209.385 676.706 208.759C676.82 208.133 677.269 207.619 677.876 207.422Z" fill="white" fill-opacity="0.2"/>
<path id="Vector_37" d="M301.219 295.112C302.078 294.757 303.063 295.141 303.458 295.983C303.851 296.824 303.511 297.827 302.69 298.258C302.121 298.554 301.438 298.515 300.911 298.158C300.38 297.8 300.09 297.179 300.154 296.543C300.219 295.906 300.629 295.358 301.219 295.112Z" fill="white" fill-opacity="0.2"/>
<path id="Vector_38" d="M677.867 257.534C678.752 257.238 679.714 257.695 680.042 258.567C680.374 259.44 679.954 260.418 679.095 260.781C678.509 261.028 677.835 260.935 677.336 260.539C676.838 260.142 676.598 259.505 676.709 258.878C676.82 258.252 677.266 257.736 677.867 257.534Z" fill="white" fill-opacity="0.2"/>
<path id="Vector_39" d="M689.371 220.053C689.936 219.76 690.62 219.802 691.147 220.162C691.675 220.522 691.962 221.141 691.895 221.776C691.83 222.41 691.42 222.957 690.831 223.201C689.972 223.556 688.984 223.17 688.594 222.326C688.201 221.483 688.544 220.48 689.371 220.053Z" fill="white" fill-opacity="0.2"/>
<path id="Vector_40" d="M712.829 282.732C713.638 282.252 714.682 282.503 715.183 283.298C715.685 284.094 715.462 285.143 714.679 285.665C714.154 286.015 713.483 286.053 712.92 285.764C712.36 285.475 712.003 284.905 711.982 284.275C711.964 283.645 712.29 283.054 712.829 282.732Z" fill="white" fill-opacity="0.2"/>
<path id="Vector_41" d="M477.695 169.891C478.551 169.53 479.539 169.908 479.937 170.748C480.333 171.588 479.999 172.591 479.175 173.024C478.612 173.32 477.929 173.283 477.402 172.928C476.874 172.573 476.581 171.956 476.642 171.323C476.704 170.689 477.108 170.139 477.695 169.891Z" fill="white" fill-opacity="0.2"/>
<path id="Vector_42" d="M430.795 157.312C431.645 157.04 432.563 157.458 432.918 158.279C433.269 159.099 432.941 160.053 432.158 160.482C431.581 160.799 430.871 160.761 430.332 160.384C429.793 160.007 429.511 159.356 429.611 158.704C429.707 158.053 430.168 157.514 430.795 157.312Z" fill="white" fill-opacity="0.2"/>
<path id="Vector_43" d="M112.872 220.044C113.718 219.623 114.745 219.957 115.181 220.796C115.617 221.634 115.3 222.667 114.47 223.118C113.919 223.416 113.25 223.395 112.72 223.061C112.19 222.727 111.882 222.134 111.913 221.508C111.944 220.882 112.311 220.322 112.872 220.044Z" fill="white" fill-opacity="0.2"/>
<path id="Vector_44" d="M677.515 282.743C678.321 282.253 679.374 282.5 679.878 283.298C680.382 284.096 680.154 285.151 679.365 285.67C678.843 286.014 678.175 286.049 677.618 285.762C677.061 285.474 676.703 284.909 676.683 284.283C676.662 283.657 676.979 283.068 677.515 282.743Z" fill="white" fill-opacity="0.2"/>
<path id="Vector_45" d="M689.233 195.115C689.761 194.781 690.426 194.755 690.974 195.048C691.525 195.341 691.877 195.907 691.892 196.53C691.91 197.153 691.59 197.737 691.056 198.06C690.244 198.55 689.189 198.296 688.691 197.489C688.189 196.682 688.433 195.624 689.233 195.115Z" fill="white" fill-opacity="0.2"/>
<path id="Vector_46" d="M548.519 207.402C549.428 207.156 550.363 207.677 550.633 208.577C550.903 209.477 550.404 210.428 549.51 210.718C548.912 210.913 548.258 210.769 547.795 210.341C547.335 209.913 547.144 209.269 547.294 208.659C547.443 208.048 547.912 207.567 548.519 207.402Z" fill="white" fill-opacity="0.2"/>
<path id="Vector_47" d="M654.024 94.8358C654.828 94.3935 655.839 94.6567 656.326 95.4356C656.812 96.2149 656.604 97.238 655.854 97.7674C655.329 98.1371 654.643 98.1864 654.071 97.8958C653.5 97.605 653.136 97.0219 653.127 96.3805C653.116 95.7391 653.462 95.1445 654.024 94.8358Z" fill="white" fill-opacity="0.2"/>
<path id="Vector_48" d="M512.786 57.3393C513.34 57.0045 514.035 57.008 514.589 57.3478C515.14 57.6879 515.454 58.3076 515.404 58.9537C515.354 59.5999 514.95 60.1639 514.351 60.4154C513.516 60.7672 512.549 60.4137 512.138 59.6054C511.725 58.7969 512.009 57.8081 512.786 57.3393Z" fill="white" fill-opacity="0.2"/>
<path id="Vector_49" d="M548.836 69.5947C549.765 69.5185 550.586 70.1931 550.694 71.1192C550.8 72.0453 550.152 72.8893 549.232 73.027C548.607 73.1203 547.983 72.8658 547.599 72.363C547.218 71.8603 547.141 71.1895 547.396 70.6129C547.654 70.0365 548.206 69.646 548.836 69.5947Z" fill="white" fill-opacity="0.2"/>
<path id="Vector_50" d="M513.088 169.866C513.985 169.536 514.982 169.999 515.307 170.899C515.635 171.799 515.166 172.792 514.266 173.115C513.369 173.437 512.384 172.973 512.059 172.078C511.734 171.183 512.194 170.194 513.088 169.866Z" fill="white" fill-opacity="0.2"/>
<path id="Vector_51" d="M642.348 232.571C643.163 232.158 644.16 232.453 644.62 233.242C645.08 234.031 644.849 235.043 644.089 235.551C643.553 235.907 642.867 235.938 642.301 235.631C641.738 235.324 641.389 234.729 641.401 234.087C641.41 233.445 641.776 232.861 642.348 232.571Z" fill="white" fill-opacity="0.2"/>
<path id="Vector_52" d="M689.734 257.508C690.341 257.351 690.986 257.534 691.42 257.987C691.851 258.441 692.006 259.093 691.821 259.691C691.634 260.29 691.141 260.742 690.526 260.871C689.608 261.066 688.702 260.491 688.488 259.577C688.271 258.663 688.825 257.744 689.734 257.508Z" fill="white" fill-opacity="0.2"/>
<path id="Vector_53" d="M606.893 195.117C607.696 194.608 608.761 194.847 609.271 195.65C609.781 196.453 609.543 197.518 608.743 198.03C607.937 198.543 606.87 198.306 606.357 197.5C605.847 196.695 606.087 195.627 606.893 195.117Z" fill="white" fill-opacity="0.2"/>
<path id="Vector_54" d="M595.401 82.247C596.281 81.8797 597.292 82.2951 597.659 83.1749C598.025 84.0543 597.606 85.0646 596.726 85.4298C595.85 85.7948 594.841 85.3788 594.475 84.5008C594.108 83.6225 594.525 82.6138 595.401 82.247Z" fill="white" fill-opacity="0.2"/>
<path id="Vector_55" d="M701.112 270.188C701.933 269.746 702.959 270.038 703.422 270.848C703.888 271.658 703.624 272.69 702.827 273.177C702.29 273.504 701.622 273.515 701.077 273.205C700.531 272.895 700.197 272.314 700.203 271.686C700.212 271.059 700.558 270.486 701.112 270.188Z" fill="white" fill-opacity="0.2"/>
<path id="Vector_56" d="M348.268 32.1378C348.836 31.8919 349.496 31.9728 349.992 32.3492C350.487 32.7259 350.739 33.3398 350.654 33.9557C350.572 34.5717 350.162 35.0941 349.581 35.323C348.707 35.6695 347.714 35.2488 347.356 34.3785C346.995 33.5081 347.403 32.5102 348.268 32.1378Z" fill="white" fill-opacity="0.2"/>
<path id="Vector_57" d="M642.732 119.732C643.623 119.521 644.523 120.043 644.781 120.922C645.039 121.801 644.567 122.728 643.702 123.033C643.101 123.245 642.433 123.109 641.964 122.677C641.495 122.246 641.301 121.591 641.463 120.974C641.624 120.357 642.11 119.879 642.732 119.732Z" fill="white" fill-opacity="0.2"/>
<path id="Vector_58" d="M524.756 32.1418C525.324 31.8935 525.987 31.973 526.482 32.3497C526.978 32.7261 527.23 33.3411 527.145 33.9576C527.057 34.5742 526.644 35.0957 526.063 35.3211C525.192 35.6606 524.207 35.2393 523.85 34.3733C523.495 33.5076 523.897 32.5156 524.756 32.1418Z" fill="white" fill-opacity="0.2"/>
<path id="Vector_59" d="M618.936 44.6558C619.819 44.3131 620.812 44.7502 621.158 45.6327C621.504 46.5154 621.07 47.5106 620.188 47.858C619.303 48.2069 618.303 47.7704 617.957 46.8844C617.611 45.9988 618.048 45 618.936 44.6558Z" fill="white" fill-opacity="0.2"/>
<path id="Vector_60" d="M219.229 119.72C220.128 119.55 221.002 120.115 221.217 121.004C221.433 121.893 220.915 122.795 220.038 123.056C219.429 123.238 218.77 123.069 218.323 122.616C217.877 122.164 217.716 121.503 217.906 120.896C218.096 120.29 218.604 119.837 219.229 119.72Z" fill="white" fill-opacity="0.2"/>
<path id="Vector_61" d="M489.89 69.6134C490.79 69.4776 491.64 70.0686 491.825 70.9601C492.013 71.8513 491.47 72.7326 490.591 72.9683C489.975 73.1328 489.322 72.944 488.888 72.4775C488.454 72.0114 488.316 71.3439 488.527 70.7435C488.735 70.1431 489.26 69.7081 489.89 69.6134Z" fill="white" fill-opacity="0.2"/>
<path id="Vector_62" d="M665.959 182.477C666.545 182.224 667.225 182.32 667.721 182.726C668.213 183.132 668.439 183.78 668.307 184.405C668.172 185.03 667.703 185.529 667.085 185.697C666.22 185.934 665.317 185.46 665.021 184.612C664.725 183.765 665.135 182.832 665.959 182.477Z" fill="white" fill-opacity="0.2"/>
<path id="Vector_63" d="M595.349 232.57C596.164 232.195 597.131 232.516 597.562 233.305C597.99 234.093 597.738 235.08 596.978 235.563C596.442 235.906 595.756 235.921 595.205 235.601C594.651 235.28 594.322 234.679 594.355 234.041C594.384 233.404 594.768 232.836 595.349 232.57Z" fill="white" fill-opacity="0.2"/>
<path id="Vector_64" d="M536.277 245.234C536.793 244.89 537.452 244.852 538.007 245.136C538.558 245.42 538.912 245.981 538.93 246.601C538.951 247.221 538.634 247.803 538.1 248.121C537.306 248.597 536.274 248.352 535.779 247.568C535.283 246.784 535.506 245.749 536.277 245.234Z" fill="white" fill-opacity="0.2"/>
<path id="Vector_65" d="M607.18 44.6789C608.054 44.3268 609.051 44.7487 609.403 45.6223C609.757 46.4956 609.335 47.4906 608.464 47.8453C607.588 48.2009 606.591 47.7794 606.236 46.904C605.882 46.0286 606.307 45.0319 607.18 44.6789Z" fill="white" fill-opacity="0.2"/>
<path id="Vector_66" d="M560.451 119.735C561.058 119.626 561.676 119.856 562.066 120.335C562.456 120.814 562.556 121.467 562.324 122.04C562.093 122.613 561.571 123.015 560.955 123.091C560.043 123.203 559.208 122.569 559.07 121.66C558.932 120.75 559.545 119.897 560.451 119.735Z" fill="white" fill-opacity="0.2"/>
<path id="Vector_67" d="M265.914 332.906C266.43 332.657 267.039 332.71 267.507 333.038C267.974 333.369 268.227 333.926 268.168 334.495C268.109 335.064 267.746 335.556 267.221 335.782C266.43 336.122 265.513 335.767 265.157 334.985C264.801 334.202 265.137 333.276 265.914 332.906Z" fill="white" fill-opacity="0.2"/>
<path id="Vector_68" d="M618.98 144.999C619.769 144.681 620.666 145.043 621.012 145.818C621.361 146.592 621.032 147.502 620.273 147.879C619.754 148.136 619.136 148.088 618.664 147.755C618.189 147.422 617.936 146.857 618.001 146.282C618.068 145.707 618.444 145.215 618.98 144.999Z" fill="white" fill-opacity="0.2"/>
<path id="Vector_69" d="M89.5154 195.104C90.314 194.778 91.2269 195.154 91.5625 195.949C91.8985 196.744 91.5329 197.661 90.7423 198.006C90.2222 198.233 89.6203 198.163 89.1665 197.823C88.7127 197.483 88.4767 196.925 88.5488 196.362C88.6213 195.799 88.9903 195.319 89.5154 195.104Z" fill="white" fill-opacity="0.2"/>
<path id="Vector_70" d="M713.248 7.19239C714.058 6.95124 714.914 7.39142 715.186 8.19004C715.462 8.98864 715.054 9.8612 714.269 10.1676C713.729 10.3772 713.12 10.2751 712.68 9.90157C712.24 9.52808 712.038 8.94317 712.158 8.37778C712.275 7.81243 712.694 7.35741 713.248 7.19239Z" fill="white" fill-opacity="0.2"/>
<path id="Vector_71" d="M713.369 270.161C714.172 269.988 714.972 270.462 715.207 271.248C715.441 272.034 715.031 272.869 714.266 273.164C713.715 273.376 713.09 273.261 712.65 272.867C712.211 272.472 712.029 271.864 712.181 271.293C712.334 270.723 712.791 270.285 713.369 270.161Z" fill="white" fill-opacity="0.2"/>
<path id="Vector_72" d="M289.777 270.171C290.593 269.975 291.418 270.455 291.652 271.26C291.886 272.066 291.446 272.913 290.653 273.186C290.105 273.373 289.498 273.245 289.074 272.85C288.649 272.456 288.476 271.86 288.623 271.3C288.77 270.739 289.214 270.306 289.777 270.171Z" fill="white" fill-opacity="0.2"/>
<path id="Vector_73" d="M642.286 82.5097C642.764 82.2069 643.371 82.1864 643.869 82.4564C644.368 82.7264 644.681 83.245 644.69 83.8122C644.699 84.3795 644.403 84.9072 643.913 85.1924C643.172 85.6228 642.225 85.3815 641.782 84.6501C641.336 83.9186 641.562 82.9665 642.286 82.5097Z" fill="white" fill-opacity="0.2"/>
<path id="Vector_74" d="M501.646 94.845C502.417 94.7034 503.173 95.1549 503.414 95.9004C503.654 96.6456 503.305 97.4541 502.599 97.7904C502.05 98.051 501.4 97.9701 500.934 97.5837C500.464 97.197 500.262 96.5743 500.418 95.9871C500.57 95.3999 501.048 94.9543 501.646 94.845Z" fill="white" fill-opacity="0.2"/>
<path id="Vector_75" d="M230.706 19.7952C231.508 19.4657 232.425 19.8533 232.747 20.6582C233.07 21.4632 232.674 22.3766 231.866 22.6921C231.068 23.0037 230.169 22.614 229.85 21.8189C229.532 21.0239 229.913 20.1207 230.706 19.7952Z" fill="white" fill-opacity="0.2"/>
<path id="Vector_76" d="M430.716 195.116C431.493 194.805 432.378 195.163 432.718 195.928C433.061 196.692 432.739 197.59 431.988 197.962C431.475 198.217 430.865 198.17 430.396 197.84C429.93 197.511 429.678 196.952 429.746 196.383C429.813 195.815 430.185 195.329 430.716 195.116Z" fill="white" fill-opacity="0.2"/>
<path id="Vector_77" d="M619.103 107.416C619.64 107.243 620.226 107.373 620.639 107.757C621.056 108.141 621.229 108.718 621.097 109.266C620.965 109.815 620.546 110.249 620.003 110.402C619.185 110.632 618.332 110.165 618.086 109.351C617.843 108.537 618.291 107.677 619.103 107.416Z" fill="white" fill-opacity="0.2"/>
<path id="Vector_78" d="M571.729 207.723C572.476 207.292 573.432 207.553 573.86 208.304C574.285 209.055 574.021 210.01 573.268 210.433C572.52 210.853 571.573 210.59 571.148 209.844C570.726 209.098 570.984 208.15 571.729 207.723Z" fill="white" fill-opacity="0.2"/>
<path id="Vector_79" d="M689.887 270.169C690.666 270.012 691.44 270.47 691.681 271.23C691.918 271.99 691.546 272.808 690.816 273.126C690.268 273.364 689.635 273.269 689.18 272.881C688.729 272.493 688.535 271.881 688.685 271.304C688.834 270.727 689.303 270.287 689.887 270.169Z" fill="white" fill-opacity="0.2"/>
<path id="Vector_80" d="M419.001 145.008C419.781 144.709 420.661 145.08 420.992 145.849C421.32 146.618 420.986 147.51 420.23 147.87C419.714 148.116 419.104 148.06 418.644 147.724C418.18 147.388 417.94 146.826 418.013 146.26C418.09 145.693 418.468 145.213 419.001 145.008Z" fill="white" fill-opacity="0.2"/>
<path id="Vector_81" d="M231.07 94.8405C231.63 94.7558 232.192 94.9824 232.537 95.4315C232.883 95.8807 232.957 96.4819 232.731 97.0017C232.505 97.5212 232.015 97.8774 231.451 97.9313C230.611 98.0119 229.859 97.4089 229.756 96.5713C229.653 95.7338 230.236 94.9663 231.07 94.8405Z" fill="white" fill-opacity="0.2"/>
<path id="Vector_82" d="M477.542 257.838C478.017 257.539 478.615 257.519 479.111 257.785C479.603 258.051 479.917 258.562 479.929 259.123C479.94 259.684 479.65 260.208 479.169 260.495C478.436 260.931 477.487 260.697 477.041 259.97C476.598 259.243 476.818 258.292 477.542 257.838Z" fill="white" fill-opacity="0.2"/>
<path id="Vector_83" d="M678.022 320.28C678.829 320.069 679.658 320.532 679.902 321.329C680.145 322.127 679.717 322.974 678.931 323.253C678.392 323.443 677.794 323.323 677.369 322.939C676.947 322.555 676.768 321.969 676.903 321.414C677.04 320.857 677.471 320.424 678.022 320.28Z" fill="white" fill-opacity="0.2"/>
<path id="Vector_84" d="M454.054 207.736C454.559 207.432 455.189 207.437 455.687 207.751C456.186 208.065 456.464 208.633 456.406 209.219C456.35 209.805 455.966 210.308 455.418 210.519C454.664 210.808 453.817 210.475 453.462 209.751C453.108 209.028 453.365 208.153 454.054 207.736Z" fill="white" fill-opacity="0.2"/>
<path id="Vector_85" d="M466.135 157.53C466.672 157.35 467.264 157.476 467.683 157.859C468.1 158.243 468.276 158.824 468.141 159.375C468.006 159.925 467.581 160.359 467.033 160.506C466.223 160.724 465.385 160.259 465.142 159.454C464.898 158.65 465.338 157.798 466.135 157.53Z" fill="white" fill-opacity="0.2"/>
<path id="Vector_86" d="M595.592 7.20596C596.134 7.04358 596.72 7.18664 597.125 7.57977C597.53 7.97287 597.688 8.55435 597.541 9.09913C597.395 9.64393 596.964 10.0665 596.418 10.2034C595.598 10.4083 594.765 9.92167 594.542 9.10742C594.317 8.29317 594.786 7.44899 595.592 7.20596Z" fill="white" fill-opacity="0.2"/>
<path id="Vector_87" d="M465.848 170.168C466.59 169.737 467.54 169.987 467.971 170.726C468.405 171.466 468.158 172.416 467.42 172.851C466.678 173.288 465.722 173.04 465.288 172.298C464.854 171.555 465.104 170.6 465.848 170.168Z" fill="white" fill-opacity="0.2"/>
<path id="Vector_88" d="M536.38 257.838C537.107 257.378 538.065 257.593 538.525 258.319C538.986 259.043 538.772 260.004 538.045 260.464C537.321 260.924 536.359 260.709 535.899 259.983C535.438 259.258 535.655 258.297 536.38 257.838Z" fill="white" fill-opacity="0.2"/>
<path id="Vector_89" d="M677.468 232.916C678.143 232.401 679.104 232.521 679.632 233.185C680.157 233.849 680.054 234.812 679.4 235.351C678.966 235.708 678.374 235.802 677.849 235.599C677.325 235.395 676.952 234.925 676.873 234.369C676.794 233.812 677.023 233.257 677.468 232.916Z" fill="white" fill-opacity="0.2"/>
<path id="Vector_90" d="M677.527 45.0036C678.21 44.5293 679.148 44.6788 679.65 45.3428C680.154 46.0065 680.042 46.949 679.4 47.4791C678.961 47.842 678.357 47.9346 677.826 47.7203C677.298 47.506 676.929 47.0191 676.867 46.4518C676.803 45.8849 677.058 45.3287 677.527 45.0036Z" fill="white" fill-opacity="0.2"/>
<path id="Vector_91" d="M560.445 220.082C561.251 219.913 562.051 220.404 562.263 221.2C562.477 221.997 562.031 222.821 561.248 223.078C560.7 223.257 560.099 223.12 559.686 222.72C559.269 222.321 559.111 221.725 559.269 221.172C559.431 220.619 559.882 220.2 560.445 220.082Z" fill="white" fill-opacity="0.2"/>
<path id="Vector_92" d="M406.982 170.191C407.465 169.895 408.075 169.886 408.568 170.169C409.057 170.453 409.356 170.983 409.345 171.551C409.33 172.119 409.007 172.634 408.5 172.893C407.759 173.274 406.85 173.001 406.439 172.274C406.032 171.547 406.272 170.627 406.982 170.191Z" fill="white" fill-opacity="0.2"/>
<path id="Vector_93" d="M206.911 82.5442C207.627 82.0666 208.595 82.2636 209.067 82.9831C209.54 83.7028 209.336 84.6693 208.613 85.1363C207.897 85.5983 206.943 85.3967 206.476 84.6846C206.008 83.9725 206.203 83.0168 206.911 82.5442Z" fill="white" fill-opacity="0.2"/>
<path id="Vector_94" d="M595.39 32.3341C596.161 31.9785 597.072 32.3101 597.436 33.0773C597.799 33.8448 597.474 34.7609 596.712 35.1303C595.938 35.5044 595.006 35.1757 594.639 34.3988C594.273 33.6217 594.61 32.6944 595.39 32.3341Z" fill="white" fill-opacity="0.2"/>
<path id="Vector_95" d="M689.602 245.22C690.321 244.919 691.15 245.199 691.54 245.875C691.927 246.55 691.751 247.408 691.13 247.877C690.652 248.236 690.01 248.288 689.482 248.009C688.951 247.731 688.632 247.173 688.658 246.576C688.685 245.979 689.051 245.451 689.602 245.22Z" fill="white" fill-opacity="0.2"/>
<path id="Vector_96" d="M512.748 232.946C513.182 232.6 513.768 232.513 514.284 232.72C514.8 232.927 515.164 233.395 515.24 233.946C515.313 234.496 515.084 235.044 514.642 235.38C513.97 235.891 513.012 235.766 512.493 235.099C511.974 234.433 512.088 233.474 512.748 232.946Z" fill="white" fill-opacity="0.2"/>
<path id="Vector_97" d="M666.179 57.3171C666.991 57.0629 667.856 57.5176 668.108 58.3317C668.363 59.1458 667.906 60.0104 667.091 60.2613C666.279 60.5117 665.417 60.057 665.165 59.2449C664.912 58.4332 665.367 57.5704 666.179 57.3171Z" fill="white" fill-opacity="0.2"/>
<path id="Vector_98" d="M559.797 232.942C560.442 232.429 561.374 232.513 561.917 233.132C562.456 233.752 562.415 234.688 561.82 235.257C561.409 235.648 560.82 235.783 560.281 235.608C559.744 235.433 559.346 234.976 559.243 234.419C559.143 233.862 559.354 233.295 559.797 232.942Z" fill="white" fill-opacity="0.2"/>
<path id="Vector_99" d="M665.827 257.849C666.299 257.556 666.891 257.54 667.378 257.807C667.864 258.074 668.166 258.583 668.172 259.138C668.178 259.693 667.885 260.208 667.404 260.485C666.677 260.904 665.751 260.663 665.32 259.943C664.889 259.224 665.115 258.292 665.827 257.849Z" fill="white" fill-opacity="0.2"/>
<path id="Vector_100" d="M383.488 170.189C384.212 169.767 385.141 170.003 385.575 170.72C386.009 171.437 385.789 172.37 385.08 172.817C384.611 173.112 384.019 173.131 383.529 172.867C383.042 172.602 382.735 172.095 382.726 171.54C382.717 170.985 383.01 170.468 383.488 170.189Z" fill="white" fill-opacity="0.2"/>
<path id="Vector_101" d="M525.113 170.166C525.829 169.989 526.559 170.4 526.776 171.104C526.995 171.808 526.626 172.56 525.934 172.817C525.451 172.996 524.908 172.894 524.524 172.551C524.14 172.208 523.979 171.681 524.102 171.181C524.225 170.681 524.615 170.291 525.113 170.166Z" fill="white" fill-opacity="0.2"/>
<path id="Vector_102" d="M101.25 182.782C101.889 182.456 102.671 182.67 103.055 183.276C103.438 183.883 103.297 184.681 102.728 185.119C102.311 185.44 101.748 185.497 101.275 185.267C100.801 185.037 100.499 184.559 100.494 184.032C100.488 183.506 100.782 183.022 101.25 182.782Z" fill="white" fill-opacity="0.2"/>
<path id="Vector_103" d="M77.6926 182.78C78.3665 182.443 79.1862 182.707 79.538 183.374C79.8895 184.04 79.6441 184.865 78.9854 185.232C78.5462 185.476 78.0095 185.463 77.582 185.198C77.1549 184.934 76.9045 184.459 76.9274 183.957C76.9503 183.455 77.2429 183.005 77.6926 182.78Z" fill="white" fill-opacity="0.2"/>
<path id="Vector_104" d="M595.598 257.843C596.076 257.677 596.603 257.783 596.981 258.12C597.357 258.457 597.518 258.972 597.404 259.463C597.292 259.955 596.92 260.346 596.433 260.484C595.712 260.69 594.959 260.284 594.733 259.569C594.507 258.854 594.891 258.089 595.598 257.843Z" fill="white" fill-opacity="0.2"/>
<path id="Vector_105" d="M136.901 69.9255C137.613 69.7833 138.314 70.2154 138.507 70.9154C138.7 71.6155 138.319 72.3458 137.635 72.5885C137.146 72.7621 136.601 72.6477 136.223 72.2927C135.845 71.9374 135.697 71.4009 135.84 70.9025C135.983 70.4039 136.392 70.0269 136.901 69.9255Z" fill="white" fill-opacity="0.2"/>
<path id="Vector_106" d="M524.741 320.588C525.38 320.206 526.207 320.397 526.611 321.021C527.019 321.646 526.858 322.481 526.248 322.909C525.832 323.2 525.292 323.244 524.838 323.018C524.383 322.792 524.087 322.338 524.067 321.831C524.046 321.323 524.304 320.849 524.741 320.588Z" fill="white" fill-opacity="0.2"/>
<path id="Vector_107" d="M454.521 120.059C455.23 119.883 455.954 120.287 456.174 120.983C456.397 121.678 456.039 122.426 455.359 122.692C454.878 122.879 454.333 122.784 453.946 122.445C453.556 122.106 453.389 121.579 453.509 121.078C453.632 120.576 454.022 120.184 454.521 120.059Z" fill="white" fill-opacity="0.2"/>
<path id="Vector_108" d="M66.2637 170.17C66.9928 169.997 67.7272 170.436 67.9201 171.16C68.113 171.885 67.6943 172.631 66.9758 172.843C66.4933 172.986 65.9709 172.856 65.612 172.502C65.2532 172.149 65.1145 171.629 65.2503 171.144C65.3857 170.659 65.7739 170.286 66.2637 170.17Z" fill="white" fill-opacity="0.2"/>
<path id="Vector_109" d="M66.05 44.9963C66.5205 44.7998 67.0608 44.8787 67.456 45.2009C67.8512 45.5234 68.0368 46.037 67.9391 46.5374C67.8412 47.0378 67.476 47.4438 66.9887 47.5937C66.2837 47.8106 65.5326 47.4359 65.2819 46.7423C65.031 46.0484 65.369 45.28 66.05 44.9963Z" fill="white" fill-opacity="0.2"/>
<path id="Vector_110" d="M30.6495 182.782C31.101 182.554 31.6407 182.591 32.0573 182.878C32.4736 183.165 32.7002 183.656 32.6477 184.159C32.5952 184.662 32.2722 185.096 31.8055 185.291C31.1189 185.578 30.3285 185.27 30.0172 184.594C29.7059 183.918 29.9852 183.117 30.6495 182.782Z" fill="white" fill-opacity="0.2"/>
<path id="Vector_111" d="M77.9901 220.291C78.7195 220.115 79.4559 220.553 79.6488 221.279C79.8414 222.004 79.4202 222.75 78.6999 222.96C78.2185 223.1 77.699 222.968 77.3425 222.616C76.986 222.264 76.8483 221.746 76.9828 221.263C77.1174 220.78 77.5029 220.408 77.9901 220.291Z" fill="white" fill-opacity="0.2"/>
<path id="Vector_112" d="M395.663 170.174C396.155 170.056 396.674 170.216 397.011 170.593C397.351 170.97 397.457 171.502 397.287 171.979C397.117 172.457 396.701 172.804 396.199 172.882C395.469 172.996 394.775 172.513 394.631 171.786C394.487 171.059 394.942 170.348 395.663 170.174Z" fill="white" fill-opacity="0.2"/>
<path id="Vector_113" d="M101.442 207.733C101.917 207.574 102.442 207.684 102.812 208.022C103.183 208.359 103.341 208.871 103.226 209.359C103.112 209.847 102.741 210.234 102.259 210.371C101.538 210.576 100.784 210.168 100.563 209.451C100.341 208.735 100.731 207.972 101.442 207.733Z" fill="white" fill-opacity="0.2"/>
<path id="Vector_114" d="M501.288 182.779C501.957 182.449 502.766 182.709 503.118 183.366C503.469 184.024 503.235 184.842 502.587 185.214C502.15 185.465 501.614 185.459 501.183 185.197C500.752 184.935 500.497 184.46 500.52 183.957C500.541 183.453 500.837 183.002 501.288 182.779Z" fill="white" fill-opacity="0.2"/>
<path id="Vector_115" d="M101.231 232.915C101.869 232.575 102.662 232.785 103.048 233.396C103.434 234.007 103.282 234.813 102.701 235.243C102.285 235.55 101.732 235.599 101.268 235.369C100.805 235.14 100.509 234.671 100.501 234.154C100.493 233.637 100.775 233.158 101.231 232.915Z" fill="white" fill-opacity="0.2"/>
<path id="Vector_116" d="M112.829 245.522C113.246 245.236 113.786 245.202 114.236 245.432C114.686 245.662 114.974 246.12 114.987 246.625C115.001 247.13 114.737 247.602 114.299 247.855C113.657 248.227 112.836 248.024 112.44 247.397C112.045 246.769 112.217 245.94 112.829 245.522Z" fill="white" fill-opacity="0.2"/>
<path id="Vector_117" d="M465.957 182.802C466.599 182.453 467.402 182.665 467.786 183.286C468.173 183.907 468.009 184.721 467.411 185.142C466.992 185.437 466.443 185.476 465.989 185.244C465.532 185.011 465.241 184.545 465.235 184.033C465.23 183.521 465.505 183.047 465.957 182.802Z" fill="white" fill-opacity="0.2"/>
<path id="Vector_118" d="M571.828 320.567C572.28 320.324 572.828 320.353 573.253 320.64C573.678 320.928 573.907 321.426 573.851 321.936C573.795 322.443 573.461 322.88 572.983 323.068C572.303 323.337 571.532 323.027 571.224 322.361C570.92 321.699 571.183 320.91 571.828 320.567Z" fill="white" fill-opacity="0.2"/>
<path id="Vector_119" d="M148.368 95.1174C149.035 94.828 149.812 95.1062 150.144 95.7526C150.476 96.3993 150.25 97.1926 149.626 97.5664C149.185 97.8308 148.633 97.8276 148.195 97.5585C147.756 97.2891 147.504 96.7983 147.541 96.2853C147.577 95.772 147.896 95.322 148.368 95.1174Z" fill="white" fill-opacity="0.2"/>
<path id="Vector_120" d="M395.138 32.6785C395.554 32.3528 396.12 32.2936 396.595 32.5261C397.07 32.7589 397.369 33.242 397.366 33.7706C397.366 34.2991 397.061 34.7799 396.586 35.0086C395.95 35.3132 395.188 35.0909 394.816 34.4926C394.443 33.8943 394.584 33.1121 395.138 32.6785Z" fill="white" fill-opacity="0.2"/>
<path id="Vector_121" d="M42.4431 132.655C42.8972 132.447 43.4284 132.5 43.8318 132.795C44.2354 133.089 44.448 133.579 44.3879 134.075C44.3278 134.571 44.0041 134.995 43.5421 135.185C42.8473 135.47 42.0523 135.147 41.753 134.458C41.4539 133.769 41.7606 132.968 42.4431 132.655Z" fill="white" fill-opacity="0.2"/>
<path id="Vector_122" d="M125.204 120.045C125.902 119.937 126.569 120.375 126.748 121.058C126.928 121.742 126.562 122.45 125.9 122.699C125.407 122.884 124.852 122.773 124.469 122.411C124.086 122.05 123.942 121.502 124.098 120.999C124.254 120.496 124.683 120.126 125.204 120.045Z" fill="white" fill-opacity="0.2"/>
<path id="Vector_123" d="M125.182 220.282C125.888 220.155 126.573 220.589 126.759 221.281C126.945 221.973 126.569 222.692 125.895 222.936C125.406 223.112 124.859 222.998 124.481 222.641C124.102 222.284 123.958 221.744 124.106 221.245C124.254 220.747 124.671 220.374 125.182 220.282Z" fill="white" fill-opacity="0.2"/>
<path id="Vector_124" d="M124.754 132.695C125.385 132.346 126.178 132.54 126.575 133.142C126.972 133.743 126.838 134.549 126.268 134.991C125.859 135.308 125.307 135.369 124.838 135.149C124.369 134.929 124.063 134.466 124.046 133.948C124.028 133.43 124.302 132.947 124.754 132.695Z" fill="white" fill-opacity="0.2"/>
<path id="Vector_125" d="M265.903 320.599C266.54 320.212 267.369 320.403 267.775 321.027C268.18 321.652 268.015 322.487 267.401 322.912C266.988 323.197 266.452 323.235 266.003 323.012C265.553 322.786 265.261 322.335 265.241 321.833C265.22 321.332 265.474 320.857 265.903 320.599Z" fill="white" fill-opacity="0.2"/>
<path id="Vector_126" d="M18.9909 45.0056C19.4756 44.7925 20.0394 44.8763 20.4412 45.2211C20.843 45.5658 21.0115 46.1105 20.8746 46.6218C20.7377 47.1334 20.3198 47.5209 19.7995 47.6188C19.1118 47.7484 18.4364 47.3415 18.2295 46.6728C18.0227 46.0044 18.3503 45.287 18.9909 45.0056Z" fill="white" fill-opacity="0.2"/>
<path id="Vector_127" d="M148.283 7.45779C148.944 7.11837 149.754 7.36334 150.116 8.01166C150.478 8.66001 150.26 9.47837 149.625 9.86197C149.194 10.122 148.656 10.1263 148.221 9.87325C147.786 9.62017 147.523 9.14997 147.536 8.64688C147.549 8.14376 147.836 7.68787 148.283 7.45779Z" fill="white" fill-opacity="0.2"/>
<path id="Vector_128" d="M442.434 182.809C443.073 182.453 443.879 182.659 444.269 183.277C444.659 183.895 444.497 184.71 443.902 185.134C443.486 185.429 442.941 185.471 442.486 185.242C442.029 185.013 441.739 184.551 441.727 184.041C441.718 183.531 441.988 183.057 442.434 182.809Z" fill="white" fill-opacity="0.2"/>
<path id="Vector_129" d="M30.3602 32.7264C30.7345 32.3989 31.2567 32.2992 31.7254 32.4652C32.1945 32.6308 32.5375 33.0368 32.6228 33.5267C32.7084 34.0169 32.5228 34.5149 32.1376 34.8295C31.5557 35.3053 30.6997 35.2264 30.2145 34.6521C29.7293 34.0781 29.7941 33.2209 30.3602 32.7264Z" fill="white" fill-opacity="0.2"/>
<path id="Vector_130" d="M42.3809 7.46005C42.8303 7.22666 43.3718 7.25894 43.7904 7.5441C44.209 7.82922 44.4374 8.32118 44.3849 8.82497C44.3325 9.32877 44.0073 9.76305 43.5389 9.95575C42.8576 10.236 42.0763 9.93021 41.7661 9.2619C41.456 8.59355 41.7269 7.7995 42.3809 7.46005Z" fill="white" fill-opacity="0.2"/>
<path id="Vector_131" d="M536.784 207.73C537.511 207.502 538.285 207.91 538.511 208.64C538.734 209.369 538.32 210.141 537.59 210.362C536.866 210.581 536.101 210.172 535.878 209.448C535.655 208.724 536.06 207.956 536.784 207.73Z" fill="white" fill-opacity="0.2"/>
<path id="Vector_132" d="M89.2246 32.7273C89.7968 32.2307 90.6628 32.2899 91.1621 32.8601C91.6613 33.43 91.6059 34.2966 91.0381 34.7981C90.4667 35.3033 89.5937 35.2473 89.0912 34.6736C88.5887 34.1001 88.6485 33.2271 89.2246 32.7273Z" fill="white" fill-opacity="0.2"/>
<path id="Vector_133" d="M289.449 283.045C290.091 282.69 290.898 282.901 291.283 283.525C291.669 284.148 291.498 284.965 290.895 285.381C290.477 285.669 289.934 285.704 289.483 285.471C289.032 285.238 288.746 284.776 288.739 284.268C288.731 283.761 289.004 283.29 289.449 283.045Z" fill="white" fill-opacity="0.2"/>
<path id="Vector_134" d="M18.8556 7.4807C19.5031 7.11015 20.3279 7.32331 20.7146 7.96116C21.1014 8.59905 20.9091 9.42895 20.2812 9.83172C19.8607 10.1014 19.327 10.1219 18.8871 9.88517C18.4472 9.64841 18.1703 9.19173 18.1637 8.69218C18.1572 8.19267 18.4221 7.72886 18.8556 7.4807Z" fill="white" fill-opacity="0.2"/>
<path id="Vector_135" d="M89.4688 182.809C90.1067 182.459 90.9073 182.667 91.2946 183.283C91.6816 183.9 91.5215 184.711 90.929 185.134C90.5133 185.431 89.9675 185.473 89.5113 185.243C89.0551 185.013 88.764 184.549 88.7549 184.039C88.7461 183.528 89.0208 183.055 89.4688 182.809Z" fill="white" fill-opacity="0.2"/>
<path id="Vector_136" d="M89.3304 245.55C89.7426 245.254 90.2846 245.209 90.7402 245.433C91.1958 245.658 91.4907 246.115 91.5068 246.622C91.5232 247.13 91.2585 247.605 90.8182 247.858C90.1835 248.223 89.3741 248.027 88.9774 247.411C88.5808 246.796 88.7359 245.978 89.3304 245.55Z" fill="white" fill-opacity="0.2"/>
<path id="Vector_137" d="M336.905 345.503C337.611 345.336 338.324 345.75 338.532 346.447C338.74 347.142 338.374 347.878 337.691 348.13C337.213 348.306 336.673 348.203 336.295 347.86C335.914 347.517 335.759 346.99 335.885 346.497C336.014 346.002 336.407 345.618 336.905 345.503Z" fill="white" fill-opacity="0.2"/>
<path id="Vector_138" d="M89.309 157.906C89.7212 157.596 90.2717 157.544 90.7352 157.769C91.1984 157.995 91.4963 158.461 91.5068 158.976C91.5171 159.492 91.2383 159.97 90.7845 160.214C90.1516 160.554 89.3632 160.35 88.9763 159.744C88.5893 159.138 88.7341 158.337 89.309 157.906Z" fill="white" fill-opacity="0.2"/>
<path id="Vector_139" d="M89.8132 120.069C90.5113 119.904 91.2184 120.304 91.4368 120.987C91.6552 121.67 91.3113 122.406 90.647 122.677C90.1691 122.872 89.6224 122.782 89.2316 122.445C88.8408 122.108 88.6723 121.58 88.7948 121.079C88.9173 120.577 89.3108 120.187 89.8132 120.069Z" fill="white" fill-opacity="0.2"/>
<path id="Vector_140" d="M30.4666 157.884C30.8835 157.587 31.432 157.547 31.8878 157.781C32.3437 158.015 32.631 158.483 32.6325 158.996C32.6339 159.508 32.3493 159.979 31.8949 160.215C31.2567 160.547 30.4704 160.329 30.0946 159.715C29.7188 159.102 29.8812 158.303 30.4666 157.884Z" fill="white" fill-opacity="0.2"/>
<path id="Vector_141" d="M172.055 107.736C172.478 107.589 172.947 107.682 173.281 107.979C173.615 108.277 173.761 108.733 173.662 109.169C173.564 109.606 173.236 109.954 172.806 110.079C172.166 110.266 171.494 109.908 171.29 109.273C171.087 108.638 171.426 107.957 172.055 107.736Z" fill="white" fill-opacity="0.2"/>
<path id="Vector_142" d="M630.935 57.6314C631.351 57.4839 631.818 57.5727 632.149 57.8638C632.483 58.1552 632.633 58.6035 632.542 59.0362C632.451 59.4692 632.134 59.8198 631.712 59.9529C631.076 60.154 630.396 59.8072 630.182 59.174C629.971 58.5405 630.305 57.8542 630.935 57.6314Z" fill="white" fill-opacity="0.2"/>
<path id="Vector_143" d="M383.497 45.3142C384.007 44.912 384.746 44.9806 385.174 45.4699C385.602 45.9592 385.572 46.6983 385.106 47.1521C384.781 47.4675 384.309 47.5783 383.881 47.4402C383.45 47.3019 383.13 46.9372 383.048 46.4922C382.969 46.0468 383.142 45.5936 383.497 45.3142Z" fill="white" fill-opacity="0.2"/>
<path id="Vector_144" d="M524.674 95.4264C525.025 95.1441 525.506 95.0782 525.92 95.2555C526.336 95.4326 526.617 95.8237 526.658 96.2731C526.696 96.7225 526.485 97.157 526.107 97.4035C525.562 97.76 524.832 97.6251 524.451 97.0975C524.067 96.5698 524.166 95.8345 524.674 95.4264Z" fill="white" fill-opacity="0.2"/>
<path id="Vector_145" d="M430.854 107.762C431.267 107.599 431.739 107.675 432.082 107.96C432.425 108.246 432.586 108.696 432.498 109.134C432.413 109.572 432.097 109.929 431.672 110.064C431.041 110.264 430.37 109.929 430.15 109.308C429.927 108.688 430.238 108.003 430.854 107.762Z" fill="white" fill-opacity="0.2"/>
<path id="Vector_146" d="M524.937 245.534C525.53 245.267 526.224 245.506 526.526 246.08C526.825 246.654 526.626 247.363 526.069 247.696C525.682 247.928 525.195 247.927 524.808 247.691C524.422 247.456 524.196 247.026 524.222 246.574C524.251 246.122 524.527 245.722 524.937 245.534Z" fill="white" fill-opacity="0.2"/>
<path id="Vector_147" d="M254.194 120.344C254.768 120.006 255.507 120.193 255.853 120.763C256.199 121.332 256.024 122.074 255.46 122.428C255.087 122.663 254.617 122.678 254.23 122.468C253.843 122.259 253.599 121.857 253.591 121.417C253.584 120.977 253.814 120.566 254.194 120.344Z" fill="white" fill-opacity="0.2"/>
<path id="Vector_148" d="M489.879 320.611C490.5 320.47 491.124 320.831 491.312 321.438C491.503 322.044 491.192 322.695 490.6 322.93C490.175 323.1 489.691 323.015 489.348 322.713C489.005 322.414 488.858 321.945 488.97 321.499C489.081 321.057 489.433 320.714 489.879 320.611Z" fill="white" fill-opacity="0.2"/>
<path id="Vector_149" d="M195.358 120.377C195.88 120.039 196.572 120.148 196.965 120.63C197.357 121.112 197.323 121.812 196.886 122.254C196.558 122.585 196.07 122.7 195.629 122.55C195.187 122.399 194.871 122.01 194.813 121.548C194.756 121.085 194.968 120.631 195.358 120.377Z" fill="white" fill-opacity="0.2"/>
<path id="Vector_150" d="M595.495 70.2042C596.07 69.916 596.77 70.1248 597.093 70.6809C597.415 71.237 597.251 71.9482 596.715 72.3041C596.339 72.5545 595.853 72.5753 595.457 72.358C595.061 72.1411 594.818 71.7216 594.827 71.2695C594.833 70.8175 595.091 70.4071 595.495 70.2042Z" fill="white" fill-opacity="0.2"/>
<path id="Vector_151" d="M348.423 295.64C348.836 295.441 349.326 295.493 349.69 295.772C350.05 296.05 350.226 296.511 350.141 296.962C350.056 297.414 349.725 297.777 349.285 297.903C348.678 298.082 348.036 297.762 347.81 297.17C347.585 296.578 347.851 295.913 348.423 295.64Z" fill="white" fill-opacity="0.2"/>
<path id="Vector_152" d="M595.305 95.4131C595.677 95.1299 596.175 95.0842 596.592 95.2955C597.008 95.5069 597.266 95.9379 597.257 96.4049C597.248 96.8716 596.973 97.2917 596.548 97.4854C595.985 97.7423 595.316 97.5353 595 97.0047C594.68 96.4738 594.812 95.7886 595.305 95.4131Z" fill="white" fill-opacity="0.2"/>
<path id="Vector_153" d="M348.655 20.0621C349.086 19.9554 349.537 20.0899 349.839 20.4134C350.138 20.7369 350.241 21.1983 350.103 21.6183C349.965 22.0383 349.613 22.3506 349.177 22.4339C348.532 22.5579 347.904 22.1448 347.764 21.5021C347.62 20.8595 348.019 20.221 348.655 20.0621Z" fill="white" fill-opacity="0.2"/>
<path id="Vector_154" d="M548.34 120.376C548.865 120.035 549.563 120.148 549.953 120.635C550.343 121.123 550.299 121.827 549.853 122.264C549.522 122.587 549.035 122.694 548.598 122.54C548.162 122.386 547.851 121.998 547.798 121.538C547.742 121.079 547.953 120.628 548.34 120.376Z" fill="white" fill-opacity="0.2"/>
<path id="Vector_155" d="M265.936 170.493C266.494 170.131 267.239 170.287 267.605 170.842C267.971 171.396 267.821 172.142 267.269 172.512C266.711 172.887 265.955 172.735 265.585 172.174C265.215 171.614 265.373 170.859 265.936 170.493Z" fill="white" fill-opacity="0.2"/>
<path id="Vector_156" d="M536.503 45.3029C536.86 45.0428 537.332 44.9988 537.731 45.1882C538.133 45.3776 538.396 45.7702 538.423 46.2119C538.446 46.6534 538.229 47.0738 537.854 47.3081C537.303 47.6528 536.576 47.498 536.212 46.9577C535.846 46.4177 535.975 45.686 536.503 45.3029Z" fill="white" fill-opacity="0.2"/>
<path id="Vector_157" d="M618.921 120.374C619.473 120.023 620.206 120.175 620.572 120.716C620.938 121.258 620.809 121.993 620.279 122.376C619.921 122.634 619.452 122.677 619.053 122.489C618.655 122.3 618.391 121.91 618.362 121.47C618.335 121.03 618.549 120.611 618.921 120.374Z" fill="white" fill-opacity="0.2"/>
<path id="Vector_158" d="M407.052 45.3282C407.577 44.9216 408.336 45.0181 408.744 45.544C409.151 46.0696 409.057 46.8266 408.533 47.2358C408.005 47.6465 407.246 47.5516 406.835 47.0239C406.425 46.4962 406.521 45.7363 407.052 45.3282Z" fill="white" fill-opacity="0.2"/>
<path id="Vector_159" d="M630.903 207.948C631.501 207.711 632.181 207.984 632.448 208.568C632.715 209.154 632.474 209.845 631.903 210.141C631.507 210.346 631.032 210.316 630.665 210.064C630.296 209.811 630.1 209.377 630.149 208.934C630.199 208.491 630.49 208.112 630.903 207.948Z" fill="white" fill-opacity="0.2"/>
<path id="Vector_160" d="M265.89 308.284C266.247 308.032 266.712 307.994 267.107 308.181C267.501 308.369 267.763 308.756 267.791 309.19C267.82 309.627 267.61 310.043 267.244 310.283C266.693 310.638 265.957 310.491 265.589 309.946C265.22 309.404 265.354 308.665 265.89 308.284Z" fill="white" fill-opacity="0.2"/>
<path id="Vector_161" d="M371.891 32.7065C372.462 32.3568 373.207 32.54 373.553 33.1146C373.899 33.6889 373.708 34.4344 373.131 34.7751C372.562 35.1116 371.826 34.9252 371.486 34.357C371.143 33.7892 371.325 33.0522 371.891 32.7065Z" fill="white" fill-opacity="0.2"/>
<path id="Vector_162" d="M254.025 283.325C254.394 283.01 254.915 282.947 255.349 283.164C255.783 283.382 256.044 283.838 256.012 284.322C255.98 284.806 255.661 285.223 255.202 285.382C254.655 285.571 254.05 285.344 253.762 284.841C253.474 284.339 253.585 283.702 254.025 283.325Z" fill="white" fill-opacity="0.2"/>
<path id="Vector_163" d="M254.52 20.0671C254.948 19.9625 255.4 20.1004 255.697 20.4265C255.994 20.7526 256.089 21.2149 255.944 21.6318C255.8 22.0486 255.44 22.3533 255.005 22.4262C254.365 22.5334 253.756 22.1154 253.625 21.4804C253.495 20.8454 253.89 20.2209 254.52 20.0671Z" fill="white" fill-opacity="0.2"/>
<path id="Vector_164" d="M630.745 82.7915C631.123 82.5743 631.586 82.5769 631.961 82.7982C632.337 83.0196 632.562 83.4253 632.553 83.8603C632.545 84.2951 632.301 84.6912 631.917 84.8972C631.337 85.2089 630.616 84.9972 630.293 84.4217C629.974 83.8466 630.176 83.1204 630.745 82.7915Z" fill="white" fill-opacity="0.2"/>
<path id="Vector_165" d="M383.813 157.842C384.379 157.61 385.033 157.843 385.323 158.382C385.616 158.921 385.458 159.594 384.954 159.944C384.573 160.207 384.077 160.23 383.676 160.003C383.274 159.777 383.037 159.34 383.066 158.88C383.095 158.42 383.385 158.016 383.813 157.842Z" fill="white" fill-opacity="0.2"/>
<path id="Vector_166" d="M442.343 95.4449C442.694 95.1661 443.172 95.1063 443.58 95.2895C443.99 95.473 444.263 95.8688 444.286 96.3164C444.313 96.7638 444.087 97.1883 443.703 97.417C443.158 97.7391 442.46 97.5858 442.099 97.0657C441.742 96.546 441.847 95.8374 442.343 95.4449Z" fill="white" fill-opacity="0.2"/>
<path id="Vector_167" d="M277.581 145.557C278.068 145.131 278.805 145.167 279.248 145.638C279.691 146.11 279.68 146.848 279.225 147.307C278.915 147.618 278.461 147.736 278.039 147.614C277.617 147.492 277.296 147.149 277.201 146.721C277.106 146.293 277.251 145.846 277.581 145.557Z" fill="white" fill-opacity="0.2"/>
<path id="Vector_168" d="M630.563 145.555C631.052 145.129 631.794 145.168 632.234 145.645C632.674 146.121 632.656 146.861 632.193 147.316C631.882 147.623 631.428 147.735 631.008 147.61C630.589 147.485 630.273 147.141 630.179 146.714C630.088 146.286 630.234 145.842 630.563 145.555Z" fill="white" fill-opacity="0.2"/>
<path id="Vector_169" d="M313.009 270.709C313.388 270.461 313.871 270.447 314.264 270.672C314.657 270.897 314.889 271.323 314.865 271.775C314.842 272.226 314.566 272.626 314.153 272.809C313.581 273.062 312.913 272.835 312.614 272.287C312.315 271.738 312.488 271.051 313.009 270.709Z" fill="white" fill-opacity="0.2"/>
<path id="Vector_170" d="M548.364 82.8251C548.733 82.5894 549.199 82.5729 549.583 82.782C549.967 82.991 550.208 83.3926 550.211 83.8297C550.211 84.2671 549.976 84.6705 549.592 84.8824C549.026 85.1964 548.314 85.0044 547.983 84.4486C547.651 83.8927 547.819 83.1742 548.364 82.8251Z" fill="white" fill-opacity="0.2"/>
<path id="Vector_171" d="M313.525 333.138C314.118 333.067 314.672 333.443 314.824 334.02C314.977 334.598 314.68 335.199 314.132 335.43C313.701 335.612 313.203 335.527 312.857 335.21C312.511 334.894 312.382 334.404 312.526 333.959C312.669 333.516 313.059 333.194 313.525 333.138Z" fill="white" fill-opacity="0.2"/>
<path id="Vector_172" d="M254.044 145.54C254.384 145.261 254.849 145.19 255.256 145.357C255.663 145.523 255.946 145.899 255.992 146.336C256.039 146.773 255.842 147.201 255.479 147.45C254.952 147.811 254.232 147.693 253.848 147.181C253.464 146.67 253.55 145.946 254.044 145.54Z" fill="white" fill-opacity="0.2"/>
<path id="Vector_173" d="M619.276 195.403C619.854 195.255 620.452 195.557 620.678 196.109C620.9 196.662 620.68 197.295 620.164 197.59C619.76 197.821 619.262 197.796 618.883 197.527C618.505 197.259 618.318 196.795 618.403 196.339C618.488 195.883 618.828 195.518 619.276 195.403Z" fill="white" fill-opacity="0.2"/>
<path id="Vector_174" d="M583.429 333.49C583.737 333.185 584.185 333.067 584.601 333.188C585.015 333.308 585.334 333.645 585.431 334.067C585.528 334.489 585.387 334.929 585.065 335.219C584.584 335.647 583.848 335.618 583.405 335.149C582.963 334.68 582.974 333.944 583.429 333.49Z" fill="white" fill-opacity="0.2"/>
<path id="Vector_175" d="M359.994 7.76062C360.369 7.47564 360.877 7.43809 361.287 7.66484C361.7 7.8916 361.938 8.33999 361.9 8.80858C361.859 9.27716 361.545 9.67782 361.099 9.8305C360.548 10.0199 359.941 9.78093 359.666 9.26646C359.39 8.75197 359.531 8.11405 359.994 7.76062Z" fill="white" fill-opacity="0.2"/>
<path id="Vector_176" d="M336.931 20.0762C337.353 19.9869 337.793 20.1344 338.075 20.4611C338.356 20.7878 338.438 21.2422 338.289 21.6473C338.139 22.0523 337.781 22.3441 337.356 22.4089C336.72 22.5052 336.125 22.0795 336.011 21.4481C335.896 20.8168 336.304 20.2088 336.931 20.0762Z" fill="white" fill-opacity="0.2"/>
<path id="Vector_177" d="M642.377 7.78938C642.876 7.3833 643.608 7.44902 644.025 7.93746C644.444 8.42589 644.394 9.15864 643.916 9.58835C643.597 9.87577 643.148 9.96726 642.741 9.82746C642.333 9.68762 642.034 9.33844 641.961 8.91514C641.885 8.49185 642.043 8.06096 642.377 7.78938Z" fill="white" fill-opacity="0.2"/>
<path id="Vector_178" d="M607.33 208.008C607.732 207.824 608.198 207.878 608.547 208.149C608.893 208.419 609.06 208.86 608.978 209.293C608.898 209.725 608.582 210.076 608.16 210.202C607.57 210.38 606.94 210.069 606.723 209.492C606.503 208.914 606.77 208.266 607.33 208.008Z" fill="white" fill-opacity="0.2"/>
</g>
<defs>
<clipPath id="clip0_0_4">
<rect width="720" height="360" fill="white"/>
</clipPath>
</defs>
</svg>
