<svg width="1700" height="1200" viewBox="0 0 1700 1200" fill="none" xmlns="http://www.w3.org/2000/svg">
<g clip-path="url(#clip0_7205_227)">
<path d="M81.2556 666.229V611.811H186.72V578.215H81.2556V533.946H194.752V500H39V699.825H198.943V666.229H81.2556Z" fill="black"/>
<path d="M362.552 500V633.508L276.47 500H235.262V699.825H274.549V569.466L359.409 699.825H402.014V500H362.552Z" fill="black"/>
<path d="M431.872 500V533.946H494.382V699.825H536.638V533.946H598.799V500H431.872Z" fill="#C60000"/>
<path d="M789.823 660.98C779.695 645.232 771.663 634.383 765.727 628.434C759.79 622.31 752.282 616.71 743.027 611.811C761.536 609.186 775.505 603.062 784.585 593.438C793.839 583.465 798.553 571.216 798.553 556.168C798.553 544.444 795.41 533.946 789.299 524.672C783.188 515.748 774.806 509.099 764.679 505.599C754.552 501.75 738.138 500 715.788 500H626.562V699.825H668.818V616.535H677.374C687.327 616.535 694.486 617.235 698.851 618.81C703.391 620.385 707.582 623.01 711.598 627.209C715.614 631.234 722.947 641.207 733.773 656.605L764.504 700H815.316L789.823 660.98ZM700.423 584.514H668.993V533.946H702.169C719.455 533.946 729.757 534.121 733.075 534.646C739.884 535.521 745.297 538.32 749.139 542.345C752.98 546.544 754.901 551.969 754.901 558.793C754.901 564.917 753.504 569.816 750.361 573.841C747.567 577.69 743.726 580.665 738.488 582.24C733.424 583.64 720.677 584.514 700.423 584.514Z" fill="#C60000"/>
<path d="M1027.99 700L943.655 500H898.954L816.888 699.825H904.193V677.078C904.193 674.103 906.288 672.878 908.383 673.928C916.59 678.128 924.622 678.128 933.003 673.928C935.448 672.878 937.194 674.103 937.194 677.078V699.825H1027.99V700ZM936.146 660.105C927.416 668.504 916.59 670.079 905.415 660.28C904.542 661.155 903.494 661.855 902.621 662.905C899.129 666.229 895.462 669.904 891.97 673.228C888.129 676.553 883.414 674.803 882.192 669.554C882.017 668.679 882.017 667.804 881.668 666.929C880.097 659.58 878.525 652.056 876.954 644.357V639.808C878.176 632.458 882.366 627.209 887.605 623.185C888.478 622.31 889.525 621.61 890.224 620.735C890.922 619.86 891.621 618.46 891.621 617.41C891.795 589.064 901.05 565.267 920.431 546.719C920.606 546.719 920.606 546.719 920.606 546.719C920.606 546.719 920.606 546.719 920.781 546.719C922.876 548.819 925.321 550.569 927.241 552.843C941.734 570.866 949.766 591.689 949.417 616.535C949.417 618.635 950.115 619.86 951.512 621.26C956.925 625.809 962.338 630.184 964.259 638.058V646.107C962.862 653.456 961.465 660.98 960.068 668.329C958.846 675.153 954.131 676.903 949.417 672.528C945.226 668.679 940.686 664.129 936.146 660.105Z" fill="#C60000"/>
<path d="M1181.65 625.634C1178.16 639.808 1172.57 650.306 1164.71 656.78C1156.85 663.605 1147.6 666.754 1136.6 666.754C1121.76 666.754 1109.88 661.505 1100.45 651.006C1091.37 640.857 1086.66 623.36 1086.66 598.863C1086.66 575.766 1091.2 559.318 1100.63 548.819C1110.06 538.67 1122.45 533.421 1137.47 533.421C1148.3 533.421 1157.55 536.395 1165.23 542.17C1173.09 548.119 1177.81 556.168 1180.43 566.142L1221.11 556.868C1216.22 541.47 1209.41 529.396 1200.33 521.172C1184.62 506.999 1164.19 500 1139.57 500C1110.93 500 1088.06 508.924 1070.42 526.772C1052.96 544.619 1044.4 569.641 1044.4 601.662C1044.4 632.108 1053.13 656.255 1070.42 673.753C1087.88 691.426 1110.06 700 1136.95 700C1158.77 700 1176.76 694.926 1190.9 684.777C1205.05 674.278 1215.17 658.705 1221.28 637.533L1181.65 625.634Z" fill="#C60000"/>
<path d="M1367.43 577.865L1446.71 500H1389.43L1303.87 588.889V500H1261.27V699.825H1303.87V639.458L1338.1 606.212L1396.07 700H1450.9L1367.43 577.865Z" fill="#C60000"/>
<path d="M1636.51 660.98C1626.38 645.232 1618.35 634.383 1612.41 628.434C1606.3 622.31 1598.62 616.71 1589.71 611.811C1608.22 609.186 1621.84 603.062 1631.09 593.438C1640.52 583.465 1645.06 571.216 1645.06 556.168C1645.06 544.444 1641.92 533.946 1635.81 524.672C1629.87 515.748 1621.67 509.099 1611.36 505.599C1601.24 501.75 1584.82 500 1562.47 500H1473.07V699.825H1515.68V616.535H1524.23C1534.01 616.535 1541 617.235 1545.54 618.81C1550.08 620.385 1554.27 623.01 1558.28 627.209C1562.3 631.234 1569.81 641.207 1580.81 656.605L1611.54 700H1662.17L1636.51 660.98ZM1547.11 584.514H1515.68V533.946H1548.85C1566.14 533.946 1576.27 534.121 1579.76 534.646C1586.57 535.521 1591.81 538.32 1595.65 542.345C1599.49 546.544 1601.41 551.969 1601.41 558.793C1601.41 564.917 1600.01 569.816 1597.22 573.841C1594.43 577.69 1590.41 580.665 1585.35 582.24C1579.93 583.64 1567.36 584.514 1547.11 584.514Z" fill="#C60000"/>
</g>
<defs>
<clipPath id="clip0_7205_227">
<rect width="1623" height="200" fill="white" transform="translate(39 500)"/>
</clipPath>
</defs>
</svg>
