<svg width="1700" height="1200" viewBox="0 0 1700 1200" fill="none" xmlns="http://www.w3.org/2000/svg">
<path fill-rule="evenodd" clip-rule="evenodd" d="M925.506 528.37C891.064 521.723 856.089 518.263 831.494 518.263C744.53 518.263 713.221 554.377 713.221 617.553V674.719C713.221 731.973 734.62 771 837.56 771C864.862 771 898.506 768.533 931.571 761.974V710.825C905.697 715.669 881.636 716.842 843.625 716.842C802.824 716.842 779.939 697.074 779.939 662.684V629.588C779.939 593.209 798.066 572.421 834.527 572.421C840.58 572.421 852.45 572.499 858.788 574.091V611.535H925.506V528.37ZM646.504 611.535C646.504 543.507 615.316 518.263 558.557 518.263C537.074 518.263 516.255 524.205 491.839 536.316L485.774 524.281H397.828V578.439H434.219V716.842H403.893V771H531.263V716.842H500.937V578.565C514.608 573.718 528.279 572.421 543.9 572.421C583.049 572.421 579.786 606.324 579.786 629.714V771H682.895V716.842H646.504V611.535ZM331.11 716.842H367.501V771H228V716.842H264.392V482.158H234.065V428H361.436V482.158H331.11V716.842Z" fill="black"/>
<path fill-rule="evenodd" clip-rule="evenodd" d="M1404.66 542.333C1404.66 517.303 1395.64 482.158 1353.11 482.158C1308.38 482.158 1287.69 525.262 1301.49 572.421H1241.8C1237.28 558.9 1234.57 521.266 1249.03 491.344C1264.98 458.331 1302.62 428 1352.35 428H1228.77H1125.66L998.289 617.553V698.789H1134.76V644.632H1061.97L1168.12 482.158H1171.15V771H1228.77C1228.77 664.24 1291.43 629.651 1350.07 605.238C1382.34 591.804 1404.66 575.243 1404.66 542.333ZM1465.31 539.325V716.842H1313.68C1313.68 686.754 1342.05 681.63 1377.37 662.684C1422.72 638.355 1465.31 608.526 1465.31 539.325Z" fill="#DD253D"/>
</svg>
