<svg width="1700" height="1200" viewBox="0 0 1700 1200" fill="none" xmlns="http://www.w3.org/2000/svg">
<path d="M1183.25 295H517.75V960.5H1183.25V295Z" fill="#E81F3D"/>
<path d="M1113.23 572.316H1112.24C1107.48 543.839 1105.06 542.418 1101.51 534.607C1092.07 513.799 1074.45 503.43 1048.68 503.572L1012.74 503.714L1012.1 569.831L1012.53 663.929C1012.81 732.318 1013.17 768.394 1013.59 772.016C1014.16 775.709 1019.91 778.479 1031.13 780.538C1042.28 782.456 1055.78 783.521 1071.4 783.379L1073.6 788.208L895.776 788.989L897.978 784.16C922.053 784.089 937.392 783.166 944.565 781.533C951.525 779.899 955.644 775.283 956.922 767.826C958.271 760.298 958.555 691.838 958.058 562.303L956.496 503.856L924.325 504.069C906.5 505.845 892.936 511.952 883.561 522.179C873.122 533.967 864.245 545.543 861.475 572.246L858.421 611.021H854.16C849.189 566.209 839.673 537.092 825.612 523.457C811.337 509.893 784.706 503.288 745.788 503.359C737.551 503.359 729.526 503.43 721.572 503.501C710.919 504.14 704.954 506.129 703.462 509.396C701.19 514.083 700.196 554.775 700.551 631.474L718.305 631.758C743.019 631.758 759.85 626.076 769.153 615.14C778.527 604.132 782.93 583.324 782.859 552.858H789.89L790.671 723.299H783.641C783.57 692.122 779.166 670.178 770.644 657.608C761.98 644.967 746.996 638.717 725.478 638.788H700.764C701.19 722.304 702.326 767.613 704.457 774.999C705.664 779.828 723.631 782.03 758.216 781.888C795.5 781.746 805.443 782.74 822.487 771.235C832.074 764.701 843.295 756.605 851.675 725.429H854.16L854.444 791.83L716.387 789.984L589.409 791.901V782.669C623.923 782.598 642.246 779.402 644.305 773.152C646.294 767.045 647.146 735.655 646.933 679.055L646.507 613.648C646.365 552.361 645.228 518.841 643.24 512.804C641.323 506.768 622.929 503.856 588.131 503.998V496.968C604.465 496.897 627.9 496.754 658.367 496.612C688.833 496.47 710.919 496.399 724.625 496.399L859.061 495.76H984.69L1113.02 495.121L1113.37 572.103L1113.23 572.316Z" fill="white"/>
</svg>
