<svg preserveAspectRatio="none" width="100%" height="100%" overflow="visible" style="display: block;" viewBox="0 0 24 24" fill="none" xmlns="http://www.w3.org/2000/svg">
<g id="Frame" clip-path="url(#clip0_0_56)">
<g id="Vector">
</g>
<path id="Vector_2" d="M4.929 4.929C5.85319 3.98109 6.9564 3.22612 8.17464 2.70789C9.39287 2.18966 10.7019 1.91848 12.0257 1.91009C13.3496 1.9017 14.6619 2.15627 15.8867 2.65902C17.1114 3.16177 18.2241 3.9027 19.1602 4.83882C20.0963 5.77495 20.8372 6.88764 21.34 8.11235C21.8427 9.33705 22.0973 10.6494 22.0889 11.9733C22.0805 13.2971 21.8093 14.6061 21.2911 15.8244C20.7729 17.0426 20.0179 18.1458 19.07 19.07C17.184 20.8916 14.658 21.8995 12.036 21.8767C9.41402 21.854 6.9059 20.8023 5.05181 18.9482C3.19773 17.0941 2.14604 14.586 2.12326 11.964C2.10048 9.34204 3.10842 6.81602 4.93 4.93L4.929 4.929ZM13 9C13 8.73478 12.8946 8.48043 12.7071 8.29289C12.5196 8.10536 12.2652 8 12 8C11.7348 8 11.4804 8.10536 11.2929 8.29289C11.1054 8.48043 11 8.73478 11 9V11H9C8.73478 11 8.48043 11.1054 8.29289 11.2929C8.10536 11.4804 8 11.7348 8 12C8 12.2652 8.10536 12.5196 8.29289 12.7071C8.48043 12.8946 8.73478 13 9 13H11V15C11 15.2652 11.1054 15.5196 11.2929 15.7071C11.4804 15.8946 11.7348 16 12 16C12.2652 16 12.5196 15.8946 12.7071 15.7071C12.8946 15.5196 13 15.2652 13 15V13H15C15.2652 13 15.5196 12.8946 15.7071 12.7071C15.8946 12.5196 16 12.2652 16 12C16 11.7348 15.8946 11.4804 15.7071 11.2929C15.5196 11.1054 15.2652 11 15 11H13V9Z" fill="var(--fill-0, #FF9A6D)"/>
</g>
<defs>
<clipPath id="clip0_0_56">
<rect width="24" height="24" fill="white"/>
</clipPath>
</defs>
</svg>
