<svg preserveAspectRatio="xMidYMid meet"  overflow="visible" viewBox="0 0 51.4072 64.0001" fill="none" xmlns="http://www.w3.org/2000/svg">
<g id="Group 48095699" opacity="0.48">
<path id="Vector" d="M16.6085 22.0543C16.8199 22.2349 16.9037 22.3047 16.9845 22.573C17.2539 22.0997 17.5652 21.7828 18.1967 22.0742C18.4479 22.1901 18.4825 22.4328 18.5482 22.6639C18.6723 22.1933 18.8184 22.0243 19.3314 22.0049C20.0448 21.978 19.9436 22.4362 20.1252 22.6124C20.2463 22.2783 20.2699 22.2673 20.5438 22.0472L20.6015 22.0015C20.8294 21.9998 21.0555 22.016 21.2831 22.0286C21.6056 22.2676 21.6469 22.2943 21.7097 22.6356L21.7741 22.5084C21.8928 22.2694 22.0123 22.0257 22.3133 22.0035C22.9365 21.9575 23.2839 22.1372 23.344 22.7551L23.3965 22.7292C23.4308 22.3254 23.4789 22.3149 23.7884 22.0639L23.847 22.0167C24.1441 22.0113 24.5192 21.9753 24.7677 22.1637C25.0004 22.34 24.8372 22.5029 25.0296 22.7219C25.1542 22.5971 25.0167 22.3645 25.3258 22.1511C25.6086 21.9557 25.9047 22.0146 26.2297 22.052C26.4866 22.2707 26.627 22.3651 26.6707 22.7069L26.7198 22.7041C26.7684 22.2324 27.0482 22.0027 27.5448 21.9803C27.895 21.9644 28.1192 22.2311 28.3345 22.4764C28.3588 22.4158 28.4154 22.2221 28.4665 22.207C29.3545 21.9447 30.6348 21.7844 30.3769 23.1003C30.228 23.3274 30.1412 23.3913 29.9388 23.5684C29.8798 23.5712 29.7032 23.5833 29.6243 23.5765C29.2865 23.5476 28.8867 23.4243 28.5548 23.3504C28.4556 23.251 28.3757 23.1707 28.3147 23.1095C27.9699 23.5675 27.7561 23.7576 27.1707 23.4971C26.7094 23.2917 26.8751 23.1797 26.6841 22.9231C26.4827 23.5069 26.2098 23.7063 25.554 23.5342C25.1928 23.4395 25.1804 23.2344 25.0406 22.9392C24.9066 23.2042 24.8163 23.4281 24.5584 23.5743C24.1813 23.6186 23.6624 23.6529 23.4839 23.2186C23.4457 23.1259 23.4253 23.0823 23.3534 23.0124C23.0647 23.6354 22.7572 23.618 22.1544 23.5737C21.9138 23.3613 21.8685 23.2792 21.6986 23.0193C21.5426 23.4423 21.2457 23.6927 20.7622 23.5958C20.3959 23.5224 20.3048 23.3597 20.1096 23.0614C19.715 23.8883 18.977 23.724 18.5332 23.0318L18.464 23.0602C18.312 23.8056 17.5186 23.7523 17.0661 23.1842L17.0215 23.1274C16.8176 23.131 16.3022 24.3237 15.4365 23.0473C15.2931 23.3453 15.271 23.3451 15.0118 23.5708L14.3239 23.5765C14.1751 23.4518 13.9137 23.089 13.8426 23.0682C13.6538 23.4071 13.5366 23.5829 13.1009 23.6062C12.7097 23.6271 12.5605 23.3224 12.3085 23.0882C12.1459 23.2758 11.8929 23.6033 11.6396 23.5925C10.523 23.5449 10.4629 22.6648 11.1537 21.9987C11.3998 21.9924 11.5998 22.0077 11.8435 22.0247C12.0445 22.1683 12.1255 22.2472 12.2761 22.4406L12.3047 22.4779C12.4543 22.2503 12.4834 22.215 12.6958 22.0423L12.7452 22.0028C13.0115 22.0009 13.2064 22.0241 13.4694 22.0513C13.6803 22.2211 13.7831 22.318 13.8838 22.5716C13.9435 22.327 14.1699 22.1493 14.3618 22.007C14.5884 22.0173 14.8234 22.0354 15.0507 22.0496C15.1903 22.161 15.3598 22.3419 15.4897 22.4721C15.7877 21.8857 16.0384 21.9813 16.6085 22.0543Z" fill="var(--fill-0, #BABABA)"/>
<path id="Vector_2" d="M33.4129 33.6016C33.5875 33.758 33.6401 33.8058 33.7418 34.0166L33.844 34.0617L33.8787 34.0177C34.3951 33.3799 34.9319 33.2859 35.3764 34.0573C35.8407 33.4805 36.2628 33.2828 36.8001 33.9008C36.8348 33.9411 36.8691 33.9817 36.9033 34.0227L36.9921 34.0197C37.5889 33.3541 37.9064 33.332 38.5265 34.059C38.648 33.7895 38.7219 33.7649 38.9511 33.5911C39.1783 33.5933 39.4308 33.5898 39.6555 33.5986C39.8609 33.7795 39.9224 33.8319 40.0827 34.0508C40.1819 33.99 40.3376 33.7541 40.5376 33.5947L41.2837 33.5935C41.4618 33.761 41.5327 33.8262 41.681 34.0169L41.7678 34.0158C41.9112 33.8391 41.9876 33.7529 42.1533 33.597C42.3889 33.5932 42.6558 33.5826 42.889 33.5924C43.262 33.9496 43.5299 34.4221 43.0815 34.8821C42.8041 35.1659 42.5194 35.1153 42.1548 35.0934C41.879 34.8346 41.7748 34.7951 41.7401 34.4211L41.6989 34.4083C41.5759 35.1227 41.1805 35.1495 40.5728 35.1197C40.3798 34.961 40.1159 34.7276 40.0827 34.4665L40.0648 34.5728L40.0965 34.58C39.8971 34.8042 39.8421 34.9342 39.596 35.1331L38.965 35.1133C38.7497 34.9511 38.5532 34.7859 38.4878 34.5118L38.4932 34.5666C38.3171 34.8383 38.2744 34.9198 38.0155 35.1326L37.4152 35.1287C37.2659 35.0141 37.0963 34.9049 37 34.7483L36.9886 34.5621L36.9316 34.5132C36.7703 34.7462 36.6265 35.1187 36.3268 35.1619C35.8541 35.2304 35.4527 34.9243 35.4091 34.4618C35.2811 34.6819 35.1219 35.0552 34.8639 35.1252C34.414 35.2472 33.8588 34.9005 33.8584 34.4151L33.8018 34.3698L33.7785 34.3797C33.7175 34.6296 33.778 34.7928 33.5518 34.9689C33.3613 35.1173 33.0602 35.1559 32.8285 35.1173C32.4773 35.0587 32.2927 34.8177 32.2778 34.4839L32.2193 34.4451C32.0243 34.7129 32.4058 34.5696 31.7654 35.1302C31.5565 35.1217 31.3308 35.1168 31.124 35.1019C30.9608 34.9788 30.8377 34.8955 30.6978 34.7451C30.6606 34.601 30.6239 34.4414 30.5768 34.3022C30.5599 34.5118 30.5664 34.7655 30.3868 34.9114C30.0713 35.1683 28.9189 35.1545 28.5954 34.9828C28.4947 34.838 28.4709 34.7928 28.3911 34.6335L28.2899 34.5911L28.2517 34.6423C27.7253 35.337 26.9589 35.4109 26.6409 34.5133C26.4871 34.823 26.44 34.9625 26.0992 35.0835C25.6324 35.2492 25.2345 35.0414 25.0495 34.5935L24.9622 34.5962L24.9661 34.0893L25.0534 34.0247C25.3322 33.4675 25.6597 33.5454 26.2148 33.6049C26.3983 33.7515 26.4559 33.7968 26.5685 34.0018L26.6846 34.0464C27.1395 33.5105 27.5328 33.3053 28.1395 33.8693C28.1822 33.9092 28.2234 33.9503 28.2641 33.9924C28.3653 33.8331 28.4129 33.7091 28.5835 33.6442C28.7711 33.6303 28.7319 33.65 28.8971 33.6863C29.6734 33.8565 30.0787 33.1589 30.5788 34.1002L30.5996 34.1386C30.7345 33.8687 30.8506 33.7683 31.0882 33.584C31.375 33.5758 31.5446 33.5655 31.8329 33.6071C32.0055 33.7773 32.1047 33.8737 32.2545 34.0666C32.5671 33.497 32.825 33.5428 33.4129 33.6016Z" fill="var(--fill-0, #BABABA)"/>
<path id="Vector_3" d="M24.9661 34.0893L25.0534 34.0247C25.0569 34.2003 25.0713 34.4244 25.0495 34.5935L24.9622 34.5962L24.9661 34.0893Z" fill="var(--fill-0, #BABABA)"/>
<path id="Vector_4" d="M46.6517 17.7109C46.2157 17.3087 46.1705 17.1371 46.3238 16.5734C45.8431 16.4625 45.1749 16.8974 45.1397 15.7873C45.1352 15.6436 45.1575 15.5785 45.0663 15.475C44.0592 15.4692 43.9417 15.1061 44.1644 14.1779C43.6713 14.4398 43.0542 14.3749 42.8354 13.8057C42.7476 13.5702 42.763 13.3086 42.8786 13.0852C42.9004 13.0435 42.9227 13.0017 42.9445 12.96C41.3432 13.4268 41.8938 12.5838 41.5059 12.0849C40.7018 11.8231 40.4408 11.9731 40.548 10.928C40.2305 10.9276 39.7711 10.9451 39.5454 10.6979C39.1778 10.2949 39.2671 9.80342 39.5538 9.41286C39.2884 9.59308 39.0697 9.69959 38.7408 9.62632C38.5111 9.57314 38.3116 9.43161 38.1851 9.23233C38.0601 9.0342 37.9932 8.71423 38.0656 8.49759C38.336 7.69424 39.4442 7.80204 39.7225 8.53941C39.8267 8.81454 39.7344 8.98043 39.6997 9.24231C39.8495 9.27867 40.2359 9.06769 40.5519 9.27282C40.9776 9.54938 40.918 9.93483 41.0138 10.3595C42.1429 10.2143 41.9003 10.8329 42.0675 11.3605C42.1657 11.6709 43.5701 11.0559 43.0978 12.7812L43.1747 12.7935C43.3955 12.6334 43.5071 12.6213 43.7779 12.6707C43.9957 12.7113 44.1892 12.8359 44.3162 13.0178C44.5429 13.3361 44.2978 13.5845 44.4055 13.9371C44.849 13.769 45.3322 13.7666 45.5728 14.2999C45.6591 14.492 45.5375 14.6929 45.6779 14.9073C46.5079 15.0046 46.9677 15.282 46.675 16.1867C47.1632 16.3886 47.5779 15.7562 48.0075 16.9879C47.8899 17.3167 47.8393 17.5054 47.5625 17.7351L47.5764 17.7559C47.2892 17.9396 47.2049 18.0817 47.0258 18.3726L47.0124 18.3673C46.9782 18.0724 46.8075 17.9663 46.5912 17.7704L46.6517 17.7109Z" fill="var(--fill-0, #BABABA)"/>
<path id="Vector_5" d="M46.6517 17.7109C47.0382 17.8351 47.1592 17.8099 47.5625 17.7351L47.5764 17.7559C47.2892 17.9396 47.2049 18.0817 47.0258 18.3726L47.0124 18.3673C46.9782 18.0724 46.8075 17.9663 46.5912 17.7704L46.6517 17.7109Z" fill="var(--fill-0, #BABABA)"/>
<path id="Vector_6" d="M47.6895 59.3105C47.9321 59.3011 48.1196 59.2818 48.3607 59.3234L48.3657 59.3954C48.6623 59.6161 48.8181 59.7739 48.8677 60.1494C48.9501 60.769 48.521 60.8975 48.0393 60.9962C48.2943 61.3569 48.3389 60.832 48.5641 61.7959C48.4699 61.9601 48.2476 62.422 48.0695 62.4815C47.9033 62.537 47.4817 62.4477 47.3988 62.5281C47.4584 62.9126 47.4742 63.3447 46.9687 63.4191C46.6825 63.3461 46.6488 63.2385 46.4528 63.2896C46.3204 63.5287 46.177 63.8402 45.8848 63.9013C45.474 63.9871 45.1809 63.7936 44.9566 63.4692L44.9368 63.1661L44.9482 63.2058L44.8787 63.1348L44.8033 63.1864C44.7612 63.4543 44.782 63.6324 44.5588 63.7921C44.3708 63.9256 44.1346 63.9742 43.9089 63.9256C43.5512 63.8497 43.3374 63.5391 43.2858 63.1934C43.2878 63.9791 42.0987 64.3199 41.7242 63.3581C41.7351 63.1695 41.7296 62.9324 41.7306 62.7394C41.873 62.602 42.0164 62.4656 42.1612 62.3307C42.8056 62.2945 42.8642 62.2577 43.2228 62.7593L43.3275 62.7757C44.336 61.6079 44.4516 62.6908 44.9016 62.7598C45.0256 62.1362 45.6343 62.2508 46.0723 62.3495C46.2023 62.2756 46.2345 62.1114 46.3139 61.9408C46.5292 61.8143 46.6056 61.8549 46.8616 61.9135L46.8784 61.8564C46.6989 61.3574 47.1314 60.9853 47.5774 60.8643C47.4207 60.2556 46.7807 60.0457 47.6816 59.3894L47.6895 59.3105Z" fill="var(--fill-0, #BABABA)"/>
<path id="Vector_7" d="M46.8784 61.8564C47.0655 62.0097 47.2143 62.1049 47.3309 62.3148L47.3011 62.3639C47.1161 62.2821 46.9543 62.0866 46.8616 61.9135L46.8784 61.8564Z" fill="var(--fill-0, #BABABA)"/>
<path id="Vector_8" d="M47.6895 59.3105C47.9321 59.3011 48.1196 59.2818 48.3607 59.3234L48.3657 59.3954L47.6816 59.3894L47.6895 59.3105Z" fill="var(--fill-0, #BABABA)"/>
<path id="Vector_9" d="M0.540054 59.3229C0.788936 59.2927 0.941283 59.2971 1.18778 59.3011L1.15926 59.3839C1.93324 59.886 1.80773 60.2938 1.25788 60.8995C1.34578 60.9496 1.32808 60.9129 1.41965 60.9317C1.99793 61.0498 2.09402 61.5836 1.9887 62.0251L2.0211 62.0484C2.47104 61.8723 2.47476 61.9288 2.90903 62.0767C3.11679 62.3446 3.21501 62.4115 3.24483 62.7414C3.61694 62.6521 3.61882 61.8926 4.50338 62.536C4.71635 62.6908 5.32989 61.8475 5.66743 62.6928C5.59907 62.9756 5.60631 63.1675 5.6014 63.4543C5.24139 64.189 4.9559 63.5431 4.64357 63.681C4.16714 63.8918 3.92812 64.1781 3.39851 63.7306C3.17904 63.5451 3.23639 63.2772 3.2042 63.0415C2.84017 63.4979 2.51723 63.7504 1.87272 63.4191C1.604 63.2806 1.65132 62.8362 1.60434 62.5494C1.24448 62.2647 0.413008 63.0619 0.453885 61.2859C0.614614 61.1654 0.695177 61.1044 0.837453 60.965C0.787746 60.96 0.738089 60.9545 0.688581 60.9476C-0.0885273 60.8404 -0.209919 59.8418 0.501558 59.3944L0.540054 59.3229Z" fill="var(--fill-0, #BABABA)"/>
<path id="Vector_10" d="M0.540049 59.3229C0.788932 59.2927 0.941278 59.2971 1.18778 59.3011L1.15925 59.3839L0.501553 59.3944L0.540049 59.3229Z" fill="var(--fill-0, #BABABA)"/>
<path id="Vector_11" d="M13.8652 28.6625C13.8935 28.5061 13.9411 28.1643 14.0553 28.066C14.6779 27.5301 15.426 27.7792 15.4494 28.6178L15.4506 28.682C15.4695 27.6609 16.4325 27.4864 16.9776 28.2696C16.9813 28.4091 16.9794 28.5472 16.9785 28.6867C16.9937 28.5824 16.9953 28.4652 17.0227 28.3662C17.1842 27.7828 17.6728 27.7172 18.1854 27.8817C18.3727 27.9418 18.441 28.1234 18.5234 28.287C18.5161 28.5035 18.51 28.7071 18.5124 28.9242C18.0527 29.7843 17.5037 29.4156 17.0156 28.8833L16.9558 28.8901C16.9301 29.0376 16.868 29.1335 16.7576 29.2345C16.5933 29.3833 16.3745 29.457 16.1536 29.4378C15.8152 29.4062 15.67 29.1372 15.4616 28.8993C14.8985 29.5173 14.3674 29.7235 13.9072 28.8721L13.8742 28.8101C13.4176 29.4885 12.7937 29.8119 12.3413 28.8991C12.3631 28.6189 12.3766 28.5664 12.3225 28.2978C12.6421 27.5548 13.8162 27.5793 13.8652 28.6625Z" fill="var(--fill-0, #BABABA)"/>
<path id="Vector_12" d="M0.485674 8.63838C-0.121478 8.10742 0.0882653 7.01972 1.12085 7.19692L1.19442 7.21016C1.28992 7.00216 0.138814 5.89179 2.12948 5.70893C2.26833 5.89337 2.35669 6.05222 2.5134 6.23343C2.72785 6.93732 2.26025 7.63714 1.50819 7.31355L1.46191 7.33557C1.97748 8.01868 1.91547 8.15073 1.35257 8.76875C1.85435 9.87981 1.81353 10.3279 0.409227 10.1793C0.26085 10.0495 0.187481 9.94302 0.065396 9.78665C0.00770202 9.13947 0.0118684 9.08271 0.485674 8.63838Z" fill="var(--fill-0, #BABABA)"/>
<path id="Vector_13" d="M34.6288 16.6144C35.3342 16.6239 35.9349 16.829 35.6904 17.6855C36.3541 17.8349 36.2728 17.2342 36.9187 18.1908C37.0764 18.1318 37.0873 18.0026 37.187 17.8032C37.4832 17.6054 37.7064 17.6628 38.0671 17.6838C38.27 17.8566 38.3513 17.912 38.4878 18.1455C38.4699 18.3383 38.4471 18.498 38.4664 18.6921C38.3747 18.9677 38.2725 19.0284 38.0611 19.2238C37.8409 19.2264 37.6062 19.2156 37.3845 19.2097C36.8641 18.7597 37.135 18.8004 36.943 18.5425C36.7044 19.1197 36.2916 19.5496 35.5291 19.0667C35.3694 18.9655 35.3679 18.4324 35.3436 18.2178C35.0589 18 34.1366 18.7973 34.1362 17.0909C34.3182 16.8601 34.4065 16.7951 34.6288 16.6144Z" fill="var(--fill-0, #BABABA)"/>
<path id="Vector_14" d="M15.405 46.1878C15.0374 47.0117 14.3711 46.7444 13.9156 46.1714L13.8721 46.1163C13.4073 46.8346 12.7193 46.9547 12.3216 46.1218L12.2918 46.0578C12.1718 46.4184 11.9447 46.6809 11.5375 46.6699C11.2805 46.664 11.0384 46.5484 10.8724 46.352C10.3213 45.6947 11.2449 44.135 12.2854 45.6446L12.34 45.6277C12.3778 45.3276 12.4657 45.3271 12.7101 45.1023C12.9303 45.0949 13.1763 45.1048 13.3986 45.1088C13.5909 45.2462 13.6773 45.2874 13.8068 45.4779C13.8069 45.6272 13.7908 45.6614 13.8718 45.7849L13.9104 45.7745C13.9756 45.5761 13.9202 45.3514 14.1516 45.213C14.6258 44.9287 15.0997 45.1043 15.4063 45.5309C15.3899 45.7963 15.382 45.9189 15.405 46.1878Z" fill="var(--fill-0, #BABABA)"/>
<path id="Vector_15" d="M33.837 39.8454C33.9337 39.6797 34.0885 39.4614 34.2815 39.4183C34.9448 39.2699 35.3272 39.5353 35.355 40.1877C35.5063 39.9838 35.299 39.8494 35.6556 39.5388C36.0718 39.1772 36.8497 39.3711 36.8824 39.9838L36.937 40.0319C37.0164 39.9109 37.004 39.8732 37.0129 39.7273C37.1925 39.5195 37.3463 39.3905 37.6355 39.3652C37.8582 39.3478 38.0785 39.4242 38.2432 39.576C38.3161 39.6435 38.398 39.7655 38.4421 39.8563L38.456 40.4397C38.0418 41.2195 37.6027 41.1779 37.0561 40.5751L36.9211 40.4283C36.8145 40.5389 36.877 40.5096 36.8056 40.6009C36.2033 41.3753 35.6661 40.8336 35.3644 40.3618C35.1005 41.1491 34.2527 41.1957 33.8122 40.4967L33.7333 40.4873L33.7413 39.8518L33.837 39.8454Z" fill="var(--fill-0, #BABABA)"/>
<path id="Vector_16" d="M33.837 39.8454C33.8251 40.0661 33.8152 40.275 33.8122 40.4967L33.7333 40.4873L33.7413 39.8518L33.837 39.8454Z" fill="var(--fill-0, #BABABA)"/>
<path id="Vector_17" d="M15.4751 39.8379C15.9072 39.0874 16.83 39.2293 17.0009 40.1202C17.0467 39.1176 18.4571 38.9926 18.5394 40.2378C18.5996 40.1172 18.5871 40.1495 18.5983 40.0185C18.6668 39.2228 19.6382 39.1424 20.0279 39.7511C20.0494 39.7849 20.0702 39.8191 20.0903 39.8538L20.0961 40.4432C19.9087 40.902 19.516 41.0891 19.0371 40.911C18.724 40.7949 18.6646 40.6222 18.5409 40.332C18.3703 40.7373 18.1079 41.0275 17.5947 40.9938C17.2533 40.9715 17.1405 40.6753 16.9607 40.4278C16.5039 41.0161 15.834 41.3292 15.485 40.4456C15.4911 40.2472 15.4809 40.0374 15.4751 39.8379Z" fill="var(--fill-0, #BABABA)"/>
<path id="Vector_18" d="M12.7407 39.3994L13.3938 39.4123C13.5998 39.5591 13.6785 39.6539 13.8497 39.8359L13.8697 40.1182L13.8953 39.8359C14.0287 39.6792 14.1838 39.5398 14.333 39.3979L14.9962 39.4123C15.2037 39.5651 15.2457 39.5919 15.3936 39.7997L15.475 39.8379C15.4809 40.0374 15.4911 40.2472 15.485 40.4456L15.4229 40.4347C14.9863 41.2195 14.3255 41.098 13.8499 40.4273C13.7095 40.6877 13.6556 40.7279 13.4362 40.9318C13.0757 40.9526 12.5141 41.0002 12.3817 40.5453C12.3495 40.4347 12.3654 40.4665 12.2944 40.3628C11.767 41.6278 9.88517 40.6763 11.1318 39.4034L11.8144 39.4078C12.1051 39.6083 12.1259 39.6197 12.253 39.9575L12.2775 40.0245L12.3403 39.9853L12.3185 40.077L12.366 39.7491C12.4855 39.6326 12.6178 39.514 12.7407 39.3994Z" fill="var(--fill-0, #BABABA)"/>
<path id="Vector_19" d="M15.3936 39.7997L15.475 39.8379C15.4809 40.0374 15.4911 40.2472 15.485 40.4456L15.4229 40.4347C15.3942 40.2497 15.3974 39.9922 15.3936 39.7997Z" fill="var(--fill-0, #BABABA)"/>
<path id="Vector_20" d="M26.7193 62.7454C27.1846 62.1198 27.6127 62.2781 28.1976 62.6139C28.8137 62.2553 28.583 62.541 28.9199 62.5048C29.7141 62.42 29.8118 62.1055 30.5034 62.7216C30.5103 62.9661 30.5187 63.2043 30.5148 63.4488C29.9894 64.2445 28.9918 63.7896 28.3315 63.6234C28.0577 63.5545 27.3165 64.4832 26.6751 63.4915L26.5997 63.4791C26.5799 63.2087 26.6225 63.0301 26.6657 62.7642L26.7193 62.7454Z" fill="var(--fill-0, #BABABA)"/>
<path id="Vector_21" d="M26.7193 62.7454L26.6751 63.4915L26.5997 63.4791C26.5799 63.2087 26.6225 63.0301 26.6657 62.7642L26.7193 62.7454Z" fill="var(--fill-0, #BABABA)"/>
<path id="Vector_22" d="M36.2256 5.43192C36.2837 5.44249 36.3412 5.45484 36.3988 5.46888C36.9415 5.60525 37.3359 6.06398 37.0977 6.61309C37.0715 6.67381 37.0784 6.65575 37.0973 6.7246C37.7377 6.90513 37.9475 6.19355 38.4952 7.49784C38.2615 8.09507 38.1817 8.26314 37.5412 8.34946C36.8105 8.18814 36.6448 7.73318 36.8537 7.05112L36.873 6.98892C35.796 7.29817 35.2687 6.96615 35.607 5.81003C35.8169 5.59593 35.9414 5.51963 36.2256 5.43192Z" fill="var(--fill-0, #BABABA)"/>
<path id="Vector_23" d="M7.38058 62.7533C7.66488 62.2255 8.03595 62.2701 8.56324 62.3361C8.76092 62.5291 8.91158 62.6144 8.94775 62.8694L9.00415 62.9036C9.45643 62.5747 8.82665 62.2294 10.1812 62.3302C10.3182 62.4576 10.4756 62.597 10.6011 62.7335L10.6065 63.4682C10.3173 63.8735 9.78959 64.1522 9.34029 63.8164C9.18462 63.6993 9.08139 63.5257 9.05301 63.3332C9.05113 63.3119 9.04924 63.2901 9.04741 63.2687L9.011 63.2529C8.87329 63.5351 8.8784 63.7053 8.54071 63.869C8.31336 63.9771 8.05049 63.9821 7.81922 63.8824C7.63368 63.8035 7.4858 63.6418 7.39259 63.4662L7.29873 63.4136L7.28752 62.7399L7.38058 62.7533Z" fill="var(--fill-0, #BABABA)"/>
<path id="Vector_24" d="M7.28752 62.7399L7.38058 62.7533L7.39259 63.4662L7.29873 63.4136L7.28752 62.7399Z" fill="var(--fill-0, #BABABA)"/>
<path id="Vector_25" d="M23.2378 63.3804C23.2006 63.4692 23.153 63.553 23.0959 63.6304C22.6073 64.3031 22.1005 63.9365 21.6467 63.487L21.5908 63.431C20.1101 64.9693 19.2446 62.5063 20.7062 62.288C20.9785 62.2473 21.1709 62.3565 21.3663 62.5107C21.6539 62.737 21.4748 63.0232 21.6049 63.2077L21.6204 63.043C21.6771 62.2384 22.2393 62.2696 22.8598 62.346C23.0389 62.5246 23.0783 62.5827 23.217 62.796C23.2189 62.9959 23.2174 63.18 23.2378 63.3804Z" fill="var(--fill-0, #BABABA)"/>
<path id="Vector_26" d="M0.620712 38.0019C0.864535 37.9573 0.910621 37.9603 1.15866 37.9826L1.19463 38.0585C1.40839 38.2177 1.65162 38.4638 1.69319 38.7436C1.75366 39.1519 1.39693 39.3528 1.17488 39.6316C1.58807 39.9833 1.90075 40.523 1.47848 40.9606C0.696961 41.7711 -0.625834 40.6912 0.434238 39.6941L0.485084 39.6474C0.705889 39.6311 0.611239 39.697 0.837302 39.6127L0.84132 39.6192C-0.153914 39.6256 -0.198265 38.3809 0.593974 38.0486L0.620712 38.0019Z" fill="var(--fill-0, #BABABA)"/>
<path id="Vector_27" d="M0.620701 38.0019C0.864524 37.9573 0.91061 37.9603 1.15865 37.9826L1.19462 38.0585C0.987157 38.0679 0.800629 38.0575 0.593963 38.0486L0.620701 38.0019Z" fill="var(--fill-0, #BABABA)"/>
<path id="Vector_28" d="M26.7555 28.1814C27.3413 27.7593 27.7402 27.5928 28.2938 28.1774C28.2849 28.4429 28.2755 28.6906 28.2814 28.9571C28.2001 29.1072 28.0894 29.1966 27.9674 29.3193C26.5789 29.4871 27.1623 29.0625 26.688 28.8369L26.5957 28.8698C26.5109 29.2453 26.3611 29.3235 25.9761 29.3842C25.1611 29.5127 24.6893 28.6394 25.2677 28.0492C25.5401 27.7714 25.9097 27.8266 26.2832 27.8562C26.5819 28.1307 26.5615 28.1249 26.69 28.5109L26.7555 28.1814Z" fill="var(--fill-0, #BABABA)"/>
<path id="Vector_29" d="M47.7382 23.5704C48.0393 23.561 48.2918 23.5231 48.5368 23.7229C49.2041 24.2667 48.8801 25.0496 48.0462 25.1286L47.9783 25.1346C48.1038 25.1847 48.2903 25.0758 48.5483 25.3057C48.7338 25.471 48.8399 25.6209 48.8578 25.8869C48.8772 26.1813 48.7804 26.3654 48.6023 26.5809C48.3191 26.7381 47.9788 26.7968 47.6806 26.6414C47.4737 26.5323 47.319 26.3454 47.2495 26.1218C47.1806 25.8973 47.2014 25.6923 47.3155 25.4861C47.4599 25.2254 47.5943 25.252 47.7967 25.1521C47.2014 24.5756 46.7872 24.2035 47.7382 23.5704Z" fill="var(--fill-0, #BABABA)"/>
<path id="Vector_30" d="M16.9201 62.6372C17.4952 62.0965 17.8348 62.2052 18.3505 62.7052C18.7552 62.6238 18.9908 61.6709 19.8964 62.7136C19.9008 62.9374 19.9101 63.177 19.9091 63.3992C19.0416 64.6503 18.6444 63.5302 18.2705 63.4275C17.8827 63.8606 17.5233 64.1409 16.9467 63.7108L16.7395 63.5019C16.8035 63.2812 16.8308 62.8888 16.878 62.6288L16.9201 62.6372Z" fill="var(--fill-0, #BABABA)"/>
<path id="Vector_31" d="M16.878 62.6288L16.9201 62.6372C16.9178 62.8892 16.8937 63.5019 16.9467 63.7107L16.7395 63.5019C16.8035 63.2811 16.8308 62.8887 16.878 62.6288Z" fill="var(--fill-0, #BABABA)"/>
<path id="Vector_32" d="M30.61 39.7923C30.9012 39.3706 31.4003 39.2466 31.8691 39.5085C32.197 39.6911 31.999 39.9183 32.189 40.0413C32.2848 39.9242 32.2312 39.6554 32.4931 39.509C32.9952 39.2278 33.4476 39.3741 33.7413 39.8518L33.7333 40.4873C33.2511 41.3778 32.701 40.9908 32.1692 40.4352L32.131 40.5012C31.8254 41.0231 31.6538 40.9546 31.0654 40.9402C30.8844 40.8192 30.7231 40.7264 30.6105 40.5344L30.5371 40.5121L30.5252 39.8216L30.61 39.7923Z" fill="var(--fill-0, #BABABA)"/>
<path id="Vector_33" d="M30.61 39.7923L30.6105 40.5344L30.5371 40.5121L30.5252 39.8216L30.61 39.7923Z" fill="var(--fill-0, #BABABA)"/>
<path id="Vector_34" d="M21.6931 34.0579C22.0485 33.4537 22.2687 33.548 22.9151 33.6017C23.1604 33.8293 23.3162 33.9705 23.3256 34.3313C23.3325 34.5537 23.2447 34.7686 23.084 34.9223C22.5501 35.4328 21.964 35.0324 21.6497 34.5094C21.4482 35.3653 20.3651 35.2894 20.1424 34.6341L20.0505 34.5543L20.0522 33.9979L20.1176 33.9892C20.2674 33.7777 20.3109 33.7429 20.512 33.5761C20.7708 33.5832 21.0255 33.5886 21.284 33.6055C21.4599 33.7775 21.5459 33.8625 21.6931 34.0579Z" fill="var(--fill-0, #BABABA)"/>
<path id="Vector_35" d="M20.1176 33.9892C20.1404 34.2374 20.1471 34.3852 20.1424 34.6341L20.0505 34.5543L20.0522 33.9979L20.1176 33.9892Z" fill="var(--fill-0, #BABABA)"/>
<path id="Vector_36" d="M40.6159 17.6509C41.2365 17.6724 41.4117 17.5589 41.616 18.1864L41.7048 18.2594C41.8532 18.1086 41.8269 17.958 42.1652 17.6784C42.5611 17.6685 42.8513 17.6174 43.1524 17.9244C43.4887 18.2673 43.4213 18.774 43.0562 19.0639C42.7526 19.3048 42.5521 19.26 42.1959 19.2317C41.9931 19.0764 41.7386 18.8484 41.7083 18.5803L41.7108 18.6745C41.5565 18.9145 41.4593 19.0352 41.242 19.22C40.7137 19.236 40.3059 19.2843 40.1387 18.6671L40.1283 18.1628C40.2662 17.8951 40.3654 17.8205 40.6159 17.6509Z" fill="var(--fill-0, #BABABA)"/>
<path id="Vector_37" d="M25.5193 39.4073C26.1225 39.4128 26.2852 39.3473 26.6329 39.8856C26.818 39.6767 26.9202 39.5944 27.1305 39.4217C27.3726 39.4128 27.6102 39.4232 27.8518 39.4302C27.9714 39.5249 28.1098 39.6554 28.2264 39.7591C28.2308 39.9843 28.2273 40.3018 28.2546 40.5176C27.7466 41.353 27.1613 40.9576 26.6612 40.4188C26.5089 40.6297 26.4142 40.7438 26.2381 40.9363C25.6636 40.9576 25.3263 41.0216 25.0564 40.4397L24.9661 40.4055C24.9587 40.205 24.9631 40.1654 24.9949 39.9664L25.0901 39.7794C25.2206 39.5978 25.3357 39.5363 25.5193 39.4073Z" fill="var(--fill-0, #BABABA)"/>
<path id="Vector_38" d="M24.9949 39.9664L25.0901 39.7794C25.0822 39.9942 25.0787 40.2269 25.0564 40.4397L24.9661 40.4054C24.9587 40.205 24.9631 40.1653 24.9949 39.9664Z" fill="var(--fill-0, #BABABA)"/>
<path id="Vector_39" d="M7.89708 21.9939C7.99451 21.9955 8.09189 21.9983 8.18927 22.0022C9.07502 22.0382 9.34047 22.9673 8.54253 23.543C7.8754 23.6544 7.77018 23.5702 7.38825 23.0394C7.07428 23.5849 6.44347 23.8362 5.98365 23.3223C5.83771 23.1563 5.77084 22.9351 5.8004 22.716C5.84996 22.3301 5.9971 22.2197 6.28914 21.9987C6.7244 21.9878 6.9645 21.95 7.26686 22.2856C7.28953 22.4123 7.30119 22.4754 7.33879 22.5978L7.41405 22.5998C7.48405 22.2805 7.64339 22.1999 7.89708 21.9939Z" fill="var(--fill-0, #BABABA)"/>
<path id="Vector_40" d="M33.8851 62.7747C34.4814 61.9298 35.4567 62.3713 35.3635 62.9215L35.4031 62.9587C35.4537 62.8654 35.5227 62.7548 35.5629 62.6601C35.803 62.096 36.6855 62.2359 36.9132 62.7528L36.9628 62.7533C36.9628 62.9557 36.9727 63.2484 36.945 63.4414L36.8686 63.4558C36.5863 64.2832 35.9017 63.9831 35.4542 63.4969L35.4066 63.4444C35.1839 63.6205 35.11 63.7683 34.8282 63.9008C34.3723 64.1156 34.0404 63.803 33.8722 63.3799C33.8931 63.2177 33.8847 62.9468 33.8851 62.7747Z" fill="var(--fill-0, #BABABA)"/>
<path id="Vector_41" d="M36.9132 62.7528L36.9628 62.7533C36.9628 62.9557 36.9727 63.2484 36.9449 63.4414L36.8686 63.4558C36.8651 63.1675 36.8586 63.043 36.9132 62.7528Z" fill="var(--fill-0, #BABABA)"/>
<path id="Vector_42" d="M0.526754 33.2827C0.78035 33.2386 0.94237 33.2672 1.19696 33.2897L1.20251 33.3864C1.71233 33.8112 1.9005 34.4151 1.24602 34.8025C1.06788 34.7955 1.03965 34.7856 0.871478 34.8657L0.872123 34.8633C1.00234 34.9213 1.03201 34.9312 1.17424 34.9352C1.75515 35.3454 1.88899 36.0578 1.1852 36.4021L1.15191 36.4755L0.54982 36.473L0.582812 36.4105C-0.051624 36.1511 -0.13933 35.4283 0.391326 34.9907C0.455518 34.9382 0.585193 35.021 0.734067 34.8563C-0.239588 34.7331 -0.14593 33.8446 0.505868 33.3463L0.526754 33.2827Z" fill="var(--fill-0, #BABABA)"/>
<path id="Vector_43" d="M0.526751 33.2827C0.780347 33.2386 0.942367 33.2672 1.19695 33.2897L1.20251 33.3864C1.01445 33.3585 0.704545 33.3548 0.505865 33.3463L0.526751 33.2827Z" fill="var(--fill-0, #BABABA)"/>
<path id="Vector_44" d="M0.582796 36.4105C0.833663 36.3808 0.928663 36.3887 1.18519 36.4021L1.1519 36.4755L0.549805 36.473L0.582796 36.4105Z" fill="var(--fill-0, #BABABA)"/>
<path id="Vector_45" d="M15.4841 45.5061C15.8225 44.8712 16.923 44.9009 16.9847 45.8445C17.0787 45.6808 17.0631 45.6346 17.0574 45.4481C17.4305 44.9103 18.3609 44.949 18.5128 45.6068L18.5111 46.1486C18.17 47.0023 17.4524 46.7806 16.9976 46.1679L16.9489 46.2245C16.4825 46.7597 15.9662 46.9626 15.5231 46.2532L15.405 46.1877C15.382 45.9189 15.3899 45.7963 15.4063 45.5309L15.4841 45.5061Z" fill="var(--fill-0, #BABABA)"/>
<path id="Vector_46" d="M15.4063 45.531L15.4841 45.5061C15.4846 45.7398 15.4696 46.032 15.5231 46.2532L15.405 46.1878C15.382 45.9189 15.3899 45.7964 15.4063 45.531Z" fill="var(--fill-0, #BABABA)"/>
<path id="Vector_47" d="M7.85429 39.3825C7.92394 39.382 7.99359 39.3825 8.06324 39.3835C8.97196 39.3989 9.33697 40.2254 8.61949 40.8663C8.03536 41.0707 7.75408 40.964 7.43093 40.464L7.39219 40.403C7.31574 40.4729 7.27581 40.6103 7.15983 40.7244C6.99245 40.8871 6.76495 40.9725 6.53204 40.9601C6.04678 40.9387 5.73117 40.5493 5.80027 40.0701C5.85157 39.7139 5.96765 39.6221 6.23955 39.4029C6.47087 39.3756 6.70314 39.3959 6.93679 39.4063C7.18994 39.6385 7.2071 39.7218 7.40003 39.9669L7.37637 39.9912L7.36064 39.9515C7.49156 39.8369 7.60377 39.6102 7.80106 39.4302L7.85429 39.3825Z" fill="var(--fill-0, #BABABA)"/>
<path id="Vector_48" d="M34.5325 13.4526C35.0842 13.4184 35.606 13.5838 35.677 14.2238C35.6973 14.3907 35.6497 14.5586 35.5445 14.6899C35.2905 15.0046 35.1799 14.8577 34.9691 14.9959L35.0167 15.0869C35.3525 15.1654 35.5678 15.2481 35.6422 15.6108C35.7454 16.1107 35.4403 16.4863 34.982 16.5879C34.7176 16.6056 34.5548 16.6059 34.3306 16.4077C33.8464 15.9793 33.9973 15.1116 34.7017 15.0577C34.8267 15.0482 34.7151 15.0854 34.8341 15.0352C34.79 15.013 34.7458 14.9909 34.7022 14.9687C34.0161 14.9998 33.71 14.0291 34.5325 13.4526Z" fill="var(--fill-0, #BABABA)"/>
<path id="Vector_49" d="M15.4245 34.0664C15.7929 33.4879 15.9481 33.5347 16.5852 33.5933L16.9283 33.9211L17.0068 33.9771C17.0153 34.2034 17.0325 34.4295 17.0086 34.6539L16.9296 34.6376C16.8265 34.9853 16.5576 35.1455 16.1928 35.1535C15.5307 35.1679 15.6124 34.6758 15.4174 34.4706L15.3919 34.4926C15.3545 34.7862 15.2536 34.955 14.9708 35.0791C14.7686 35.1674 14.5387 35.1679 14.3363 35.0801C14.091 34.9754 13.9912 34.837 13.8887 34.6033C13.9014 34.447 13.8876 34.2187 13.8828 34.057C14.0005 33.8194 14.1088 33.7479 14.3116 33.5751C14.5336 33.5731 14.7745 33.5848 14.9979 33.5911C15.2072 33.7767 15.2564 33.8403 15.4245 34.0664Z" fill="var(--fill-0, #BABABA)"/>
<path id="Vector_50" d="M16.9283 33.9211L17.0068 33.9771C17.0153 34.2034 17.0325 34.4295 17.0086 34.6539L16.9296 34.6376C16.9196 34.4148 16.9276 34.1478 16.9283 33.9211Z" fill="var(--fill-0, #BABABA)"/>
<path id="Vector_51" d="M6.40534 45.077C7.07554 45.085 7.14653 45.1113 7.35399 45.7115L7.43584 45.7487C7.52816 45.6431 7.49666 45.6321 7.50658 45.4545C8.06289 44.3627 9.96222 45.8792 8.42393 46.664C7.84918 46.6729 7.69385 46.667 7.41932 46.1297L7.38514 46.0622L7.34159 46.0965C7.32259 46.5539 6.69758 46.7825 6.29054 46.603C6.08765 46.5117 5.93178 46.3405 5.8602 46.1297C5.69788 45.6525 5.91164 45.2075 6.40534 45.077Z" fill="var(--fill-0, #BABABA)"/>
<path id="Vector_52" d="M11.1169 33.5949C12.2919 33.4625 11.8677 33.8154 12.2863 34.0754L12.3796 34.0231C12.4679 33.7997 12.4983 33.7716 12.6751 33.6064C12.9034 33.5859 13.1471 33.5806 13.3773 33.5714C13.5933 33.7345 13.6614 33.7728 13.8047 33.9982L13.8828 34.057C13.8876 34.2187 13.9014 34.447 13.8887 34.6033L13.8142 34.6236C13.6537 35.1644 13.2705 35.1416 12.8122 35.1366C12.5253 34.9441 12.4607 34.8474 12.2577 34.5822C12.0203 35.1932 11.7006 35.1282 11.1496 35.0815C10.5644 34.5908 10.5772 34.1211 11.1169 33.5949Z" fill="var(--fill-0, #BABABA)"/>
<path id="Vector_53" d="M13.8047 33.9981L13.8828 34.057C13.8876 34.2187 13.9014 34.4469 13.8887 34.6033L13.8142 34.6236C13.7955 34.4656 13.8048 34.1681 13.8047 33.9981Z" fill="var(--fill-0, #BABABA)"/>
<path id="Vector_54" d="M18.9172 33.5755C19.444 33.5593 19.7608 33.4919 20.0522 33.9979L20.0505 34.5543C19.7109 35.4209 18.9448 35.2849 18.4732 34.5908C18.2265 35.3335 17.2884 35.3068 17.0086 34.6539C17.0325 34.4295 17.0153 34.2034 17.0068 33.9771C17.1455 33.7922 17.1991 33.7364 17.369 33.5789C17.9478 33.5744 18.1569 33.4832 18.4829 34.0213C18.6112 33.8855 18.7808 33.6948 18.9172 33.5755Z" fill="var(--fill-0, #BABABA)"/>
<path id="Vector_55" d="M15.0249 62.3267L15.3641 62.5946C15.4069 62.7032 15.393 62.6809 15.4581 62.7781C15.5191 62.7176 15.5806 62.6581 15.6425 62.599L15.6996 62.5425C16.1287 62.1258 16.5052 62.1684 16.878 62.6288C16.8308 62.8888 16.8035 63.2812 16.7395 63.5019C16.4984 63.7733 16.1332 64.0144 15.7349 63.8254C15.5652 63.7445 15.5054 63.4215 15.4652 63.243C15.4089 64.1166 14.3353 64.2088 13.9528 63.4146L13.9449 62.8163C14.1753 62.2538 14.5075 62.3108 15.0249 62.3267Z" fill="var(--fill-0, #BABABA)"/>
<path id="Vector_56" d="M29.0345 27.9629C29.4914 27.8709 29.6967 27.8196 30.1685 27.8542C30.3064 27.9429 30.4746 28.0383 30.5822 28.156C30.5698 28.4251 30.555 28.6231 30.5778 28.8936C30.2583 29.6599 29.5732 29.2778 28.9963 29.247L28.8589 29.2679C28.5548 29.2174 28.4749 29.2309 28.3296 28.9524L28.2814 28.9571C28.2755 28.6905 28.2849 28.4428 28.2938 28.1773L28.3836 28.1582C28.5265 28.0344 28.6575 28.0084 28.8375 27.9485L29.0345 27.9629Z" fill="var(--fill-0, #BABABA)"/>
<path id="Vector_57" d="M28.8375 27.9485L29.0345 27.9629C28.9452 28.18 28.97 28.9904 28.9963 29.247L28.8589 29.2679C28.5548 29.2174 28.4749 29.2309 28.3296 28.9524L28.2814 28.9571C28.2755 28.6905 28.2849 28.4429 28.2938 28.1774L28.3836 28.1583C28.5265 28.0344 28.6575 28.0084 28.8375 27.9485Z" fill="var(--fill-0, #BABABA)"/>
<path id="Vector_58" d="M28.8375 27.9485L29.0345 27.9629C28.9452 28.18 28.97 28.9904 28.9963 29.247L28.8589 29.2679C28.899 28.9895 28.9353 28.1991 28.8375 27.9485Z" fill="var(--fill-0, #BABABA)"/>
<path id="Vector_59" d="M28.2938 28.1774L28.3836 28.1583C28.3821 28.4822 28.3737 28.63 28.3296 28.9524L28.2814 28.9571C28.2755 28.6905 28.2849 28.4429 28.2938 28.1774Z" fill="var(--fill-0, #BABABA)"/>
<path id="Vector_60" d="M29.0131 39.6946C29.3931 39.2541 30.2494 39.3101 30.5252 39.8216L30.5371 40.5121C30.176 41.027 29.5107 41.0776 29.0141 40.7304L28.9075 40.7373C28.6098 40.8509 28.5205 40.7691 28.3176 40.5523L28.2546 40.5176C28.2274 40.3018 28.2308 39.9843 28.2264 39.7591L28.2968 39.7298C28.5012 39.4059 28.7254 39.3473 28.9878 39.6911L29.0131 39.6946Z" fill="var(--fill-0, #BABABA)"/>
<path id="Vector_61" d="M28.2968 39.7298C28.5012 39.4059 28.7254 39.3473 28.9878 39.6911L29.0131 39.6946C29.0241 40.0498 29.0389 40.3752 29.0141 40.7304L28.9075 40.7373C28.6098 40.8509 28.5205 40.7691 28.3176 40.5523L28.2546 40.5176C28.2274 40.3018 28.2308 39.9843 28.2264 39.7591L28.2968 39.7298Z" fill="var(--fill-0, #BABABA)"/>
<path id="Vector_62" d="M28.9878 39.6911L29.0131 39.6946C29.0241 40.0498 29.0389 40.3752 29.0141 40.7304L28.9075 40.7373C28.9685 40.3935 28.8847 40.1192 28.9878 39.6911Z" fill="var(--fill-0, #BABABA)"/>
<path id="Vector_63" d="M28.2264 39.759L28.2968 39.7298C28.3519 40.0165 28.3281 40.2606 28.3176 40.5523L28.2546 40.5176C28.2274 40.3018 28.2308 39.9843 28.2264 39.759Z" fill="var(--fill-0, #BABABA)"/>
<path id="Vector_64" d="M29.353 4.93119C29.5951 4.92717 29.8441 4.91755 30.0852 4.93198C30.2801 5.10169 30.356 5.16177 30.5138 5.36045C30.4939 5.76217 30.5217 6.06052 30.1879 6.3403C29.8054 6.66107 29.2681 6.46953 28.9263 6.19723L28.8871 6.21271L28.7492 6.30399C28.5751 6.30235 28.5315 6.24243 28.394 6.1323C28.399 5.83738 28.3549 5.56082 28.3172 5.26853C28.4327 5.11241 28.4541 5.094 28.6307 5.05199C28.8048 5.11539 28.7373 5.06097 28.8341 5.22874L28.9293 5.25821C29.0965 5.08076 29.1406 5.06196 29.353 4.93119Z" fill="var(--fill-0, #BABABA)"/>
<path id="Vector_65" d="M28.3172 5.26853C28.4327 5.11241 28.4541 5.09401 28.6307 5.05199C28.8048 5.11539 28.7373 5.06097 28.8341 5.22874L28.9293 5.25821C28.9338 5.57124 28.9328 5.88426 28.9263 6.19724L28.8871 6.21272L28.7492 6.30399C28.5751 6.30236 28.5315 6.24243 28.394 6.1323C28.399 5.83738 28.3549 5.56082 28.3172 5.26853Z" fill="var(--fill-0, #BABABA)"/>
<path id="Vector_66" d="M28.8341 5.22874L28.9293 5.25821C28.9338 5.57123 28.9328 5.88426 28.9263 6.19724L28.8871 6.21271C28.8107 5.91274 28.8281 5.54172 28.8341 5.22874Z" fill="var(--fill-0, #BABABA)"/>
<path id="Vector_67" d="M34.5911 6.549C34.7002 6.57361 34.8133 6.57212 34.9214 6.54468L35.0534 6.65898C35.679 6.80081 35.9205 7.85587 35.4046 8.26762C35.0822 8.52493 34.8991 8.46813 34.5176 8.44908C34.3892 8.33474 34.1987 8.17862 34.1292 8.02176C33.9005 7.50311 34.0935 6.90052 34.6069 6.65397L34.5911 6.549Z" fill="var(--fill-0, #BABABA)"/>
<path id="Vector_68" d="M34.5911 6.549C34.7002 6.57361 34.8133 6.57212 34.9214 6.54468L35.0534 6.65898C34.9041 6.66493 34.7562 6.65779 34.6069 6.65397L34.5911 6.549Z" fill="var(--fill-0, #BABABA)"/>
<path id="Vector_69" d="M47.7153 42.8437L48.3984 42.9399C49.0374 43.502 49.0875 44.0601 48.4193 44.634C47.1567 44.7511 47.2694 44.3041 47.2579 43.2797C47.4261 43.0778 47.5099 43.0118 47.7153 42.8437Z" fill="var(--fill-0, #BABABA)"/>
<path id="Vector_70" d="M23.334 62.731C23.6585 62.3044 23.7865 62.3073 24.3143 62.3222L24.4869 62.3267C24.725 62.5038 24.8034 62.5489 24.9518 62.799L25.053 62.7905C25.0539 62.9493 25.0644 63.2157 25.045 63.3635L25.0098 63.3491L24.9518 63.3804C24.5708 64.1652 23.7627 64.1463 23.3167 63.4067L23.2378 63.3804C23.2175 63.18 23.2189 62.9959 23.217 62.796L23.334 62.731Z" fill="var(--fill-0, #BABABA)"/>
<path id="Vector_71" d="M24.9517 62.799L25.053 62.7905C25.0539 62.9493 25.0644 63.2157 25.045 63.3635L25.0098 63.3491L24.9517 63.3804C24.9279 63.1388 24.9359 63.045 24.9517 62.799Z" fill="var(--fill-0, #BABABA)"/>
<path id="Vector_72" d="M23.217 62.796L23.334 62.731C23.3246 62.9587 23.3137 63.1785 23.3167 63.4067L23.2378 63.3804C23.2175 63.18 23.2189 62.9959 23.217 62.796Z" fill="var(--fill-0, #BABABA)"/>
<path id="Vector_73" d="M0.501557 16.933C0.948326 16.9135 1.24458 16.8836 1.53489 17.2999C1.67022 17.4946 1.72067 17.7358 1.67463 17.9684C1.59958 18.3295 1.45075 18.461 1.15841 18.6433C0.906653 18.6543 0.656283 18.6309 0.404424 18.6146C-0.186803 18.0497 -0.100336 17.4461 0.501557 16.933Z" fill="var(--fill-0, #BABABA)"/>
<path id="Vector_74" d="M45.7439 17.6884C46.0847 17.6637 46.2831 17.6286 46.5912 17.7704C46.8075 17.9663 46.9782 18.0724 47.0124 18.3673C46.808 19.3793 45.6983 19.6403 45.2468 18.7581L45.1387 18.7241C45.1303 18.6302 45.1506 18.2818 45.1546 18.1688L45.3059 18.1117C45.4706 17.8971 45.5286 17.8563 45.7439 17.6884Z" fill="var(--fill-0, #BABABA)"/>
<path id="Vector_75" d="M45.1546 18.1688L45.3059 18.1117C45.2543 18.3916 45.2439 18.4744 45.2468 18.7581L45.1387 18.7241C45.1303 18.6302 45.1506 18.2818 45.1546 18.1688Z" fill="var(--fill-0, #BABABA)"/>
<path id="Vector_76" d="M43.9149 19.2168C42.4688 18.3028 44.3519 16.81 45.1546 18.1688C45.1506 18.2818 45.1303 18.6302 45.1387 18.7241C44.975 18.947 44.849 19.0512 44.6476 19.2346C44.4204 19.2445 44.146 19.2261 43.9149 19.2168Z" fill="var(--fill-0, #BABABA)"/>
<path id="Vector_77" d="M23.8331 4.88241C24.3505 4.87586 24.6561 4.85041 24.9612 5.3394L25.0579 5.36286C25.0658 5.55727 25.0812 5.77664 25.0688 5.96877L24.9572 5.98971C24.6199 6.70639 23.7393 6.62603 23.3608 5.95756L23.276 5.87685C23.2765 5.6871 23.2631 5.49507 23.2527 5.30536L23.3514 5.35269C23.5369 5.10138 23.5806 5.06968 23.8331 4.88241Z" fill="var(--fill-0, #BABABA)"/>
<path id="Vector_78" d="M24.9612 5.33941L25.0579 5.36288C25.0658 5.55729 25.0812 5.77666 25.0688 5.96879L24.9572 5.98973L24.9612 5.33941Z" fill="var(--fill-0, #BABABA)"/>
<path id="Vector_79" d="M23.3514 5.35271C23.3797 5.60139 23.3727 5.70383 23.3608 5.95758L23.276 5.87687C23.2765 5.68712 23.2631 5.49508 23.2527 5.30538L23.3514 5.35271Z" fill="var(--fill-0, #BABABA)"/>
<path id="Vector_80" d="M6.21781 62.3173C6.78022 62.2979 6.94154 62.2468 7.28751 62.7399L7.29872 63.4136C6.89858 64.0848 6.10996 64.1587 5.6936 63.4766L5.60138 63.4543C5.60629 63.1675 5.59905 62.9756 5.66741 62.6928L5.74475 62.6764C5.89526 62.5564 6.05688 62.4195 6.21781 62.3173Z" fill="var(--fill-0, #BABABA)"/>
<path id="Vector_81" d="M5.74475 62.6764C5.69971 62.9512 5.70109 63.1983 5.6936 63.4766L5.60138 63.4543C5.60629 63.1675 5.59905 62.9756 5.66741 62.6928L5.74475 62.6764Z" fill="var(--fill-0, #BABABA)"/>
<path id="Vector_82" d="M47.7332 54.4128C47.9028 54.4217 48.1787 54.4276 48.3384 54.4485L48.3657 54.5353C48.6083 54.7307 48.8151 54.9158 48.8608 55.2452C48.8896 55.4481 48.8325 55.6534 48.7035 55.8122C48.6222 55.9139 48.4852 56.0106 48.3741 56.0781L48.3831 56.1857L47.7109 56.1475L47.6866 56.0711C47.0739 55.5374 47.0119 55.0502 47.6667 54.5288L47.7332 54.4128Z" fill="var(--fill-0, #BABABA)"/>
<path id="Vector_83" d="M47.7332 54.4128C47.9028 54.4217 48.1787 54.4276 48.3384 54.4485L48.3657 54.5353L47.6667 54.5288L47.7332 54.4128Z" fill="var(--fill-0, #BABABA)"/>
<path id="Vector_84" d="M47.6865 56.0711L48.3741 56.0781L48.383 56.1857L47.7109 56.1475L47.6865 56.0711Z" fill="var(--fill-0, #BABABA)"/>
<path id="Vector_85" d="M0.517618 11.8233L1.13712 11.8216L1.14962 11.9179C1.8224 12.3452 1.86492 13.1385 1.12065 13.4818L1.10205 13.5679L0.553337 13.5536L0.570054 13.4965C-0.181109 13.1942 -0.103274 12.3829 0.458536 11.9123L0.517618 11.8233Z" fill="var(--fill-0, #BABABA)"/>
<path id="Vector_86" d="M0.517616 11.8233L1.13712 11.8216L1.14962 11.9179L0.458534 11.9123L0.517616 11.8233Z" fill="var(--fill-0, #BABABA)"/>
<path id="Vector_87" d="M0.570058 13.4965C0.817502 13.4539 0.868896 13.4586 1.12066 13.4818L1.10205 13.5679L0.553341 13.5536L0.570058 13.4965Z" fill="var(--fill-0, #BABABA)"/>
<path id="Vector_88" d="M23.3936 45.6356C23.4764 45.402 23.5568 45.2303 23.7998 45.1252C24.0489 45.0175 24.3311 45.017 24.5812 45.1232C24.7672 45.202 24.9478 45.3722 25.0103 45.5657C25.0162 45.7343 25.0172 45.9372 25.0316 46.1024C24.7097 46.8585 23.7497 46.9398 23.4114 46.1004L23.337 46.0702C23.3157 45.9149 23.3286 45.7973 23.337 45.6426L23.3936 45.6356Z" fill="var(--fill-0, #BABABA)"/>
<path id="Vector_89" d="M23.337 45.6426L23.3936 45.6356C23.4065 45.8073 23.4169 45.9288 23.4114 46.1004L23.337 46.0702C23.3157 45.9149 23.3286 45.7973 23.337 45.6426Z" fill="var(--fill-0, #BABABA)"/>
<path id="Vector_90" d="M30.619 62.7092C31.0719 62.2076 31.8631 62.1169 32.1712 62.7757L32.2555 62.7657C32.2431 62.9895 32.2372 63.1373 32.1975 63.359L32.1454 63.3789C31.8403 64.0635 30.9657 64.1324 30.613 63.4786L30.5148 63.4488C30.5187 63.2043 30.5103 62.9661 30.5034 62.7216L30.619 62.7092Z" fill="var(--fill-0, #BABABA)"/>
<path id="Vector_91" d="M30.5034 62.7216L30.619 62.7092C30.6115 62.9731 30.6026 63.2142 30.613 63.4786L30.5148 63.4488C30.5187 63.2043 30.5103 62.9661 30.5034 62.7216Z" fill="var(--fill-0, #BABABA)"/>
<path id="Vector_92" d="M32.1712 62.7757L32.2555 62.7657C32.2431 62.9895 32.2372 63.1373 32.1975 63.359L32.1454 63.3789C32.1454 63.1715 32.1583 62.9815 32.1712 62.7757Z" fill="var(--fill-0, #BABABA)"/>
<path id="Vector_93" d="M9.48713 4.85295L10.1802 4.88708C10.4211 5.07212 10.457 5.10635 10.6373 5.35022L10.6261 5.82472C10.5643 6.15784 10.4563 6.23002 10.1977 6.46189C9.64969 6.47781 9.38846 6.52623 9.06204 6.01804L8.95265 5.96546C8.93286 5.78667 8.94829 5.58427 8.95543 5.40251L9.02518 5.36684C9.16135 5.1258 9.28349 5.02975 9.48713 4.85295Z" fill="var(--fill-0, #BABABA)"/>
<path id="Vector_94" d="M9.02518 5.36683C9.03183 5.54384 9.03426 5.85379 9.06204 6.01804L8.95265 5.96545C8.93286 5.78667 8.94829 5.58427 8.95543 5.4025L9.02518 5.36683Z" fill="var(--fill-0, #BABABA)"/>
<path id="Vector_95" d="M47.7307 30.1359C46.9608 29.6827 47.1468 28.7325 47.9366 28.5568C48.8791 28.3471 49.2948 29.788 48.3964 30.1375L48.3111 30.2198L47.7193 30.2296L47.7307 30.1359Z" fill="var(--fill-0, #BABABA)"/>
<path id="Vector_96" d="M47.7307 30.1359C47.9227 30.1354 48.2134 30.125 48.3964 30.1375L48.3111 30.2198L47.7193 30.2296L47.7307 30.1359Z" fill="var(--fill-0, #BABABA)"/>
<path id="Vector_97" d="M47.7401 39.5711C47.9688 39.5626 48.1836 39.5512 48.4128 39.5597L48.3835 39.646C49.0706 40.0344 48.9863 40.6922 48.4361 41.1669L48.3885 41.2543L47.6727 41.2572L47.7183 41.1605C47.1404 40.7547 46.9851 39.9699 47.7089 39.6311L47.7401 39.5711Z" fill="var(--fill-0, #BABABA)"/>
<path id="Vector_98" d="M47.7183 41.1605C48.0041 41.1466 48.1449 41.1441 48.4361 41.1669L48.3885 41.2542L47.6727 41.2572L47.7183 41.1605Z" fill="var(--fill-0, #BABABA)"/>
<path id="Vector_99" d="M47.7401 39.5711C47.9688 39.5626 48.1836 39.5512 48.4128 39.5597L48.3836 39.646C48.0983 39.6618 47.9921 39.6628 47.7089 39.6311L47.7401 39.5711Z" fill="var(--fill-0, #BABABA)"/>
<path id="Vector_100" d="M22.1419 4.87107C22.7289 4.86675 22.8668 4.8351 23.2527 5.30538C23.2631 5.49508 23.2765 5.68712 23.276 5.87687C22.9731 6.68781 22.0643 6.65948 21.6731 5.97499L21.5792 5.99389L21.5855 5.34348L21.6806 5.32012C21.8274 5.08106 21.911 5.03775 22.1419 4.87107Z" fill="var(--fill-0, #BABABA)"/>
<path id="Vector_101" d="M21.5855 5.34348L21.6806 5.32011L21.6731 5.97498L21.5792 5.99388L21.5855 5.34348Z" fill="var(--fill-0, #BABABA)"/>
<path id="Vector_102" d="M2.30921 5.70641C2.73297 5.10725 3.54922 4.35985 3.9439 5.46462L4.01771 5.42156C4.05631 5.64376 4.08701 5.83971 4.11326 6.06364L3.99737 6.1251C3.73088 6.77685 2.96697 6.67962 2.5134 6.23345C2.49688 6.15958 2.34583 5.79853 2.30921 5.70641Z" fill="var(--fill-0, #BABABA)"/>
<path id="Vector_103" d="M3.94388 5.46461L4.01769 5.42155C4.05629 5.64375 4.087 5.8397 4.11324 6.06363L3.99735 6.12509C3.9726 5.90568 3.9595 5.68497 3.94388 5.46461Z" fill="var(--fill-0, #BABABA)"/>
<path id="Vector_104" d="M30.6626 28.1842C31.1245 27.6926 31.9142 27.5483 32.2019 28.2679L32.2193 28.9017C31.8696 29.6233 31.0848 29.5509 30.6621 28.9315L30.5778 28.8936C30.555 28.6231 30.5698 28.4251 30.5822 28.156L30.6626 28.1842Z" fill="var(--fill-0, #BABABA)"/>
<path id="Vector_105" d="M30.5822 28.156L30.6626 28.1843L30.6621 28.9315L30.5778 28.8936C30.555 28.6231 30.5698 28.4251 30.5822 28.156Z" fill="var(--fill-0, #BABABA)"/>
<path id="Vector_106" d="M5.693 5.41001C5.9972 4.6015 6.83855 4.75211 7.31637 5.33238C7.32501 5.70429 7.35829 5.98075 7.06005 6.24883C6.52012 6.73415 5.95915 6.47862 5.68507 5.8927L5.6056 5.91477L5.61924 5.43566L5.693 5.41001Z" fill="var(--fill-0, #BABABA)"/>
<path id="Vector_107" d="M5.693 5.41C5.70293 5.6057 5.71478 5.70135 5.68507 5.89268L5.6056 5.91476L5.61924 5.43565L5.693 5.41Z" fill="var(--fill-0, #BABABA)"/>
<path id="Vector_108" d="M0.449997 15.1338L0.941413 15.1556L0.912491 15.2323C2.54965 15.4064 1.17908 17.9184 0.0588865 16.3906C0.0399859 15.8517 0.00203824 15.6735 0.395578 15.2686L0.449997 15.1338Z" fill="var(--fill-0, #BABABA)"/>
<path id="Vector_109" d="M0.449999 15.1338L0.941415 15.1556L0.912493 15.2323C0.771408 15.2417 0.526842 15.2499 0.395579 15.2686L0.449999 15.1338Z" fill="var(--fill-0, #BABABA)"/>
<path id="Vector_110" d="M19.9693 5.41668C20.3001 4.6804 21.1538 4.67782 21.5855 5.34346L21.5792 5.99387C21.3256 6.51907 20.9362 6.4778 20.4414 6.45835C20.2097 6.27515 20.1258 6.17906 19.9869 5.92343L19.9002 5.87427C19.9383 5.72857 19.9352 5.57513 19.8912 5.43107L19.9693 5.41668Z" fill="var(--fill-0, #BABABA)"/>
<path id="Vector_111" d="M19.9693 5.41671C20.0023 5.64476 20.0003 5.69079 19.9869 5.92345L19.9002 5.87429C19.9383 5.72859 19.9352 5.57516 19.8912 5.43109L19.9693 5.41671Z" fill="var(--fill-0, #BABABA)"/>
<path id="Vector_112" d="M25.0579 5.36286C25.3952 4.6428 26.1666 4.71017 26.6449 5.26161C26.6831 5.64875 26.7203 5.9156 26.4509 6.23071C26.0099 6.74663 25.3531 6.51253 25.0688 5.96878C25.0812 5.77664 25.0658 5.55728 25.0579 5.36286Z" fill="var(--fill-0, #BABABA)"/>
<path id="Vector_113" d="M0.579238 25.1462C0.820382 25.103 0.897971 25.1126 1.14785 25.1221L1.15067 25.2023C1.69338 25.5442 1.90521 26.1642 1.34449 26.6236C1.03925 26.8737 0.77157 26.8077 0.411615 26.7498C-0.131939 26.2666 -0.126086 25.57 0.545208 25.2164L0.579238 25.1462Z" fill="var(--fill-0, #BABABA)"/>
<path id="Vector_114" d="M0.579232 25.1462C0.820376 25.103 0.897965 25.1126 1.14784 25.1221L1.15067 25.2023C0.953129 25.2136 0.743882 25.2133 0.545203 25.2164L0.579232 25.1462Z" fill="var(--fill-0, #BABABA)"/>
<path id="Vector_115" d="M12.3313 62.8342C12.6333 62.2538 12.7948 62.3014 13.419 62.3232C13.6305 62.4785 13.7645 62.5524 13.87 62.793L13.9449 62.8163L13.9528 63.4146L13.8741 63.426C13.6052 64.1205 12.5513 64.1265 12.3589 63.357L12.276 63.3367C12.2576 63.1909 12.2698 63.0098 12.2738 62.86L12.3313 62.8342Z" fill="var(--fill-0, #BABABA)"/>
<path id="Vector_116" d="M13.87 62.793L13.9449 62.8163L13.9528 63.4146L13.8741 63.426C13.8396 63.169 13.8545 63.0485 13.87 62.793Z" fill="var(--fill-0, #BABABA)"/>
<path id="Vector_117" d="M12.3313 62.8342C12.3433 63.0063 12.361 63.1854 12.3589 63.357L12.276 63.3367C12.2576 63.1909 12.2698 63.0098 12.2738 62.86L12.3313 62.8342Z" fill="var(--fill-0, #BABABA)"/>
<path id="Vector_118" d="M10.6672 63.4091L10.6667 63.3451C10.6674 62.3951 10.947 62.2825 11.8198 62.3282C12.0338 62.5043 12.159 62.6109 12.2738 62.86C12.2698 63.0098 12.2576 63.1909 12.276 63.3367C12.1593 63.7772 11.8233 64.0292 11.3588 63.9345C10.975 63.8556 10.8831 63.7217 10.6672 63.4091Z" fill="var(--fill-0, #BABABA)"/>
<path id="Vector_119" d="M47.7218 52.7876L48.4148 52.7965L48.4317 52.9181C48.838 53.2723 49.0969 53.7872 48.6485 54.2361C48.5587 54.3249 48.454 54.3974 48.3384 54.4485C48.1787 54.4276 47.9028 54.4217 47.7332 54.4127C46.992 53.9881 47.1037 53.4052 47.6652 52.8813L47.7218 52.7876Z" fill="var(--fill-0, #BABABA)"/>
<path id="Vector_120" d="M47.7218 52.7876L48.4148 52.7965L48.4317 52.9181C48.2154 52.8972 47.8899 52.8918 47.6652 52.8813L47.7218 52.7876Z" fill="var(--fill-0, #BABABA)"/>
<path id="Vector_121" d="M28.3186 6.13141C27.9381 6.51255 27.4465 6.68186 27.0159 6.25865C26.8264 6.07352 26.7242 5.81719 26.7337 5.55263C26.7659 4.77324 27.8131 4.64322 28.2899 5.26436L28.3172 5.26853C28.3549 5.56082 28.399 5.83738 28.394 6.1323L28.3186 6.13141Z" fill="var(--fill-0, #BABABA)"/>
<path id="Vector_122" d="M28.2899 5.26435L28.3172 5.26852C28.3549 5.56081 28.399 5.83737 28.394 6.13229L28.3186 6.1314C28.2725 5.83841 28.2864 5.56066 28.2899 5.26435Z" fill="var(--fill-0, #BABABA)"/>
<path id="Vector_123" d="M32.2555 62.7657C32.5641 62.3128 33.1241 62.1268 33.5781 62.4864C33.6803 62.5673 33.7641 62.669 33.8251 62.7846L33.8851 62.7747C33.8846 62.9468 33.8931 63.2177 33.8722 63.3799L33.7909 63.4002C33.4297 64.1642 32.5864 64.0932 32.1975 63.359C32.2372 63.1373 32.2431 62.9895 32.2555 62.7657Z" fill="var(--fill-0, #BABABA)"/>
<path id="Vector_124" d="M33.8251 62.7846L33.8851 62.7746C33.8846 62.9468 33.8931 63.2176 33.8722 63.3799L33.7909 63.4002C33.7874 63.1497 33.7939 63.0331 33.8251 62.7846Z" fill="var(--fill-0, #BABABA)"/>
<path id="Vector_125" d="M25.0887 45.5756C25.2514 44.9848 25.801 45.0364 26.2857 45.1271C26.6726 45.4784 26.9157 45.9496 26.4856 46.3921C26.3036 46.5772 26.0525 46.6784 25.7931 46.6714C25.4057 46.6615 25.2142 46.4532 25.0837 46.1148L25.0316 46.1024C25.0172 45.9372 25.0162 45.7343 25.0103 45.5657L25.0887 45.5756Z" fill="var(--fill-0, #BABABA)"/>
<path id="Vector_126" d="M25.0103 45.5657L25.0887 45.5756C25.1095 45.8241 25.1155 45.8718 25.0837 46.1148L25.0316 46.1024C25.0172 45.9372 25.0162 45.7343 25.0103 45.5657Z" fill="var(--fill-0, #BABABA)"/>
<path id="Vector_127" d="M0.553034 18.7135L1.15185 18.7109C1.75995 19.2823 1.91537 19.8929 1.12685 20.3713C-0.0793669 20.4151 -0.362678 19.4115 0.553034 18.7135Z" fill="var(--fill-0, #BABABA)"/>
<path id="Vector_128" d="M40.0802 62.7776C40.5911 62.2007 41.1611 62.0658 41.6518 62.7588L41.7306 62.7394C41.7296 62.9324 41.7351 63.1695 41.7242 63.358L41.6299 63.4176C41.3938 63.9538 40.8808 64.1915 40.4031 63.7624C40.0544 63.4488 40.0876 63.2072 40.0802 62.7776Z" fill="var(--fill-0, #BABABA)"/>
<path id="Vector_129" d="M41.6518 62.7588L41.7306 62.7394C41.7296 62.9324 41.7351 63.1695 41.7242 63.358L41.6299 63.4176L41.6518 62.7588Z" fill="var(--fill-0, #BABABA)"/>
<path id="Vector_130" d="M47.7099 51.152L48.3915 51.1674L48.3756 51.2626C48.6281 51.4531 48.833 51.6332 48.8727 51.97C48.8985 52.1903 48.8285 52.4115 48.6807 52.5772C48.6083 52.6561 48.5041 52.7375 48.4148 52.7965L47.7218 52.7876C47.6434 52.7335 47.5323 52.6457 47.4653 52.5797C47.2996 52.42 47.2113 52.1967 47.2222 51.9671C47.2406 51.6253 47.436 51.4576 47.6776 51.2527L47.7099 51.152Z" fill="var(--fill-0, #BABABA)"/>
<path id="Vector_131" d="M47.7099 51.152L48.3915 51.1674L48.3756 51.2626L47.6776 51.2527L47.7099 51.152Z" fill="var(--fill-0, #BABABA)"/>
<path id="Vector_132" d="M0.538201 52.7667C0.732664 52.7638 0.93804 52.7543 1.13067 52.7722L1.14396 52.8516C1.81957 53.3224 1.8979 54.066 1.07977 54.4122L1.09599 54.4857L0.582798 54.4748L0.532148 54.3939C-0.107199 53.9767 -0.146638 53.2053 0.54316 52.8436L0.538201 52.7667Z" fill="var(--fill-0, #BABABA)"/>
<path id="Vector_133" d="M0.538202 52.7667C0.732665 52.7638 0.938042 52.7543 1.13067 52.7722L1.14396 52.8516C0.951883 52.857 0.737178 52.8476 0.543162 52.8436L0.538202 52.7667Z" fill="var(--fill-0, #BABABA)"/>
<path id="Vector_134" d="M0.532147 54.3939L1.07977 54.4122L1.09599 54.4857L0.582796 54.4747L0.532147 54.3939Z" fill="var(--fill-0, #BABABA)"/>
<path id="Vector_135" d="M0.581455 56.0568C0.811487 56.0196 0.852663 56.021 1.08498 56.0468L1.09971 56.1341C1.53775 56.347 1.84998 56.7433 1.59127 57.2265C1.46587 57.4567 1.25131 57.6259 0.997866 57.6933C0.109636 57.9389 -0.351717 56.8535 0.435114 56.1758C0.558192 56.1168 0.517114 56.1634 0.581455 56.0568Z" fill="var(--fill-0, #BABABA)"/>
<path id="Vector_136" d="M0.581452 56.0568C0.811484 56.0196 0.852659 56.021 1.08497 56.0468L1.09971 56.1341L0.435111 56.1758C0.558188 56.1168 0.51711 56.1634 0.581452 56.0568Z" fill="var(--fill-0, #BABABA)"/>
<path id="Vector_137" d="M31.1498 4.89661C31.4578 4.79149 31.7991 4.87676 32.0214 5.11459C32.2436 5.35236 32.3061 5.69847 32.1806 5.9989C32.0883 6.2199 31.9048 6.39005 31.6771 6.46536C31.245 6.60863 30.7777 6.37537 30.6328 5.94353C30.4875 5.51175 30.7187 5.04375 31.1498 4.89661Z" fill="var(--fill-0, #BABABA)"/>
<path id="Vector_138" d="M0.583204 44.7159C1.00378 44.5795 1.45749 44.7977 1.61326 45.2115C1.76903 45.6252 1.57174 46.0885 1.1654 46.2631C0.885515 46.3832 0.562218 46.34 0.323852 46.15C0.0854861 45.9605 -0.0294054 45.6555 0.0247664 45.3558C0.0789879 45.0557 0.293493 44.8101 0.583204 44.7159Z" fill="var(--fill-0, #BABABA)"/>
<path id="Vector_139" d="M47.7496 49.5616C47.8989 49.5601 48.258 49.5472 48.389 49.5641L48.4148 49.6648C48.6579 49.8508 48.829 50.0086 48.8682 50.3315C48.893 50.5374 48.8365 50.7447 48.711 50.9099C48.6361 51.0072 48.4996 51.1084 48.3915 51.1674L47.7099 51.152C47.0283 50.7388 47.1161 50.1847 47.6231 49.6663L47.7496 49.5616Z" fill="var(--fill-0, #BABABA)"/>
<path id="Vector_140" d="M47.7496 49.5616C47.8989 49.5601 48.258 49.5472 48.389 49.5641L48.4148 49.6648L47.6231 49.6663L47.7496 49.5616Z" fill="var(--fill-0, #BABABA)"/>
<path id="Vector_141" d="M12.7943 4.88198C13.5556 4.87911 14.0309 4.97247 13.9156 5.87836C13.909 5.92956 13.9018 5.98065 13.8942 6.0317C13.4201 6.66192 12.8718 6.64897 12.3941 6.02654L12.2794 5.96641C12.2685 5.8036 12.2793 5.551 12.2811 5.38079L12.3543 5.37385C12.514 5.12268 12.5764 5.0756 12.7943 4.88198Z" fill="var(--fill-0, #BABABA)"/>
<path id="Vector_142" d="M12.2811 5.38078L12.3543 5.37384C12.3657 5.56681 12.3729 5.84149 12.3941 6.02653L12.2794 5.9664C12.2685 5.80359 12.2793 5.55099 12.2811 5.38078Z" fill="var(--fill-0, #BABABA)"/>
<path id="Vector_143" d="M38.9531 62.3272L39.5687 62.3227C41.0247 63.241 38.9933 64.8031 38.4962 63.3699L38.4277 63.368C38.3995 63.1998 38.4287 62.9359 38.4386 62.7558L38.5279 62.7315C38.6768 62.5182 38.7403 62.4825 38.9531 62.3272Z" fill="var(--fill-0, #BABABA)"/>
<path id="Vector_144" d="M38.4386 62.7558L38.5279 62.7315C38.5205 62.9443 38.5101 63.1571 38.4962 63.3699L38.4277 63.368C38.3995 63.1998 38.4287 62.9359 38.4386 62.7558Z" fill="var(--fill-0, #BABABA)"/>
<path id="Vector_145" d="M0.614651 42.8586C0.238028 42.7469 -0.0051482 42.3823 0.0367209 41.9919C0.0785403 41.6015 0.393502 41.2964 0.785206 41.2676C1.17686 41.2384 1.53339 41.4933 1.63241 41.8733C1.73148 42.2533 1.5448 42.6502 1.18872 42.8159L1.14332 42.9935C0.969598 42.925 0.777563 42.9181 0.599421 42.9746L0.614651 42.8586Z" fill="var(--fill-0, #BABABA)"/>
<path id="Vector_146" d="M0.614643 42.8586C0.804839 42.9146 1.00898 42.8997 1.18871 42.8159L1.14332 42.9935C0.96959 42.925 0.777555 42.9181 0.599413 42.9746L0.614643 42.8586Z" fill="var(--fill-0, #BABABA)"/>
<path id="Vector_147" d="M40.1293 39.8429C40.3957 39.3791 40.8129 39.2689 41.3367 39.4634C42.0278 39.7204 41.6165 40.9888 40.9458 41.03C40.608 41.0757 40.2434 40.7681 40.1337 40.4957L40.039 40.459L40.041 39.8434L40.1293 39.8429Z" fill="var(--fill-0, #BABABA)"/>
<path id="Vector_148" d="M40.041 39.8434L40.1293 39.8429C40.1313 40.0532 40.1392 40.2879 40.1337 40.4957L40.039 40.459L40.041 39.8434Z" fill="var(--fill-0, #BABABA)"/>
<path id="Vector_149" d="M0.553336 13.5536L1.10205 13.5679C1.94379 13.9566 1.79765 15.0981 0.941418 15.1556L0.450002 15.1338C-0.130361 14.7074 -0.132493 13.8528 0.553336 13.5536Z" fill="var(--fill-0, #BABABA)"/>
<path id="Vector_150" d="M25.0529 62.7905C25.1631 62.5757 25.2553 62.4383 25.4964 62.3565C25.7762 62.2627 26.0828 62.2925 26.3403 62.4373C26.501 62.5276 26.57 62.6149 26.6657 62.7642C26.6225 63.0301 26.5799 63.2087 26.5997 63.4791C26.1235 64.062 25.3303 64.1672 25.045 63.3635C25.0644 63.2157 25.0539 62.9493 25.0529 62.7905Z" fill="var(--fill-0, #BABABA)"/>
<path id="Vector_151" d="M7.8502 4.87751L8.49516 4.88917C8.75227 5.05749 8.82703 5.12466 8.95542 5.40251C8.94828 5.58428 8.93285 5.78668 8.95264 5.96546C8.69002 6.54523 8.04496 6.7082 7.58822 6.23414C7.28552 5.91998 7.32892 5.70488 7.34738 5.30117C7.54333 5.0948 7.61576 5.04256 7.8502 4.87751Z" fill="var(--fill-0, #BABABA)"/>
<path id="Vector_152" d="M23.8316 39.3825C24.4016 39.3974 24.7741 39.3597 24.9949 39.9664C24.9631 40.1653 24.9587 40.205 24.9661 40.4054C24.6665 41.1654 23.7706 41.1917 23.397 40.4565L23.3172 40.4506C23.3137 40.2611 23.3132 40.0716 23.3157 39.8816L23.4094 39.8662C23.5339 39.6097 23.6158 39.5681 23.8316 39.3825Z" fill="var(--fill-0, #BABABA)"/>
<path id="Vector_153" d="M23.3157 39.8816L23.4094 39.8662C23.4079 40.0577 23.4104 40.267 23.397 40.4565L23.3172 40.4506C23.3137 40.2611 23.3132 40.0716 23.3157 39.8816Z" fill="var(--fill-0, #BABABA)"/>
<path id="Vector_154" d="M32.8235 4.88028C34.0245 4.78379 34.3311 5.89674 33.4173 6.47795C33.016 6.49943 32.7263 6.51352 32.4549 6.16378C32.322 5.99343 32.2674 5.77511 32.3041 5.56229C32.3681 5.19082 32.5333 5.07191 32.8235 4.88028Z" fill="var(--fill-0, #BABABA)"/>
<path id="Vector_155" d="M47.699 37.9801C47.881 37.9771 48.1851 37.9608 48.3528 37.994L48.3741 38.0664C49.0131 38.4048 49.0433 39.256 48.4128 39.5596C48.1836 39.5512 47.9688 39.5626 47.7401 39.571C47.0754 39.2059 47.0059 38.3939 47.7163 38.055L47.699 37.9801Z" fill="var(--fill-0, #BABABA)"/>
<path id="Vector_156" d="M47.6989 37.9801C47.881 37.9771 48.1851 37.9608 48.3528 37.994L48.3741 38.0664C48.1509 38.0759 47.9391 38.064 47.7163 38.055L47.6989 37.9801Z" fill="var(--fill-0, #BABABA)"/>
<path id="Vector_157" d="M47.6727 41.2572L48.3885 41.2543C48.8885 41.5861 49.1356 42.1968 48.5978 42.6458C48.3116 42.8844 48.0601 42.8179 47.7168 42.7787C47.1547 42.2618 46.9127 41.7573 47.6727 41.2572Z" fill="var(--fill-0, #BABABA)"/>
<path id="Vector_158" d="M11.1858 4.8844C11.7002 4.878 12.0284 4.85136 12.2811 5.38077C12.2794 5.55098 12.2685 5.80358 12.2795 5.96639C12.1959 6.17366 12.0607 6.33607 11.8515 6.42398C11.6339 6.51734 11.3869 6.51456 11.1715 6.41624C10.9006 6.2941 10.7901 6.10723 10.6999 5.84004L10.6261 5.82471L10.6373 5.35021L10.7203 5.333C10.907 5.10093 10.947 5.06249 11.1858 4.8844Z" fill="var(--fill-0, #BABABA)"/>
<path id="Vector_159" d="M10.6373 5.35021L10.7203 5.333C10.7182 5.48529 10.722 5.69593 10.6999 5.84004L10.6261 5.82471L10.6373 5.35021Z" fill="var(--fill-0, #BABABA)"/>
<path id="Vector_160" d="M47.7118 33.2923L48.3875 33.2973L48.4257 33.3978C48.8608 33.6941 49.0944 34.2017 48.6772 34.6309C48.3692 34.9481 48.1593 34.9109 47.7476 34.9119C47.0287 34.4032 47.0486 33.8963 47.7138 33.3617L47.7118 33.2923Z" fill="var(--fill-0, #BABABA)"/>
<path id="Vector_161" d="M47.7119 33.2923L48.3875 33.2973L48.4257 33.3978C48.1365 33.3996 48.0021 33.3919 47.7138 33.3617L47.7119 33.2923Z" fill="var(--fill-0, #BABABA)"/>
<path id="Vector_162" d="M38.9714 17.6727L39.6392 17.6777C39.851 17.836 39.9418 17.8835 40.0588 18.1183L40.1283 18.1628L40.1387 18.6671L40.0603 18.6647C39.8307 19.4315 38.8831 19.5059 38.5438 18.7288L38.4664 18.6921C38.4471 18.498 38.4699 18.3383 38.4878 18.1455L38.5399 18.1204C38.6773 17.8808 38.7502 17.8454 38.9714 17.6727Z" fill="var(--fill-0, #BABABA)"/>
<path id="Vector_163" d="M38.4878 18.1455L38.5399 18.1204C38.5458 18.3029 38.5622 18.5522 38.5438 18.7288L38.4664 18.6921C38.4471 18.498 38.4699 18.3383 38.4878 18.1455Z" fill="var(--fill-0, #BABABA)"/>
<path id="Vector_164" d="M40.0588 18.1182L40.1283 18.1628L40.1387 18.6671L40.0603 18.6647C40.044 18.5513 40.0569 18.2475 40.0588 18.1182Z" fill="var(--fill-0, #BABABA)"/>
<path id="Vector_165" d="M0.55263 21.9398L1.15596 21.9445L1.1578 22.0339C1.77715 22.433 1.85067 23.2547 1.12223 23.5405L1.11166 23.618C0.931537 23.6361 0.795858 23.6194 0.616923 23.6061L0.571136 23.5362C-0.192131 23.2599 -0.132009 22.4013 0.53869 22.0189L0.55263 21.9398Z" fill="var(--fill-0, #BABABA)"/>
<path id="Vector_166" d="M0.552627 21.9398L1.15596 21.9445L1.1578 22.0339C0.985656 22.0451 0.718168 22.0261 0.538687 22.0189L0.552627 21.9398Z" fill="var(--fill-0, #BABABA)"/>
<path id="Vector_167" d="M0.571145 23.5362L1.12224 23.5405L1.11167 23.618C0.931546 23.6361 0.795868 23.6194 0.616932 23.6061L0.571145 23.5362Z" fill="var(--fill-0, #BABABA)"/>
<path id="Vector_168" d="M23.7949 33.5607L24.477 33.5644C24.728 33.7277 24.8362 33.8216 24.9661 34.0893L24.9622 34.5962C24.7712 35.2011 24.3798 35.142 23.8579 35.1237C23.1698 34.6305 23.1674 34.1137 23.7949 33.5607Z" fill="var(--fill-0, #BABABA)"/>
<path id="Vector_169" d="M34.474 8.65233C34.6928 8.542 34.9502 8.5355 35.1745 8.63467C35.4676 8.76415 35.6586 9.05237 35.6631 9.37274C35.6681 9.6931 35.486 9.98698 35.1973 10.1253C34.7915 10.3197 34.3048 10.1509 34.1064 9.74693C33.908 9.34302 34.0717 8.85468 34.474 8.65233Z" fill="var(--fill-0, #BABABA)"/>
<path id="Vector_170" d="M47.6811 26.8047C48.2451 26.7821 48.9064 26.9239 48.8826 27.7163C48.8752 27.9563 48.6415 28.2012 48.4456 28.3386C47.949 28.3665 47.1592 28.3701 47.1949 27.5178C47.2068 27.2296 47.4465 26.9724 47.6811 26.8047Z" fill="var(--fill-0, #BABABA)"/>
<path id="Vector_171" d="M23.9993 27.7982C24.4413 27.7036 24.8763 27.9855 24.9706 28.4277C25.0648 28.8698 24.7826 29.3047 24.3406 29.3987C23.8986 29.4926 23.4645 29.2107 23.3702 28.7689C23.276 28.3271 23.5578 27.8926 23.9993 27.7982Z" fill="var(--fill-0, #BABABA)"/>
<path id="Vector_172" d="M32.3002 28.1915C33.0239 27.2082 34.404 28.1674 33.5949 29.1529C33.1906 29.6449 32.5685 29.4452 32.2977 28.9243L32.2193 28.9017L32.2019 28.2679L32.3002 28.1915Z" fill="var(--fill-0, #BABABA)"/>
<path id="Vector_173" d="M32.3002 28.1915L32.2977 28.9243L32.2193 28.9017L32.2019 28.2679L32.3002 28.1915Z" fill="var(--fill-0, #BABABA)"/>
<path id="Vector_174" d="M47.7133 44.8151C48.1603 44.7908 48.4426 44.77 48.7427 45.1594C49.0865 45.6049 48.8305 46.0895 48.4282 46.3728L48.3349 46.3723C47.1999 46.3584 46.7961 45.5374 47.7133 44.8151Z" fill="var(--fill-0, #BABABA)"/>
<path id="Vector_175" d="M47.7193 30.2296L48.3111 30.2198C48.7114 30.4828 49.0974 30.9417 48.771 31.4252C48.6807 31.5599 48.5522 31.6647 48.4019 31.7265L48.4009 31.8163C48.1871 31.8174 47.88 31.8087 47.6756 31.8313L47.6245 31.7186C47.063 31.1496 47.0858 30.7292 47.7193 30.2296Z" fill="var(--fill-0, #BABABA)"/>
<path id="Vector_176" d="M47.6245 31.7186C47.8701 31.7193 48.1608 31.7121 48.4019 31.7265L48.4009 31.8164C48.1871 31.8174 47.88 31.8087 47.6756 31.8313L47.6245 31.7186Z" fill="var(--fill-0, #BABABA)"/>
<path id="Vector_177" d="M4.38808 4.88188C4.9617 4.86199 5.38227 4.81308 5.61925 5.43566L5.60561 5.91477C5.35425 6.64167 4.54082 6.63686 4.11325 6.06364C4.08701 5.83971 4.0563 5.64376 4.01771 5.42157C4.09415 5.14486 4.16926 5.07089 4.38808 4.88188Z" fill="var(--fill-0, #BABABA)"/>
<path id="Vector_178" d="M21.7723 28.2849C22.1144 27.4794 22.9687 27.6359 23.2616 28.3565C23.6644 29.348 22.25 29.8457 21.7805 28.8879L21.7 28.8405C21.6811 28.6164 21.6873 28.5485 21.7076 28.3217L21.7723 28.2849Z" fill="var(--fill-0, #BABABA)"/>
<path id="Vector_179" d="M21.7076 28.3217L21.7723 28.2848C21.7778 28.4826 21.7877 28.6911 21.7805 28.8879L21.7 28.8405C21.6811 28.6164 21.6873 28.5485 21.7076 28.3217Z" fill="var(--fill-0, #BABABA)"/>
<path id="Vector_180" d="M47.6985 36.4135C47.9262 36.417 48.1673 36.4259 48.393 36.414L48.4237 36.5232C49.0344 36.9304 49.0413 37.7261 48.3528 37.994C48.1851 37.9608 47.881 37.9772 47.699 37.9801C47.6255 37.9424 47.5313 37.8829 47.4703 37.8288C47.312 37.6894 47.2227 37.488 47.2257 37.2777C47.2311 36.923 47.3914 36.7489 47.6285 36.5192L47.6985 36.4135Z" fill="var(--fill-0, #BABABA)"/>
<path id="Vector_181" d="M47.6985 36.4135C47.9262 36.417 48.1673 36.4259 48.393 36.414L48.4237 36.5232L47.6285 36.5192L47.6985 36.4135Z" fill="var(--fill-0, #BABABA)"/>
<path id="Vector_182" d="M22.2113 45.0755C22.7435 45.0736 23.1445 45.0616 23.337 45.6426C23.3286 45.7973 23.3157 45.9149 23.337 46.0702C23.3003 46.2101 23.2289 46.3391 23.1301 46.4447C22.7866 46.8049 22.3262 46.8103 21.9853 46.4383C21.6985 46.1252 21.7602 45.8261 21.7872 45.4337C21.9319 45.2809 22.0423 45.204 22.2113 45.0755Z" fill="var(--fill-0, #BABABA)"/>
<path id="Vector_183" d="M18.6069 28.2401C18.9144 27.5625 19.7969 27.6246 20.0956 28.3143L20.1012 28.8696C19.7735 29.6043 18.9896 29.5809 18.5998 28.8931L18.5124 28.9242C18.5099 28.7071 18.516 28.5035 18.5234 28.287L18.6069 28.2401Z" fill="var(--fill-0, #BABABA)"/>
<path id="Vector_184" d="M18.5234 28.287L18.6069 28.2402L18.5998 28.8931L18.5124 28.9242C18.5099 28.7071 18.516 28.5035 18.5234 28.287Z" fill="var(--fill-0, #BABABA)"/>
<path id="Vector_185" d="M35.4235 28.2455C35.8179 27.6564 36.6657 27.5653 36.9122 28.2798C36.9043 28.5008 36.8914 28.7142 36.9033 28.9352C36.5282 29.6128 35.8208 29.5568 35.4265 28.9394L35.3501 28.9353C35.3312 28.7353 35.3411 28.4901 35.3431 28.2856L35.4235 28.2455Z" fill="var(--fill-0, #BABABA)"/>
<path id="Vector_186" d="M35.3431 28.2856L35.4235 28.2455L35.4265 28.9394L35.3501 28.9353C35.3312 28.7353 35.3411 28.4901 35.3431 28.2856Z" fill="var(--fill-0, #BABABA)"/>
<path id="Vector_187" d="M38.9799 27.7842C39.527 27.7797 40.044 27.8524 40.0752 28.5973C40.0896 28.9455 39.8594 29.1758 39.6015 29.3839C39.092 29.3738 38.7289 29.4116 38.5284 28.8522L38.4585 28.8892L38.453 28.2892L38.5394 28.2262C38.6728 27.9904 38.7611 27.9521 38.9799 27.7842Z" fill="var(--fill-0, #BABABA)"/>
<path id="Vector_188" d="M38.453 28.2892L38.5394 28.2262C38.5423 28.395 38.5592 28.6979 38.5284 28.8522L38.4585 28.8892L38.453 28.2892Z" fill="var(--fill-0, #BABABA)"/>
<path id="Vector_189" d="M20.6135 39.3716C20.8378 39.3845 21.0733 39.3935 21.2963 39.4123C21.4307 39.5368 21.5692 39.6574 21.6866 39.7978C21.704 40.2001 21.7548 40.4645 21.4439 40.7651C20.9632 41.2304 20.4231 40.9998 20.1682 40.46L20.0961 40.4432L20.0903 39.8538L20.1867 39.8384C20.3265 39.5899 20.3859 39.5453 20.6135 39.3716Z" fill="var(--fill-0, #BABABA)"/>
<path id="Vector_190" d="M20.0903 39.8538L20.1867 39.8384C20.1865 40.0567 20.189 40.2418 20.1682 40.46L20.0961 40.4432L20.0903 39.8538Z" fill="var(--fill-0, #BABABA)"/>
<path id="Vector_191" d="M14.0524 5.27647C14.4824 4.81243 15.0458 4.64034 15.4702 5.2157L15.5343 5.23881C15.5562 5.53413 15.5736 5.82969 15.5868 6.12556L15.5074 6.10353C15.0929 6.79849 14.3933 6.48407 13.9918 5.95257C13.9927 5.75235 14.0302 5.4812 14.0524 5.27647Z" fill="var(--fill-0, #BABABA)"/>
<path id="Vector_192" d="M15.4702 5.21569L15.5343 5.2388C15.5562 5.53412 15.5736 5.82968 15.5868 6.12554L15.5074 6.10352C15.4756 5.91283 15.4702 5.41972 15.4702 5.21569Z" fill="var(--fill-0, #BABABA)"/>
<path id="Vector_193" d="M0.54005 59.3229C0.138573 59.0392 -0.174058 58.615 0.139762 58.1135C0.380856 57.7285 0.703061 57.7335 1.11287 57.7394C1.71491 58.1948 1.98047 58.8715 1.18778 59.3011C0.941279 59.2971 0.788933 59.2927 0.54005 59.3229Z" fill="var(--fill-0, #BABABA)"/>
<path id="Vector_194" d="M12.2585 28.914C11.9177 29.4881 11.165 29.5507 10.8459 29.1097C10.265 28.3071 11.5837 27.0398 12.2665 28.2884L12.3225 28.2978C12.3766 28.5664 12.3631 28.6189 12.3413 28.8991L12.2585 28.914Z" fill="var(--fill-0, #BABABA)"/>
<path id="Vector_195" d="M12.2665 28.2884L12.3225 28.2978C12.3766 28.5664 12.3631 28.6189 12.3413 28.8991L12.2585 28.914L12.2665 28.2884Z" fill="var(--fill-0, #BABABA)"/>
<path id="Vector_196" d="M1.14331 42.9935C1.5118 43.1393 1.72199 43.5288 1.64108 43.9167C1.56022 44.3046 1.21177 44.5775 0.815851 44.5636C0.41993 44.5497 0.0915762 44.253 0.0380988 43.8601C-0.0153785 43.4677 0.221596 43.0937 0.599409 42.9746C0.777551 42.9181 0.969586 42.925 1.14331 42.9935Z" fill="var(--fill-0, #BABABA)"/>
<path id="Vector_197" d="M47.6821 57.7479C48.1033 57.732 48.263 57.6983 48.6028 58.0009C49.0795 58.425 48.9064 59.0546 48.3607 59.3234C48.1196 59.2818 47.9321 59.3011 47.6895 59.3105C47.0714 58.7877 47.066 58.2648 47.6821 57.7479Z" fill="var(--fill-0, #BABABA)"/>
<path id="Vector_198" d="M18.3026 5.61368C18.329 5.22228 18.6312 4.90563 19.0208 4.86083C19.4105 4.81604 19.7767 5.05589 19.8912 5.43108C19.9352 5.57514 19.9383 5.72858 19.9002 5.87427C19.8093 6.22173 19.5012 6.46838 19.1423 6.48098C18.7834 6.49363 18.4587 6.26925 18.3436 5.92904C18.3093 5.82764 18.2953 5.72049 18.3026 5.61368Z" fill="var(--fill-0, #BABABA)"/>
<path id="Vector_199" d="M20.1742 28.3233C20.3758 27.593 21.3842 27.5894 21.7076 28.3217C21.6873 28.5485 21.6811 28.6164 21.7 28.8405C21.3601 29.5695 20.5622 29.6117 20.1876 28.8891L20.1012 28.8696L20.0956 28.3143L20.1742 28.3233Z" fill="var(--fill-0, #BABABA)"/>
<path id="Vector_200" d="M20.0956 28.3143L20.1742 28.3233C20.1804 28.5083 20.1907 28.705 20.1876 28.8891L20.1012 28.8696L20.0956 28.3143Z" fill="var(--fill-0, #BABABA)"/>
<path id="Vector_201" d="M35.3501 28.9352C35.1938 29.2698 34.7761 29.5368 34.4095 29.4115C33.3796 29.0593 33.7433 27.4355 34.9264 27.8356C35.1625 27.9154 35.2464 28.0703 35.3431 28.2856C35.3411 28.4901 35.3312 28.7353 35.3501 28.9352Z" fill="var(--fill-0, #BABABA)"/>
<path id="Vector_202" d="M40.542 27.7972C41.12 27.7603 41.6999 27.8334 41.6904 28.6541C41.6865 28.9578 41.4692 29.1874 41.2336 29.3692C40.6001 29.4263 40.0598 29.2672 40.108 28.4646C40.1273 28.1457 40.2984 27.9869 40.542 27.7972Z" fill="var(--fill-0, #BABABA)"/>
<path id="Vector_203" d="M47.6796 20.5156C47.9941 20.462 48.0973 20.4563 48.4128 20.4515L48.4307 20.5044C49.0468 20.8546 49.0086 21.6537 48.4108 21.9466L48.4257 22.0292L47.7193 22.0338L47.6955 21.9461C47.0198 21.5915 47.1295 20.9749 47.6746 20.5487L47.6796 20.5156Z" fill="var(--fill-0, #BABABA)"/>
<path id="Vector_204" d="M47.6796 20.5156C47.9941 20.462 48.0973 20.4563 48.4128 20.4515L48.4307 20.5044C48.0958 20.5578 48.0194 20.5705 47.6747 20.5487L47.6796 20.5156Z" fill="var(--fill-0, #BABABA)"/>
<path id="Vector_205" d="M47.6955 21.9461L48.4108 21.9465L48.4257 22.0292L47.7193 22.0338L47.6955 21.9461Z" fill="var(--fill-0, #BABABA)"/>
<path id="Vector_206" d="M0.586709 48.0163C1.00728 47.8779 1.4612 48.1016 1.6069 48.5198C1.75259 48.938 1.53635 49.3959 1.12084 49.5487C0.845564 49.6499 0.537051 49.5948 0.313865 49.4048C0.090729 49.2143 -0.0124065 48.9182 0.0441466 48.6304C0.10065 48.3427 0.308111 48.1081 0.586709 48.0163Z" fill="var(--fill-0, #BABABA)"/>
<path id="Vector_207" d="M47.5764 17.7559C47.8582 17.7016 47.9797 17.7173 48.2625 17.7285C48.6534 18.0312 48.9694 18.446 48.5954 18.918C48.4297 19.1223 48.1851 19.2459 47.9222 19.2573C47.3919 19.2846 47.0625 18.8723 47.0258 18.3726C47.2049 18.0817 47.2892 17.9396 47.5764 17.7559Z" fill="var(--fill-0, #BABABA)"/>
<path id="Vector_208" d="M0.538218 52.7668C-0.520365 52.2226 0.257038 50.5582 1.37287 51.4288C1.93701 51.8693 1.71616 52.5014 1.13068 52.7722C0.938057 52.7544 0.732681 52.7638 0.538218 52.7668Z" fill="var(--fill-0, #BABABA)"/>
<path id="Vector_209" d="M34.5405 11.7801C34.6893 11.7809 34.9497 11.7739 35.0876 11.7907L35.1224 11.8721C35.9642 12.2457 35.7365 13.601 34.7513 13.4037C34.4894 13.3513 34.2607 13.1919 34.1213 12.9638C33.8405 12.4959 34.1322 12.0776 34.5633 11.8541L34.5405 11.7801Z" fill="var(--fill-0, #BABABA)"/>
<path id="Vector_210" d="M34.5405 11.7801C34.6893 11.7809 34.9497 11.7739 35.0876 11.7907L35.1224 11.8721C34.9408 11.8737 34.7458 11.8617 34.5633 11.8541L34.5405 11.7801Z" fill="var(--fill-0, #BABABA)"/>
<path id="Vector_211" d="M18.5924 45.5816C18.8108 44.8553 19.9225 44.9545 20.0977 45.6069L20.1027 46.1501C20.0012 46.3817 19.9071 46.5182 19.6602 46.6179C19.4444 46.7072 19.2012 46.7042 18.988 46.6084C18.7612 46.5082 18.6778 46.3713 18.583 46.154L18.5111 46.1486L18.5128 45.6069L18.5924 45.5816Z" fill="var(--fill-0, #BABABA)"/>
<path id="Vector_212" d="M18.5128 45.6068L18.5924 45.5815C18.6001 45.8087 18.6054 45.9298 18.583 46.154L18.5111 46.1485L18.5128 45.6068Z" fill="var(--fill-0, #BABABA)"/>
<path id="Vector_213" d="M38.5408 39.8379C38.8147 39.3434 39.0945 39.3513 39.6287 39.3915C39.8242 39.5591 39.913 39.6137 40.041 39.8434L40.039 40.459C39.6734 41.1526 38.8856 41.1734 38.519 40.4566L38.456 40.4397L38.4421 39.8563L38.5408 39.8379Z" fill="var(--fill-0, #BABABA)"/>
<path id="Vector_214" d="M38.4421 39.8563L38.5408 39.8379C38.5413 40.0627 38.5428 40.2303 38.519 40.4565L38.456 40.4397L38.4421 39.8563Z" fill="var(--fill-0, #BABABA)"/>
<path id="Vector_215" d="M36.9673 28.286C37.0769 28.0584 37.1885 27.904 37.443 27.821C37.6598 27.7482 37.8969 27.765 38.1018 27.8677C38.3012 27.9689 38.3727 28.0863 38.453 28.2892L38.4585 28.8892C38.1564 29.5836 37.3537 29.5655 36.9985 28.9499L36.9033 28.9352C36.8914 28.7142 36.9043 28.5008 36.9122 28.2798L36.9673 28.286Z" fill="var(--fill-0, #BABABA)"/>
<path id="Vector_216" d="M36.9122 28.2798L36.9673 28.286C36.9807 28.5095 36.996 28.7257 36.9985 28.9499L36.9033 28.9352C36.8914 28.7142 36.9043 28.5008 36.9122 28.2798Z" fill="var(--fill-0, #BABABA)"/>
<path id="Vector_217" d="M22.2257 39.3681C22.4453 39.3696 22.6652 39.3949 22.8842 39.4148C23.1022 39.5924 23.1793 39.637 23.3157 39.8816C23.3132 40.0716 23.3137 40.2611 23.3172 40.4506C23.0088 40.9551 22.445 41.2597 21.9551 40.7309C21.6964 40.4516 21.7575 40.1381 21.7863 39.7824C21.9442 39.6023 22.0442 39.5214 22.2257 39.3681Z" fill="var(--fill-0, #BABABA)"/>
<path id="Vector_218" d="M47.6563 48.0376C47.8885 48.0351 48.139 48.0277 48.3692 48.0312C48.9064 48.4796 49.1406 49.2074 48.389 49.5641C48.258 49.5472 47.8989 49.5601 47.7496 49.5616C47.0049 49.1181 47.0873 48.5863 47.6563 48.0376Z" fill="var(--fill-0, #BABABA)"/>
<path id="Vector_219" d="M7.34633 28.9257C6.98231 29.4096 6.4269 29.6179 5.9215 29.075C5.49249 28.6142 6.1999 27.4943 6.86425 27.7997C7.14279 27.9278 7.22802 28.021 7.35184 28.3034L7.43439 28.3265C7.43851 28.5493 7.43995 28.6799 7.41911 28.9003L7.34633 28.9257Z" fill="var(--fill-0, #BABABA)"/>
<path id="Vector_220" d="M7.35186 28.3034L7.43441 28.3265C7.43853 28.5493 7.43997 28.6799 7.41913 28.9003L7.34636 28.9257L7.35186 28.3034Z" fill="var(--fill-0, #BABABA)"/>
<path id="Vector_221" d="M0.482144 28.6508C0.707612 28.6354 0.953072 28.6471 1.18052 28.6519C1.69927 29.1263 1.96914 29.7121 1.24993 30.1528C0.892202 30.1927 0.723388 30.1625 0.374644 30.1114C-0.168116 29.6215 -0.0239559 29.0852 0.482144 28.6508Z" fill="var(--fill-0, #BABABA)"/>
<path id="Vector_222" d="M0.517617 11.8233C0.109989 11.6269 -0.138247 11.2146 0.0825577 10.7805C0.200376 10.5444 0.414087 10.3704 0.66922 10.3029C1.71952 10.021 2.01181 11.5012 1.13712 11.8216L0.517617 11.8233Z" fill="var(--fill-0, #BABABA)"/>
<path id="Vector_223" d="M20.1723 45.6034C20.4181 45.0349 20.6654 45.077 21.2363 45.1157C21.5083 45.2953 21.6543 45.3876 21.7175 45.7289C21.7579 45.9467 21.7045 46.1714 21.5702 46.3475C21.4347 46.5251 21.2341 46.6417 21.0128 46.6709C20.5975 46.724 20.3375 46.4938 20.1629 46.1451L20.1027 46.15L20.0977 45.6068L20.1723 45.6034Z" fill="var(--fill-0, #BABABA)"/>
<path id="Vector_224" d="M20.1723 45.6034C20.2003 45.845 20.1933 45.9025 20.1629 46.1451L20.1027 46.1501L20.0977 45.6069L20.1723 45.6034Z" fill="var(--fill-0, #BABABA)"/>
<path id="Vector_225" d="M0.552646 21.9398C-0.202337 21.6173 -0.145784 20.7597 0.577847 20.4286C0.719328 20.3639 0.992966 20.386 1.14898 20.3918C1.67785 20.8722 1.95819 21.5713 1.15598 21.9445L0.552646 21.9398Z" fill="var(--fill-0, #BABABA)"/>
<path id="Vector_226" d="M47.7109 56.1475L48.383 56.1857C49.088 56.722 48.9808 57.1809 48.3821 57.7176C48.1787 57.7305 47.9167 57.7156 47.7089 57.7102C47.5491 57.5787 47.4365 57.4453 47.2991 57.293C47.191 56.6788 47.2073 56.5171 47.7109 56.1475Z" fill="var(--fill-0, #BABABA)"/>
<path id="Vector_227" d="M0.546336 26.847C1.71693 26.7579 2.05714 27.88 1.18499 28.364C0.628435 28.431 0.00878224 28.3935 0.0334374 27.5944C0.0436566 27.2635 0.289169 27.0359 0.546336 26.847Z" fill="var(--fill-0, #BABABA)"/>
<path id="Vector_228" d="M42.3845 39.3771C42.637 39.3438 42.8905 39.4311 43.0686 39.6137C43.2467 39.7958 43.328 40.0512 43.2888 40.3028C43.2357 40.6381 42.9793 40.905 42.6459 40.97C42.3572 41.0265 42.0605 40.9214 41.8715 40.6956C41.683 40.4699 41.6319 40.1594 41.7386 39.8851C41.8452 39.6107 42.0928 39.4163 42.3845 39.3771Z" fill="var(--fill-0, #BABABA)"/>
<path id="Vector_229" d="M0.582806 54.4748L1.096 54.4857C1.34572 54.6152 1.54252 54.7813 1.62715 55.0626C1.68956 55.2764 1.65845 55.5066 1.54153 55.6961C1.43829 55.8638 1.26601 55.9779 1.08499 56.0468C0.852672 56.021 0.811496 56.0196 0.581465 56.0568C-0.137553 55.6763 -0.156501 54.8424 0.582806 54.4748Z" fill="var(--fill-0, #BABABA)"/>
<path id="Vector_230" d="M0.493658 46.3996C0.926536 46.3787 1.24422 46.3792 1.52148 46.7662C1.8547 47.2315 1.56573 47.6556 1.17259 47.9265C0.801424 47.9711 0.471334 47.9845 0.19859 47.6824C0.0698573 47.5396 0.00541458 47.3496 0.0203962 47.1581C0.0481766 46.7756 0.222054 46.6248 0.493658 46.3996Z" fill="var(--fill-0, #BABABA)"/>
<path id="Vector_231" d="M34.5405 11.7802C34.1123 11.5122 33.8003 11.0738 34.1505 10.5986C34.3063 10.3895 34.5429 10.2561 34.8019 10.2314C35.7509 10.1341 35.9811 11.4773 35.0876 11.7907C34.9497 11.774 34.6893 11.781 34.5405 11.7802Z" fill="var(--fill-0, #BABABA)"/>
<path id="Vector_232" d="M42.1667 27.7968C42.573 27.7814 42.8557 27.7602 43.1415 28.0987C43.2705 28.2519 43.33 28.4516 43.3067 28.6504C43.2645 29.0161 43.0889 29.1708 42.819 29.3786C42.4356 29.3931 42.1617 29.4049 41.8943 29.0866C41.7634 28.9323 41.7004 28.7314 41.7202 28.5299C41.7549 28.1494 41.8958 28.0192 42.1667 27.7968Z" fill="var(--fill-0, #BABABA)"/>
<path id="Vector_233" d="M47.6727 46.4482C47.941 46.4472 48.1955 46.4789 48.4624 46.5052C49.0031 47.0226 49.0592 47.5296 48.3955 47.9746C47.2733 48.0317 46.7996 47.2573 47.6727 46.4482Z" fill="var(--fill-0, #BABABA)"/>
<path id="Vector_234" d="M0.485519 31.723C-0.547516 31.356 0.375835 29.858 1.16703 30.2981C1.70572 30.5977 1.92886 31.4062 1.20553 31.7405L1.11197 31.8302C0.974157 31.8487 0.785844 31.822 0.640592 31.8093L0.485519 31.723Z" fill="var(--fill-0, #BABABA)"/>
<path id="Vector_235" d="M0.485518 31.723C0.698882 31.7246 1.00159 31.7166 1.20553 31.7405L1.11197 31.8302C0.974155 31.8487 0.785843 31.822 0.640591 31.8093L0.485518 31.723Z" fill="var(--fill-0, #BABABA)"/>
<path id="Vector_236" d="M7.40812 34.0044C7.80141 33.4911 7.91387 33.5409 8.54478 33.5776C8.9218 33.983 9.1825 34.5019 8.67054 34.9441C8.49974 35.0895 8.27556 35.1564 8.05282 35.1286C7.75666 35.089 7.53005 34.892 7.4163 34.6206L7.33797 34.6437L7.36119 34.0372L7.40812 34.0044Z" fill="var(--fill-0, #BABABA)"/>
<path id="Vector_237" d="M7.36119 34.0372L7.40812 34.0045C7.43233 34.2372 7.46427 34.3909 7.4163 34.6206L7.33797 34.6437L7.36119 34.0372Z" fill="var(--fill-0, #BABABA)"/>
<path id="Vector_238" d="M0.511167 49.6653C0.914678 49.4827 1.38958 49.6618 1.57268 50.0646C1.75573 50.4679 1.57779 50.9432 1.17497 51.1272C0.771115 51.3113 0.294332 51.1327 0.110783 50.7289C-0.0727664 50.3246 0.106615 49.8478 0.511167 49.6653Z" fill="var(--fill-0, #BABABA)"/>
<path id="Vector_239" d="M47.7193 22.0338L48.4257 22.0293C48.9094 22.3463 49.1158 22.9246 48.6043 23.3245C47.567 24.1351 46.6294 22.6562 47.7193 22.0338Z" fill="var(--fill-0, #BABABA)"/>
<path id="Vector_240" d="M0.549807 36.473L1.1519 36.4755C1.78524 36.8838 1.89969 37.6542 1.15865 37.9826C0.910606 37.9603 0.86452 37.9573 0.620697 38.0019C0.412344 37.9196 0.268283 37.8392 0.151209 37.6368C0.036515 37.4404 0.00809003 37.2052 0.0727787 36.987C0.152747 36.7245 0.315707 36.5886 0.549807 36.473Z" fill="var(--fill-0, #BABABA)"/>
<path id="Vector_241" d="M36.9628 62.7533C37.0328 62.6397 37.1315 62.5142 37.2411 62.4378C37.4276 62.3088 37.6598 62.2657 37.8806 62.3183C38.1484 62.3818 38.2968 62.536 38.4387 62.7558C38.4287 62.9359 38.3995 63.1998 38.4277 63.368C38.1475 64.121 37.3066 64.1453 36.945 63.4414C36.9727 63.2484 36.9628 62.9557 36.9628 62.7533Z" fill="var(--fill-0, #BABABA)"/>
<path id="Vector_242" d="M16.7096 5.58661C16.8321 4.49816 18.1567 4.81436 18.2344 5.55878L18.3025 5.61369C18.2953 5.7205 18.3092 5.82765 18.3436 5.92905L18.2329 5.90261C17.9603 6.66022 17.2248 6.67654 16.7681 6.07008C16.7386 5.92548 16.7251 5.73746 16.7096 5.58661Z" fill="var(--fill-0, #BABABA)"/>
<path id="Vector_243" d="M18.2344 5.55877L18.3026 5.61369C18.2953 5.7205 18.3093 5.82765 18.3436 5.92905L18.2329 5.90261C18.2133 5.79029 18.2284 5.67555 18.2344 5.55877Z" fill="var(--fill-0, #BABABA)"/>
<path id="Vector_244" d="M47.6756 31.8313C47.88 31.8086 48.1871 31.8174 48.4009 31.8163C48.9143 32.2454 49.1475 33.0566 48.3875 33.2973L47.7119 33.2923C46.9677 32.8445 47.1622 32.3418 47.6756 31.8313Z" fill="var(--fill-0, #BABABA)"/>
<path id="Vector_245" d="M47.6756 34.9193C48.129 34.9203 48.2868 34.8692 48.6544 35.1971C49.0666 35.5642 48.89 36.2364 48.393 36.414C48.1672 36.4259 47.9262 36.417 47.6985 36.4135C47.0545 35.8817 47.0769 35.4868 47.6756 34.9193Z" fill="var(--fill-0, #BABABA)"/>
<path id="Vector_246" d="M7.4344 28.3265C7.6309 27.8384 8.05385 27.6536 8.54006 27.8807C8.71726 27.964 8.85229 28.1166 8.91346 28.3027C9.20173 29.1516 8.19702 29.9672 7.41912 28.9003C7.43996 28.6799 7.43852 28.5493 7.4344 28.3265Z" fill="var(--fill-0, #BABABA)"/>
<path id="Vector_247" d="M6.2841 33.5669C6.52742 33.564 6.75984 33.5796 7.00242 33.5927C7.18815 33.7689 7.22139 33.8204 7.36118 34.0372L7.33797 34.6437C7.25468 34.8528 7.13839 34.9357 6.9735 35.09C6.57609 35.1148 6.2208 35.143 5.95257 34.8017C5.57396 34.3198 5.89433 33.8679 6.2841 33.5669Z" fill="var(--fill-0, #BABABA)"/>
<path id="Vector_248" d="M0.616925 23.6061C0.79586 23.6194 0.931539 23.6361 1.11167 23.618C1.78733 23.9423 1.82939 24.7711 1.14783 25.1221C0.897955 25.1126 0.820366 25.103 0.579222 25.1462C0.372208 25.0791 0.202203 24.9509 0.10894 24.7506C0.013693 24.5448 0.00798726 24.3086 0.0932137 24.0984C0.201706 23.8293 0.362684 23.713 0.616925 23.6061Z" fill="var(--fill-0, #BABABA)"/>
<path id="Vector_249" d="M0.640594 31.8094C0.785846 31.8221 0.974158 31.8487 1.11197 31.8302C1.81814 32.2402 1.83887 32.8028 1.19695 33.2898C0.94236 33.2672 0.78034 33.2386 0.526745 33.2827C-0.172082 32.9334 -0.0968773 32.1012 0.640594 31.8094Z" fill="var(--fill-0, #BABABA)"/>
<path id="Vector_250" d="M34.5911 6.54899C34.2418 6.46991 34.0067 6.1419 34.0444 5.78557C34.0816 5.42924 34.3797 5.15724 34.7379 5.15253C35.0961 5.14786 35.4017 5.41193 35.4483 5.76712C35.4949 6.12236 35.2687 6.45642 34.9215 6.54467C34.8133 6.5721 34.7002 6.57359 34.5911 6.54899Z" fill="var(--fill-0, #BABABA)"/>
<path id="Vector_251" d="M15.5343 5.2388C16.0238 4.62704 16.4748 4.98035 16.5968 5.61642L16.7096 5.5866C16.7251 5.73746 16.7386 5.92547 16.7681 6.07008L16.633 6.20005C16.3078 6.59518 15.8796 6.49512 15.5868 6.12554C15.5736 5.82968 15.5562 5.53412 15.5343 5.2388Z" fill="var(--fill-0, #BABABA)"/>
<path id="Vector_252" d="M16.5968 5.61642L16.7096 5.58661C16.7251 5.73746 16.7386 5.92548 16.7681 6.07009L16.633 6.20006C16.6101 5.98273 16.598 5.8345 16.5968 5.61642Z" fill="var(--fill-0, #BABABA)"/>
<path id="Vector_253" d="M47.6796 20.5156C47.3115 20.2891 47.0744 19.9662 47.4092 19.5906C47.9058 19.033 49.398 19.7254 48.4128 20.4515C48.0973 20.4563 47.9941 20.462 47.6796 20.5156Z" fill="var(--fill-0, #BABABA)"/>
<path id="Vector_254" d="M46.9315 2.44524C48.2521 2.43963 47.7024 3.10462 47.8775 3.60333C48.4818 3.64148 48.6361 3.64887 49.0061 4.15403C49.144 4.06221 49.3117 3.87444 49.4243 3.84229C49.8653 3.71639 49.9869 4.01587 50.2751 4.18608C50.419 4.10804 50.6278 3.9487 50.7682 3.91889C51.0624 3.85638 51.3566 4.10963 51.4072 4.38218C51.3213 4.69897 51.0346 4.79427 50.7295 4.80801C50.5291 4.81704 50.4467 4.68002 50.3088 4.54861C49.9283 4.56007 49.7904 5.36044 49.0349 4.5812L48.9898 4.53373C48.9273 4.60516 48.8628 4.67456 48.7958 4.74193C48.4599 5.07406 48.4138 5.01363 47.9366 5.00748C47.7684 5.5433 48.074 5.6123 47.4727 6.12485C46.6086 6.41719 46.4493 5.67144 46.435 5.03254C46.1725 4.88813 45.8526 5.17228 45.4443 4.70066C45.1466 4.35628 44.7026 5.40172 44.0786 4.48214C43.9422 4.6126 43.8345 4.75359 43.6366 4.74813C43.2923 4.73871 42.9718 4.62084 43.0284 4.21212C43.4302 3.52054 43.7844 4.09658 44.0875 4.10055C44.6158 3.60368 44.7661 3.76808 45.2617 4.07277C45.3257 4.11191 45.7762 3.6195 45.9349 3.57183C46.0902 3.5251 46.1482 3.52634 46.3238 3.51652L46.3938 3.5132C46.6309 3.15016 46.175 2.94578 46.9315 2.44524Z" fill="var(--fill-0, #BABABA)"/>
<path id="Vector_255" d="M46.9117 3.95415C47.118 3.97513 47.3011 3.92602 47.4286 4.03005C47.3839 4.27749 47.3775 4.36093 47.4122 4.60947C47.256 4.61944 47.1577 4.62787 46.999 4.61656L46.9484 4.53788C46.9861 4.27288 46.9871 4.21082 46.9117 3.95415Z" fill="var(--fill-0, #BABABA)"/>
<path id="Vector_256" d="M46.9965 1.04977C47.7629 1.0463 47.946 1.86855 47.4023 2.33099C46.4568 2.40962 46.6051 1.60439 46.9965 1.04977Z" fill="var(--fill-0, #BABABA)"/>
<path id="Vector_257" d="M47.1285 6.21637C47.877 6.40285 47.9192 7.13426 47.2693 7.50141C46.5649 7.35447 46.4379 6.57712 47.1285 6.21637Z" fill="var(--fill-0, #BABABA)"/>
<path id="Vector_258" d="M47.0372 7.52975C47.7173 7.52236 47.7689 8.06105 47.3661 8.50057C46.7381 8.57374 46.6051 7.96312 47.0372 7.52975Z" fill="var(--fill-0, #BABABA)"/>
<path id="Vector_259" d="M47.0962 0.00233595C47.6434 -0.0442459 47.8056 0.616729 47.3636 1.0126C46.6755 0.926878 46.6542 0.44846 47.0962 0.00233595Z" fill="var(--fill-0, #BABABA)"/>
</g>
</svg>
