<svg preserveAspectRatio="xMidYMid meet"  overflow="visible" viewBox="0 0 79.2778 64.0001" fill="none" xmlns="http://www.w3.org/2000/svg">
<g id="Group 48095700" opacity="0.48">
<path id="Vector" d="M4.93284 23.9622C5.6045 23.894 6.20405 24.3838 6.27127 25.0555C6.33849 25.7273 5.84791 26.3261 5.17605 26.3923C4.50559 26.4584 3.90827 25.969 3.84119 25.2987C3.7741 24.6284 4.26257 24.0303 4.93284 23.9622Z" fill="var(--fill-0, #BABABA)"/>
<path id="Vector_2" d="M77.8536 23.9593C79.3451 23.8909 79.9031 25.7245 78.3536 26.4278C76.781 26.6241 76.3641 24.9106 77.8536 23.9593Z" fill="var(--fill-0, #BABABA)"/>
<path id="Vector_3" d="M9.13162 20.912C10.347 21.4323 10.4783 23.0323 8.92442 23.3421C8.54084 23.1899 8.23595 22.9697 8.03291 22.5974C7.9238 22.3929 7.90006 22.1537 7.96681 21.9318C8.13555 21.3668 8.64836 21.165 9.13162 20.912Z" fill="var(--fill-0, #BABABA)"/>
<path id="Vector_4" d="M68.0354 17.1462C68.3481 17.1637 68.858 17.3694 69.0908 17.5743C69.825 18.2207 69.164 18.9977 68.6897 19.4619C67.1284 19.5739 66.7926 18.1524 68.0354 17.1462Z" fill="var(--fill-0, #BABABA)"/>
<path id="Vector_5" d="M12.8904 18.419C14.1965 18.6056 14.3677 20.2644 12.8143 20.7654C12.4253 20.6293 12.0524 20.3501 11.8628 19.9807C11.7496 19.7557 11.7365 19.4934 11.8265 19.2582C12.009 18.7792 12.4535 18.62 12.8904 18.419Z" fill="var(--fill-0, #BABABA)"/>
<path id="Vector_6" d="M39.6243 0.921058C40.8486 0.971191 41.4647 2.68146 39.7443 3.16644C38.9066 3.1359 38.6814 2.43548 38.5185 1.74767C38.8459 1.36725 39.2008 1.1712 39.6243 0.921058Z" fill="var(--fill-0, #BABABA)"/>
<path id="Vector_7" d="M51.1978 57.7017C51.7532 57.4748 52.3865 57.7419 52.6114 58.298C52.8364 58.8535 52.5673 59.4861 52.0112 59.7097C51.4577 59.932 50.8278 59.6648 50.6035 59.1114C50.3792 58.5579 50.645 57.9273 51.1978 57.7017Z" fill="var(--fill-0, #BABABA)"/>
<path id="Vector_8" d="M70.0104 18.4621C70.2993 18.4906 70.9048 18.7708 71.0876 18.9839C71.7254 19.7267 71.0038 20.3917 70.4906 20.7979C68.9938 20.8253 68.7742 19.3876 70.0104 18.4621Z" fill="var(--fill-0, #BABABA)"/>
<path id="Vector_9" d="M43.5809 0.936293C44.2247 1.11723 44.6765 1.49455 45.0651 2.02471C44.8401 2.60494 44.7273 2.91142 44.2102 3.24599C43.5248 3.29184 42.7662 2.96966 42.8005 2.16351C42.8256 1.58156 43.1692 1.28868 43.5809 0.936293Z" fill="var(--fill-0, #BABABA)"/>
<path id="Vector_10" d="M41.4456 0.0260081C42.3011 -0.0663428 42.5947 0.063146 42.9944 0.819236C42.7998 1.38066 42.6831 1.73127 42.1685 2.01709C42.0465 2.03207 41.6731 2.08378 41.5755 2.0413C40.4726 1.55996 40.2503 0.524439 41.4456 0.0260081Z" fill="var(--fill-0, #BABABA)"/>
<path id="Vector_11" d="M16.642 15.7676C17.8214 15.7879 18.4035 17.3451 16.7807 18.0796C16.4125 18.0118 15.9427 17.7534 15.7717 17.4257C15.3194 16.5585 16.073 16.0936 16.642 15.7676Z" fill="var(--fill-0, #BABABA)"/>
<path id="Vector_12" d="M10.86 19.7234C11.2439 19.7612 11.7584 20.0352 11.8867 20.4173C12.1879 21.3149 11.7191 21.7132 10.9573 22.0237C10.6081 21.9655 10.119 21.617 9.93819 21.3181C9.81068 21.1034 9.77914 20.8451 9.85124 20.6061C10.0031 20.0898 10.4082 19.9491 10.86 19.7234Z" fill="var(--fill-0, #BABABA)"/>
<path id="Vector_13" d="M35.8532 3.49701C36.9357 3.52537 37.6337 5.14587 35.8865 5.7914C35.3557 5.71152 34.6911 4.98742 34.7068 4.44354C34.7161 4.11912 35.5652 3.66377 35.8532 3.49701Z" fill="var(--fill-0, #BABABA)"/>
<path id="Vector_14" d="M71.9306 19.7235C73.3627 19.8881 73.7064 21.1315 72.4458 21.9784C70.8112 22.0822 70.6918 20.7129 71.9306 19.7235Z" fill="var(--fill-0, #BABABA)"/>
<path id="Vector_15" d="M6.94781 22.3711C8.20544 22.3622 8.88395 24.0632 7.2318 24.4867C6.78825 24.4842 6.26646 24.2915 6.08763 23.8772C5.72707 23.0419 6.36152 22.6535 6.94781 22.3711Z" fill="var(--fill-0, #BABABA)"/>
<path id="Vector_16" d="M32.2543 5.86337C32.6376 5.9955 33.0485 6.46187 33.1255 6.86624C33.1878 7.18933 33.1119 7.52371 32.9164 7.78836C32.6719 8.12069 32.3641 8.18197 31.9849 8.23679C31.4982 8.05037 30.8526 7.5338 31.0452 6.95146C31.2305 6.39103 31.7843 6.1459 32.2543 5.86337Z" fill="var(--fill-0, #BABABA)"/>
<path id="Vector_17" d="M26.3813 9.69942C27.5781 9.97918 27.9099 11.5263 26.2678 11.9547C25.928 11.8924 25.3797 11.5045 25.2777 11.1744C24.9973 10.2669 25.7429 9.93577 26.3813 9.69942Z" fill="var(--fill-0, #BABABA)"/>
<path id="Vector_18" d="M64.2147 14.5608C65.6514 14.8313 66.0169 15.974 64.7358 16.9143C64.1058 16.9563 63.3961 16.4906 63.4633 15.8014C63.5227 15.1973 63.782 14.9509 64.2147 14.5608Z" fill="var(--fill-0, #BABABA)"/>
<path id="Vector_19" d="M73.8443 20.8986C75.155 21.2406 75.7368 22.5001 74.339 23.2303C72.8291 23.2346 72.6114 21.7209 73.8443 20.8986Z" fill="var(--fill-0, #BABABA)"/>
<path id="Vector_20" d="M31.1095 57.6984C31.4758 57.5718 31.8818 57.6536 32.1704 57.9122C32.4592 58.1707 32.5853 58.5652 32.5001 58.9432C32.415 59.3212 32.1318 59.6233 31.7603 59.7328C31.2035 59.897 30.6174 59.5864 30.4406 59.0336C30.2637 58.4808 30.5608 57.8878 31.1095 57.6984Z" fill="var(--fill-0, #BABABA)"/>
<path id="Vector_21" d="M28.198 8.51778C28.6303 8.48632 29.071 8.7133 29.2422 9.09775C29.6526 10.0195 28.9549 10.4419 28.3273 10.7451C27.9857 10.7607 27.4764 10.3792 27.3377 10.0807C26.93 9.20309 27.5914 8.84161 28.198 8.51778Z" fill="var(--fill-0, #BABABA)"/>
<path id="Vector_22" d="M47.3923 3.54191C47.9339 3.57786 48.4345 4.04404 48.8211 4.39833C48.676 5.06201 48.5374 5.39381 48.0229 5.82476C47.1047 5.88037 46.8039 5.51565 46.5453 4.69491C46.796 4.19213 46.9932 3.92193 47.3923 3.54191Z" fill="var(--fill-0, #BABABA)"/>
<path id="Vector_23" d="M14.7497 17.0795C16.0694 17.31 16.3472 18.8331 14.7986 19.3563C14.452 19.3205 14.0512 19.0782 13.8853 18.7847C13.3715 17.8756 14.1704 17.4171 14.7497 17.0795Z" fill="var(--fill-0, #BABABA)"/>
<path id="Vector_24" d="M62.4574 13.3429C62.8413 13.4841 63.365 13.772 63.5458 14.1617C63.6454 14.3723 63.6553 14.614 63.5748 14.8324C63.4277 15.232 63.0458 15.5046 62.6764 15.6796C61.1631 15.2585 61.1262 13.9391 62.4574 13.3429Z" fill="var(--fill-0, #BABABA)"/>
<path id="Vector_25" d="M66.1916 15.8973C66.7708 15.9753 67.1791 16.3613 67.5116 16.8154C67.3216 17.5625 67.3196 17.802 66.5967 18.1605C65.1362 18.1124 64.8605 16.7172 66.1916 15.8973Z" fill="var(--fill-0, #BABABA)"/>
<path id="Vector_26" d="M18.5238 14.5187C19.6272 14.5469 20.265 16.183 18.7169 16.7915C18.3399 16.7787 17.8963 16.5151 17.7288 16.1904C17.2501 15.2618 17.8849 14.8539 18.5238 14.5187Z" fill="var(--fill-0, #BABABA)"/>
<path id="Vector_27" d="M22.3887 12.1478C22.7914 12.1723 23.282 12.4748 23.3877 12.8561C23.6404 13.7678 23.126 14.1219 22.4431 14.3772C21.7185 14.3383 21.1409 13.6472 21.438 12.9348C21.6439 12.4413 21.9385 12.3583 22.3887 12.1478Z" fill="var(--fill-0, #BABABA)"/>
<path id="Vector_28" d="M24.1866 10.965C25.3378 10.8382 26.0588 12.4564 24.5761 13.0973C24.148 13.0921 23.5937 12.907 23.3948 12.5277C22.9567 11.6924 23.6346 11.2702 24.1866 10.965Z" fill="var(--fill-0, #BABABA)"/>
<path id="Vector_29" d="M75.874 22.299C77.2817 22.615 77.6267 23.6812 76.3252 24.4618C76.1695 24.4551 75.9868 24.4482 75.8344 24.4268C75.5396 24.3857 75.277 24.2213 75.1108 23.9747C74.6424 23.2812 75.2889 22.623 75.874 22.299Z" fill="var(--fill-0, #BABABA)"/>
<path id="Vector_30" d="M45.5598 2.30355C46.8653 2.49953 47.4081 3.73031 46.0565 4.53825C44.6858 4.68865 44.2379 3.21677 45.5598 2.30355Z" fill="var(--fill-0, #BABABA)"/>
<path id="Vector_31" d="M51.1338 5.85886C52.5185 6.40934 52.9637 7.09036 51.6781 8.18591C51.091 8.21196 50.3865 7.95147 50.3713 7.26134C50.3574 6.63995 50.7255 6.26818 51.1338 5.85886Z" fill="var(--fill-0, #BABABA)"/>
<path id="Vector_32" d="M30.1908 7.19572C31.276 7.24796 31.8085 8.86681 30.1882 9.48048C29.8826 9.40482 29.3277 9.08627 29.2146 8.77749C28.9015 7.92318 29.5582 7.52976 30.1908 7.19572Z" fill="var(--fill-0, #BABABA)"/>
<path id="Vector_33" d="M20.363 13.3902C21.4993 13.3722 22.1817 15.0018 20.6393 15.5847C20.256 15.5782 19.7425 15.3216 19.5849 14.9856C19.172 14.1054 19.7805 13.7123 20.363 13.3902Z" fill="var(--fill-0, #BABABA)"/>
<path id="Vector_34" d="M58.6011 10.8748C58.9032 10.8866 59.4639 11.1477 59.6638 11.3666C60.2588 12.0171 59.677 12.6562 59.2271 13.0835C58.0654 13.4058 57.2481 11.9848 58.6011 10.8748Z" fill="var(--fill-0, #BABABA)"/>
<path id="Vector_35" d="M69.5499 29.1171C70.9741 29.0012 71.3006 30.5403 70.1291 31.0804C69.9068 31.0904 69.5189 31.1266 69.3395 31.0222C68.3711 30.4591 68.478 29.4177 69.5499 29.1171Z" fill="var(--fill-0, #BABABA)"/>
<path id="Vector_36" d="M49.3594 4.68238C50.7651 5.24427 51.0065 6.02384 49.7928 7.02671C48.1252 6.65275 48.1516 5.65708 49.3594 4.68238Z" fill="var(--fill-0, #BABABA)"/>
<path id="Vector_37" d="M60.5154 12.1239C61.7892 12.376 62.3492 13.5115 61.0424 14.3517C60.239 14.4227 59.9685 14.0458 59.6453 13.3937C59.8881 12.7421 59.9712 12.5486 60.5154 12.1239Z" fill="var(--fill-0, #BABABA)"/>
<path id="Vector_38" d="M54.8503 8.36463C55.1227 8.41133 55.6749 8.66253 55.8635 8.85778C56.5186 9.53485 55.9552 10.1993 55.442 10.6475C53.7949 10.5352 53.8107 9.36129 54.8503 8.36463Z" fill="var(--fill-0, #BABABA)"/>
<path id="Vector_39" d="M37.7794 2.24242C38.768 2.25304 39.5091 3.7829 37.7917 4.47216C37.2016 4.28535 36.5855 3.86905 36.7801 3.15267C36.9194 2.63979 37.3467 2.46861 37.7794 2.24242Z" fill="var(--fill-0, #BABABA)"/>
<path id="Vector_40" d="M34.0554 4.76406C34.4932 4.89296 34.907 5.28512 35.0047 5.7381C35.0648 6.01687 35.0018 6.30797 34.8318 6.53694C34.5858 6.86458 34.2708 6.92303 33.894 6.9917C33.3218 6.74987 32.7502 6.16358 33.0285 5.51013C33.2088 5.08683 33.6601 4.92218 34.0554 4.76406Z" fill="var(--fill-0, #BABABA)"/>
<path id="Vector_41" d="M69.5526 39.9901C71.1727 39.9195 71.2043 41.5258 70.1423 41.9123C69.8936 41.9288 69.5849 41.9645 69.3533 41.8754C69.0763 41.7672 68.8579 41.5482 68.7504 41.2712C68.668 41.0568 68.6752 40.818 68.7715 40.6095C68.9477 40.2269 69.1812 40.1168 69.5526 39.9901Z" fill="var(--fill-0, #BABABA)"/>
<path id="Vector_42" d="M69.5526 31.3619C71.013 31.2468 71.2967 32.7337 70.0961 33.2873C68.3883 33.3851 68.226 31.7026 69.5526 31.3619Z" fill="var(--fill-0, #BABABA)"/>
<path id="Vector_43" d="M53.0679 7.10382C54.3331 7.58246 54.8806 8.60334 53.467 9.33529C52.8806 9.3056 52.1576 9.02142 52.2222 8.31118C52.273 7.75602 52.6695 7.43371 53.0679 7.10382Z" fill="var(--fill-0, #BABABA)"/>
<path id="Vector_44" d="M69.4569 26.8701C70.9893 26.7886 71.3448 28.3951 70.0671 28.8126C69.5565 28.8624 69.1211 28.8227 68.8316 28.3291C68.7003 28.1056 68.6699 27.8372 68.7478 27.5901C68.8711 27.1865 69.1066 27.0491 69.4569 26.8701Z" fill="var(--fill-0, #BABABA)"/>
<path id="Vector_45" d="M46.5974 32.1749C46.9319 32.0135 47.327 32.0451 47.6317 32.2575C47.9358 32.4699 48.1021 32.8302 48.0665 33.1997C48.0302 33.5692 47.798 33.8906 47.4576 34.0402C46.9451 34.2661 46.3461 34.0392 46.1113 33.5304C45.8764 33.0216 46.0928 32.4185 46.5974 32.1749Z" fill="var(--fill-0, #BABABA)"/>
<path id="Vector_46" d="M56.8253 9.62276C58.107 9.83497 58.5054 11.0864 57.3049 11.8485C55.7481 11.7381 55.6208 10.5213 56.8253 9.62276Z" fill="var(--fill-0, #BABABA)"/>
<path id="Vector_47" d="M69.858 48.6533C71.1634 48.8281 71.1582 50.4357 69.8303 50.6342C69.2762 50.5848 68.7729 50.2925 68.7122 49.6936C68.6858 49.4482 68.7603 49.2035 68.9173 49.0141C69.1904 48.6863 69.4622 48.6784 69.858 48.6533Z" fill="var(--fill-0, #BABABA)"/>
<path id="Vector_48" d="M69.4655 46.5293C70.2538 46.4778 71.0308 46.7172 70.7769 47.8169C70.7109 48.1025 70.4009 48.3096 70.1304 48.4251C68.573 48.5016 68.1567 46.9706 69.4655 46.5293Z" fill="var(--fill-0, #BABABA)"/>
<path id="Vector_49" d="M69.6476 35.7084C71.1522 35.6259 71.2274 37.2493 70.0104 37.6088C68.4787 37.6616 68.1686 36.0323 69.6476 35.7084Z" fill="var(--fill-0, #BABABA)"/>
<path id="Vector_50" d="M69.4464 42.1723C70.1759 42.132 70.9141 42.3345 70.8099 43.3484C70.7782 43.6591 70.4622 43.9342 70.1951 44.0945C69.6449 44.1228 69.1548 44.1189 68.8256 43.5879C68.7089 43.4032 68.6726 43.1789 68.7254 42.9671C68.8283 42.5509 69.1067 42.3787 69.4464 42.1723Z" fill="var(--fill-0, #BABABA)"/>
<path id="Vector_51" d="M13.4939 29.0953C14.0514 28.981 14.5953 29.343 14.7049 29.9015C14.8145 30.46 14.4479 31.0008 13.8885 31.1056C13.3357 31.2093 12.8028 30.848 12.6945 30.2961C12.5861 29.7443 12.943 29.2083 13.4939 29.0953Z" fill="var(--fill-0, #BABABA)"/>
<path id="Vector_52" d="M69.4048 44.3504C69.5585 44.3405 69.9866 44.3161 70.106 44.3656C71.0289 44.7502 71.1126 45.7792 70.2287 46.243C69.6786 46.2753 69.1865 46.2832 68.8527 45.7746C68.4325 45.1341 68.8989 44.6592 69.4048 44.3504Z" fill="var(--fill-0, #BABABA)"/>
<path id="Vector_53" d="M13.4318 31.3642C14.9308 31.2314 15.2744 32.7459 13.9857 33.313C12.532 33.3576 12.1407 31.9024 13.4318 31.3642Z" fill="var(--fill-0, #BABABA)"/>
<path id="Vector_54" d="M69.3797 37.8858C70.0691 37.8311 70.9827 37.9195 70.829 39.0092C70.7848 39.3212 70.451 39.5963 70.1733 39.7441C69.641 39.7942 69.1244 39.7461 68.8131 39.2493C68.6977 39.0693 68.662 38.8489 68.7141 38.6418C68.8091 38.248 69.0585 38.0837 69.3797 37.8858Z" fill="var(--fill-0, #BABABA)"/>
<path id="Vector_55" d="M13.6698 39.9974C14.841 39.9018 15.2678 41.4843 13.9432 41.9163C13.3622 41.9229 12.8174 41.8477 12.6545 41.1709C12.5963 40.9229 12.6464 40.6623 12.7921 40.4532C13.0315 40.1036 13.2779 40.0693 13.6698 39.9974Z" fill="var(--fill-0, #BABABA)"/>
<path id="Vector_56" d="M44.2906 32.1438C44.8395 32.1124 45.2419 32.057 45.6238 32.5207C46.0994 33.098 45.7498 33.7018 45.2155 34.0636C43.7603 34.3339 43.2886 32.7789 44.2906 32.1438Z" fill="var(--fill-0, #BABABA)"/>
<path id="Vector_57" d="M31.1181 55.5037C32.6488 55.4074 33.059 56.7749 31.7436 57.3857C30.3068 57.4662 29.7905 56.1146 31.1181 55.5037Z" fill="var(--fill-0, #BABABA)"/>
<path id="Vector_58" d="M37.6754 32.1484C37.8375 32.1344 38.2872 32.089 38.4312 32.1397C39.4313 32.492 39.4305 33.5958 38.5568 34.0652C37.0996 34.341 36.7067 32.8233 37.6754 32.1484Z" fill="var(--fill-0, #BABABA)"/>
<path id="Vector_59" d="M31.256 38.4195C31.4443 38.4208 31.9103 38.4195 32.0561 38.5323C32.9408 39.2137 32.5872 40.0621 31.6411 40.3147C30.2956 40.3351 29.8435 38.8727 31.256 38.4195Z" fill="var(--fill-0, #BABABA)"/>
<path id="Vector_60" d="M31.0829 53.3197C31.828 53.2841 32.6998 53.5149 32.4638 54.5987C32.406 54.8639 32.0667 55.0882 31.8216 55.2043C30.3865 55.2986 29.7796 54.1086 31.0829 53.3197Z" fill="var(--fill-0, #BABABA)"/>
<path id="Vector_61" d="M69.7709 33.545C71.0328 33.5421 71.2828 34.9999 69.9424 35.4537C68.3223 35.424 68.2458 33.7588 69.7709 33.545Z" fill="var(--fill-0, #BABABA)"/>
<path id="Vector_62" d="M42.1112 32.1497C42.6593 32.0907 43.0683 32.054 43.4107 32.5701C43.5531 32.7812 43.602 33.0423 43.5439 33.2905C43.4529 33.6991 43.2787 33.8863 42.9423 34.1017C41.5472 34.3058 41.0537 32.8016 42.1112 32.1497Z" fill="var(--fill-0, #BABABA)"/>
<path id="Vector_63" d="M31.2286 46.9243C31.7488 46.89 32.2038 46.9395 32.4422 47.4758C32.5425 47.7041 32.5416 47.964 32.4397 48.1915C32.2718 48.5563 32.0429 48.681 31.6869 48.8096C30.1885 48.8202 29.87 47.2568 31.2286 46.9243Z" fill="var(--fill-0, #BABABA)"/>
<path id="Vector_64" d="M13.2253 37.8865L13.299 37.8832L13.4217 37.8786C13.5069 37.8746 13.862 37.8502 13.9231 37.8687C15.067 38.2137 15.0859 39.1438 14.1406 39.7072C13.9787 39.7461 13.7837 39.7731 13.6166 39.7606C13.316 39.7375 13.0385 39.5904 12.85 39.3549C12.7059 39.1722 12.6418 38.9393 12.6722 38.7084C12.7204 38.3291 12.9395 38.1062 13.2253 37.8865Z" fill="var(--fill-0, #BABABA)"/>
<path id="Vector_65" d="M31.0363 44.8141C31.6709 44.7759 32.6832 44.8557 32.5428 45.896C32.5008 46.206 32.1469 46.4916 31.8733 46.6427C31.273 46.6724 30.8611 46.6935 30.4986 46.1163C30.1464 45.5549 30.5793 45.0886 31.0363 44.8141Z" fill="var(--fill-0, #BABABA)"/>
<path id="Vector_66" d="M39.7987 32.1512C40.4369 32.0962 41.3736 32.1143 41.369 33.1573C41.3677 33.5331 41.0656 33.8661 40.7575 34.0815C40.6315 34.1004 40.5049 34.1128 40.3776 34.1186C39.3681 34.164 38.989 32.8786 39.7987 32.1512Z" fill="var(--fill-0, #BABABA)"/>
<path id="Vector_67" d="M13.6766 53.0083C14.8061 52.9476 15.231 54.536 13.8555 54.912C12.9064 54.8909 12.2278 54.3223 12.8589 53.3098C13.0239 53.0452 13.3747 53.0301 13.6766 53.0083Z" fill="var(--fill-0, #BABABA)"/>
<path id="Vector_68" d="M13.6664 46.5305C14.8109 46.4514 15.2983 48.1612 13.7347 48.4923C13.5086 48.4785 13.2897 48.433 13.0922 48.3136C12.8699 48.1797 12.7137 47.958 12.6613 47.704C12.5087 46.9666 13.0498 46.6559 13.6664 46.5305Z" fill="var(--fill-0, #BABABA)"/>
<path id="Vector_69" d="M35.5139 32.1853C36.0218 31.9423 36.6304 32.16 36.8689 32.6699C37.1074 33.18 36.8843 33.7866 36.3721 34.0206C35.8664 34.2516 35.2691 34.0319 35.0336 33.5282C34.7981 33.0246 35.0124 32.4254 35.5139 32.1853Z" fill="var(--fill-0, #BABABA)"/>
<path id="Vector_70" d="M13.3833 26.9361C14.9062 26.7753 15.2173 28.3447 14.0206 28.8095C13.4607 28.8686 12.9712 28.8166 12.7151 28.2267C12.6222 28.0131 12.6197 27.771 12.7081 27.5555C12.8459 27.2097 13.0661 27.0849 13.3833 26.9361Z" fill="var(--fill-0, #BABABA)"/>
<path id="Vector_71" d="M13.463 48.7094C13.5935 48.7206 14.0362 48.7569 14.132 48.8103C14.9257 49.2582 14.9577 50.3124 14.0331 50.6072C13.4359 50.6231 12.8451 50.6013 12.6331 49.8948C12.5688 49.6877 12.5903 49.4634 12.6928 49.2728C12.8787 48.9271 13.1083 48.815 13.463 48.7094Z" fill="var(--fill-0, #BABABA)"/>
<path id="Vector_72" d="M51.025 32.1479C51.686 32.1036 52.5554 32.0886 52.6603 33.0921C52.6899 33.3749 52.4004 33.7826 52.1332 33.9133C51.746 33.984 51.4399 33.9797 51.0501 33.9859C50.9933 33.9276 50.9379 33.8682 50.8832 33.8079C50.3713 33.2335 50.4504 32.6317 51.025 32.1479Z" fill="var(--fill-0, #BABABA)"/>
<path id="Vector_73" d="M13.6663 42.169C14.1156 42.1762 14.526 42.3939 14.6782 42.8372C14.7708 43.1057 14.7441 43.4005 14.6048 43.6479C14.41 43.9929 14.1635 44.045 13.8115 44.1248C12.3927 44.1281 12.1867 42.475 13.6663 42.169Z" fill="var(--fill-0, #BABABA)"/>
<path id="Vector_74" d="M31.1779 36.3106C31.7198 36.2756 32.1789 36.2921 32.4578 36.8416C32.5596 37.0395 32.5751 37.2711 32.5008 37.4808C32.3568 37.8918 32.1256 38.0132 31.7555 38.1748C30.422 38.2896 29.7898 36.8865 31.1779 36.3106Z" fill="var(--fill-0, #BABABA)"/>
<path id="Vector_75" d="M31.0637 49.1006C31.6427 49.0643 32.0979 49.0181 32.4372 49.5953C32.5429 49.7708 32.5694 49.9832 32.5099 50.1791C32.3932 50.565 32.1955 50.7253 31.8637 50.91C30.3545 51.0465 29.7926 49.6751 31.0637 49.1006Z" fill="var(--fill-0, #BABABA)"/>
<path id="Vector_76" d="M48.831 32.147C49.4029 32.1139 49.8633 32.0795 50.2017 32.6243C50.5744 33.2254 50.2143 33.7699 49.6885 34.0789C48.2208 34.3103 47.9187 32.7496 48.831 32.147Z" fill="var(--fill-0, #BABABA)"/>
<path id="Vector_77" d="M66.9819 57.8917C67.5261 57.7585 68.0749 58.0949 68.2036 58.6404C68.3329 59.1859 67.9918 59.7321 67.445 59.8561C66.9047 59.9795 66.3665 59.6431 66.2391 59.1035C66.1118 58.5646 66.443 58.023 66.9819 57.8917Z" fill="var(--fill-0, #BABABA)"/>
<path id="Vector_78" d="M13.3044 44.4164C13.444 44.4085 13.9017 44.3854 14.0076 44.4269C14.9205 44.7851 15.0657 45.7766 14.1553 46.235C13.5262 46.2805 12.9382 46.2845 12.6646 45.5675C12.5868 45.3656 12.5962 45.1413 12.6907 44.9474C12.829 44.6631 13.0183 44.5166 13.3044 44.4164Z" fill="var(--fill-0, #BABABA)"/>
<path id="Vector_79" d="M69.3672 59.3225C69.8989 59.3054 70.3336 59.2513 70.6753 59.7632C70.8006 59.9472 70.8415 60.1761 70.7868 60.3918C70.6865 60.7902 70.4543 61.0007 70.1258 61.2091C68.6383 61.3094 68.1996 59.9083 69.3672 59.3225Z" fill="var(--fill-0, #BABABA)"/>
<path id="Vector_80" d="M13.4495 35.713C14.9146 35.5969 15.3072 37.0237 13.9806 37.6022C13.475 37.6286 13.0074 37.5099 12.7577 37.0237C12.6513 36.8199 12.6338 36.5811 12.7092 36.3641C12.8382 35.9874 13.1133 35.8601 13.4495 35.713Z" fill="var(--fill-0, #BABABA)"/>
<path id="Vector_81" d="M51.248 55.5025C51.7651 55.4596 52.221 55.486 52.5138 55.9847C52.6286 56.1799 52.659 56.4128 52.5983 56.6305C52.4888 57.0348 52.2401 57.1885 51.8977 57.3752C51.3529 57.4326 50.8984 57.3666 50.6226 56.8211C50.5092 56.6001 50.4966 56.3409 50.589 56.1107C50.7268 55.7611 50.9261 55.6496 51.248 55.5025Z" fill="var(--fill-0, #BABABA)"/>
<path id="Vector_82" d="M31.0788 51.2121C31.798 51.1732 32.6593 51.3216 32.4437 52.414C32.3814 52.7299 32.0217 52.9344 31.7335 53.0617C31.0943 53.0512 30.2218 52.8731 30.3768 51.8981C30.4275 51.5802 30.7924 51.3434 31.0788 51.2121Z" fill="var(--fill-0, #BABABA)"/>
<path id="Vector_83" d="M33.3587 32.1813C33.6918 32.0381 34.0762 32.085 34.3652 32.3039C34.6542 32.5229 34.8032 32.8803 34.7555 33.2397C34.7078 33.5992 34.4706 33.9053 34.1344 34.0412C33.6225 34.2482 33.0392 34.0046 32.8267 33.495C32.614 32.9853 32.8513 32.3994 33.3587 32.1813Z" fill="var(--fill-0, #BABABA)"/>
<path id="Vector_84" d="M13.3339 61.5765C13.8558 61.3918 14.4291 61.6629 14.6171 62.184C14.8051 62.7052 14.5375 63.2797 14.0178 63.471C13.4936 63.6643 12.9124 63.3932 12.7227 62.8681C12.533 62.3424 12.8073 61.7632 13.3339 61.5765Z" fill="var(--fill-0, #BABABA)"/>
<path id="Vector_85" d="M51.2064 36.3126C52.7539 36.275 53.2018 37.5534 51.8812 38.1682C51.6371 38.1992 51.4518 38.2157 51.2137 38.1339C50.9353 38.0362 50.7097 37.8278 50.5896 37.5587C50.3383 37.0072 50.6873 36.5164 51.2064 36.3126Z" fill="var(--fill-0, #BABABA)"/>
<path id="Vector_86" d="M69.3765 57.2136C69.5084 57.2063 69.9602 57.1793 70.0612 57.2116C71.1324 57.5586 70.9926 58.5553 70.1595 59.0342C69.9668 59.0474 69.5229 59.0923 69.3514 59.0085C68.4345 58.5626 68.4457 57.6041 69.3765 57.2136Z" fill="var(--fill-0, #BABABA)"/>
<path id="Vector_87" d="M28.6463 57.868C30.0301 57.9023 30.1112 59.5151 28.9502 59.9208C27.5901 59.9116 27.2866 58.3812 28.6463 57.868Z" fill="var(--fill-0, #BABABA)"/>
<path id="Vector_88" d="M51.1734 44.8148C51.866 44.7686 52.7407 44.9533 52.6134 45.9896C52.5778 46.2792 52.2532 46.5055 51.9927 46.6321C51.3726 46.6948 50.8891 46.6387 50.5764 46.0127C50.4795 45.8201 50.4682 45.5958 50.5448 45.394C50.6694 45.0661 50.8733 44.9474 51.1734 44.8148Z" fill="var(--fill-0, #BABABA)"/>
<path id="Vector_89" d="M51.2301 53.3263C52.6695 53.2722 53.1451 54.4886 51.9215 55.2063C50.4465 55.3151 49.9557 53.9028 51.2301 53.3263Z" fill="var(--fill-0, #BABABA)"/>
<path id="Vector_90" d="M67.2761 61.9637C67.7715 61.9208 68.1858 61.8984 68.4529 62.3806C68.8118 63.0277 68.4958 63.5838 67.9344 63.9262C66.6316 64.0634 66.0544 62.6959 67.2761 61.9637Z" fill="var(--fill-0, #BABABA)"/>
<path id="Vector_91" d="M31.0332 42.7046C31.6815 42.6637 32.686 42.7534 32.5138 43.8419C32.4692 44.1248 32.1438 44.3716 31.8857 44.5008C30.4867 44.6737 29.7752 43.4131 31.0332 42.7046Z" fill="var(--fill-0, #BABABA)"/>
<path id="Vector_92" d="M13.2195 50.8822C13.8281 50.8466 14.3534 50.8928 14.6487 51.5241C14.7403 51.7167 14.746 51.9397 14.6644 52.1369C14.5419 52.437 14.3582 52.5835 14.0782 52.7108C12.5865 52.9463 12.0682 51.5901 13.2195 50.8822Z" fill="var(--fill-0, #BABABA)"/>
<path id="Vector_93" d="M69.2848 50.8856C69.5994 50.8664 69.9833 50.877 70.3039 50.8776C70.9972 51.4971 70.9827 52.1607 70.2069 52.6989C68.8072 52.817 68.0895 51.6501 69.2848 50.8856Z" fill="var(--fill-0, #BABABA)"/>
<path id="Vector_94" d="M13.1733 55.2327C13.3322 55.2182 13.8116 55.1885 13.9473 55.2294C14.8822 55.5111 15.0333 56.5038 14.1779 56.988C13.9638 57.0335 13.7894 57.0652 13.5679 57.0586C13.2718 57.0467 12.9949 56.9095 12.8064 56.6806C12.3714 56.1582 12.7065 55.5783 13.1733 55.2327Z" fill="var(--fill-0, #BABABA)"/>
<path id="Vector_95" d="M51.1107 38.4696C51.3034 38.4551 51.7275 38.4281 51.9017 38.4894C52.7922 38.8047 52.9703 39.8595 52.0296 40.2342C50.6358 40.5456 49.9458 39.3232 51.1107 38.4696Z" fill="var(--fill-0, #BABABA)"/>
<path id="Vector_96" d="M69.3125 52.9925C69.6152 52.9707 70.013 52.9865 70.3244 52.9892C70.9702 53.5954 70.9787 54.3032 70.1977 54.796C68.7887 54.9886 68.1066 53.7392 69.3125 52.9925Z" fill="var(--fill-0, #BABABA)"/>
<path id="Vector_97" d="M31.0418 40.5884C31.2498 40.5752 31.6787 40.539 31.8696 40.6175C32.8169 41.0073 32.7784 41.9876 31.8645 42.3734C30.5746 42.5727 29.7648 41.3279 31.0418 40.5884Z" fill="var(--fill-0, #BABABA)"/>
<path id="Vector_98" d="M15.5673 57.9551C16.0905 57.7862 16.6516 58.0718 16.8237 58.5936C16.9958 59.116 16.7143 59.6787 16.1934 59.8548C15.6674 60.0323 15.0976 59.7473 14.9238 59.2203C14.7501 58.6925 15.0389 58.1246 15.5673 57.9551Z" fill="var(--fill-0, #BABABA)"/>
<path id="Vector_99" d="M51.0844 34.2573C51.2466 34.2477 51.717 34.216 51.8542 34.2573C52.8911 34.5698 52.9762 35.5382 52.0197 36.0098C51.4874 36.1325 51.0105 36.085 50.6727 35.6035C50.5434 35.4214 50.4966 35.1938 50.5441 34.9755C50.6147 34.6476 50.8179 34.436 51.0844 34.2573Z" fill="var(--fill-0, #BABABA)"/>
<path id="Vector_100" d="M51.5046 46.9231C52.8179 46.9897 53.0838 48.3855 51.7071 48.8387C51.1609 48.8004 50.6859 48.6507 50.5441 48.0465C50.4874 47.8024 50.5415 47.5451 50.6912 47.3439C50.9148 47.0405 51.1549 46.9904 51.5046 46.9231Z" fill="var(--fill-0, #BABABA)"/>
<path id="Vector_101" d="M31.0477 32.1466C31.5658 32.115 31.9807 32.0666 32.3391 32.5308C32.7621 33.0784 32.3964 33.6352 31.9383 33.9827C31.3827 34.0212 30.9467 34.0441 30.5941 33.539C30.1974 32.9706 30.5458 32.4572 31.0477 32.1466Z" fill="var(--fill-0, #BABABA)"/>
<path id="Vector_102" d="M64.8697 57.8699C66.4311 57.9339 66.2273 59.6318 65.1896 59.9023C64.6276 59.8581 64.2364 59.7044 64.0702 59.1028C63.999 58.8515 64.032 58.5817 64.1619 58.3548C64.3433 58.0381 64.5386 57.9649 64.8697 57.8699Z" fill="var(--fill-0, #BABABA)"/>
<path id="Vector_103" d="M18.2257 5.03285C18.8598 5.00976 19.3015 5.05574 19.5819 5.70536C19.832 6.2848 19.4618 6.73237 18.9509 6.93653C17.5033 7.03924 17.1544 5.70127 18.2257 5.03285Z" fill="var(--fill-0, #BABABA)"/>
<path id="Vector_104" d="M26.5172 57.8798C27.0641 57.9432 27.4209 58.143 27.5233 58.7387C27.5729 59.023 27.5051 59.3152 27.3353 59.5487C27.1118 59.8588 26.9664 59.8634 26.5933 59.9234C26.1016 59.8805 25.7465 59.6859 25.6191 59.1714C25.5495 58.8799 25.6055 58.5725 25.7735 58.3238C25.9821 58.0184 26.1757 57.957 26.5172 57.8798Z" fill="var(--fill-0, #BABABA)"/>
<path id="Vector_105" d="M69.3791 55.0981C69.9312 55.0717 70.3198 55.0558 70.6628 55.5578C71.0559 56.1331 70.6661 56.6522 70.1443 56.922C68.6739 57.046 68.135 55.7175 69.3791 55.0981Z" fill="var(--fill-0, #BABABA)"/>
<path id="Vector_106" d="M51.1015 40.5897C51.7401 40.5508 52.684 40.6352 52.6319 41.665C52.6187 41.9301 52.2625 42.2276 52.0224 42.3523C51.463 42.4704 50.9386 42.4071 50.6193 41.8695C50.5052 41.6815 50.4735 41.4545 50.5316 41.2421C50.62 40.907 50.8251 40.7586 51.1015 40.5897Z" fill="var(--fill-0, #BABABA)"/>
<path id="Vector_107" d="M13.7146 33.5359C14.7639 33.4986 15.3701 35.0309 13.8431 35.4531C12.4466 35.3746 12.1534 33.863 13.7146 33.5359Z" fill="var(--fill-0, #BABABA)"/>
<path id="Vector_108" d="M60.3511 57.9392C61.8353 57.7822 62.2173 59.1503 61.144 59.8779C59.7634 60.0521 59.2812 58.7321 60.3511 57.9392Z" fill="var(--fill-0, #BABABA)"/>
<path id="Vector_109" d="M31.0325 34.2583C31.641 34.2228 32.2134 34.2274 32.4902 34.9036C32.5627 35.0791 32.5611 35.2763 32.4859 35.4511C32.3519 35.7605 32.1611 35.9056 31.8612 36.0224C30.4914 36.2374 29.7714 35.0032 31.0325 34.2583Z" fill="var(--fill-0, #BABABA)"/>
<path id="Vector_110" d="M62.7668 57.864C64.1777 57.9227 64.1579 59.5863 63.0662 59.9049C62.526 59.8931 62.1797 59.8027 61.9771 59.238C61.8742 58.9478 61.8986 58.6279 62.0444 58.3574C62.212 58.0394 62.4455 57.9689 62.7668 57.864Z" fill="var(--fill-0, #BABABA)"/>
<path id="Vector_111" d="M51.2512 49.1039C52.7216 49.0155 53.1708 50.319 51.802 50.9634C50.4287 51.0063 49.9867 49.629 51.2512 49.1039Z" fill="var(--fill-0, #BABABA)"/>
<path id="Vector_112" d="M51.1563 42.7066C52.8661 42.5859 53.0983 44.0932 51.9828 44.4639C50.4696 44.7409 50.0151 43.2033 51.1563 42.7066Z" fill="var(--fill-0, #BABABA)"/>
<path id="Vector_113" d="M51.3449 51.2154C51.5639 51.1969 51.8298 51.2048 52.0349 51.2912C52.2737 51.3935 52.461 51.5861 52.5567 51.8269C52.6398 52.0419 52.6319 52.2814 52.5343 52.4905C52.3773 52.8368 52.1807 52.9173 51.8482 53.0538C51.2816 53.0696 50.7671 52.9819 50.554 52.3651C50.4795 52.1547 50.4973 51.9225 50.6035 51.7259C50.7816 51.3895 51.0032 51.3235 51.3449 51.2154Z" fill="var(--fill-0, #BABABA)"/>
<path id="Vector_114" d="M13.2149 57.3475C13.4106 57.3363 13.8126 57.3046 13.993 57.3719C14.8817 57.7004 15.0028 58.7103 14.1028 59.1101C12.5756 59.4049 12.0908 58.054 13.2149 57.3475Z" fill="var(--fill-0, #BABABA)"/>
<path id="Vector_115" d="M69.2274 61.4973C69.3322 61.4855 69.4371 61.4762 69.542 61.469C70.7643 61.3878 71.1331 62.4248 70.1951 63.2988C68.7445 63.5436 68.1627 62.2764 69.2274 61.4973Z" fill="var(--fill-0, #BABABA)"/>
<path id="Vector_116" d="M15.5641 61.9624C17.0596 61.8694 17.1475 63.4987 16.0342 63.9724C15.9053 63.9809 15.7758 63.9763 15.6477 63.9598C14.6687 63.822 14.5303 62.5567 15.5641 61.9624Z" fill="var(--fill-0, #BABABA)"/>
<path id="Vector_117" d="M56.1557 57.9372C57.671 57.8066 57.8847 59.2426 56.9341 59.8772C55.4829 60.027 55.0469 58.643 56.1557 57.9372Z" fill="var(--fill-0, #BABABA)"/>
<path id="Vector_118" d="M24.0755 57.9286C24.2222 57.9088 24.3704 57.9042 24.518 57.9135C25.4432 57.9682 25.7567 59.2512 24.8367 59.8601C23.3417 60.0474 22.9894 58.6417 24.0755 57.9286Z" fill="var(--fill-0, #BABABA)"/>
<path id="Vector_119" d="M13.1548 59.4531C13.7568 59.4326 14.7316 59.4379 14.7177 60.4722C14.7142 60.7315 14.3999 61.0712 14.1756 61.2183C12.7809 61.5481 12.09 60.3179 13.1548 59.4531Z" fill="var(--fill-0, #BABABA)"/>
<path id="Vector_120" d="M58.2904 57.9339C59.8696 57.8158 59.983 59.3772 58.9117 59.903C58.1373 59.8852 57.5641 59.5923 57.6861 58.6516C57.731 58.306 58.0027 58.1048 58.2904 57.9339Z" fill="var(--fill-0, #BABABA)"/>
<path id="Vector_121" d="M54.8061 61.9519C56.2765 61.9275 56.4895 63.3675 55.3226 63.9671C54.0541 64.1036 53.6966 62.5178 54.8061 61.9519Z" fill="var(--fill-0, #BABABA)"/>
<path id="Vector_122" d="M56.9249 61.9558C58.3827 61.901 58.5061 63.4631 57.3847 63.9875C56.911 64.0007 56.5581 63.8642 56.3312 63.4242C56.1973 63.1696 56.1769 62.8707 56.2751 62.6003C56.4097 62.2276 56.5885 62.12 56.9249 61.9558Z" fill="var(--fill-0, #BABABA)"/>
<path id="Vector_123" d="M18.3277 7.23624C18.8335 7.06301 19.3852 7.32443 19.5714 7.82556C19.7576 8.3267 19.5105 8.8849 19.0143 9.08398C18.6818 9.21736 18.3031 9.15991 18.0251 8.93378C17.7472 8.70772 17.6137 8.34867 17.6766 7.99595C17.7395 7.64317 17.9887 7.35233 18.3277 7.23624Z" fill="var(--fill-0, #BABABA)"/>
<path id="Vector_124" d="M52.688 61.9617C54.1148 61.8786 54.3826 63.2804 53.3918 63.9308C51.9478 64.0917 51.5943 62.5957 52.688 61.9617Z" fill="var(--fill-0, #BABABA)"/>
<path id="Vector_125" d="M50.7361 61.9538C52.1226 61.9023 52.2401 63.4222 51.1985 63.9611C50.6549 63.9684 50.2664 63.9004 50.052 63.341C49.7888 62.6537 50.1536 62.2064 50.7361 61.9538Z" fill="var(--fill-0, #BABABA)"/>
<path id="Vector_126" d="M28.1127 61.9532C29.4366 61.9578 29.6725 63.376 28.6335 63.9763C27.1899 64.1016 26.9411 62.531 28.1127 61.9532Z" fill="var(--fill-0, #BABABA)"/>
<path id="Vector_127" d="M26.002 61.9578C27.3896 61.8826 27.6076 63.3912 26.5176 63.9796C25.2111 64.0819 24.8297 62.6465 26.002 61.9578Z" fill="var(--fill-0, #BABABA)"/>
<path id="Vector_128" d="M65.2292 61.9572C66.6626 61.905 66.8401 63.3794 65.689 63.9882C65.249 63.979 64.9126 63.8721 64.6718 63.473C64.5155 63.2105 64.4812 62.8939 64.5775 62.6036C64.6975 62.2342 64.9027 62.1313 65.2292 61.9572Z" fill="var(--fill-0, #BABABA)"/>
<path id="Vector_129" d="M54.0765 57.9445C55.5647 57.7842 55.8233 59.2348 54.7652 59.8759C53.4538 60.0593 52.9511 58.5824 54.0765 57.9445Z" fill="var(--fill-0, #BABABA)"/>
<path id="Vector_130" d="M18.3601 11.5022C18.8827 11.352 19.428 11.6547 19.5769 12.1777C19.7257 12.7008 19.4216 13.2452 18.8982 13.3927C18.3767 13.5397 17.8346 13.2369 17.6863 12.7158C17.538 12.1948 17.8394 11.6519 18.3601 11.5022Z" fill="var(--fill-0, #BABABA)"/>
<path id="Vector_131" d="M63.1955 61.9571C64.6045 61.9017 64.7642 63.4611 63.5933 63.9737C63.0854 63.9664 62.7199 63.8028 62.52 63.3048C62.4178 63.0515 62.4217 62.7672 62.5319 62.5172C62.677 62.1873 62.8809 62.0857 63.1955 61.9571Z" fill="var(--fill-0, #BABABA)"/>
<path id="Vector_132" d="M17.6774 61.9584C18.1268 61.9354 18.4563 61.9472 18.7258 62.3602C18.8873 62.6082 18.9341 62.913 18.8544 63.1979C18.7371 63.6201 18.5862 63.7705 18.2199 63.9684C16.9274 64.0713 16.5179 62.6227 17.6774 61.9584Z" fill="var(--fill-0, #BABABA)"/>
<path id="Vector_133" d="M19.848 57.9319C21.2915 57.7723 21.5728 59.333 20.4893 59.8759C19.1726 60.0567 18.7359 58.5105 19.848 57.9319Z" fill="var(--fill-0, #BABABA)"/>
<path id="Vector_134" d="M58.9685 61.9598C60.4448 61.8773 60.6169 63.4183 59.4626 63.9605C59.3359 63.9737 59.2079 63.9691 59.0826 63.948C58.1472 63.7903 57.9896 62.5508 58.9685 61.9598Z" fill="var(--fill-0, #BABABA)"/>
<path id="Vector_135" d="M48.6879 61.9532C49.2176 61.9551 49.5553 62.0178 49.7374 62.5864C49.8383 62.9064 49.8007 63.254 49.6338 63.5456C49.4478 63.8767 49.2604 63.9084 48.9141 63.9954C48.4847 63.9407 48.1694 63.7989 47.988 63.378C47.8752 63.1102 47.8798 62.8068 47.9998 62.5422C48.1516 62.2012 48.362 62.0877 48.6879 61.9532Z" fill="var(--fill-0, #BABABA)"/>
<path id="Vector_136" d="M17.7638 57.932C19.0999 57.769 19.4305 59.2315 18.3593 59.8852C16.8937 60.0521 16.67 58.4412 17.7638 57.932Z" fill="var(--fill-0, #BABABA)"/>
<path id="Vector_137" d="M18.3404 9.38451C18.7995 9.36393 19.1352 9.33774 19.4427 9.73353C19.8892 10.3081 19.5693 10.8679 19.0642 11.2375C18.5215 11.2726 18.0358 11.2656 17.7432 10.739C17.3965 10.1152 17.8438 9.66091 18.3404 9.38451Z" fill="var(--fill-0, #BABABA)"/>
<path id="Vector_138" d="M23.9454 61.9558C24.4969 61.9367 24.8761 62.0462 25.0641 62.6287C25.1655 62.9453 25.1267 63.2903 24.9575 63.5766C24.798 63.8477 24.6168 63.913 24.3304 63.9968C23.0425 63.9018 22.8475 62.6168 23.9454 61.9558Z" fill="var(--fill-0, #BABABA)"/>
<path id="Vector_139" d="M61.0794 61.9538C62.5458 61.9828 62.6592 63.3984 61.6084 63.9473C60.1908 64.0614 59.9751 62.3997 61.0794 61.9538Z" fill="var(--fill-0, #BABABA)"/>
<path id="Vector_140" d="M22.2568 57.8752C23.517 58.0388 23.6218 59.527 22.3504 59.9181C21.1075 59.8515 20.8958 58.2367 22.2568 57.8752Z" fill="var(--fill-0, #BABABA)"/>
<path id="Vector_141" d="M30.2268 61.9525C31.5234 61.9261 31.7259 63.6168 30.5293 64.0001C29.2127 63.975 29.0166 62.4934 30.2268 61.9525Z" fill="var(--fill-0, #BABABA)"/>
<path id="Vector_142" d="M19.8568 61.9532C21.3084 61.9288 21.3103 63.533 20.261 63.9869C18.8784 63.9024 18.6901 62.566 19.8568 61.9532Z" fill="var(--fill-0, #BABABA)"/>
<path id="Vector_143" d="M13.2317 24.7619C13.8415 24.7301 14.7125 24.7348 14.6985 25.737C14.6941 26.0548 14.4124 26.3801 14.1481 26.563C13.5662 26.6233 13.1588 26.6516 12.8012 26.083C12.6774 25.8901 12.6405 25.6541 12.6995 25.4327C12.7889 25.0864 12.9441 24.9418 13.2317 24.7619Z" fill="var(--fill-0, #BABABA)"/>
<path id="Vector_144" d="M36.3526 61.9571C37.79 61.9149 37.7933 63.5937 36.7677 63.9763C35.3576 63.9361 35.2099 62.5079 36.3526 61.9571Z" fill="var(--fill-0, #BABABA)"/>
<path id="Vector_145" d="M21.9855 61.9525C23.3032 61.9492 23.4395 63.5713 22.2928 63.9994C21.4389 63.9988 21.0123 63.3596 21.2867 62.537C21.4055 62.1801 21.6562 62.0944 21.9855 61.9525Z" fill="var(--fill-0, #BABABA)"/>
<path id="Vector_146" d="M46.5717 61.9624C47.9952 61.8754 48.1047 63.4869 47.0334 63.9823C45.6845 63.9849 45.4523 62.4512 46.5717 61.9624Z" fill="var(--fill-0, #BABABA)"/>
<path id="Vector_147" d="M32.3497 61.9525C33.6083 61.9644 33.7903 63.6214 32.5811 63.9823C31.3272 63.9579 31.0346 62.4618 32.3497 61.9525Z" fill="var(--fill-0, #BABABA)"/>
<path id="Vector_148" d="M40.6263 61.9512C41.8242 61.9492 42.0346 63.6643 40.7391 63.9908C40.2767 63.9235 39.9638 63.7685 39.8021 63.2916C39.7097 63.0112 39.7374 62.7045 39.8788 62.4452C40.0597 62.1062 40.2819 62.0561 40.6263 61.9512Z" fill="var(--fill-0, #BABABA)"/>
<path id="Vector_149" d="M42.5795 61.9479C43.9509 61.9861 44.0024 63.6623 42.8532 63.9915C42.3862 63.9288 42.1072 63.8404 41.8954 63.3773C41.7701 63.1029 41.7661 62.7889 41.8836 62.5119C42.0346 62.1517 42.2358 62.0759 42.5795 61.9479Z" fill="var(--fill-0, #BABABA)"/>
<path id="Vector_150" d="M38.4655 61.9565C39.8866 61.9736 39.8196 63.5634 38.8499 63.9598C37.4694 63.9545 37.2409 62.5224 38.4655 61.9565Z" fill="var(--fill-0, #BABABA)"/>
<path id="Vector_151" d="M44.5987 61.9519C45.9391 62.0112 46.0361 63.4631 44.9925 63.9816C43.6303 63.9275 43.3882 62.469 44.5987 61.9519Z" fill="var(--fill-0, #BABABA)"/>
<path id="Vector_152" d="M34.3981 61.9558C35.2953 61.998 35.5703 62.6418 35.2939 63.4822C35.1924 63.7916 34.9916 63.8609 34.7054 63.9776C34.2307 63.9671 33.854 63.9024 33.68 63.413C33.4096 62.6531 33.7362 62.2131 34.3981 61.9558Z" fill="var(--fill-0, #BABABA)"/>
<path id="Vector_153" d="M69.2261 24.7987C69.701 24.5659 70.2749 24.7607 70.5097 25.2346C70.7446 25.7085 70.552 26.2831 70.079 26.5199C69.6034 26.7581 69.0249 26.5642 68.7887 26.0876C68.5519 25.6108 68.7485 25.033 69.2261 24.7987Z" fill="var(--fill-0, #BABABA)"/>
<path id="Vector_154" d="M25.6185 4.97032C27.253 4.8746 27.1671 6.52148 26.2852 6.86635C25.778 6.87539 25.5111 6.87096 25.1939 6.42821C24.771 5.83802 25.0749 5.3041 25.6185 4.97032Z" fill="var(--fill-0, #BABABA)"/>
<path id="Vector_155" d="M11.1048 24.759C11.213 24.753 11.7467 24.7266 11.8272 24.7593C12.8062 25.1573 12.7463 26.0762 11.898 26.5505C10.5647 26.7677 10.2172 25.3426 11.1048 24.759Z" fill="var(--fill-0, #BABABA)"/>
<path id="Vector_156" d="M9.0773 24.7526C9.62019 24.7345 10.0341 24.6917 10.3659 25.2104C10.6871 25.7124 10.3404 26.2521 9.901 26.5188C9.36985 26.5603 8.98112 26.5645 8.66541 26.0743C8.31857 25.5358 8.62412 25.0559 9.0773 24.7526Z" fill="var(--fill-0, #BABABA)"/>
<path id="Vector_157" d="M75.2348 24.7538C75.8417 24.7266 76.7091 24.7539 76.6939 25.7297C76.6887 26.0604 76.3918 26.3221 76.126 26.5051C74.9215 26.7826 74.3067 25.6016 75.2348 24.7538Z" fill="var(--fill-0, #BABABA)"/>
<path id="Vector_158" d="M18.303 2.85128C19.5573 2.84798 19.6342 4.35752 18.5137 4.81895C18.3946 4.79012 18.2473 4.7545 18.1341 4.71162C17.8542 4.60436 17.6333 4.38278 17.527 4.1025C17.2797 3.45116 17.7466 3.05597 18.303 2.85128Z" fill="var(--fill-0, #BABABA)"/>
<path id="Vector_159" d="M71.271 24.7547C71.7235 24.7364 72.1061 24.6859 72.3963 25.1088C72.8093 25.7103 72.4887 26.2448 71.9537 26.5772C70.6225 26.665 70.298 25.3476 71.271 24.7547Z" fill="var(--fill-0, #BABABA)"/>
<path id="Vector_160" d="M73.2453 24.7556C73.3838 24.7512 73.8654 24.7264 73.9683 24.7779C74.8588 25.2216 74.7909 26.1133 73.9709 26.5395C72.7835 26.7154 72.2565 25.4021 73.2453 24.7556Z" fill="var(--fill-0, #BABABA)"/>
<path id="Vector_161" d="M7.06772 24.7677C7.57987 24.735 7.96609 24.6639 8.27903 25.1733C8.60028 25.6963 8.25218 26.2425 7.79907 26.5241C6.36407 26.6084 6.1134 25.2818 7.06772 24.7677Z" fill="var(--fill-0, #BABABA)"/>
<path id="Vector_162" d="M25.5282 7.15028C26.1026 7.10898 26.9044 7.09579 26.9302 8.00974C26.9393 8.33105 26.654 8.64973 26.4059 8.84571C25.1723 9.15284 24.6193 8.10063 25.5282 7.15028Z" fill="var(--fill-0, #BABABA)"/>
<path id="Vector_163" d="M22.0932 2.79851C23.4277 2.84014 23.3743 4.26538 22.4605 4.67304C21.7003 4.5925 21.1501 4.23022 21.4447 3.27959C21.5228 3.02754 21.8427 2.87273 22.0932 2.79851Z" fill="var(--fill-0, #BABABA)"/>
<path id="Vector_164" d="M19.9841 2.86336C20.7318 2.78064 21.3194 2.97101 21.2046 3.91174C21.1675 4.21603 20.9395 4.44447 20.6933 4.61921C19.4897 4.84501 19.0121 3.47314 19.9841 2.86336Z" fill="var(--fill-0, #BABABA)"/>
<path id="Vector_165" d="M24.0894 2.79481C25.2932 2.95906 25.3906 4.2469 24.2468 4.66373C23.7874 4.60027 23.4518 4.46148 23.3013 3.97519C23.2277 3.73263 23.2575 3.47042 23.3836 3.2505C23.5523 2.95504 23.7833 2.88564 24.0894 2.79481Z" fill="var(--fill-0, #BABABA)"/>
<path id="Vector_166" d="M25.7327 2.84744C26.9121 2.84625 27.3072 3.94193 26.3528 4.65284C24.9644 4.8101 24.7492 3.40438 25.7327 2.84744Z" fill="var(--fill-0, #BABABA)"/>
<path id="Vector_167" d="M4.76912 33.6039C5.19625 33.431 5.68274 33.6359 5.85767 34.0621C6.03261 34.4885 5.83017 34.9761 5.40476 35.1529C4.97638 35.331 4.48475 35.1272 4.30856 34.6978C4.13243 34.2685 4.33896 33.7779 4.76912 33.6039Z" fill="var(--fill-0, #BABABA)"/>
<path id="Vector_168" d="M3.78557 34.8917C4.7534 35.1278 5.08514 36.1576 4.08346 36.6912C2.89636 36.6213 2.77637 35.4788 3.78557 34.8917Z" fill="var(--fill-0, #BABABA)"/>
<path id="Vector_169" d="M5.01603 36.4221C5.46948 36.3931 5.85992 36.7387 5.88571 37.1926C5.91157 37.6457 5.56288 38.0336 5.10904 38.0567C4.65982 38.0785 4.27676 37.7341 4.25123 37.2856C4.22564 36.8363 4.56714 36.4504 5.01603 36.4221Z" fill="var(--fill-0, #BABABA)"/>
<path id="Vector_170" d="M6.20498 34.9663C7.25863 34.9715 7.5186 36.2697 6.43058 36.7011C5.3316 36.467 5.21478 35.3977 6.20498 34.9663Z" fill="var(--fill-0, #BABABA)"/>
<path id="Vector_171" d="M7.73298 34.9511C8.145 35.0032 8.39527 35.017 8.59897 35.4135C8.85445 35.9102 8.74706 36.3456 8.23174 36.5824C7.15909 36.7236 6.92623 35.5837 7.73298 34.9511Z" fill="var(--fill-0, #BABABA)"/>
<path id="Vector_172" d="M4.76114 30.1942C5.15343 30.0242 5.60918 30.2052 5.77812 30.5979C5.94699 30.9907 5.7648 31.446 5.37158 31.6138C4.97988 31.7809 4.52683 31.5996 4.35855 31.2084C4.19034 30.8171 4.37036 30.3636 4.76114 30.1942Z" fill="var(--fill-0, #BABABA)"/>
<path id="Vector_173" d="M1.89819 35.0461C1.979 35.0388 2.28791 35.0038 2.34754 35.017C3.14209 35.1905 3.18378 36.1252 2.6244 36.5586C2.57117 36.5685 2.5178 36.5771 2.4643 36.585C1.46909 36.7242 1.31025 35.6925 1.89819 35.0461Z" fill="var(--fill-0, #BABABA)"/>
<path id="Vector_174" d="M4.79397 31.9013C5.17848 31.7438 5.61808 31.9256 5.77896 32.3088C5.93985 32.6919 5.76181 33.1331 5.38014 33.2973C4.99372 33.4636 4.54582 33.2829 4.38295 32.8949C4.22001 32.5071 4.40465 32.0607 4.79397 31.9013Z" fill="var(--fill-0, #BABABA)"/>
<path id="Vector_175" d="M0.512382 35.0329C1.51782 34.9913 1.75081 36.1424 0.945375 36.5758C-0.0305762 36.5065 -0.375836 35.6747 0.512382 35.0329Z" fill="var(--fill-0, #BABABA)"/>
<path id="Vector_176" d="M4.63862 38.2658C5.55547 38.2572 6.35714 38.8753 5.48732 39.6075C5.41239 39.6201 5.33706 39.6313 5.26153 39.6405C4.34818 39.7461 3.98451 38.9057 4.63862 38.2658Z" fill="var(--fill-0, #BABABA)"/>
<path id="Vector_177" d="M4.66015 39.907C5.04063 39.9017 5.35311 39.8312 5.64342 40.1227C6.02839 40.5093 5.73841 40.9308 5.39117 41.2131C4.44912 41.3688 3.95557 40.7072 4.66015 39.907Z" fill="var(--fill-0, #BABABA)"/>
<path id="Vector_178" d="M9.30329 34.9418C10.3129 35.0546 10.2149 35.8924 9.73522 36.5586C8.63849 36.5613 8.61131 35.5434 9.30329 34.9418Z" fill="var(--fill-0, #BABABA)"/>
<path id="Vector_179" d="M62.7991 4.75878C63.8083 5.0051 63.9647 6.05565 62.9508 6.42968C62.1579 6.418 61.7852 5.88546 62.1493 5.12528C62.2694 4.87409 62.5405 4.8258 62.7991 4.75878Z" fill="var(--fill-0, #BABABA)"/>
<path id="Vector_180" d="M63.6269 3.44668C64.094 3.4222 64.3849 3.3976 64.7167 3.78653C65.1118 4.24973 64.7945 4.64829 64.4146 4.91354C63.28 5.16295 62.6988 4.11635 63.6269 3.44668Z" fill="var(--fill-0, #BABABA)"/>
<path id="Vector_181" d="M63.9667 6.12414C64.9495 6.48457 65.0656 7.47853 64.0808 7.88745C63.2338 7.87558 63.2476 7.50617 63.1216 6.79652C63.3848 6.53767 63.6698 6.34123 63.9667 6.12414Z" fill="var(--fill-0, #BABABA)"/>
<path id="Vector_182" d="M64.9805 4.82533C66.1514 4.82434 66.3124 5.93473 65.4086 6.47346C64.3915 6.4323 64.1124 5.50668 64.9805 4.82533Z" fill="var(--fill-0, #BABABA)"/>
<path id="Vector_183" d="M61.0273 4.81998C62.1348 4.88093 62.1876 6.06533 61.3756 6.42834C60.3148 6.35941 60.1367 5.25027 61.0273 4.81998Z" fill="var(--fill-0, #BABABA)"/>
<path id="Vector_184" d="M63.8789 0.208134C64.9172 0.217699 64.9924 1.43284 64.2628 1.61543C63.0754 1.63634 62.7984 0.690008 63.8789 0.208134Z" fill="var(--fill-0, #BABABA)"/>
<path id="Vector_185" d="M66.5294 4.82508C66.8091 4.81644 67.0743 4.79592 67.261 5.04883C67.5697 5.46678 67.4984 6.07511 67.0617 6.37209C66.697 6.40599 66.445 6.43456 66.2431 6.06918C65.9713 5.57582 66.0545 5.12344 66.5294 4.82508Z" fill="var(--fill-0, #BABABA)"/>
<path id="Vector_186" d="M67.9984 4.81901C68.2992 4.81756 68.5143 4.82495 68.728 5.06572C68.8698 5.22404 68.9391 5.43506 68.9173 5.6468C68.885 5.96594 68.7498 6.13066 68.5123 6.31912C68.4364 6.33079 68.3599 6.34036 68.2834 6.34781C67.443 6.42486 67.3262 5.39165 67.9984 4.81901Z" fill="var(--fill-0, #BABABA)"/>
<path id="Vector_187" d="M59.5134 4.81473C60.4698 4.85365 60.6196 5.90599 59.8386 6.39076C58.768 6.29083 58.6584 5.41409 59.5134 4.81473Z" fill="var(--fill-0, #BABABA)"/>
<path id="Vector_188" d="M63.5966 9.53848C63.8301 9.42066 64.1085 9.43821 64.3248 9.58439C64.5412 9.7305 64.6619 9.98235 64.6395 10.2427C64.6177 10.5029 64.4561 10.7307 64.218 10.8381C63.8611 10.9993 63.4409 10.8456 63.272 10.4922C63.1032 10.1388 63.2476 9.7152 63.5966 9.53848Z" fill="var(--fill-0, #BABABA)"/>
<path id="Vector_189" d="M63.4858 1.86073C64.4344 1.8077 65.1422 2.02789 64.4858 3.12548C63.3895 3.37707 63.061 2.84058 63.4858 1.86073Z" fill="var(--fill-0, #BABABA)"/>
<path id="Vector_190" d="M63.9501 8.08355C64.8961 8.01303 64.8809 9.05317 64.1118 9.30693C63.6177 9.25185 62.8881 8.98905 63.3347 8.24648C63.4277 8.09192 63.7661 8.10096 63.9501 8.08355Z" fill="var(--fill-0, #BABABA)"/>
<path id="Vector_191" d="M72.0553 10.8753C72.4926 10.7161 72.9768 10.9388 73.1397 11.3744C73.3033 11.8101 73.085 12.2961 72.6509 12.4636C72.211 12.6334 71.7175 12.4118 71.5513 11.9702C71.3857 11.5286 71.6127 11.0368 72.0553 10.8753Z" fill="var(--fill-0, #BABABA)"/>
<path id="Vector_192" d="M8.20456 41.5568C8.63729 41.5166 9.02714 41.8187 9.09706 42.2475C9.16698 42.6762 8.89317 43.0859 8.47013 43.1855C8.16907 43.2567 7.85362 43.1538 7.65243 42.919C7.45117 42.6841 7.3978 42.3563 7.51397 42.07C7.6302 41.7831 7.89657 41.5852 8.20456 41.5568Z" fill="var(--fill-0, #BABABA)"/>
</g>
</svg>
