<svg preserveAspectRatio="xMidYMid meet"  overflow="visible" viewBox="0 0 60.0392 64.0001" fill="none" xmlns="http://www.w3.org/2000/svg">
<g id="Group 48095704" opacity="0.48">
<path id="Vector" d="M8.38372 24.1051C9.95205 23.984 9.95732 26.0807 8.64942 26.507C7.04012 26.5114 6.9378 24.3652 8.38372 24.1051Z" fill="var(--fill-0, #BABABA)"/>
<path id="Vector_2" d="M46.6512 24.544C46.8658 24.5354 47.0748 24.5328 47.2552 24.6674C47.7869 25.0644 47.8466 25.9286 47.4483 26.4364C47.2444 26.6965 46.9586 26.678 46.6664 26.6918C46.385 26.6997 46.1551 26.7331 45.9124 26.5865C45.6857 26.452 45.5231 26.2314 45.4621 25.975C45.2493 25.0842 45.9194 24.7062 46.6512 24.544Z" fill="var(--fill-0, #BABABA)"/>
<path id="Vector_3" d="M40.112 10.5319C40.6836 10.6698 41.3455 11.4452 41.6923 11.9002C41.3601 12.2578 41.0088 12.5905 40.6582 12.929C39.9481 13.1058 39.2202 12.6513 39.2716 11.8818C39.3142 11.2394 39.6845 10.9386 40.112 10.5319Z" fill="var(--fill-0, #BABABA)"/>
<path id="Vector_4" d="M19.3189 5.92565C20.3511 5.84669 20.6001 6.94238 20.2159 7.72111C20.0553 8.04683 19.7366 8.13188 19.4109 8.23643C18.6121 8.1054 18.0428 7.35169 18.3448 6.52894C18.4844 6.14879 18.9543 6.04881 19.3189 5.92565Z" fill="var(--fill-0, #BABABA)"/>
<path id="Vector_5" d="M21.4314 5.48729C22.0155 5.44207 22.4239 5.53519 22.6126 6.17081C22.7101 6.50193 22.672 6.85827 22.5067 7.16131C22.3299 7.48557 22.1398 7.54674 21.8065 7.64837C20.824 7.66133 20.2168 6.81126 20.6143 5.85881C20.7178 5.61084 21.177 5.5423 21.4314 5.48729Z" fill="var(--fill-0, #BABABA)"/>
<path id="Vector_6" d="M23.6544 5.23395C24.2617 5.19088 24.6929 5.23185 24.8962 5.90902C24.9959 6.24465 24.9521 6.60651 24.7749 6.90854C24.5824 7.23781 24.3931 7.28069 24.0419 7.37342C22.8165 7.38333 22.8706 6.53194 22.7522 5.55674C23.1402 5.36702 23.2243 5.32027 23.6544 5.23395Z" fill="var(--fill-0, #BABABA)"/>
<path id="Vector_7" d="M45.0492 33.1713C45.8152 33.3082 46.0268 33.3232 46.5266 33.9359C46.3704 34.7297 46.2916 34.9209 45.6501 35.4397C45.4684 35.4043 45.1629 35.3284 44.9946 35.258C43.8703 34.7893 44.0094 33.6125 45.0492 33.1713Z" fill="var(--fill-0, #BABABA)"/>
<path id="Vector_8" d="M42.9049 37.167C44.3093 37.1244 44.8962 38.8198 43.4778 39.3984C42.6006 39.3787 42.3358 39.0992 42.0353 38.304C42.0639 38.2017 42.0957 38.1007 42.1293 38.001C42.2938 37.5257 42.4768 37.3806 42.9049 37.167Z" fill="var(--fill-0, #BABABA)"/>
<path id="Vector_9" d="M36.3518 7.99648C37.7879 8.17592 38.4365 9.20841 37.1146 10.2317C36.2146 10.481 35.8087 9.93042 35.5527 9.16191C35.796 8.61585 35.8811 8.39277 36.3518 7.99648Z" fill="var(--fill-0, #BABABA)"/>
<path id="Vector_10" d="M46.1475 20.0227C46.5826 20.0894 46.878 20.4396 46.9745 20.8442C47.2267 21.9033 46.3743 22.0867 45.6883 22.2237C45.2722 22.1478 44.9064 21.9142 44.7876 21.481C44.7253 21.2442 44.7546 20.9926 44.8689 20.7763C45.1446 20.2502 45.6184 20.1787 46.1475 20.0227Z" fill="var(--fill-0, #BABABA)"/>
<path id="Vector_11" d="M41.909 12.2558C42.2088 12.3418 42.7678 12.7528 42.8916 13.0467C43.2575 13.9143 42.6617 14.2971 41.9916 14.6363C41.6283 14.6265 41.1309 14.4519 40.9626 14.1285C40.4887 13.2182 41.2948 12.614 41.909 12.2558Z" fill="var(--fill-0, #BABABA)"/>
<path id="Vector_12" d="M26.5707 46.5177C28.1192 46.404 28.3688 48.2695 27.2725 48.7269C26.6558 48.8488 26.2118 48.7574 25.9837 48.1253C25.724 47.4057 25.858 46.8004 26.5707 46.5177Z" fill="var(--fill-0, #BABABA)"/>
<path id="Vector_13" d="M46.5185 22.2634C46.7573 22.2363 46.7764 22.2168 47.0063 22.2992C47.484 22.7302 47.6332 23.3914 47.2369 23.9394C46.9587 24.324 46.5267 24.3259 46.0935 24.3816C45.9614 24.3875 45.8083 24.3177 45.6966 24.2493C45.1763 23.9294 45.1389 23.1919 45.478 22.7276C45.755 22.3482 46.0993 22.3315 46.5185 22.2634Z" fill="var(--fill-0, #BABABA)"/>
<path id="Vector_14" d="M46.3577 26.8959C46.7147 26.8938 47.0996 26.8641 47.379 27.0905C47.5969 27.2662 47.7284 27.5278 47.7386 27.8077C47.7665 28.3903 47.4432 28.8451 46.8353 28.8555C46.6162 28.8522 46.1201 28.8491 45.9543 28.7287C45.0498 28.0742 45.2791 27.0938 46.3577 26.8959Z" fill="var(--fill-0, #BABABA)"/>
<path id="Vector_15" d="M25.856 5.11592C27.7545 4.91647 27.4744 6.96741 26.5045 7.24688C26.3381 7.25317 25.9779 7.27553 25.8382 7.21671C25.2322 6.96111 24.9229 6.1996 25.2074 5.59872C25.3605 5.27535 25.5466 5.24181 25.856 5.11592Z" fill="var(--fill-0, #BABABA)"/>
<path id="Vector_16" d="M24.3461 46.6409C24.4935 46.6294 24.8879 46.5945 25.0074 46.6453C25.9246 47.0385 26.0198 48.3876 25.0664 48.8087C23.3275 49.0368 23.2936 47.1052 24.3461 46.6409Z" fill="var(--fill-0, #BABABA)"/>
<path id="Vector_17" d="M31.2557 45.8202C32.1723 45.824 32.9726 47.645 31.2754 48.1056C30.7584 48.1087 30.3779 47.8426 30.2674 47.3491C30.0444 46.3563 30.4294 46.0012 31.2557 45.8202Z" fill="var(--fill-0, #BABABA)"/>
<path id="Vector_18" d="M28.8852 46.268C29.9377 46.2839 30.3036 47.0417 29.972 48.0485C29.8863 48.3082 29.6074 48.4061 29.3616 48.5007C29.1965 48.5039 28.7626 48.5191 28.6407 48.4207C27.8537 47.7855 27.7375 46.538 28.8852 46.268Z" fill="var(--fill-0, #BABABA)"/>
<path id="Vector_19" d="M38.3164 9.20345C38.8843 9.29054 39.7189 9.75822 39.6179 10.4361C39.5417 10.9456 39.1701 11.2623 38.7852 11.5533C38.1068 11.6281 37.4748 11.2621 37.5282 10.522C37.5701 9.93607 37.8997 9.57618 38.3164 9.20345Z" fill="var(--fill-0, #BABABA)"/>
<path id="Vector_20" d="M22.1781 46.5083C23.8038 46.4625 23.9022 48.3083 22.7983 48.7441C22.2486 48.7174 21.824 48.6895 21.5567 48.1343C21.4256 47.8599 21.4089 47.5442 21.5102 47.2578C21.6606 46.8328 21.8 46.7039 22.1781 46.5083Z" fill="var(--fill-0, #BABABA)"/>
<path id="Vector_21" d="M32.9942 45.2435C33.5506 45.2079 33.9285 45.368 34.194 45.8678C34.6005 46.6345 34.3306 47.0486 33.6649 47.3611C33.4636 47.4208 33.1777 47.5022 32.9802 47.4253C32.3723 47.1884 32.1538 46.3817 32.3406 45.8037C32.4504 45.4632 32.7147 45.3756 32.9942 45.2435Z" fill="var(--fill-0, #BABABA)"/>
<path id="Vector_22" d="M28.0709 5.22644C28.4901 5.21005 28.9303 5.21488 29.2263 5.55483C29.4048 5.7633 29.4886 6.03649 29.4575 6.30923C29.4105 6.71569 29.178 7.11197 28.8484 7.36071C27.6085 7.48711 27.0743 6.73188 27.571 5.503C27.6415 5.32858 27.8931 5.27408 28.0709 5.22644Z" fill="var(--fill-0, #BABABA)"/>
<path id="Vector_23" d="M6.89181 35.9634C8.23332 35.9348 8.5133 37.5987 6.98658 38.1302C6.59188 38.1289 6.09828 37.9885 5.94736 37.6088C5.57705 36.6769 6.25181 36.2619 6.89181 35.9634Z" fill="var(--fill-0, #BABABA)"/>
<path id="Vector_24" d="M41.7851 38.9483C43.1139 39.2119 43.2905 40.655 41.9127 41.3201C41.4942 41.2629 41.073 40.9415 40.8984 40.5566C40.7631 40.2555 40.7637 39.9106 40.9003 39.6102C41.0838 39.21 41.3963 39.083 41.7851 38.9483Z" fill="var(--fill-0, #BABABA)"/>
<path id="Vector_25" d="M15.3949 7.43222C16.3613 7.70954 16.8327 9.55747 15.0882 9.778C14.726 9.58954 14.3878 9.30791 14.2118 8.92769C14.1138 8.71617 14.111 8.47277 14.2042 8.25903C14.4167 7.78093 14.9401 7.62233 15.3949 7.43222Z" fill="var(--fill-0, #BABABA)"/>
<path id="Vector_26" d="M44.0025 35.3346C44.463 35.2826 44.9648 35.3432 45.2881 35.7168C45.4501 35.9033 45.5269 36.1493 45.4984 36.3949C45.4514 36.8466 45.123 37.2164 44.78 37.483C44.3646 37.562 43.8793 37.3626 43.6182 37.0341C43.4169 36.7841 43.3337 36.4589 43.3902 36.1428C43.4626 35.7497 43.6856 35.5378 44.0025 35.3346Z" fill="var(--fill-0, #BABABA)"/>
<path id="Vector_27" d="M30.2286 5.61316L30.3429 5.62428C30.8257 5.67534 31.175 5.71473 31.4958 6.12023C31.9131 6.64831 31.4926 7.42711 31.0003 7.74254C29.9777 7.82391 29.2618 7.41206 29.6436 6.16431C29.7338 5.86787 29.9396 5.72267 30.2286 5.61316Z" fill="var(--fill-0, #BABABA)"/>
<path id="Vector_28" d="M8.46338 21.4201C10.1881 21.254 10.2875 22.9218 9.32055 23.5404C7.73019 23.6967 7.33479 22.2276 8.46338 21.4201Z" fill="var(--fill-0, #BABABA)"/>
<path id="Vector_29" d="M9.47394 39.5725C10.8706 39.7275 10.79 41.1789 9.60581 41.9208C8.06867 41.7061 8.01633 40.2985 9.47394 39.5725Z" fill="var(--fill-0, #BABABA)"/>
<path id="Vector_30" d="M5.13906 31.9674C5.86113 31.9465 6.3076 32.9687 5.91544 33.5414C5.62497 33.9656 5.31399 33.998 4.86193 34.1244C4.41578 34.0787 4.06694 33.8227 3.92625 33.3876C3.83751 33.112 3.87264 32.8114 4.02241 32.5637C4.29586 32.1096 4.64756 32.0873 5.13906 31.9674Z" fill="var(--fill-0, #BABABA)"/>
<path id="Vector_31" d="M13.2639 8.65393C14.3326 8.58063 15.1272 10.4533 13.4349 10.932C12.711 10.7977 12.4495 10.2339 12.1382 9.63649C12.5323 9.07989 12.6774 8.98378 13.2639 8.65393Z" fill="var(--fill-0, #BABABA)"/>
<path id="Vector_32" d="M4.1706 27.6612C5.15976 27.6206 5.50988 28.6103 5.01996 29.3835C4.86009 29.6359 4.52687 29.6597 4.24739 29.7019C3.96848 29.7388 3.83166 29.7759 3.58871 29.6154C3.3401 29.4502 3.17069 29.1897 3.12045 28.8955C2.97188 28.0566 3.43131 27.7427 4.1706 27.6612Z" fill="var(--fill-0, #BABABA)"/>
<path id="Vector_33" d="M58.8346 58.518C59.0372 58.4952 59.2348 58.4901 59.4247 58.5726C59.6902 58.6889 59.8928 58.9137 59.9811 59.19C60.0853 59.5064 60.0484 59.8525 59.8788 60.139C59.6838 60.4699 59.4882 60.5227 59.1376 60.6116C57.6157 60.4083 57.3038 58.9995 58.8346 58.518Z" fill="var(--fill-0, #BABABA)"/>
<path id="Vector_34" d="M35.1932 44.2144C35.5196 44.2805 36.0621 44.6921 36.1872 44.9989C36.5423 45.8665 36.036 46.2292 35.3386 46.5532C34.4138 46.5849 33.4229 44.8699 35.1932 44.2144Z" fill="var(--fill-0, #BABABA)"/>
<path id="Vector_35" d="M11.4115 9.91625C12.1753 9.93359 12.3877 10.4831 12.6995 11.0882C12.4605 11.7353 12.3923 11.9823 11.7059 12.2274C10.9405 12.1846 10.6913 11.5469 10.3716 10.9457C10.7257 10.4254 10.8964 10.2557 11.4115 9.91625Z" fill="var(--fill-0, #BABABA)"/>
<path id="Vector_36" d="M5.70061 16.6479C6.99892 16.6598 7.78565 17.9268 6.58961 18.9055C6.30244 18.9498 5.77245 18.8588 5.53254 18.7211C5.32928 18.6023 5.18865 18.4001 5.14819 18.1682C5.0465 17.5953 5.39414 17.0897 5.70061 16.6479Z" fill="var(--fill-0, #BABABA)"/>
<path id="Vector_37" d="M40.1393 40.5285C41.2477 40.5825 41.8466 42.2276 40.4327 42.8767C39.9875 42.8348 39.5244 42.5261 39.3548 42.1234C38.9871 41.2481 39.4457 40.834 40.1393 40.5285Z" fill="var(--fill-0, #BABABA)"/>
<path id="Vector_38" d="M34.3103 6.99201C34.6863 6.97295 35.312 7.12685 35.5762 7.4036C36.1574 8.01198 35.6004 8.67003 35.1564 9.13244C33.9051 9.49989 33.1302 7.98473 34.3103 6.99201Z" fill="var(--fill-0, #BABABA)"/>
<path id="Vector_39" d="M3.8104 25.3733C4.09686 25.393 4.33353 25.3876 4.59491 25.5319C5.29691 25.9195 5.40603 27.2922 4.47302 27.4469C4.20275 27.4572 3.79458 27.4954 3.56014 27.369C3.31661 27.2376 3.13812 27.0114 3.06692 26.744C2.92057 26.1815 3.20342 25.5142 3.8104 25.3733Z" fill="var(--fill-0, #BABABA)"/>
<path id="Vector_40" d="M45.4786 31.1412C47.0323 31.078 47.7234 32.2034 46.5095 33.1646C45.0486 33.2024 44.2114 32.1269 45.4786 31.1412Z" fill="var(--fill-0, #BABABA)"/>
<path id="Vector_41" d="M45.6445 29.1103C46.3108 29.0886 47.4897 28.8746 47.4592 29.8977C47.4427 30.443 47.4211 30.593 47.0355 30.9766C45.6991 31.1852 44.6669 30.4016 45.6445 29.1103Z" fill="var(--fill-0, #BABABA)"/>
<path id="Vector_42" d="M36.9672 43.0667C37.9187 43.1581 38.7349 44.7956 37.1686 45.3736C36.7481 45.3489 36.3066 45.1532 36.1332 44.7308C35.7673 43.8422 36.1916 43.4078 36.9672 43.0667Z" fill="var(--fill-0, #BABABA)"/>
<path id="Vector_43" d="M4.56009 29.8866C4.78119 29.8747 5.00744 29.9243 5.19336 30.0475C5.40437 30.1886 5.54938 30.409 5.59543 30.6587C5.75003 31.4605 5.25065 31.7312 4.58753 31.8595C3.51236 32.0096 3.15253 31.0321 3.67858 30.2012C3.83909 29.9478 4.27464 29.9203 4.56009 29.8866Z" fill="var(--fill-0, #BABABA)"/>
<path id="Vector_44" d="M5.99021 33.9947C6.32819 34.016 6.76024 34.3316 6.84878 34.6438C7.11486 35.5818 6.54415 35.9523 5.83148 36.1841C5.08044 36.0836 4.53704 35.5085 4.8761 34.7324C5.09174 34.2388 5.517 34.1519 5.99021 33.9947Z" fill="var(--fill-0, #BABABA)"/>
<path id="Vector_45" d="M57.7688 60.6549C58.3296 60.472 58.9324 60.78 59.1122 61.3422C59.2919 61.9037 58.9801 62.5045 58.4173 62.6811C57.859 62.8558 57.2638 62.5471 57.086 61.9901C56.9075 61.433 57.213 60.8366 57.7688 60.6549Z" fill="var(--fill-0, #BABABA)"/>
<path id="Vector_46" d="M17.3571 6.55622L17.57 6.58416C18.126 6.97404 18.4709 7.64866 18.094 8.30417C17.9043 8.63408 17.524 8.71431 17.1795 8.79948C16.7724 8.68598 16.3089 8.35498 16.1867 7.95825C15.9001 7.02847 16.7644 6.75293 17.3571 6.55622Z" fill="var(--fill-0, #BABABA)"/>
<path id="Vector_47" d="M32.2808 6.16756C32.7648 6.22765 33.3035 6.34001 33.6287 6.75065C34.0085 7.23047 33.5417 8.01066 33.104 8.29592C31.4614 8.70447 31.2912 6.78514 32.2808 6.16756Z" fill="var(--fill-0, #BABABA)"/>
<path id="Vector_48" d="M53.6452 61.6749C54.0199 61.6 54.4061 61.7321 54.6564 62.0211C54.9073 62.3101 54.9829 62.7109 54.8552 63.0717C54.7275 63.4318 54.4163 63.6961 54.0403 63.7634C53.4667 63.8656 52.9179 63.4871 52.8093 62.9148C52.7013 62.3418 53.0735 61.7892 53.6452 61.6749Z" fill="var(--fill-0, #BABABA)"/>
<path id="Vector_49" d="M10.6566 41.3035C12.2157 41.2044 12.6221 42.4507 11.3759 43.4231C11.0661 43.4924 10.539 43.4339 10.3282 43.1919C9.71638 42.49 10.1696 41.8034 10.6566 41.3035Z" fill="var(--fill-0, #BABABA)"/>
<path id="Vector_50" d="M55.8575 61.8808C57.3432 61.8675 57.751 63.3944 56.4165 63.9813C55.0458 64.2011 54.5961 62.4302 55.8575 61.8808Z" fill="var(--fill-0, #BABABA)"/>
<path id="Vector_51" d="M44.3258 16.0091C44.7418 15.9934 45.0772 16.3256 45.2398 16.6758C45.6597 17.5793 44.8231 17.9671 44.2527 18.2336C43.622 18.1644 42.9995 17.6082 43.2371 16.9278C43.4219 16.3991 43.864 16.2445 44.3258 16.0091Z" fill="var(--fill-0, #BABABA)"/>
<path id="Vector_52" d="M8.05215 37.858C8.40919 37.8633 8.89948 38.1174 9.03833 38.4388C9.40578 39.2887 8.84282 39.7492 8.21329 40.0706C6.80916 39.9346 6.55395 38.5677 8.05215 37.858Z" fill="var(--fill-0, #BABABA)"/>
<path id="Vector_53" d="M12.4708 42.6977C13.0862 42.6698 13.7809 42.934 13.7452 43.6689C13.7182 44.2234 13.3704 44.5639 12.9856 44.9177C11.6175 45.0383 11.2405 43.5488 12.4708 42.6977Z" fill="var(--fill-0, #BABABA)"/>
<path id="Vector_54" d="M17.9118 45.6303C19.5096 45.4486 19.6938 46.8498 18.6992 47.7848C18.2571 47.7886 17.7324 47.6546 17.4547 47.2843C17.3077 47.0861 17.2462 46.8377 17.2837 46.5938C17.3493 46.1695 17.5901 45.8856 17.9118 45.6303Z" fill="var(--fill-0, #BABABA)"/>
<path id="Vector_55" d="M4.7109 18.8166C6.15085 18.7731 6.81303 19.926 5.71741 20.9453C3.9725 21.1906 4.0378 19.9935 4.7109 18.8166Z" fill="var(--fill-0, #BABABA)"/>
<path id="Vector_56" d="M44.4896 52.6642C45.335 52.689 45.565 53.0961 45.8508 53.8107C45.5307 54.3697 45.4132 54.4681 44.9069 54.8372C43.5959 54.7876 43.0719 53.3794 44.4896 52.6642Z" fill="var(--fill-0, #BABABA)"/>
<path id="Vector_57" d="M45.2996 17.9827C45.6966 17.9931 46.0707 18.3749 46.2041 18.7259C46.293 18.9604 46.279 19.2216 46.166 19.4454C45.9354 19.9028 45.5511 19.9705 45.0817 20.1362C44.7266 20.0764 44.3405 19.9082 44.1975 19.5724C43.8094 18.6594 44.7286 18.2293 45.2996 17.9827Z" fill="var(--fill-0, #BABABA)"/>
<path id="Vector_58" d="M51.8685 60.3518C52.7127 60.3315 52.9731 60.7793 53.13 61.5281C52.8931 61.8985 52.6733 62.2872 52.3195 62.5438C51.4347 62.4803 51.2619 62.2383 50.9215 61.4513C51.1495 60.8955 51.3706 60.6681 51.8685 60.3518Z" fill="var(--fill-0, #BABABA)"/>
<path id="Vector_59" d="M19.8557 46.2597C21.397 46.0145 21.8075 47.3052 20.8943 48.2789C20.3918 48.2929 19.9436 48.3444 19.5609 47.9474C19.4103 47.7924 19.3285 47.5834 19.3338 47.3675C19.343 46.9952 19.583 46.522 19.8557 46.2597Z" fill="var(--fill-0, #BABABA)"/>
<path id="Vector_60" d="M4.05995 21.0367C5.47716 20.9885 6.29927 21.8532 5.22398 22.9994C3.68316 23.3718 3.22221 22.2747 4.05995 21.0367Z" fill="var(--fill-0, #BABABA)"/>
<path id="Vector_61" d="M3.65756 23.2019C3.73499 23.1963 3.81255 23.1927 3.89016 23.191C5.20467 23.1684 5.91049 24.2653 4.85272 25.1363C4.34737 25.1954 3.95654 25.2305 3.5438 24.8924C3.01069 24.4559 3.24863 23.6218 3.65756 23.2019Z" fill="var(--fill-0, #BABABA)"/>
<path id="Vector_62" d="M6.99202 14.6591C8.27661 15.0036 8.79854 16.4181 7.41848 16.9273C5.64753 16.7859 6.05056 15.6137 6.99202 14.6591Z" fill="var(--fill-0, #BABABA)"/>
<path id="Vector_63" d="M48.9468 57.2902C49.4632 57.3327 50.2489 57.6935 50.1606 58.3185C50.078 58.9004 49.6766 59.1259 49.2517 59.4561C48.0042 59.5381 47.5284 58.1032 48.9468 57.2902Z" fill="var(--fill-0, #BABABA)"/>
<path id="Vector_64" d="M8.22026 12.9091C8.68102 12.9814 9.05425 13.1469 9.29378 13.5763C9.43377 13.8221 9.46306 14.1157 9.37426 14.3843C9.25192 14.7438 8.95859 15.0059 8.62703 15.1711C6.93446 14.7539 7.10311 13.9098 8.22026 12.9091Z" fill="var(--fill-0, #BABABA)"/>
<path id="Vector_65" d="M41.5838 49.4249C41.9414 49.4224 42.4698 49.6949 42.6394 50.0074C43.0288 50.7238 42.5029 51.2472 41.9623 51.5998C40.5383 51.5915 40.2531 50.2151 41.5838 49.4249Z" fill="var(--fill-0, #BABABA)"/>
<path id="Vector_66" d="M16.02 44.7836C17.529 44.7099 17.6982 46.3639 16.537 46.9572C16.1343 46.94 15.6746 46.7838 15.4443 46.4332C15.3071 46.2274 15.2599 45.9752 15.3136 45.7338C15.3969 45.3521 15.6891 44.9907 16.02 44.7836Z" fill="var(--fill-0, #BABABA)"/>
<path id="Vector_67" d="M50.3117 58.8883C51.9352 59.0059 51.939 60.1625 50.6782 61.0016C49.4917 61.0746 48.9365 59.7408 50.3117 58.8883Z" fill="var(--fill-0, #BABABA)"/>
<path id="Vector_68" d="M43.2499 14.171C43.9219 14.1802 44.5355 14.9631 44.1982 15.6073C43.9746 16.0338 43.6443 16.1328 43.2302 16.2967C42.9145 16.2823 42.372 16.0465 42.2539 15.7661C41.9007 14.925 42.7189 14.4535 43.2499 14.171Z" fill="var(--fill-0, #BABABA)"/>
<path id="Vector_69" d="M50.9559 49.0266C51.2252 49.0774 51.781 49.4242 51.9226 49.651C52.3907 50.4037 51.7517 50.9175 51.2004 51.2618C50.6192 51.2478 49.9084 50.8705 50.0234 50.2042C50.1238 49.6205 50.5258 49.355 50.9559 49.0266Z" fill="var(--fill-0, #BABABA)"/>
<path id="Vector_70" d="M55.4243 53.3064C55.738 53.3992 56.2328 53.7098 56.4215 53.9715C56.9404 54.693 56.2411 55.1777 55.7641 55.5264C55.4351 55.5429 54.9256 55.4457 54.7211 55.1974C54.0999 54.4434 54.9936 53.6799 55.4243 53.3064Z" fill="var(--fill-0, #BABABA)"/>
<path id="Vector_71" d="M14.2113 43.8925C15.7026 43.8372 15.7386 45.3852 14.621 46.129C13.1076 45.8031 13.0513 44.7786 14.2113 43.8925Z" fill="var(--fill-0, #BABABA)"/>
<path id="Vector_72" d="M38.6785 41.8554C39.3746 41.9303 40.4862 43.604 38.9287 44.1014C37.6806 44.1243 37.1724 42.5541 38.6785 41.8554Z" fill="var(--fill-0, #BABABA)"/>
<path id="Vector_73" d="M9.13858 19.1867C10.3751 19.1536 11.0291 20.5264 9.90455 21.3567C8.43392 21.3626 8.00936 20.1907 9.13858 19.1867Z" fill="var(--fill-0, #BABABA)"/>
<path id="Vector_74" d="M47.4845 55.7062C48.0422 55.7983 48.7479 56.1153 48.6571 56.8051C48.5853 57.3481 48.1921 57.6181 47.7831 57.9192C46.7585 58.1186 46.0725 56.6431 47.4845 55.7062Z" fill="var(--fill-0, #BABABA)"/>
<path id="Vector_75" d="M9.84276 11.3717C10.7481 11.3656 11.8076 12.9385 10.1736 13.4943C9.54098 13.4629 8.80735 13.0607 8.97116 12.3436C9.08708 11.8362 9.44875 11.6373 9.84276 11.3717Z" fill="var(--fill-0, #BABABA)"/>
<path id="Vector_76" d="M53.9901 51.8133C54.2645 51.9155 54.7612 52.2763 54.8978 52.5317C55.3094 53.2983 54.6322 53.8141 54.0612 54.1418C53.7354 54.0536 53.4311 53.9068 53.1936 53.6597C53.0507 53.5111 52.9795 53.3079 52.9992 53.1033C53.0487 52.5907 53.621 52.1379 53.9901 51.8133Z" fill="var(--fill-0, #BABABA)"/>
<path id="Vector_77" d="M52.5781 50.499C53.0964 50.6273 53.4889 51.1482 53.7595 51.5763C53.4292 52.0222 53.2044 52.4141 52.6975 52.6428C51.02 52.4916 51.2734 51.2199 52.5781 50.499Z" fill="var(--fill-0, #BABABA)"/>
<path id="Vector_78" d="M49.4206 47.6349C50.0335 47.6546 50.4495 48.2447 50.75 48.7109C50.4553 49.2019 50.2342 49.3849 49.8163 49.7583C49.7273 49.7818 49.6365 49.7977 49.545 49.8053C49.3081 49.8257 49.0045 49.6624 48.8362 49.5068C48.046 48.7732 48.941 48.1075 49.4206 47.6349Z" fill="var(--fill-0, #BABABA)"/>
<path id="Vector_79" d="M46.0859 54.1761C47.5449 54.5121 47.5519 55.5868 46.3253 56.3389C45.5098 56.2754 45.337 55.8765 45.0677 55.1873C45.3884 54.6976 45.6006 54.4981 46.0859 54.1761Z" fill="var(--fill-0, #BABABA)"/>
<path id="Vector_80" d="M42.976 51.0681C43.556 51.1602 44.2585 51.4397 44.1899 52.1568C44.1391 52.6935 43.7662 52.9177 43.3718 53.2163C43.0897 53.2398 42.5778 53.0797 42.4304 52.8339C41.9725 52.0698 42.3999 51.5 42.976 51.0681Z" fill="var(--fill-0, #BABABA)"/>
<path id="Vector_81" d="M40.0371 47.957C40.3515 47.9659 40.8152 48.1165 41 48.3813C41.5139 49.1182 40.9473 49.6987 40.3648 50.1154C39.6833 50.0843 39.3974 49.6206 39.1529 49.0483C39.4133 48.5135 39.6058 48.3388 40.0371 47.957Z" fill="var(--fill-0, #BABABA)"/>
<path id="Vector_82" d="M56.91 54.8099C57.4575 54.8716 58.0927 55.4242 57.993 56.013C57.9066 56.5237 57.6068 56.6895 57.2257 56.9759C56.682 56.8984 55.9839 56.6494 56.0461 55.9596C56.0931 55.442 56.5359 55.1167 56.91 54.8099Z" fill="var(--fill-0, #BABABA)"/>
<path id="Vector_83" d="M46.5514 44.8331C47.844 45.1196 48.0962 46.3677 46.7737 46.9775C45.2086 46.6503 45.4722 45.6239 46.5514 44.8331Z" fill="var(--fill-0, #BABABA)"/>
<path id="Vector_84" d="M48.0657 46.2222C48.3389 46.2731 48.9092 46.6434 49.0325 46.9025C49.3831 47.6393 48.7479 48.077 48.2144 48.3774C47.7291 48.3533 47.0964 48.0109 47.1669 47.4412C47.2413 46.8454 47.6376 46.5741 48.0657 46.2222Z" fill="var(--fill-0, #BABABA)"/>
<path id="Vector_85" d="M58.376 56.3292C59.3186 56.5572 60.0961 57.9425 58.5361 58.3827C58.0076 58.4145 57.3603 58.1807 57.455 57.5227C57.5407 56.9231 57.9206 56.6607 58.376 56.3292Z" fill="var(--fill-0, #BABABA)"/>
<path id="Vector_86" d="M45.0385 43.3119C45.6095 43.4052 46.091 44.0728 46.3704 44.5435C46.0897 44.8941 45.8617 45.0891 45.5028 45.3495C45.1706 45.4061 44.5945 45.239 44.4217 44.9551C43.9396 44.1649 44.5056 43.6879 45.0385 43.3119Z" fill="var(--fill-0, #BABABA)"/>
<path id="Vector_87" d="M10.3382 17.3365C10.6967 17.5376 11.0601 17.7512 11.2291 18.1553C11.4757 18.7452 11.1276 19.2837 10.5179 19.4886C9.17673 18.9638 8.99736 18.0123 10.3382 17.3365Z" fill="var(--fill-0, #BABABA)"/>
<path id="Vector_88" d="M38.7121 46.7134C40.0078 46.8601 40.0021 48.0498 38.8772 48.6164C37.9041 48.5808 37.262 47.1263 38.7121 46.7134Z" fill="var(--fill-0, #BABABA)"/>
<path id="Vector_89" d="M12.4794 14.6243C13.6602 14.5492 14.0455 15.839 12.8793 16.5069C12.6143 16.4826 12.1629 16.2565 12.0283 16.035C11.6255 15.3725 12.0133 14.9621 12.4794 14.6243Z" fill="var(--fill-0, #BABABA)"/>
<path id="Vector_90" d="M11.2349 15.9571C12.3243 15.94 12.9224 17.0603 11.7704 17.821C10.5505 17.7317 10.3083 16.79 11.2349 15.9571Z" fill="var(--fill-0, #BABABA)"/>
<path id="Vector_91" d="M28.5505 9.42208C28.997 9.25306 29.4975 9.47277 29.6754 9.91631C29.8526 10.3599 29.643 10.8641 29.2028 11.0506C28.9106 11.1745 28.574 11.1307 28.3231 10.9362C28.0722 10.7416 27.9458 10.4266 27.9928 10.1125C28.0404 9.79849 28.2532 9.53438 28.5505 9.42208Z" fill="var(--fill-0, #BABABA)"/>
<path id="Vector_92" d="M26.704 9.22673C28.0481 9.26472 28.104 10.5417 27.1754 10.9112C25.8897 10.8714 25.6204 9.67263 26.704 9.22673Z" fill="var(--fill-0, #BABABA)"/>
<path id="Vector_93" d="M21.1097 9.67092C22.315 9.62354 22.5868 10.8089 21.6114 11.3737C20.4506 11.414 20.0753 10.0787 21.1097 9.67092Z" fill="var(--fill-0, #BABABA)"/>
<path id="Vector_94" d="M43.5611 42.1693C44 42.0448 44.458 42.2912 44.5958 42.7263C44.7336 43.1608 44.5012 43.6264 44.0705 43.7776C43.7802 43.8798 43.4575 43.8157 43.2282 43.6105C42.9989 43.4047 42.8999 43.0909 42.9691 42.7911C43.0383 42.4913 43.2651 42.2531 43.5611 42.1693Z" fill="var(--fill-0, #BABABA)"/>
<path id="Vector_95" d="M22.8988 9.38139C23.3316 9.21942 23.8139 9.43608 23.9804 9.86717C24.1474 10.2983 23.9359 10.783 23.5065 10.9542C23.2247 11.0665 22.9042 11.0188 22.6674 10.8293C22.4306 10.6397 22.3138 10.3375 22.3617 10.038C22.4096 9.73848 22.6147 9.48772 22.8988 9.38139Z" fill="var(--fill-0, #BABABA)"/>
<path id="Vector_96" d="M19.4862 10.1204C20.6713 10.1755 20.7543 11.4627 19.8358 11.8349C18.7916 11.794 18.2401 10.517 19.4862 10.1204Z" fill="var(--fill-0, #BABABA)"/>
<path id="Vector_97" d="M25.1084 9.18944C25.5562 9.19821 25.917 9.55912 25.9259 10.0068C25.9342 10.4545 25.5874 10.8289 25.1408 10.8549C24.8359 10.8725 24.5457 10.722 24.3843 10.4625C24.223 10.2029 24.2166 9.87607 24.3678 9.61057C24.519 9.34506 24.8035 9.18347 25.1084 9.18944Z" fill="var(--fill-0, #BABABA)"/>
<path id="Vector_98" d="M13.8228 13.395C14.8134 13.4115 15.2409 14.5113 14.2388 15.1816C13.6996 15.1221 13.1549 14.8322 13.205 14.2122C13.2385 13.7963 13.5244 13.6276 13.8228 13.395Z" fill="var(--fill-0, #BABABA)"/>
<path id="Vector_99" d="M15.1624 12.4589C15.7695 12.4481 15.9387 12.8399 16.2636 13.2881C16.0857 13.7767 16.0511 13.8953 15.6305 14.1876C15.2661 14.1811 14.932 14.036 14.749 13.7226C14.3787 13.0884 14.6805 12.7559 15.1624 12.4589Z" fill="var(--fill-0, #BABABA)"/>
<path id="Vector_100" d="M16.5619 11.4367C17.16 11.4378 17.3162 12.1144 17.5056 12.6013C17.2493 13.0096 17.2046 13.0904 16.7612 13.261C16.249 13.0872 15.7053 12.5176 15.9364 11.9373C16.0444 11.6661 16.319 11.5582 16.5619 11.4367Z" fill="var(--fill-0, #BABABA)"/>
<path id="Vector_101" d="M17.8845 10.8143L17.9093 10.8139C18.9633 10.7885 19.1169 11.9274 18.251 12.4761C17.5937 12.4663 17.1399 11.8354 17.3463 11.2014C17.4221 10.9684 17.6707 10.9006 17.8845 10.8143Z" fill="var(--fill-0, #BABABA)"/>
<path id="Vector_102" d="M7.89554 3.52462C9.50236 3.63635 9.06097 4.76964 7.95169 5.2962C7.57726 5.26635 7.29079 4.85711 6.99892 4.55603C7.13174 3.93139 7.23889 3.64778 7.89554 3.52462Z" fill="var(--fill-0, #BABABA)"/>
<path id="Vector_103" d="M6.11075 4.67144C6.49096 4.61509 6.64277 4.60976 6.95821 4.84833C7.68492 5.39783 7.59161 5.93112 7.12437 6.55379C6.50964 6.71545 6.30695 6.50889 5.90164 6.06902C5.98746 5.61366 5.92845 5.33336 5.96002 4.88524C5.97069 4.73356 5.96218 4.79072 6.11075 4.67144Z" fill="var(--fill-0, #BABABA)"/>
<path id="Vector_104" d="M7.83737 6.28395C8.31954 6.31323 8.48666 6.60046 8.73374 6.96398C8.62633 7.68681 8.74251 7.87489 7.93106 8.01571C6.58289 7.98992 6.83728 6.88255 7.83737 6.28395Z" fill="var(--fill-0, #BABABA)"/>
<path id="Vector_105" d="M9.33392 4.50412C10.2752 4.9542 10.2293 6.20507 9.10214 6.4768C7.7588 5.95785 8.67771 5.07705 9.33392 4.50412Z" fill="var(--fill-0, #BABABA)"/>
<path id="Vector_106" d="M7.57189 1.80753C7.86744 1.78816 8.22486 1.79509 8.52568 1.79286C8.65652 2.2925 8.86887 2.91783 8.38759 3.28541C8.2918 3.2929 8.19589 3.29894 8.09998 3.30364C7.21974 3.34429 6.95532 2.36478 7.57189 1.80753Z" fill="var(--fill-0, #BABABA)"/>
<path id="Vector_107" d="M7.61155 8.20182C7.86429 8.19591 8.20449 8.15297 8.41899 8.31545C8.9204 8.69529 8.70425 9.34203 8.3232 9.74048C8.27303 9.7441 8.22284 9.74696 8.1726 9.74893C7.21151 9.78278 6.91272 8.83357 7.61155 8.20182Z" fill="var(--fill-0, #BABABA)"/>
<path id="Vector_108" d="M7.69641 0.0166256C7.93327 0.00119067 8.17343 -0.0360946 8.37738 0.10066C8.56457 0.227886 8.68297 0.433939 8.69866 0.659682C8.72305 0.985402 8.54386 1.28826 8.31717 1.50733C8.01412 1.53922 7.75002 1.5988 7.50871 1.38626C7.35532 1.25288 7.26982 1.05762 7.27592 0.854365C7.285 0.476432 7.43796 0.261234 7.69641 0.0166256Z" fill="var(--fill-0, #BABABA)"/>
<path id="Vector_109" d="M4.46669 4.65169C4.84151 4.62266 5.21493 4.62609 5.59096 4.62304C5.67087 5.21427 5.70002 5.44522 5.55666 6.01987C5.26397 6.1739 4.84158 6.12258 4.50468 6.11C4.52221 5.62675 4.58134 5.11181 4.46669 4.65169Z" fill="var(--fill-0, #BABABA)"/>
<path id="Vector_110" d="M10.5706 4.66272C11.6538 4.64481 11.6953 5.78477 11.165 6.10357C10.8932 6.11214 10.7346 6.11227 10.4643 6.08883C10.0961 5.79779 10.1624 5.19793 10.2714 4.77782C10.2877 4.71506 10.4992 4.68178 10.5706 4.66272Z" fill="var(--fill-0, #BABABA)"/>
<path id="Vector_111" d="M12.0541 4.64936C12.9839 4.66574 13.3766 5.42872 12.6272 6.07896C11.4307 6.32293 11.4549 4.9557 12.0541 4.64936Z" fill="var(--fill-0, #BABABA)"/>
<path id="Vector_112" d="M3.67986 4.59015C4.5068 4.73351 4.55501 5.99174 3.51465 6.07876C2.60399 5.6878 2.74049 4.8359 3.67986 4.59015Z" fill="var(--fill-0, #BABABA)"/>
<path id="Vector_113" d="M0.713775 10.8095C1.8839 10.8042 2.30459 12.2461 1.14792 12.7258C0.692434 12.7224 0.357503 12.6822 0.113276 12.2386C-0.00899583 12.0178 -0.0334519 11.756 0.0456916 11.5164C0.16771 11.1368 0.382401 10.987 0.713775 10.8095Z" fill="var(--fill-0, #BABABA)"/>
<path id="Vector_114" d="M50.3429 38.024C50.6261 37.9332 50.9355 38.0037 51.1521 38.2069C51.368 38.4108 51.457 38.7157 51.3839 39.0035C51.3109 39.2912 51.0879 39.5167 50.8002 39.5929C50.3721 39.706 49.9313 39.457 49.8068 39.0314C49.6829 38.6058 49.9205 38.1587 50.3429 38.024Z" fill="var(--fill-0, #BABABA)"/>
<path id="Vector_115" d="M36.8948 53.3992C37.3045 53.3096 37.711 53.5611 37.8139 53.9676C37.9162 54.3735 37.678 54.7883 37.2747 54.9039C37.0028 54.982 36.7093 54.9052 36.5099 54.7045C36.3105 54.5031 36.2361 54.2096 36.3168 53.9378C36.3968 53.6666 36.6185 53.4601 36.8948 53.3992Z" fill="var(--fill-0, #BABABA)"/>
</g>
</svg>
