<svg preserveAspectRatio="xMidYMid meet"  overflow="visible" viewBox="0 0 91.3971 64" fill="none" xmlns="http://www.w3.org/2000/svg">
<g id="Group 48095703" opacity="0.48">
<path id="Vector" d="M25.0435 32.2632C25.3406 32.2437 25.6125 32.2075 25.8835 32.3427C26.1898 32.495 26.4197 32.7668 26.5191 33.0941C26.6027 33.3733 26.5617 33.6749 26.4066 33.9216C26.1948 34.2592 25.938 34.3344 25.5738 34.4168C24.5302 34.4625 23.6476 33.9386 24.2388 32.6923C24.3802 32.3941 24.7269 32.3311 25.0435 32.2632Z" fill="var(--fill-0, #BABABA)"/>
<path id="Vector_2" d="M25.2898 41.9C25.9432 41.9364 26.3671 42.0403 26.5652 42.7522C26.6453 43.0322 26.6041 43.3342 26.4516 43.5832C26.2273 43.9497 25.9979 44.0013 25.6043 44.0833C25.3163 44.0726 24.7798 44.081 24.5844 43.8852C23.6443 42.9457 24.0761 42.0525 25.2898 41.9Z" fill="var(--fill-0, #BABABA)"/>
<path id="Vector_3" d="M24.7973 46.819C24.9859 46.8099 25.5401 46.7697 25.7044 46.819C26.9154 47.1825 26.9369 48.2996 25.9318 48.8983C25.2166 48.9621 24.5094 49.0182 24.1454 48.2639C23.8519 47.6553 24.2508 47.0778 24.7973 46.819Z" fill="var(--fill-0, #BABABA)"/>
<path id="Vector_4" d="M24.8996 49.2512C25.2103 49.2345 25.6447 49.1837 25.9227 49.3218C26.9054 49.809 26.9256 51.0096 25.8241 51.3473C24.9421 51.3958 23.7861 51.2471 24.173 49.831C24.2559 49.5275 24.5984 49.3438 24.8996 49.2512Z" fill="var(--fill-0, #BABABA)"/>
<path id="Vector_5" d="M24.9047 34.6846C25.6984 34.6436 26.7279 34.7978 26.5819 36.0341C26.5417 36.375 26.1456 36.64 25.8384 36.7853C25.55 36.7991 25.0375 36.8511 24.7825 36.741C23.7289 36.2859 23.8114 35.0172 24.9047 34.6846Z" fill="var(--fill-0, #BABABA)"/>
<path id="Vector_6" d="M24.9165 37.1113C25.1417 37.0976 25.6511 37.0483 25.8535 37.1445C26.8961 37.6399 26.9124 38.7589 25.8427 39.2051C25.5226 39.221 25.0261 39.281 24.7463 39.1292C23.8206 38.6268 23.8158 37.4175 24.9165 37.1113Z" fill="var(--fill-0, #BABABA)"/>
<path id="Vector_7" d="M24.8621 44.3997C25.0853 44.3861 25.6309 44.3375 25.8159 44.4157C26.9214 44.8793 26.9023 46.0108 25.8532 46.4867C25.5898 46.5003 25.0839 46.5451 24.8409 46.4441C23.8161 46.0192 23.79 44.7693 24.8621 44.3997Z" fill="var(--fill-0, #BABABA)"/>
<path id="Vector_8" d="M24.6432 39.5413C24.8774 39.5262 25.2026 39.4928 25.4295 39.5117C26.6475 39.6112 27.1207 40.858 26.0168 41.5463C24.3191 41.969 23.3642 40.5856 24.6432 39.5413Z" fill="var(--fill-0, #BABABA)"/>
<path id="Vector_9" d="M24.8788 54.1119C26.6149 53.9745 27.2781 55.3678 25.9012 56.2853H25.6179C24.046 56.2944 23.5373 54.8442 24.8788 54.1119Z" fill="var(--fill-0, #BABABA)"/>
<path id="Vector_10" d="M25.1202 51.6842C25.7538 51.6402 26.2516 51.6849 26.5335 52.3603C26.6472 52.6259 26.6411 52.928 26.5168 53.1898C26.3422 53.5586 26.1178 53.6709 25.7521 53.7878C25.484 53.7961 24.9592 53.8462 24.7454 53.7036C23.7291 53.0274 23.8857 51.9118 25.1202 51.6842Z" fill="var(--fill-0, #BABABA)"/>
<path id="Vector_11" d="M44.9202 46.7332C46.366 46.7712 46.5426 48.7177 45.1795 49.0091C44.9743 49.0175 44.5308 49.0524 44.3803 48.9424C43.1998 48.0825 43.8003 47.074 44.9202 46.7332Z" fill="var(--fill-0, #BABABA)"/>
<path id="Vector_12" d="M44.4716 49.2451C45.0785 49.2125 45.5694 49.2095 45.9426 49.7635C46.4157 50.4654 45.9984 51.071 45.3846 51.433C44.7538 51.455 44.2925 51.5119 43.9071 50.8972C43.4814 50.2188 43.8995 49.614 44.4716 49.2451Z" fill="var(--fill-0, #BABABA)"/>
<path id="Vector_13" d="M44.6092 51.6827C46.2452 51.5613 46.6466 53.2149 45.387 53.8728C45.2459 53.8782 44.6598 53.91 44.55 53.863C43.3631 53.3538 43.5297 52.1449 44.6092 51.6827Z" fill="var(--fill-0, #BABABA)"/>
<path id="Vector_14" d="M44.4657 29.9806C44.8597 29.8421 45.2978 29.9264 45.6123 30.2012C45.9269 30.476 46.0692 30.8988 45.9848 31.3079C45.9004 31.717 45.6025 32.049 45.2049 32.1769C44.6013 32.3711 43.9538 32.0444 43.7516 31.4435C43.5494 30.8426 43.8676 30.1907 44.4657 29.9806Z" fill="var(--fill-0, #BABABA)"/>
<path id="Vector_15" d="M44.7857 34.8286C46.2802 34.7377 46.5054 36.637 45.3227 37.0585C45.1228 37.0596 44.555 37.0752 44.3993 36.9638C43.3017 36.178 43.59 35.1711 44.7857 34.8286Z" fill="var(--fill-0, #BABABA)"/>
<path id="Vector_16" d="M29.9709 2.6346C31.4066 2.73713 31.5451 4.47763 30.007 5.11008C29.6904 5.00505 29.486 4.88948 29.1946 4.73808C28.3862 3.48433 28.8432 3.30523 29.9709 2.6346Z" fill="var(--fill-0, #BABABA)"/>
<path id="Vector_17" d="M44.8005 32.4034C46.1798 32.2808 46.5434 34.1022 45.2458 34.5977C44.9949 34.6086 44.5441 34.6586 44.3431 34.5232C43.2926 33.8156 43.5693 32.6319 44.8005 32.4034Z" fill="var(--fill-0, #BABABA)"/>
<path id="Vector_18" d="M14.0894 4.38198C14.6773 4.16752 15.3287 4.46272 15.5551 5.04615C15.7815 5.62958 15.4996 6.28693 14.9208 6.52499C14.5358 6.68337 14.0954 6.62129 13.7692 6.36274C13.4431 6.10411 13.2822 5.68938 13.3486 5.27844C13.415 4.86759 13.6983 4.52465 14.0894 4.38198Z" fill="var(--fill-0, #BABABA)"/>
<path id="Vector_19" d="M44.4191 54.2378C44.7886 54.0496 45.2305 54.0762 45.5754 54.3054C45.9204 54.5353 46.1146 54.933 46.0837 55.3466C46.0529 55.7602 45.8017 56.1244 45.4264 56.3005C44.8588 56.5668 44.1826 56.3278 43.9075 55.7647C43.6324 55.2016 43.8601 54.5217 44.4191 54.2378Z" fill="var(--fill-0, #BABABA)"/>
<path id="Vector_20" d="M9.45881 33.0081C11.1668 32.7678 11.7299 34.2978 10.4241 35.1085C8.85095 35.3516 8.12765 33.8624 9.45881 33.0081Z" fill="var(--fill-0, #BABABA)"/>
<path id="Vector_21" d="M9.46564 37.8713C10.1181 37.8325 10.6326 37.7948 11.0087 38.4432C11.3833 39.0883 10.9617 39.6506 10.4115 39.9633C8.7239 40.131 8.1404 38.6405 9.46564 37.8713Z" fill="var(--fill-0, #BABABA)"/>
<path id="Vector_22" d="M9.51118 35.4367C10.1472 35.406 10.6617 35.376 11.0126 36.0153C11.3701 36.6666 10.9606 37.219 10.4059 37.5283C8.69811 37.7411 8.1634 36.2591 9.51118 35.4367Z" fill="var(--fill-0, #BABABA)"/>
<path id="Vector_23" d="M24.7442 29.8948C25.5068 29.8517 26.409 29.9506 26.3862 31.0885C26.379 31.4472 26.0682 31.8003 25.773 32.0058C25.1597 32.0373 24.6735 32.1044 24.2664 31.5551C23.7846 30.9048 24.1566 30.2689 24.7442 29.8948Z" fill="var(--fill-0, #BABABA)"/>
<path id="Vector_24" d="M9.50165 30.5815C10.3472 30.4981 11.2673 30.7207 11.0863 31.9092C11.0361 32.2384 10.7361 32.4965 10.4338 32.6406C8.75772 32.8914 8.13672 31.3935 9.50165 30.5815Z" fill="var(--fill-0, #BABABA)"/>
<path id="Vector_25" d="M0.861441 22.8228C1.66244 22.8266 1.88578 23.139 2.24511 23.7958C2.09713 24.5379 2.12164 24.8354 1.38295 25.1756C-0.214125 25.2381 -0.481328 23.7261 0.861441 22.8228Z" fill="var(--fill-0, #BABABA)"/>
<path id="Vector_26" d="M44.6578 37.2606C45.301 37.2331 45.8121 37.4316 46.0146 38.0983C46.0984 38.3719 46.0645 38.6678 45.921 38.916C45.7511 39.2119 45.5506 39.3281 45.243 39.4237C45.1093 39.4206 44.5686 39.4146 44.4726 39.363C43.3233 38.743 43.5038 37.6598 44.6578 37.2606Z" fill="var(--fill-0, #BABABA)"/>
<path id="Vector_27" d="M25.0654 56.5942C25.622 56.5714 26.0559 56.5911 26.4032 57.0958C26.5679 57.3348 26.6186 57.6346 26.5418 57.9146C26.4266 58.3388 26.1367 58.5422 25.7863 58.7608C25.5776 58.7911 25.3546 58.8002 25.1452 58.7669C24.8586 58.7236 24.6043 58.5597 24.4461 58.3168C23.9878 57.6209 24.4445 56.9607 25.0654 56.5942Z" fill="var(--fill-0, #BABABA)"/>
<path id="Vector_28" d="M38.1905 1.64561C39.7634 1.87562 40.1205 3.0075 38.7695 3.98851C38.5791 4.00126 38.4621 4.01439 38.2748 3.96703C37.9474 3.88279 37.6679 3.66963 37.5 3.37601C37.3444 3.09409 37.3112 2.76071 37.4082 2.45359C37.5527 2.01078 37.7949 1.83305 38.1905 1.64561Z" fill="var(--fill-0, #BABABA)"/>
<path id="Vector_29" d="M40.3517 3.07222C41.8648 3.52641 42.174 4.57352 40.8055 5.52888C40.021 5.55308 39.2617 4.90652 39.4822 4.08085C39.6334 3.5148 39.8761 3.37964 40.3517 3.07222Z" fill="var(--fill-0, #BABABA)"/>
<path id="Vector_30" d="M9.47229 40.2941C9.6419 40.2819 10.1834 40.2463 10.3215 40.2948C11.3693 40.6637 11.4543 41.8938 10.4206 42.3446C8.88689 42.5867 8.10964 41.1137 9.47229 40.2941Z" fill="var(--fill-0, #BABABA)"/>
<path id="Vector_31" d="M17.5741 11.1438C19.0776 11.0741 19.3215 13.005 17.8005 13.4296C17.003 13.3559 16.3605 12.8184 16.6347 11.9463C16.7799 11.4847 17.1623 11.3387 17.5741 11.1438Z" fill="var(--fill-0, #BABABA)"/>
<path id="Vector_32" d="M9.49371 28.1483C9.61764 28.1417 10.1171 28.1083 10.2112 28.1395C11.3424 28.5143 11.4224 29.7023 10.3937 30.2194C8.74424 30.4952 8.1838 28.9386 9.49371 28.1483Z" fill="var(--fill-0, #BABABA)"/>
<path id="Vector_33" d="M52.5287 11.5736C52.978 11.6104 53.5107 11.8431 53.7908 12.1975C53.9744 12.4312 54.0526 12.7309 54.007 13.0246C53.9403 13.4395 53.6193 13.6789 53.3119 13.9219C51.6537 13.9889 51.2781 12.6048 52.5287 11.5736Z" fill="var(--fill-0, #BABABA)"/>
<path id="Vector_34" d="M9.5294 42.6391C9.73499 42.636 10.159 42.6193 10.3347 42.699C11.362 43.1642 11.4438 44.2859 10.365 44.729C8.78251 44.9241 8.16417 43.5361 9.5294 42.6391Z" fill="var(--fill-0, #BABABA)"/>
<path id="Vector_35" d="M25.6356 5.72452C26.2374 5.59096 26.8347 5.96638 26.9751 6.56658C27.1157 7.16678 26.7472 7.76828 26.1487 7.9158C25.7553 8.01271 25.3402 7.89069 25.0618 7.59632C24.7835 7.30194 24.6848 6.88069 24.8036 6.49327C24.9223 6.10594 25.2401 5.81233 25.6356 5.72452Z" fill="var(--fill-0, #BABABA)"/>
<path id="Vector_36" d="M54.6635 13.1035C56.0143 13.0484 56.8035 14.2919 55.4307 15.385C54.026 15.5124 53.2739 14.1137 54.6635 13.1035Z" fill="var(--fill-0, #BABABA)"/>
<path id="Vector_37" d="M20.9591 4.18996C21.5525 4.0825 22.1251 4.46217 22.257 5.05061C22.3889 5.63905 22.0333 6.22688 21.4507 6.38298C21.052 6.48991 20.6266 6.3697 20.3427 6.06979C20.0589 5.76996 19.9622 5.3386 20.0908 4.94626C20.2195 4.55384 20.5528 4.26357 20.9591 4.18996Z" fill="var(--fill-0, #BABABA)"/>
<path id="Vector_38" d="M50.4168 10.2101C51.7699 10.2587 52.5887 11.3396 51.3821 12.4584C50.2589 12.6584 50.0123 12.2288 49.6184 11.2975C49.9091 10.7698 50.0221 10.6405 50.4168 10.2101Z" fill="var(--fill-0, #BABABA)"/>
<path id="Vector_39" d="M56.6889 14.6243C56.7914 14.6217 56.8938 14.6223 56.9955 14.6265C58.3881 14.6969 58.6765 15.8413 57.5617 16.7988C56.0279 17.054 55.3867 15.5584 56.6889 14.6243Z" fill="var(--fill-0, #BABABA)"/>
<path id="Vector_40" d="M9.80505 45.0068C11.519 45.0599 11.5792 46.7553 10.0823 47.1157C8.55873 47.1104 8.21655 45.3938 9.80505 45.0068Z" fill="var(--fill-0, #BABABA)"/>
<path id="Vector_41" d="M9.54363 25.7157C10.373 25.6765 11.3231 25.9067 11.0571 27.1093C10.981 27.4534 10.6382 27.67 10.3246 27.8201C8.73466 27.9115 8.21679 26.5481 9.54363 25.7157Z" fill="var(--fill-0, #BABABA)"/>
<path id="Vector_42" d="M9.38021 49.7042C9.55232 49.6967 10.156 49.6572 10.2871 49.6997C11.4103 50.0594 11.4791 51.1712 10.5124 51.6918C9.89504 51.7768 9.40745 51.7828 8.98452 51.241C8.82698 51.0414 8.76065 50.7849 8.80179 50.5337C8.86166 50.1467 9.08864 49.9281 9.38021 49.7042Z" fill="var(--fill-0, #BABABA)"/>
<path id="Vector_43" d="M84.8564 37.9158C86.2558 38.3081 86.6269 39.4988 85.1797 40.2926C83.5344 40.31 83.4244 38.7369 84.8564 37.9158Z" fill="var(--fill-0, #BABABA)"/>
<path id="Vector_44" d="M9.52738 54.3372C9.65282 54.3289 10.2375 54.2818 10.3286 54.3152C11.5065 54.741 11.3856 55.7996 10.4473 56.3749C9.67012 56.4113 8.68714 56.2117 8.84886 55.043C8.88991 54.747 9.25812 54.4723 9.52738 54.3372Z" fill="var(--fill-0, #BABABA)"/>
<path id="Vector_45" d="M5.31068 19.5543C6.52079 19.6014 7.03676 21.4473 5.38748 21.8404C4.80974 21.7379 3.98453 21.4453 4.16317 20.6592C4.29719 20.0693 4.82454 19.8288 5.31068 19.5543Z" fill="var(--fill-0, #BABABA)"/>
<path id="Vector_46" d="M34.6733 29.8921C36.3633 29.8217 36.5582 31.5427 35.3479 32.0995C33.6079 32.1926 33.4824 30.3916 34.6733 29.8921Z" fill="var(--fill-0, #BABABA)"/>
<path id="Vector_47" d="M42.314 29.9057C42.4878 29.9029 42.7267 29.9366 42.8815 30.0175C43.1088 30.1386 43.2793 30.3445 43.3558 30.5903C43.5901 31.328 43.1385 31.949 42.4336 32.1646C41.8234 32.0963 41.3686 31.8964 41.2228 31.2285C41.1584 30.9326 41.2227 30.6232 41.3997 30.3775C41.6513 30.0295 41.9163 29.9821 42.314 29.9057Z" fill="var(--fill-0, #BABABA)"/>
<path id="Vector_48" d="M14.3754 6.90818C14.9767 6.83571 15.5261 7.25643 15.6129 7.85587C15.6997 8.45539 15.2922 9.01461 14.695 9.11577C14.2958 9.18331 13.8912 9.02926 13.638 8.71326C13.3849 8.39718 13.3229 7.96879 13.4759 7.5939C13.6291 7.21902 13.9733 6.9566 14.3754 6.90818Z" fill="var(--fill-0, #BABABA)"/>
<path id="Vector_49" d="M73.6052 34.3062C75.359 34.0603 75.5867 35.9808 74.3368 36.4142C73.5665 36.4362 72.7689 36.2567 72.882 35.1608C72.9222 34.7718 73.269 34.4937 73.6052 34.3062Z" fill="var(--fill-0, #BABABA)"/>
<path id="Vector_50" d="M77.4277 31.7039C78.3945 31.6616 78.5645 32.0856 79.101 32.8132C78.752 33.3156 78.6487 33.4051 78.2063 33.8289C76.9367 34.2682 75.8902 32.7174 77.4277 31.7039Z" fill="var(--fill-0, #BABABA)"/>
<path id="Vector_51" d="M88.3716 44.6714C89.8021 44.7731 90.0813 46.372 88.7465 46.9761C87.2932 46.9617 86.8052 45.431 88.3716 44.6714Z" fill="var(--fill-0, #BABABA)"/>
<path id="Vector_52" d="M10.0817 56.6185C11.2953 56.5881 11.772 58.3684 10.1304 58.7524C9.84082 58.7395 9.6001 58.7388 9.35043 58.5718C9.10743 58.4079 8.94238 58.1522 8.89373 57.863C8.76457 57.0768 9.40165 56.7035 10.0817 56.6185Z" fill="var(--fill-0, #BABABA)"/>
<path id="Vector_53" d="M32.149 29.8932C32.9582 29.8637 33.7478 30.0553 33.6495 31.171C33.6147 31.5658 33.2957 31.8659 32.9727 32.0851C32.8674 32.0898 32.3915 32.1135 32.3104 32.0812C31.2093 31.6429 31.2265 30.4737 32.149 29.8932Z" fill="var(--fill-0, #BABABA)"/>
<path id="Vector_54" d="M29.6962 29.9031C30.5039 29.8697 31.325 30.0134 31.2261 31.1698C31.1937 31.5482 30.8628 31.8747 30.5532 32.0902C30.4745 32.0922 30.0415 32.107 29.9749 32.0874C28.8234 31.7494 28.7638 30.4822 29.6962 29.9031Z" fill="var(--fill-0, #BABABA)"/>
<path id="Vector_55" d="M14.2492 9.47786C14.4566 9.46587 14.7342 9.44833 14.9306 9.52339C15.2048 9.62591 15.4245 9.83696 15.538 10.1068C15.8231 10.7964 15.3719 11.3546 14.7468 11.6077C14.1216 11.6139 13.5901 11.4103 13.381 10.764C13.3006 10.5219 13.3216 10.2575 13.4394 10.0312C13.6307 9.66424 13.877 9.58463 14.2492 9.47786Z" fill="var(--fill-0, #BABABA)"/>
<path id="Vector_56" d="M9.36742 16.6708C10.8529 16.8631 10.9961 18.4421 9.52649 19.0505C8.84994 18.9031 8.17932 18.3883 8.39894 17.6356C8.55496 17.101 8.92067 16.9272 9.36742 16.6708Z" fill="var(--fill-0, #BABABA)"/>
<path id="Vector_57" d="M3.24025 21.0817C3.84333 21.2041 4.05195 21.5851 4.35793 22.0611C4.13565 22.9611 4.03123 23.0801 3.13635 23.2994C2.72268 23.2685 2.16612 23.113 2.03946 22.6918C1.7561 21.7491 2.61819 21.3344 3.24025 21.0817Z" fill="var(--fill-0, #BABABA)"/>
<path id="Vector_58" d="M84.5703 47.8761C86.0661 47.757 86.4865 49.529 84.9786 50.1755C83.621 49.9934 83.1892 48.7344 84.5703 47.8761Z" fill="var(--fill-0, #BABABA)"/>
<path id="Vector_59" d="M10.0928 52.0007C11.096 51.9005 11.3808 53.0813 10.8417 53.7484C10.5937 54.0549 10.2991 54.0413 9.93282 54.0709C8.53442 53.8425 8.24862 52.1228 10.0928 52.0007Z" fill="var(--fill-0, #BABABA)"/>
<path id="Vector_60" d="M44.459 5.99266C44.8905 6.09162 45.3614 6.28157 45.5952 6.68674C45.7214 6.90294 45.7555 7.16082 45.6898 7.40244C45.5647 7.86438 45.1628 8.14243 44.7685 8.35317C43.2365 7.9474 42.9886 6.65335 44.459 5.99266Z" fill="var(--fill-0, #BABABA)"/>
<path id="Vector_61" d="M62.9224 18.7067C64.3772 18.8508 64.9903 20.0011 63.6327 20.985C63.5652 20.9898 63.4976 20.9934 63.4301 20.9958C62.7228 21.0185 62.1597 20.6089 62.203 19.8615C62.2341 19.3142 62.5346 19.051 62.9224 18.7067Z" fill="var(--fill-0, #BABABA)"/>
<path id="Vector_62" d="M27.3805 29.9059C29.0875 29.8049 29.2438 31.4372 28.0681 32.1108C26.4643 32.1514 26.1388 30.4579 27.3805 29.9059Z" fill="var(--fill-0, #BABABA)"/>
<path id="Vector_63" d="M31.9889 1.27573C32.4483 1.35017 32.9417 1.5493 33.1505 2C33.2597 2.23625 33.2698 2.50641 33.1785 2.75016C33.0156 3.18766 32.7219 3.35613 32.3211 3.52574C30.8471 3.39081 30.3466 1.92207 31.9889 1.27573Z" fill="var(--fill-0, #BABABA)"/>
<path id="Vector_64" d="M37.1707 29.8992C38.8084 29.841 38.9994 31.4904 37.7202 32.1118C37.1828 32.1145 36.7934 32.0882 36.5124 31.5774C36.0918 30.8131 36.5254 30.2444 37.1707 29.8992Z" fill="var(--fill-0, #BABABA)"/>
<path id="Vector_65" d="M75.7528 29.9523C77.2167 30.2142 77.4376 31.4391 76.1292 32.3233C74.5614 32.3258 74.3838 30.7202 75.7528 29.9523Z" fill="var(--fill-0, #BABABA)"/>
<path id="Vector_66" d="M27.7763 4.15502C28.9324 4.14333 29.5772 5.99478 27.9678 6.50999C27.3058 6.40284 26.6227 6.00761 26.7838 5.22133C26.9014 4.64731 27.3196 4.44013 27.7763 4.15502Z" fill="var(--fill-0, #BABABA)"/>
<path id="Vector_67" d="M73.8359 36.7599C74.2191 36.6503 74.6312 36.7556 74.915 37.0353C75.1989 37.3151 75.3104 37.7261 75.2064 38.1108C75.1025 38.4956 74.7997 38.7946 74.4134 38.8932C73.8275 39.0435 73.2303 38.6952 73.0725 38.1117C72.9146 37.5282 73.2546 36.926 73.8359 36.7599Z" fill="var(--fill-0, #BABABA)"/>
<path id="Vector_68" d="M48.4808 8.77452C48.7646 8.80419 49.3786 9.05189 49.5675 9.25785C50.2536 10.0037 49.5804 10.6485 49.0986 11.0842C47.8213 11.4391 47.0283 9.83779 48.4808 8.77452Z" fill="var(--fill-0, #BABABA)"/>
<path id="Vector_69" d="M90.268 42.844C91.8078 43.0807 91.7069 44.5211 90.3644 45.2481C88.7609 45.0022 88.9665 43.5604 90.268 42.844Z" fill="var(--fill-0, #BABABA)"/>
<path id="Vector_70" d="M11.5214 15.304C12.7809 15.3974 13.1788 17.0121 11.5639 17.5972C10.7381 17.5509 10.1938 16.9044 10.5234 16.1021C10.7244 15.6128 11.0736 15.5083 11.5214 15.304Z" fill="var(--fill-0, #BABABA)"/>
<path id="Vector_71" d="M68.4319 23.4753C68.8136 23.3592 69.2287 23.4581 69.5163 23.7341C69.804 24.0101 69.9208 24.4202 69.8206 24.8063C69.7205 25.1925 69.42 25.4946 69.0344 25.5962C68.4531 25.7493 67.8567 25.409 67.6927 24.8312C67.5288 24.2533 67.8574 23.6503 68.4319 23.4753Z" fill="var(--fill-0, #BABABA)"/>
<path id="Vector_72" d="M23.8049 6.95602C24.283 7.08328 24.652 7.296 24.8248 7.78821C24.9327 8.08956 24.903 8.42302 24.7436 8.70062C24.521 9.08886 24.2778 9.18531 23.8734 9.30544C23.8217 9.29406 23.7702 9.28147 23.719 9.26781C23.0591 9.08833 22.4974 8.48259 22.777 7.7769C22.9734 7.2812 23.3611 7.15864 23.8049 6.95602Z" fill="var(--fill-0, #BABABA)"/>
<path id="Vector_73" d="M42.488 4.6034C43.8605 4.71488 44.1278 6.30103 42.8006 6.92893C41.1219 6.70066 41.0276 5.41389 42.488 4.6034Z" fill="var(--fill-0, #BABABA)"/>
<path id="Vector_74" d="M39.6063 29.8911C40.9157 29.8971 40.9674 30.3601 40.8964 31.4767L40.868 31.5149C40.6197 31.8554 40.6186 31.8902 40.2656 32.1008C39.6148 32.1361 39.1868 32.0703 38.8981 31.4039C38.7787 31.1343 38.778 30.8269 38.8961 30.5567C39.0547 30.1851 39.2483 30.0365 39.6063 29.8911Z" fill="var(--fill-0, #BABABA)"/>
<path id="Vector_75" d="M58.81 15.994C60.2124 15.9608 60.9334 17.0706 59.6228 18.1592C58.1536 18.4303 57.5328 17.0618 58.81 15.994Z" fill="var(--fill-0, #BABABA)"/>
<path id="Vector_76" d="M79.5419 33.2404C80.9277 33.5974 80.9838 34.9525 79.6436 35.6215C78.0189 35.1941 78.0576 33.723 79.5419 33.2404Z" fill="var(--fill-0, #BABABA)"/>
<path id="Vector_77" d="M86.705 39.5739C88.1408 40.0543 88.3359 41.3459 86.8857 41.9735C85.3132 41.6214 85.3269 40.3518 86.705 39.5739Z" fill="var(--fill-0, #BABABA)"/>
<path id="Vector_78" d="M9.71276 23.3149C10.0985 23.2152 10.5079 23.332 10.783 23.6201C11.058 23.9083 11.1556 24.3228 11.038 24.7034C10.9204 25.0841 10.606 25.3712 10.2163 25.454C9.63164 25.5783 9.05496 25.2126 8.91806 24.6308C8.78108 24.049 9.13411 23.4645 9.71276 23.3149Z" fill="var(--fill-0, #BABABA)"/>
<path id="Vector_79" d="M9.39385 47.4299C9.56801 47.4185 10.0747 47.3715 10.2196 47.4178C11.3727 47.7874 11.4198 48.7155 10.5084 49.362C9.88007 49.4159 9.38155 49.4774 8.94649 48.9105C8.50755 48.3398 8.92084 47.7661 9.39385 47.4299Z" fill="var(--fill-0, #BABABA)"/>
<path id="Vector_80" d="M13.3932 13.8746C14.7347 13.7963 15.1813 15.372 13.7995 16.0965C13.7008 16.0999 13.3585 16.1 13.2882 16.069C11.9026 15.4583 12.3984 14.4322 13.3932 13.8746Z" fill="var(--fill-0, #BABABA)"/>
<path id="Vector_81" d="M20.6205 1.73815C22.0744 1.6593 22.7569 3.00405 21.6166 3.90651C19.9832 4.04493 19.4705 2.68789 20.6205 1.73815Z" fill="var(--fill-0, #BABABA)"/>
<path id="Vector_82" d="M64.9828 20.2348C66.3396 20.2912 67.1289 21.5641 65.7242 22.4617C65.6703 22.4612 65.6164 22.4595 65.5625 22.4566C65.152 22.433 64.7316 22.2946 64.4606 21.9696C64.2747 21.748 64.1966 21.4554 64.2466 21.1704C64.3278 20.694 64.6177 20.4981 64.9828 20.2348Z" fill="var(--fill-0, #BABABA)"/>
<path id="Vector_83" d="M7.16085 18.1136C8.59439 18.112 9.00517 19.5166 7.73912 20.387C7.30929 20.4207 6.80357 20.3541 6.56771 19.9717C6.05357 19.1385 6.59017 18.5533 7.16085 18.1136Z" fill="var(--fill-0, #BABABA)"/>
<path id="Vector_84" d="M33.7681 0.00358206C35.4661 -0.0795916 35.7453 1.30537 34.4423 2.10759C33.0941 2.20252 32.3121 0.704867 33.7681 0.00358206Z" fill="var(--fill-0, #BABABA)"/>
<path id="Vector_85" d="M82.8939 49.4561C84.307 49.7141 84.7729 50.9701 83.4054 51.7563C82.8878 51.7532 82.4143 51.5377 82.1616 51.0649C82.022 50.8001 81.9946 50.489 82.0865 50.2036C82.22 49.7847 82.5259 49.6291 82.8939 49.4561Z" fill="var(--fill-0, #BABABA)"/>
<path id="Vector_86" d="M77.6637 54.0208C79.0472 54.2394 79.4266 55.7845 78.0356 56.3635C77.5757 56.2671 77.1408 56.0865 76.8722 55.6737C76.7219 55.4468 76.6787 55.166 76.7546 54.9049C76.8881 54.4329 77.2653 54.247 77.6637 54.0208Z" fill="var(--fill-0, #BABABA)"/>
<path id="Vector_87" d="M44.628 39.6187C46.1927 39.6521 46.5806 41.0765 45.2153 41.6753C43.4383 41.8521 43.3322 39.92 44.628 39.6187Z" fill="var(--fill-0, #BABABA)"/>
<path id="Vector_88" d="M75.7551 55.6107C77.1742 55.6191 77.6402 57.1505 76.3736 57.8972C74.9074 57.9147 74.4612 56.5358 75.7551 55.6107Z" fill="var(--fill-0, #BABABA)"/>
<path id="Vector_89" d="M86.384 46.3598C87.8434 46.284 88.3996 47.6636 86.9365 48.5712C85.7344 48.6039 84.9384 47.2508 86.384 46.3598Z" fill="var(--fill-0, #BABABA)"/>
<path id="Vector_90" d="M15.5133 12.4991C16.7558 12.496 17.3097 14.2869 15.7215 14.7187C15.2929 14.7166 14.8372 14.579 14.6461 14.1839C14.2158 13.2946 14.9045 12.8161 15.5133 12.4991Z" fill="var(--fill-0, #BABABA)"/>
<path id="Vector_91" d="M46.2924 7.50152C47.8525 7.39353 48.3268 8.52502 47.0761 9.60825C45.5886 9.64536 44.9362 8.42766 46.2924 7.50152Z" fill="var(--fill-0, #BABABA)"/>
<path id="Vector_92" d="M81.2274 34.8853C81.5682 34.9025 82.1191 35.1628 82.3081 35.4297C82.8348 36.1746 82.0986 36.7785 81.6167 37.1236C80.0481 37.1222 79.7567 35.7196 81.2274 34.8853Z" fill="var(--fill-0, #BABABA)"/>
<path id="Vector_93" d="M79.4236 52.4924C80.6993 52.5637 81.1736 54.2204 79.7772 54.7652C78.2883 54.5057 77.8618 53.2528 79.4236 52.4924Z" fill="var(--fill-0, #BABABA)"/>
<path id="Vector_94" d="M83.073 36.4772C84.5946 36.673 84.524 38.0211 83.2711 38.7468C81.6296 38.4167 81.5424 37.2014 83.073 36.4772Z" fill="var(--fill-0, #BABABA)"/>
<path id="Vector_95" d="M14.0002 1.84264C14.579 1.70057 15.1641 2.05163 15.3111 2.62922C15.4581 3.20681 15.1122 3.79486 14.5359 3.94694C13.9525 4.10077 13.3557 3.74964 13.2068 3.16499C13.0579 2.58035 13.4142 1.98645 14.0002 1.84264Z" fill="var(--fill-0, #BABABA)"/>
<path id="Vector_96" d="M59.5727 30.5058C60.1532 30.3739 60.7307 30.7339 60.8681 31.3127C61.0062 31.8915 60.6518 32.4729 60.0743 32.616C59.4884 32.7611 58.8973 32.4007 58.7584 31.814C58.6187 31.2272 58.9845 30.6395 59.5727 30.5058Z" fill="var(--fill-0, #BABABA)"/>
<path id="Vector_97" d="M59.534 32.8867C60.1016 32.7336 60.6882 33.0613 60.8552 33.6253C61.0229 34.1892 60.7095 34.7836 60.1502 34.9648C59.7753 35.0862 59.3647 34.9948 59.0764 34.7262C58.7888 34.4577 58.6689 34.0541 58.7637 33.672C58.8586 33.2898 59.1538 32.9892 59.534 32.8867Z" fill="var(--fill-0, #BABABA)"/>
<path id="Vector_98" d="M21.6705 8.39434C23.0825 8.49261 23.3159 9.9436 21.9262 10.6175C20.5667 10.5511 20.0644 9.10663 21.6705 8.39434Z" fill="var(--fill-0, #BABABA)"/>
<path id="Vector_99" d="M73.5794 32.0338C73.8192 32.007 74.1865 31.9362 74.3998 32.0484C75.3347 32.5414 75.3279 33.6022 74.3512 34.0188C73.7251 34.0823 73.3176 34.1283 72.97 33.4979C72.6285 32.8776 73.052 32.3242 73.5794 32.0338Z" fill="var(--fill-0, #BABABA)"/>
<path id="Vector_100" d="M59.6205 53.2081C60.201 53.0563 60.7945 53.4061 60.9417 53.9882C61.0882 54.5703 60.7322 55.1607 60.1494 55.3018C59.5734 55.4415 58.9929 55.0916 58.8479 54.5172C58.703 53.9427 59.0475 53.3591 59.6205 53.2081Z" fill="var(--fill-0, #BABABA)"/>
<path id="Vector_101" d="M19.5845 9.89073C20.1706 9.77356 20.7404 10.1548 20.8557 10.7413C20.9709 11.3277 20.5878 11.8962 20.0009 12.0095C19.4169 12.1223 18.8516 11.7413 18.7369 11.1576C18.6222 10.574 19.0013 10.0074 19.5845 9.89073Z" fill="var(--fill-0, #BABABA)"/>
<path id="Vector_102" d="M59.4475 25.7556C59.8155 25.614 60.2322 25.6845 60.5327 25.9395C60.8339 26.1945 60.9713 26.5933 60.8924 26.9797C60.8135 27.3661 60.5296 27.6785 60.1525 27.7945C59.597 27.9657 59.005 27.6654 58.8153 27.1156C58.6248 26.5658 58.9049 25.9643 59.4475 25.7556Z" fill="var(--fill-0, #BABABA)"/>
<path id="Vector_103" d="M59.4361 28.177C59.8026 28.037 60.2162 28.1066 60.516 28.359C60.8165 28.6114 60.9561 29.0067 60.881 29.3917C60.8059 29.7766 60.5281 30.0906 60.1547 30.2118C59.5985 30.3926 58.999 30.0967 58.8039 29.5448C58.6089 28.9928 58.8889 28.386 59.4361 28.177Z" fill="var(--fill-0, #BABABA)"/>
<path id="Vector_104" d="M81.2267 50.8935C82.5562 51.4588 82.9015 52.5038 81.4816 53.2445C81.043 53.12 80.5778 52.9265 80.3388 52.5053C80.2173 52.2936 80.1855 52.0417 80.2515 51.8064C80.3889 51.323 80.8169 51.1075 81.2267 50.8935Z" fill="var(--fill-0, #BABABA)"/>
<path id="Vector_105" d="M88.3541 41.2685C88.7905 41.2397 89.4014 41.4082 89.6374 41.7701C90.1398 42.5412 89.497 42.9844 89.0174 43.3312C87.6097 43.6286 87.0063 42.2938 88.3541 41.2685Z" fill="var(--fill-0, #BABABA)"/>
<path id="Vector_106" d="M44.5239 56.6792C46.1273 56.6291 46.3355 58.2167 45.2241 58.8063C44.4559 58.8223 43.6817 58.6682 43.7981 57.5633C43.837 57.1945 44.2095 56.8727 44.5239 56.6792Z" fill="var(--fill-0, #BABABA)"/>
<path id="Vector_107" d="M36.2285 0.199059C37.6658 0.540253 38.1775 1.49318 36.7438 2.40802C36.2646 2.40741 35.7809 2.24205 35.5347 1.80129C35.3946 1.54927 35.3653 1.25034 35.4541 0.976002C35.589 0.545715 35.8528 0.382709 36.2285 0.199059Z" fill="var(--fill-0, #BABABA)"/>
<path id="Vector_108" d="M61.0138 17.361C62.4951 17.6845 62.7972 18.773 61.463 19.6466C60.0037 19.4555 59.6706 18.1493 61.0138 17.361Z" fill="var(--fill-0, #BABABA)"/>
<path id="Vector_109" d="M73.8822 51.9232C74.4316 51.7221 75.0403 51.9999 75.2482 52.547C75.4561 53.0934 75.1852 53.7058 74.6411 53.9206C74.2829 54.061 73.8769 53.9988 73.5779 53.7567C73.2789 53.5154 73.1332 53.1314 73.1962 52.7519C73.2592 52.3725 73.521 52.056 73.8822 51.9232Z" fill="var(--fill-0, #BABABA)"/>
<path id="Vector_110" d="M73.8655 54.2485C74.292 54.2349 74.7966 54.3419 75.0152 54.7251C75.4622 55.5128 74.8998 55.9932 74.3671 56.3635C72.9139 56.45 72.4479 54.9824 73.8655 54.2485Z" fill="var(--fill-0, #BABABA)"/>
<path id="Vector_111" d="M73.8807 56.6723C74.7587 56.8112 74.7928 57.0776 75.1715 57.816C74.9029 58.376 74.8209 58.5301 74.3019 58.8617C72.8182 58.8359 72.4092 57.4342 73.8807 56.6723Z" fill="var(--fill-0, #BABABA)"/>
<path id="Vector_112" d="M26.651 60.3233C28.1044 60.252 28.449 61.7273 27.2841 62.4406C25.736 62.4854 25.4058 61.0579 26.651 60.3233Z" fill="var(--fill-0, #BABABA)"/>
<path id="Vector_113" d="M59.3442 23.4826C59.6926 23.3293 60.0963 23.3762 60.3999 23.6052C60.7034 23.8342 60.8597 24.2096 60.8081 24.5864C60.7565 24.9633 60.5046 25.2827 60.1502 25.4214C59.6182 25.6298 59.0172 25.3745 58.7978 24.8469C58.5785 24.3192 58.8214 23.713 59.3442 23.4826Z" fill="var(--fill-0, #BABABA)"/>
<path id="Vector_114" d="M5.333 23.2776C6.84038 23.4306 6.97295 24.9048 5.8668 25.4284C5.32314 25.4077 4.86022 25.3858 4.60888 24.7805C4.3221 24.0897 4.69243 23.5663 5.333 23.2776Z" fill="var(--fill-0, #BABABA)"/>
<path id="Vector_115" d="M9.55086 58.9551C11.0059 58.88 11.7975 59.8263 10.4154 60.8409C9.0084 61.1991 8.33255 59.8855 9.55086 58.9551Z" fill="var(--fill-0, #BABABA)"/>
<path id="Vector_116" d="M66.1279 23.513C67.5508 23.5616 67.8938 25.0231 66.751 25.6785C65.2901 25.773 64.8742 24.2977 66.1279 23.513Z" fill="var(--fill-0, #BABABA)"/>
<path id="Vector_117" d="M29.0112 60.3256C30.5045 60.321 30.6738 61.9117 29.4619 62.4467C28.036 62.4444 27.6682 60.9433 29.0112 60.3256Z" fill="var(--fill-0, #BABABA)"/>
<path id="Vector_118" d="M18.5516 1.67209C19.1079 1.56046 19.6518 1.91273 19.7775 2.46603C19.9032 3.01941 19.5648 3.57203 19.0148 3.71167C18.6465 3.80524 18.2563 3.69163 17.9957 3.41495C17.7352 3.13818 17.6452 2.74196 17.7607 2.3799C17.8761 2.01776 18.1789 1.74684 18.5516 1.67209Z" fill="var(--fill-0, #BABABA)"/>
<path id="Vector_119" d="M7.45713 23.2776C8.92117 23.3858 9.17471 24.8855 7.99723 25.4249C6.39014 25.4285 6.30735 23.7522 7.45713 23.2776Z" fill="var(--fill-0, #BABABA)"/>
<path id="Vector_120" d="M66.9513 21.5977C67.4317 21.5904 68.1276 21.8676 68.3871 22.2601C68.8493 22.9592 68.3712 23.2817 67.8642 23.5884C66.7267 23.9403 65.7371 22.7462 66.9513 21.5977Z" fill="var(--fill-0, #BABABA)"/>
<path id="Vector_121" d="M16.4067 1.68482C16.9796 1.60863 17.5046 2.01425 17.5757 2.58781C17.6467 3.16138 17.2363 3.68281 16.6621 3.74861C16.0952 3.81349 15.5819 3.40954 15.5118 2.84326C15.4418 2.27705 15.8411 1.7601 16.4067 1.68482Z" fill="var(--fill-0, #BABABA)"/>
<path id="Vector_122" d="M56.6715 49.6193C57.8948 49.5593 58.2697 51.4565 56.7382 51.7449C55.3988 51.5271 55.291 49.9699 56.6715 49.6193Z" fill="var(--fill-0, #BABABA)"/>
<path id="Vector_123" d="M74.1554 49.5464C75.68 49.4766 75.8401 51.1014 74.6927 51.6645C73.2402 51.6576 72.9328 50.2795 74.1554 49.5464Z" fill="var(--fill-0, #BABABA)"/>
<path id="Vector_124" d="M63.9886 23.5172C65.4555 23.4724 65.5519 25.0879 64.5213 25.6584C64.4151 25.6568 63.9939 25.6531 63.9241 25.6158C62.8935 25.0643 62.9717 23.9783 63.9886 23.5172Z" fill="var(--fill-0, #BABABA)"/>
<path id="Vector_125" d="M49.7216 49.6694C50.079 49.5631 50.4653 49.658 50.7339 49.9168C51.0018 50.1763 51.1096 50.5596 51.0155 50.92C50.9221 51.2812 50.6414 51.5636 50.2809 51.6592C49.7352 51.8041 49.1737 51.4839 49.0204 50.9398C48.8678 50.3964 49.1797 49.8303 49.7216 49.6694Z" fill="var(--fill-0, #BABABA)"/>
<path id="Vector_126" d="M71.8696 49.6102C73.4155 49.5062 73.6629 51.0187 72.5428 51.7176C71.2026 51.8185 70.7396 50.4996 71.8696 49.6102Z" fill="var(--fill-0, #BABABA)"/>
<path id="Vector_127" d="M31.2782 60.3248C32.7133 60.2626 32.8271 61.9162 31.721 62.4596C30.2598 62.4194 29.9858 60.8872 31.2782 60.3248Z" fill="var(--fill-0, #BABABA)"/>
<path id="Vector_128" d="M60.9948 49.6754C61.5427 49.5403 62.0975 49.8712 62.2394 50.4169C62.3805 50.9633 62.0572 51.5218 61.5131 51.6705C61.1549 51.7684 60.7717 51.6667 60.5099 51.4026C60.2481 51.1393 60.1479 50.7553 60.2488 50.3971C60.349 50.0397 60.6343 49.7635 60.9948 49.6754Z" fill="var(--fill-0, #BABABA)"/>
<path id="Vector_129" d="M58.5725 49.6967C59.3162 49.6572 60.0219 49.8105 60.0029 50.8168C59.9969 51.1704 59.6956 51.5188 59.408 51.7237C57.9653 51.836 57.4296 50.4214 58.5725 49.6967Z" fill="var(--fill-0, #BABABA)"/>
<path id="Vector_130" d="M33.7948 60.3423C35.0426 60.6808 34.929 62.3283 33.5483 62.4771C32.3676 62.1234 32.1694 60.5669 33.7948 60.3423Z" fill="var(--fill-0, #BABABA)"/>
<path id="Vector_131" d="M70.0255 49.529C71.3058 49.8022 71.4188 51.3017 70.0999 51.757C69.6856 51.6827 69.278 51.5013 69.1361 51.0892C68.8318 50.2044 69.338 49.809 70.0255 49.529Z" fill="var(--fill-0, #BABABA)"/>
<path id="Vector_132" d="M67.3626 36.9393C68.781 37.0681 68.8842 38.6436 67.6206 39.0936C67.1425 39.0321 66.7912 38.9001 66.5787 38.4296C66.4542 38.1577 66.4535 37.8458 66.5749 37.573C66.7601 37.1496 66.9574 37.0886 67.3626 36.9393Z" fill="var(--fill-0, #BABABA)"/>
<path id="Vector_133" d="M48.049 43.47C48.581 43.275 49.1706 43.5459 49.3679 44.0771C49.5653 44.6076 49.2966 45.1987 48.7669 45.3983C48.2334 45.5994 47.6385 45.3285 47.4396 44.7943C47.2408 44.26 47.514 43.6658 48.049 43.47Z" fill="var(--fill-0, #BABABA)"/>
<path id="Vector_134" d="M71.5509 36.9454C73.0042 36.8777 73.288 38.2686 72.1853 39.0647C71.6769 39.0844 71.3126 39.007 71.028 38.5433C70.8694 38.2906 70.8262 37.9821 70.9081 37.6952C71.0166 37.3034 71.2193 37.1386 71.5509 36.9454Z" fill="var(--fill-0, #BABABA)"/>
<path id="Vector_135" d="M44.5698 60.3978C46.0577 60.4471 46.0897 62.0202 44.9559 62.468C43.4579 62.43 43.2347 60.8948 44.5698 60.3978Z" fill="var(--fill-0, #BABABA)"/>
<path id="Vector_136" d="M24.2474 60.4022C25.8362 60.2983 26.2518 61.6893 25.0343 62.4269C23.751 62.5529 23.1981 61.3243 24.2474 60.4022Z" fill="var(--fill-0, #BABABA)"/>
<path id="Vector_137" d="M62.9216 36.9506C64.3552 36.978 64.5464 38.6473 63.1675 39.0784C61.9169 38.9714 61.6361 37.5771 62.9216 36.9506Z" fill="var(--fill-0, #BABABA)"/>
<path id="Vector_138" d="M63.0734 49.7013C64.5221 49.5366 64.9979 50.8032 63.9211 51.6584C63.1174 51.7214 62.3767 51.5681 62.4822 50.4715C62.5186 50.089 62.76 49.8955 63.0734 49.7013Z" fill="var(--fill-0, #BABABA)"/>
<path id="Vector_139" d="M57.8811 60.422C58.4351 60.3241 58.9641 60.6914 59.0658 61.2446C59.1674 61.7978 58.8039 62.3291 58.2515 62.4346C57.6937 62.5408 57.1556 62.1727 57.0532 61.6142C56.95 61.0557 57.3218 60.5206 57.8811 60.422Z" fill="var(--fill-0, #BABABA)"/>
<path id="Vector_140" d="M53.3627 60.4493C53.8977 60.2831 54.4677 60.5776 54.6399 61.111C54.813 61.6438 54.5246 62.2167 53.9934 62.3951C53.645 62.5127 53.2595 62.4338 52.9856 62.1879C52.7108 61.9428 52.5894 61.5687 52.6676 61.2089C52.7458 60.8492 53.0114 60.5593 53.3627 60.4493Z" fill="var(--fill-0, #BABABA)"/>
<path id="Vector_141" d="M39.9992 60.3977C41.4697 60.3727 41.7119 61.8434 40.6487 62.433C39.0405 62.5332 38.8523 60.9168 39.9992 60.3977Z" fill="var(--fill-0, #BABABA)"/>
<path id="Vector_142" d="M54.3584 49.6299C55.8321 49.8113 55.8283 51.4854 54.4897 51.7297C53.236 51.4641 52.9818 49.9448 54.3584 49.6299Z" fill="var(--fill-0, #BABABA)"/>
<path id="Vector_143" d="M22.1226 60.4076C23.7172 60.3241 23.8848 61.8009 22.8221 62.4422C21.4109 62.4869 20.9504 61.0754 22.1226 60.4076Z" fill="var(--fill-0, #BABABA)"/>
<path id="Vector_144" d="M48.8565 60.403C50.3598 60.3203 50.6823 61.7212 49.6154 62.4452C48.1257 62.4885 47.7136 61.0989 48.8565 60.403Z" fill="var(--fill-0, #BABABA)"/>
<path id="Vector_145" d="M56.5076 36.9625C57.8553 37.1895 57.8743 38.6618 56.61 39.1019C56.1008 38.979 55.7434 38.8226 55.5711 38.2831C55.4793 38 55.5165 37.6913 55.6713 37.4375C55.883 37.0833 56.1334 37.0434 56.5076 36.9625Z" fill="var(--fill-0, #BABABA)"/>
<path id="Vector_146" d="M55.521 60.4007C57.0046 60.362 57.3567 61.7166 56.2989 62.4338C55.7388 62.4672 55.4034 62.4952 55.0733 61.9754C54.6817 61.3584 54.9146 60.7392 55.521 60.4007Z" fill="var(--fill-0, #BABABA)"/>
<path id="Vector_147" d="M51.1885 60.4425C51.719 60.2998 52.2677 60.6026 52.4301 61.1278C52.5917 61.6529 52.3094 62.2122 51.7903 62.3936C51.4374 62.5165 51.0459 62.4368 50.7689 62.1864C50.4919 61.9352 50.3735 61.5535 50.4607 61.19C50.5488 60.8265 50.8273 60.5404 51.1885 60.4425Z" fill="var(--fill-0, #BABABA)"/>
<path id="Vector_148" d="M65.4351 49.6094C65.9314 49.6018 66.2835 49.7164 66.5339 50.1763C66.6751 50.4366 66.7001 50.7447 66.6038 51.0247C66.4793 51.3936 66.2463 51.5286 65.9162 51.6834C64.5419 51.7244 64.1336 50.2742 65.4351 49.6094Z" fill="var(--fill-0, #BABABA)"/>
<path id="Vector_149" d="M59.5438 55.5545C60.1646 55.5796 61.0373 55.6767 60.9402 56.6602C60.9045 57.0215 60.4962 57.2886 60.1912 57.4548C58.6628 57.5125 58.2477 56.0334 59.5438 55.5545Z" fill="var(--fill-0, #BABABA)"/>
<path id="Vector_150" d="M61.7787 23.5076C62.2895 23.4734 62.6363 23.5391 62.8981 24.0328C63.037 24.2983 63.0605 24.6093 62.9633 24.893C62.8275 25.3018 62.637 25.3935 62.2743 25.5651C60.9614 25.7611 60.5524 24.2494 61.7787 23.5076Z" fill="var(--fill-0, #BABABA)"/>
<path id="Vector_151" d="M52.2859 43.5088C52.6228 43.3509 53.0182 43.3889 53.3187 43.6074C53.6192 43.8267 53.7763 44.1918 53.73 44.5598C53.683 44.9286 53.4394 45.2428 53.0941 45.3794C52.5818 45.5828 52.0005 45.3422 51.782 44.8361C51.5642 44.3299 51.7873 43.7417 52.2859 43.5088Z" fill="var(--fill-0, #BABABA)"/>
<path id="Vector_152" d="M51.7235 49.7126C53.2663 49.5024 53.7847 50.6757 52.7169 51.6478C51.2636 51.8944 50.822 50.6218 51.7235 49.7126Z" fill="var(--fill-0, #BABABA)"/>
<path id="Vector_153" d="M46.7969 60.4303C47.3508 60.3271 47.8836 60.6921 47.9868 61.2461C48.09 61.8001 47.7242 62.3321 47.1702 62.4353C46.617 62.5377 46.0852 62.1727 45.982 61.6195C45.879 61.0663 46.2436 60.5343 46.7969 60.4303Z" fill="var(--fill-0, #BABABA)"/>
<path id="Vector_154" d="M65.0677 36.9435C66.4216 36.9169 66.6675 38.3832 65.5701 39.0602C64.1078 39.1376 63.8353 37.5998 65.0677 36.9435Z" fill="var(--fill-0, #BABABA)"/>
<path id="Vector_155" d="M42.1782 60.4046C43.7237 60.3173 43.9057 61.8252 42.8337 62.4422C41.3612 62.5059 41.0402 61.0284 42.1782 60.4046Z" fill="var(--fill-0, #BABABA)"/>
<path id="Vector_156" d="M20.1652 60.4106C21.5828 60.5548 21.5285 62.2122 20.3361 62.4824C18.9835 62.3291 18.7043 60.6793 20.1652 60.4106Z" fill="var(--fill-0, #BABABA)"/>
<path id="Vector_157" d="M17.5795 60.5131C17.9157 60.3613 18.3077 60.403 18.6045 60.6224C18.9011 60.8409 19.0561 61.2037 19.0094 61.5694C18.9628 61.936 18.7219 62.2479 18.3798 62.386C17.8656 62.5932 17.2803 62.3511 17.0625 61.8411C16.8447 61.3319 17.0745 60.7415 17.5795 60.5131Z" fill="var(--fill-0, #BABABA)"/>
<path id="Vector_158" d="M58.4731 36.9496C59.8428 36.8821 60.0523 38.2034 58.9861 39.0677C57.5996 39.1315 57.1936 37.5367 58.4731 36.9496Z" fill="var(--fill-0, #BABABA)"/>
<path id="Vector_159" d="M67.4886 49.6185C69.0967 49.5631 69.1961 51.2326 68.1739 51.6728C66.7791 51.6773 66.3108 50.407 67.4886 49.6185Z" fill="var(--fill-0, #BABABA)"/>
<path id="Vector_160" d="M54.1133 36.956C55.6788 37.1136 55.6447 38.5874 54.479 39.0845C53.9714 39.048 53.5911 38.8629 53.4022 38.3559C53.299 38.0817 53.3088 37.7777 53.4303 37.5109C53.582 37.1816 53.796 37.0837 54.1133 36.956Z" fill="var(--fill-0, #BABABA)"/>
<path id="Vector_161" d="M37.9566 60.4075C39.3921 60.4091 39.4609 61.9549 38.2465 62.477C37.6879 62.4391 37.3249 62.2531 37.1391 61.684C37.0498 61.4161 37.0788 61.1224 37.2187 60.8773C37.4006 60.5654 37.6283 60.4834 37.9566 60.4075Z" fill="var(--fill-0, #BABABA)"/>
<path id="Vector_162" d="M40.0302 43.4063C40.5792 43.3023 41.1088 43.662 41.2151 44.2107C41.3214 44.7594 40.9644 45.2906 40.4163 45.3991C39.8647 45.5084 39.3294 45.1487 39.2224 44.597C39.1154 44.0445 39.4776 43.511 40.0302 43.4063Z" fill="var(--fill-0, #BABABA)"/>
<path id="Vector_163" d="M35.5179 60.4068C37.0403 60.2968 37.2528 61.7911 36.2586 62.4361C34.749 62.5188 34.4212 61.0314 35.5179 60.4068Z" fill="var(--fill-0, #BABABA)"/>
<path id="Vector_164" d="M60.563 36.9418C61.9965 36.9385 62.3327 38.302 61.2073 39.0207C59.8368 39.2339 59.4588 37.7451 60.563 36.9418Z" fill="var(--fill-0, #BABABA)"/>
<path id="Vector_165" d="M56.4461 43.489C56.7967 43.3699 57.1837 43.4511 57.4561 43.7007C57.7286 43.9512 57.8424 44.3291 57.7536 44.688C57.6656 45.047 57.3879 45.3293 57.0304 45.4234C56.5038 45.563 55.9619 45.2595 55.8041 44.7381C55.647 44.2168 55.9308 43.6643 56.4461 43.489Z" fill="var(--fill-0, #BABABA)"/>
<path id="Vector_166" d="M69.4549 36.9485C70.9225 36.927 71.0303 38.6337 69.7827 39.0807C68.507 38.9084 68.2566 37.5007 69.4549 36.9485Z" fill="var(--fill-0, #BABABA)"/>
<path id="Vector_167" d="M21.0433 6.59851C22.6418 6.74847 22.4278 7.96609 21.1326 8.54421C19.6099 8.68688 19.7591 6.88552 21.0433 6.59851Z" fill="var(--fill-0, #BABABA)"/>
<path id="Vector_168" d="M51.7607 37.0259C53.3134 36.9022 53.4743 38.4918 52.2714 39.0814C51.0527 39.0647 50.5693 37.779 51.7607 37.0259Z" fill="var(--fill-0, #BABABA)"/>
<path id="Vector_169" d="M73.3798 29.8485C73.9012 29.6856 74.4574 29.9677 74.6335 30.4845C74.8103 31.0013 74.5424 31.5645 74.0302 31.7543C73.6872 31.8816 73.3016 31.8125 73.0239 31.574C72.7461 31.3355 72.6202 30.9651 72.6938 30.6065C72.7681 30.248 73.0307 29.9578 73.3798 29.8485Z" fill="var(--fill-0, #BABABA)"/>
<path id="Vector_170" d="M59.4968 59.5857C59.5901 59.5736 59.6842 59.563 59.7783 59.5539C60.9865 59.4408 61.564 60.5154 60.5441 61.4268C59.9559 61.5217 59.6205 61.533 59.2411 61.0056C58.8373 60.4448 58.9663 59.9568 59.4968 59.5857Z" fill="var(--fill-0, #BABABA)"/>
<path id="Vector_171" d="M13.4155 60.4091C14.8751 60.4121 14.9741 61.9572 13.918 62.4657C13.2922 62.4513 12.9503 62.3511 12.7136 61.7022C12.615 61.4313 12.6377 61.1316 12.7759 60.8781C12.9436 60.5707 13.1107 60.5115 13.4155 60.4091Z" fill="var(--fill-0, #BABABA)"/>
<path id="Vector_172" d="M11.9105 56.8408C12.6301 56.7756 13.4688 56.8682 13.4199 57.9238C13.4029 58.2903 13.1448 58.5354 12.8505 58.7403C11.5194 59.0234 10.9699 57.6915 11.9105 56.8408Z" fill="var(--fill-0, #BABABA)"/>
<path id="Vector_173" d="M11.317 60.3962C12.7776 60.3158 12.9086 62.1014 11.5905 62.4369C10.144 62.3056 10.2484 61.1096 11.317 60.3962Z" fill="var(--fill-0, #BABABA)"/>
<path id="Vector_174" d="M15.7438 60.4182C16.2163 60.4341 16.5725 60.526 16.6968 61.0223C16.8843 61.7705 16.6209 62.2471 15.9324 62.4854C15.7649 62.4634 15.4979 62.4346 15.3595 62.3397C15.0944 62.1591 14.9119 61.8806 14.8524 61.5649C14.7948 61.2773 14.8632 60.9783 15.0404 60.7438C15.244 60.4713 15.4213 60.463 15.7438 60.4182Z" fill="var(--fill-0, #BABABA)"/>
<path id="Vector_175" d="M2.90583 23.4506C3.03613 23.44 3.40328 23.4028 3.51378 23.4369C4.50685 23.7427 4.66796 24.8769 3.7639 25.4017C2.33811 25.5418 1.97491 24.4134 2.90583 23.4506Z" fill="var(--fill-0, #BABABA)"/>
<path id="Vector_176" d="M22.6632 56.834C23.3596 56.7983 24.1011 56.8529 24.0337 57.8805C24.0066 58.2933 23.7113 58.5749 23.3742 58.8018C22.0503 58.8169 21.5526 57.4183 22.6632 56.834Z" fill="var(--fill-0, #BABABA)"/>
<path id="Vector_177" d="M49.6229 37.0169C51.1126 37.0037 51.2416 38.4865 49.9887 39.0905C48.7578 38.9524 48.433 37.569 49.6229 37.0169Z" fill="var(--fill-0, #BABABA)"/>
<path id="Vector_178" d="M57.1609 56.8378C57.5965 56.8059 57.9168 56.7732 58.2499 57.1011C58.4275 57.2734 58.5254 57.5124 58.5178 57.7598C58.5072 58.1726 58.2894 58.502 58.0124 58.7858C56.5425 58.9452 56.1 57.6672 57.1609 56.8378Z" fill="var(--fill-0, #BABABA)"/>
<path id="Vector_179" d="M14.1526 56.834C14.8611 56.7961 15.5875 56.8932 15.5275 57.9215C15.5048 58.3093 15.2105 58.5908 14.8876 58.7972C13.5741 58.8526 13.1291 57.4715 14.1526 56.834Z" fill="var(--fill-0, #BABABA)"/>
<path id="Vector_180" d="M18.4058 56.8325C19.2743 56.7846 20.0054 57.0609 19.7376 58.1977C19.6667 58.4982 19.51 58.6143 19.2324 58.7562C17.8463 58.9528 17.4239 57.5268 18.4058 56.8325Z" fill="var(--fill-0, #BABABA)"/>
<path id="Vector_181" d="M20.525 56.8438C21.215 56.79 21.9131 56.8803 21.9218 57.838C21.9255 58.2508 21.6606 58.5361 21.3368 58.7759C19.9207 58.9186 19.5526 57.4828 20.525 56.8438Z" fill="var(--fill-0, #BABABA)"/>
<path id="Vector_182" d="M16.3214 56.8348C16.4118 56.831 16.5024 56.828 16.5929 56.8257C17.8174 56.7976 17.9651 58.0467 17.1183 58.7912C15.6933 58.8754 15.2231 57.558 16.3214 56.8348Z" fill="var(--fill-0, #BABABA)"/>
<path id="Vector_183" d="M46.7346 56.8901C47.2401 56.6951 47.8077 56.9448 48.0058 57.4487C48.2038 57.9526 47.9587 58.5225 47.4556 58.7243C46.9479 58.9277 46.3717 58.6796 46.1715 58.1704C45.9713 57.6611 46.2239 57.0867 46.7346 56.8901Z" fill="var(--fill-0, #BABABA)"/>
<path id="Vector_184" d="M50.885 56.9038C51.2105 56.7619 51.5877 56.8067 51.8708 57.0214C52.1546 57.2354 52.3003 57.586 52.2532 57.9382C52.2054 58.2903 51.9724 58.5893 51.6423 58.7213C51.143 58.9209 50.5753 58.6826 50.3682 58.1856C50.161 57.6893 50.3909 57.1178 50.885 56.9038Z" fill="var(--fill-0, #BABABA)"/>
<path id="Vector_185" d="M48.8367 56.8317C49.5607 56.7976 50.1504 56.963 50.1352 57.9139C50.1299 58.2615 49.8552 58.6015 49.5683 58.801C48.1128 58.8489 47.7455 57.5519 48.8367 56.8317Z" fill="var(--fill-0, #BABABA)"/>
<path id="Vector_186" d="M43.7953 43.5034C44.1312 43.3714 44.5128 43.4336 44.7891 43.6658C45.0655 43.8981 45.1923 44.2638 45.1193 44.6175C45.0463 44.9711 44.7854 45.2557 44.4396 45.3604C43.9348 45.5122 43.4 45.239 43.2272 44.7412C43.0543 44.2426 43.3049 43.697 43.7953 43.5034Z" fill="var(--fill-0, #BABABA)"/>
<path id="Vector_187" d="M60.7193 43.4928C61.2392 43.3805 61.7529 43.7038 61.8774 44.2206C62.0019 44.7374 61.6907 45.2587 61.1777 45.3953C60.8339 45.4864 60.4689 45.384 60.2223 45.129C59.9756 44.8732 59.8868 44.5044 59.9901 44.1644C60.0933 43.8252 60.3725 43.568 60.7193 43.4928Z" fill="var(--fill-0, #BABABA)"/>
<path id="Vector_188" d="M59.8982 57.5087C60.0143 57.5398 60.5084 57.6703 60.566 57.7303C61.2392 58.4224 60.9242 59.2055 60.0318 59.374C58.5717 59.3656 58.4154 57.8699 59.8982 57.5087Z" fill="var(--fill-0, #BABABA)"/>
<path id="Vector_189" d="M53.0129 56.8325C53.8158 56.7854 54.4123 57.0427 54.2863 58.0497C54.2438 58.3943 53.9767 58.6318 53.6837 58.8079C52.3253 58.8117 51.9747 57.4616 53.0129 56.8325Z" fill="var(--fill-0, #BABABA)"/>
<path id="Vector_190" d="M55.1537 56.8294C56.5774 56.7619 56.7011 58.1195 55.7677 58.8207C54.3645 58.8185 54.0564 57.5018 55.1537 56.8294Z" fill="var(--fill-0, #BABABA)"/>
<path id="Vector_191" d="M2.01803 36.4231C2.51229 36.2839 3.02644 36.5685 3.17116 37.0611C3.31588 37.5537 3.03721 38.071 2.54629 38.2216C2.22369 38.3203 1.87293 38.2375 1.62789 38.006C1.38285 37.7741 1.28131 37.4285 1.36205 37.101C1.4428 36.7734 1.6933 36.5145 2.01803 36.4231Z" fill="var(--fill-0, #BABABA)"/>
<path id="Vector_192" d="M67.7284 56.875C68.1587 56.6496 68.6907 56.8105 68.9237 57.237C69.1566 57.6627 69.0049 58.1969 68.5829 58.4375C68.3029 58.5969 67.9591 58.5931 67.6836 58.4276C67.4074 58.2615 67.242 57.9594 67.2518 57.6376C67.2609 57.3159 67.4438 57.0245 67.7284 56.875Z" fill="var(--fill-0, #BABABA)"/>
<path id="Vector_193" d="M65.0655 62.2312C65.5413 62.2016 65.9556 62.5545 66.0019 63.0295C66.0475 63.5038 65.709 63.9296 65.2362 63.9926C64.916 64.0343 64.5972 63.8984 64.4068 63.6374C64.2155 63.3763 64.1821 63.0318 64.3195 62.7389C64.4568 62.4459 64.7429 62.2517 65.0655 62.2312Z" fill="var(--fill-0, #BABABA)"/>
</g>
</svg>
