<svg preserveAspectRatio="xMidYMid meet"  overflow="visible" viewBox="0 0 70.4122 64.0001" fill="none" xmlns="http://www.w3.org/2000/svg">
<g id="Group 48095698" opacity="0.48">
<path id="Vector" d="M5.41704 22.6628C6.36493 22.5338 6.69301 23.8867 5.66752 24.3434L5.71507 24.4465C6.70427 24.9412 6.41544 26.0816 5.33225 26.0916C4.64008 25.8843 4.33212 25.371 4.75386 24.7207C4.99491 24.3489 5.13178 24.4917 5.47781 24.3336C5.00216 24.2587 4.57959 24.08 4.56582 23.5242C4.56169 23.2932 4.64783 23.0696 4.80593 22.901C5.02251 22.6678 5.11093 22.6718 5.41704 22.6628Z" fill="var(--fill-0, #BABABA)"/>
<path id="Vector_2" d="M56.5528 61.6191C57.8077 61.7016 57.8595 63.2709 56.4591 63.6255C55.2371 63.3167 55.1156 61.9112 56.5528 61.6191Z" fill="var(--fill-0, #BABABA)"/>
<path id="Vector_3" d="M35.5284 34.1942C36.4031 34.1284 36.3858 34.2826 36.6751 34.8513C36.7487 34.9949 37.5108 34.3067 37.7444 34.9384C37.8509 35.2256 37.8185 35.292 37.7466 35.5194C37.5755 35.7095 37.5019 35.7268 37.2649 35.8439C36.8663 35.6861 36.8864 35.6515 36.6779 35.3159L36.4164 35.4904C36.17 35.6577 36.0647 35.7419 35.7436 35.6973C35.5301 35.6683 35.3405 35.5467 35.2251 35.3644C34.948 34.9282 35.0941 34.4575 35.5284 34.1942Z" fill="var(--fill-0, #BABABA)"/>
<path id="Vector_4" d="M17.0789 62.1342C17.4124 62.0339 17.7739 62.1242 18.0217 62.3684C18.2695 62.6131 18.3642 62.9733 18.2688 63.3077C18.1733 63.6428 17.9029 63.8987 17.5634 63.9762C17.0625 64.0899 16.5615 63.7861 16.4309 63.2893C16.3002 62.7926 16.5869 62.2814 17.0789 62.1342Z" fill="var(--fill-0, #BABABA)"/>
<path id="Vector_5" d="M36.7036 62.1526C37.0308 62.0328 37.3976 62.1014 37.6596 62.331C37.9211 62.5607 38.0371 62.9153 37.9607 63.2554C37.8843 63.5954 37.6284 63.8669 37.2934 63.9628C36.8006 64.1038 36.2843 63.8296 36.1255 63.3418C35.9666 62.8545 36.2225 62.3288 36.7036 62.1526Z" fill="var(--fill-0, #BABABA)"/>
<path id="Vector_6" d="M26.7322 62.142C27.0545 62.0367 27.4084 62.113 27.6586 62.3422C27.9087 62.5707 28.0163 62.9164 27.94 63.247C27.8638 63.577 27.6156 63.8407 27.2906 63.9371C26.7977 64.0826 26.2792 63.8056 26.1265 63.3144C25.9739 62.8238 26.2437 62.3015 26.7322 62.142Z" fill="var(--fill-0, #BABABA)"/>
<path id="Vector_7" d="M46.3776 62.1393C46.8659 61.9938 47.3799 62.2692 47.5299 62.7564C47.6793 63.2431 47.4084 63.7599 46.9228 63.9137C46.4311 64.0698 45.9065 63.7944 45.7549 63.3016C45.6032 62.8082 45.8831 62.2859 46.3776 62.1393Z" fill="var(--fill-0, #BABABA)"/>
<path id="Vector_8" d="M5.17024 29.6486C5.43282 29.5968 5.51728 29.6094 5.79039 29.6202L5.74584 29.7322L6.17282 30.0853C7.00018 32.553 3.06875 31.1421 5.12169 29.7581L5.17024 29.6486Z" fill="var(--fill-0, #BABABA)"/>
<path id="Vector_9" d="M5.17024 29.6486C5.43282 29.5968 5.51728 29.6094 5.79039 29.6202L5.74585 29.7322C5.51973 29.7311 5.34591 29.7229 5.12169 29.7581L5.17024 29.6486Z" fill="var(--fill-0, #BABABA)"/>
<path id="Vector_10" d="M8.34455 1.42642C8.12975 1.89961 7.68076 2.25863 7.17635 1.88216C6.00474 1.00769 7.39945 -0.346214 8.28557 0.488617L8.52155 0.46353C8.41652 0.673144 8.40392 0.917099 8.48682 1.13641L8.34455 1.42642Z" fill="var(--fill-0, #BABABA)"/>
<path id="Vector_11" d="M8.28557 0.488604L8.52155 0.463517C8.41652 0.673131 8.40392 0.917086 8.48682 1.1364L8.34455 1.4264C8.3392 1.07658 8.32142 0.83614 8.28557 0.488604Z" fill="var(--fill-0, #BABABA)"/>
<path id="Vector_12" d="M57.9415 60.3737C58.2397 60.2611 58.5759 60.3185 58.82 60.5237C59.0642 60.7294 59.1779 61.0505 59.1177 61.3638C59.0575 61.6771 58.8329 61.9335 58.5296 62.0339C58.0747 62.1844 57.583 61.9436 57.4224 61.492C57.2624 61.0399 57.4932 60.5432 57.9415 60.3737Z" fill="var(--fill-0, #BABABA)"/>
<path id="Vector_13" d="M5.13406 4.70842C5.33848 4.6937 5.62793 4.64911 5.79947 4.75637C6.50502 5.1975 6.5111 6.20571 5.61762 6.42352C4.44913 6.50921 4.17976 5.34323 5.13406 4.70842Z" fill="var(--fill-0, #BABABA)"/>
<path id="Vector_14" d="M5.51984 6.47705C6.29909 6.41901 6.79854 8.19159 5.4991 8.2242C4.16231 8.1539 4.2791 6.70551 5.51984 6.47705Z" fill="var(--fill-0, #BABABA)"/>
<path id="Vector_15" d="M35.0183 61.3906C35.4359 61.4853 35.8222 61.6637 35.9616 62.1008C36.0273 62.3021 36.005 62.5211 35.9002 62.7051C35.7191 63.0218 35.5094 63.097 35.18 63.1812C34.7975 63.14 34.3995 62.9538 34.2584 62.5708C34.181 62.3578 34.1977 62.1225 34.3047 61.9224C34.463 61.623 34.7067 61.4803 35.0183 61.3906Z" fill="var(--fill-0, #BABABA)"/>
<path id="Vector_16" d="M5.19143 33.3735C5.65453 33.2407 6.13782 33.5073 6.27239 33.9699C6.40697 34.4325 6.14211 34.9168 5.68001 35.0534C5.21552 35.1899 4.72811 34.9236 4.59286 34.4586C4.45756 33.9935 4.72593 33.5071 5.19143 33.3735Z" fill="var(--fill-0, #BABABA)"/>
<path id="Vector_17" d="M5.56817 10.1272C6.03657 10.1988 6.36253 10.6306 6.30293 11.1007C6.24339 11.5707 5.82004 11.9076 5.34858 11.8601C5.03271 11.8283 4.75899 11.6276 4.63355 11.336C4.50817 11.0443 4.55082 10.7076 4.74499 10.4564C4.93916 10.2053 5.25436 10.0792 5.56817 10.1272Z" fill="var(--fill-0, #BABABA)"/>
<path id="Vector_18" d="M5.02792 11.9432C5.48767 11.9224 5.7968 11.8962 6.11345 12.2872C6.5266 12.7973 6.23598 13.3249 5.78426 13.6605C5.56054 13.7141 5.26719 13.6306 5.03132 13.5849C4.36434 12.9439 4.41703 12.6084 5.02792 11.9432Z" fill="var(--fill-0, #BABABA)"/>
<path id="Vector_19" d="M5.21322 53.0077C5.46024 52.9603 5.45049 52.957 5.69606 52.9971L5.7527 53.1298C7.27156 54.0151 5.33369 55.5437 4.65362 54.3473C4.37873 53.8634 4.6665 53.3299 5.17966 53.122L5.21322 53.0077Z" fill="var(--fill-0, #BABABA)"/>
<path id="Vector_20" d="M5.21323 53.0077C5.46025 52.9603 5.45049 52.957 5.69607 52.9971L5.75271 53.1298L5.17967 53.122L5.21323 53.0077Z" fill="var(--fill-0, #BABABA)"/>
<path id="Vector_21" d="M15.292 61.3978C16.4802 61.5294 16.7721 62.6343 15.6252 63.1834C14.4383 63.1706 14.1985 61.923 15.292 61.3978Z" fill="var(--fill-0, #BABABA)"/>
<path id="Vector_22" d="M5.48216 15.478C5.79496 15.498 6.07276 15.6847 6.20945 15.9668C6.34615 16.2487 6.32062 16.5825 6.14255 16.8404C5.96455 17.0983 5.66156 17.2405 5.34937 17.2127C4.87506 17.1704 4.52284 16.7546 4.55919 16.2798C4.59554 15.805 5.00696 15.4476 5.48216 15.478Z" fill="var(--fill-0, #BABABA)"/>
<path id="Vector_23" d="M5.11723 19.1159C5.33309 19.0321 5.57342 19.038 5.78493 19.1321C5.95524 19.2079 6.09667 19.3364 6.18832 19.4986C6.28783 19.6747 6.32279 19.88 6.28722 20.079C6.23331 20.3811 6.02414 20.6322 5.73687 20.74C5.28921 20.9079 4.78999 20.6827 4.61956 20.236C4.44914 19.7893 4.67152 19.2888 5.11723 19.1159Z" fill="var(--fill-0, #BABABA)"/>
<path id="Vector_24" d="M5.72215 27.9307C6.32657 28.3928 6.64941 29.2874 5.79039 29.6202C5.51727 29.6094 5.43281 29.5968 5.17024 29.6486C4.31991 29.257 4.44724 28.6152 5.00556 28.0146L5.72215 27.9307Z" fill="var(--fill-0, #BABABA)"/>
<path id="Vector_25" d="M5.11856 13.7345C5.83208 13.6799 6.43935 13.9476 6.25995 14.8763C6.21044 15.1326 5.96783 15.3163 5.73117 15.4289L5.00427 15.3876C4.42142 14.7854 4.36177 14.2238 5.11856 13.7345Z" fill="var(--fill-0, #BABABA)"/>
<path id="Vector_26" d="M5.18535 8.32968C5.30962 8.31781 5.57794 8.28168 5.6911 8.32678C6.18398 8.5233 6.44967 9.12449 6.19713 9.60743C6.06384 9.86237 5.92675 9.94416 5.65994 10.0378C5.4651 10.0063 5.21039 9.995 5.00964 9.98022C4.36061 9.37647 4.40365 8.78236 5.18535 8.32968Z" fill="var(--fill-0, #BABABA)"/>
<path id="Vector_27" d="M53.9705 61.5767C55.1997 60.7623 55.7595 62.6081 54.8491 63.0764C54.2738 63.3724 53.6483 62.7318 53.5964 62.1108C53.5574 62.0684 53.5864 62.0913 53.4922 62.0723C53.5897 61.885 53.6343 61.7942 53.7587 61.6264L53.9705 61.5767Z" fill="var(--fill-0, #BABABA)"/>
<path id="Vector_28" d="M53.7587 61.6264L53.9705 61.5768C53.8869 61.7022 53.6884 62.0166 53.5964 62.1108C53.5574 62.0685 53.5864 62.0913 53.4922 62.0724C53.5897 61.8851 53.6343 61.7942 53.7587 61.6264Z" fill="var(--fill-0, #BABABA)"/>
<path id="Vector_29" d="M5.12966 47.7673C5.57749 47.599 6.07665 47.8259 6.2444 48.2741C6.41209 48.7217 6.1847 49.2207 5.73665 49.3885C5.28904 49.5552 4.79071 49.3283 4.62318 48.8812C4.45566 48.4335 4.68239 47.9351 5.12966 47.7673Z" fill="var(--fill-0, #BABABA)"/>
<path id="Vector_30" d="M5.06901 17.3073C5.77233 17.2572 6.4213 17.4526 6.26988 18.4267C6.22975 18.6849 5.99555 18.8551 5.75929 18.9653C5.37267 18.9782 5.08813 19.013 4.79841 18.7111C4.31139 18.2038 4.63807 17.6726 5.06901 17.3073Z" fill="var(--fill-0, #BABABA)"/>
<path id="Vector_31" d="M5.10942 38.8431C5.55017 38.6737 6.04577 38.8889 6.22255 39.3265C6.39938 39.7647 6.19206 40.2636 5.75683 40.447C5.46917 40.5686 5.13836 40.5256 4.89139 40.3344C4.64437 40.1438 4.51949 39.8343 4.5647 39.5255C4.60986 39.2161 4.81808 38.9558 5.10942 38.8431Z" fill="var(--fill-0, #BABABA)"/>
<path id="Vector_32" d="M5.21323 53.0077C4.36903 52.6186 4.35766 51.614 5.16322 51.2979C6.00095 50.969 6.97443 52.5974 5.69606 52.9971C5.45049 52.9569 5.46025 52.9603 5.21323 53.0077Z" fill="var(--fill-0, #BABABA)"/>
<path id="Vector_33" d="M5.12614 35.2284C5.57157 35.0634 6.06645 35.2892 6.23431 35.7335C6.40217 36.1778 6.18012 36.674 5.73709 36.8451C5.28954 37.018 4.78692 36.7933 4.61733 36.3445C4.44774 35.8957 4.67614 35.3946 5.12614 35.2284Z" fill="var(--fill-0, #BABABA)"/>
<path id="Vector_34" d="M5.02105 20.9056C5.17771 20.9003 5.33441 20.8986 5.49107 20.9007C6.33354 20.9177 6.64746 21.9469 5.89023 22.5227C5.48014 22.5461 5.1553 22.6048 4.82928 22.3046C4.30697 21.8236 4.62463 21.296 5.02105 20.9056Z" fill="var(--fill-0, #BABABA)"/>
<path id="Vector_35" d="M5.08411 37.0291C5.71116 37.0068 6.40256 37.1724 6.27902 38.0844C6.24351 38.3464 5.96276 38.5767 5.72438 38.696C5.33202 38.6625 4.98019 38.6675 4.71126 38.3403C4.27191 37.8057 4.68361 37.3575 5.08411 37.0291Z" fill="var(--fill-0, #BABABA)"/>
<path id="Vector_36" d="M5.06426 44.171L5.26936 44.1671C6.36002 44.1476 6.68805 45.1271 5.79262 45.8189C4.699 45.9544 4.04831 44.9844 5.06426 44.171Z" fill="var(--fill-0, #BABABA)"/>
<path id="Vector_37" d="M5.12084 31.5996C5.56616 31.4255 6.06801 31.6475 6.23876 32.094C6.40946 32.5406 6.18374 33.0408 5.73592 33.2082C5.29283 33.3739 4.79901 33.151 4.63009 32.7091C4.46112 32.2673 4.68026 31.7718 5.12084 31.5996Z" fill="var(--fill-0, #BABABA)"/>
<path id="Vector_38" d="M38.2606 62.9008C38.0131 62.5407 37.7929 62.2312 38.0176 61.797C38.1073 61.6214 38.269 61.4931 38.4602 61.4452C38.817 61.3532 39.0188 61.4101 39.3154 61.5879L39.4453 61.5377C39.5083 61.6409 39.6253 61.8209 39.6777 61.9213L39.5863 61.9915C39.7156 62.9532 39.1125 63.32 38.2606 62.9008Z" fill="var(--fill-0, #BABABA)"/>
<path id="Vector_39" d="M39.3154 61.5879L39.4453 61.5377C39.5083 61.6409 39.6253 61.8209 39.6777 61.9213L39.5863 61.9915C39.5623 61.9659 39.3477 61.6358 39.3154 61.5879Z" fill="var(--fill-0, #BABABA)"/>
<path id="Vector_40" d="M5.08724 56.7417C5.37847 56.6179 5.71396 56.6642 5.96087 56.8621C6.20778 57.06 6.3263 57.3772 6.26955 57.6883C6.21285 57.9994 5.98997 58.2542 5.68921 58.3523C5.25097 58.495 4.77828 58.267 4.61694 57.8349C4.45566 57.4034 4.66299 56.9212 5.08724 56.7417Z" fill="var(--fill-0, #BABABA)"/>
<path id="Vector_41" d="M5.12642 40.6254C5.56845 40.4632 6.05881 40.6867 6.22634 41.1266C6.3938 41.567 6.17616 42.0598 5.73803 42.2326C5.45004 42.3458 5.1233 42.2956 4.88246 42.1011C4.64169 41.9065 4.52411 41.5977 4.57457 41.2922C4.62507 40.9872 4.83586 40.7324 5.12642 40.6254Z" fill="var(--fill-0, #BABABA)"/>
<path id="Vector_42" d="M5.08383 26.2201C5.15252 26.215 5.22131 26.2105 5.29016 26.2067C6.36108 26.1494 6.6561 27.1159 5.82328 27.8523C5.37016 27.8539 5.00043 27.8758 4.69895 27.4707C4.33764 26.9853 4.69644 26.5198 5.08383 26.2201Z" fill="var(--fill-0, #BABABA)"/>
<path id="Vector_43" d="M5.20101 42.3815C5.39367 42.3748 5.56332 42.3687 5.74595 42.4417C5.97446 42.5342 6.15481 42.7171 6.24479 42.9468C6.44141 43.4429 6.12047 43.8806 5.65475 44.0523C5.19137 44.0344 4.79745 43.9424 4.59224 43.4753C4.51631 43.3063 4.51363 43.1129 4.58482 42.9418C4.70351 42.6507 4.93124 42.5064 5.20101 42.3815Z" fill="var(--fill-0, #BABABA)"/>
<path id="Vector_44" d="M5.06917 49.5714C5.62637 49.5468 6.30572 49.6042 6.31353 50.4288C6.31604 50.6936 6.06188 51.0019 5.85305 51.1658C4.57206 51.3012 4.06893 50.3044 5.06917 49.5714Z" fill="var(--fill-0, #BABABA)"/>
<path id="Vector_45" d="M58.2403 10.1662C59.4043 10.2635 59.5905 11.7482 58.5525 11.8369C57.1905 11.8661 57.1704 10.4405 58.2403 10.1662Z" fill="var(--fill-0, #BABABA)"/>
<path id="Vector_46" d="M58.1566 4.75798C58.2754 4.75129 58.4889 4.73457 58.5959 4.77917C58.8451 4.88197 59.0403 5.08439 59.1334 5.33738C59.3313 5.86715 59.0525 6.30717 58.519 6.44041C57.3522 6.43205 57.0099 5.33331 58.1566 4.75798Z" fill="var(--fill-0, #BABABA)"/>
<path id="Vector_47" d="M5.03912 58.5491C5.19093 58.5429 5.34289 58.5396 5.49486 58.5396C6.30539 58.5468 6.65309 59.5325 5.85455 60.1039C5.38142 60.1228 5.02474 60.1875 4.67659 59.78C4.29695 59.3351 4.63116 58.82 5.03912 58.5491Z" fill="var(--fill-0, #BABABA)"/>
<path id="Vector_48" d="M58.0769 2.97147C59.2616 2.86906 59.5347 4.25162 58.6004 4.59659C57.3015 4.63417 56.9012 3.66175 58.0769 2.97147Z" fill="var(--fill-0, #BABABA)"/>
<path id="Vector_49" d="M58.0535 6.59172C59.3129 6.53753 59.5922 7.8494 58.6578 8.26389C57.4341 8.28658 57.0316 7.35285 58.0535 6.59172Z" fill="var(--fill-0, #BABABA)"/>
<path id="Vector_50" d="M5.0913 54.9276C5.197 54.9237 5.58122 54.9053 5.66384 54.9366C6.51551 55.2582 6.49716 56.158 5.7411 56.5332C5.28798 56.5527 4.94864 56.5761 4.66617 56.1519C4.33363 55.6524 4.67626 55.1997 5.0913 54.9276Z" fill="var(--fill-0, #BABABA)"/>
<path id="Vector_51" d="M5.20966 2.91227C5.32717 2.90446 5.4458 2.90123 5.56282 2.9184C5.81653 2.95709 6.04293 3.09908 6.18832 3.31059C6.52041 3.78662 6.28348 4.28217 5.84318 4.57998C5.31781 4.60128 4.60601 4.59436 4.62926 3.76973C4.63896 3.42671 4.95065 3.12244 5.20966 2.91227Z" fill="var(--fill-0, #BABABA)"/>
<path id="Vector_52" d="M58.0942 31.5725C59.3502 31.511 59.5375 33.0125 58.6333 33.2394L58.5681 33.2404C57.404 33.2409 57.0277 32.2666 58.0942 31.5725Z" fill="var(--fill-0, #BABABA)"/>
<path id="Vector_53" d="M5.09759 45.9533C6.32255 45.8557 6.7468 46.9445 5.77349 47.5861C4.53565 47.6084 4.09268 46.7159 5.09759 45.9533Z" fill="var(--fill-0, #BABABA)"/>
<path id="Vector_54" d="M42.7835 0.023617C43.2289 -0.00598532 43.5695 -0.0654131 43.8784 0.328059C44.2597 0.814407 43.9798 1.26926 43.5528 1.57409C42.2767 1.82083 41.8703 0.582717 42.7835 0.023617Z" fill="var(--fill-0, #BABABA)"/>
<path id="Vector_55" d="M12.4533 0.0186619C12.5898 0.0120836 12.7265 0.0103552 12.8631 0.0135886C13.761 0.0390656 14.0279 1.00574 13.2612 1.60649C12.0227 1.75372 11.4925 0.716408 12.4533 0.0186619Z" fill="var(--fill-0, #BABABA)"/>
<path id="Vector_56" d="M58.01 38.8727C59.266 38.8058 59.6407 39.9631 58.6433 40.5134C58.2681 40.5357 57.9158 40.486 57.6504 40.1889C57.5055 40.0289 57.4386 39.8132 57.4676 39.5985C57.5161 39.2323 57.7335 39.0767 58.01 38.8727Z" fill="var(--fill-0, #BABABA)"/>
<path id="Vector_57" d="M58.0117 35.249C59.4054 35.1693 59.5414 36.6076 58.6612 36.8802C58.2525 36.9064 57.9576 36.8964 57.6661 36.5563C57.5267 36.3958 57.4609 36.1845 57.4843 35.9732C57.525 35.6058 57.7363 35.4559 58.0117 35.249Z" fill="var(--fill-0, #BABABA)"/>
<path id="Vector_58" d="M5.14588 60.2839C6.43634 60.2421 6.69473 61.2239 5.71322 61.9235C4.73216 62.2117 4.08476 60.9602 5.14588 60.2839Z" fill="var(--fill-0, #BABABA)"/>
<path id="Vector_59" d="M50.019 0.0241232C51.3102 -0.0806279 51.5828 1.0441 50.6189 1.61853C50.4578 1.62628 50.1105 1.65387 49.9689 1.58324C49.2224 1.21045 49.2598 0.337986 50.019 0.0241232Z" fill="var(--fill-0, #BABABA)"/>
<path id="Vector_60" d="M58.1115 24.4561C58.5625 24.3229 59.0358 24.5812 59.1674 25.0325C59.2995 25.4837 59.0402 25.9564 58.5887 26.0873C58.1388 26.2178 57.6677 25.9594 57.5362 25.5098C57.4046 25.0601 57.6622 24.5888 58.1115 24.4561Z" fill="var(--fill-0, #BABABA)"/>
<path id="Vector_61" d="M58.107 12.0002C59.4193 11.9476 59.5715 13.3977 58.5424 13.6629C57.4247 13.6741 57.059 12.4631 58.107 12.0002Z" fill="var(--fill-0, #BABABA)"/>
<path id="Vector_62" d="M57.9927 54.8686C59.2186 54.8195 59.6618 55.9869 58.6612 56.5193C57.476 56.5321 57.0249 55.6747 57.9927 54.8686Z" fill="var(--fill-0, #BABABA)"/>
<path id="Vector_63" d="M57.3093 1.12542C57.6627 1.19159 57.9649 1.36993 58.1065 1.71334C58.2007 1.94107 58.1929 2.19802 58.0853 2.41978C57.9493 2.69535 57.7285 2.85273 57.4447 2.94689C57.1119 2.87018 56.7596 2.75662 56.6029 2.43991C56.2512 1.72878 56.8198 1.37043 57.3093 1.12542Z" fill="var(--fill-0, #BABABA)"/>
<path id="Vector_64" d="M58.1221 28.0225C58.4181 27.9422 58.7342 28.0279 58.9488 28.2466C59.164 28.4652 59.2443 28.7829 59.159 29.0774C59.0731 29.3719 58.8357 29.5974 58.5374 29.6671C58.0864 29.7725 57.6348 29.4973 57.5217 29.0488C57.4085 28.6002 57.6755 28.1437 58.1221 28.0225Z" fill="var(--fill-0, #BABABA)"/>
<path id="Vector_65" d="M57.9799 13.84C58.1661 13.8295 58.5112 13.7934 58.6818 13.874C59.4121 14.2192 59.4628 15.128 58.6879 15.4476C58.2313 15.4639 57.9576 15.4459 57.651 15.0442C57.3109 14.5986 57.5696 14.1314 57.9799 13.84Z" fill="var(--fill-0, #BABABA)"/>
<path id="Vector_66" d="M58.1689 37.033C58.6723 37.0776 59.0503 37.2153 59.1807 37.765C59.2298 37.9723 59.1885 38.1909 59.067 38.3659C58.9098 38.5956 58.7671 38.6486 58.5101 38.706C57.3611 38.7283 57.0495 37.3814 58.1689 37.033Z" fill="var(--fill-0, #BABABA)"/>
<path id="Vector_67" d="M48.1593 0.0210011C48.6906 -0.00397419 49.3908 0.00583691 49.3891 0.831191C49.3885 1.13915 49.1271 1.42051 48.8862 1.60492C48.389 1.64255 48.0779 1.66368 47.7819 1.20365C47.4741 0.724656 47.7228 0.280287 48.1593 0.0210011Z" fill="var(--fill-0, #BABABA)"/>
<path id="Vector_68" d="M24.8856 61.4402C25.0856 61.4218 25.2095 61.4106 25.4036 61.4831C25.6436 61.5717 25.8368 61.7551 25.9379 61.9898C26.0258 62.19 26.0286 62.4169 25.9457 62.6187C25.8351 62.8885 25.6535 63.0039 25.4009 63.1132C24.0588 63.1611 24.0358 62.2524 24.8856 61.4402Z" fill="var(--fill-0, #BABABA)"/>
<path id="Vector_69" d="M53.6594 0.0208944C54.0591 -0.00965567 54.3724 -0.00620009 54.6222 0.355272C54.7566 0.547604 54.7995 0.789552 54.7382 1.01617C54.6523 1.34743 54.5135 1.47336 54.2336 1.63821C54.0915 1.64724 53.7063 1.6716 53.5914 1.6066C52.8126 1.16563 52.8868 0.368653 53.6594 0.0208944Z" fill="var(--fill-0, #BABABA)"/>
<path id="Vector_70" d="M46.3809 0.0206696C46.9373 -0.00776206 47.5857 0.0434709 47.5845 0.856449C47.584 1.16552 47.3431 1.4301 47.1012 1.61357C46.629 1.65571 46.2912 1.6667 46.0041 1.23225C45.6712 0.727782 45.9216 0.288819 46.3809 0.0206696Z" fill="var(--fill-0, #BABABA)"/>
<path id="Vector_71" d="M58.0318 58.5028C58.5385 58.5251 58.8702 58.5257 59.1384 59.0285C59.3876 59.4946 59.0469 59.9751 58.6099 60.1513L57.9515 60.0939C57.3081 59.4695 57.2346 59.0112 58.0318 58.5028Z" fill="var(--fill-0, #BABABA)"/>
<path id="Vector_72" d="M21.3727 0.019331C22.6941 -0.0824655 22.9997 1.07175 22.0783 1.59523C20.7477 1.82011 20.5152 0.479255 21.3727 0.019331Z" fill="var(--fill-0, #BABABA)"/>
<path id="Vector_73" d="M57.9281 53.0885L58.703 53.0813C59.251 53.5802 59.455 54.2587 58.7236 54.7035L58.0201 54.6952C57.709 54.4014 57.5969 54.223 57.4063 53.8584C57.5568 53.4654 57.6142 53.3695 57.9281 53.0885Z" fill="var(--fill-0, #BABABA)"/>
<path id="Vector_74" d="M57.9727 56.7417C58.2514 56.6057 58.5831 56.6335 58.8357 56.8142C59.0876 56.9953 59.2209 57.3003 59.1813 57.608C59.1423 57.9163 58.9371 58.1778 58.6478 58.2898C58.2252 58.4532 57.7491 58.2541 57.5679 57.8394C57.3873 57.4241 57.5657 56.9402 57.9727 56.7417Z" fill="var(--fill-0, #BABABA)"/>
<path id="Vector_75" d="M39.2674 0.0171556C40.5469 -0.0669687 40.8407 1.07972 39.9113 1.61161C39.7876 1.62115 39.3996 1.64478 39.3115 1.60375C38.4959 1.22394 38.5221 0.424453 39.2674 0.0171556Z" fill="var(--fill-0, #BABABA)"/>
<path id="Vector_76" d="M48.2083 61.4731C48.4971 61.3766 48.8149 61.4419 49.0412 61.6453C49.2676 61.8483 49.3674 62.1577 49.3027 62.4548C49.2375 62.7519 49.0178 62.9911 48.7274 63.0809C48.2853 63.218 47.8153 62.9738 47.6732 62.5334C47.531 62.093 47.7696 61.6203 48.2083 61.4731Z" fill="var(--fill-0, #BABABA)"/>
<path id="Vector_77" d="M44.6076 0.0146901C45.2046 -0.0184245 45.9104 0.0910095 45.7855 0.986439C45.7459 1.26998 45.4979 1.47736 45.2514 1.61701C44.0501 1.71702 43.6554 0.585553 44.6076 0.0146901Z" fill="var(--fill-0, #BABABA)"/>
<path id="Vector_78" d="M58.0909 33.4146C59.4004 33.3422 59.523 34.8238 58.6244 35.0333C57.8706 35.0522 57.7675 34.8721 57.3918 34.2579C57.5601 33.8279 57.6543 33.599 58.0909 33.4146Z" fill="var(--fill-0, #BABABA)"/>
<path id="Vector_79" d="M57.9782 26.2664C58.4727 26.2496 58.8306 26.2253 59.12 26.7244C59.2292 26.9085 59.2554 27.1302 59.193 27.3349C59.12 27.5662 58.9862 27.71 58.7799 27.8221C58.5385 27.8482 58.281 27.8595 58.0373 27.8747C57.2948 27.3152 57.3104 26.8649 57.9782 26.2664Z" fill="var(--fill-0, #BABABA)"/>
<path id="Vector_80" d="M28.7361 61.4262C29.1963 61.3772 29.6105 61.7072 29.6644 62.1671C29.7184 62.6265 29.392 63.0441 28.9329 63.1026C28.4674 63.1617 28.0431 62.83 27.9883 62.3639C27.9336 61.8979 28.2696 61.477 28.7361 61.4262Z" fill="var(--fill-0, #BABABA)"/>
<path id="Vector_81" d="M51.8788 0.0227178C53.18 -0.0612392 53.2915 1.25058 52.3911 1.6174C52.2523 1.62665 51.9084 1.65531 51.7907 1.59014C51.0772 1.19455 51.0197 0.2713 51.8788 0.0227178Z" fill="var(--fill-0, #BABABA)"/>
<path id="Vector_82" d="M18.8836 61.4491C19.9387 61.3309 20.4975 62.6025 19.2817 63.1327C18.9561 63.1405 18.8149 63.0435 18.5374 62.8807C18.1212 62.1264 18.107 61.8856 18.8836 61.4491Z" fill="var(--fill-0, #BABABA)"/>
<path id="Vector_83" d="M14.2908 0.0106454C14.881 0.00534927 15.5327 0.149236 15.4453 0.986464C15.4142 1.285 15.1823 1.4669 14.9283 1.61135C13.8372 1.6899 13.7773 1.35635 13.7971 0.385776C13.9976 0.183744 14.0429 0.162058 14.2908 0.0106454Z" fill="var(--fill-0, #BABABA)"/>
<path id="Vector_84" d="M58.112 19.1335C59.2733 19.0913 59.6111 20.3715 58.6651 20.7715C57.4297 20.8206 57.0149 19.7173 58.112 19.1335Z" fill="var(--fill-0, #BABABA)"/>
<path id="Vector_85" d="M58.1449 17.3644C59.4639 17.3122 59.5141 18.9074 58.6032 18.9781C57.3371 19.0186 57.1164 17.7219 58.1449 17.3644Z" fill="var(--fill-0, #BABABA)"/>
<path id="Vector_86" d="M32.0781 0.0168309C32.6657 -0.00675065 33.3169 0.0651648 33.2321 0.956637C33.2048 1.24402 32.964 1.46149 32.7204 1.61324C32.2699 1.65031 31.9148 1.66208 31.6611 1.23209C31.3668 0.731915 31.6294 0.273162 32.0781 0.0168309Z" fill="var(--fill-0, #BABABA)"/>
<path id="Vector_87" d="M57.9961 8.43031C59.2298 8.35945 59.6535 9.52994 58.7236 10.0453C57.5395 10.0802 57.016 9.25967 57.9961 8.43031Z" fill="var(--fill-0, #BABABA)"/>
<path id="Vector_88" d="M55.4902 0.0757557C55.5883 0.0872398 55.7098 0.101902 55.8041 0.12632C56.0633 0.193553 56.2857 0.361077 56.4218 0.592042C56.7378 1.13609 56.3978 1.53246 55.9328 1.79531C55.4423 1.82497 55.1429 1.74497 54.9489 1.24948C54.8452 0.986517 54.858 0.691719 54.9851 0.439124C55.1067 0.201301 55.2538 0.154528 55.4902 0.0757557Z" fill="var(--fill-0, #BABABA)"/>
<path id="Vector_89" d="M10.6951 0.022891C11.9751 -0.0674213 12.3468 0.999324 11.4144 1.59304C10.141 1.81041 9.80684 0.55473 10.6951 0.022891Z" fill="var(--fill-0, #BABABA)"/>
<path id="Vector_90" d="M40.9901 0.0197296C41.5609 -0.0259841 42.2728 0.0705724 42.2182 0.922797C42.2009 1.19368 41.9495 1.44901 41.7181 1.59362C40.48 1.76878 40.1126 0.635191 40.9901 0.0197296Z" fill="var(--fill-0, #BABABA)"/>
<path id="Vector_91" d="M58.461 29.8051C59.1088 29.8558 59.4511 30.7162 58.9806 31.19C58.7046 31.4678 58.5168 31.4219 58.16 31.4276C57.176 31.1672 57.2413 29.8321 58.461 29.8051Z" fill="var(--fill-0, #BABABA)"/>
<path id="Vector_92" d="M58.0267 15.6256C58.1104 15.6195 58.4755 15.5995 58.5419 15.6214C59.3402 15.8838 59.4924 16.7873 58.7515 17.2086C57.6092 17.3128 56.9887 16.3846 58.0267 15.6256Z" fill="var(--fill-0, #BABABA)"/>
<path id="Vector_93" d="M8.52154 0.463544C8.69949 0.108316 9.10211 -0.0734778 9.48627 0.0278727C9.87043 0.129279 10.1309 0.486068 10.1105 0.882829C10.09 1.27959 9.79417 1.60772 9.40165 1.66905C9.00907 1.73032 8.6273 1.50805 8.48681 1.13643C8.40392 0.917113 8.41651 0.673158 8.52154 0.463544Z" fill="var(--fill-0, #BABABA)"/>
<path id="Vector_94" d="M19.5681 0.019655C19.7102 0.0111255 20.082 -0.00894383 20.1996 0.0343169C20.9858 0.323707 20.9849 1.22415 20.2774 1.59354C19.0212 1.80789 18.7173 0.567159 19.5681 0.019655Z" fill="var(--fill-0, #BABABA)"/>
<path id="Vector_95" d="M12.9608 34.1371C14.2049 34.0434 14.4635 35.302 13.406 35.7703C13.0281 35.7608 12.7054 35.709 12.4741 35.3706C12.3559 35.1961 12.3182 34.9797 12.3706 34.7759C12.4612 34.4226 12.6666 34.31 12.9608 34.1371Z" fill="var(--fill-0, #BABABA)"/>
<path id="Vector_96" d="M57.9392 51.3068L58.7141 51.2973C59.2934 51.8537 59.4026 52.414 58.6902 52.9107C57.5975 52.9491 57.001 52.1146 57.9392 51.3068Z" fill="var(--fill-0, #BABABA)"/>
<path id="Vector_97" d="M57.9916 21.0084C58.2693 20.8772 58.5965 20.9083 58.8446 21.0893C59.0927 21.2703 59.222 21.5724 59.1813 21.8769C59.1412 22.1813 58.9377 22.4394 58.6511 22.5497C58.2302 22.7118 57.7564 22.5118 57.5785 22.0969C57.4013 21.682 57.5836 21.2011 57.9916 21.0084Z" fill="var(--fill-0, #BABABA)"/>
<path id="Vector_98" d="M58.0346 22.7113C59.232 22.6267 59.6462 23.8319 58.7164 24.3163L58.6026 24.317C57.4838 24.3338 57.0595 23.3776 58.0346 22.7113Z" fill="var(--fill-0, #BABABA)"/>
<path id="Vector_99" d="M30.2036 0.0246264C31.4766 -0.0863128 31.9215 0.975916 30.9654 1.58647C29.6571 1.81069 29.4282 0.522849 30.2036 0.0246264Z" fill="var(--fill-0, #BABABA)"/>
<path id="Vector_100" d="M35.6377 0.0230193C36.233 -0.0234749 36.9187 0.0552416 36.819 0.940916C36.7838 1.24909 36.5787 1.44438 36.3117 1.59964C35.0763 1.79782 34.7741 0.583513 35.6377 0.0230193Z" fill="var(--fill-0, #BABABA)"/>
<path id="Vector_101" d="M44.544 61.4441C44.9822 61.4301 45.3775 61.5946 45.5503 62.0272C45.6294 62.2246 45.6244 62.4459 45.5363 62.6393C45.4064 62.9292 45.2297 63.0229 44.9538 63.1383C43.875 63.2671 43.5757 62.1822 44.544 61.4441Z" fill="var(--fill-0, #BABABA)"/>
<path id="Vector_102" d="M13.0479 44.0584C13.5011 43.987 13.9272 44.2942 14.0031 44.7463C14.0789 45.199 13.776 45.6283 13.3243 45.7085C12.8664 45.7894 12.4302 45.4817 12.3534 45.0228C12.2765 44.5646 12.5886 44.1309 13.0479 44.0584Z" fill="var(--fill-0, #BABABA)"/>
<path id="Vector_103" d="M23.1519 0.0164855C23.2717 0.00862495 23.6738 -0.00904806 23.7707 0.0303103C24.5606 0.351142 24.5529 1.20883 23.845 1.60152C23.421 1.63698 23.0898 1.66837 22.8276 1.26898C22.5005 0.770761 22.7173 0.316467 23.1519 0.0164855Z" fill="var(--fill-0, #BABABA)"/>
<path id="Vector_104" d="M33.8637 0.0205627C35.1721 -0.0803418 35.4264 1.07298 34.5394 1.59166C33.26 1.80858 32.984 0.518786 33.8637 0.0205627Z" fill="var(--fill-0, #BABABA)"/>
<path id="Vector_105" d="M37.4344 0.0172556C38.7791 -0.0748407 38.9653 1.12849 38.1084 1.58964C36.7972 1.79719 36.5614 0.452539 37.4344 0.0172556Z" fill="var(--fill-0, #BABABA)"/>
<path id="Vector_106" d="M17.8431 0.0154113C18.3093 -0.0096197 18.7137 -0.0188181 18.929 0.470541C19.1476 0.96737 18.8834 1.39953 18.434 1.6126C17.2114 1.7304 16.9302 0.522331 17.8431 0.0154113Z" fill="var(--fill-0, #BABABA)"/>
<path id="Vector_107" d="M26.7204 0.0212117C28.0366 -0.0869401 28.2646 1.07614 27.432 1.584C26.0853 1.7944 25.8573 0.492174 26.7204 0.0212117Z" fill="var(--fill-0, #BABABA)"/>
<path id="Vector_108" d="M16.0801 0.0159235C16.686 3.52087e-05 17.3137 0.145316 17.1901 1.00863C17.1516 1.27857 16.9513 1.46349 16.7132 1.5965C15.4371 1.76949 15.1201 0.53338 16.0801 0.0159235Z" fill="var(--fill-0, #BABABA)"/>
<path id="Vector_109" d="M12.9476 29.2481C13.2401 29.1543 13.5605 29.229 13.7814 29.4424C14.0023 29.6559 14.0879 29.9735 14.0042 30.269C13.9205 30.5646 13.6811 30.7901 13.381 30.8561C12.9462 30.9516 12.5131 30.6887 12.3972 30.2589C12.2814 29.829 12.5237 29.3841 12.9476 29.2481Z" fill="var(--fill-0, #BABABA)"/>
<path id="Vector_110" d="M9.13952 61.4402C9.57821 61.4485 9.95223 61.647 10.1004 62.0785C10.1706 62.2803 10.1553 62.5016 10.0578 62.6917C9.90724 62.9822 9.74679 63.034 9.45188 63.1288C9.03199 63.0903 8.72766 62.99 8.53873 62.5691C8.45131 62.3728 8.44786 62.1493 8.52914 61.9497C8.64359 61.6682 8.8818 61.5584 9.13952 61.4402Z" fill="var(--fill-0, #BABABA)"/>
<path id="Vector_111" d="M24.9471 0.0172587C25.5278 -0.00448312 26.1702 0.0986514 26.1113 0.926291C26.0893 1.23519 25.8679 1.44274 25.6104 1.60168C24.3721 1.7798 24.0509 0.534046 24.9471 0.0172587Z" fill="var(--fill-0, #BABABA)"/>
<path id="Vector_112" d="M28.4451 0.0191752C28.9903 -0.00830873 29.6855 0.0303807 29.6747 0.863818C29.6711 1.14379 29.4352 1.39677 29.2177 1.56708C27.9348 1.88669 27.6605 0.52314 28.4451 0.0191752Z" fill="var(--fill-0, #BABABA)"/>
<path id="Vector_113" d="M10.7108 34.133C11.1501 34.012 11.6048 34.2675 11.7299 34.7056C11.8551 35.1437 11.6039 35.6008 11.167 35.7302C10.7242 35.8612 10.2595 35.6058 10.1327 35.1621C10.0059 34.7178 10.2656 34.2556 10.7108 34.133Z" fill="var(--fill-0, #BABABA)"/>
<path id="Vector_114" d="M10.6292 44.1142C11.0558 43.9419 11.5413 44.1487 11.7119 44.5763C11.8826 45.0033 11.6733 45.4884 11.2453 45.6567C10.8199 45.8245 10.3388 45.6171 10.1691 45.1923C9.99956 44.7675 10.2052 44.2859 10.6292 44.1142Z" fill="var(--fill-0, #BABABA)"/>
<path id="Vector_115" d="M12.9012 24.2804C13.1837 24.1754 13.5009 24.2318 13.7299 24.4277C13.9589 24.6237 14.0636 24.9284 14.0035 25.2237C13.9434 25.519 13.7278 25.7586 13.4404 25.8494C13.0112 25.9851 12.552 25.7537 12.4057 25.3279C12.2594 24.9021 12.4792 24.4373 12.9012 24.2804Z" fill="var(--fill-0, #BABABA)"/>
<path id="Vector_116" d="M13.5844 60.6675C13.9955 60.6413 14.3986 60.7751 14.5967 61.162C14.6947 61.3543 14.7047 61.579 14.6238 61.7791C14.5151 62.0512 14.3064 62.1866 14.0569 62.3065C13.3551 62.2396 13.1317 62.0634 12.9041 61.4134C13.1325 61.041 13.2193 60.9033 13.5844 60.6675Z" fill="var(--fill-0, #BABABA)"/>
<path id="Vector_117" d="M12.8243 39.1509C13.2573 39.1219 13.6066 39.0935 13.8946 39.4926C14.2397 39.9715 13.8993 40.4152 13.5138 40.6957C12.4368 40.8256 11.8323 39.7992 12.8243 39.1509Z" fill="var(--fill-0, #BABABA)"/>
<path id="Vector_118" d="M10.6506 24.278C10.9302 24.1671 11.2479 24.2173 11.4797 24.4089C11.7115 24.6005 11.8205 24.9031 11.7643 25.1985C11.708 25.4939 11.4953 25.7352 11.2094 25.8282C10.786 25.9658 10.3299 25.7425 10.179 25.3237C10.0281 24.905 10.2369 24.4421 10.6506 24.278Z" fill="var(--fill-0, #BABABA)"/>
<path id="Vector_119" d="M33.2065 60.6636C33.6179 60.6497 34.0249 60.7712 34.2021 61.177C34.2869 61.3683 34.2846 61.5874 34.1966 61.7775C34.0767 62.0423 33.895 62.1928 33.6346 62.3015C33.5543 62.292 33.4746 62.2803 33.3955 62.2664C32.3814 62.0796 32.2911 61.1921 33.2065 60.6636Z" fill="var(--fill-0, #BABABA)"/>
<path id="Vector_120" d="M41.271 59.8948C41.7354 59.867 42.105 59.838 42.3849 60.294C42.6653 60.7506 42.3615 61.1776 41.974 61.4173C41.5029 61.4569 41.1997 61.4229 40.9181 60.9908C40.8027 60.8175 40.7676 60.6023 40.8223 60.4005C40.8942 60.129 41.0441 60.0314 41.271 59.8948Z" fill="var(--fill-0, #BABABA)"/>
<path id="Vector_121" d="M48.2468 48.8751C48.5233 48.7753 48.8316 48.8316 49.0546 49.0228C49.2776 49.2146 49.3802 49.5106 49.3233 49.7988C49.2665 50.087 49.0585 50.3223 48.7798 50.4148C48.3566 50.5542 47.9001 50.3284 47.754 49.9075C47.6085 49.4866 47.8281 49.0267 48.2468 48.8751Z" fill="var(--fill-0, #BABABA)"/>
<path id="Vector_122" d="M15.9653 34.1554C16.244 34.0651 16.5497 34.1316 16.7657 34.3294C16.9817 34.5273 17.0748 34.826 17.0093 35.1113C16.9438 35.3968 16.7299 35.6253 16.4492 35.709C16.0221 35.8366 15.5717 35.5969 15.4391 35.1715C15.3066 34.7459 15.5412 34.2928 15.9653 34.1554Z" fill="var(--fill-0, #BABABA)"/>
<path id="Vector_123" d="M46.4757 50.9177C46.7595 50.8363 47.0661 50.9149 47.2751 51.1239C47.4847 51.3324 47.5645 51.6385 47.4831 51.9228C47.4022 52.2071 47.1731 52.4251 46.8854 52.4926C46.4556 52.5929 46.0241 52.332 45.9132 51.905C45.8017 51.4779 46.0515 51.0398 46.4757 50.9177Z" fill="var(--fill-0, #BABABA)"/>
<path id="Vector_124" d="M21.2834 60.9072C21.2619 60.5833 21.2145 60.3737 21.4384 60.1184C21.5793 59.9612 21.7784 59.8675 21.9897 59.8603C22.2354 59.8513 22.4737 59.945 22.6475 60.1189C22.8397 60.3129 22.9101 60.5209 22.8972 60.7879C22.8946 60.8375 22.8909 60.8866 22.886 60.9356L22.649 61.3114C22.1905 61.5494 21.9179 61.4697 21.4878 61.2294C21.4538 61.1257 21.3513 61.0025 21.2834 60.9072Z" fill="var(--fill-0, #BABABA)"/>
<path id="Vector_125" d="M10.6194 39.1537C11.0994 39.1291 11.4428 39.1264 11.6867 39.6036C11.9271 40.0741 11.5825 40.4621 11.2016 40.6745C10.1549 40.8824 9.61919 39.7541 10.6194 39.1537Z" fill="var(--fill-0, #BABABA)"/>
<path id="Vector_126" d="M10.7856 29.2318C11.2252 29.1441 11.6525 29.4297 11.7397 29.8694C11.8268 30.3091 11.5406 30.7361 11.1008 30.8226C10.6618 30.9089 10.2359 30.6234 10.1489 30.1846C10.062 29.7457 10.3469 29.3194 10.7856 29.2318Z" fill="var(--fill-0, #BABABA)"/>
<path id="Vector_127" d="M53.4922 62.0724C52.5222 62.6672 51.5538 61.5054 52.4441 60.8648C52.6599 60.7087 52.9297 60.6463 53.1923 60.6931C53.6505 60.7706 53.8646 61.191 53.7587 61.6264C53.6343 61.7942 53.5897 61.885 53.4922 62.0724Z" fill="var(--fill-0, #BABABA)"/>
<path id="Vector_128" d="M43.0171 42.3469C43.2914 42.2533 43.5952 42.314 43.8132 42.5058C44.0311 42.6976 44.1298 42.9908 44.0718 43.2751C44.0139 43.5606 43.8076 43.7925 43.5311 43.8834C43.1079 44.0227 42.6514 43.7936 42.5098 43.371C42.3687 42.9485 42.5951 42.4908 43.0171 42.3469Z" fill="var(--fill-0, #BABABA)"/>
<path id="Vector_129" d="M49.8992 45.9555C50.0096 45.9494 50.12 45.946 50.2303 45.9449C51.1608 45.9427 51.3414 46.9701 50.5409 47.5638C50.1885 47.58 49.9053 47.5187 49.6545 47.245C49.5123 47.0905 49.4387 46.8854 49.4504 46.6763C49.4694 46.3457 49.6656 46.1573 49.8992 45.9555Z" fill="var(--fill-0, #BABABA)"/>
<path id="Vector_130" d="M46.4846 37.6546C46.7717 37.5972 47.0672 37.6992 47.2578 37.9216C47.4485 38.1441 47.5037 38.4518 47.4033 38.7272C47.3024 39.002 47.061 39.201 46.7717 39.2473C46.3363 39.3176 45.9249 39.026 45.8463 38.5923C45.7682 38.158 46.052 37.741 46.4846 37.6546Z" fill="var(--fill-0, #BABABA)"/>
<path id="Vector_131" d="M21.3853 61.3342C21.4498 61.6119 21.3719 62.0216 21.1149 62.1365C20.1236 62.5791 19.0505 61.1168 20.4117 60.6831C20.6368 60.6117 20.8826 60.7238 21.0774 60.8537L21.2834 60.9072C21.3513 61.0025 21.4538 61.1257 21.4878 61.2294L21.3853 61.3342Z" fill="var(--fill-0, #BABABA)"/>
<path id="Vector_132" d="M21.2834 60.9072C21.3513 61.0025 21.4538 61.1257 21.4878 61.2294L21.3853 61.3342C21.2989 61.2188 21.1603 60.9836 21.0774 60.8537L21.2834 60.9072Z" fill="var(--fill-0, #BABABA)"/>
<path id="Vector_133" d="M58.2692 49.5859C58.7113 49.6087 59.0313 49.7247 59.1517 50.198C59.2042 50.4031 59.1685 50.6211 59.0542 50.7989C58.8936 51.0498 58.7169 51.1039 58.4443 51.1686C57.287 51.0437 57.2284 49.7442 58.2692 49.5859Z" fill="var(--fill-0, #BABABA)"/>
<path id="Vector_134" d="M37.0743 39.4842C37.8955 39.4597 38.0666 39.4653 38.2076 40.3311C38.0248 40.7297 37.9746 40.8389 37.6145 41.0814C36.6383 41.014 36.1015 40.0835 37.0743 39.4842Z" fill="var(--fill-0, #BABABA)"/>
<path id="Vector_135" d="M44.7112 48.8232C44.9749 48.6933 45.2882 48.7173 45.5291 48.8862C45.7693 49.0546 45.8987 49.3411 45.8658 49.6332C45.8335 49.9253 45.6439 50.1762 45.3724 50.2877C45.1327 50.3858 44.8607 50.363 44.641 50.2258C44.4219 50.0892 44.2814 49.8545 44.2647 49.5964C44.2435 49.272 44.4197 48.9665 44.7112 48.8232Z" fill="var(--fill-0, #BABABA)"/>
<path id="Vector_136" d="M44.8969 39.6504C45.3407 39.6147 45.6434 39.6955 45.819 40.1443C45.911 40.3773 45.902 40.6382 45.7939 40.8646C45.6545 41.1634 45.5202 41.2124 45.2241 41.3134C44.2876 41.2169 43.9347 40.1259 44.8969 39.6504Z" fill="var(--fill-0, #BABABA)"/>
<path id="Vector_137" d="M51.1307 59.8959C51.2176 59.8859 51.304 59.877 51.391 59.8703C52.4625 59.7956 52.4491 60.7611 51.7835 61.4457C50.7577 61.4424 50.1462 60.5303 51.1307 59.8959Z" fill="var(--fill-0, #BABABA)"/>
<path id="Vector_138" d="M15.924 39.1665C16.192 39.0578 16.4979 39.1013 16.7244 39.2813C16.9509 39.4614 17.063 39.7491 17.0177 40.035C16.9723 40.3205 16.7765 40.5596 16.5054 40.6605C16.0949 40.8133 15.6377 40.6081 15.4788 40.2001C15.3199 39.7914 15.5182 39.3315 15.924 39.1665Z" fill="var(--fill-0, #BABABA)"/>
<path id="Vector_139" d="M46.5437 49.1956C46.9551 49.0797 47.3855 49.3071 47.521 49.713C47.6564 50.1188 47.4496 50.5592 47.051 50.7136C46.7756 50.8207 46.464 50.7677 46.2399 50.5754C46.0152 50.3831 45.9149 50.0831 45.9784 49.7944C46.042 49.5061 46.2594 49.2759 46.5437 49.1956Z" fill="var(--fill-0, #BABABA)"/>
<path id="Vector_140" d="M52.8511 52.0237C53.1315 51.9485 53.4303 52.0304 53.6332 52.2384C53.8356 52.4463 53.9103 52.7473 53.8278 53.0255C53.7453 53.3037 53.5195 53.5156 53.2363 53.5797C52.8104 53.6761 52.3861 53.4141 52.2813 52.9904C52.176 52.5667 52.4296 52.1369 52.8511 52.0237Z" fill="var(--fill-0, #BABABA)"/>
<path id="Vector_141" d="M19.6542 39.1498C20.7867 39.0834 21.1748 40.1571 20.0829 40.6856C19.7146 40.7012 19.363 40.5819 19.1633 40.2513C19.0577 40.0757 19.0325 39.8633 19.094 39.6677C19.1872 39.3794 19.4033 39.2763 19.6542 39.1498Z" fill="var(--fill-0, #BABABA)"/>
<path id="Vector_142" d="M16.1434 44.0996C16.5851 44.0417 16.9892 44.3555 17.0426 44.7976C17.0961 45.2397 16.7784 45.6405 16.3356 45.6901C15.899 45.7381 15.5048 45.4259 15.4521 44.9899C15.3994 44.554 15.7078 44.1565 16.1434 44.0996Z" fill="var(--fill-0, #BABABA)"/>
<path id="Vector_143" d="M19.5209 44.1671C20.2003 44.0857 20.3227 44.1337 20.7121 44.6739C20.6497 45.2235 20.6558 45.3451 20.1682 45.6272C19.7342 45.6874 19.4078 45.6573 19.1473 45.252C19.0458 45.0931 19.0123 44.9002 19.0544 44.7168C19.1216 44.4275 19.2854 44.3154 19.5209 44.1671Z" fill="var(--fill-0, #BABABA)"/>
<path id="Vector_144" d="M17.8835 39.1475C19.0119 39.0896 19.3394 40.2263 18.2372 40.6901C17.2039 40.6678 16.8108 39.5969 17.8835 39.1475Z" fill="var(--fill-0, #BABABA)"/>
<path id="Vector_145" d="M21.4403 39.1497C21.8834 39.1219 22.3081 39.1966 22.4819 39.6693C22.5476 39.8433 22.539 40.0361 22.4584 40.2034C22.3287 40.4793 22.1529 40.5619 21.8843 40.6639C20.9225 40.7787 20.4019 39.7496 21.4403 39.1497Z" fill="var(--fill-0, #BABABA)"/>
<path id="Vector_146" d="M21.2892 44.1727C21.3801 44.1638 21.7278 44.127 21.7893 44.1437C22.6157 44.3706 22.7515 45.1366 22.0518 45.5948C20.9339 45.8814 20.3603 44.7341 21.2892 44.1727Z" fill="var(--fill-0, #BABABA)"/>
<path id="Vector_147" d="M49.8184 47.7539C50.2376 47.6335 50.6758 47.8716 50.8034 48.2886C50.9305 48.7061 50.6997 49.1482 50.2844 49.282C50.0101 49.3712 49.7091 49.3049 49.4967 49.1086C49.2848 48.913 49.1951 48.618 49.2614 48.3376C49.3283 48.0567 49.5407 47.8337 49.8184 47.7539Z" fill="var(--fill-0, #BABABA)"/>
<path id="Vector_148" d="M12.0192 59.892C12.3704 59.8681 12.6545 59.8597 12.9145 60.1435C13.0374 60.2784 13.1012 60.4573 13.0915 60.6396C13.0694 61.0109 12.8477 61.2261 12.5805 61.4446C12.1721 61.4625 11.848 61.4179 11.6 61.0427C11.4851 60.8665 11.4494 60.6496 11.5016 60.4456C11.5744 60.1518 11.7773 60.0425 12.0192 59.892Z" fill="var(--fill-0, #BABABA)"/>
<path id="Vector_149" d="M31.5714 59.892C32.3491 59.838 32.4544 59.8748 32.7934 60.5699C32.6211 60.968 32.5626 61.1224 32.2153 61.3761C31.2938 61.608 30.5724 60.4958 31.5714 59.892Z" fill="var(--fill-0, #BABABA)"/>
<path id="Vector_150" d="M5.96834 1.27963C6.87949 1.34736 7.44611 2.37737 6.35439 2.85251C5.24182 2.90079 4.8221 1.84848 5.96834 1.27963Z" fill="var(--fill-0, #BABABA)"/>
<path id="Vector_151" d="M21.635 34.138C22.6893 34.2704 22.8217 35.2948 21.8195 35.7218C21.4048 35.6945 21.0112 35.549 20.8791 35.1102C20.8255 34.9341 20.8446 34.744 20.932 34.5823C21.0933 34.2897 21.3337 34.2145 21.635 34.138Z" fill="var(--fill-0, #BABABA)"/>
<path id="Vector_152" d="M23.2116 39.1559C23.4849 39.06 23.7885 39.1202 24.0048 39.3126C24.221 39.5049 24.3159 39.7998 24.2526 40.0824C24.1893 40.3645 23.9778 40.5909 23.7 40.6723C23.2853 40.7949 22.8488 40.5635 22.7163 40.1521C22.5837 39.7407 22.8035 39.2986 23.2116 39.1559Z" fill="var(--fill-0, #BABABA)"/>
<path id="Vector_153" d="M46.4946 45.8016C46.9122 45.6913 47.3415 45.9343 47.4624 46.3491C47.5829 46.7639 47.3509 47.1992 46.9395 47.3303C46.6641 47.4183 46.3625 47.3498 46.1518 47.1513C45.9411 46.9528 45.8547 46.6557 45.926 46.3753C45.9974 46.0954 46.2148 45.8752 46.4946 45.8016Z" fill="var(--fill-0, #BABABA)"/>
<path id="Vector_154" d="M35.0852 9.21423C35.2491 9.19907 35.5741 9.15754 35.714 9.20459C36.4778 9.46181 36.4817 10.2487 35.8495 10.6435C35.4013 10.6825 35.0724 10.7081 34.7775 10.3144C34.4446 9.87078 34.7067 9.46839 35.0852 9.21423Z" fill="var(--fill-0, #BABABA)"/>
<path id="Vector_155" d="M23.1012 44.1682C23.5528 44.1342 23.8825 44.0896 24.1721 44.5139C24.4727 44.9537 24.1773 45.3668 23.8011 45.6093C23.3818 45.694 23.0404 45.6673 22.7708 45.281C22.6494 45.1065 22.6087 44.8885 22.6592 44.6817C22.7266 44.4057 22.8747 44.3176 23.1012 44.1682Z" fill="var(--fill-0, #BABABA)"/>
<path id="Vector_156" d="M48.8896 44.8311C49.1249 44.8222 49.5335 44.9554 49.6717 45.1366C50.0737 45.6645 49.5619 46.1713 49.2196 46.4439C48.0612 46.4595 47.8371 45.2843 48.8896 44.8311Z" fill="var(--fill-0, #BABABA)"/>
<path id="Vector_157" d="M30.2093 60.6558C30.6053 60.6792 30.9186 60.7935 31.1081 61.1731C31.2051 61.3688 31.2168 61.5952 31.1404 61.7998C31.0329 62.0869 30.8193 62.1738 30.559 62.292C29.6102 62.2195 29.1479 61.2339 30.2093 60.6558Z" fill="var(--fill-0, #BABABA)"/>
<path id="Vector_158" d="M17.7316 44.1682C18.2165 44.1521 18.5637 44.1192 18.8299 44.6187C19.0744 45.078 18.7103 45.4482 18.3397 45.6394C17.3087 45.7766 16.7939 44.7302 17.7316 44.1682Z" fill="var(--fill-0, #BABABA)"/>
<path id="Vector_159" d="M43.0343 48.2033C43.4407 48.0583 43.8884 48.2652 44.0417 48.6688C44.195 49.0718 43.9977 49.524 43.5974 49.6856C43.3309 49.7932 43.0271 49.7481 42.8035 49.568C42.5794 49.3885 42.4707 49.1014 42.5187 48.8182C42.5666 48.535 42.7634 48.2997 43.0343 48.2033Z" fill="var(--fill-0, #BABABA)"/>
<path id="Vector_160" d="M43.0081 60.7054C43.4296 60.5833 43.8695 60.8269 43.9904 61.2484C44.1114 61.6699 43.8667 62.1091 43.4452 62.229C43.0249 62.3483 42.5867 62.1052 42.4663 61.6849C42.3459 61.2651 42.5884 60.8269 43.0081 60.7054Z" fill="var(--fill-0, #BABABA)"/>
<path id="Vector_161" d="M19.5729 34.1917C19.8453 34.0877 20.1528 34.1416 20.3735 34.3321C20.5942 34.5226 20.6925 34.8189 20.6293 35.1035C20.5662 35.3884 20.3518 35.6153 20.0712 35.6945C19.6634 35.8099 19.237 35.5835 19.1036 35.1816C18.9702 34.7791 19.177 34.343 19.5729 34.1917Z" fill="var(--fill-0, #BABABA)"/>
<path id="Vector_162" d="M23.1531 34.1889C24.3222 34.1072 24.6661 34.9454 23.7382 35.6878C22.625 35.7274 22.1838 34.7611 23.1531 34.1889Z" fill="var(--fill-0, #BABABA)"/>
<path id="Vector_163" d="M46.6162 47.4618C47.0443 47.4111 47.4346 47.7132 47.4925 48.1408C47.5505 48.5684 47.2556 48.9637 46.8291 49.0295C46.5465 49.0735 46.2622 48.9609 46.0855 48.7357C45.9093 48.5104 45.868 48.2077 45.9779 47.9435C46.0877 47.6792 46.3319 47.4953 46.6162 47.4618Z" fill="var(--fill-0, #BABABA)"/>
<path id="Vector_164" d="M23.0514 60.9395C23.3165 60.6686 23.7386 60.6296 24.0493 60.8465C24.36 61.0633 24.4682 61.4736 24.3051 61.8154C24.142 62.1577 23.7555 62.3316 23.3912 62.2273C23.0269 62.1225 22.7917 61.7696 22.8351 61.3933L22.649 61.3114L22.886 60.9356L23.0514 60.9395Z" fill="var(--fill-0, #BABABA)"/>
<path id="Vector_165" d="M22.886 60.9357L23.0514 60.9396C22.9309 61.0628 22.8548 61.2222 22.8351 61.3933L22.649 61.3114L22.886 60.9357Z" fill="var(--fill-0, #BABABA)"/>
<path id="Vector_166" d="M54.1651 50.7404C54.7956 50.7209 54.8419 50.8641 55.1825 51.3458C55.0632 51.8632 55.0058 52.0828 54.5609 52.3666C53.5017 52.3866 53.2029 51.4161 54.1651 50.7404Z" fill="var(--fill-0, #BABABA)"/>
<path id="Vector_167" d="M33.3364 9.21177C34.4954 9.05528 34.9826 9.91096 34.1107 10.6444C33.595 10.6758 33.2957 10.686 32.9835 10.2015C32.717 9.78792 32.9918 9.42322 33.3364 9.21177Z" fill="var(--fill-0, #BABABA)"/>
<path id="Vector_168" d="M18.0246 34.1398C18.3088 34.1296 18.5765 34.2729 18.7255 34.5151C18.8745 34.7572 18.8818 35.0606 18.7446 35.3098C18.6074 35.559 18.3468 35.7145 18.0625 35.7184C17.6303 35.7235 17.2743 35.38 17.2639 34.9477C17.2535 34.5156 17.5926 34.1554 18.0246 34.1398Z" fill="var(--fill-0, #BABABA)"/>
<path id="Vector_169" d="M24.8746 44.1682C25.3141 44.1387 25.6815 44.1314 25.9319 44.554C26.2233 45.0452 25.8959 45.4281 25.4798 45.6456C25.0718 45.6868 24.7761 45.6333 24.5274 45.267C24.4172 45.1054 24.3761 44.9069 24.413 44.7146C24.4732 44.4135 24.6348 44.3232 24.8746 44.1682Z" fill="var(--fill-0, #BABABA)"/>
<path id="Vector_170" d="M49.9042 60.6575C50.4784 60.7283 50.9355 61.2272 50.7516 61.8259C50.6635 62.1114 50.411 62.2056 50.1618 62.3221C49.2447 62.151 48.7017 61.1648 49.9042 60.6575Z" fill="var(--fill-0, #BABABA)"/>
<path id="Vector_171" d="M32.0486 39.1726C32.4589 39.0355 32.9032 39.2551 33.0431 39.6643C33.1831 40.0741 32.9662 40.5195 32.5581 40.6628C32.1456 40.8071 31.694 40.5875 31.553 40.1738C31.4114 39.7602 31.6338 39.3109 32.0486 39.1726Z" fill="var(--fill-0, #BABABA)"/>
<path id="Vector_172" d="M10.7747 60.6675C11.5666 60.7422 12.0914 61.9893 10.865 62.3204C9.91721 62.0417 9.59292 60.997 10.7747 60.6675Z" fill="var(--fill-0, #BABABA)"/>
<path id="Vector_173" d="M28.482 39.1598C28.8867 39.0182 29.3303 39.2267 29.4795 39.6287C29.6287 40.0306 29.4286 40.4783 29.0294 40.6349C28.7646 40.7386 28.4641 40.6918 28.2439 40.5117C28.0236 40.3316 27.9178 40.0462 27.9672 39.7664C28.0166 39.4859 28.2134 39.254 28.482 39.1598Z" fill="var(--fill-0, #BABABA)"/>
<path id="Vector_174" d="M26.6967 34.1896C26.9712 34.0873 27.2797 34.146 27.4974 34.3419C27.7151 34.5379 27.8059 34.8386 27.7329 35.1225C27.6598 35.4057 27.4352 35.6254 27.15 35.6923C26.7461 35.7859 26.3385 35.5507 26.2187 35.1532C26.0989 34.7563 26.3082 34.3345 26.6967 34.1896Z" fill="var(--fill-0, #BABABA)"/>
<path id="Vector_175" d="M33.8866 39.1548C34.3047 39.0466 34.7323 39.2964 34.8427 39.7145C34.9536 40.132 34.7067 40.5607 34.2897 40.6745C33.8688 40.7888 33.435 40.539 33.3235 40.1175C33.2115 39.6961 33.464 39.264 33.8866 39.1548Z" fill="var(--fill-0, #BABABA)"/>
<path id="Vector_176" d="M40.6372 9.16137C41.7783 9.23346 41.8653 10.2959 40.9722 10.6586C39.7641 10.7106 39.5529 9.39267 40.6372 9.16137Z" fill="var(--fill-0, #BABABA)"/>
<path id="Vector_177" d="M28.4804 34.1945C28.7473 34.0979 29.0457 34.1528 29.2608 34.3382C29.4758 34.5237 29.5741 34.8107 29.5179 35.0891C29.4616 35.3672 29.2595 35.5936 28.9893 35.6811C28.5815 35.8127 28.1432 35.5936 28.0044 35.1877C27.8655 34.7823 28.0773 34.3404 28.4804 34.1945Z" fill="var(--fill-0, #BABABA)"/>
<path id="Vector_178" d="M37.047 9.15375C38.2238 9.24406 38.3465 10.2631 37.4657 10.6661C36.9962 10.6876 36.6556 10.6334 36.4555 10.1393C36.3813 9.95709 36.3886 9.75188 36.4761 9.5756C36.5993 9.32317 36.8 9.24535 37.047 9.15375Z" fill="var(--fill-0, #BABABA)"/>
<path id="Vector_179" d="M26.6005 44.1665C27.045 44.1476 27.4056 44.1164 27.6751 44.5428C27.9773 45.0217 27.6557 45.4198 27.2427 45.6416C26.2344 45.7704 25.7638 44.7926 26.6005 44.1665Z" fill="var(--fill-0, #BABABA)"/>
<path id="Vector_180" d="M24.9703 39.1665C25.2369 39.0695 25.5349 39.1241 25.7499 39.3092C25.9648 39.4943 26.0633 39.7808 26.0075 40.059C25.9516 40.3366 25.7501 40.563 25.4804 40.6511C25.073 40.7832 24.6346 40.5646 24.4954 40.1594C24.3561 39.7541 24.5675 39.312 24.9703 39.1665Z" fill="var(--fill-0, #BABABA)"/>
<path id="Vector_181" d="M26.6828 39.1782C26.9502 39.0712 27.2546 39.1197 27.4761 39.3036C27.6975 39.4876 27.8005 39.7781 27.7443 40.0601C27.6881 40.3428 27.4818 40.5719 27.2067 40.6572C26.8043 40.7815 26.3752 40.5663 26.2345 40.1694C26.0938 39.7725 26.2917 39.3348 26.6828 39.1782Z" fill="var(--fill-0, #BABABA)"/>
<path id="Vector_182" d="M44.2541 43.5232C44.5223 43.4351 44.8177 43.4981 45.0262 43.6882C45.2353 43.8778 45.3262 44.1654 45.2637 44.4414C45.2013 44.7168 44.9961 44.9375 44.7258 45.0189C44.3143 45.1433 43.8801 44.9136 43.7507 44.5038C43.6219 44.0941 43.846 43.657 44.2541 43.5232Z" fill="var(--fill-0, #BABABA)"/>
<path id="Vector_183" d="M30.2916 39.1531C30.6995 39.031 31.1298 39.2562 31.262 39.661C31.3935 40.0657 31.1783 40.5016 30.777 40.6432C30.5088 40.7375 30.2104 40.6795 29.9975 40.491C29.7845 40.3026 29.6904 40.0133 29.7514 39.7357C29.8125 39.458 30.0192 39.235 30.2916 39.1531Z" fill="var(--fill-0, #BABABA)"/>
<path id="Vector_184" d="M28.3988 44.1682C29.581 44.0857 29.9635 45.0485 29.0364 45.6333C27.9754 45.786 27.5176 44.7954 28.3988 44.1682Z" fill="var(--fill-0, #BABABA)"/>
<path id="Vector_185" d="M30.243 34.1965C30.5077 34.0966 30.806 34.1473 31.0228 34.3293C31.2391 34.5112 31.3411 34.7959 31.2887 35.074C31.2363 35.3522 31.0379 35.5802 30.7697 35.6705C30.3649 35.8071 29.9257 35.5941 29.7821 35.1922C29.6385 34.7901 29.8435 34.3471 30.243 34.1965Z" fill="var(--fill-0, #BABABA)"/>
<path id="Vector_186" d="M24.95 34.1919C25.355 34.0438 25.8035 34.2512 25.9529 34.6558C26.1022 35.0601 25.8961 35.5094 25.492 35.6599C25.0862 35.811 24.6347 35.6042 24.4848 35.1978C24.3347 34.7916 24.5432 34.3407 24.95 34.1919Z" fill="var(--fill-0, #BABABA)"/>
<path id="Vector_187" d="M21.549 24.3189C21.9784 24.3136 22.3289 24.3459 22.5263 24.793C22.6014 24.9601 22.6025 25.1511 22.5293 25.3189C22.4074 25.6044 22.2322 25.6905 21.9639 25.804C21.5489 25.8052 21.244 25.7624 21.0309 25.3554C20.9454 25.1942 20.9308 25.0047 20.9906 24.8324C21.0901 24.5407 21.2893 24.4423 21.549 24.3189Z" fill="var(--fill-0, #BABABA)"/>
<path id="Vector_188" d="M24.2775 10.1619C24.1856 10.4123 23.9527 10.6423 23.6776 10.6844C23.0711 10.8486 22.3852 9.66923 22.9525 9.33379C23.4939 9.01368 23.9616 9.16956 24.263 9.6369L24.4349 9.60105C24.416 9.82711 24.4006 9.89228 24.4428 10.1103L24.2775 10.1619Z" fill="var(--fill-0, #BABABA)"/>
<path id="Vector_189" d="M24.263 9.63692L24.4349 9.60107C24.416 9.82713 24.4006 9.8923 24.4428 10.1103L24.2775 10.1619L24.263 9.63692Z" fill="var(--fill-0, #BABABA)"/>
<path id="Vector_190" d="M33.8175 34.2029C34.22 34.0477 34.6721 34.2487 34.8265 34.6515C34.9809 35.0545 34.7791 35.506 34.3761 35.6594C33.9741 35.8127 33.5242 35.6114 33.3698 35.21C33.2159 34.8081 33.4166 34.3577 33.8175 34.2029Z" fill="var(--fill-0, #BABABA)"/>
<path id="Vector_191" d="M38.3487 50.5168C39.283 50.5447 39.5757 51.6296 38.4992 52.172C37.4545 51.9669 37.3123 51.0136 38.3487 50.5168Z" fill="var(--fill-0, #BABABA)"/>
<path id="Vector_192" d="M32.0363 34.1962C32.4399 34.0499 32.8859 34.2575 33.0342 34.6606C33.1819 35.0639 32.9762 35.5105 32.5737 35.6605C32.169 35.811 31.7191 35.6036 31.5697 35.1983C31.4209 34.7927 31.6305 34.3434 32.0363 34.1962Z" fill="var(--fill-0, #BABABA)"/>
<path id="Vector_193" d="M39.4453 61.5377C39.3633 60.1284 41.0057 60.6536 41.0157 61.5238C41.0224 62.1264 40.1929 62.588 39.6777 61.9213C39.6253 61.8209 39.5083 61.6409 39.4453 61.5377Z" fill="var(--fill-0, #BABABA)"/>
<path id="Vector_194" d="M38.9196 9.1651C40.0172 9.15384 40.0195 10.3345 39.1844 10.6687C38.6921 10.6696 38.2723 10.5263 38.1904 9.96654C38.1647 9.78491 38.2138 9.60072 38.3253 9.45544C38.4948 9.23334 38.657 9.21098 38.9196 9.1651Z" fill="var(--fill-0, #BABABA)"/>
<path id="Vector_195" d="M29.8956 9.21049C31.0334 9.08996 31.5307 9.85181 30.6688 10.6369C29.5457 10.7607 29.0566 9.84635 29.8956 9.21049Z" fill="var(--fill-0, #BABABA)"/>
<path id="Vector_196" d="M19.7945 24.3165C19.9244 24.3185 20.1034 24.3238 20.2254 24.362C20.4273 24.4237 20.5931 24.5689 20.6808 24.761C20.7653 24.9477 20.7638 25.162 20.6765 25.3475C20.5443 25.6352 20.3774 25.7035 20.0984 25.8157C19.9344 25.8106 19.7565 25.8093 19.6051 25.7433C19.4067 25.6545 19.2516 25.4908 19.1736 25.2879C19.1066 25.1108 19.1145 24.914 19.1956 24.7429C19.3215 24.4714 19.5316 24.4038 19.7945 24.3165Z" fill="var(--fill-0, #BABABA)"/>
<path id="Vector_197" d="M17.9265 24.3151C18.3335 24.1951 18.7617 24.4226 18.8901 24.8271C19.0183 25.2315 18.7996 25.6643 18.3979 25.8009C18.1306 25.8918 17.8351 25.831 17.6253 25.6421C17.4155 25.4532 17.3243 25.1656 17.3868 24.8903C17.4493 24.615 17.6557 24.3949 17.9265 24.3151Z" fill="var(--fill-0, #BABABA)"/>
<path id="Vector_198" d="M32.0246 29.2917C32.4717 29.2305 32.7939 29.2355 33.0827 29.6373C33.1875 29.7847 33.2249 29.9695 33.1858 30.146C33.1223 30.4396 32.9695 30.5376 32.7371 30.6928C31.6004 30.8512 31.1454 29.9279 32.0246 29.2917Z" fill="var(--fill-0, #BABABA)"/>
<path id="Vector_199" d="M51.3091 52.972C52.4095 52.9151 52.7858 53.9325 51.8889 54.5603C51.5488 54.6054 51.3152 54.5246 51.0878 54.2542C50.9244 54.0569 50.8503 53.8004 50.8832 53.5462C50.9238 53.248 51.0811 53.1331 51.3091 52.972Z" fill="var(--fill-0, #BABABA)"/>
<path id="Vector_200" d="M30.1886 44.1844C30.4535 44.0712 30.7591 44.1141 30.9827 44.2953C31.2068 44.4765 31.3121 44.7664 31.257 45.049C31.2018 45.3317 30.9949 45.5603 30.7195 45.6439C30.324 45.7637 29.9038 45.5541 29.7626 45.1656C29.6214 44.7776 29.8085 44.3466 30.1886 44.1844Z" fill="var(--fill-0, #BABABA)"/>
<path id="Vector_201" d="M35.6354 29.2887C35.7636 29.2726 35.937 29.2493 36.0636 29.2638C36.3178 29.2946 36.5458 29.4344 36.688 29.6469C36.9634 30.0561 36.7169 30.4862 36.3317 30.7063C35.1945 30.8192 34.7574 29.9719 35.6354 29.2887Z" fill="var(--fill-0, #BABABA)"/>
<path id="Vector_202" d="M7.6001 62.2195C8.58021 62.2357 9.10999 63.3022 8.0666 63.8061C6.99406 63.9461 6.8219 62.9638 7.6001 62.2195Z" fill="var(--fill-0, #BABABA)"/>
<path id="Vector_203" d="M28.5057 29.2874C29.5716 29.1244 30.0846 30.1171 29.1229 30.7111C27.9812 30.8159 27.5865 29.7939 28.5057 29.2874Z" fill="var(--fill-0, #BABABA)"/>
<path id="Vector_204" d="M16.0875 24.3271C16.356 24.2447 16.648 24.3136 16.8511 24.5075C17.0542 24.7013 17.1367 24.9898 17.0669 25.2617C16.9971 25.5337 16.7858 25.7467 16.5144 25.8187C16.1059 25.9271 15.6858 25.6886 15.5695 25.2822C15.4532 24.8759 15.6835 24.4512 16.0875 24.3271Z" fill="var(--fill-0, #BABABA)"/>
<path id="Vector_205" d="M31.6188 9.20831C32.106 9.1777 32.7856 9.18902 32.7884 9.94168C32.7895 10.2197 32.5397 10.4765 32.3346 10.6504C31.2503 10.721 30.7508 9.86352 31.6188 9.20831Z" fill="var(--fill-0, #BABABA)"/>
<path id="Vector_206" d="M25.0618 24.3347C25.3225 24.2352 25.6166 24.2838 25.8314 24.4619C26.0463 24.6399 26.1487 24.9198 26.0995 25.1944C26.0503 25.4691 25.8571 25.696 25.5938 25.7883C25.1942 25.9284 24.7563 25.7215 24.6108 25.3239C24.4653 24.9263 24.6662 24.4855 25.0618 24.3347Z" fill="var(--fill-0, #BABABA)"/>
<path id="Vector_207" d="M46.2382 41.0424C46.3742 41.0374 46.6758 41.0184 46.7884 41.0669C47.4658 41.3585 47.6414 42.2148 46.8314 42.4791C45.7532 42.6184 45.3585 41.6161 46.2382 41.0424Z" fill="var(--fill-0, #BABABA)"/>
<path id="Vector_208" d="M26.899 24.3243C27.0201 24.3256 27.2943 24.3254 27.4022 24.3639C27.6296 24.4466 27.8099 24.624 27.8961 24.8501C28.062 25.2835 27.7376 25.6195 27.3557 25.7651C27.2347 25.7704 26.9653 25.7872 26.8571 25.7477C26.651 25.6739 26.48 25.5255 26.3781 25.3316C26.2941 25.1734 26.2813 24.9869 26.3427 24.8186C26.4477 24.5256 26.6337 24.4399 26.899 24.3243Z" fill="var(--fill-0, #BABABA)"/>
<path id="Vector_209" d="M56.2495 41.3736C57.2686 41.3195 57.5128 42.4333 56.487 42.91C55.8459 43.0037 55.474 42.4713 55.6574 41.8787C55.7539 41.5676 55.978 41.5007 56.2495 41.3736Z" fill="var(--fill-0, #BABABA)"/>
<path id="Vector_210" d="M35.7988 24.328C35.9131 24.3281 36.276 24.3198 36.3574 24.3639C37.1089 24.7737 36.9834 25.457 36.2693 25.7573C35.8239 25.7852 35.5284 25.7835 35.3015 25.3329C35.2207 25.1725 35.2106 24.986 35.2725 24.8175C35.3729 24.5408 35.5474 24.4414 35.7988 24.328Z" fill="var(--fill-0, #BABABA)"/>
<path id="Vector_211" d="M21.494 29.2766C22.6959 29.2504 22.8401 30.4227 21.927 30.7262C20.8609 30.782 20.4448 29.8562 21.494 29.2766Z" fill="var(--fill-0, #BABABA)"/>
<path id="Vector_212" d="M43.637 40.6733C44.049 40.6081 44.4381 40.8813 44.5167 41.2905C44.5953 41.7002 44.3349 42.0977 43.928 42.1897C43.6531 42.2516 43.366 42.159 43.1793 41.9478C42.9931 41.737 42.9362 41.4404 43.031 41.1751C43.1263 40.9103 43.3588 40.7179 43.637 40.6733Z" fill="var(--fill-0, #BABABA)"/>
<path id="Vector_213" d="M41.3039 29.2312C42.279 29.413 42.5064 30.4416 41.484 30.7447C40.3289 30.7088 40.1678 29.564 41.3039 29.2312Z" fill="var(--fill-0, #BABABA)"/>
<path id="Vector_214" d="M23.3202 24.3212C24.4337 24.2785 24.7315 25.3326 23.8307 25.7795C23.3766 25.7923 23.0447 25.7915 22.8193 25.3331C22.5782 24.8431 22.9247 24.5102 23.3202 24.3212Z" fill="var(--fill-0, #BABABA)"/>
<path id="Vector_215" d="M15.9673 29.286C17.0814 29.1839 17.5363 30.1654 16.5744 30.7128C16.4794 30.7245 16.3716 30.7375 16.2765 30.7388C16.0368 30.7407 15.808 30.6388 15.649 30.4593C15.2566 30.0116 15.5935 29.5754 15.9673 29.286Z" fill="var(--fill-0, #BABABA)"/>
<path id="Vector_216" d="M30.4629 24.316C31.6215 24.3132 31.8947 25.3136 30.9593 25.773C29.8353 25.8109 29.4762 24.8405 30.4629 24.316Z" fill="var(--fill-0, #BABABA)"/>
<path id="Vector_217" d="M37.5214 29.2819C38.5873 29.1982 38.9915 30.2408 38.0577 30.7112C37.9479 30.7202 37.6201 30.7535 37.532 30.7126C36.7593 30.3541 36.7733 29.6206 37.5214 29.2819Z" fill="var(--fill-0, #BABABA)"/>
<path id="Vector_218" d="M42.8944 29.2784C44.1644 29.2316 44.2441 30.4579 43.3577 30.7226C42.2762 30.7445 41.9071 29.8824 42.8944 29.2784Z" fill="var(--fill-0, #BABABA)"/>
<path id="Vector_219" d="M24.4349 9.60107C25.3261 8.53227 26.5992 9.62655 25.6164 10.5534C25.181 10.964 24.6793 10.5274 24.4428 10.1103C24.4006 9.8923 24.416 9.82713 24.4349 9.60107Z" fill="var(--fill-0, #BABABA)"/>
<path id="Vector_220" d="M32.2493 24.3188C33.4005 24.2959 33.6396 25.3308 32.7544 25.7715C32.2916 25.7869 32.0073 25.7809 31.7531 25.3293C31.6656 25.1739 31.6494 24.988 31.7096 24.8199C31.8094 24.5369 31.9951 24.4349 32.2493 24.3188Z" fill="var(--fill-0, #BABABA)"/>
<path id="Vector_221" d="M35.9058 45.8736C36.9143 45.9059 37.4121 46.7014 36.5202 47.3476C35.4331 47.5354 34.9575 46.4662 35.9058 45.8736Z" fill="var(--fill-0, #BABABA)"/>
<path id="Vector_222" d="M28.6659 24.3263C29.8867 24.2982 30.0543 25.4142 29.1773 25.7717C29.0615 25.7767 28.7995 25.791 28.6944 25.7595C28.486 25.6952 28.3098 25.5543 28.2012 25.3653C27.9267 24.8935 28.2702 24.5426 28.6659 24.3263Z" fill="var(--fill-0, #BABABA)"/>
<path id="Vector_223" d="M39.3366 29.2776C40.4844 29.2116 40.752 30.3697 39.7686 30.7276C38.744 30.7772 38.3164 29.8115 39.3366 29.2776Z" fill="var(--fill-0, #BABABA)"/>
<path id="Vector_224" d="M55.1931 49.2307C56.342 49.3473 56.5444 50.2487 55.5253 50.8307C55.3319 50.8357 54.9567 50.741 54.8346 50.5916C54.3841 50.0402 54.8257 49.5597 55.1931 49.2307Z" fill="var(--fill-0, #BABABA)"/>
<path id="Vector_225" d="M39.457 24.322C40.5825 24.3098 40.7587 25.3252 39.8606 25.7839C39.3973 25.793 39.0584 25.7383 38.8733 25.2516C38.8103 25.0814 38.8198 24.8928 38.8995 24.7299C39.026 24.4672 39.1966 24.4029 39.457 24.322Z" fill="var(--fill-0, #BABABA)"/>
<path id="Vector_226" d="M56.3749 46.2761C56.6191 46.14 56.9179 46.1473 57.1554 46.295C57.3929 46.4427 57.5311 46.7075 57.5172 46.9863C57.5027 47.2656 57.3383 47.5153 57.0874 47.638C56.7133 47.8208 56.2612 47.6731 56.0683 47.3041C55.8754 46.935 56.0114 46.479 56.3749 46.2761Z" fill="var(--fill-0, #BABABA)"/>
<path id="Vector_227" d="M25.0124 29.282C26.0774 29.1681 26.4556 30.2036 25.5751 30.7217C24.4112 30.7949 24.0475 29.8445 25.0124 29.282Z" fill="var(--fill-0, #BABABA)"/>
<path id="Vector_228" d="M21.4786 9.20949C22.6434 9.09744 23.0544 9.96795 22.2289 10.638C21.1511 10.7347 20.6461 9.86777 21.4786 9.20949Z" fill="var(--fill-0, #BABABA)"/>
<path id="Vector_229" d="M23.2843 29.2792C24.3688 29.2325 24.7113 30.335 23.7237 30.7264C22.6478 30.7732 22.2552 29.8013 23.2843 29.2792Z" fill="var(--fill-0, #BABABA)"/>
<path id="Vector_230" d="M31.9962 44.1643C32.2627 44.0762 32.5565 44.1409 32.761 44.3332C32.9662 44.525 33.0493 44.8138 32.979 45.0858C32.9082 45.3573 32.6947 45.5692 32.4221 45.6372C32.0218 45.737 31.6143 45.5023 31.4995 45.1059C31.3846 44.7095 31.6043 44.2931 31.9962 44.1643Z" fill="var(--fill-0, #BABABA)"/>
<path id="Vector_231" d="M28.4615 9.15451C28.5587 9.16321 28.8768 9.18768 28.9425 9.23652C29.6317 9.74879 29.4259 10.4941 28.6532 10.6983C28.2604 10.6473 27.9904 10.5297 27.8563 10.1244C27.7899 9.92205 27.8115 9.70118 27.9159 9.5156C28.0484 9.28346 28.2208 9.22543 28.4615 9.15451Z" fill="var(--fill-0, #BABABA)"/>
<path id="Vector_232" d="M42.3732 9.15269C43.4937 9.26575 43.5378 10.2853 42.7093 10.6737C41.6005 10.6426 41.2794 9.54009 42.3732 9.15269Z" fill="var(--fill-0, #BABABA)"/>
<path id="Vector_233" d="M26.8393 9.15999C27.8514 9.25877 27.9655 10.3604 27.0098 10.6923C26.8625 10.6975 26.6936 10.6771 26.5632 10.6041C26.3497 10.4833 26.1973 10.2777 26.1439 10.0383C26.023 9.48717 26.3456 9.24589 26.8393 9.15999Z" fill="var(--fill-0, #BABABA)"/>
<path id="Vector_234" d="M30.385 29.279C30.4749 29.2714 30.6025 29.267 30.6905 29.2771C30.9286 29.3065 31.1416 29.4389 31.2737 29.6392C31.5691 30.0884 31.3032 30.4769 30.8974 30.7133C30.7859 30.7199 30.4556 30.7467 30.3669 30.7053C29.5707 30.3331 29.6143 29.6056 30.385 29.279Z" fill="var(--fill-0, #BABABA)"/>
<path id="Vector_235" d="M19.729 29.2722C20.7499 29.2621 21.123 30.3346 20.1622 30.7214C19.0055 30.7762 18.7028 29.8024 19.729 29.2722Z" fill="var(--fill-0, #BABABA)"/>
<path id="Vector_236" d="M37.2265 49.0011C38.2004 48.9531 38.5321 49.9622 37.5593 50.5921C36.5915 50.6618 36.3055 49.6277 37.2265 49.0011Z" fill="var(--fill-0, #BABABA)"/>
<path id="Vector_237" d="M51.9669 29.2428C52.385 29.2353 52.7318 29.5654 52.7451 29.9837C52.758 30.4019 52.4324 30.7531 52.0143 30.7717C51.7389 30.784 51.4785 30.6471 51.3319 30.4134C51.1859 30.1797 51.1764 29.8854 51.308 29.643C51.4395 29.4007 51.6909 29.2478 51.9669 29.2428Z" fill="var(--fill-0, #BABABA)"/>
<path id="Vector_238" d="M44.6773 29.2769C45.8418 29.246 46.0972 30.3661 45.1416 30.7232C44.0852 30.779 43.7117 29.8531 44.6773 29.2769Z" fill="var(--fill-0, #BABABA)"/>
<path id="Vector_239" d="M50.0949 24.3159C50.5041 24.2187 50.9144 24.4694 51.0147 24.8775C51.1151 25.2855 50.8675 25.6981 50.46 25.8014C50.0486 25.9058 49.6305 25.6549 49.5296 25.2426C49.4281 24.8302 49.6818 24.4142 50.0949 24.3159Z" fill="var(--fill-0, #BABABA)"/>
<path id="Vector_240" d="M17.8632 29.2805C18.2559 29.139 18.6896 29.3385 18.8376 29.7288C18.9856 30.1191 18.7934 30.556 18.4057 30.7106C18.149 30.8129 17.8571 30.7689 17.642 30.5953C17.427 30.4217 17.3223 30.1457 17.3681 29.8732C17.414 29.6007 17.6032 29.3741 17.8632 29.2805Z" fill="var(--fill-0, #BABABA)"/>
<path id="Vector_241" d="M49.4142 39.8355C49.8295 39.8042 50.1935 40.1109 50.2326 40.5256C50.2716 40.9404 49.9717 41.31 49.558 41.3568C49.2832 41.3881 49.0128 41.2688 48.8511 41.0441C48.6895 40.82 48.6616 40.5256 48.7787 40.2748C48.8952 40.0239 49.1382 39.8561 49.4142 39.8355Z" fill="var(--fill-0, #BABABA)"/>
<path id="Vector_242" d="M48.2162 29.282C48.3639 29.272 48.5183 29.2586 48.6627 29.2945C48.8779 29.3497 49.0607 29.4896 49.1711 29.6822C49.417 30.1101 49.1522 30.4982 48.7731 30.7173C48.3789 30.7499 48.0762 30.7571 47.8092 30.4113C47.701 30.2735 47.6564 30.0962 47.6865 29.9236C47.7473 29.5671 47.9357 29.4654 48.2162 29.282Z" fill="var(--fill-0, #BABABA)"/>
<path id="Vector_243" d="M43.0237 24.323C44.156 24.3307 44.2865 25.4159 43.4173 25.7682C42.1663 25.8372 42.0755 24.5936 43.0237 24.323Z" fill="var(--fill-0, #BABABA)"/>
<path id="Vector_244" d="M26.8059 29.2848C27.139 29.2526 27.4888 29.3176 27.7045 29.6004C27.8147 29.7477 27.8578 29.9347 27.8231 30.1154C27.7674 30.4216 27.5774 30.5458 27.3402 30.7172C27.2199 30.7246 26.9346 30.7461 26.8264 30.7129C26.6155 30.6499 26.4372 30.5079 26.3286 30.3165C26.0609 29.8496 26.4012 29.4831 26.8059 29.2848Z" fill="var(--fill-0, #BABABA)"/>
<path id="Vector_245" d="M41.1879 24.3162C41.5854 24.2032 42.0002 24.4263 42.1251 24.8199C42.25 25.2135 42.0398 25.6351 41.6501 25.7718C41.387 25.864 41.0949 25.8059 40.8875 25.6203C40.6801 25.4347 40.5898 25.1508 40.6528 24.8795C40.7152 24.6082 40.9204 24.3923 41.1879 24.3162Z" fill="var(--fill-0, #BABABA)"/>
<path id="Vector_246" d="M50.0798 53.6951C51.0309 53.7553 51.274 54.7404 50.3084 55.2605C49.8925 55.241 49.6227 55.1378 49.4621 54.7102C49.3846 54.5062 49.3964 54.2788 49.4934 54.0831C49.6322 53.8116 49.8083 53.7709 50.0798 53.6951Z" fill="var(--fill-0, #BABABA)"/>
<path id="Vector_247" d="M44.7375 24.3268C45.1271 24.1984 45.5486 24.401 45.6919 24.7856C45.8346 25.1702 45.6484 25.5991 45.2693 25.7568C45.0112 25.8643 44.7152 25.8219 44.4972 25.6464C44.2792 25.4709 44.175 25.1904 44.2251 24.9152C44.2753 24.6401 44.4715 24.4143 44.7375 24.3268Z" fill="var(--fill-0, #BABABA)"/>
<path id="Vector_248" d="M37.6636 24.3171C38.875 24.3644 38.9196 25.4431 38.0627 25.7694C36.8903 25.8298 36.7013 24.6976 37.6636 24.3171Z" fill="var(--fill-0, #BABABA)"/>
<path id="Vector_249" d="M34.0338 24.316C35.1733 24.3321 35.4052 25.3148 34.5032 25.764C34.3856 25.7716 34.1286 25.7923 34.0221 25.7556C33.8175 25.6843 33.6469 25.539 33.5443 25.3483C33.2879 24.8685 33.6079 24.5106 34.0338 24.316Z" fill="var(--fill-0, #BABABA)"/>
<path id="Vector_250" d="M46.5917 24.3214C46.9323 24.3241 47.2322 24.3666 47.4212 24.6862C47.516 24.8422 47.541 25.0307 47.4903 25.2059C47.3955 25.5286 47.2138 25.6354 46.9345 25.7748C46.8057 25.7752 46.5036 25.783 46.3937 25.7304C46.1992 25.6396 46.0492 25.475 45.9767 25.273C45.8011 24.7936 46.1563 24.4458 46.5917 24.3214Z" fill="var(--fill-0, #BABABA)"/>
<path id="Vector_251" d="M48.2463 24.3197C48.4018 24.3202 48.7017 24.3101 48.8339 24.3848C49.4777 24.7481 49.4516 25.4817 48.7675 25.7651C47.6001 25.8351 47.3615 24.9132 48.2463 24.3197Z" fill="var(--fill-0, #BABABA)"/>
<path id="Vector_252" d="M34.0015 29.2753C35.0696 29.3043 35.3422 30.3276 34.4408 30.7276C34.3237 30.7332 34.0723 30.7483 33.9652 30.7146C33.7545 30.6499 33.5772 30.5058 33.4702 30.3128C33.1859 29.7991 33.5839 29.4737 34.0015 29.2753Z" fill="var(--fill-0, #BABABA)"/>
<path id="Vector_253" d="M46.4623 29.2731C47.5689 29.246 47.88 30.3395 46.9295 30.721C45.8708 30.7683 45.4739 29.8928 46.4623 29.2731Z" fill="var(--fill-0, #BABABA)"/>
<path id="Vector_254" d="M45.6768 44.1705C46.1061 44.1443 46.4406 44.1615 46.6167 44.6014C46.8269 45.1249 46.6591 45.5118 46.1691 45.7258C45.2113 45.7292 44.8852 44.7776 45.6768 44.1705Z" fill="var(--fill-0, #BABABA)"/>
<path id="Vector_255" d="M20.0354 9.15386C20.4744 9.15498 20.5681 9.22645 20.9365 9.47581C20.9434 10.0293 21.0281 10.4125 20.4555 10.6636C19.3545 10.6802 19.0628 9.68826 20.0354 9.15386Z" fill="var(--fill-0, #BABABA)"/>
<path id="Vector_256" d="M35.0852 9.21423C35.2491 9.19907 35.5741 9.15754 35.714 9.20459C36.4778 9.46181 36.4817 10.2487 35.8495 10.6435C35.4013 10.6825 35.0724 10.7081 34.7775 10.3144C34.4446 9.87078 34.7067 9.46839 35.0852 9.21423Z" fill="var(--fill-0, #BABABA)"/>
<path id="Vector_257" d="M35.0852 13.8971C35.2491 13.8819 35.5741 13.8404 35.714 13.8874C36.4778 14.1447 36.4817 14.9316 35.8495 15.3264C35.4013 15.3653 35.0724 15.391 34.7775 14.9973C34.4446 14.5536 34.7067 14.1513 35.0852 13.8971Z" fill="var(--fill-0, #BABABA)"/>
<path id="Vector_258" d="M33.3364 9.21177C34.4954 9.05528 34.9826 9.91096 34.1107 10.6444C33.595 10.6758 33.2957 10.686 32.9835 10.2015C32.717 9.78792 32.9918 9.42322 33.3364 9.21177Z" fill="var(--fill-0, #BABABA)"/>
<path id="Vector_259" d="M33.3364 13.8946C34.4954 13.7381 34.9826 14.5938 34.1107 15.3273C33.595 15.3587 33.2957 15.3689 32.9835 14.8843C32.717 14.4708 32.9918 14.1061 33.3364 13.8946Z" fill="var(--fill-0, #BABABA)"/>
<path id="Vector_260" d="M40.6372 9.16137C41.7783 9.23346 41.8653 10.2959 40.9722 10.6586C39.7641 10.7106 39.5529 9.39267 40.6372 9.16137Z" fill="var(--fill-0, #BABABA)"/>
<path id="Vector_261" d="M40.6372 13.8442C41.7783 13.9163 41.8653 14.9788 40.9722 15.3415C39.7641 15.3935 39.5529 14.0755 40.6372 13.8442Z" fill="var(--fill-0, #BABABA)"/>
<path id="Vector_262" d="M37.047 9.15375C38.2238 9.24406 38.3465 10.2631 37.4657 10.6661C36.9962 10.6876 36.6556 10.6334 36.4555 10.1393C36.3813 9.95709 36.3886 9.75188 36.4761 9.5756C36.5993 9.32317 36.8 9.24535 37.047 9.15375Z" fill="var(--fill-0, #BABABA)"/>
<path id="Vector_263" d="M37.047 13.8366C38.2238 13.9269 38.3465 14.946 37.4657 15.349C36.9962 15.3705 36.6556 15.3162 36.4555 14.8221C36.3813 14.6399 36.3886 14.4347 36.4761 14.2585C36.5993 14.006 36.8 13.9282 37.047 13.8366Z" fill="var(--fill-0, #BABABA)"/>
<path id="Vector_264" d="M24.2775 10.1619C24.1856 10.4123 23.9527 10.6423 23.6776 10.6844C23.0711 10.8486 22.3852 9.66923 22.9525 9.33379C23.4939 9.01368 23.9616 9.16956 24.263 9.6369L24.4349 9.60105C24.416 9.82711 24.4006 9.89228 24.4428 10.1103L24.2775 10.1619Z" fill="var(--fill-0, #BABABA)"/>
<path id="Vector_265" d="M24.2775 14.8447C24.1856 15.0952 23.9527 15.3252 23.6776 15.3673C23.0711 15.5315 22.3852 14.3521 22.9525 14.0167C23.4939 13.6965 23.9616 13.8524 24.263 14.3198L24.4349 14.2839C24.416 14.51 24.4006 14.5751 24.4428 14.7932L24.2775 14.8447Z" fill="var(--fill-0, #BABABA)"/>
<path id="Vector_266" d="M24.263 9.63692L24.4349 9.60107C24.416 9.82713 24.4006 9.8923 24.4428 10.1103L24.2775 10.1619L24.263 9.63692Z" fill="var(--fill-0, #BABABA)"/>
<path id="Vector_267" d="M24.263 14.3198L24.4349 14.2839C24.416 14.51 24.4006 14.5752 24.4428 14.7932L24.2775 14.8448L24.263 14.3198Z" fill="var(--fill-0, #BABABA)"/>
<path id="Vector_268" d="M38.9196 9.1651C40.0172 9.15384 40.0195 10.3345 39.1844 10.6687C38.6921 10.6696 38.2723 10.5263 38.1904 9.96654C38.1647 9.78491 38.2138 9.60072 38.3253 9.45544C38.4948 9.23334 38.657 9.21098 38.9196 9.1651Z" fill="var(--fill-0, #BABABA)"/>
<path id="Vector_269" d="M38.9196 13.848C40.0172 13.8367 40.0195 15.0173 39.1844 15.3516C38.6921 15.3524 38.2723 15.2091 38.1904 14.6494C38.1647 14.4678 38.2138 14.2836 38.3253 14.1383C38.4948 13.9162 38.657 13.8938 38.9196 13.848Z" fill="var(--fill-0, #BABABA)"/>
<path id="Vector_270" d="M29.8956 9.21049C31.0334 9.08996 31.5307 9.85181 30.6688 10.6369C29.5457 10.7607 29.0566 9.84635 29.8956 9.21049Z" fill="var(--fill-0, #BABABA)"/>
<path id="Vector_271" d="M29.8956 13.8933C31.0334 13.7728 31.5307 14.5347 30.6688 15.3198C29.5457 15.4436 29.0566 14.5292 29.8956 13.8933Z" fill="var(--fill-0, #BABABA)"/>
<path id="Vector_272" d="M31.6188 9.20831C32.106 9.1777 32.7856 9.18902 32.7884 9.94168C32.7895 10.2197 32.5397 10.4765 32.3346 10.6504C31.2503 10.721 30.7508 9.86352 31.6188 9.20831Z" fill="var(--fill-0, #BABABA)"/>
<path id="Vector_273" d="M31.6188 13.8912C32.106 13.8606 32.7856 13.8719 32.7884 14.6245C32.7895 14.9026 32.5397 15.1594 32.3346 15.3333C31.2503 15.4039 30.7508 14.5464 31.6188 13.8912Z" fill="var(--fill-0, #BABABA)"/>
<path id="Vector_274" d="M24.4349 9.60107C25.3261 8.53227 26.5992 9.62655 25.6164 10.5534C25.181 10.964 24.6793 10.5274 24.4428 10.1103C24.4006 9.8923 24.416 9.82713 24.4349 9.60107Z" fill="var(--fill-0, #BABABA)"/>
<path id="Vector_275" d="M24.4349 14.2839C25.3261 13.2151 26.5992 14.3094 25.6164 15.2362C25.181 15.6469 24.6793 15.2103 24.4428 14.7932C24.4006 14.5752 24.416 14.51 24.4349 14.2839Z" fill="var(--fill-0, #BABABA)"/>
<path id="Vector_276" d="M21.4786 9.20949C22.6434 9.09744 23.0544 9.96795 22.2289 10.638C21.1511 10.7347 20.6461 9.86777 21.4786 9.20949Z" fill="var(--fill-0, #BABABA)"/>
<path id="Vector_277" d="M21.4786 13.8924C22.6434 13.7803 23.0544 14.6508 22.2289 15.3208C21.1511 15.4176 20.6461 14.5506 21.4786 13.8924Z" fill="var(--fill-0, #BABABA)"/>
<path id="Vector_278" d="M28.4615 9.15451C28.5587 9.16321 28.8768 9.18768 28.9425 9.23652C29.6317 9.74879 29.4259 10.4941 28.6532 10.6983C28.2604 10.6473 27.9904 10.5297 27.8563 10.1244C27.7899 9.92205 27.8115 9.70118 27.9159 9.5156C28.0484 9.28346 28.2208 9.22543 28.4615 9.15451Z" fill="var(--fill-0, #BABABA)"/>
<path id="Vector_279" d="M28.4615 13.8374C28.5587 13.8461 28.8768 13.8705 28.9425 13.9194C29.6317 14.4316 29.4259 15.177 28.6532 15.3812C28.2604 15.3301 27.9904 15.2125 27.8563 14.8073C27.7899 14.6049 27.8115 14.384 27.9159 14.1985C28.0484 13.9663 28.2208 13.9083 28.4615 13.8374Z" fill="var(--fill-0, #BABABA)"/>
<path id="Vector_280" d="M42.3732 9.15269C43.4937 9.26575 43.5378 10.2853 42.7093 10.6737C41.6005 10.6426 41.2794 9.54009 42.3732 9.15269Z" fill="var(--fill-0, #BABABA)"/>
<path id="Vector_281" d="M42.3732 13.8356C43.4937 13.9486 43.5378 14.9681 42.7093 15.3565C41.6005 15.3255 41.2794 14.2229 42.3732 13.8356Z" fill="var(--fill-0, #BABABA)"/>
<path id="Vector_282" d="M26.8393 9.15999C27.8514 9.25877 27.9655 10.3604 27.0098 10.6923C26.8625 10.6975 26.6936 10.6771 26.5632 10.6041C26.3497 10.4833 26.1973 10.2777 26.1439 10.0383C26.023 9.48717 26.3456 9.24589 26.8393 9.15999Z" fill="var(--fill-0, #BABABA)"/>
<path id="Vector_283" d="M26.8393 13.8428C27.8514 13.9416 27.9655 15.0433 27.0098 15.3751C26.8625 15.3804 26.6936 15.3599 26.5632 15.287C26.3497 15.1661 26.1973 14.9605 26.1439 14.7212C26.023 14.17 26.3456 13.9288 26.8393 13.8428Z" fill="var(--fill-0, #BABABA)"/>
<path id="Vector_284" d="M20.0354 9.15386C20.4744 9.15498 20.5681 9.22645 20.9365 9.47581C20.9434 10.0293 21.0281 10.4125 20.4555 10.6636C19.3545 10.6802 19.0628 9.68826 20.0354 9.15386Z" fill="var(--fill-0, #BABABA)"/>
<path id="Vector_285" d="M20.0354 13.8367C20.4744 13.8378 20.5681 13.9093 20.9365 14.1587C20.9434 14.7122 21.0281 15.0954 20.4555 15.3464C19.3545 15.3631 19.0628 14.3711 20.0354 13.8367Z" fill="var(--fill-0, #BABABA)"/>
<path id="Vector_286" d="M35.9359 42.5381C36.4633 42.6078 37.0526 42.8163 36.9215 43.5633C36.8808 43.7969 36.6673 43.9675 36.4577 44.074C35.3957 43.9547 34.9347 43.23 35.9359 42.5381Z" fill="var(--fill-0, #BABABA)"/>
<path id="Vector_287" d="M35.6661 44.2173C36.7309 44.2206 37.2599 45.0502 36.3328 45.6974C35.2926 45.8245 34.9257 45.0362 35.6661 44.2173Z" fill="var(--fill-0, #BABABA)"/>
<path id="Vector_288" d="M51.919 24.3162C52.1888 24.2752 52.4597 24.3824 52.6286 24.5969C52.7976 24.8113 52.8377 25.1 52.7346 25.3526C52.6314 25.6052 52.4001 25.7828 52.1297 25.8175C51.7177 25.8704 51.3397 25.5821 51.2823 25.1709C51.2249 24.7597 51.5087 24.3786 51.919 24.3162Z" fill="var(--fill-0, #BABABA)"/>
<path id="Vector_289" d="M6.44923 61.4346C7.61403 61.3805 7.5114 62.394 6.70394 63.0112C6.18621 63.0167 5.725 62.7185 5.84675 62.1276C5.92129 61.7663 6.16396 61.637 6.44923 61.4346Z" fill="var(--fill-0, #BABABA)"/>
<path id="Vector_290" d="M44.5485 55.0012C44.4175 55.1997 44.1064 55.5236 43.8388 55.4483C42.187 54.9856 43.9486 53.0116 44.578 54.3624L44.7001 54.6322L44.6901 55.0927L44.5485 55.0012Z" fill="var(--fill-0, #BABABA)"/>
<path id="Vector_291" d="M44.578 54.3624L44.7001 54.6322L44.6901 55.0927L44.5485 55.0012L44.578 54.3624Z" fill="var(--fill-0, #BABABA)"/>
<path id="Vector_292" d="M36.4577 41.0402C36.7788 41.0525 37.1178 41.1545 37.3079 41.431C37.4132 41.5815 37.4506 41.7694 37.4105 41.9483C37.3447 42.2572 37.1139 42.4149 36.8636 42.5666C35.8188 42.3492 35.3756 41.5726 36.4577 41.0402Z" fill="var(--fill-0, #BABABA)"/>
<path id="Vector_293" d="M46.377 42.5822L46.4478 42.5972C47.3181 42.7968 47.773 43.5555 46.886 44.1008C45.7783 44.1927 45.407 43.2913 46.377 42.5822Z" fill="var(--fill-0, #BABABA)"/>
<path id="Vector_294" d="M56.4859 44.6203C56.6013 44.6114 56.9023 44.5819 57.0015 44.6153C57.6928 44.8495 57.8506 45.6439 57.1582 45.9912C56.0995 46.1897 55.6073 45.3055 56.4859 44.6203Z" fill="var(--fill-0, #BABABA)"/>
<path id="Vector_295" d="M37.9735 38.0353C38.0477 38.0303 38.1218 38.0275 38.1959 38.0275C39.0645 38.0192 39.4258 38.8353 38.6637 39.5143C37.7238 39.7513 37.2516 38.813 37.9735 38.0353Z" fill="var(--fill-0, #BABABA)"/>
<path id="Vector_296" d="M55.7556 39.8723C56.7295 40.0651 56.793 41.1199 55.7182 41.431C54.7203 41.2113 54.6752 40.2201 55.7556 39.8723Z" fill="var(--fill-0, #BABABA)"/>
<path id="Vector_297" d="M50.0369 29.2718C50.1874 29.2732 50.329 29.2721 50.474 29.3198C50.6819 29.3862 50.8531 29.535 50.9489 29.7313C51.1714 30.184 50.8642 30.5465 50.4567 30.7236C49.4064 30.7801 49.0541 29.8692 50.0369 29.2718Z" fill="var(--fill-0, #BABABA)"/>
<path id="Vector_298" d="M48.0032 39.244C49.136 39.4246 48.898 40.4236 48.1286 40.8835C47.119 40.7871 47.0125 39.7323 48.0032 39.244Z" fill="var(--fill-0, #BABABA)"/>
<path id="Vector_299" d="M40.7598 52.6358C41.8146 52.5946 41.9406 53.4737 41.183 54.1728C40.2547 54.4014 39.7998 53.35 40.7598 52.6358Z" fill="var(--fill-0, #BABABA)"/>
<path id="Vector_300" d="M36.4521 47.4975C37.5286 47.6045 37.668 48.5896 36.6121 49.073C36.0524 49.0507 35.8896 48.6292 35.7603 48.1709C35.9666 47.8482 36.14 47.7093 36.4521 47.4975Z" fill="var(--fill-0, #BABABA)"/>
<path id="Vector_301" d="M56.0444 47.7384C57.1075 47.9134 57.2725 48.9224 56.3415 49.311C55.4099 49.2274 55.0448 48.113 56.0444 47.7384Z" fill="var(--fill-0, #BABABA)"/>
<path id="Vector_302" d="M44.7001 54.6322C44.8417 54.4192 45.0519 54.1633 45.3256 54.1221C46.26 53.9822 46.5393 55.7449 45.4265 55.6446C45.0536 55.6111 44.8478 55.4188 44.6901 55.0927L44.7001 54.6322Z" fill="var(--fill-0, #BABABA)"/>
<path id="Vector_303" d="M53.6767 37.4104C54.2805 37.5409 54.3864 37.6936 54.5731 38.2684C54.3189 38.6285 54.2191 38.7467 53.835 38.9585C52.7775 38.7461 52.584 37.9133 53.6767 37.4104Z" fill="var(--fill-0, #BABABA)"/>
<path id="Vector_304" d="M48.4269 54.1316C48.8099 54.0279 49.2068 54.2431 49.3289 54.621C49.4504 54.999 49.2536 55.4054 48.8818 55.5448C48.6253 55.6412 48.3366 55.5883 48.1309 55.4076C47.9251 55.227 47.8354 54.9477 47.8973 54.6807C47.9592 54.4142 48.1626 54.2029 48.4269 54.1316Z" fill="var(--fill-0, #BABABA)"/>
<path id="Vector_305" d="M46.7778 54.2375C47.0293 54.1433 47.3119 54.1918 47.5171 54.3651C47.7222 54.5385 47.8175 54.8089 47.7668 55.0726C47.7155 55.3357 47.526 55.5515 47.2712 55.6356C46.8882 55.7622 46.474 55.5587 46.3397 55.1785C46.2053 54.7977 46.4004 54.3796 46.7778 54.2375Z" fill="var(--fill-0, #BABABA)"/>
<path id="Vector_306" d="M39.3321 51.8676C39.491 51.8492 39.637 51.8325 39.7976 51.8498C39.9838 51.8698 40.1527 51.968 40.2631 52.1196C40.5764 52.5539 40.1722 53.0188 39.8288 53.2691C39.1019 53.418 38.327 52.5483 39.3321 51.8676Z" fill="var(--fill-0, #BABABA)"/>
<path id="Vector_307" d="M56.3805 43.0594C57.5194 42.8871 57.7608 44.0528 57.0484 44.3968C56.885 44.418 56.7122 44.4414 56.5483 44.4191C56.3398 44.389 56.1519 44.2764 56.0276 44.1069C55.7388 43.7061 56.0538 43.2969 56.3805 43.0594Z" fill="var(--fill-0, #BABABA)"/>
<path id="Vector_308" d="M50.8837 35.4464C51.2717 35.3171 51.6904 35.5283 51.8169 35.9169C51.9429 36.306 51.7283 36.723 51.3386 36.8462C50.9534 36.9683 50.542 36.7565 50.4165 36.3718C50.2917 35.9877 50.5002 35.5741 50.8837 35.4464Z" fill="var(--fill-0, #BABABA)"/>
<path id="Vector_309" d="M47.8215 34.3343C48.0684 34.2336 48.3511 34.2753 48.5584 34.4433C48.7658 34.6113 48.8656 34.8789 48.8182 35.1414C48.7714 35.4046 48.5852 35.6209 48.3321 35.7062C47.9569 35.8327 47.5494 35.6387 47.4117 35.268C47.2734 34.897 47.4552 34.4837 47.8215 34.3343Z" fill="var(--fill-0, #BABABA)"/>
<path id="Vector_310" d="M39.152 36.9182C39.559 36.8919 39.84 36.9572 40.0434 37.3535C40.1287 37.5225 40.1427 37.7181 40.0825 37.8976C39.9938 38.1591 39.8439 38.2511 39.6147 38.3732C38.7244 38.3899 38.245 37.4818 39.152 36.9182Z" fill="var(--fill-0, #BABABA)"/>
<path id="Vector_311" d="M49.5062 34.7083C49.761 34.6433 50.0302 34.721 50.2108 34.9113C50.392 35.1019 50.4556 35.375 50.3781 35.6253C50.3 35.8762 50.0926 36.0652 49.8356 36.1198C49.4499 36.2012 49.0697 35.9593 48.9799 35.5752C48.8902 35.1911 49.1243 34.8058 49.5062 34.7083Z" fill="var(--fill-0, #BABABA)"/>
<path id="Vector_312" d="M44.9292 34.3103C45.9238 34.4311 45.9572 35.3706 45.0156 35.777C44.1465 35.6588 43.7987 34.5381 44.9292 34.3103Z" fill="var(--fill-0, #BABABA)"/>
<path id="Vector_313" d="M40.5976 35.9018C41.1133 35.9364 41.4896 36.514 41.2749 36.9917C41.1361 37.3 40.9845 37.3429 40.6974 37.4829C40.1811 37.3993 39.8065 36.9443 39.9994 36.4404C40.1232 36.1165 40.3094 36.0479 40.5976 35.9018Z" fill="var(--fill-0, #BABABA)"/>
<path id="Vector_314" d="M42.2048 53.4503C42.5828 53.3584 42.9658 53.5825 43.07 53.9576C43.1743 54.3328 42.9619 54.7231 42.59 54.8385C42.3392 54.9171 42.0654 54.8524 41.8759 54.6701C41.6869 54.4878 41.6116 54.2169 41.6797 53.9632C41.7482 53.7096 41.9495 53.5128 42.2048 53.4503Z" fill="var(--fill-0, #BABABA)"/>
<path id="Vector_315" d="M52.3661 36.3701C52.7541 36.3038 53.1231 36.5625 53.1934 36.9494C53.2636 37.3368 53.0088 37.7081 52.6225 37.7822C52.3688 37.8313 52.1085 37.7399 51.9413 37.5436C51.7735 37.3474 51.7244 37.0759 51.8119 36.8334C51.9 36.5903 52.1118 36.4136 52.3661 36.3701Z" fill="var(--fill-0, #BABABA)"/>
<path id="Vector_316" d="M47.3565 44.3254C47.7685 44.3661 48.0272 44.4737 48.1504 44.908C48.2067 45.1065 48.1788 45.3189 48.0734 45.4956C47.9447 45.7108 47.8031 45.7637 47.5745 45.8245C46.7628 45.8496 46.3893 44.8277 47.3565 44.3254Z" fill="var(--fill-0, #BABABA)"/>
<path id="Vector_317" d="M54.7437 38.6363C55.1306 38.624 55.4573 38.9217 55.4807 39.3081C55.5036 39.6944 55.2154 40.0289 54.8296 40.0629C54.5703 40.0858 54.3195 39.9665 54.174 39.7502C54.0285 39.5344 54.0117 39.2568 54.1305 39.0254C54.2487 38.7935 54.4839 38.6447 54.7437 38.6363Z" fill="var(--fill-0, #BABABA)"/>
<path id="Vector_318" d="M41.8096 35.2976C42.5248 35.2256 42.6073 35.6555 42.8275 36.2085C42.6201 36.4599 42.5778 36.4995 42.3124 36.689C41.3284 36.776 40.9326 35.7775 41.8096 35.2976Z" fill="var(--fill-0, #BABABA)"/>
<path id="Vector_319" d="M43.2345 34.6875C44.1744 34.6348 44.5145 35.6214 43.7 36.0803C42.7718 36.1009 42.2817 35.2005 43.2345 34.6875Z" fill="var(--fill-0, #BABABA)"/>
<path id="Vector_320" d="M46.4551 34.1876C47.39 34.2648 47.5115 35.336 46.6067 35.6376C45.6266 35.4547 45.514 34.4023 46.4551 34.1876Z" fill="var(--fill-0, #BABABA)"/>
<path id="Vector_321" d="M46.2923 39.4792C46.7416 39.462 46.7829 39.5049 47.1826 39.7413C47.2227 40.2647 47.3259 40.4805 46.8392 40.7971C45.9266 40.8936 45.6774 40.0384 46.2923 39.4792Z" fill="var(--fill-0, #BABABA)"/>
<path id="Vector_322" d="M66.4743 25.0124C66.7541 24.8989 67.0736 25.0334 67.1879 25.3131C67.3022 25.5929 67.1684 25.9124 66.8891 26.0275C66.6086 26.1431 66.2875 26.0088 66.1727 25.7279C66.0578 25.447 66.1933 25.1263 66.4743 25.0124Z" fill="var(--fill-0, #BABABA)"/>
<path id="Vector_323" d="M66.4888 22.6404C66.7737 22.5472 67.0797 22.7015 67.1739 22.9855C67.2687 23.2695 67.1154 23.5765 66.8322 23.6721C66.5468 23.7684 66.2374 23.6143 66.1426 23.3285C66.0473 23.0428 66.2028 22.7342 66.4888 22.6404Z" fill="var(--fill-0, #BABABA)"/>
<path id="Vector_324" d="M67.3189 23.7337C68.0191 23.7985 68.207 24.3993 67.5898 24.8784C66.8389 25.0184 66.7993 24.1844 67.3189 23.7337Z" fill="var(--fill-0, #BABABA)"/>
<path id="Vector_325" d="M65.6888 23.8011C66.4386 23.785 66.4637 24.4383 66.069 24.9145C65.2161 24.9376 65.1196 24.2426 65.6888 23.8011Z" fill="var(--fill-0, #BABABA)"/>
<path id="Vector_326" d="M64.4177 23.8367C64.687 23.7527 64.9741 23.8965 65.0683 24.1623C65.1625 24.428 65.0299 24.7206 64.7678 24.8248C64.5894 24.8958 64.386 24.8636 64.2388 24.7406C64.0911 24.6178 64.0219 24.4239 64.0593 24.2355C64.0966 24.0469 64.2343 23.894 64.4177 23.8367Z" fill="var(--fill-0, #BABABA)"/>
<path id="Vector_327" d="M69.7356 23.8439C70.0054 23.7621 70.2914 23.9083 70.3834 24.1749C70.4754 24.4415 70.3393 24.7329 70.0768 24.8344C69.8978 24.9036 69.6949 24.8694 69.5488 24.7452C69.4022 24.6211 69.3353 24.4269 69.3743 24.239C69.4134 24.0511 69.5522 23.8995 69.7356 23.8439Z" fill="var(--fill-0, #BABABA)"/>
<path id="Vector_328" d="M68.4188 23.7939C69.1575 23.8228 69.4646 24.2083 68.9484 24.8315C68.0977 24.9557 68.0057 24.4146 68.4188 23.7939Z" fill="var(--fill-0, #BABABA)"/>
<path id="Vector_329" d="M63.1428 23.8487C63.3178 23.7788 63.5168 23.8092 63.6635 23.9282C63.8095 24.0473 63.8798 24.2362 63.8469 24.4219C63.8145 24.6076 63.6835 24.761 63.5051 24.8227C63.2387 24.915 62.9465 24.7774 62.8484 24.5128C62.7497 24.2482 62.8802 23.9534 63.1428 23.8487Z" fill="var(--fill-0, #BABABA)"/>
<path id="Vector_330" d="M66.5005 21.2226C67.082 21.4605 67.3763 21.8813 66.7759 22.3353C65.9547 22.3028 65.909 21.6968 66.5005 21.2226Z" fill="var(--fill-0, #BABABA)"/>
<path id="Vector_331" d="M66.3661 26.3073C67.024 26.3837 67.3841 26.6599 66.8885 27.2727C66.1838 27.3194 65.8711 26.8456 66.3661 26.3073Z" fill="var(--fill-0, #BABABA)"/>
<path id="Vector_332" d="M66.3695 27.5987C66.7508 27.611 67.0033 27.659 67.1304 28.0479C67.1042 28.2465 67.0502 28.2818 66.9186 28.4326C66.2658 28.468 65.7774 28.211 66.3695 27.5987Z" fill="var(--fill-0, #BABABA)"/>
<path id="Vector_333" d="M66.5172 20.2065C66.7201 20.1363 66.9415 20.2427 67.0139 20.4449C67.0858 20.6471 66.981 20.8696 66.7798 20.9434C66.5758 21.0181 66.35 20.9121 66.2769 20.7073C66.2039 20.5026 66.3121 20.2777 66.5172 20.2065Z" fill="var(--fill-0, #BABABA)"/>
<path id="Vector_334" d="M0.333075 35.8333C0.627482 35.6856 0.986055 35.801 1.1392 36.0925C1.29239 36.3841 1.18363 36.7448 0.894795 36.9031C0.703188 37.0085 0.469881 37.0018 0.284462 36.8858C0.0990987 36.7704 -0.00944351 36.5636 0.000646945 36.3456C0.0106816 36.1271 0.137844 35.9314 0.333075 35.8333Z" fill="var(--fill-0, #BABABA)"/>
<path id="Vector_335" d="M62.5518 29.5817C62.7631 29.5163 62.9934 29.5704 63.1539 29.7231C63.3139 29.8758 63.3792 30.1032 63.324 30.3175C63.2688 30.5319 63.1021 30.6996 62.888 30.7561C62.5669 30.8409 62.2363 30.6531 62.1449 30.3335C62.0535 30.014 62.2341 29.6799 62.5518 29.5817Z" fill="var(--fill-0, #BABABA)"/>
</g>
</svg>
