<svg preserveAspectRatio="xMidYMid meet"  overflow="visible" viewBox="0 0 105.014 72.0001" fill="none" xmlns="http://www.w3.org/2000/svg">
<g id="Group 48095705" opacity="0.48">
<path id="Vector" d="M54.0009 33.7502L53.9147 33.7073C53.1998 33.3574 52.0179 32.9962 51.2108 32.8769C50.1537 32.7206 47.1918 33.3856 46.6509 32.3749C46.5975 32.0047 46.7174 31.7743 46.934 31.4774C47.6183 30.539 49.6073 30.8083 50.6668 30.7967C52.3941 30.7617 54.1216 30.7432 55.849 30.741C56.4486 30.7395 58.6744 30.5847 59.0424 30.6715C60.7728 31.0804 60.0998 33.0869 58.0029 32.874C57.4348 32.8164 55.55 32.883 54.8231 32.8606C55.5065 33.0705 56.1001 33.2332 56.4816 33.8989C56.7394 34.349 56.3961 34.8733 56.0341 35.1296C55.2675 35.3404 55.281 35.3703 54.5555 35.0322C54.2505 34.692 54.1321 34.1915 54.0009 33.7502Z" fill="var(--fill-0, #BABABA)"/>
<path id="Vector_2" d="M56.1316 35.2913C57.4086 35.6424 58.3492 34.9696 59.4388 35.4069C60.2078 35.7157 60.0152 37.2502 59.0087 37.4586C57.6245 37.7451 57.8373 37.2498 56.9897 37.0024C56.7581 37.3626 56.6674 37.4813 56.2365 37.5738C55.5118 37.7296 55.5433 37.4162 55.0194 37.3108C54.6799 37.2426 53.8331 37.4048 53.4426 37.4254C52.4976 37.4753 47.31 37.7208 46.8092 37.3216C46.6519 37.1963 46.6044 37.0393 46.5995 36.8447C46.5893 36.4414 46.9289 35.9665 47.2101 35.7054C47.6985 35.2518 53.3729 35.2339 54.2902 35.2495C54.6125 35.3437 54.8298 35.4111 55.1393 35.5379L56.1316 35.2913Z" fill="var(--fill-0, #BABABA)"/>
<path id="Vector_3" d="M56.0536 49.4822C56.7439 49.447 57.3224 49.5669 57.581 50.3081C57.6986 50.6468 57.6724 51.0186 57.5075 51.3371C57.2849 51.7702 57.0219 51.8999 56.585 52.0378C54.7039 52.0528 54.1943 50.3036 56.0536 49.4822Z" fill="var(--fill-0, #BABABA)"/>
<path id="Vector_4" d="M91.2405 58.3331C92.9364 58.7827 92.7573 60.5094 91.164 60.9164C89.552 60.5589 89.3631 58.8472 91.2405 58.3331Z" fill="var(--fill-0, #BABABA)"/>
<path id="Vector_5" d="M91.0089 24.6165C91.4421 24.5438 91.8805 24.7096 92.157 25.0505C92.4343 25.3914 92.5063 25.8548 92.3459 26.2637C92.1863 26.6725 91.8183 26.9638 91.3836 27.0261C90.7226 27.1207 90.1081 26.6662 90.0061 26.0064C89.9035 25.3466 90.3501 24.727 91.0089 24.6165Z" fill="var(--fill-0, #BABABA)"/>
<path id="Vector_6" d="M36.0443 36.5232C37.6714 36.4338 38.68 37.5737 37.3563 38.737C36.9853 38.8641 36.3512 38.9273 36.023 38.6678C35.1926 38.011 35.5391 37.2246 36.0443 36.5232Z" fill="var(--fill-0, #BABABA)"/>
<path id="Vector_7" d="M16.6401 15.5995C18.4252 15.5427 18.9816 17.225 17.6684 17.8499C15.9537 18.1454 15.2813 16.752 16.6401 15.5995Z" fill="var(--fill-0, #BABABA)"/>
<path id="Vector_8" d="M36.8481 34.0489C37.8285 33.9726 38.1949 34.1613 38.7501 34.9645C38.6389 35.5724 38.6537 35.9186 38.1056 36.2544C36.4543 36.5781 35.681 35.4352 36.8481 34.0489Z" fill="var(--fill-0, #BABABA)"/>
<path id="Vector_9" d="M36.4462 41.7823C38.1616 41.9778 38.1665 43.7999 36.5313 44.0832C34.9975 44.0293 34.7715 42.0865 36.4462 41.7823Z" fill="var(--fill-0, #BABABA)"/>
<path id="Vector_10" d="M36.5632 44.401C37.743 44.3155 37.843 44.3358 38.11 45.4922C37.893 46.2431 37.8928 46.3225 37.2231 46.6928C35.7063 46.8366 35.1063 44.9136 36.5632 44.401Z" fill="var(--fill-0, #BABABA)"/>
<path id="Vector_11" d="M49.4178 42.4538C49.6224 42.1459 49.8492 41.8601 50.2217 41.8201C51.2765 41.7069 51.7579 43.2552 51.0571 43.9334C50.7305 44.2489 50.404 44.3103 49.9994 44.3965C49.3119 43.9903 49.1154 43.9199 49.1659 43.0408C49.2963 42.8063 49.3278 42.7098 49.4178 42.4538Z" fill="var(--fill-0, #BABABA)"/>
<path id="Vector_12" d="M93.8665 63.5589C94.6444 63.6196 94.9967 63.9756 95.3376 64.6298C95.2125 65.41 95.2125 65.6123 94.5005 66.0088C93.9774 66.0642 93.4341 65.9608 93.1808 65.4752C92.6809 64.5159 93.1395 63.9943 93.8665 63.5589Z" fill="var(--fill-0, #BABABA)"/>
<path id="Vector_13" d="M38.2844 31.7148C39.9587 31.7117 40.4113 33.2745 38.8796 34.179C38.2442 34.1761 37.7139 33.6408 37.3634 33.1707L37.385 33.0804C37.5487 32.4164 37.6973 32.0737 38.2844 31.7148Z" fill="var(--fill-0, #BABABA)"/>
<path id="Vector_14" d="M13.6376 24.597C15.1177 24.4652 15.5828 26.1692 14.2245 26.9774C12.6922 27.1726 12.1198 25.3732 13.6376 24.597Z" fill="var(--fill-0, #BABABA)"/>
<path id="Vector_15" d="M51.3604 44.0885C53.0229 44.0031 53.0619 45.8519 51.5568 46.402C51.1396 46.3908 50.5936 46.3121 50.3809 45.9291C49.8664 45.0013 50.7762 44.4198 51.3604 44.0885Z" fill="var(--fill-0, #BABABA)"/>
<path id="Vector_16" d="M38.0158 46.6426C38.4196 46.7303 38.8566 46.9671 38.9947 47.3605C39.3389 48.3423 38.6714 48.8377 37.9616 49.1562C36.4875 48.9261 36.2921 47.2459 38.0158 46.6426Z" fill="var(--fill-0, #BABABA)"/>
<path id="Vector_17" d="M69.243 47.1589C69.7443 47.2339 70.2532 47.5044 70.4428 47.9998C70.5537 48.2891 70.5425 48.6106 70.4128 48.8924C70.2083 49.339 69.9437 49.5166 69.5083 49.6785C67.9907 49.3285 67.7523 47.697 69.243 47.1589Z" fill="var(--fill-0, #BABABA)"/>
<path id="Vector_18" d="M99.2332 61.1719C99.7878 61.1577 100.233 61.3308 100.485 61.8584C100.632 62.1627 100.641 62.5149 100.511 62.8267C100.347 63.2164 100.142 63.364 99.7653 63.5057C99.6124 63.5049 99.3089 63.5049 99.1695 63.4592C98.8248 63.3475 98.543 63.0972 98.3893 62.769C98.2627 62.5007 98.2522 62.1919 98.3609 61.9154C98.5392 61.4627 98.8158 61.3406 99.2332 61.1719Z" fill="var(--fill-0, #BABABA)"/>
<path id="Vector_19" d="M70.3334 34.9389C71.7221 35.0058 71.9987 36.9083 70.3964 37.3125C68.9132 37.2466 68.6359 35.5967 70.3334 34.9389Z" fill="var(--fill-0, #BABABA)"/>
<path id="Vector_20" d="M71.2785 37.4139C72.2722 37.5971 72.629 39.58 70.8243 39.7919C70.3934 39.7318 69.8845 39.4761 69.8096 39.0392C69.6222 37.9563 70.547 37.6101 71.2785 37.4139Z" fill="var(--fill-0, #BABABA)"/>
<path id="Vector_21" d="M25.0381 15.0441C25.6596 14.8859 26.2909 15.2645 26.444 15.8873C26.5971 16.51 26.2133 17.1382 25.5893 17.2862C24.9725 17.4325 24.3532 17.0541 24.2018 16.4385C24.0505 15.823 24.4238 15.2005 25.0381 15.0441Z" fill="var(--fill-0, #BABABA)"/>
<path id="Vector_22" d="M98.9304 63.7912C100.358 63.9891 100.92 65.5457 99.4161 66.1325C97.6879 66.1535 97.4436 64.6523 98.9304 63.7912Z" fill="var(--fill-0, #BABABA)"/>
<path id="Vector_23" d="M54.5907 47.6746C55.9622 47.6289 56.3309 49.2686 54.8133 49.9424C53.1226 49.9439 52.876 48.3506 54.5907 47.6746Z" fill="var(--fill-0, #BABABA)"/>
<path id="Vector_24" d="M35.9103 39.2137C37.5734 39.0413 38.194 40.6065 36.9897 41.3691C35.592 41.4547 35.1887 41.3234 35.383 39.7931C35.5916 39.5031 35.6425 39.4575 35.9103 39.2137Z" fill="var(--fill-0, #BABABA)"/>
<path id="Vector_25" d="M39.4168 48.9688C40.0485 49.094 40.2367 49.6928 40.4225 50.2317C40.0383 50.9091 39.8245 51.1894 39.078 51.4232C37.6023 50.79 37.6719 49.2986 39.4168 48.9688Z" fill="var(--fill-0, #BABABA)"/>
<path id="Vector_26" d="M55.3349 37.7916C55.5935 37.8182 55.7936 37.8173 56.0544 37.8184C56.866 38.5617 57.1253 39.2998 56.1218 40.0455C55.532 40.0549 54.8268 39.96 54.5285 39.3746C54.4139 39.1545 54.3959 38.8972 54.4776 38.6631C54.6462 38.1755 54.9062 38.0188 55.3349 37.7916Z" fill="var(--fill-0, #BABABA)"/>
<path id="Vector_27" d="M70.8827 40.047C72.7886 39.9459 72.6731 41.8456 71.5932 42.2621C69.856 42.3993 69.5405 40.6096 70.8827 40.047Z" fill="var(--fill-0, #BABABA)"/>
<path id="Vector_28" d="M95.8915 61.9573C96.4933 61.7834 97.1235 62.1267 97.3042 62.727C97.4848 63.3273 97.1483 63.9606 96.5502 64.1472C96.1575 64.2701 95.7288 64.1726 95.4283 63.8916C95.1278 63.6106 95.0011 63.1901 95.0971 62.7899C95.193 62.3897 95.4965 62.072 95.8915 61.9573Z" fill="var(--fill-0, #BABABA)"/>
<path id="Vector_29" d="M94.9284 68.7397C95.5003 68.7877 95.9192 68.9541 96.1208 69.5394C96.2362 69.8811 96.1987 70.2558 96.0189 70.5683C95.8293 70.9041 95.6142 70.9648 95.2627 71.0757C94.2322 71.0247 94.1033 70.6875 93.9384 69.7709C94.1768 69.1069 94.2457 68.9443 94.9284 68.7397Z" fill="var(--fill-0, #BABABA)"/>
<path id="Vector_30" d="M67.6212 49.3885C69.225 49.4485 69.7174 50.754 68.3377 51.7432C67.4361 51.7222 67.1243 51.2119 66.7054 50.5037C66.9819 49.9258 67.1416 49.7752 67.6212 49.3885Z" fill="var(--fill-0, #BABABA)"/>
<path id="Vector_31" d="M69.2774 32.6835C70.6227 32.6897 71.205 34.167 69.5547 34.9092C69.3434 34.9395 69.1463 34.958 68.935 34.8993C68.6944 34.8316 68.4913 34.6712 68.3691 34.4535C67.8955 33.5916 68.5662 33.0061 69.2774 32.6835Z" fill="var(--fill-0, #BABABA)"/>
<path id="Vector_32" d="M100.988 46.1757C101.579 45.9883 102.211 46.3068 102.412 46.8936C102.612 47.4804 102.306 48.1197 101.724 48.3318C101.335 48.4734 100.901 48.394 100.589 48.1249C100.276 47.8551 100.134 47.4377 100.217 47.033C100.3 46.6291 100.595 46.3008 100.988 46.1757Z" fill="var(--fill-0, #BABABA)"/>
<path id="Vector_33" d="M97.5455 68.383C98.806 68.7705 99.1725 70.1944 97.7358 70.7415C97.0553 70.6853 96.6012 70.5474 96.4333 69.7844C96.3599 69.4584 96.4311 69.1174 96.6274 68.8476C96.8777 68.5074 97.1543 68.4572 97.5455 68.383Z" fill="var(--fill-0, #BABABA)"/>
<path id="Vector_34" d="M70.864 42.5908C72.5105 42.5446 72.5847 44.3171 71.4291 44.8604C69.6874 44.7735 69.3719 42.9777 70.864 42.5908Z" fill="var(--fill-0, #BABABA)"/>
<path id="Vector_35" d="M67.9315 30.5164C68.8196 30.4792 69.2632 31.2589 68.9342 32.0389C68.7049 32.5841 68.4388 32.6777 67.9127 32.9039C67.8266 32.8901 67.5912 32.8492 67.5305 32.8104C66.2287 31.9762 66.7998 30.9855 67.9315 30.5164Z" fill="var(--fill-0, #BABABA)"/>
<path id="Vector_36" d="M100.136 53.5314C101.825 53.7592 101.832 55.4837 100.504 55.8127C98.9739 55.6748 98.5295 54.092 100.136 53.5314Z" fill="var(--fill-0, #BABABA)"/>
<path id="Vector_37" d="M39.8759 29.7753C40.6848 29.726 41.5477 30.2916 41.2597 31.1879C41.0958 31.6982 40.7033 31.8337 40.2652 32.0613C39.5165 32.0367 39.1376 31.5813 38.8915 30.9286C39.2156 30.3253 39.2791 30.1428 39.8759 29.7753Z" fill="var(--fill-0, #BABABA)"/>
<path id="Vector_38" d="M66.0324 51.188C67.6954 51.3746 67.8655 52.5714 66.584 53.5929C65.3654 53.7338 64.5455 52.1367 66.0324 51.188Z" fill="var(--fill-0, #BABABA)"/>
<path id="Vector_39" d="M102.368 36.3046C102.973 36.1484 103.59 36.5118 103.746 37.1163C103.902 37.7208 103.539 38.3376 102.935 38.4942C102.33 38.6507 101.712 38.2874 101.556 37.6827C101.4 37.078 101.763 36.4609 102.368 36.3046Z" fill="var(--fill-0, #BABABA)"/>
<path id="Vector_40" d="M82.8857 67.4739C84.4004 67.8397 84.3659 69.4442 83.0941 69.9096C82.5785 69.8601 82.1138 69.6998 81.949 69.1774C81.6409 68.2009 82.1356 67.7887 82.8857 67.4739Z" fill="var(--fill-0, #BABABA)"/>
<path id="Vector_41" d="M92.1533 68.6723C93.8455 68.5913 94.1985 70.1794 92.9417 70.9056C91.4166 70.9978 90.8365 69.5259 92.1533 68.6723Z" fill="var(--fill-0, #BABABA)"/>
<path id="Vector_42" d="M102.247 24.6509C102.84 24.5053 103.441 24.8573 103.603 25.4454C103.766 26.0335 103.432 26.6443 102.848 26.8239C102.456 26.9447 102.029 26.8427 101.733 26.5574C101.437 26.2722 101.32 25.8489 101.428 25.4524C101.535 25.0559 101.849 24.7488 102.247 24.6509Z" fill="var(--fill-0, #BABABA)"/>
<path id="Vector_43" d="M95.1353 19.8764C96.135 20.1018 96.1545 20.6182 96.3224 21.5189C95.9334 21.9325 95.6861 22.0959 95.2065 22.3591C94.4271 22.5306 93.2737 20.4469 95.1353 19.8764Z" fill="var(--fill-0, #BABABA)"/>
<path id="Vector_44" d="M57.8733 24.3988C59.5655 24.3683 59.4299 26.0515 58.206 26.6872C56.54 26.4524 56.4531 24.6165 57.8733 24.3988Z" fill="var(--fill-0, #BABABA)"/>
<path id="Vector_45" d="M100.291 51.05C101.88 50.9466 102.345 52.4919 101.069 53.2414C99.4393 53.2129 98.8232 51.8872 100.291 51.05Z" fill="var(--fill-0, #BABABA)"/>
<path id="Vector_46" d="M52.9105 45.8759C54.294 45.8377 54.6177 47.6026 53.0267 48.1497C51.3527 48.119 51.4531 46.6036 52.9105 45.8759Z" fill="var(--fill-0, #BABABA)"/>
<path id="Vector_47" d="M89.7746 68.3642C89.836 68.3635 89.8967 68.3635 89.9582 68.3642C91.3559 68.3935 91.6032 69.8279 90.5705 70.6613C88.8887 70.7632 88.4975 69.1197 89.7746 68.3642Z" fill="var(--fill-0, #BABABA)"/>
<path id="Vector_48" d="M13.57 58.4005C14.1353 58.3817 14.5338 58.4709 14.8222 59.018C14.9694 59.2923 14.9961 59.616 14.896 59.9106C14.7587 60.3138 14.5588 60.4532 14.1988 60.6308C12.7663 60.9313 12.126 59.1851 13.57 58.4005Z" fill="var(--fill-0, #BABABA)"/>
<path id="Vector_49" d="M103.743 26.6945C104.293 26.6796 104.708 26.9359 104.92 27.4501C105.054 27.7669 105.044 28.1261 104.892 28.4347C104.717 28.787 104.533 28.8505 104.177 28.9696C104.057 28.9586 103.937 28.9445 103.818 28.9273C103.192 28.832 102.627 28.4012 102.791 27.6917C102.917 27.1442 103.294 26.9542 103.743 26.6945Z" fill="var(--fill-0, #BABABA)"/>
<path id="Vector_50" d="M99.2917 58.6306C100.85 58.5616 101.469 60.0747 100.05 60.7905C99.5247 60.8347 99.0826 60.7957 98.7423 60.3363C98.5707 60.1047 98.5085 59.8102 98.5699 59.5292C98.6689 59.0555 98.9162 58.8839 99.2917 58.6306Z" fill="var(--fill-0, #BABABA)"/>
<path id="Vector_51" d="M102.542 33.887C102.732 33.8896 103.124 33.8958 103.297 33.9479C104.315 34.2545 104.47 35.5499 103.543 36.0497C101.909 36.126 101.263 34.9472 102.542 33.887Z" fill="var(--fill-0, #BABABA)"/>
<path id="Vector_52" d="M87.9107 19.2775C89.4823 19.2384 89.8135 20.8836 88.529 21.5181C87.156 21.8088 86.4973 19.9803 87.9107 19.2775Z" fill="var(--fill-0, #BABABA)"/>
<path id="Vector_53" d="M55.6175 56.3096C57.1148 56.5172 57.2535 58.1982 55.7554 58.6546C55.6197 58.6373 55.4863 58.6029 55.3597 58.5512C54.7219 58.2874 54.4034 57.4795 54.7429 56.8702C54.9392 56.5164 55.2592 56.4333 55.6175 56.3096Z" fill="var(--fill-0, #BABABA)"/>
<path id="Vector_54" d="M10.473 19.4314C11.658 19.2618 12.1082 21.1282 10.6121 21.803C9.20821 21.5996 8.8152 20.0317 10.473 19.4314Z" fill="var(--fill-0, #BABABA)"/>
<path id="Vector_55" d="M70.0449 44.9946C71.7401 44.8679 72.156 46.3451 70.7838 47.2287C70.0044 47.2586 69.6582 46.8487 69.288 46.2342C69.4528 45.5896 69.4963 45.3611 70.0449 44.9946Z" fill="var(--fill-0, #BABABA)"/>
<path id="Vector_56" d="M84.8208 67.7722C85.6512 67.746 86.4066 67.9364 86.3796 69.0673C86.3706 69.4217 86.0791 69.7837 85.7943 70.0003C84.1658 70.3226 83.8038 68.6513 84.8208 67.7722Z" fill="var(--fill-0, #BABABA)"/>
<path id="Vector_57" d="M103.315 29.1832C103.695 29.0368 104.124 29.1083 104.436 29.3697C104.747 29.6313 104.891 30.0415 104.813 30.4405C104.734 30.8395 104.445 31.1642 104.057 31.2881C103.483 31.4719 102.866 31.1653 102.665 30.5958C102.464 30.0264 102.753 29.4005 103.315 29.1832Z" fill="var(--fill-0, #BABABA)"/>
<path id="Vector_58" d="M100.65 48.6548C102.22 48.69 102.718 50.1267 101.476 50.8364C99.8508 50.8416 99.2175 49.5436 100.65 48.6548Z" fill="var(--fill-0, #BABABA)"/>
<path id="Vector_59" d="M53.1488 56.3628C53.7259 56.4737 54.1366 56.5674 54.3427 57.1782C54.5908 57.9126 54.1628 58.4575 53.4921 58.6846C53.3355 58.6846 53.0889 58.6508 52.9405 58.6044C52.6879 58.5257 52.4758 58.3518 52.3499 58.1187C51.949 57.3581 52.4616 56.6896 53.1488 56.3628Z" fill="var(--fill-0, #BABABA)"/>
<path id="Vector_60" d="M87.4063 68.0667C87.8717 68.042 88.3311 68.1649 88.6069 68.5681C88.7943 68.8371 88.8565 69.1744 88.7763 69.4929C88.6564 69.9815 88.4683 70.1262 88.0606 70.36C86.7701 70.62 86.0259 68.9473 87.4063 68.0667Z" fill="var(--fill-0, #BABABA)"/>
<path id="Vector_61" d="M41.7746 27.9529C43.2511 28.1447 43.5762 29.4689 42.1722 30.3157C40.6688 30.2895 40.4003 28.8418 41.7746 27.9529Z" fill="var(--fill-0, #BABABA)"/>
<path id="Vector_62" d="M83.2874 19.2814C84.832 19.3158 84.9557 21.0413 83.6794 21.6027C83.0993 21.5946 82.6729 21.3833 82.4691 20.8113C82.3477 20.4712 82.3784 20.0951 82.5552 19.7798C82.7419 19.4383 82.9352 19.3931 83.2874 19.2814Z" fill="var(--fill-0, #BABABA)"/>
<path id="Vector_63" d="M45.9618 25.3521C47.0186 25.2891 47.4215 26.2284 47.0332 27.1337C46.8795 27.4924 46.5159 27.5668 46.1658 27.671C44.7279 27.4985 44.6329 26.0332 45.9618 25.3521Z" fill="var(--fill-0, #BABABA)"/>
<path id="Vector_64" d="M52.7351 24.0075C54.4648 23.8777 54.7054 25.3953 53.5175 26.1694C52.1596 26.5291 51.4108 24.7875 52.7351 24.0075Z" fill="var(--fill-0, #BABABA)"/>
<path id="Vector_65" d="M102.104 38.7589C102.223 38.7632 102.41 38.7801 102.524 38.805C102.83 38.8734 103.097 39.06 103.265 39.324C103.662 39.9527 103.369 40.676 102.759 41.0293C101.111 40.9929 100.605 39.4131 102.104 38.7589Z" fill="var(--fill-0, #BABABA)"/>
<path id="Vector_66" d="M80.3931 67.3937C81.8853 67.2903 82.0959 69.1444 80.7649 69.6967C80.2058 69.6353 79.7943 69.4562 79.5687 68.9046C79.4421 68.5936 79.4578 68.2428 79.6115 67.9438C79.8011 67.5706 80.0087 67.5324 80.3931 67.3937Z" fill="var(--fill-0, #BABABA)"/>
<path id="Vector_67" d="M12.6668 19.288C13.1583 19.2887 13.6635 19.414 13.8487 19.9011C14.19 20.7994 13.6943 21.2983 12.9734 21.608C12.6075 21.5415 12.4498 21.4422 12.1225 21.281C11.8693 20.7393 11.8522 20.6173 11.7247 20.0411C12.0546 19.6172 12.1677 19.4756 12.6668 19.288Z" fill="var(--fill-0, #BABABA)"/>
<path id="Vector_68" d="M80.6052 19.3647C81.3801 19.3081 82.1505 19.3534 82.167 20.4514C82.1745 20.9153 81.8703 21.2662 81.533 21.565C80.0042 21.8238 79.5845 20.2029 80.6052 19.3647Z" fill="var(--fill-0, #BABABA)"/>
<path id="Vector_69" d="M7.72101 23.0045C8.9294 23.1472 9.63357 24.5026 8.25805 25.2857C6.61963 25.2865 6.20752 23.5035 7.72101 23.0045Z" fill="var(--fill-0, #BABABA)"/>
<path id="Vector_70" d="M55.2375 23.9977C56.944 23.9934 56.9874 25.6447 55.9652 26.2635C55.1341 26.2419 54.3449 25.9579 54.5106 24.8594C54.5705 24.4589 54.901 24.2024 55.2375 23.9977Z" fill="var(--fill-0, #BABABA)"/>
<path id="Vector_71" d="M18.7901 11.0939C19.9194 11.1164 20.502 13.2729 18.7802 13.4697C17.1385 12.6852 17.4291 11.8584 18.7901 11.0939Z" fill="var(--fill-0, #BABABA)"/>
<path id="Vector_72" d="M99.7653 56.075C99.9527 56.072 100.148 56.081 100.321 56.1589C100.642 56.3006 100.892 56.5659 101.015 56.8949C101.12 57.1692 101.107 57.4749 100.977 57.7387C100.809 58.0745 100.62 58.1614 100.285 58.2836C99.7323 58.2746 99.2032 58.1584 98.9349 57.6098C98.824 57.3835 98.8083 57.122 98.89 56.8829C99.0459 56.4295 99.3629 56.2721 99.7653 56.075Z" fill="var(--fill-0, #BABABA)"/>
<path id="Vector_73" d="M64.0861 52.7827C64.5103 52.761 64.9794 52.8704 65.2395 53.2473C65.7716 54.0193 65.4845 54.5034 64.8333 55.0205C64.2652 55.0565 63.841 54.9538 63.5023 54.4412C63.3247 54.1699 63.2715 53.8364 63.3546 53.5231C63.4611 53.1109 63.7391 52.9775 64.0861 52.7827Z" fill="var(--fill-0, #BABABA)"/>
<path id="Vector_74" d="M23.1601 10.4153C23.2682 10.4298 23.376 10.447 23.4833 10.467C24.7494 10.7111 24.8093 12.0831 23.7289 12.7465C22.3202 12.8692 21.7814 11.2583 23.1601 10.4153Z" fill="var(--fill-0, #BABABA)"/>
<path id="Vector_75" d="M14.8681 19.3591C15.7673 19.3035 16.5729 19.6125 16.299 20.7775C16.2202 21.1128 15.9137 21.3836 15.6143 21.5552C14.2253 21.8345 13.6912 20.065 14.8681 19.3591Z" fill="var(--fill-0, #BABABA)"/>
<path id="Vector_76" d="M78.3067 19.3642C79.1116 19.3168 79.8175 19.447 79.7793 20.5327C79.7628 20.9885 79.4473 21.3112 79.0891 21.5739C77.5647 21.7606 77.178 20.1083 78.3067 19.3642Z" fill="var(--fill-0, #BABABA)"/>
<path id="Vector_77" d="M101.842 41.2389C102.464 41.3394 102.83 41.4022 103.061 42.0673C103.309 42.7827 102.858 43.2881 102.226 43.5129L102.128 43.4934C100.569 43.1743 100.468 41.9867 101.842 41.2389Z" fill="var(--fill-0, #BABABA)"/>
<path id="Vector_78" d="M85.5927 19.2781C87.219 19.2415 87.3179 21.0648 86.0859 21.5522C85.5418 21.5352 85.161 21.4355 84.8987 20.912C84.7496 20.619 84.7294 20.2767 84.8448 19.9685C84.9984 19.5443 85.2015 19.4459 85.5927 19.2781Z" fill="var(--fill-0, #BABABA)"/>
<path id="Vector_79" d="M44.1429 26.4686C45.2383 26.7319 45.4381 28.6026 43.8563 28.8197C42.2489 28.2156 42.5855 26.9502 44.1429 26.4686Z" fill="var(--fill-0, #BABABA)"/>
<path id="Vector_80" d="M96.3621 22.0548C96.9692 22.0035 97.4353 22.1316 97.6579 22.7633C97.7576 23.0477 97.7358 23.3603 97.5987 23.6287C97.4031 24.0136 97.176 24.0963 96.7893 24.2246C95.3204 24.224 95.0124 22.8472 96.3621 22.0548Z" fill="var(--fill-0, #BABABA)"/>
<path id="Vector_81" d="M103.142 31.4844C103.791 31.5954 103.91 31.6704 104.442 32.0464C104.484 32.9052 104.562 33.4034 103.648 33.7405C103.546 33.7248 103.445 33.7063 103.344 33.6853C102.706 33.5482 102.11 33.0936 102.298 32.3675C102.418 31.9033 102.762 31.7231 103.142 31.4844Z" fill="var(--fill-0, #BABABA)"/>
<path id="Vector_82" d="M20.914 10.2972C22.3649 10.2843 22.5746 11.951 21.2641 12.6048C20.6181 12.511 20.276 12.3816 20.0463 11.7065C19.7984 10.978 20.2694 10.492 20.914 10.2972Z" fill="var(--fill-0, #BABABA)"/>
<path id="Vector_83" d="M90.3007 19.2871C91.8123 19.204 92.1728 20.8448 90.8365 21.529C89.6247 21.7942 88.879 20.0146 90.3007 19.2871Z" fill="var(--fill-0, #BABABA)"/>
<path id="Vector_84" d="M82.3004 63.8736C83.175 64.007 83.1975 64.1337 83.5168 64.8951C83.3601 65.6078 83.3601 65.8919 82.6204 66.1482C82.0539 66.1235 81.6664 66.0455 81.4138 65.4617C81.2999 65.1942 81.2977 64.8921 81.4071 64.6223C81.5914 64.1584 81.8672 64.0468 82.3004 63.8736Z" fill="var(--fill-0, #BABABA)"/>
<path id="Vector_85" d="M42.4395 52.4567C42.9301 52.5144 43.419 52.8427 43.5485 53.3381C43.6235 53.6154 43.5835 53.9114 43.4377 54.1587C43.2458 54.4809 43.0032 54.6766 42.6489 54.777C40.872 54.6728 41.1377 53.2309 42.4395 52.4567Z" fill="var(--fill-0, #BABABA)"/>
<path id="Vector_86" d="M48.0838 24.599C49.6113 24.5575 49.9716 26.0825 48.7047 26.8393C47.2338 26.8917 46.7707 25.3797 48.0838 24.599Z" fill="var(--fill-0, #BABABA)"/>
<path id="Vector_87" d="M101.299 43.7947C101.873 43.5856 102.506 43.8839 102.711 44.4587C102.915 45.0343 102.612 45.6653 102.036 45.8662C101.688 45.9868 101.303 45.9254 101.01 45.7028C100.717 45.4794 100.555 45.125 100.578 44.7577C100.606 44.3223 100.889 43.9438 101.299 43.7947Z" fill="var(--fill-0, #BABABA)"/>
<path id="Vector_88" d="M52.9915 15.0747C54.6357 15.1003 54.6417 16.9796 53.4666 17.3299C51.8932 17.2905 51.6847 15.7329 52.9915 15.0747Z" fill="var(--fill-0, #BABABA)"/>
<path id="Vector_89" d="M62.4553 54.0387C63.5593 54.1212 64.2398 55.8411 62.5363 56.398C62.1661 56.3283 61.6445 56.0233 61.5021 55.6815C61.1154 54.753 61.8588 54.3535 62.4553 54.0387Z" fill="var(--fill-0, #BABABA)"/>
<path id="Vector_90" d="M96.186 54.5806C96.8485 54.5581 97.3859 54.6803 97.6849 55.3458C97.7891 55.5728 97.7921 55.8336 97.6946 56.0637C97.5545 56.3995 97.3979 56.5239 97.0823 56.6663C96.4566 56.6783 96.0264 56.7 95.6464 56.1282C95.217 55.4829 95.6307 54.9246 96.186 54.5806Z" fill="var(--fill-0, #BABABA)"/>
<path id="Vector_91" d="M8.09581 40.1466C8.6465 40.207 8.977 40.6261 8.99259 41.1645C9.00413 41.5027 8.87156 41.8299 8.62792 42.0648C8.38974 42.2941 8.23057 42.2782 7.91775 42.2784C6.31418 41.9875 6.35787 40.2513 8.09581 40.1466Z" fill="var(--fill-0, #BABABA)"/>
<path id="Vector_92" d="M23.192 63.8542C24.6222 64.2281 24.8217 65.7098 23.4773 66.1287C23.0155 66.1557 22.5228 66.0448 22.3389 65.5989C21.9514 64.6606 22.4764 64.1862 23.192 63.8542Z" fill="var(--fill-0, #BABABA)"/>
<path id="Vector_93" d="M99.7983 24.0708C100.181 23.962 100.593 24.069 100.874 24.3506C101.156 24.6321 101.263 25.0439 101.154 25.4269C101.045 25.8098 100.738 26.1039 100.351 26.1954C99.7698 26.3326 99.1852 25.9807 99.0353 25.4031C98.8855 24.8255 99.2242 24.2338 99.7983 24.0708Z" fill="var(--fill-0, #BABABA)"/>
<path id="Vector_94" d="M60.3854 55.0183C60.4971 55.0475 60.6065 55.085 60.7129 55.1292C61.7389 55.5646 61.6692 56.9825 60.2977 57.355C59.887 57.2486 59.4036 56.8596 59.2815 56.4714C58.9794 55.5129 59.7813 55.2401 60.3854 55.0183Z" fill="var(--fill-0, #BABABA)"/>
<path id="Vector_95" d="M39.7785 63.9816C40.3611 63.8332 40.9549 64.1809 41.1102 64.7617C41.2655 65.3425 40.9246 65.9406 40.3456 66.1025C39.965 66.2089 39.5565 66.1025 39.2761 65.8244C38.9957 65.5456 38.8867 65.1379 38.9906 64.7565C39.0946 64.375 39.3955 64.079 39.7785 63.9816Z" fill="var(--fill-0, #BABABA)"/>
<path id="Vector_96" d="M96.189 59.3763C96.9752 59.4625 98.0056 60.0148 97.5687 60.9239C97.4271 61.2169 97.1685 61.4357 96.856 61.5272C96.2774 61.5392 95.8045 61.4822 95.4973 60.9224C95.3751 60.7043 95.3451 60.4457 95.4148 60.2059C95.5422 59.7712 95.824 59.5936 96.189 59.3763Z" fill="var(--fill-0, #BABABA)"/>
<path id="Vector_97" d="M19.7806 19.3499C21.395 19.331 21.5516 20.8875 20.3871 21.604C18.9479 21.661 18.443 19.9865 19.7806 19.3499Z" fill="var(--fill-0, #BABABA)"/>
<path id="Vector_98" d="M76.2187 19.3529C77.7963 19.3112 77.8075 21.2162 76.4593 21.683C75.2317 21.5575 74.803 19.9344 76.2187 19.3529Z" fill="var(--fill-0, #BABABA)"/>
<path id="Vector_99" d="M27.823 63.9373C27.9658 63.9373 28.1378 63.9373 28.277 63.971C28.6197 64.0542 28.908 64.2843 29.0647 64.6006C29.4159 65.3043 29.0442 65.8521 28.3902 66.1481C26.883 66.2081 26.4784 64.7145 27.823 63.9373Z" fill="var(--fill-0, #BABABA)"/>
<path id="Vector_100" d="M40.7151 50.8986C42.1206 50.8552 42.3741 52.5721 40.8185 53.1582C39.1853 52.7205 39.3318 51.6181 40.7151 50.8986Z" fill="var(--fill-0, #BABABA)"/>
<path id="Vector_101" d="M43.5581 13.6674C43.7136 13.6566 44.2553 13.624 44.381 13.6698C45.4635 14.0632 45.3503 15.2389 44.491 15.7598C42.9586 16.0229 42.4789 14.3715 43.5581 13.6674Z" fill="var(--fill-0, #BABABA)"/>
<path id="Vector_102" d="M35.0264 63.9359C36.4017 63.8362 36.9137 65.5412 35.5989 66.1122C34.0433 66.2366 33.6408 64.5721 35.0264 63.9359Z" fill="var(--fill-0, #BABABA)"/>
<path id="Vector_103" d="M7.48959 37.7105C8.06238 37.6868 8.54329 37.6714 8.87807 38.2272C9.00675 38.4393 9.04294 38.6951 8.97812 38.9346C8.84906 39.398 8.62154 39.5773 8.23168 39.8071C6.75259 39.818 6.15012 38.454 7.48959 37.7105Z" fill="var(--fill-0, #BABABA)"/>
<path id="Vector_104" d="M7.57938 28.0492C7.9583 27.9247 8.37498 28.0164 8.66651 28.2887C8.95797 28.561 9.07796 28.9704 8.97948 29.3569C8.881 29.7434 8.57965 30.0456 8.19347 30.1451C7.62262 30.2922 7.03799 29.96 6.87221 29.3943C6.70651 28.8287 7.0194 28.2334 7.57938 28.0492Z" fill="var(--fill-0, #BABABA)"/>
<path id="Vector_105" d="M7.61406 35.233C8.19083 35.0848 8.78003 35.426 8.93861 36C9.09712 36.574 8.76654 37.1692 8.1954 37.338C7.81678 37.4499 7.40722 37.3487 7.1243 37.0734C6.84132 36.798 6.72905 36.3914 6.83052 36.0099C6.93207 35.6283 7.23162 35.3313 7.61406 35.233Z" fill="var(--fill-0, #BABABA)"/>
<path id="Vector_106" d="M46.1567 19.3645C47.8071 19.3072 47.9219 20.8553 46.718 21.6008C45.382 21.6056 44.7877 19.9391 46.1567 19.3645Z" fill="var(--fill-0, #BABABA)"/>
<path id="Vector_107" d="M96.4993 52.1817C97.9809 52.3923 98.2222 53.8454 96.9969 54.2884C95.1975 54.2734 94.9592 52.5931 96.4993 52.1817Z" fill="var(--fill-0, #BABABA)"/>
<path id="Vector_108" d="M25.4311 63.944C26.974 63.9793 27.2336 65.5793 26.0348 66.1182C25.4744 66.1511 25.0164 66.0987 24.7494 65.5441C24.3649 64.7459 24.7582 64.2506 25.4311 63.944Z" fill="var(--fill-0, #BABABA)"/>
<path id="Vector_109" d="M57.6222 55.9266C59.1308 55.7138 59.7476 57.2404 58.4766 58.0235C58.3139 58.058 58.1123 58.0947 57.9482 58.073C57.6552 58.0348 57.3906 57.8789 57.2153 57.6421C56.7416 56.9923 57.0227 56.3486 57.6222 55.9266Z" fill="var(--fill-0, #BABABA)"/>
<path id="Vector_110" d="M66.2864 28.6404C67.7621 29.0174 67.7748 30.2162 66.3884 30.9112C64.7164 30.8113 64.8258 29.3454 66.2864 28.6404Z" fill="var(--fill-0, #BABABA)"/>
<path id="Vector_111" d="M42.1349 64.0078C42.7043 63.8294 43.3111 64.1419 43.497 64.7085C43.6828 65.2758 43.3787 65.8866 42.8144 66.08C42.5163 66.1827 42.1886 66.1504 41.9156 65.993C41.6427 65.8357 41.4512 65.5681 41.3905 65.2586C41.2834 64.713 41.6041 64.1742 42.1349 64.0078Z" fill="var(--fill-0, #BABABA)"/>
<path id="Vector_112" d="M96.4041 56.9818C96.5637 56.9901 96.802 57.014 96.9497 57.0643C97.2629 57.1722 97.5133 57.412 97.6354 57.7208C97.888 58.372 97.451 58.8374 96.8852 59.0847C95.2514 59.1222 94.8438 57.4225 96.4041 56.9818Z" fill="var(--fill-0, #BABABA)"/>
<path id="Vector_113" d="M19.6649 57.7177C20.2706 57.7282 20.7994 58.0722 20.895 58.6987C20.9365 58.9805 20.8593 59.2661 20.6819 59.4879C20.4384 59.7982 20.2634 59.8229 19.8888 59.8761C19.5101 59.8708 18.974 59.7419 18.809 59.3882C18.395 58.5009 19.0681 58.0362 19.6649 57.7177Z" fill="var(--fill-0, #BABABA)"/>
<path id="Vector_114" d="M32.6307 63.9336C34.0107 63.8796 34.5027 65.5749 33.2262 66.1212C31.6667 66.2621 31.2784 64.5406 32.6307 63.9336Z" fill="var(--fill-0, #BABABA)"/>
<path id="Vector_115" d="M22.3853 19.3632C22.4444 19.3676 22.5033 19.373 22.5622 19.3796C23.6737 19.5064 23.5373 20.321 23.4093 21.1627C23.0709 21.4057 22.9699 21.4503 22.584 21.615C21.3934 21.5942 20.7718 19.7448 22.3853 19.3632Z" fill="var(--fill-0, #BABABA)"/>
<path id="Vector_116" d="M20.7135 63.9396C22.1057 63.9209 22.4448 65.5434 21.1237 66.1564C19.7521 66.2396 19.192 64.5796 20.7135 63.9396Z" fill="var(--fill-0, #BABABA)"/>
<path id="Vector_117" d="M15.9753 63.8624C17.4028 64.1899 17.6645 65.7479 16.2631 66.1197C14.7886 66.1272 14.5534 64.5661 15.9753 63.8624Z" fill="var(--fill-0, #BABABA)"/>
<path id="Vector_118" d="M30.1855 64.004C30.7586 63.8286 31.3651 64.1509 31.5417 64.7235C31.7183 65.296 31.3984 65.9031 30.8265 66.0814C30.252 66.2606 29.6414 65.939 29.4641 65.3642C29.2867 64.7894 29.6101 64.1794 30.1855 64.004Z" fill="var(--fill-0, #BABABA)"/>
<path id="Vector_119" d="M48.5648 19.353C49.0462 19.3577 49.5473 19.4025 49.7534 19.8881C50.1142 20.7384 49.7479 21.2558 49.0313 21.6003C47.6318 21.5598 47.3172 19.7872 48.5648 19.353Z" fill="var(--fill-0, #BABABA)"/>
<path id="Vector_120" d="M46.9597 63.9396C47.579 63.9029 48.0574 64.1951 48.2495 64.7984C48.3383 65.0795 48.3072 65.3845 48.1636 65.6416C47.9855 65.9631 47.8157 66.005 47.4876 66.098C46.538 66.1572 45.9777 65.6386 46.2234 64.6231C46.3167 64.2371 46.6121 64.0947 46.9597 63.9396Z" fill="var(--fill-0, #BABABA)"/>
<path id="Vector_121" d="M25.6295 10.6825C25.7744 10.7079 25.9356 10.7367 26.0703 10.7959C26.3487 10.9183 26.5655 11.1484 26.671 11.4336C26.9258 12.1065 26.5783 12.7625 25.9138 13.0033C25.2882 12.9551 24.8905 12.7108 24.7215 12.0715C24.6342 11.7478 24.687 11.4025 24.8669 11.1196C25.0707 10.7953 25.2761 10.7685 25.6295 10.6825Z" fill="var(--fill-0, #BABABA)"/>
<path id="Vector_122" d="M48.1003 55.8771L48.1876 55.8726C49.7544 55.7767 50.246 57.0755 49.0591 58.0115C47.3948 58.115 47.1578 56.4437 48.1003 55.8771Z" fill="var(--fill-0, #BABABA)"/>
<path id="Vector_123" d="M50.3262 24.1619C51.2388 24.1029 51.8951 24.3785 51.7564 25.526C51.7098 25.9122 51.4995 26.1285 51.1684 26.3244C49.5326 26.4326 49.229 24.8021 50.3262 24.1619Z" fill="var(--fill-0, #BABABA)"/>
<path id="Vector_124" d="M96.2152 49.8599C96.8275 49.8404 97.2135 49.8037 97.6212 50.3306C98.0656 50.9046 97.7163 51.5432 97.1535 51.8587C96.5127 51.8984 96.0354 51.8834 95.6501 51.2546C95.5235 51.05 95.4883 50.8012 95.5542 50.5704C95.6584 50.1972 95.9049 50.0458 96.2152 49.8599Z" fill="var(--fill-0, #BABABA)"/>
<path id="Vector_125" d="M7.64607 25.5775C9.19823 25.6971 9.50161 27.0475 8.26661 27.7783C8.15996 27.7675 8.05347 27.7541 7.94742 27.7383C6.62332 27.5343 6.37323 26.3298 7.64607 25.5775Z" fill="var(--fill-0, #BABABA)"/>
<path id="Vector_126" d="M37.4148 63.9306C38.8627 63.9643 39.2157 65.5336 37.9869 66.1587C37.4955 66.1631 37.0311 66.1159 36.7855 65.6468C36.3453 64.8067 36.7347 64.315 37.4148 63.9306Z" fill="var(--fill-0, #BABABA)"/>
<path id="Vector_127" d="M62.223 25.9265C62.6644 25.9605 63.1725 26.1821 63.4146 26.5697C63.5608 26.8058 63.6012 27.0925 63.5263 27.36C63.4079 27.7926 63.1313 27.9835 62.7701 28.1924C61.0801 28.1535 61.0366 26.8747 62.223 25.9265Z" fill="var(--fill-0, #BABABA)"/>
<path id="Vector_128" d="M65.5828 63.9486C66.1568 63.9021 66.575 64.0175 66.8396 64.5848C66.9677 64.8569 66.979 65.1702 66.871 65.4519C66.7271 65.8267 66.5323 65.9488 66.1876 66.1099C65.576 66.1317 65.1848 66.0492 64.9068 65.4272C64.7816 65.1507 64.7741 64.8352 64.8865 64.5534C65.0327 64.1771 65.2275 64.1052 65.5828 63.9486Z" fill="var(--fill-0, #BABABA)"/>
<path id="Vector_129" d="M36.7184 12.462C37.5017 12.4335 38.3002 12.5965 38.2488 13.6839C38.2302 14.0789 37.9286 14.4281 37.6116 14.6617C36.2796 14.9528 35.729 13.4647 36.7184 12.462Z" fill="var(--fill-0, #BABABA)"/>
<path id="Vector_130" d="M7.56919 30.4529C8.61435 30.4203 8.80186 30.6119 9.06469 31.5894C8.84878 32.0527 8.76709 32.2534 8.3453 32.5356C6.76617 32.525 6.11888 31.1856 7.56919 30.4529Z" fill="var(--fill-0, #BABABA)"/>
<path id="Vector_131" d="M17.3738 19.3549C19.0345 19.3588 19.181 20.8406 17.9073 21.5833C16.6318 21.7124 16.088 19.9226 17.3738 19.3549Z" fill="var(--fill-0, #BABABA)"/>
<path id="Vector_132" d="M96.3689 37.9397C97.9906 38.002 98.2972 39.5187 97.0688 40.0484C95.5153 40.042 94.9479 38.6112 96.3689 37.9397Z" fill="var(--fill-0, #BABABA)"/>
<path id="Vector_133" d="M34.0778 19.3857C34.446 19.2445 34.8617 19.3144 35.1635 19.5681C35.4652 19.8218 35.6055 20.2193 35.5297 20.6062C35.4539 20.9931 35.1742 21.3083 34.799 21.4295C34.2401 21.61 33.639 21.3125 33.4436 20.7586C33.2481 20.2047 33.5294 19.5959 34.0778 19.3857Z" fill="var(--fill-0, #BABABA)"/>
<path id="Vector_134" d="M48.1754 14.3316C49.8035 14.1802 50.0024 15.4769 49.0556 16.5788C47.3802 16.5486 47.1242 14.9731 48.1754 14.3316Z" fill="var(--fill-0, #BABABA)"/>
<path id="Vector_135" d="M58.6377 63.8586C59.1593 63.8939 59.5183 64.043 59.7379 64.5549C59.8698 64.8614 59.869 65.2099 59.7364 65.5164C59.5738 65.8956 59.3602 66.005 58.9959 66.1347C58.5335 66.101 58.0801 65.9661 57.8868 65.5246C57.4851 64.6096 57.9422 64.1996 58.6377 63.8586Z" fill="var(--fill-0, #BABABA)"/>
<path id="Vector_136" d="M98.6224 66.5012C100.255 66.406 100.331 68.1709 99.0458 68.7233C97.7711 68.4834 97.1026 67.2251 98.6224 66.5012Z" fill="var(--fill-0, #BABABA)"/>
<path id="Vector_137" d="M24.5576 19.3582C24.6838 19.3529 25.1617 19.33 25.2374 19.3677C26.3145 19.9051 26.0774 21.0727 25.1823 21.5262C23.9547 21.8066 23.2305 20.0497 24.5576 19.3582Z" fill="var(--fill-0, #BABABA)"/>
<path id="Vector_138" d="M7.56017 54.5829C8.15335 54.5664 8.59634 54.6143 8.89731 55.2071C9.0167 55.438 9.03686 55.7078 8.95322 55.9543C8.83421 56.3096 8.59237 56.5164 8.27326 56.6805C8.14495 56.6768 8.01672 56.67 7.88872 56.6596C6.69382 56.5554 6.29272 55.357 7.56017 54.5829Z" fill="var(--fill-0, #BABABA)"/>
<path id="Vector_139" d="M80.0281 63.8654C80.5325 63.9673 80.8742 64.2356 81.0039 64.749C81.0886 65.0795 81.0309 65.4302 80.8443 65.7157C80.6359 66.032 80.4388 66.0972 80.0881 66.1729C79.5927 66.0949 79.1408 65.8903 79.0096 65.3837C78.7668 64.4454 79.3439 64.1082 80.0281 63.8654Z" fill="var(--fill-0, #BABABA)"/>
<path id="Vector_140" d="M87.0331 63.9411C88.4076 63.9081 88.7238 65.5801 87.503 66.1557C86.9911 66.1429 86.5197 66.0657 86.2852 65.5674C85.8812 64.7078 86.3369 64.2566 87.0331 63.9411Z" fill="var(--fill-0, #BABABA)"/>
<path id="Vector_141" d="M7.65325 44.9863C8.2262 44.8491 8.80319 45.1961 8.95173 45.7657C9.10027 46.336 8.76579 46.9198 8.199 47.0802C7.8218 47.1866 7.41636 47.081 7.13907 46.8044C6.86185 46.5271 6.75618 46.1217 6.8629 45.744C6.96954 45.367 7.27194 45.077 7.65325 44.9863Z" fill="var(--fill-0, #BABABA)"/>
<path id="Vector_142" d="M56.3122 63.8556C57.6297 63.8841 58.0988 65.7292 56.612 66.1077C56.1488 66.0702 55.7404 65.9391 55.5545 65.4932C55.1835 64.6036 55.598 64.1689 56.3122 63.8556Z" fill="var(--fill-0, #BABABA)"/>
<path id="Vector_143" d="M78.0286 67.1644C79.5455 67.1217 79.7201 68.9038 78.3539 69.4359C77.0821 69.2973 76.6362 67.7624 78.0286 67.1644Z" fill="var(--fill-0, #BABABA)"/>
<path id="Vector_144" d="M38.9494 19.3585C39.4801 19.343 39.8959 19.323 40.1729 19.8482C40.5653 20.5923 40.1977 21.1836 39.5454 21.5288C38.9961 21.5686 38.5987 21.4136 38.3374 20.9036C38.1959 20.6279 38.1721 20.3067 38.2712 20.0132C38.4008 19.6247 38.6003 19.5223 38.9494 19.3585Z" fill="var(--fill-0, #BABABA)"/>
<path id="Vector_145" d="M7.75197 49.7789C9.17343 49.8277 9.48257 51.382 8.20291 51.9021C6.52604 51.8676 6.24193 50.2706 7.75197 49.7789Z" fill="var(--fill-0, #BABABA)"/>
<path id="Vector_146" d="M44.5675 63.9471C45.0857 63.8632 45.5339 64.0955 45.7688 64.5646C45.9159 64.8584 45.9322 65.2009 45.8138 65.5082C45.6796 65.8612 45.5266 65.9459 45.2005 66.104C43.5761 66.2254 43.2772 64.4979 44.5675 63.9471Z" fill="var(--fill-0, #BABABA)"/>
<path id="Vector_147" d="M84.6514 63.9381C85.9232 63.759 86.3489 65.8019 85.0074 66.1542L84.9137 66.1429C83.5647 65.9893 83.157 64.5361 84.6514 63.9381Z" fill="var(--fill-0, #BABABA)"/>
<path id="Vector_148" d="M41.6221 13.2043C43.0855 13.2523 43.1512 15.0768 41.9954 15.4623L41.9583 15.4609C40.331 15.4131 40.3578 13.7919 41.6221 13.2043Z" fill="var(--fill-0, #BABABA)"/>
<path id="Vector_149" d="M7.63265 56.9863C9.28006 56.9061 9.49493 58.3405 8.22051 59.0675C6.77147 59.039 6.15334 57.6271 7.63265 56.9863Z" fill="var(--fill-0, #BABABA)"/>
<path id="Vector_150" d="M46.1147 13.9543C46.5685 13.969 46.9834 14.0399 47.2295 14.4689C47.3827 14.7346 47.4222 15.0509 47.339 15.3461C47.2073 15.8202 47.0466 15.9906 46.6428 16.22C45.0728 16.2002 44.8589 14.5363 46.1147 13.9543Z" fill="var(--fill-0, #BABABA)"/>
<path id="Vector_151" d="M96.2962 45.0598C97.8655 45.0673 98.3834 46.3053 97.0996 47.126C95.5475 47.0885 94.8925 45.7927 96.2962 45.0598Z" fill="var(--fill-0, #BABABA)"/>
<path id="Vector_152" d="M18.2229 63.9373C19.775 63.9283 19.9919 65.7307 18.7408 66.1197C17.2267 66.1212 16.9239 64.6163 18.2229 63.9373Z" fill="var(--fill-0, #BABABA)"/>
<path id="Vector_153" d="M74.0656 19.3638C75.5023 19.6383 75.3989 21.1909 74.0724 21.7008C72.8298 21.4487 72.4753 19.853 74.0656 19.3638Z" fill="var(--fill-0, #BABABA)"/>
<path id="Vector_154" d="M7.58291 32.8583C8.14574 32.679 8.74806 32.9851 8.93497 33.5455C9.1218 34.1058 8.82383 34.7123 8.26609 34.9067C7.89857 35.0349 7.49043 34.9553 7.198 34.6984C6.90557 34.4415 6.77397 34.047 6.85371 33.666C6.93337 33.285 7.21201 32.9764 7.58291 32.8583Z" fill="var(--fill-0, #BABABA)"/>
<path id="Vector_155" d="M63.4064 63.8759C64.8872 64.2072 64.9427 65.7562 63.5975 66.1594C62.2185 65.9548 61.9307 64.4695 63.4064 63.8759Z" fill="var(--fill-0, #BABABA)"/>
<path id="Vector_156" d="M89.3556 64.0183C90.7458 63.9328 91.1041 65.7757 89.6929 66.2681C88.3724 66.0695 87.9414 64.5953 89.3556 64.0183Z" fill="var(--fill-0, #BABABA)"/>
<path id="Vector_157" d="M49.3968 63.8646C49.9664 63.9756 50.2935 64.079 50.5238 64.6628C50.6466 64.9663 50.6304 65.3081 50.4795 65.5988C50.3146 65.9166 50.0873 66.014 49.7695 66.1279C48.3524 66.1204 47.9749 64.5264 49.3968 63.8646Z" fill="var(--fill-0, #BABABA)"/>
<path id="Vector_158" d="M53.9822 63.8512C54.6057 63.9846 55.0029 64.1225 55.1798 64.7872C55.3701 65.5022 55.0112 65.9398 54.3599 66.1062C52.885 65.9908 52.6557 64.5894 53.9822 63.8512Z" fill="var(--fill-0, #BABABA)"/>
<path id="Vector_159" d="M27.9617 11.0441C29.3648 11.2619 29.5031 12.7221 28.2664 13.3258C26.7002 13.1986 26.5785 11.4412 27.9617 11.0441Z" fill="var(--fill-0, #BABABA)"/>
<path id="Vector_160" d="M50.9478 19.3543C52.532 19.3114 52.6722 20.8605 51.4413 21.6024C50.9411 21.6048 50.6065 21.4841 50.3515 21.0219C50.1892 20.7249 50.153 20.3751 50.2511 20.0512C50.3726 19.6405 50.5864 19.5344 50.9478 19.3543Z" fill="var(--fill-0, #BABABA)"/>
<path id="Vector_161" d="M70.2675 63.9448C71.7086 63.7514 72.0107 65.4564 70.8483 66.1699C70.6932 66.1774 70.5523 66.1684 70.3994 66.1354C70.0831 66.0687 69.8111 65.8694 69.6507 65.5891C69.2453 64.8689 69.6207 64.2948 70.2675 63.9448Z" fill="var(--fill-0, #BABABA)"/>
<path id="Vector_162" d="M7.72843 42.583C9.25631 42.5863 9.40028 44.132 8.19743 44.7218C7.64644 44.6363 7.14994 44.5711 6.88696 44.0151C6.52334 43.246 7.13136 42.8374 7.72843 42.583Z" fill="var(--fill-0, #BABABA)"/>
<path id="Vector_163" d="M72.8763 63.8759C74.232 64.1929 74.3302 65.6221 73.0801 66.1579C71.6772 66.0598 71.28 64.381 72.8763 63.8759Z" fill="var(--fill-0, #BABABA)"/>
<path id="Vector_164" d="M77.4501 63.9396C78.8515 63.8661 79.1086 65.7247 77.8098 66.1954C77.0034 66.0695 76.3694 65.6048 76.6347 64.6478C76.7494 64.2341 77.0784 64.1157 77.4501 63.9396Z" fill="var(--fill-0, #BABABA)"/>
<path id="Vector_165" d="M53.2815 19.3591C54.8763 19.2526 55.0111 20.9625 53.7978 21.5958C52.8273 21.6253 52.7479 21.189 52.5095 20.3881C52.7119 19.7632 52.7284 19.6933 53.2815 19.3591Z" fill="var(--fill-0, #BABABA)"/>
<path id="Vector_166" d="M18.9754 27.59C19.0659 27.593 19.1564 27.5992 19.2465 27.6086C19.9071 27.6836 20.5536 28.1086 20.4013 28.8508C20.3094 29.2985 19.9711 29.5112 19.625 29.7581C18.5891 29.939 17.5333 28.6604 18.9754 27.59Z" fill="var(--fill-0, #BABABA)"/>
<path id="Vector_167" d="M50.6633 14.6879C52.1506 14.9243 52.3822 16.1302 51.2008 16.9786C49.7138 17.0001 49.3644 15.4441 50.6633 14.6879Z" fill="var(--fill-0, #BABABA)"/>
<path id="Vector_168" d="M96.213 28.714C96.814 28.707 97.131 28.6653 97.5687 29.1403C98.0431 29.6556 97.8175 30.3544 97.2749 30.7357C97.2 30.7379 97.125 30.7393 97.0501 30.7401C95.6561 30.7501 94.9996 29.6413 96.213 28.714Z" fill="var(--fill-0, #BABABA)"/>
<path id="Vector_169" d="M7.78181 47.377C8.37551 47.3185 8.90342 47.7547 8.9576 48.3483C9.01171 48.9426 8.57142 49.4672 7.97689 49.5166C7.38881 49.5661 6.87124 49.1314 6.81766 48.5439C6.76407 47.9563 7.19455 47.4347 7.78181 47.377Z" fill="var(--fill-0, #BABABA)"/>
<path id="Vector_170" d="M7.82502 52.1779C8.32902 52.1719 8.79239 52.4679 8.95082 52.9543C9.04106 53.2301 9.01176 53.5306 8.87004 53.7839C8.68628 54.1107 8.446 54.2111 8.10741 54.3063C6.52595 54.1384 6.25683 52.8112 7.82502 52.1779Z" fill="var(--fill-0, #BABABA)"/>
<path id="Vector_171" d="M96.2894 47.4565C97.8797 47.3965 98.3579 48.7897 97.0868 49.5107C95.6629 49.4582 94.8475 48.3348 96.2894 47.4565Z" fill="var(--fill-0, #BABABA)"/>
<path id="Vector_172" d="M41.347 19.3599C42.2295 19.331 42.7978 19.5971 42.6647 20.6685C42.6051 21.1493 42.3197 21.3541 41.9156 21.5873C40.585 21.5861 40.1402 20.0716 41.347 19.3599Z" fill="var(--fill-0, #BABABA)"/>
<path id="Vector_173" d="M29.3639 19.3501C29.8985 19.3417 30.3563 19.3626 30.6024 19.9023C30.9282 20.617 30.5376 21.1989 29.9303 21.5181C28.6258 21.6096 28.0261 20.1336 29.3639 19.3501Z" fill="var(--fill-0, #BABABA)"/>
<path id="Vector_174" d="M57.9407 19.3543C59.4988 19.2803 59.6112 21.0849 58.4638 21.6112C57.0032 21.5558 56.7116 20.0959 57.9407 19.3543Z" fill="var(--fill-0, #BABABA)"/>
<path id="Vector_175" d="M11.175 63.9395C12.6487 63.8654 12.9951 65.6573 11.5727 66.1137C9.91253 66.2021 10.1694 64.3532 11.175 63.9395Z" fill="var(--fill-0, #BABABA)"/>
<path id="Vector_176" d="M59.9275 25.0511C61.5178 24.9759 61.8835 26.3344 60.7488 27.191C59.1443 27.3316 58.8123 25.7066 59.9275 25.0511Z" fill="var(--fill-0, #BABABA)"/>
<path id="Vector_177" d="M46.0615 55.0213C47.6704 54.8901 47.8873 56.4212 46.7415 57.2171C45.2128 57.2763 44.9719 55.8876 46.0615 55.0213Z" fill="var(--fill-0, #BABABA)"/>
<path id="Vector_178" d="M7.90912 59.3088C8.46476 59.3793 8.84165 59.5037 8.99648 60.1107C9.06603 60.3812 9.01567 60.6675 8.85821 60.8976C8.65541 61.1936 8.48199 61.2933 8.15247 61.3638C6.50236 61.2881 6.22499 59.6783 7.90912 59.3088Z" fill="var(--fill-0, #BABABA)"/>
<path id="Vector_179" d="M68.1038 63.8624C69.506 64.1262 69.6095 65.4954 68.4838 66.1354C68.3167 66.1309 68.0769 66.1219 67.9195 66.065C67.6377 65.9615 67.4061 65.7547 67.272 65.4864C66.886 64.695 67.4249 64.1614 68.1038 63.8624Z" fill="var(--fill-0, #BABABA)"/>
<path id="Vector_180" d="M50.6963 56.2886C52.167 56.3853 52.4436 57.7035 51.3946 58.3945C49.6543 58.6103 49.3498 56.8926 50.6963 56.2886Z" fill="var(--fill-0, #BABABA)"/>
<path id="Vector_181" d="M44.1441 53.9683C44.5946 53.9713 45.0903 54.116 45.3282 54.5312C45.4678 54.78 45.4927 55.0768 45.3966 55.3458C45.2293 55.8075 45.0051 55.9948 44.5851 56.1912C42.9255 55.9776 42.9815 54.9089 44.1441 53.9683Z" fill="var(--fill-0, #BABABA)"/>
<path id="Vector_182" d="M96.1073 31.0513L96.2287 31.0437C96.7968 31.0098 97.0426 30.9734 97.5065 31.376C98.0581 31.8542 97.843 32.6292 97.3236 33.0432C95.9379 33.1458 94.9397 32.1124 96.1073 31.0513Z" fill="var(--fill-0, #BABABA)"/>
<path id="Vector_183" d="M96.3726 40.3393C97.84 40.3271 98.3009 41.6868 97.1933 42.408C96.5263 42.3869 96.1216 42.4007 95.7139 41.7716C95.2972 41.1279 95.8016 40.5972 96.3726 40.3393Z" fill="var(--fill-0, #BABABA)"/>
<path id="Vector_184" d="M55.2233 15.5373C55.4511 15.5247 55.7239 15.5077 55.9375 15.5987C56.1788 15.7034 56.3684 15.899 56.4666 16.143C56.7694 16.8841 56.3025 17.4799 55.625 17.7458C54.5593 17.9348 53.9365 15.9811 55.2233 15.5373Z" fill="var(--fill-0, #BABABA)"/>
<path id="Vector_185" d="M36.5596 19.3535C37.1208 19.3388 37.5586 19.332 37.806 19.9263C38.1114 20.6596 37.7139 21.2238 37.0805 21.522C36.5832 21.5286 36.2773 21.4264 35.9953 20.982C35.8161 20.6962 35.7676 20.3475 35.8619 20.0237C35.9731 19.6431 36.2302 19.5178 36.5596 19.3535Z" fill="var(--fill-0, #BABABA)"/>
<path id="Vector_186" d="M75.0744 63.9403C76.4923 63.7844 76.7209 65.5478 75.575 66.1167C75.0819 66.1301 74.5887 66.0807 74.3729 65.5921C73.9839 64.7107 74.4171 64.2963 75.0744 63.9403Z" fill="var(--fill-0, #BABABA)"/>
<path id="Vector_187" d="M31.686 19.3643C32.5245 19.299 33.1766 19.4894 33.0627 20.5881C33.0166 21.0336 32.7247 21.2868 32.355 21.5263C30.9234 21.524 30.5164 20.0856 31.686 19.3643Z" fill="var(--fill-0, #BABABA)"/>
<path id="Vector_188" d="M43.951 19.3643C45.3274 19.3072 45.5709 21.1025 44.1323 21.6013C42.9396 21.3288 42.4005 19.7702 43.951 19.3643Z" fill="var(--fill-0, #BABABA)"/>
<path id="Vector_189" d="M26.9464 19.3567C27.7709 19.3341 28.4609 19.5841 28.2787 20.6661C28.2112 21.0668 27.9052 21.3163 27.5475 21.5001C26.2647 21.6183 25.6283 20.0483 26.9464 19.3567Z" fill="var(--fill-0, #BABABA)"/>
<path id="Vector_190" d="M29.9269 11.4125C31.5356 11.4056 31.9573 12.7747 30.7564 13.5482C30.6997 13.5575 30.6428 13.566 30.5858 13.5736C29.2555 13.7455 28.9921 12.3689 29.9269 11.4125Z" fill="var(--fill-0, #BABABA)"/>
<path id="Vector_191" d="M64.2307 27.2857C65.8031 27.2812 66.0571 28.5229 64.7306 29.4079C63.159 29.3499 62.902 28.1819 64.2307 27.2857Z" fill="var(--fill-0, #BABABA)"/>
<path id="Vector_192" d="M13.5325 63.938C14.9242 63.9598 15.2249 65.4864 14.0235 66.0987C12.4325 66.2126 12.1907 64.4244 13.5325 63.938Z" fill="var(--fill-0, #BABABA)"/>
<path id="Vector_193" d="M96.3718 35.6235C97.9659 35.6181 98.2567 37.1549 97.1355 37.6466C96.4858 37.6592 96.0406 37.6468 95.6914 37.0117C95.3234 36.3414 95.8075 35.8699 96.3718 35.6235Z" fill="var(--fill-0, #BABABA)"/>
<path id="Vector_194" d="M55.6924 19.3568C57.1875 19.3092 57.2954 21.0677 56.1428 21.6146C54.6672 21.5381 54.4581 19.9433 55.6924 19.3568Z" fill="var(--fill-0, #BABABA)"/>
<path id="Vector_195" d="M92.543 19.3631C94.1528 19.2547 94.2674 20.5071 93.3277 21.5168C92.513 21.552 91.8288 21.3424 91.8887 20.2871C91.9142 19.8372 92.1788 19.6028 92.543 19.3631Z" fill="var(--fill-0, #BABABA)"/>
<path id="Vector_196" d="M17.5677 29.1364C18.7619 29.4677 19.4731 30.5348 18.2198 31.4089C17.7004 31.4444 17.3243 31.355 17.0012 30.9067C16.8107 30.6404 16.7453 30.3045 16.8219 29.9862C16.9271 29.5471 17.2003 29.344 17.5677 29.1364Z" fill="var(--fill-0, #BABABA)"/>
<path id="Vector_197" d="M62.5805 19.3529C63.0451 19.3929 63.3989 19.4635 63.5765 19.9358C63.8598 20.6904 63.6754 21.3256 62.9327 21.6452C61.4383 21.4962 61.2757 19.8322 62.5805 19.3529Z" fill="var(--fill-0, #BABABA)"/>
<path id="Vector_198" d="M51.6159 64.0123C52.1805 63.8587 52.7628 64.1907 52.9187 64.755C53.0739 65.3193 52.7441 65.9031 52.1805 66.0598C51.6139 66.2179 51.027 65.8859 50.8708 65.3193C50.7147 64.7527 51.0487 64.1667 51.6159 64.0123Z" fill="var(--fill-0, #BABABA)"/>
<path id="Vector_199" d="M96.168 42.7537C96.7541 42.7113 97.143 42.6367 97.5642 43.1094C98.0768 43.6838 97.6804 44.3695 97.1565 44.76L96.1403 44.6378C95.4725 43.9341 95.3024 43.414 96.168 42.7537Z" fill="var(--fill-0, #BABABA)"/>
<path id="Vector_200" d="M84.9257 57.702C86.3766 57.6016 86.8218 59.0802 85.5283 59.8874C84.2055 59.8904 83.6629 58.5429 84.9257 57.702Z" fill="var(--fill-0, #BABABA)"/>
<path id="Vector_201" d="M18.8699 55.6201C20.0486 55.6126 20.5009 57.0957 18.9115 57.7754C18.0536 57.8863 17.6002 57.1122 17.9238 56.3672C18.1379 55.8741 18.4155 55.8194 18.8699 55.6201Z" fill="var(--fill-0, #BABABA)"/>
<path id="Vector_202" d="M8.31713 20.8388C8.79033 20.8664 9.13507 21.0322 9.41768 21.4308C9.61156 21.7082 9.67511 22.0563 9.59185 22.3842C9.49615 22.7657 9.19705 22.9242 8.88183 23.1076C7.31663 22.7874 7.08843 21.8617 8.31713 20.8388Z" fill="var(--fill-0, #BABABA)"/>
<path id="Vector_203" d="M75.6926 67.0167C77.2103 67.0175 77.3976 68.5493 76.2247 69.1811C74.7176 69.1152 74.3811 67.668 75.6926 67.0167Z" fill="var(--fill-0, #BABABA)"/>
<path id="Vector_204" d="M32.3789 11.7696C32.4745 11.7755 32.5699 11.7841 32.665 11.7952C33.9164 11.9503 34.057 13.2908 32.9764 13.9336C32.3366 14.0522 32.1323 13.846 31.6917 13.4106C31.6758 12.5492 31.6032 12.2166 32.3789 11.7696Z" fill="var(--fill-0, #BABABA)"/>
<path id="Vector_205" d="M87.4888 53.9705C87.8822 53.9698 88.3222 54.1489 88.5387 54.4689C89.1106 55.3173 88.6384 55.7857 88.0404 56.2218C87.3194 56.2571 86.4845 55.3323 86.7378 54.6061C86.8488 54.2875 87.2212 54.1174 87.4888 53.9705Z" fill="var(--fill-0, #BABABA)"/>
<path id="Vector_206" d="M17.3509 13.2677C17.9205 13.1369 18.4881 13.493 18.6183 14.0627C18.7484 14.6324 18.3916 15.1996 17.8218 15.3291C17.2529 15.4584 16.6868 15.1023 16.5569 14.5335C16.427 13.9648 16.7823 13.3983 17.3509 13.2677Z" fill="var(--fill-0, #BABABA)"/>
<path id="Vector_207" d="M96.1006 26.5665C96.793 26.5209 97.8947 26.5212 97.7718 27.7056C97.7343 28.0665 97.4136 28.3059 97.1078 28.4859C95.7461 28.5217 94.9052 27.5306 96.1006 26.5665Z" fill="var(--fill-0, #BABABA)"/>
<path id="Vector_208" d="M60.9722 63.9501C62.4029 63.8309 62.5468 65.73 61.4489 66.071C60.5353 66.0455 60.5136 65.8686 60.0556 65.1379C60.1786 64.2918 60.1681 64.2491 60.9722 63.9501Z" fill="var(--fill-0, #BABABA)"/>
<path id="Vector_209" d="M60.1568 19.3556C61.2937 19.3399 61.7134 20.0715 61.2682 21.1791C61.1453 21.4838 60.9182 21.5291 60.6117 21.6218C59.2965 21.5364 59.1091 20.1617 60.1568 19.3556Z" fill="var(--fill-0, #BABABA)"/>
<path id="Vector_210" d="M96.201 24.45C96.8125 24.4822 97.2202 24.4271 97.6407 24.9388C98.0566 25.4452 97.5979 26.0815 97.14 26.3442C96.5705 26.3603 95.3676 26.3674 95.4725 25.3004C95.504 24.9822 95.9267 24.6208 96.201 24.45Z" fill="var(--fill-0, #BABABA)"/>
<path id="Vector_211" d="M84.7204 25.44L85.7658 25.508C85.8085 25.5721 85.8498 25.6367 85.891 25.7018C86.4741 26.6336 86.3549 26.9806 85.4068 27.4323C84.4311 27.7079 84.1958 26.9633 84.0099 26.1644C84.2992 25.7768 84.3194 25.7194 84.7204 25.44Z" fill="var(--fill-0, #BABABA)"/>
<path id="Vector_212" d="M91.4953 64.0257C93.0211 63.9298 93.192 65.5681 92.1323 66.1894C90.7211 66.301 90.2437 64.8539 91.4953 64.0257Z" fill="var(--fill-0, #BABABA)"/>
<path id="Vector_213" d="M8.09244 61.6246C9.39669 61.8899 9.34431 63.3386 7.8916 63.771C7.25825 63.6263 7.17348 63.4667 6.80993 62.9361C7.01528 61.9551 7.17618 61.8517 8.09244 61.6246Z" fill="var(--fill-0, #BABABA)"/>
<path id="Vector_214" d="M59.57 16.1319C60.1763 16.1522 60.5675 16.1635 60.8493 16.7673C61.1386 17.3878 60.8643 18.0342 60.2692 18.3243C58.8678 18.4891 58.565 16.9655 59.57 16.1319Z" fill="var(--fill-0, #BABABA)"/>
<path id="Vector_215" d="M34.5172 12.1611C36.0918 12.0693 36.3987 13.5003 35.3409 14.2295C33.8621 14.5302 33.4189 12.9582 34.5172 12.1611Z" fill="var(--fill-0, #BABABA)"/>
<path id="Vector_216" d="M96.482 33.2944C97.9951 33.3462 98.184 35.0745 97.0591 35.3455C96.4063 35.3073 95.9807 35.2815 95.6801 34.579C95.588 34.3584 95.5939 34.109 95.6974 33.8934C95.8652 33.539 96.1343 33.4064 96.482 33.2944Z" fill="var(--fill-0, #BABABA)"/>
<path id="Vector_217" d="M39.0085 12.9077C39.769 12.8829 40.5477 13.0488 40.4999 14.0972C40.482 14.4899 40.1682 14.8001 39.8602 15.0318C39.0075 15.1167 38.7267 14.8205 38.4174 14.1057C38.5469 13.54 38.6159 13.3315 39.0085 12.9077Z" fill="var(--fill-0, #BABABA)"/>
<path id="Vector_218" d="M15.6519 30.511C16.9047 30.5113 17.5961 32.0312 16.3161 32.6376C14.9302 32.8519 14.3786 31.2354 15.6519 30.511Z" fill="var(--fill-0, #BABABA)"/>
<path id="Vector_219" d="M64.6819 19.4095C66.1261 19.3399 66.2789 21.015 65.1008 21.6904C63.7503 21.5205 63.4985 20.0926 64.6819 19.4095Z" fill="var(--fill-0, #BABABA)"/>
<path id="Vector_220" d="M13.3308 31.0448C14.8051 31.0004 15.3516 32.3225 14.1554 33.1143C12.6471 33.2175 12.2343 31.7807 13.3308 31.0448Z" fill="var(--fill-0, #BABABA)"/>
<path id="Vector_221" d="M71.3204 19.5097C72.0893 19.4583 72.7863 19.5828 72.7294 20.6561C72.7069 21.0791 72.4318 21.3892 72.0804 21.621C70.7703 21.9235 70.3379 20.3362 71.3204 19.5097Z" fill="var(--fill-0, #BABABA)"/>
<path id="Vector_222" d="M15.6159 52.6148C17.0205 52.8636 16.9495 54.1834 15.7231 54.8346C15.316 54.7882 14.808 54.6248 14.6704 54.2149C14.3703 53.3208 14.9671 52.9093 15.6159 52.6148Z" fill="var(--fill-0, #BABABA)"/>
<path id="Vector_223" d="M57.4618 15.828C59.1016 15.7676 59.0634 17.4279 58.0704 17.9978C56.7199 18.0606 56.2635 16.5641 57.4618 15.828Z" fill="var(--fill-0, #BABABA)"/>
<path id="Vector_224" d="M87.5997 29.2431C89.0648 29.2548 88.8145 30.7852 87.6769 31.4609C86.241 31.0749 86.142 29.6558 87.5997 29.2431Z" fill="var(--fill-0, #BABABA)"/>
<path id="Vector_225" d="M10.8615 31.0976C12.2586 31.0868 12.973 32.1082 11.8136 33.0966C10.3408 33.2388 9.65704 32.0188 10.8615 31.0976Z" fill="var(--fill-0, #BABABA)"/>
<path id="Vector_226" d="M85.7351 55.6299C85.8775 55.6186 86.0379 55.6059 86.1803 55.6081C86.5055 55.6164 86.8113 55.7633 87.0211 56.0121C87.5472 56.6364 87.0661 57.2561 86.5497 57.6578C85.4136 57.8572 84.5555 56.6086 85.7351 55.6299Z" fill="var(--fill-0, #BABABA)"/>
<path id="Vector_227" d="M89.3406 52.8561C89.8105 52.8201 90.222 52.8913 90.3869 53.368C90.6986 54.2673 90.3719 54.7799 89.5924 55.0655C89.2125 54.9778 88.7621 54.6225 88.6302 54.2681C88.3139 53.4182 88.6789 53.1357 89.3406 52.8561Z" fill="var(--fill-0, #BABABA)"/>
<path id="Vector_228" d="M66.7563 19.5101C67.4983 19.463 68.1076 19.563 68.1046 20.5697C68.1031 21.0377 67.8093 21.3857 67.4428 21.6653C66.0998 21.707 65.6772 20.3036 66.7563 19.5101Z" fill="var(--fill-0, #BABABA)"/>
<path id="Vector_229" d="M85.9659 27.5336C87.548 27.4106 87.4903 28.8279 86.3661 29.5874C85.0246 29.4474 84.4483 28.1029 85.9659 27.5336Z" fill="var(--fill-0, #BABABA)"/>
<path id="Vector_230" d="M61.8198 16.4906C63.3299 16.5937 63.6319 17.7052 62.615 18.664C62.4973 18.6722 62.3474 18.682 62.232 18.6727C61.9367 18.6464 61.6662 18.4987 61.4841 18.265C60.9969 17.6498 61.2375 16.9345 61.8198 16.4906Z" fill="var(--fill-0, #BABABA)"/>
<path id="Vector_231" d="M73.161 66.8773C73.7336 66.8571 74.1638 66.7949 74.4995 67.393C74.8338 67.9888 74.5767 68.613 73.9892 68.9203C72.6911 69.0822 72.1268 67.7684 73.161 66.8773Z" fill="var(--fill-0, #BABABA)"/>
<path id="Vector_232" d="M69.0549 19.5131C69.1178 19.5083 69.1808 19.5045 69.2437 19.5015C70.6047 19.442 70.7329 20.8073 69.7316 21.6638C68.3811 21.7351 67.9959 20.1914 69.0549 19.5131Z" fill="var(--fill-0, #BABABA)"/>
<path id="Vector_233" d="M91.0246 31.1965C91.212 31.1863 91.4196 31.1742 91.6039 31.2078C91.9037 31.2636 92.1675 31.4393 92.3346 31.6945C92.7146 32.2787 92.3376 32.8582 91.8303 33.1867C90.3614 33.5923 90.0653 32.1276 91.0246 31.1965Z" fill="var(--fill-0, #BABABA)"/>
<path id="Vector_234" d="M19.653 25.4154C21.109 25.4127 21.5694 26.7097 20.3797 27.4531C19.0304 27.4721 18.4064 26.3426 19.653 25.4154Z" fill="var(--fill-0, #BABABA)"/>
<path id="Vector_235" d="M54.1343 39.8695C54.6244 39.8535 55.0291 39.9662 55.3349 40.3831C55.502 40.6077 55.5702 40.891 55.5238 41.1673C55.4511 41.5903 55.236 41.7356 54.9062 41.9701C54.2737 42.0877 53.6509 41.8185 53.6052 41.104C53.5655 40.4905 53.7513 40.3089 54.1343 39.8695Z" fill="var(--fill-0, #BABABA)"/>
<path id="Vector_236" d="M19.7803 23.2593C19.9104 23.2512 20.3319 23.2182 20.4324 23.261C21.3749 23.663 21.3656 24.7896 20.4609 25.1859C19.0239 25.1928 18.4667 24.0307 19.7803 23.2593Z" fill="var(--fill-0, #BABABA)"/>
<path id="Vector_237" d="M84.85 23.2812C85.3724 23.0971 85.945 23.3674 86.1353 23.8874C86.3257 24.4074 86.0619 24.9836 85.544 25.1797C85.2038 25.3086 84.8208 25.2446 84.5405 25.0122C84.2602 24.7797 84.1268 24.4147 84.1913 24.0564C84.255 23.6982 84.5068 23.4021 84.85 23.2812Z" fill="var(--fill-0, #BABABA)"/>
<path id="Vector_238" d="M89.2777 30.5879C89.3833 30.5896 89.522 30.5927 89.6239 30.6116C89.8877 30.6603 90.1178 30.8194 90.2557 31.0488C90.6402 31.6788 90.0196 32.4394 89.453 32.7253C88.1475 32.4896 87.9085 31.1993 89.2777 30.5879Z" fill="var(--fill-0, #BABABA)"/>
<path id="Vector_239" d="M70.8565 66.7275C72.3719 66.6353 72.8463 67.8898 71.7656 68.6693C70.3027 68.8866 69.874 67.4552 70.8565 66.7275Z" fill="var(--fill-0, #BABABA)"/>
<path id="Vector_240" d="M48.9123 42.9306C48.5718 43.2057 48.0897 43.2199 47.7336 42.9652C47.3776 42.7105 47.2354 42.2495 47.3858 41.8385C47.5363 41.4275 47.9426 41.1673 48.3788 41.2027C48.8151 41.238 49.1743 41.5601 49.2566 41.99C49.3019 42.1604 49.3219 42.3185 49.4178 42.4538C49.3278 42.7098 49.2963 42.8063 49.1659 43.0409L48.9123 42.9306Z" fill="var(--fill-0, #BABABA)"/>
<path id="Vector_241" d="M63.9864 16.7999C65.3856 16.7832 65.7656 18.0624 64.6617 18.9001C63.2325 18.9324 62.9672 17.4055 63.9864 16.7999Z" fill="var(--fill-0, #BABABA)"/>
<path id="Vector_242" d="M9.09645 63.5132C9.4549 63.4495 9.8195 63.5851 10.0491 63.8676C10.2787 64.1502 10.3371 64.5346 10.2018 64.8726C10.0665 65.2106 9.75865 65.4482 9.39757 65.4947C8.8579 65.5629 8.362 65.1881 8.28023 64.6508C8.19854 64.1127 8.56075 63.6076 9.09645 63.5132Z" fill="var(--fill-0, #BABABA)"/>
<path id="Vector_243" d="M13.1491 52.5519C13.2944 52.5444 13.4233 52.5301 13.5644 52.5729C13.8404 52.659 14.0693 52.8539 14.1981 53.1125C14.5194 53.7615 14.1871 54.2958 13.5951 54.5971C12.1698 54.5799 11.8773 53.2811 13.1491 52.5519Z" fill="var(--fill-0, #BABABA)"/>
<path id="Vector_244" d="M93.545 31.3361C94.7958 31.3378 95.2192 32.8618 93.802 33.4259C92.4418 33.1624 92.3564 32.0634 93.545 31.3361Z" fill="var(--fill-0, #BABABA)"/>
<path id="Vector_245" d="M52.5305 40.9253C53.6944 41.0724 54.0324 42.6329 52.5553 42.9307C51.1299 42.6078 51.1224 41.4189 52.5305 40.9253Z" fill="var(--fill-0, #BABABA)"/>
<path id="Vector_246" d="M17.4052 53.9496C18.9274 54.3475 18.719 55.3593 17.4897 56.0233C17.2336 56.0465 16.7075 55.8891 16.5829 55.6486C16.1729 54.8564 16.7993 54.3236 17.4052 53.9496Z" fill="var(--fill-0, #BABABA)"/>
<path id="Vector_247" d="M68.4621 66.5836C68.9335 66.5559 69.3202 66.4824 69.7174 66.7927C70.3035 67.2491 70.0082 68.0038 69.5735 68.4624C68.2462 68.5703 67.5066 67.3982 68.4621 66.5836Z" fill="var(--fill-0, #BABABA)"/>
<path id="Vector_248" d="M10.851 52.6628C11.1911 52.5669 11.5564 52.6621 11.8066 52.9116C12.0567 53.1612 12.1525 53.5262 12.0573 53.8664C11.9619 54.2066 11.6903 54.4689 11.347 54.5521C10.8297 54.678 10.3071 54.3663 10.1719 53.8514C10.0367 53.3365 10.3388 52.8082 10.851 52.6628Z" fill="var(--fill-0, #BABABA)"/>
<path id="Vector_249" d="M84.8058 60.2059C86.2702 60.059 86.7289 61.4492 85.4601 62.03C84.1358 62.1957 83.6974 60.9036 84.8058 60.2059Z" fill="var(--fill-0, #BABABA)"/>
<path id="Vector_250" d="M91.4218 52.6763C91.9472 52.5654 92.4628 52.9011 92.5752 53.4265C92.6869 53.9519 92.3526 54.4682 91.828 54.5814C91.3012 54.6953 90.7818 54.3595 90.6694 53.8327C90.5577 53.3051 90.8942 52.7872 91.4218 52.6763Z" fill="var(--fill-0, #BABABA)"/>
<path id="Vector_251" d="M93.3374 52.8966C93.823 52.6643 94.4053 52.8727 94.6339 53.3598C94.8625 53.8477 94.6496 54.4285 94.1603 54.6533C93.6761 54.8759 93.1036 54.6661 92.8772 54.1834C92.6516 53.7015 92.8562 53.1267 93.3374 52.8966Z" fill="var(--fill-0, #BABABA)"/>
<path id="Vector_252" d="M66.0166 17.1919C66.4753 17.1468 66.8965 17.1327 67.2307 17.5095C67.3716 17.6656 67.4413 17.8728 67.4241 18.0822C67.3934 18.495 67.1955 18.7158 66.9085 18.9767C65.6442 19.3269 65.0529 18.046 66.0166 17.1919Z" fill="var(--fill-0, #BABABA)"/>
<path id="Vector_253" d="M20.2633 60.2164C20.4344 60.2126 20.5875 60.3055 20.7072 60.4232C20.878 60.5888 20.9791 60.8129 20.9897 61.0505C21.0277 61.7467 20.633 62.045 19.9912 62.0885C18.6911 61.6972 18.7246 60.3543 20.2633 60.2164Z" fill="var(--fill-0, #BABABA)"/>
<path id="Vector_254" d="M66.7444 66.4112C67.6437 66.4502 67.9105 67.052 67.553 67.8396C67.4421 68.0839 67.3012 68.054 67.0644 68.0944C65.7896 67.9423 65.4748 66.8653 66.7444 66.4112Z" fill="var(--fill-0, #BABABA)"/>
<path id="Vector_255" d="M68.0858 17.4981C69.0594 17.5737 70.1146 18.0527 69.0699 19.0454C67.8393 19.3069 67.2959 18.427 68.0858 17.4981Z" fill="var(--fill-0, #BABABA)"/>
<path id="Vector_256" d="M70.5665 17.9494C70.9899 18.0225 71.7483 18.1132 71.911 18.5355C71.815 18.7945 71.6157 18.8685 71.3706 19.0199C70.7666 19.1245 70.221 19.2097 69.874 18.5684C69.8568 18.0709 70.1348 18.018 70.5665 17.9494Z" fill="var(--fill-0, #BABABA)"/>
<path id="Vector_257" d="M64.8948 66.3775C65.7649 66.5102 65.6569 67.2611 65.3062 67.8374C64.3537 67.6718 64.1753 66.9418 64.8948 66.3775Z" fill="var(--fill-0, #BABABA)"/>
<path id="Vector_258" d="M93.4925 4.26598C94.1243 4.06341 94.8003 4.4104 95.0049 5.04165C95.2087 5.67282 94.8632 6.35009 94.233 6.55566C93.5997 6.76191 92.92 6.41514 92.7154 5.78179C92.51 5.14844 92.8585 4.46915 93.4925 4.26598Z" fill="var(--fill-0, #BABABA)"/>
<path id="Vector_259" d="M95.2559 6.47012C95.4343 6.45588 95.5452 6.4651 95.7153 6.51816C95.9881 6.60479 96.21 6.80534 96.3231 7.06795C96.6589 7.82593 96.2624 8.54239 95.5033 8.81106C95.2574 8.77082 95.0633 8.72825 94.8415 8.60354C94.5425 8.43484 94.3221 8.15403 94.23 7.82293C94.1498 7.54377 94.1932 7.24354 94.3491 6.99877C94.5949 6.60824 94.8295 6.5659 95.2559 6.47012Z" fill="var(--fill-0, #BABABA)"/>
<path id="Vector_260" d="M93.3749 8.71245C94.8857 8.67026 95.7258 9.69114 94.3199 10.7353C92.8915 11.1125 91.9607 9.66978 93.3749 8.71245Z" fill="var(--fill-0, #BABABA)"/>
<path id="Vector_261" d="M93.9752 10.9282C95.1271 11.1268 94.897 12.0047 94.6512 12.8678C94.2517 12.9919 94.0614 13.0184 93.6537 13.0796C92.7101 12.9708 92.3489 11.8728 92.9754 11.1983C93.258 10.8932 93.587 10.9409 93.9752 10.9282Z" fill="var(--fill-0, #BABABA)"/>
<path id="Vector_262" d="M93.4296 13.2976C95.3069 13.0989 95.1548 15.0348 94.3071 15.3902C94.2832 15.3912 94.2584 15.3923 94.2345 15.3933L94.1145 15.396C92.7296 15.4344 92.1683 14.0555 93.4296 13.2976Z" fill="var(--fill-0, #BABABA)"/>
<path id="Vector_263" d="M91.8393 6.53343C93.1276 6.41352 93.6904 8.09826 92.6112 8.78519C92.0701 8.79838 91.6414 8.83413 91.3177 8.32062C90.8508 7.5807 91.2 6.95589 91.8393 6.53343Z" fill="var(--fill-0, #BABABA)"/>
<path id="Vector_264" d="M97.592 6.32235C99.1815 6.50387 99.0361 8.22495 97.831 8.58603C96.3786 8.50269 96.2055 6.74384 97.592 6.32235Z" fill="var(--fill-0, #BABABA)"/>
<path id="Vector_265" d="M93.3126 1.84732C93.6207 1.8734 93.9294 1.89633 94.2382 1.91604L94.2247 2.10078C94.4638 2.21537 94.7508 2.32202 94.8213 2.61617C95.181 4.12179 93.0563 4.5088 92.7386 3.14122C92.6486 2.75436 92.9664 2.31542 93.1882 2.01602L93.3126 1.84732Z" fill="var(--fill-0, #BABABA)"/>
<path id="Vector_266" d="M89.875 6.46565C90.3299 6.50208 90.5615 6.60063 90.7803 7.02129C90.9579 7.35891 90.9819 7.75671 90.8463 8.11329C90.7129 8.47092 90.569 8.55051 90.2362 8.69942C88.7014 8.49663 88.5927 6.93817 89.875 6.46565Z" fill="var(--fill-0, #BABABA)"/>
<path id="Vector_267" d="M99.4161 6.4751C100.828 6.36403 101.191 7.62031 100.318 8.56236C98.7955 8.64494 98.3893 7.245 99.4161 6.4751Z" fill="var(--fill-0, #BABABA)"/>
<path id="Vector_268" d="M87.6739 6.46474C88.128 6.45208 88.5148 6.51608 88.7141 6.96402C89.0484 7.7142 88.8145 8.23604 88.1206 8.56347C86.7356 8.61016 86.5362 7.15505 87.6739 6.46474Z" fill="var(--fill-0, #BABABA)"/>
<path id="Vector_269" d="M93.3126 1.84726C91.8925 0.565798 93.6829 -0.598828 94.5537 0.342165C94.9007 0.717184 94.9599 1.64079 94.2382 1.91598C93.9294 1.89627 93.6207 1.87334 93.3126 1.84726Z" fill="var(--fill-0, #BABABA)"/>
<path id="Vector_270" d="M12.986 70.0025C13.3151 69.9373 13.6554 70.0392 13.8938 70.2753C14.1322 70.5114 14.2374 70.8509 14.1746 71.1806C14.107 71.5351 13.8552 71.8259 13.5145 71.9443C13.1586 72.0679 12.7635 71.9825 12.4902 71.7232C12.2168 71.4639 12.1107 71.0742 12.215 70.7122C12.3193 70.3502 12.6166 70.0767 12.986 70.0025Z" fill="var(--fill-0, #BABABA)"/>
<path id="Vector_271" d="M101.93 12.7411C102.449 12.5805 103.001 12.8602 103.18 13.3734C103.357 13.8866 103.097 14.4484 102.589 14.6436C102.246 14.7759 101.858 14.7103 101.577 14.4726C101.296 14.2348 101.167 13.8629 101.24 13.5023C101.314 13.1416 101.578 12.8498 101.93 12.7411Z" fill="var(--fill-0, #BABABA)"/>
<path id="Vector_272" d="M0.669278 60.0103C1.17949 59.8334 1.73768 60.0957 1.92728 60.6008C2.11697 61.1067 1.86883 61.671 1.3682 61.8734C1.03298 62.009 0.650692 61.9521 0.369579 61.7242C0.0884647 61.4971 -0.0472575 61.1352 0.0150208 60.7792C0.0772241 60.4232 0.327759 60.1287 0.669278 60.0103Z" fill="var(--fill-0, #BABABA)"/>
</g>
</svg>
