<svg preserveAspectRatio="xMidYMid meet"  overflow="visible" viewBox="0 0 56.2373 64" fill="none" xmlns="http://www.w3.org/2000/svg">
<g id="Group 48095701" opacity="0.48">
<g id="Vector">
</g>
<path id="Vector_2" d="M36.2317 34.9425C36.1765 34.6863 36.1708 34.6431 36.1894 34.3823L36.1387 34.3672L36.0919 34.4267C35.4794 35.1857 34.6909 34.6565 34.6819 33.9812C34.6791 33.7625 34.7665 33.5523 34.9244 33.4006C35.2386 33.0929 35.7664 33.0338 36.0625 33.3989C36.2075 33.5783 36.1939 33.8785 36.2221 34.1103L36.3366 34.1112C36.4985 33.9511 36.6908 33.713 36.926 33.7563C37.9524 33.9459 37.9389 35.2292 36.6919 35.219L36.2317 34.9425Z" fill="var(--fill-0, #BABABA)"/>
<path id="Vector_3" d="M24.0106 39.5803C24.5023 39.6023 24.5581 39.8758 24.8036 40.2638L24.8211 39.8984C25.4867 38.7337 27.0434 40.7387 25.5551 41.1634C25.0086 41.0917 25.0106 41.0804 24.8275 40.5779C24.7072 40.6135 24.521 40.9237 24.4131 41.0652C23.9622 41.6563 23.1612 40.9107 23.2724 40.349C23.3491 39.9621 23.684 39.7935 24.0106 39.5803Z" fill="var(--fill-0, #BABABA)"/>
<path id="Vector_4" d="M44.1336 52.682C45.5368 52.6296 45.6609 53.876 44.6756 54.6052C44.5735 54.6069 44.4461 54.608 44.3457 54.5967C44.062 54.5657 43.8054 54.4123 43.6435 54.1771C43.2471 53.5912 43.6136 53.0165 44.1336 52.682Z" fill="var(--fill-0, #BABABA)"/>
<path id="Vector_5" d="M44.5036 50.7109C45.9209 50.6664 46.3399 51.8225 45.2373 52.4926C44.8223 52.5478 44.4404 52.5591 44.1421 52.2083C43.9836 52.0233 43.9154 51.7774 43.9549 51.5372C44.0124 51.1712 44.2109 50.9174 44.5036 50.7109Z" fill="var(--fill-0, #BABABA)"/>
<path id="Vector_6" d="M28.0095 18.7846C29.2221 18.7261 29.6744 19.7829 28.5571 20.6033C28.4094 20.6309 28.2013 20.6598 28.0546 20.6328C27.8138 20.5893 27.6046 20.4434 27.4805 20.2331C27.1359 19.6457 27.4861 19.0913 28.0095 18.7846Z" fill="var(--fill-0, #BABABA)"/>
<path id="Vector_7" d="M22.5813 46.8161C23.6431 46.8409 24.1127 48.1217 22.6753 48.7105C22.105 48.6524 21.5257 48.2007 21.7329 47.573C21.873 47.1483 22.2114 47.0062 22.5813 46.8161Z" fill="var(--fill-0, #BABABA)"/>
<path id="Vector_8" d="M23.425 48.5678C24.2346 48.5171 24.3348 48.8414 24.5529 49.5407C24.2837 50.055 24.1904 50.1334 23.6784 50.3923C22.6084 50.5384 22.1107 49.2023 23.425 48.5678Z" fill="var(--fill-0, #BABABA)"/>
<path id="Vector_9" d="M44.9847 48.7867C46.2751 48.8493 46.7274 49.7855 45.6434 50.5869C45.2024 50.6078 44.8301 50.6032 44.5442 50.2158C44.4122 50.0364 44.3575 49.812 44.3931 49.592C44.459 49.1775 44.6638 49.0089 44.9847 48.7867Z" fill="var(--fill-0, #BABABA)"/>
<path id="Vector_10" d="M44.0067 54.7738C44.1184 54.7676 44.2498 54.7609 44.3598 54.7755C44.6102 54.8099 44.8352 54.9464 44.9819 55.1523C45.3727 55.6965 45.0332 56.2971 44.5301 56.6164C44.0293 56.6541 43.6565 56.5752 43.4354 56.0637C43.3322 55.8268 43.33 55.5578 43.4292 55.3192C43.5567 55.0141 43.7191 54.903 44.0067 54.7738Z" fill="var(--fill-0, #BABABA)"/>
<path id="Vector_11" d="M18.8755 38.8138C19.2418 38.8691 19.6201 39.0518 19.703 39.4246C19.8759 40.2012 19.2642 40.4708 18.7261 40.6191C17.5742 40.4663 17.5912 39.199 18.8755 38.8138Z" fill="var(--fill-0, #BABABA)"/>
<path id="Vector_12" d="M18.2646 37.1247C19.0101 37.0835 19.546 38.4839 18.1283 38.8804C17.9641 38.868 17.7979 38.8731 17.6498 38.7896C17.1677 38.5177 17.0617 37.9572 17.3943 37.5167C17.6219 37.2155 17.9172 37.1856 18.2646 37.1247Z" fill="var(--fill-0, #BABABA)"/>
<path id="Vector_13" d="M24.4515 50.1977C24.7581 50.1932 25.1513 50.3167 25.2924 50.5914C25.6638 51.315 25.0988 51.7284 24.6015 51.9991C23.4526 52.0352 23.1583 50.7719 24.4515 50.1977Z" fill="var(--fill-0, #BABABA)"/>
<path id="Vector_14" d="M43.9853 58.7127C44.3028 58.6343 44.6378 58.7369 44.8578 58.9794C45.0772 59.2225 45.1454 59.566 45.036 59.8745C44.9266 60.1824 44.6564 60.4057 44.3327 60.4554C43.8623 60.5276 43.4191 60.2168 43.326 59.7504C43.233 59.2834 43.5234 58.8266 43.9853 58.7127Z" fill="var(--fill-0, #BABABA)"/>
<path id="Vector_15" d="M45.3676 46.9853C46.7578 46.9154 46.8937 48.2215 45.9299 48.6772C45.8278 48.6801 45.4494 48.6879 45.3845 48.662C44.3728 48.2554 44.6406 47.4291 45.3676 46.9853Z" fill="var(--fill-0, #BABABA)"/>
<path id="Vector_16" d="M42.1078 61.1931C43.2696 61.1778 43.5652 62.4332 42.5534 63.0012C41.338 63.0525 40.968 61.7198 42.1078 61.1931Z" fill="var(--fill-0, #BABABA)"/>
<path id="Vector_17" d="M43.886 60.659C44.3496 60.5129 44.8442 60.769 44.9926 61.2314C45.1415 61.6944 44.8894 62.1902 44.4275 62.3424C43.9616 62.4953 43.4597 62.2404 43.3091 61.7728C43.1591 61.3059 43.4179 60.8056 43.886 60.659Z" fill="var(--fill-0, #BABABA)"/>
<path id="Vector_18" d="M45.6316 43.2727C46.1177 43.2349 46.4397 43.227 46.724 43.6866C47.037 44.1931 46.759 44.6781 46.2965 44.9409C45.8848 44.9635 45.4973 45.0091 45.2227 44.6403C44.8104 44.0876 45.195 43.6003 45.6316 43.2727Z" fill="var(--fill-0, #BABABA)"/>
<path id="Vector_19" d="M44.0823 56.8064C44.5555 56.7179 45.0117 57.0258 45.1076 57.4978C45.2035 57.9693 44.9029 58.4307 44.4325 58.5339C44.1218 58.6021 43.7986 58.4972 43.5866 58.2598C43.3745 58.0223 43.3068 57.6896 43.4095 57.3884C43.5121 57.0873 43.7693 56.8651 44.0823 56.8064Z" fill="var(--fill-0, #BABABA)"/>
<path id="Vector_20" d="M21.6424 45.2415C22.2752 45.1941 22.8312 45.5387 22.6292 46.2471C22.5127 46.6559 22.2278 46.7828 21.877 46.9656C21.5042 47.0259 21.1703 46.9131 20.9984 46.5821C20.6145 45.8432 21.1516 45.5037 21.6424 45.2415Z" fill="var(--fill-0, #BABABA)"/>
<path id="Vector_21" d="M25.6041 51.787C26.0739 51.946 26.4529 52.3685 26.2426 52.8862C26.0559 53.3475 25.7169 53.4953 25.2879 53.6763C24.2796 53.4716 24.2188 52.047 25.6041 51.787Z" fill="var(--fill-0, #BABABA)"/>
<path id="Vector_22" d="M26.2099 18.7351C26.6086 18.7888 26.9323 18.9372 27.084 19.34C27.1759 19.5832 27.1602 19.8537 27.0417 20.085C26.8883 20.3869 26.7203 20.4963 26.4106 20.5859C26.0173 20.5283 25.9284 20.4606 25.596 20.2305C25.3219 19.3974 25.3559 19.0309 26.2099 18.7351Z" fill="var(--fill-0, #BABABA)"/>
<path id="Vector_23" d="M45.7596 39.6626C47.1334 39.5634 47.2592 40.8571 46.2756 41.2835C45.7957 41.3128 45.406 41.2953 45.1646 40.8188C44.8826 40.2633 45.3225 39.8719 45.7596 39.6626Z" fill="var(--fill-0, #BABABA)"/>
<path id="Vector_24" d="M45.6242 45.1372C46.0918 45.012 46.5717 45.2906 46.6952 45.7587C46.8182 46.2268 46.5373 46.7056 46.0692 46.8268C45.6034 46.9475 45.1279 46.6689 45.0056 46.2036C44.8826 45.7384 45.1595 45.2618 45.6242 45.1372Z" fill="var(--fill-0, #BABABA)"/>
<path id="Vector_25" d="M35.0886 61.2652C35.4642 61.2906 35.833 61.4327 35.9261 61.8185C36.0879 62.4885 35.8268 62.8494 35.2222 63.0074C34.7242 62.9786 34.3407 62.7998 34.2651 62.2482C34.2307 62.0035 34.2967 61.7559 34.4467 61.5602C34.63 61.3222 34.8037 61.3132 35.0886 61.2652Z" fill="var(--fill-0, #BABABA)"/>
<path id="Vector_26" d="M38.4797 61.2584C39.7109 61.1806 39.928 62.5533 38.9969 62.9921C37.614 63.0705 37.5469 61.5867 38.4797 61.2584Z" fill="var(--fill-0, #BABABA)"/>
<path id="Vector_27" d="M19.5064 40.5469C20.56 40.5368 20.8422 41.7989 19.5033 42.3093C18.8957 42.267 18.4556 41.861 18.6956 41.2338C18.8571 40.8114 19.1252 40.728 19.5064 40.5469Z" fill="var(--fill-0, #BABABA)"/>
<path id="Vector_28" d="M45.6863 41.4612C45.8098 41.4544 46.191 41.4262 46.2976 41.4702C47.1351 41.8187 47.0765 42.7493 46.2796 43.082L45.5847 43.0984C44.9097 42.5135 44.9147 41.953 45.6863 41.4612Z" fill="var(--fill-0, #BABABA)"/>
<path id="Vector_29" d="M36.8984 61.2652C37.8729 61.2889 38.2226 62.674 37.01 63.0243C36.4985 62.982 36.1471 62.7835 36.0721 62.2262C36.0388 61.9798 36.1099 61.7305 36.2678 61.5382C36.4584 61.3047 36.6085 61.2979 36.8984 61.2652Z" fill="var(--fill-0, #BABABA)"/>
<path id="Vector_30" d="M30.0928 34.0314C30.3997 33.9737 30.7138 34.0856 30.9151 34.3243C31.117 34.5629 31.1746 34.8915 31.0657 35.1846C30.9574 35.4773 30.6997 35.6894 30.3918 35.739C29.9231 35.8151 29.4809 35.5004 29.3986 35.0329C29.3168 34.5655 29.6264 34.1191 30.0928 34.0314Z" fill="var(--fill-0, #BABABA)"/>
<path id="Vector_31" d="M40.2191 61.2534C41.4367 61.1987 41.7751 62.4806 40.7458 63.0006C39.5017 63.0688 39.2879 61.7452 40.2191 61.2534Z" fill="var(--fill-0, #BABABA)"/>
<path id="Vector_32" d="M26.1467 53.4192C26.3779 53.4005 26.5008 53.3729 26.7129 53.4868C26.9345 53.6047 27.0975 53.8106 27.1618 54.0536C27.3135 54.6357 26.9063 54.9357 26.3914 55.0383C26.317 55.044 26.0277 55.062 25.9643 55.035C24.8335 54.5528 25.4874 53.7987 26.1467 53.4192Z" fill="var(--fill-0, #BABABA)"/>
<path id="Vector_33" d="M42.2099 55.0592C43.3942 55.0113 43.6001 56.3716 42.6216 56.7969C41.263 56.8437 41.2415 55.2871 42.2099 55.0592Z" fill="var(--fill-0, #BABABA)"/>
<path id="Vector_34" d="M38.3545 55.1167L38.46 55.1077C38.8869 55.0727 39.1052 55.0333 39.4475 55.3367C39.9196 55.754 39.7104 56.3817 39.306 56.759C38.4104 56.9 38.2124 56.7393 38.0145 55.8984C38.0968 55.5454 38.1244 55.3959 38.3545 55.1167Z" fill="var(--fill-0, #BABABA)"/>
<path id="Vector_35" d="M33.0599 61.259C34.3446 61.2404 34.4856 62.5849 33.6013 62.9837C33.0926 63.0232 32.7633 62.9763 32.5422 62.4473C32.4407 62.2099 32.4435 61.9409 32.5506 61.7063C32.6747 61.4282 32.7954 61.3594 33.0599 61.259Z" fill="var(--fill-0, #BABABA)"/>
<path id="Vector_36" d="M31.3968 61.2647C32.5913 61.298 32.712 62.6667 31.6923 63.0096C31.1943 63 30.8593 62.8754 30.7127 62.347C30.6405 62.0915 30.6822 61.8174 30.826 61.5946C30.9839 61.3459 31.1238 61.3256 31.3968 61.2647Z" fill="var(--fill-0, #BABABA)"/>
<path id="Vector_37" d="M33.4259 55.0604C34.6069 55.0767 34.775 56.3744 33.744 56.8081C33.2291 56.816 32.9009 56.6694 32.7593 56.1263C32.6939 55.8798 32.7322 55.617 32.8659 55.3999C33.0165 55.1506 33.1575 55.1275 33.4259 55.0604Z" fill="var(--fill-0, #BABABA)"/>
<path id="Vector_38" d="M37.0535 55.0604C38.2091 55.1557 38.191 56.6147 37.2052 56.8177C37.036 56.8098 36.7715 56.8121 36.6485 56.6982C36.0022 56.102 36.1246 55.1963 37.0535 55.0604Z" fill="var(--fill-0, #BABABA)"/>
<path id="Vector_39" d="M26.2437 57.0354C26.7191 56.9751 27.1522 57.314 27.2081 57.79C27.2639 58.2654 26.921 58.6958 26.445 58.7465C25.9749 58.7973 25.5521 58.46 25.497 57.9908C25.4419 57.5216 25.775 57.0952 26.2437 57.0354Z" fill="var(--fill-0, #BABABA)"/>
<path id="Vector_40" d="M26.0694 55.2244C27.3012 55.1387 27.7484 56.3411 26.709 56.851L25.9661 56.8882C25.4014 56.3005 25.2986 55.6779 26.0694 55.2244Z" fill="var(--fill-0, #BABABA)"/>
<path id="Vector_41" d="M26.0029 58.9439C27.2588 58.8774 27.714 59.8987 26.6898 60.5569C25.7222 60.6392 25.6037 60.4277 25.4493 59.5282C25.6367 59.2315 25.7161 59.1385 26.0029 58.9439Z" fill="var(--fill-0, #BABABA)"/>
<path id="Vector_42" d="M45.6925 37.9109C45.847 37.8996 46.2316 37.8686 46.3557 37.9385C47.0776 38.3463 47.0263 39.1268 46.3055 39.4776C45.7991 39.5244 45.4133 39.5182 45.142 39.0202C44.86 38.5014 45.2616 38.1117 45.6925 37.9109Z" fill="var(--fill-0, #BABABA)"/>
<path id="Vector_43" d="M27.9215 55.1111C28.5678 55.0716 29.1465 55.256 29.0828 56.1178C29.0613 56.4094 28.8301 56.6327 28.5876 56.7912C28.1313 56.8171 27.8059 56.8177 27.5335 56.3964C27.1974 55.877 27.4562 55.397 27.9215 55.1111Z" fill="var(--fill-0, #BABABA)"/>
<path id="Vector_44" d="M35.1884 55.0575C36.3141 55.0491 36.5363 56.3846 35.5533 56.8019C35.0186 56.8143 34.6831 56.6857 34.5347 56.1184C34.4682 55.8708 34.5082 55.6069 34.6453 55.3903C34.8032 55.1382 34.9188 55.1151 35.1884 55.0575Z" fill="var(--fill-0, #BABABA)"/>
<path id="Vector_45" d="M31.6962 55.0637C32.8806 55.1393 32.8981 56.4579 31.9393 56.8149C30.6754 56.763 30.5886 55.2318 31.6962 55.0637Z" fill="var(--fill-0, #BABABA)"/>
<path id="Vector_46" d="M40.1576 55.1145C40.7701 55.0406 41.4857 55.1207 41.4536 56.0287C41.4434 56.322 41.2173 56.5792 40.9793 56.75C39.787 56.9813 39.4509 55.8838 40.1576 55.1145Z" fill="var(--fill-0, #BABABA)"/>
<path id="Vector_47" d="M27.8234 61.201C28.9677 61.2015 29.1363 62.5032 28.1251 62.9888C26.8855 63.0158 26.8449 61.6121 27.8234 61.201Z" fill="var(--fill-0, #BABABA)"/>
<path id="Vector_48" d="M19.3807 34.5834C20.198 34.5121 20.3482 34.8304 20.418 35.5557C20.2063 35.9274 20.1354 36.1084 19.7603 36.2985C19.3547 36.272 18.9889 36.1411 18.7854 35.7593C18.681 35.5608 18.6652 35.3273 18.7421 35.1169C18.8545 34.8069 19.0978 34.7189 19.3807 34.5834Z" fill="var(--fill-0, #BABABA)"/>
<path id="Vector_49" d="M29.7917 55.0542C31.0358 55.0401 31.1638 56.3084 30.2569 56.7935C28.979 56.8696 28.86 55.4033 29.7917 55.0542Z" fill="var(--fill-0, #BABABA)"/>
<path id="Vector_50" d="M17.5973 35.4012C17.8947 35.3059 18.2202 35.382 18.4451 35.598C18.67 35.8146 18.7581 36.1372 18.6745 36.4378C18.5909 36.7384 18.3491 36.9696 18.0447 37.0384C17.601 37.1399 17.1565 36.8732 17.0366 36.4344C16.9166 35.995 17.1639 35.5399 17.5973 35.4012Z" fill="var(--fill-0, #BABABA)"/>
<path id="Vector_51" d="M23.0545 38.1754C23.1342 38.1839 23.2132 38.198 23.2911 38.2166C23.7935 38.3395 24.1146 38.7648 23.9319 39.2797C23.8028 39.6434 23.5808 39.7489 23.2517 39.9164C22.6331 39.9136 22.148 39.5645 22.3278 38.8905C22.4396 38.4715 22.7014 38.3694 23.0545 38.1754Z" fill="var(--fill-0, #BABABA)"/>
<path id="Vector_52" d="M29.6484 61.259C30.7989 61.3323 30.8751 62.6893 29.8514 63.0062C29.3337 62.9994 29.244 62.885 28.9508 62.4795C28.9305 61.7886 28.8949 61.4711 29.6484 61.259Z" fill="var(--fill-0, #BABABA)"/>
<path id="Vector_53" d="M20.0601 42.1842C21.188 42.1537 21.4939 43.2614 20.3209 43.8552C19.6466 44.0024 19.2301 43.5304 19.4036 42.875C19.508 42.4803 19.7387 42.3832 20.0601 42.1842Z" fill="var(--fill-0, #BABABA)"/>
<path id="Vector_54" d="M26.0553 60.7497C27.4303 60.668 27.4805 61.9048 26.599 62.4535C25.5154 62.4225 25.073 61.3543 26.0553 60.7497Z" fill="var(--fill-0, #BABABA)"/>
<path id="Vector_55" d="M21.9601 36.7632C22.5544 36.792 23.0935 37.1456 22.9382 37.7885C22.8392 38.1985 22.5584 38.3074 22.2311 38.5002C21.7724 38.5888 21.2486 38.3175 21.3009 37.7936C21.3577 37.224 21.5625 37.101 21.9601 36.7632Z" fill="var(--fill-0, #BABABA)"/>
<path id="Vector_56" d="M29.2824 20.3367C29.5807 20.2603 29.8971 20.3532 30.1075 20.5788C30.3173 20.8043 30.3878 21.1266 30.2902 21.419C30.1927 21.7115 29.9434 21.9273 29.64 21.9819C29.1939 22.0622 28.7641 21.7749 28.6677 21.3318C28.5712 20.8888 28.8431 20.449 29.2824 20.3367Z" fill="var(--fill-0, #BABABA)"/>
<path id="Vector_57" d="M35.2262 31.2468C35.6661 31.109 36.1353 31.3526 36.2757 31.792C36.4161 32.2315 36.1759 32.702 35.7371 32.8452C35.2944 32.9896 34.819 32.7464 34.6774 32.3031C34.5358 31.8598 34.7817 31.3859 35.2262 31.2468Z" fill="var(--fill-0, #BABABA)"/>
<path id="Vector_58" d="M20.9318 35.324C21.9768 35.1621 22.5143 36.2461 21.4918 36.929C20.3106 37.2048 19.9704 35.9889 20.9318 35.324Z" fill="var(--fill-0, #BABABA)"/>
<path id="Vector_59" d="M20.8577 43.7148C21.9439 43.6415 22.2575 44.7497 21.139 45.3295C20.5047 45.4942 19.998 45.1377 20.1752 44.4474C20.2864 44.0143 20.5009 43.9325 20.8577 43.7148Z" fill="var(--fill-0, #BABABA)"/>
<path id="Vector_60" d="M32.294 29.7823C33.5275 29.7038 33.7215 31.0571 32.7368 31.4327C32.2974 31.4654 31.959 31.326 31.7611 30.9085C31.668 30.7135 31.6579 30.4892 31.7329 30.2865C31.8451 29.9868 32.0211 29.9088 32.294 29.7823Z" fill="var(--fill-0, #BABABA)"/>
<path id="Vector_61" d="M25.0123 20.3596C25.2998 20.2721 25.612 20.3458 25.8301 20.5526C26.048 20.7593 26.1382 21.0672 26.066 21.3589C25.9938 21.6506 25.7706 21.881 25.4812 21.9623C25.0407 22.086 24.5827 21.8321 24.4541 21.3929C24.3256 20.9537 24.5745 20.4929 25.0123 20.3596Z" fill="var(--fill-0, #BABABA)"/>
<path id="Vector_62" d="M43.9396 33.4448C44.9001 33.5402 45.2362 34.7956 44.172 35.2658C43.7687 35.2382 43.4975 35.0763 43.3356 34.6938C43.2234 34.4273 43.2318 34.1252 43.3587 33.8655C43.4946 33.589 43.665 33.5328 43.9396 33.4448Z" fill="var(--fill-0, #BABABA)"/>
<path id="Vector_63" d="M45.6175 34.4634C45.9953 34.5053 46.3743 34.7547 46.4758 35.1169C46.6535 35.7531 46.3191 35.9527 45.8267 36.1039C44.6091 36.1913 44.485 34.8652 45.6175 34.4634Z" fill="var(--fill-0, #BABABA)"/>
<path id="Vector_64" d="M24.9323 25.7948C25.3575 25.6237 25.8407 25.832 26.0083 26.2586C26.176 26.6853 25.9636 27.1668 25.5355 27.3308C25.1125 27.4929 24.6379 27.2836 24.4723 26.8619C24.3067 26.4403 24.512 25.9639 24.9323 25.7948Z" fill="var(--fill-0, #BABABA)"/>
<path id="Vector_65" d="M24.9626 22.1964C25.3876 22.0436 25.8563 22.2614 26.0136 22.6847C26.1709 23.108 25.9579 23.579 25.5362 23.7407C25.2595 23.8468 24.9472 23.796 24.7183 23.6079C24.4894 23.4197 24.3792 23.123 24.4297 22.831C24.4803 22.539 24.6838 22.2967 24.9626 22.1964Z" fill="var(--fill-0, #BABABA)"/>
<path id="Vector_66" d="M24.9021 24.0153C25.3154 23.8209 25.808 24.0002 25.9998 24.4147C26.1918 24.8292 26.0095 25.3207 25.5939 25.51C25.1817 25.6978 24.6952 25.5175 24.505 25.1065C24.3148 24.6955 24.4922 24.208 24.9021 24.0153Z" fill="var(--fill-0, #BABABA)"/>
<path id="Vector_67" d="M24.9195 31.111C25.3313 30.9376 25.8061 31.1248 25.9889 31.5324C26.1721 31.94 25.9959 32.419 25.5926 32.6114C25.3233 32.7399 25.0055 32.7124 24.7622 32.5396C24.5189 32.3668 24.3883 32.0757 24.421 31.779C24.4536 31.4824 24.6444 31.2267 24.9195 31.111Z" fill="var(--fill-0, #BABABA)"/>
<path id="Vector_68" d="M24.9823 37.9166C25.4961 37.8658 25.8891 37.907 26.0751 38.4828C26.141 38.6808 26.1174 38.8973 26.0118 39.0772C25.8914 39.2819 25.773 39.3976 25.5531 39.4624C24.3292 39.4816 23.9916 38.5527 24.9823 37.9166Z" fill="var(--fill-0, #BABABA)"/>
<path id="Vector_69" d="M24.9498 29.2748C26.0796 29.2318 26.5026 30.2829 25.6134 30.8481C25.1923 30.8672 24.8193 30.8924 24.5507 30.5101C24.1796 29.9816 24.5397 29.5726 24.9498 29.2748Z" fill="var(--fill-0, #BABABA)"/>
<path id="Vector_70" d="M29.6073 32.3366C30.0551 32.3131 30.4391 32.6541 30.4685 33.102C30.4978 33.5498 30.1617 33.9381 29.7144 33.9733C29.42 33.9965 29.1352 33.8593 28.97 33.6143C28.8047 33.3693 28.7844 33.0543 28.9164 32.7898C29.0478 32.5253 29.3117 32.3522 29.6073 32.3366Z" fill="var(--fill-0, #BABABA)"/>
<path id="Vector_71" d="M45.9344 36.2207C47.002 36.1282 47.0917 37.5477 46.0387 37.744C44.8527 37.7428 44.6446 36.4536 45.9344 36.2207Z" fill="var(--fill-0, #BABABA)"/>
<path id="Vector_72" d="M24.633 41.1695C25.5279 41.2581 26.7332 41.7273 25.6394 42.6748C24.4858 42.9427 23.8996 41.901 24.633 41.1695Z" fill="var(--fill-0, #BABABA)"/>
<path id="Vector_73" d="M38.5559 31.6435C39.6692 31.6457 39.9264 32.8051 39.0048 33.3326C37.9084 33.3402 37.5718 32.1954 38.5559 31.6435Z" fill="var(--fill-0, #BABABA)"/>
<path id="Vector_74" d="M29.2311 22.1995C29.508 22.0889 29.8233 22.1388 30.0528 22.3295C30.2823 22.5202 30.3895 22.8212 30.3314 23.1139C30.2733 23.4066 30.0596 23.6441 29.7748 23.7329C29.3574 23.863 28.9119 23.64 28.7652 23.2278C28.6192 22.8157 28.825 22.3616 29.2311 22.1995Z" fill="var(--fill-0, #BABABA)"/>
<path id="Vector_75" d="M36.1855 35.0961C36.3378 35.1852 36.4793 35.263 36.6231 35.3651C36.9722 35.8468 36.9739 36.4581 36.3163 36.6504C36.0405 36.7311 35.7433 36.691 35.4986 36.5399C34.9741 36.2105 35.1664 35.7007 35.4963 35.3183C35.6869 35.0972 35.9165 35.1125 36.1855 35.0961Z" fill="var(--fill-0, #BABABA)"/>
<path id="Vector_76" d="M24.8677 32.8883C24.9853 32.8769 25.2623 32.843 25.3679 32.8711C26.1337 33.0746 26.3982 33.9328 25.6667 34.3626C25.1238 34.4287 24.4426 34.4 24.4118 33.5961C24.4004 33.3012 24.6446 33.0655 24.8677 32.8883Z" fill="var(--fill-0, #BABABA)"/>
<path id="Vector_77" d="M34.1529 30.016C35.2025 30.2326 35.2403 31.3037 34.2465 31.7814C33.8134 31.6904 33.7243 31.5873 33.4006 31.284C33.4564 30.5699 33.3977 30.2495 34.1529 30.016Z" fill="var(--fill-0, #BABABA)"/>
<path id="Vector_78" d="M25.1385 27.5373C25.5759 27.582 25.859 27.6916 26.0232 28.1395C26.097 28.3347 26.0829 28.5522 25.9851 28.7364C25.853 28.9835 25.7143 29.0378 25.461 29.1042C25.011 29.1191 24.6394 29.0536 24.4583 28.5765C24.3823 28.3794 24.3971 28.1587 24.4988 27.9735C24.6564 27.6856 24.8431 27.6288 25.1385 27.5373Z" fill="var(--fill-0, #BABABA)"/>
<path id="Vector_79" d="M29.1594 28.9461L29.8514 28.9373C30.5074 29.3647 30.6038 29.9733 29.9118 30.4325C28.7432 30.5324 28.2498 29.6688 29.1594 28.9461Z" fill="var(--fill-0, #BABABA)"/>
<path id="Vector_80" d="M29.2192 30.6312C29.8588 30.5948 29.8853 30.5925 30.3049 31.0671C30.3213 31.7348 30.4132 31.8561 29.7708 32.1674C28.6812 32.3107 28.3626 31.3703 29.2192 30.6312Z" fill="var(--fill-0, #BABABA)"/>
<path id="Vector_81" d="M24.9452 34.5819C25.445 34.5678 25.784 34.6003 26.0055 35.1299C26.0784 35.3048 26.0762 35.5016 25.9996 35.6747C25.8936 35.9088 25.7603 35.9945 25.5383 36.0859C25.4172 36.0938 25.1198 36.1158 25.0106 36.0836C24.794 36.0199 24.6094 35.8772 24.4932 35.6838C24.2126 35.2089 24.5578 34.8213 24.9452 34.5819Z" fill="var(--fill-0, #BABABA)"/>
<path id="Vector_82" d="M24.8189 36.2708C25.3222 36.2466 25.9832 36.2274 26.0824 36.9657C26.1207 37.2527 25.8493 37.5612 25.6172 37.722C25.5283 37.7287 25.4392 37.7338 25.3501 37.7372C24.4159 37.7733 24.0496 36.9589 24.8189 36.2708Z" fill="var(--fill-0, #BABABA)"/>
<path id="Vector_83" d="M31.0054 30.843C31.8846 30.8766 32.4503 31.9806 31.5417 32.4909L31.478 32.4916C30.2993 32.5176 30.0686 31.4178 31.0054 30.843Z" fill="var(--fill-0, #BABABA)"/>
<path id="Vector_84" d="M29.1984 25.6407C29.4606 25.5224 29.7663 25.5547 29.9981 25.7253C30.2299 25.8959 30.3517 26.1783 30.3167 26.4639C30.2812 26.7495 30.0951 26.994 29.8289 27.1034C29.4268 27.2686 28.9666 27.0811 28.7946 26.682C28.6226 26.2829 28.8025 25.8195 29.1984 25.6407Z" fill="var(--fill-0, #BABABA)"/>
<path id="Vector_85" d="M29.1476 23.9172C29.6236 23.902 29.9784 23.8794 30.2536 24.3472C30.5169 24.7958 30.2028 25.1891 29.8312 25.4072C28.7427 25.5297 28.3107 24.6805 29.1476 23.9172Z" fill="var(--fill-0, #BABABA)"/>
<path id="Vector_86" d="M40.3031 34.2113C39.8361 34.1266 39.5964 34.0176 39.4656 33.544C39.1441 32.3777 41.0808 32.3216 41.0464 33.3916C41.0385 33.6438 40.8981 33.8447 40.7413 34.0307C40.602 34.0768 40.3967 34.1218 40.3031 34.2113Z" fill="var(--fill-0, #BABABA)"/>
<path id="Vector_87" d="M41.4181 37.2838C41.8557 37.2663 42.1569 37.264 42.3887 37.6898C42.6814 38.2262 42.4101 38.6007 41.9352 38.8229C40.8891 38.9351 40.5225 37.8489 41.4181 37.2838Z" fill="var(--fill-0, #BABABA)"/>
<path id="Vector_88" d="M36.9892 32.0392C38.0861 32.06 38.1848 33.3424 37.2802 33.5863C36.8205 33.559 36.4697 33.5236 36.3079 32.9954C36.2543 32.8177 36.2763 32.6256 36.3688 32.4647C36.5245 32.1893 36.7055 32.1294 36.9892 32.0392Z" fill="var(--fill-0, #BABABA)"/>
<path id="Vector_89" d="M29.116 27.3048C29.6292 27.2825 30.3647 27.3412 30.3427 28.1641C30.3365 28.3945 30.0996 28.6199 29.9016 28.7412C29.3974 28.7898 28.7218 28.7846 28.6987 28.0163C28.6902 27.7435 28.9119 27.4791 29.116 27.3048Z" fill="var(--fill-0, #BABABA)"/>
<path id="Vector_90" d="M42.1439 35.5957C42.2404 35.6104 42.3368 35.6279 42.4321 35.6493C43.2341 35.8337 43.4377 36.6763 42.6013 37.1597C42.1242 37.18 41.9381 37.2076 41.7119 36.7372C41.5969 36.4936 41.5895 36.2127 41.6905 35.9635C41.7813 35.7339 41.9319 35.6786 42.1439 35.5957Z" fill="var(--fill-0, #BABABA)"/>
<path id="Vector_91" d="M40.7464 34.1657C41.2156 34.2163 41.6691 34.4437 41.5298 34.9984C41.4643 35.254 41.298 35.4723 41.0684 35.6025C40.258 36.0701 39.5925 35.0066 40.2501 34.3494L40.7464 34.1657Z" fill="var(--fill-0, #BABABA)"/>
<path id="Vector_92" d="M42.2229 33.8916C43.1997 33.9721 43.5939 34.9554 42.6092 35.4457C42.3086 35.47 41.9364 35.4345 41.7869 35.1502C41.4756 34.5569 41.7333 34.1692 42.2229 33.8916Z" fill="var(--fill-0, #BABABA)"/>
<path id="Vector_93" d="M40.501 35.8264C40.9111 35.7977 41.2252 35.7599 41.4632 36.1518C41.7582 36.6374 41.5297 37.008 41.1237 37.2826L40.4757 37.2764C39.954 36.7519 39.7718 36.2889 40.501 35.8264Z" fill="var(--fill-0, #BABABA)"/>
<path id="Vector_94" d="M30.883 32.6634C30.9636 32.6586 31.0443 32.6553 31.1249 32.6534C31.9416 32.6367 32.3025 33.5508 31.5631 34.1161C30.4611 34.3411 30.1848 33.1073 30.883 32.6634Z" fill="var(--fill-0, #BABABA)"/>
<g id="Vector_95">
</g>
<path id="Vector_96" d="M19.3685 18.7498C19.9014 18.6543 20.4141 18.9982 20.5278 19.5275C20.6416 20.0568 20.3155 20.5809 19.7904 20.7128C19.4344 20.8023 19.0579 20.6903 18.8085 20.4209C18.5591 20.1515 18.4766 19.7675 18.5933 19.4194C18.7099 19.0713 19.0072 18.8146 19.3685 18.7498Z" fill="var(--fill-0, #BABABA)"/>
<path id="Vector_97" d="M16.935 18.7763C17.457 18.604 18.0203 18.8843 18.1976 19.4046C18.3749 19.9248 18.1 20.4908 17.5815 20.6732C17.0558 20.858 16.4804 20.5785 16.3006 20.0511C16.1209 19.5237 16.4059 18.951 16.935 18.7763Z" fill="var(--fill-0, #BABABA)"/>
<path id="Vector_98" d="M14.84 18.7647C15.3607 18.6413 15.8839 18.9593 16.0141 19.4783C16.1442 19.9974 15.8331 20.5247 15.3158 20.6616C14.9751 20.7518 14.6122 20.6517 14.366 20.3996C14.1197 20.1475 14.0281 19.7824 14.1263 19.4439C14.2245 19.1054 14.4971 18.846 14.84 18.7647Z" fill="var(--fill-0, #BABABA)"/>
<path id="Vector_99" d="M12.7085 18.7879C12.8345 18.7803 13.1196 18.7582 13.2331 18.7951C13.4765 18.8735 13.6785 19.0462 13.7937 19.2745C14.0985 19.8702 13.7929 20.398 13.2283 20.6603C11.8978 20.7558 11.6966 19.2741 12.7085 18.7879Z" fill="var(--fill-0, #BABABA)"/>
<path id="Vector_100" d="M8.82133 18.7865C9.28644 18.7609 9.63458 18.7903 9.87794 19.2491C10.0011 19.4852 10.0218 19.7615 9.93502 20.0134C9.80231 20.4024 9.66199 20.4769 9.31182 20.6378C8.48751 20.6675 8.36575 20.3986 8.16835 19.6637C8.2953 19.1606 8.32903 18.9879 8.82133 18.7865Z" fill="var(--fill-0, #BABABA)"/>
<path id="Vector_101" d="M10.7252 18.7875C11.1592 18.7567 11.4549 18.7732 11.739 19.1534C11.8928 19.3597 11.9515 19.6218 11.9003 19.874C11.8281 20.2306 11.6483 20.4234 11.3585 20.6157C11.2407 20.6282 10.9277 20.6692 10.8288 20.6313C9.88725 20.2703 9.92346 19.2619 10.7252 18.7875Z" fill="var(--fill-0, #BABABA)"/>
<path id="Vector_102" d="M6.95948 18.7844C8.27271 18.7493 8.38296 20.1719 7.41755 20.5886C6.101 20.6629 5.94929 19.2304 6.95948 18.7844Z" fill="var(--fill-0, #BABABA)"/>
<path id="Vector_103" d="M4.95147 18.844C6.22578 18.6962 6.55097 19.9281 5.63406 20.5551C4.87043 20.6863 4.29568 20.3374 4.44784 19.4568C4.50875 19.1044 4.65572 19.0222 4.95147 18.844Z" fill="var(--fill-0, #BABABA)"/>
<path id="Vector_104" d="M3.10988 18.8375C4.28307 18.7086 4.60013 20.027 3.68491 20.5747C2.95935 20.6268 2.37208 20.3065 2.5424 19.4427C2.60929 19.1034 2.82044 19.0033 3.10988 18.8375Z" fill="var(--fill-0, #BABABA)"/>
<path id="Vector_105" d="M1.09132 18.897C1.21387 18.8941 1.36874 18.9049 1.48662 18.941C1.7289 19.0141 1.92996 19.1844 2.04185 19.4114C2.14179 19.6119 2.15092 19.8457 2.06695 20.0534C1.94874 20.3462 1.78603 20.4305 1.51312 20.5489C1.4949 20.5487 1.47675 20.5485 1.45859 20.5483L1.36784 20.5455C0.272878 20.5205 -0.00809684 19.4341 1.09132 18.897Z" fill="var(--fill-0, #BABABA)"/>
<g id="Vector_106">
</g>
<path id="Vector_107" d="M34.802 18.8016C35.3192 18.6812 35.8358 19.0023 35.9571 19.519C36.0783 20.0357 35.758 20.5531 35.2414 20.6751C34.7237 20.7974 34.2048 20.4764 34.0835 19.9584C33.9617 19.4404 34.2837 18.9222 34.802 18.8016Z" fill="var(--fill-0, #BABABA)"/>
<path id="Vector_108" d="M36.7799 18.7884C37.5588 18.7586 38.1476 19.0649 37.9806 20.0269C37.9248 20.349 37.6518 20.5339 37.3715 20.6831C36.9175 20.698 36.6045 20.6748 36.3259 20.2631C36.1686 20.0317 36.1212 19.7431 36.1951 19.4736C36.2927 19.1118 36.4782 18.9719 36.7799 18.7884Z" fill="var(--fill-0, #BABABA)"/>
<path id="Vector_109" d="M38.8266 18.7912C39.3105 18.7573 39.6365 18.7721 39.8965 19.2438C40.0239 19.476 40.0527 19.75 39.976 20.0035C39.8626 20.3638 39.7222 20.4804 39.4024 20.6366C39.2659 20.6463 38.9518 20.6767 38.8328 20.6344C38.5908 20.5468 38.3918 20.3705 38.275 20.1412C37.9806 19.5696 38.279 19.0418 38.8266 18.7912Z" fill="var(--fill-0, #BABABA)"/>
<path id="Vector_110" d="M46.649 18.7976C48.0888 18.6235 48.3296 20.0512 47.3466 20.637C46.8712 20.6729 46.5114 20.6428 46.2328 20.1914C46.1008 19.982 46.0613 19.7273 46.1233 19.4878C46.2113 19.1455 46.3642 18.9792 46.649 18.7976Z" fill="var(--fill-0, #BABABA)"/>
<path id="Vector_111" d="M40.8575 18.792C41.3273 18.7566 41.6144 18.7778 41.8749 19.2284C42.0221 19.487 42.0514 19.7964 41.9556 20.078C41.8416 20.4117 41.682 20.5192 41.3792 20.6558C40.7362 20.6793 40.6031 20.6718 40.2332 20.1322C40.1988 19.3717 40.1914 19.2016 40.8575 18.792Z" fill="var(--fill-0, #BABABA)"/>
<path id="Vector_112" d="M44.6745 18.7913C46.0867 18.6908 46.292 20.0327 45.3343 20.6231C45.1883 20.6439 45.0055 20.673 44.86 20.653C44.6407 20.6223 44.4427 20.5039 44.3119 20.3249C43.925 19.7989 44.168 19.1409 44.6745 18.7913Z" fill="var(--fill-0, #BABABA)"/>
<path id="Vector_113" d="M42.7812 18.7868C43.2781 18.7448 43.6537 18.8277 43.8607 19.3402C43.9616 19.5895 43.9594 19.8689 43.8539 20.1164C43.7146 20.448 43.5922 20.5068 43.2758 20.6403C42.4981 20.6655 42.3639 20.4993 42.1276 19.7697C42.1445 19.6861 42.1631 19.603 42.1834 19.5202C42.2889 19.0967 42.4191 19.0044 42.7812 18.7868Z" fill="var(--fill-0, #BABABA)"/>
<path id="Vector_114" d="M48.7955 18.7947C50.1338 18.7141 50.2455 20.2188 49.2647 20.6418C48.7769 20.6516 48.4328 20.6006 48.1994 20.1105C48.0883 19.8793 48.0781 19.6127 48.1712 19.3737C48.3054 19.0303 48.4802 18.9417 48.7955 18.7947Z" fill="var(--fill-0, #BABABA)"/>
<path id="Vector_115" d="M51.0446 18.7988C52.0598 18.9795 52.2188 20.296 51.0017 20.6131C50.563 20.535 50.2285 20.352 50.1355 19.8766C50.0864 19.6142 50.1518 19.3435 50.3148 19.132C50.5105 18.8764 50.7451 18.8478 51.0446 18.7988Z" fill="var(--fill-0, #BABABA)"/>
<g id="Vector_116">
</g>
<path id="Vector_117" d="M8.89894 36.9679C9.1846 36.8546 9.50923 36.9031 9.7492 37.0948C9.98923 37.2871 10.1075 37.5934 10.059 37.8968C10.0105 38.2008 9.80283 38.4546 9.51492 38.5628C9.07609 38.727 8.58667 38.5076 8.41782 38.0705C8.24891 37.6328 8.46355 37.1416 8.89894 36.9679Z" fill="var(--fill-0, #BABABA)"/>
<path id="Vector_118" d="M8.86437 39.5791C10.0612 39.5526 10.5385 40.7037 9.5571 41.2282C9.50691 41.2316 9.45671 41.235 9.40646 41.2378C8.16199 41.31 8.0545 40.3867 8.86437 39.5791Z" fill="var(--fill-0, #BABABA)"/>
<path id="Vector_119" d="M10.3437 38.1805C11.5247 38.1642 11.8171 39.4365 10.7947 39.9362C10.1555 39.9463 9.71202 39.6485 9.79323 38.9182C9.83553 38.5381 10.0432 38.4016 10.3437 38.1805Z" fill="var(--fill-0, #BABABA)"/>
<path id="Vector_120" d="M7.70668 38.3457C8.12313 38.2098 8.57138 38.4337 8.7126 38.8482C8.85387 39.2627 8.63561 39.7139 8.22284 39.8606C7.95105 39.957 7.64837 39.9 7.43045 39.7111C7.21258 39.5222 7.11327 39.2306 7.17045 38.9475C7.22764 38.6649 7.43248 38.4348 7.70668 38.3457Z" fill="var(--fill-0, #BABABA)"/>
<path id="Vector_121" d="M8.9242 41.3974C10.0449 41.3534 10.3333 42.4876 9.49578 42.8621C8.34352 42.9388 8.04117 42.0906 8.9242 41.3974Z" fill="var(--fill-0, #BABABA)"/>
<path id="Vector_122" d="M8.80069 35.3707C9.23078 35.351 9.5276 35.3059 9.82685 35.6792C10.1339 36.0627 9.89757 36.4902 9.57876 36.7609L9.47059 36.77C8.40743 36.8506 8.03504 36.0667 8.80069 35.3707Z" fill="var(--fill-0, #BABABA)"/>
<path id="Vector_123" d="M12.1018 38.2887C13.1904 38.2949 13.263 39.4252 12.4307 39.8239C11.3771 39.8549 11.2238 38.8313 12.1018 38.2887Z" fill="var(--fill-0, #BABABA)"/>
<path id="Vector_124" d="M6.18056 38.2978C7.21501 38.3587 7.36147 39.4641 6.49306 39.8397C5.49075 39.8154 5.27284 38.67 6.18056 38.2978Z" fill="var(--fill-0, #BABABA)"/>
<path id="Vector_125" d="M13.5527 38.2922C14.5869 38.2335 14.8415 39.3011 13.991 39.7952C13.9067 39.8036 13.8218 39.8036 13.7376 39.794C12.9956 39.7168 12.8661 38.7507 13.5527 38.2922Z" fill="var(--fill-0, #BABABA)"/>
<path id="Vector_126" d="M8.88286 33.8117C9.11646 33.7028 9.39067 33.7283 9.60013 33.8785C9.80959 34.0287 9.92171 34.2803 9.89346 34.5364C9.8652 34.7926 9.70091 35.0137 9.46376 35.1147C9.10563 35.267 8.69134 35.104 8.53286 34.7487C8.37433 34.3932 8.5301 33.9762 8.88286 33.8117Z" fill="var(--fill-0, #BABABA)"/>
<path id="Vector_127" d="M4.64575 38.291C5.00569 38.286 5.16597 38.3773 5.48247 38.5302C5.50131 39.1229 5.64467 39.4782 5.04968 39.7743C4.05843 39.7483 3.89831 38.8172 4.64575 38.291Z" fill="var(--fill-0, #BABABA)"/>
<path id="Vector_128" d="M9.05255 43.0572C9.42833 42.9675 9.80653 43.1959 9.90275 43.5699C9.99902 43.9438 9.77777 44.3261 9.40549 44.4288C9.15864 44.497 8.89424 44.4271 8.71388 44.2449C8.53358 44.0633 8.46539 43.7983 8.53561 43.5524C8.60582 43.3059 8.80344 43.1164 9.05255 43.0572Z" fill="var(--fill-0, #BABABA)"/>
<g id="Vector_129">
</g>
<path id="Vector_130" d="M27.1816 0.444713C27.6875 0.336373 28.1849 0.659927 28.2909 1.16621C28.3969 1.67249 28.0715 2.16862 27.5645 2.27257C27.0609 2.37589 26.5685 2.05262 26.4631 1.54943C26.3576 1.0462 26.6785 0.552376 27.1816 0.444713Z" fill="var(--fill-0, #BABABA)"/>
<path id="Vector_131" d="M26.9554 12.0228C27.3051 12.0049 27.5984 11.957 27.8787 12.1724C28.0806 12.3271 28.2092 12.5586 28.2345 12.8118C28.2723 13.1852 28.0699 13.6595 27.6548 13.7037C26.3086 13.9216 25.8489 12.6565 26.9554 12.0228Z" fill="var(--fill-0, #BABABA)"/>
<path id="Vector_132" d="M26.8703 10.1066C26.9949 10.0994 27.3931 10.0729 27.4918 10.1011C28.4009 10.3612 28.5238 11.2319 27.767 11.7281C27.6012 11.7624 27.4331 11.7832 27.2639 11.7903C26.3271 11.8344 26.123 10.8065 26.8703 10.1066Z" fill="var(--fill-0, #BABABA)"/>
<path id="Vector_133" d="M27.0101 4.58419C28.3439 4.4477 28.7365 5.52795 27.7433 6.23839C27.6339 6.24899 27.2154 6.28571 27.137 6.26129C26.176 5.9608 26.2933 5.03153 27.0101 4.58419Z" fill="var(--fill-0, #BABABA)"/>
<path id="Vector_134" d="M27.084 2.65986C27.1912 2.65371 27.498 2.63008 27.5876 2.6633C28.4285 2.97444 28.5114 3.98137 27.683 4.34711C27.0908 4.39443 26.3926 4.31192 26.4964 3.43177C26.533 3.1217 26.8212 2.82882 27.084 2.65986Z" fill="var(--fill-0, #BABABA)"/>
<path id="Vector_135" d="M27.2538 6.44024C28.4618 6.34707 28.5706 7.69126 27.6373 8.0654C27.441 8.07437 27.062 8.11334 26.9058 8.01053C26.0886 7.47255 26.3773 6.63611 27.2538 6.44024Z" fill="var(--fill-0, #BABABA)"/>
<path id="Vector_136" d="M26.8849 8.30322C27.0383 8.29369 27.1912 8.28715 27.3446 8.28365C28.2994 8.26831 28.5509 9.17068 27.7828 9.86696C27.6091 9.87768 27.4354 9.88473 27.2617 9.88828C26.3621 9.89933 26.1173 8.92935 26.8849 8.30322Z" fill="var(--fill-0, #BABABA)"/>
<path id="Vector_137" d="M26.8015 13.9954C27.2882 13.9765 27.8313 13.9074 28.1573 14.382C28.4218 14.7674 28.0123 15.2874 27.7219 15.5344C26.6746 15.8337 26.0423 14.8819 26.8015 13.9954Z" fill="var(--fill-0, #BABABA)"/>
<g id="Vector_138">
</g>
<path id="Vector_139" d="M32.4029 15.0081C33.7469 15.0192 34.1343 16.1669 32.906 16.9659C31.7679 17.2598 31.2276 15.7731 32.4029 15.0081Z" fill="var(--fill-0, #BABABA)"/>
<path id="Vector_140" d="M33.8106 13.5885C34.1811 13.5765 34.6402 13.7468 34.8573 14.0622C35.3186 14.7329 34.9148 15.1803 34.3571 15.578C33.2071 15.5603 32.5411 14.4276 33.8106 13.5885Z" fill="var(--fill-0, #BABABA)"/>
<path id="Vector_141" d="M35.2927 12.1666C36.4083 12.2425 36.9807 13.4922 35.6277 14.2251C35.282 14.179 34.8962 13.9916 34.6881 13.7145C34.5342 13.5102 34.4783 13.2481 34.5359 12.9989C34.63 12.5777 34.9509 12.3833 35.2927 12.1666Z" fill="var(--fill-0, #BABABA)"/>
<path id="Vector_142" d="M37.9242 9.53271C39.0629 9.47722 39.6049 10.8153 38.3111 11.425C37.9513 11.4818 37.5357 11.2449 37.3552 10.9382C37.2232 10.7144 37.1905 10.4456 37.2655 10.1967C37.3591 9.87319 37.6552 9.69395 37.9242 9.53271Z" fill="var(--fill-0, #BABABA)"/>
<path id="Vector_143" d="M36.5476 10.8707C36.8984 10.8627 37.3512 11.0915 37.5526 11.3727C37.7015 11.5764 37.7567 11.8337 37.7048 12.0805C37.6321 12.4366 37.3591 12.6112 37.0738 12.7847C36.7709 12.8409 36.2391 12.5847 36.08 12.3342C35.63 11.6248 36.0445 11.248 36.5476 10.8707Z" fill="var(--fill-0, #BABABA)"/>
<path id="Vector_144" d="M39.2349 8.1725C39.5434 8.1879 40.0211 8.34993 40.1903 8.62402C40.6031 9.29234 40.17 9.71228 39.6652 10.0908C39.3866 10.0857 38.8548 9.81853 38.7194 9.57545C38.3297 8.87539 38.7127 8.51659 39.2349 8.1725Z" fill="var(--fill-0, #BABABA)"/>
<path id="Vector_145" d="M40.3837 6.94631C41.043 6.90305 41.7333 7.01596 41.5946 7.96565C41.5444 8.30702 41.2314 8.53983 40.9398 8.70683C40.1271 8.73993 39.1943 7.68326 40.3837 6.94631Z" fill="var(--fill-0, #BABABA)"/>
<g id="Vector_146">
</g>
<path id="Vector_147" d="M21.8565 14.9436C22.9207 14.9445 23.4696 16.5299 21.9837 17.0297C20.6544 16.8423 20.6563 15.6089 21.8565 14.9436Z" fill="var(--fill-0, #BABABA)"/>
<path id="Vector_148" d="M20.4493 13.5323C21.5586 13.5253 22.04 14.9457 20.5984 15.5247C19.2357 15.2618 19.2653 14.1285 20.4493 13.5323Z" fill="var(--fill-0, #BABABA)"/>
<path id="Vector_149" d="M17.6913 10.885C18.31 10.8727 18.6132 11.3561 18.9237 11.8272C18.9154 11.8435 18.9071 11.8599 18.8988 11.8763L18.8554 11.9572C18.6186 12.4057 18.4679 12.5302 18.0776 12.8305C18.0452 12.8279 17.9359 12.8265 17.8958 12.8158C16.4116 12.4215 16.8263 11.5237 17.6913 10.885Z" fill="var(--fill-0, #BABABA)"/>
<path id="Vector_150" d="M16.5078 9.4753C16.8006 9.57309 17.194 9.82051 17.3479 10.0929C17.4416 10.2617 17.4636 10.461 17.4089 10.6461C17.302 11.0178 16.9251 11.2925 16.6065 11.4791C16.0985 11.4188 15.507 11.0444 15.6548 10.4542C15.7756 9.97166 16.1202 9.73625 16.5078 9.4753Z" fill="var(--fill-0, #BABABA)"/>
<path id="Vector_151" d="M13.6537 6.94197C14.0122 6.92359 14.4864 7.02764 14.6896 7.33066C15.1096 7.95685 14.4645 8.44734 14.0663 8.73909C13.1548 8.85831 12.3797 7.7387 13.6537 6.94197Z" fill="var(--fill-0, #BABABA)"/>
<path id="Vector_152" d="M15.2313 8.2253C16.2745 8.30341 16.547 9.57365 15.2285 10.1168C13.8641 9.72378 14.1087 8.78521 15.2313 8.2253Z" fill="var(--fill-0, #BABABA)"/>
<path id="Vector_153" d="M19.262 12.2391C20.5373 12.7047 20.1293 13.749 19.1088 14.223C17.8763 13.6498 18.1137 12.7065 19.262 12.2391Z" fill="var(--fill-0, #BABABA)"/>
<g id="Vector_154">
</g>
<path id="Vector_155" d="M20.8379 23.2481C22.2294 23.0827 22.5353 24.6784 21.301 25.3446C20.8947 25.334 20.4892 25.205 20.2732 24.8161C19.869 24.0881 20.1981 23.6354 20.8379 23.2481Z" fill="var(--fill-0, #BABABA)"/>
<path id="Vector_156" d="M19.3181 24.6434C19.6979 24.6316 20.1629 24.772 20.3695 25.1216C20.7849 25.8247 20.4412 26.2524 19.849 26.6447C18.9785 26.6595 17.9696 25.4582 19.3181 24.6434Z" fill="var(--fill-0, #BABABA)"/>
<path id="Vector_157" d="M17.9001 25.8872C18.3804 25.8938 18.7936 26.0282 19.0334 26.4844C19.1573 26.7158 19.1809 26.9879 19.0987 27.2372C18.9788 27.6009 18.7564 27.7211 18.4404 27.894C17.6502 28.018 16.6891 26.7911 17.9001 25.8872Z" fill="var(--fill-0, #BABABA)"/>
<path id="Vector_158" d="M13.8944 29.7213C14.9491 29.684 15.6667 30.9027 14.4197 31.5296C13.277 31.717 12.7854 30.4331 13.8944 29.7213Z" fill="var(--fill-0, #BABABA)"/>
<path id="Vector_159" d="M16.5565 27.2384C17.5899 27.2342 18.3672 28.292 17.2101 29.0745C16.8642 29.14 16.4387 29.0267 16.2387 28.7444C15.7652 28.076 16.0526 27.639 16.5565 27.2384Z" fill="var(--fill-0, #BABABA)"/>
<path id="Vector_160" d="M15.3753 28.4722C15.7465 28.4777 16.1559 28.7096 16.3239 29.0439C16.4372 29.2711 16.448 29.536 16.3535 29.7718C16.218 30.1119 15.9899 30.2081 15.6773 30.346C15.3484 30.3178 14.9453 30.1427 14.7883 29.8337C14.4439 29.156 14.8155 28.7963 15.3753 28.4722Z" fill="var(--fill-0, #BABABA)"/>
<g id="Vector_161">
</g>
<path id="Vector_162" d="M33.466 23.1841C33.9493 23.1564 34.1326 23.2773 34.5043 23.589C35.216 24.1854 34.4383 24.8066 33.964 25.2194C33.5489 25.3148 33.0955 25.0938 32.8823 24.7305C32.7255 24.4679 32.6871 24.1512 32.7762 23.8588C32.8845 23.4979 33.1519 23.3423 33.466 23.1841Z" fill="var(--fill-0, #BABABA)"/>
<path id="Vector_163" d="M35.0011 24.7007C35.7399 24.6572 35.9441 24.9721 36.3293 25.5453C36.0975 25.9821 35.8003 26.2496 35.441 26.5777C34.863 26.7109 34.1884 26.2168 34.2674 25.5924C34.3227 25.1513 34.6673 24.938 35.0011 24.7007Z" fill="var(--fill-0, #BABABA)"/>
<path id="Vector_164" d="M36.534 25.9957C36.8391 25.9992 37.3264 26.185 37.477 26.4498C37.8645 27.1316 37.2576 27.619 36.7889 27.9266C36.4692 27.9327 35.9977 27.8191 35.8245 27.5525C35.3784 26.8659 36.1184 26.3048 36.534 25.9957Z" fill="var(--fill-0, #BABABA)"/>
<path id="Vector_165" d="M37.8684 27.3489C38.323 27.3486 38.7533 27.5522 38.9332 27.9952C39.0183 28.2044 39.0167 28.439 38.9281 28.6469C38.795 28.9544 38.5627 29.0717 38.2716 29.1887C36.9181 29.2573 36.7151 28.077 37.8684 27.3489Z" fill="var(--fill-0, #BABABA)"/>
<g id="Vector_166">
</g>
<path id="Vector_167" d="M45.2706 26.4311C45.671 26.2709 46.1256 26.4666 46.2841 26.8676C46.4426 27.2686 46.2452 27.7222 45.8436 27.8792C45.4443 28.0354 44.9937 27.8392 44.8358 27.4404C44.6784 27.0416 44.8724 26.5903 45.2706 26.4311Z" fill="var(--fill-0, #BABABA)"/>
<g id="Vector_168">
</g>
<path id="Vector_169" d="M55.0821 19.6143C55.4893 19.6118 55.8221 19.9402 55.8243 20.3478C55.8272 20.7553 55.4989 21.0879 55.0912 21.0906C54.6834 21.0933 54.3507 20.7649 54.3484 20.3571C54.3456 19.9493 54.6744 19.6167 55.0821 19.6143Z" fill="var(--fill-0, #BABABA)"/>
<g id="Vector_170">
</g>
<path id="Vector_171" d="M13.3929 43.3172C14.4086 43.3031 14.5803 44.166 13.8693 44.7384C12.8838 44.6995 12.52 43.8857 13.3929 43.3172Z" fill="var(--fill-0, #BABABA)"/>
</g>
</svg>
