<svg preserveAspectRatio="xMidYMid meet"  overflow="visible" viewBox="0 0 72.1254 64" fill="none" xmlns="http://www.w3.org/2000/svg">
<g id="Group 48095695" opacity="0.48">
<g id="Vector">
</g>
<path id="Vector_2" d="M23.4758 52.9373C24.7137 52.8862 24.8555 54.4038 23.7578 54.5484C23.3371 54.6039 22.9732 54.2573 22.6679 53.9948C22.9321 54.3951 23.0643 54.5229 22.9829 55.0192C22.9074 55.4799 22.4598 55.7368 22.0119 55.6389C21.6932 55.1582 21.1801 54.8328 20.9874 54.5597C20.1586 53.3838 21.6109 52.4778 22.6056 53.7666C22.8941 53.2952 23.0239 53.2173 23.4758 52.9373Z" fill="var(--fill-0, #BABABA)"/>
<path id="Vector_3" d="M19.1957 28.5729C20.8659 28.5097 21.1253 30.0964 19.9471 30.7202C18.3929 30.8845 18.0798 29.4552 19.1957 28.5729Z" fill="var(--fill-0, #BABABA)"/>
<path id="Vector_4" d="M55.7999 20.6221C56.1659 20.4814 56.5793 20.5502 56.8792 20.8019C57.1797 21.0537 57.3194 21.4486 57.2446 21.8331C57.1697 22.2178 56.8923 22.5314 56.5194 22.6522C55.9639 22.8322 55.3666 22.5372 55.1714 21.9871C54.9769 21.4371 55.2556 20.8318 55.7999 20.6221Z" fill="var(--fill-0, #BABABA)"/>
<path id="Vector_5" d="M52.4549 0.882755C53.7343 0.948658 54.5205 2.36686 53.0977 3.10345C52.9393 3.12297 52.7785 3.11411 52.6232 3.07739C51.597 2.83585 51.3233 1.37263 52.4549 0.882755Z" fill="var(--fill-0, #BABABA)"/>
<path id="Vector_6" d="M39.3472 20.9565C40.9514 20.9927 41.1366 22.6381 40.0399 23.118C39.2649 23.1131 39.0947 23.0848 38.6601 22.4468C38.6545 22.1693 38.6626 21.8702 38.6644 21.5907C38.8852 21.2754 39.0273 21.1583 39.3472 20.9565Z" fill="var(--fill-0, #BABABA)"/>
<path id="Vector_7" d="M20.6644 26.6269C21.4213 26.6278 21.7482 27.1198 21.8882 27.7891C21.7282 28.4532 21.7131 28.6414 21.0417 28.8987C19.5451 28.6925 19.3241 27.2983 20.6644 26.6269Z" fill="var(--fill-0, #BABABA)"/>
<path id="Vector_8" d="M21.636 24.8266C22.4303 24.8464 22.7782 25.2007 23.1302 25.8826C22.9092 26.4142 22.7904 26.6866 22.2774 26.9264C20.7277 26.7753 20.196 25.213 21.636 24.8266Z" fill="var(--fill-0, #BABABA)"/>
<path id="Vector_9" d="M33.1894 31.1199C33.7447 30.9936 34.2989 31.3347 34.4365 31.8873C34.5743 32.4398 34.2444 33.001 33.6948 33.1497C33.3291 33.2487 32.9385 33.1423 32.6736 32.8715C32.4088 32.6007 32.3109 32.2079 32.4179 31.8445C32.5249 31.4811 32.82 31.204 33.1894 31.1199Z" fill="var(--fill-0, #BABABA)"/>
<path id="Vector_10" d="M34.9478 2.86591C35.383 2.88449 35.8369 3.07821 36.0851 3.4505C36.2459 3.68755 36.2989 3.98196 36.2291 4.2601C36.1299 4.67697 35.8512 4.87144 35.5171 5.09315C35.2502 5.0997 34.6473 4.84213 34.4656 4.66113C34.2929 4.48967 34.1992 4.25424 34.2068 4.01108C34.2226 3.475 34.5787 3.1905 34.9478 2.86591Z" fill="var(--fill-0, #BABABA)"/>
<path id="Vector_11" d="M48.0387 29.0056C48.4221 28.9592 48.9839 29.1081 49.1847 29.4297C49.6841 30.2317 49.0662 30.7529 48.5531 31.1443C47.8092 31.2611 47.1452 30.4403 47.3435 29.733C47.462 29.3113 47.6939 29.2128 48.0387 29.0056Z" fill="var(--fill-0, #BABABA)"/>
<path id="Vector_12" d="M25.0356 19.207C26.4391 19.4903 26.8337 20.8818 25.423 21.3441C24.0399 21.1396 23.5887 19.8363 25.0356 19.207Z" fill="var(--fill-0, #BABABA)"/>
<path id="Vector_13" d="M33.9992 29.0762C34.5175 29.044 34.8892 29.0271 35.2184 29.5035C35.3705 29.7246 35.4242 29.9992 35.3656 30.2613C35.2808 30.639 35.0258 30.906 34.7115 31.1095C33.31 31.1334 32.692 29.8993 33.9992 29.0762Z" fill="var(--fill-0, #BABABA)"/>
<path id="Vector_14" d="M54.6122 22.7828C55.1852 22.7363 55.6871 23.164 55.732 23.737C55.7769 24.3101 55.3479 24.8107 54.7749 24.8539C54.2038 24.897 53.7056 24.47 53.6607 23.8992C53.6165 23.3285 54.0417 22.8291 54.6122 22.7828Z" fill="var(--fill-0, #BABABA)"/>
<path id="Vector_15" d="M2.34776 33.5507C2.86146 33.5939 3.10275 33.9829 3.38775 34.3562C3.21704 35.0735 3.07151 35.538 2.30225 35.7498C0.684469 35.5386 1.09735 34.0186 2.34776 33.5507Z" fill="var(--fill-0, #BABABA)"/>
<path id="Vector_16" d="M31.4752 8.49137C31.942 8.48302 32.4397 8.65473 32.6958 9.06998C32.8333 9.29007 32.8747 9.55692 32.8103 9.80831C32.708 10.224 32.4159 10.4517 32.0745 10.6657C31.3419 10.5754 30.9675 10.1727 30.6742 9.55131C30.8872 9.07384 31.0131 8.74719 31.4752 8.49137Z" fill="var(--fill-0, #BABABA)"/>
<path id="Vector_17" d="M22.8638 23.0149C24.0395 22.9949 24.8065 24.3215 23.45 25.1288C22.1022 25.1327 21.479 23.8133 22.8638 23.0149Z" fill="var(--fill-0, #BABABA)"/>
<path id="Vector_18" d="M49.633 27.3919C50.0856 27.3567 50.474 27.4557 50.7446 27.8572C50.9068 28.0957 50.9585 28.3921 50.8874 28.6714C50.7952 29.0485 50.5146 29.278 50.1966 29.4665C49.2595 29.4638 49.0562 29.0912 48.7401 28.2847C49.0413 27.8041 49.1435 27.6724 49.633 27.3919Z" fill="var(--fill-0, #BABABA)"/>
<path id="Vector_19" d="M41.7526 17.2228C43.1318 17.1432 43.6867 18.448 42.4466 19.3399C41.6423 19.332 41.3679 19.0266 41.0699 18.3314C41.2096 17.757 41.2663 17.5352 41.7526 17.2228Z" fill="var(--fill-0, #BABABA)"/>
<path id="Vector_20" d="M26.0416 17.3282C27.3754 17.4801 27.8855 18.5177 26.7125 19.4461C25.3164 19.5871 24.7936 18.2812 26.0416 17.3282Z" fill="var(--fill-0, #BABABA)"/>
<path id="Vector_21" d="M23.9009 21.1404C25.2085 21.1984 25.7997 22.4459 24.4774 23.2398C23.755 23.1929 23.4635 22.8747 23.0654 22.3146C23.2239 21.6417 23.242 21.4571 23.9009 21.1404Z" fill="var(--fill-0, #BABABA)"/>
<path id="Vector_22" d="M33.8576 4.81338C34.3661 4.91713 34.8019 5.03584 35.0376 5.55409C35.138 5.76926 35.1479 6.0156 35.0656 6.23813C34.926 6.6048 34.6142 6.85819 34.2677 7.01812C33.1925 6.87951 32.4513 5.49629 33.8576 4.81338Z" fill="var(--fill-0, #BABABA)"/>
<path id="Vector_23" d="M31.86 32.9986C33.2189 32.906 33.7983 34.072 32.6449 35.0891C31.2323 35.0889 30.7372 33.8728 31.86 32.9986Z" fill="var(--fill-0, #BABABA)"/>
<path id="Vector_24" d="M43.2777 15.2961C44.6375 15.5431 44.7741 16.7797 43.5626 17.5162C42.1947 17.0862 41.8673 15.7158 43.2777 15.2961Z" fill="var(--fill-0, #BABABA)"/>
<path id="Vector_25" d="M29.9576 36.8656C31.3145 37.1885 31.6473 38.5422 30.3234 38.9898C28.9295 38.7361 28.5614 37.3226 29.9576 36.8656Z" fill="var(--fill-0, #BABABA)"/>
<path id="Vector_26" d="M30.8901 35.0399C31.2421 34.9289 31.6265 35.0173 31.8947 35.2707C32.163 35.5242 32.2729 35.9029 32.1822 36.2608C32.0914 36.618 31.8141 36.8986 31.4574 36.994C30.923 37.1355 30.3729 36.825 30.2187 36.2938C30.0645 35.763 30.3627 35.2061 30.8901 35.0399Z" fill="var(--fill-0, #BABABA)"/>
<path id="Vector_27" d="M51.2871 25.6972C51.7416 25.7027 52.1375 25.9324 52.3414 26.3479C52.4655 26.6028 52.4829 26.8969 52.39 27.1647C52.2504 27.553 52.0066 27.6576 51.6574 27.8118C50.7945 27.7894 50.6854 27.5077 50.3755 26.7668C50.6224 26.1587 50.7303 26.0314 51.2871 25.6972Z" fill="var(--fill-0, #BABABA)"/>
<path id="Vector_28" d="M47.8117 8.17376C49.0936 8.05823 49.7969 9.25066 48.6029 10.2188C48.2326 10.2715 47.6683 10.0836 47.452 9.78705C46.9145 9.05114 47.2824 8.62049 47.8117 8.17376Z" fill="var(--fill-0, #BABABA)"/>
<path id="Vector_29" d="M40.8922 19.0938C41.5643 19.0984 41.7931 19.5897 42.0163 20.1247C41.7738 20.7098 41.7046 21.0161 41.0587 21.2115C39.9981 20.9963 39.6533 20.2762 40.2307 19.3454C40.4719 19.2327 40.6384 19.1787 40.8922 19.0938Z" fill="var(--fill-0, #BABABA)"/>
<path id="Vector_30" d="M32.7005 6.61168C33.9905 6.67228 34.4559 8.1999 33.1254 8.77177C32.4951 8.70593 32.0973 8.27834 31.8263 7.74145C32.0736 7.15655 32.1468 6.88845 32.7005 6.61168Z" fill="var(--fill-0, #BABABA)"/>
<path id="Vector_31" d="M32.1463 29.0889C32.6051 29.1651 32.9162 29.3562 33.0461 29.8288C33.1309 30.149 33.0809 30.49 32.9079 30.7725C32.7154 31.0935 32.5167 31.1308 32.1709 31.2135C30.7539 30.8484 30.7539 29.33 32.1463 29.0889Z" fill="var(--fill-0, #BABABA)"/>
<path id="Vector_32" d="M51.2915 3.02085C51.8027 2.98113 52.2454 3.00801 52.5771 3.46802C52.718 3.66168 52.7741 3.9039 52.7336 4.13965C52.6638 4.54199 52.3975 4.80254 52.0808 5.02426C50.8513 4.87587 50.0014 3.8519 51.2915 3.02085Z" fill="var(--fill-0, #BABABA)"/>
<path id="Vector_33" d="M30.5039 10.3519C31.8869 10.6222 32.3494 11.7261 30.9596 12.483C29.6795 12.1552 29.1686 11.0761 30.5039 10.3519Z" fill="var(--fill-0, #BABABA)"/>
<path id="Vector_34" d="M27.028 15.5937C27.6962 15.5731 28.4907 15.9608 28.4664 16.7264C28.4521 17.1753 28.1711 17.4131 27.8625 17.6961C27.192 17.8161 26.4603 17.2497 26.5075 16.5487C26.5381 16.093 26.72 15.9043 27.028 15.5937Z" fill="var(--fill-0, #BABABA)"/>
<path id="Vector_35" d="M42.0107 35.04C43.1835 35.1034 43.5963 36.4522 42.2926 37.2097C41.5855 37.1249 40.8972 36.4584 41.2002 35.7287C41.3692 35.3206 41.6479 35.216 42.0107 35.04Z" fill="var(--fill-0, #BABABA)"/>
<path id="Vector_36" d="M44.2279 13.4765C45.3483 13.4535 46.1644 14.723 44.973 15.4695C44.342 15.5241 44.2659 15.5147 43.7546 15.1541C43.3463 14.3454 43.4716 13.9538 44.2279 13.4765Z" fill="var(--fill-0, #BABABA)"/>
<path id="Vector_37" d="M45.3714 11.7369C46.21 11.6998 46.4856 11.8786 46.8578 12.6504C46.6408 13.2255 46.6215 13.3427 46.1401 13.727C45.1625 13.9903 44.1425 12.7709 45.3714 11.7369Z" fill="var(--fill-0, #BABABA)"/>
<path id="Vector_38" d="M69.3827 33.4965C70.2874 33.4542 70.5537 34.1148 70.7064 34.865C70.5312 35.2475 70.4639 35.401 70.1166 35.6336C69.4039 35.5855 69.2612 35.4869 68.7892 34.985C68.763 34.7567 68.7343 34.5287 68.7025 34.301C68.9182 33.952 69.0436 33.7288 69.3827 33.4965Z" fill="var(--fill-0, #BABABA)"/>
<path id="Vector_39" d="M28.3291 13.8558C29.4736 13.7931 30.1989 15.242 28.8477 15.9231C28.3783 15.8888 27.8734 15.6487 27.661 15.2081C27.5549 14.9925 27.5413 14.7428 27.6236 14.5169C27.7534 14.1576 28.0123 14.0193 28.3291 13.8558Z" fill="var(--fill-0, #BABABA)"/>
<path id="Vector_40" d="M29.6029 29.1409C31.0575 29.074 31.4205 30.4113 30.3507 31.1C28.7672 31.2412 28.6061 29.646 29.6029 29.1409Z" fill="var(--fill-0, #BABABA)"/>
<path id="Vector_41" d="M25.6268 29.1497C27.0253 29.0392 27.1966 30.709 26.0765 31.0918C25.4559 31.0811 25.0505 31.0514 24.8444 30.3662C24.6561 29.7398 25.0636 29.3002 25.6268 29.1497Z" fill="var(--fill-0, #BABABA)"/>
<path id="Vector_42" d="M46.7325 9.92318C47.4856 9.86688 47.7207 10.2313 48.0312 10.8274C47.8841 11.4666 47.8828 11.6648 47.25 11.9119C46.0254 11.9204 45.3458 10.6614 46.7325 9.92318Z" fill="var(--fill-0, #BABABA)"/>
<path id="Vector_43" d="M29.3631 12.0413C30.3305 11.922 31.2236 13.1567 30.0715 14.1003C28.7588 14.1333 28.0593 12.8725 29.3631 12.0413Z" fill="var(--fill-0, #BABABA)"/>
<path id="Vector_44" d="M27.4946 29.1356C29.0446 29.0531 29.2622 30.5786 28.2584 31.0569C26.7292 31.2513 26.4529 29.789 27.4946 29.1356Z" fill="var(--fill-0, #BABABA)"/>
<path id="Vector_45" d="M44.9237 32.0533C45.2616 32.0813 45.3739 32.127 45.6919 32.2258C46.5093 33.0619 46.3509 33.4269 45.5796 34.1312C44.3376 34.0966 43.6212 32.8342 44.9237 32.0533Z" fill="var(--fill-0, #BABABA)"/>
<path id="Vector_46" d="M27.7627 40.6614C29.0454 40.6178 29.7643 41.8093 28.5545 42.6641C27.2938 42.6878 26.5819 41.5368 27.7627 40.6614Z" fill="var(--fill-0, #BABABA)"/>
<path id="Vector_47" d="M43.4317 33.4787C44.5901 33.5683 45.2442 34.8634 43.8812 35.5247C43.4866 35.57 42.9903 35.4254 42.8107 35.0704C42.4185 34.2939 42.8706 33.8367 43.4317 33.4787Z" fill="var(--fill-0, #BABABA)"/>
<path id="Vector_48" d="M46.5242 30.6919C48.0094 30.6165 48.1671 32.1041 46.9488 32.6911C46.0865 32.677 45.8558 32.1056 45.6844 31.372C45.9805 31.0276 46.1277 30.9097 46.5242 30.6919Z" fill="var(--fill-0, #BABABA)"/>
<path id="Vector_49" d="M53.6826 20.6608C55.2151 20.5984 55.2394 22.3223 54.2487 22.6394C54.1146 22.646 53.8247 22.6653 53.7038 22.6237C53.4344 22.5301 53.2118 22.3364 53.0815 22.0828C52.7548 21.4524 53.0977 20.9334 53.6826 20.6608Z" fill="var(--fill-0, #BABABA)"/>
<path id="Vector_50" d="M28.8852 38.7859C29.2758 38.7853 29.7793 38.9711 30.0013 39.3047C30.1306 39.4967 30.1754 39.733 30.1251 39.9587C30.045 40.3291 29.7509 40.5966 29.4547 40.8036C28.1242 40.7686 27.5471 39.5167 28.8852 38.7859Z" fill="var(--fill-0, #BABABA)"/>
<path id="Vector_51" d="M52.6301 24.3311C53.9419 24.2428 54.5143 25.4912 53.3109 26.3244C52.3227 26.5519 51.36 25.2611 52.6301 24.3311Z" fill="var(--fill-0, #BABABA)"/>
<path id="Vector_52" d="M49.0151 6.36926C50.229 6.32237 50.9367 7.60658 49.7096 8.34909C49.2707 8.38856 48.8187 8.28257 48.5624 7.91446C48.0661 7.20155 48.4776 6.74198 49.0151 6.36926Z" fill="var(--fill-0, #BABABA)"/>
<path id="Vector_53" d="M26.9165 42.4595C28.1563 42.7208 28.7617 43.8767 27.4658 44.489C26.1344 44.4211 25.5595 43.2102 26.9165 42.4595Z" fill="var(--fill-0, #BABABA)"/>
<path id="Vector_54" d="M36.4816 1.26458C37.592 1.1791 38.1669 2.51125 36.9561 3.31107C35.5788 3.19186 35.161 2.00429 36.4816 1.26458Z" fill="var(--fill-0, #BABABA)"/>
<path id="Vector_55" d="M23.3616 29.1423C23.863 29.1041 24.2613 29.102 24.5834 29.5623C24.7227 29.7616 24.7733 30.0097 24.723 30.2476C24.6355 30.647 24.4719 30.8296 24.151 31.051C23.655 31.0987 23.2698 31.1181 22.9712 30.6594C22.5741 30.0495 22.8227 29.509 23.3616 29.1423Z" fill="var(--fill-0, #BABABA)"/>
<path id="Vector_56" d="M50.2552 4.68153C50.4797 4.69032 50.6299 4.6973 50.8432 4.77761C51.1144 4.87968 51.3326 5.08692 51.4486 5.35235C51.5496 5.58765 51.5533 5.85345 51.4579 6.09106C51.3139 6.45063 51.0926 6.59672 50.759 6.74891C49.5744 6.45736 48.9883 5.43159 50.2552 4.68153Z" fill="var(--fill-0, #BABABA)"/>
<path id="Vector_57" d="M69.788 56.5075C70.606 56.4707 71.2682 56.7906 70.9745 57.8337C70.8947 58.1155 70.6372 58.2832 70.3604 58.3811C69.3765 58.5077 69.2549 58.1791 69.0623 57.3511C69.2287 56.8018 69.2468 56.7151 69.788 56.5075Z" fill="var(--fill-0, #BABABA)"/>
<path id="Vector_58" d="M25.6787 44.3425C26.9599 44.3063 27.8221 45.39 26.6208 46.3408C25.435 46.241 24.5833 45.332 25.6787 44.3425Z" fill="var(--fill-0, #BABABA)"/>
<path id="Vector_59" d="M21.4589 29.0772C21.6221 29.0705 21.7819 29.0618 21.941 29.1031C22.2096 29.17 22.4367 29.3487 22.5648 29.5942C22.698 29.8443 22.7188 30.1392 22.6222 30.4057C22.4787 30.7964 22.309 30.8941 21.95 31.0492C21.7555 31.0545 21.6091 31.0591 21.4237 30.9904C21.1569 30.8918 20.9421 30.6884 20.829 30.4276C20.7137 30.1666 20.7161 29.8687 20.8356 29.6096C20.9853 29.278 21.1369 29.199 21.4589 29.0772Z" fill="var(--fill-0, #BABABA)"/>
<path id="Vector_60" d="M13.0306 26.6905C13.5905 26.7535 13.7432 27.2522 13.9289 27.7071C13.7556 28.3721 13.5583 28.6881 12.8636 28.801C12.3942 28.6826 11.7847 28.3002 11.9397 27.7197C12.0933 27.144 12.5506 26.9567 13.0306 26.6905Z" fill="var(--fill-0, #BABABA)"/>
<path id="Vector_61" d="M32.3811 14.032C33.5951 14.3222 34.0168 15.5761 32.6613 16.1184C31.3765 16.0242 31.1137 14.6504 32.3811 14.032Z" fill="var(--fill-0, #BABABA)"/>
<path id="Vector_62" d="M38.3708 0.516221C39.773 0.43791 39.9626 2.07259 38.9725 2.44718C38.1233 2.48708 37.4692 2.04172 37.7093 1.03229C37.7785 0.739182 38.1002 0.625457 38.3708 0.516221Z" fill="var(--fill-0, #BABABA)"/>
<path id="Vector_63" d="M40.26 0.525682C40.9807 0.46433 41.689 0.625753 41.6298 1.63157C41.6117 1.94824 41.3885 2.21865 41.1266 2.40171C40.5898 2.45334 40.1627 2.48538 39.8553 1.96071C39.5461 1.43311 39.7288 0.807065 40.26 0.525682Z" fill="var(--fill-0, #BABABA)"/>
<path id="Vector_64" d="M46.2543 0.527997C46.9351 0.460348 47.0904 0.462343 47.5835 0.945987C47.6191 1.65147 47.7276 1.9962 47.0879 2.39461C46.5959 2.44243 46.233 2.47504 45.9275 2.03136C45.5167 1.4335 45.7181 0.905273 46.2543 0.527997Z" fill="var(--fill-0, #BABABA)"/>
<path id="Vector_65" d="M5.79726 31.1886C6.33839 31.1639 6.56204 31.7284 6.81031 32.1385C6.62975 32.8234 6.48459 33.013 5.79738 33.1991C4.59229 33.0433 4.29414 31.6866 5.79726 31.1886Z" fill="var(--fill-0, #BABABA)"/>
<path id="Vector_66" d="M42.257 0.519135C42.9734 0.465701 43.6368 0.656802 43.6138 1.62534C43.6075 1.90803 43.3731 2.21809 43.1374 2.38494C42.888 2.42073 42.5919 2.42659 42.3362 2.43869C41.5905 1.90778 41.449 1.05821 42.257 0.519135Z" fill="var(--fill-0, #BABABA)"/>
<path id="Vector_67" d="M20.522 54.8141C21.7578 55.0099 22.2537 56.2993 21.0015 56.8673C19.7962 56.7937 19.2538 55.5099 20.522 54.8141Z" fill="var(--fill-0, #BABABA)"/>
<path id="Vector_68" d="M70.2332 40.1894C71.1454 40.1913 71.2426 41.3198 70.712 41.851C70.4707 42.093 70.2369 42.0462 69.9164 42.0412C68.7836 41.9315 68.7274 40.2536 70.2332 40.1894Z" fill="var(--fill-0, #BABABA)"/>
<path id="Vector_69" d="M44.2684 0.52025C44.9942 0.464697 45.6875 0.679303 45.6064 1.66324C45.5815 1.96732 45.3352 2.24433 45.0659 2.39846C44.3445 2.49386 44.2242 2.45345 43.779 1.87884C43.7484 1.17598 43.6175 0.907003 44.2684 0.52025Z" fill="var(--fill-0, #BABABA)"/>
<path id="Vector_70" d="M69.5324 38.183C69.9002 38.1637 70.6129 38.0471 70.8249 38.3719C71.1435 38.8601 71.0425 39.5809 70.5805 39.9332C69.2044 40.1882 68.5522 39.0846 69.5324 38.183Z" fill="var(--fill-0, #BABABA)"/>
<path id="Vector_71" d="M48.3062 0.517334C49.926 0.400741 49.9191 2.03604 49.0562 2.41325C48.5637 2.44817 48.2195 2.45977 47.9184 2.00867C47.5019 1.38343 47.7444 0.878212 48.3062 0.517334Z" fill="var(--fill-0, #BABABA)"/>
<path id="Vector_72" d="M41.5911 21.2191C43.1019 21.0663 43.0632 22.687 42.0432 23.1189C40.6702 23.17 40.3909 21.7734 41.5911 21.2191Z" fill="var(--fill-0, #BABABA)"/>
<path id="Vector_73" d="M51.5745 20.769C52.8489 20.7849 53.3184 22.0449 52.3202 22.707C51.0084 22.7481 50.981 22.3394 51.0115 21.1848C51.2272 20.9713 51.3102 20.9314 51.5745 20.769Z" fill="var(--fill-0, #BABABA)"/>
<path id="Vector_74" d="M69.952 44.2901C71.3411 44.2309 71.3418 45.8364 70.2762 46.1481C70.0218 46.1519 69.6714 46.1831 69.4713 46.006C68.7954 45.4087 69.0585 44.4385 69.952 44.2901Z" fill="var(--fill-0, #BABABA)"/>
<path id="Vector_75" d="M69.5342 52.3912C70.4988 52.3613 71.1385 52.2384 70.9446 53.597C70.9059 53.8664 70.7875 54.0042 70.5674 54.1557C69.2013 54.2585 68.5404 53.5191 69.5342 52.3912Z" fill="var(--fill-0, #BABABA)"/>
<path id="Vector_76" d="M1.79204 36.2496C3.25151 36.267 3.37134 37.8251 2.28709 38.1737C2.14649 38.1799 1.806 38.203 1.68448 38.1406C0.868269 37.721 0.924259 36.5551 1.79204 36.2496Z" fill="var(--fill-0, #BABABA)"/>
<path id="Vector_77" d="M34.4395 10.535C34.8206 10.5454 35.2995 10.7467 35.5183 11.0675C35.6567 11.2685 35.7035 11.519 35.6467 11.7566C35.5476 12.1727 35.2483 12.3642 34.9048 12.5583C34.2383 12.5085 33.8942 12.0812 33.6612 11.4942C33.9015 10.9747 33.9437 10.8554 34.4395 10.535Z" fill="var(--fill-0, #BABABA)"/>
<path id="Vector_78" d="M58.9698 26.8259C60.2698 26.7957 60.7879 27.8608 59.6612 28.7816C58.885 28.9436 58.524 28.3606 58.3083 27.7374C58.4972 27.2991 58.6019 27.1255 58.9698 26.8259Z" fill="var(--fill-0, #BABABA)"/>
<path id="Vector_79" d="M47.518 20.968C48.972 20.8636 49.2688 22.2518 48.179 22.8541C46.8609 23.0428 46.493 21.6064 47.518 20.968Z" fill="var(--fill-0, #BABABA)"/>
<path id="Vector_80" d="M16.3711 24.6372C17.0602 24.5952 17.3215 25.0714 17.5808 25.6434C17.3037 26.1695 17.2809 26.283 16.7764 26.5915C16.1072 26.6107 15.4053 26.0606 15.5271 25.324C15.5691 25.0702 16.1439 24.7742 16.3711 24.6372Z" fill="var(--fill-0, #BABABA)"/>
<path id="Vector_81" d="M65.7534 35.1835C66.928 35.1191 67.3171 36.6181 65.9379 37.1125C65.2371 37.024 64.6286 36.4834 64.964 35.7212C65.1056 35.3991 65.4423 35.3008 65.7534 35.1835Z" fill="var(--fill-0, #BABABA)"/>
<path id="Vector_82" d="M50.3144 0.520028C51.8389 0.428998 51.9567 1.84738 51.0183 2.41776C50.2072 2.48135 49.6847 2.24767 49.7614 1.23524C49.7888 0.873549 50.0251 0.726778 50.3144 0.520028Z" fill="var(--fill-0, #BABABA)"/>
<path id="Vector_83" d="M45.675 21.0272C46.9046 21.0017 47.22 22.4599 46.084 22.9517C45.1943 22.9914 44.7067 22.4867 44.9967 21.5428C45.0933 21.2297 45.382 21.1381 45.675 21.0272Z" fill="var(--fill-0, #BABABA)"/>
<path id="Vector_84" d="M69.5436 48.4096C70.3623 48.3697 70.7058 48.1888 71.0294 49.0549C70.9602 49.5724 70.9776 49.8735 70.5194 50.1653C70.0412 50.1884 69.7014 50.2096 69.3385 49.8567C68.8628 49.394 69.0779 48.7799 69.5436 48.4096Z" fill="var(--fill-0, #BABABA)"/>
<path id="Vector_85" d="M69.8796 36.07C71.3212 36.0544 71.3137 37.7709 70.1926 37.9598C69.7637 37.9162 69.3659 37.8769 69.1695 37.4442C68.8397 36.7172 69.3067 36.3294 69.8796 36.07Z" fill="var(--fill-0, #BABABA)"/>
<path id="Vector_86" d="M3.92307 32.2957C4.5773 32.2692 4.76659 32.7919 5.05334 33.294C4.8017 33.8788 4.72544 34.0516 4.10494 34.2268C3.73209 34.1845 3.25157 34.0314 3.08129 33.6835C2.71486 32.9348 3.45564 32.5456 3.92307 32.2957Z" fill="var(--fill-0, #BABABA)"/>
<path id="Vector_87" d="M43.8263 21.0976C44.6687 21.108 44.9505 21.9146 44.5864 22.5827C44.3962 22.9314 44.1911 22.9574 43.8351 23.0669C43.3369 22.9924 43.0046 22.7871 42.8986 22.2565C42.845 21.9893 42.9005 21.7115 43.0532 21.4857C43.2534 21.1961 43.5028 21.1537 43.8263 21.0976Z" fill="var(--fill-0, #BABABA)"/>
<path id="Vector_88" d="M37.0689 44.8475C38.2766 45.0471 38.5279 46.309 37.2946 46.8758C36.8632 46.824 36.4217 46.5322 36.2615 46.1188C36.1755 45.8988 36.1823 45.6531 36.2802 45.4374C36.4404 45.0901 36.7353 44.9654 37.0689 44.8475Z" fill="var(--fill-0, #BABABA)"/>
<path id="Vector_89" d="M14.6192 25.6914C15.1065 25.7366 15.5506 26.0259 15.6854 26.5149C15.7468 26.7399 15.7164 26.9801 15.6007 27.1826C15.4214 27.4904 15.1862 27.5622 14.8665 27.6538C14.1589 27.5906 13.6302 27.123 13.8614 26.3523C13.9674 25.999 14.311 25.8562 14.6192 25.6914Z" fill="var(--fill-0, #BABABA)"/>
<path id="Vector_90" d="M1.87134 38.4312C2.83513 38.3676 3.2573 39.0864 2.82628 39.9674C2.71256 40.1994 2.52495 40.2299 2.28197 40.2879C2.12373 40.296 1.79041 40.3222 1.66309 40.2455C0.829978 39.7442 0.953305 38.7229 1.87134 38.4312Z" fill="var(--fill-0, #BABABA)"/>
<path id="Vector_91" d="M18.1274 23.5032C19.1467 23.4563 19.8091 24.7637 18.465 25.4901C17.7671 25.5583 17.1702 24.8756 17.3977 24.1994C17.5345 23.7928 17.7876 23.7024 18.1274 23.5032Z" fill="var(--fill-0, #BABABA)"/>
<path id="Vector_92" d="M35.5046 46.3333C35.9803 46.3421 36.4348 46.6027 36.6206 47.0535C36.7123 47.2723 36.7111 47.5186 36.6181 47.7362C36.4797 48.0542 36.2759 48.1228 35.976 48.2456C34.6317 48.2961 34.2818 46.8627 35.5046 46.3333Z" fill="var(--fill-0, #BABABA)"/>
<path id="Vector_93" d="M49.5195 20.9099C50.893 20.7004 51.254 22.1963 50.2427 22.772C48.9116 23.0155 48.5032 21.4919 49.5195 20.9099Z" fill="var(--fill-0, #BABABA)"/>
<path id="Vector_94" d="M41.4278 40.6589C42.6953 40.8054 43.0027 42.0574 41.8256 42.674C41.752 42.6622 41.679 42.6472 41.6067 42.6291C40.5343 42.3679 40.2381 41.2419 41.4278 40.6589Z" fill="var(--fill-0, #BABABA)"/>
<path id="Vector_95" d="M31.2507 15.9649C31.7719 15.8911 32.2541 16.2537 32.328 16.7748C32.4017 17.2959 32.0391 17.7782 31.518 17.852C30.9969 17.9258 30.5147 17.5631 30.4408 17.042C30.367 16.521 30.7296 16.0387 31.2507 15.9649Z" fill="var(--fill-0, #BABABA)"/>
<path id="Vector_96" d="M69.8223 46.3576C69.9775 46.3626 70.4439 46.3639 70.5686 46.4312C71.2819 46.8147 71.1248 47.9419 70.3392 48.1514C70.1322 48.1564 69.7737 48.182 69.5947 48.0729C68.8309 47.6046 68.8902 46.5553 69.8223 46.3576Z" fill="var(--fill-0, #BABABA)"/>
<path id="Vector_97" d="M69.5199 42.2943C69.6708 42.2875 70.2026 42.2557 70.3379 42.2956C71.1927 42.5475 71.2676 43.5656 70.5287 44.0146C70.1241 44.0663 69.7999 44.1517 69.4438 43.883C68.8316 43.4204 69.0953 42.7819 69.5199 42.2943Z" fill="var(--fill-0, #BABABA)"/>
<path id="Vector_98" d="M15.7879 50.3218C16.2874 50.1971 16.7952 50.4926 16.9336 50.9883C17.0719 51.484 16.7905 52.0002 16.2987 52.1524C15.9682 52.2546 15.6083 52.1692 15.359 51.9292C15.1097 51.6897 15.0102 51.3331 15.0994 50.9989C15.1885 50.6647 15.4523 50.4053 15.7879 50.3218Z" fill="var(--fill-0, #BABABA)"/>
<path id="Vector_99" d="M3.45105 57.568C4.67746 57.4957 5.40059 58.6592 4.22468 59.4872C3.90782 59.5096 3.44643 59.4192 3.19897 59.2172C3.0373 59.0863 2.9396 58.8924 2.93056 58.6847C2.91191 58.325 3.21032 57.8231 3.45105 57.568Z" fill="var(--fill-0, #BABABA)"/>
<path id="Vector_100" d="M47.5954 44.0987C48.0518 44.0832 48.4128 44.2378 48.6291 44.6624C48.7557 44.9124 48.7682 45.2054 48.6634 45.4654C48.53 45.7934 48.3068 45.8851 48.0038 46.0185C46.8995 46.0815 46.2461 44.7048 47.5954 44.0987Z" fill="var(--fill-0, #BABABA)"/>
<path id="Vector_101" d="M21.8886 43.5924C23.2199 43.5488 23.5748 44.6829 22.4866 45.5265C22.3933 45.5334 22.2995 45.5334 22.2063 45.5246C21.1473 45.4367 20.9178 44.2639 21.8886 43.5924Z" fill="var(--fill-0, #BABABA)"/>
<path id="Vector_102" d="M19.9245 22.3232C21.0633 22.3574 21.4439 23.8486 20.0343 24.3007C19.6866 24.2216 19.26 24.0043 19.1089 23.6793C18.7652 22.94 19.4456 22.5743 19.9245 22.3232Z" fill="var(--fill-0, #BABABA)"/>
<path id="Vector_103" d="M1.82159 56.7632C2.30504 56.583 2.84361 56.8224 3.03447 57.3019C3.22538 57.7807 2.99868 58.325 2.52401 58.5264C2.24095 58.6467 1.91704 58.623 1.65499 58.4616C1.39293 58.3007 1.22521 58.0226 1.20501 57.7152C1.17739 57.2962 1.4281 56.9091 1.82159 56.7632Z" fill="var(--fill-0, #BABABA)"/>
<path id="Vector_104" d="M11.0325 27.9284C12.0796 27.894 12.6157 29.4127 11.1296 29.8956C10.8311 29.8335 10.3441 29.6225 10.2173 29.3408C9.88231 28.5961 10.5417 28.1966 11.0325 27.9284Z" fill="var(--fill-0, #BABABA)"/>
<path id="Vector_105" d="M57.358 25.6358C58.4292 25.5538 59.0066 26.7302 57.8469 27.5685C56.5712 27.6516 56.0712 26.3688 57.358 25.6358Z" fill="var(--fill-0, #BABABA)"/>
<path id="Vector_106" d="M69.8684 54.4469C69.9813 54.4437 70.4003 54.4294 70.4801 54.4631C70.9789 54.6744 71.1497 55.306 70.9059 55.7699C70.727 56.1091 70.7095 56.0873 70.4028 56.197C70.1147 56.2032 69.7749 56.2456 69.5267 56.0835C68.7667 55.5866 68.9438 54.5846 69.8684 54.4469Z" fill="var(--fill-0, #BABABA)"/>
<path id="Vector_107" d="M5.54347 56.3734C6.63147 56.5748 6.84501 57.8773 5.5484 58.3985C4.85993 58.3312 4.34269 57.6391 4.68212 56.9826C4.88762 56.5848 5.15585 56.5218 5.54347 56.3734Z" fill="var(--fill-0, #BABABA)"/>
<path id="Vector_108" d="M7.46963 30.1218C8.28285 30.1009 9.2247 31.4609 7.63978 32.0204C6.5612 32.0086 5.92735 30.6923 7.46963 30.1218Z" fill="var(--fill-0, #BABABA)"/>
<path id="Vector_109" d="M9.16422 29.0953C9.67642 29.0268 10.1488 29.3821 10.225 29.8932C10.3012 30.4044 9.95294 30.882 9.44305 30.9659C9.1063 31.0213 8.76581 30.8909 8.55214 30.6248C8.33847 30.3587 8.28472 29.9982 8.41148 29.6813C8.53829 29.3644 8.82597 29.1405 9.16422 29.0953Z" fill="var(--fill-0, #BABABA)"/>
<path id="Vector_110" d="M33.5924 12.3577C34.782 12.5476 34.9646 13.7343 33.8125 14.3458C32.5473 14.0155 32.1256 12.7675 33.5924 12.3577Z" fill="var(--fill-0, #BABABA)"/>
<path id="Vector_111" d="M23.1885 49.5674C24.4042 49.6665 25.0519 50.7944 23.8832 51.5189C22.6411 51.5251 22.0513 50.2289 23.1885 49.5674Z" fill="var(--fill-0, #BABABA)"/>
<path id="Vector_112" d="M27.8571 21.2739C29.1551 21.4821 29.3646 22.882 28.1492 23.2616C26.8346 22.9052 26.6337 21.71 27.8571 21.2739Z" fill="var(--fill-0, #BABABA)"/>
<path id="Vector_113" d="M28.9552 19.4655C29.0056 19.4763 29.0559 19.4879 29.106 19.5005C30.2311 19.786 30.4132 20.9076 29.2834 21.4632C27.9592 21.0893 27.6418 20.1399 28.9552 19.4655Z" fill="var(--fill-0, #BABABA)"/>
<path id="Vector_114" d="M64.4989 30.0475C65.7739 30.2212 65.8756 31.3911 64.7913 32.0566C64.7302 32.0449 64.6697 32.0321 64.6093 32.0184C63.2918 31.7166 63.3853 30.684 64.4989 30.0475Z" fill="var(--fill-0, #BABABA)"/>
<path id="Vector_115" d="M29.953 17.7693C30.4515 17.6077 30.986 17.8838 31.143 18.3837C31.2998 18.8838 31.0188 19.4157 30.5173 19.5679C30.0225 19.7181 29.499 19.4416 29.3442 18.9482C29.1894 18.4547 29.461 17.9287 29.953 17.7693Z" fill="var(--fill-0, #BABABA)"/>
<path id="Vector_116" d="M60.882 27.9339C62.1739 28.0834 62.5717 29.2391 61.3671 29.8192C59.9299 29.8987 59.7778 28.7457 60.882 27.9339Z" fill="var(--fill-0, #BABABA)"/>
<path id="Vector_117" d="M62.5586 28.9755C62.803 28.9631 63.3405 29.1648 63.51 29.3379C64.1273 29.9671 63.6298 30.5212 63.1952 30.9306C61.7774 30.958 61.5573 29.8958 62.5586 28.9755Z" fill="var(--fill-0, #BABABA)"/>
<path id="Vector_118" d="M70.106 58.6467C71.4334 58.7327 71.3779 60.2802 70.227 60.3775C68.7275 60.3788 68.7674 58.7321 70.106 58.6467Z" fill="var(--fill-0, #BABABA)"/>
<path id="Vector_119" d="M40.3279 36.6742C41.613 36.6174 41.9871 37.8906 40.7993 38.5902C39.7038 38.6918 39.1689 37.4136 40.3279 36.6742Z" fill="var(--fill-0, #BABABA)"/>
<path id="Vector_120" d="M33.137 43.5351C33.9059 43.4896 34.0689 43.8256 34.3205 44.4772C34.1095 45.0495 34.0129 45.1699 33.5201 45.5072C32.2846 45.342 31.9868 44.2184 33.137 43.5351Z" fill="var(--fill-0, #BABABA)"/>
<path id="Vector_121" d="M43.7958 45.6481C45.1507 45.8888 45.4082 46.9188 44.256 47.5747C43.8245 47.5429 43.4423 47.4625 43.2023 47.0653C43.0769 46.8608 43.0451 46.6133 43.1137 46.3832C43.2291 45.9923 43.4598 45.8314 43.7958 45.6481Z" fill="var(--fill-0, #BABABA)"/>
<path id="Vector_122" d="M10.5755 53.3227C11.6651 53.3564 12.1339 54.7143 10.8326 55.2081C10.0606 55.2456 9.52611 54.6121 9.82414 53.8577C9.95064 53.5372 10.2766 53.4437 10.5755 53.3227Z" fill="var(--fill-0, #BABABA)"/>
<path id="Vector_123" d="M36.0688 40.7892C37.1581 40.7206 37.7741 42.0531 36.4673 42.7233C35.3362 42.6965 34.8374 41.5225 36.0688 40.7892Z" fill="var(--fill-0, #BABABA)"/>
<path id="Vector_124" d="M32.1681 55.162C32.4874 55.046 32.8444 55.1121 33.1011 55.3353C33.3577 55.5579 33.4735 55.9021 33.4038 56.2344C33.3341 56.5667 33.0897 56.8354 32.7653 56.9364C32.2797 57.0867 31.7626 56.823 31.6004 56.341C31.4382 55.859 31.6902 55.3359 32.1681 55.162Z" fill="var(--fill-0, #BABABA)"/>
<path id="Vector_125" d="M19.5747 48.258C19.8565 48.3572 20.2681 48.6433 20.4233 48.9071C20.5424 49.106 20.5686 49.3473 20.495 49.5667C20.376 49.9209 20.0651 50.093 19.7581 50.257C19.676 50.2432 19.5945 50.2264 19.5136 50.2065C19.1867 50.1279 18.9098 49.9614 18.7442 49.6584C18.6286 49.4489 18.6118 49.1989 18.6983 48.9757C18.8605 48.5505 19.1908 48.4233 19.5747 48.258Z" fill="var(--fill-0, #BABABA)"/>
<path id="Vector_126" d="M24.8392 46.0746C25.2344 46.0977 25.6313 46.1563 25.9248 46.4524C26.0985 46.6251 26.1892 46.8639 26.1737 47.1083C26.1529 47.4974 25.904 47.7293 25.6382 47.9756C24.3967 47.8971 23.7148 46.9369 24.8392 46.0746Z" fill="var(--fill-0, #BABABA)"/>
<path id="Vector_127" d="M41.9453 44.8064C42.4391 44.691 42.9348 44.9897 43.0632 45.4797C43.1923 45.9698 42.9061 46.4736 42.4198 46.6145C42.0931 46.7093 41.7408 46.6195 41.5001 46.3801C41.2588 46.1407 41.1665 45.789 41.2594 45.4623C41.3517 45.135 41.6148 44.8843 41.9453 44.8064Z" fill="var(--fill-0, #BABABA)"/>
<path id="Vector_128" d="M24.0745 47.8995C24.4979 47.8865 24.8243 47.9245 25.1288 48.2587C25.2936 48.4389 25.3748 48.6802 25.3522 48.9227C25.3184 49.2955 25.056 49.5599 24.7809 49.7812C23.6066 49.7457 22.8832 48.7625 24.0745 47.8995Z" fill="var(--fill-0, #BABABA)"/>
<path id="Vector_129" d="M1.74105 54.7654C1.87884 54.7561 2.29995 54.7255 2.41418 54.7598C3.32167 55.0285 3.28064 56.1321 2.50595 56.5162C1.17249 56.6141 0.697946 55.5386 1.74105 54.7654Z" fill="var(--fill-0, #BABABA)"/>
<path id="Vector_130" d="M49.1317 48.5174C49.2271 48.5155 49.3225 48.5199 49.4179 48.5299C50.4946 48.6384 50.8269 49.7831 49.835 50.4166C49.4721 50.4453 49.0843 50.3617 48.8343 50.078C48.646 49.8654 48.5612 49.5798 48.6023 49.2987C48.6584 48.914 48.8318 48.7275 49.1317 48.5174Z" fill="var(--fill-0, #BABABA)"/>
<path id="Vector_131" d="M69.7575 50.4702C70.2687 50.444 70.876 50.3686 71.0132 51.0132C71.0998 51.4173 70.8592 52.0445 70.4109 52.1405C70.1764 52.1468 69.8192 52.1792 69.6047 52.0707C68.8484 51.6885 68.8746 50.6635 69.7575 50.4702Z" fill="var(--fill-0, #BABABA)"/>
<path id="Vector_132" d="M21.0463 47.2087C22.3548 47.2542 22.6221 48.4226 21.4948 49.1478C20.3151 49.1172 19.8922 47.9039 21.0463 47.2087Z" fill="var(--fill-0, #BABABA)"/>
<path id="Vector_133" d="M56.7963 39.7392C57.7695 39.7025 58.2945 41.1932 56.9035 41.6197C56.4296 41.5468 55.9807 41.2568 55.8835 40.7599C55.8417 40.5454 55.8872 40.3235 56.0094 40.1433C56.2058 39.8583 56.4783 39.8122 56.7963 39.7392Z" fill="var(--fill-0, #BABABA)"/>
<path id="Vector_134" d="M66.0346 31.1726C67.1924 31.1708 67.8783 32.4214 66.6007 33.0813C65.8014 33.0402 65.6274 32.7851 65.3419 32.072C65.5489 31.6406 65.6243 31.4245 66.0346 31.1726Z" fill="var(--fill-0, #BABABA)"/>
<path id="Vector_135" d="M17.5184 49.399C18.8427 49.3093 19.2341 50.6311 17.9538 51.2327C17.0676 51.3606 16.2326 50.0313 17.5184 49.399Z" fill="var(--fill-0, #BABABA)"/>
<path id="Vector_136" d="M60.1924 37.9891C60.882 37.9224 61.4812 38.3801 61.2985 39.117C61.2037 39.5005 60.915 39.637 60.5952 39.8253C60.4605 39.8471 60.2641 39.8421 60.1363 39.8054C59.6051 39.6526 59.375 39.0478 59.5471 38.5509C59.6662 38.2092 59.91 38.1288 60.1924 37.9891Z" fill="var(--fill-0, #BABABA)"/>
<path id="Vector_137" d="M1.63686 48.6552C2.25623 48.6234 3.16198 48.6552 3.00156 49.6921C2.95542 49.9901 2.72635 50.2033 2.47327 50.3679C1.96749 50.4964 1.61079 50.444 1.30054 49.9745C1.15857 49.7631 1.11025 49.5019 1.16693 49.2537C1.23639 48.9464 1.38708 48.8192 1.63686 48.6552Z" fill="var(--fill-0, #BABABA)"/>
<path id="Vector_138" d="M67.0964 57.5631C68.3234 57.5631 68.8509 58.8088 67.655 59.4385C66.4087 59.6985 66.1505 58.4609 67.0964 57.5631Z" fill="var(--fill-0, #BABABA)"/>
<path id="Vector_139" d="M9.55573 37.2353C10.9851 37.2116 11.0035 38.2828 10.052 39.1189C8.78708 38.9917 8.3214 37.7958 9.55573 37.2353Z" fill="var(--fill-0, #BABABA)"/>
<path id="Vector_140" d="M45.6102 46.6831C46.1065 46.5528 46.614 46.8508 46.7412 47.3477C46.869 47.8447 46.5672 48.3503 46.0697 48.475C45.5765 48.5985 45.0752 48.3004 44.9493 47.8073C44.8227 47.3147 45.1182 46.8122 45.6102 46.6831Z" fill="var(--fill-0, #BABABA)"/>
<path id="Vector_141" d="M39.9121 42.0892C41.1123 42.3691 41.6161 43.3281 40.346 44.0064C39.3453 44.1523 38.6439 42.863 39.9121 42.0892Z" fill="var(--fill-0, #BABABA)"/>
<path id="Vector_142" d="M49.59 43.2271C50.7615 43.3212 51.0121 44.6461 49.6835 45.1181C49.0319 45.0071 48.53 44.5757 48.7626 43.8718C48.8929 43.479 49.2452 43.3773 49.59 43.2271Z" fill="var(--fill-0, #BABABA)"/>
<path id="Vector_143" d="M5.94525 35.3465C7.28962 35.5451 7.60293 36.282 6.50801 37.2172C5.20067 37.3089 4.83387 36.1828 5.94525 35.3465Z" fill="var(--fill-0, #BABABA)"/>
<path id="Vector_144" d="M69.8872 60.6151C71.2327 60.7217 71.4272 61.806 70.4508 62.5429C70.0069 62.5797 69.7163 62.5473 69.4501 62.1426C69.2923 61.9032 69.2418 61.6083 69.311 61.3296C69.4071 60.9511 69.5648 60.7978 69.8872 60.6151Z" fill="var(--fill-0, #BABABA)"/>
<path id="Vector_145" d="M45.6831 36.552C47.0448 36.4796 47.548 37.6531 46.3995 38.3508C45.6033 38.4013 45.42 38.0533 45.0328 37.4348C45.2348 36.9984 45.3258 36.8743 45.6831 36.552Z" fill="var(--fill-0, #BABABA)"/>
<path id="Vector_146" d="M60.112 53.9356C61.4743 54.1476 61.652 55.4064 60.5921 55.8959C59.289 55.8148 59.0839 54.5223 60.112 53.9356Z" fill="var(--fill-0, #BABABA)"/>
<path id="Vector_147" d="M63.6634 55.7936C64.9416 56.0031 65.206 56.9514 64.1672 57.7545C64.0375 57.7507 63.8561 57.7482 63.7301 57.7208C63.4864 57.6666 63.275 57.5151 63.1453 57.3006C62.8011 56.7357 63.1522 56.1066 63.6634 55.7936Z" fill="var(--fill-0, #BABABA)"/>
<path id="Vector_148" d="M63.8143 36.1249C64.1391 36.0494 64.4796 36.156 64.7034 36.4029C64.9272 36.6505 65.0002 36.9996 64.8929 37.3151C64.7863 37.6312 64.517 37.865 64.1884 37.9255C63.6971 38.0159 63.2232 37.6973 63.121 37.2079C63.0193 36.7184 63.3274 36.2377 63.8143 36.1249Z" fill="var(--fill-0, #BABABA)"/>
<path id="Vector_149" d="M14.062 51.3194C15.135 51.3038 15.6565 52.5913 14.3764 53.1456C14.2979 53.145 13.955 53.1294 13.9023 53.0995C12.8225 52.4915 13.1627 51.7247 14.062 51.3194Z" fill="var(--fill-0, #BABABA)"/>
<path id="Vector_150" d="M22.1435 51.3256C23.3314 51.368 24.0872 52.4355 22.8978 53.0976C21.753 53.3333 21.0283 52.1312 22.1435 51.3256Z" fill="var(--fill-0, #BABABA)"/>
<path id="Vector_151" d="M4.42655 60.8714C5.75253 60.8358 5.99962 62.1177 5.01799 62.6832C4.30553 62.7163 3.65722 62.5199 3.81671 61.5778C3.87488 61.2342 4.13282 61.0397 4.42655 60.8714Z" fill="var(--fill-0, #BABABA)"/>
<path id="Vector_152" d="M67.4131 34.3649C67.8976 34.3663 68.2729 34.4307 68.5148 34.9159C68.6246 35.135 68.6339 35.3906 68.5417 35.6173C68.402 35.9665 68.2019 36.0289 67.8751 36.1723C67.4169 36.1816 67.0952 36.0806 66.8564 35.6525C66.7348 35.4319 66.7092 35.1714 66.7847 34.9312C66.8863 34.613 67.1332 34.5005 67.4131 34.3649Z" fill="var(--fill-0, #BABABA)"/>
<path id="Vector_153" d="M1.6331 42.6797C2.13913 42.6273 2.62171 42.5431 2.91326 43.0525C3.2169 43.5831 2.87947 44.1118 2.4197 44.3774C2.28241 44.3905 1.91218 44.4367 1.80438 44.3924C1.38452 44.2203 1.05731 43.729 1.17552 43.2707C1.25707 42.954 1.37516 42.8486 1.6331 42.6797Z" fill="var(--fill-0, #BABABA)"/>
<path id="Vector_154" d="M7.27244 55.2574C8.35071 55.705 8.4746 56.962 7.19625 57.2332L7.1059 57.1939C6.42954 56.9003 6.41651 56.702 6.22821 56.0267C6.63174 55.5055 6.66977 55.4987 7.27244 55.2574Z" fill="var(--fill-0, #BABABA)"/>
<path id="Vector_155" d="M1.80502 40.609C2.69774 40.523 3.26387 40.9582 2.84663 41.9595C2.73983 42.2158 2.47004 42.2781 2.20674 42.3392C1.763 42.3505 1.44302 42.2731 1.22449 41.8473C1.11488 41.6341 1.1001 41.384 1.18371 41.159C1.30667 40.8248 1.49721 40.7425 1.80502 40.609Z" fill="var(--fill-0, #BABABA)"/>
<path id="Vector_156" d="M12.3149 52.3831C13.3776 52.3731 13.9035 53.6413 12.6416 54.2211C11.8939 54.2997 11.3567 53.6612 11.6104 52.9349C11.7191 52.6238 12.0355 52.5103 12.3149 52.3831Z" fill="var(--fill-0, #BABABA)"/>
<path id="Vector_157" d="M2.37494 60.9013C2.85428 60.7354 3.37739 60.9904 3.54124 61.4705C3.7051 61.9506 3.44722 62.4725 2.96626 62.634C2.48866 62.7942 1.97129 62.5386 1.80856 62.0622C1.64582 61.5853 1.89896 61.0665 2.37494 60.9013Z" fill="var(--fill-0, #BABABA)"/>
<path id="Vector_158" d="M58.5003 53.1593C58.9991 53.1288 59.4305 53.5041 59.4686 54.0023C59.5072 54.5004 59.1387 54.9375 58.6412 54.9837C58.312 55.0142 57.9921 54.8652 57.8045 54.5933C57.6162 54.3221 57.5887 53.9705 57.7334 53.6731C57.8774 53.3757 58.1705 53.1793 58.5003 53.1593Z" fill="var(--fill-0, #BABABA)"/>
<path id="Vector_159" d="M1.74888 50.7077C2.33428 50.6915 3.08148 50.7339 3.01557 51.6262C2.9897 51.9766 2.7148 52.2397 2.43623 52.4379C2.31284 52.4479 1.9451 52.4847 1.84628 52.4423C0.894138 52.0364 0.977249 51.2003 1.74888 50.7077Z" fill="var(--fill-0, #BABABA)"/>
<path id="Vector_160" d="M8.92056 54.3191C9.63721 54.3047 10.4776 55.6097 9.0134 56.2357C8.57135 56.1814 8.18041 55.9451 8.04287 55.4981C7.97603 55.2743 8.00079 55.0336 8.1117 54.8285C8.2899 54.4999 8.58806 54.4145 8.92056 54.3191Z" fill="var(--fill-0, #BABABA)"/>
<path id="Vector_161" d="M1.75882 58.812L1.83776 58.8088C3.06747 58.7664 3.44762 59.7372 2.49442 60.5658C1.36721 60.9125 0.66191 59.4691 1.75882 58.812Z" fill="var(--fill-0, #BABABA)"/>
<path id="Vector_162" d="M42.7989 39.291C43.2447 39.2748 43.6798 39.4543 43.8744 39.8777C43.9741 40.0922 43.9829 40.3378 43.8987 40.5585C43.7752 40.8859 43.5714 41.0336 43.2721 41.1795C42.9223 41.1671 42.4815 40.9694 42.3007 40.682C41.8655 39.9924 42.3138 39.6046 42.7989 39.291Z" fill="var(--fill-0, #BABABA)"/>
<path id="Vector_163" d="M6.50572 60.8919C6.99037 60.779 7.47638 61.0746 7.59865 61.5572C7.72091 62.0397 7.43442 62.5311 6.95439 62.6626C6.63572 62.7493 6.2948 62.6576 6.06286 62.4226C5.83092 62.1869 5.74419 61.8452 5.83603 61.5279C5.92787 61.2099 6.184 60.9673 6.50572 60.8919Z" fill="var(--fill-0, #BABABA)"/>
<path id="Vector_164" d="M44.2815 37.9162C44.7442 37.9143 45.1133 38.0128 45.3627 38.4461C45.4855 38.655 45.5117 38.9069 45.4356 39.137C45.3253 39.4705 45.122 39.5915 44.8321 39.7449C44.4679 39.8141 44.0758 39.7218 43.8744 39.4132C43.4149 38.7068 43.7646 38.2859 44.2815 37.9162Z" fill="var(--fill-0, #BABABA)"/>
<path id="Vector_165" d="M52.7928 50.5606C53.1027 50.4334 53.4581 50.487 53.7168 50.7003C53.9756 50.9129 54.0965 51.2508 54.0317 51.58C53.9662 51.9086 53.7262 52.1755 53.4057 52.274C52.94 52.4174 52.4443 52.1686 52.2803 51.7103C52.1163 51.2515 52.342 50.7452 52.7928 50.5606Z" fill="var(--fill-0, #BABABA)"/>
<path id="Vector_166" d="M58.5177 38.9181C59.6569 38.9524 60.0185 40.1177 58.8295 40.7231C58.0719 40.7736 57.5189 40.2892 57.797 39.4836C57.9098 39.1588 58.2197 39.0509 58.5177 38.9181Z" fill="var(--fill-0, #BABABA)"/>
<path id="Vector_167" d="M53.2162 41.5362C53.9101 41.5299 53.9631 41.9003 54.2381 42.4596C54.0672 43.0432 53.8877 43.1417 53.3995 43.4166C53.0266 43.3985 52.5571 43.1897 52.4424 42.8299C52.1949 42.0512 52.6644 41.7775 53.2162 41.5362Z" fill="var(--fill-0, #BABABA)"/>
<path id="Vector_168" d="M67.8271 32.2987C68.8958 32.2698 69.5872 33.2685 68.4182 34.0699C67.1806 34.3241 66.7185 33.2096 67.8271 32.2987Z" fill="var(--fill-0, #BABABA)"/>
<path id="Vector_169" d="M14.7906 40.0423C15.2563 39.8764 15.7694 40.1133 15.9442 40.576C16.119 41.0386 15.891 41.5561 15.4317 41.7394C15.1271 41.8604 14.7806 41.808 14.5256 41.6022C14.2705 41.3959 14.1467 41.0679 14.2016 40.7449C14.2565 40.4213 14.4818 40.1526 14.7906 40.0423Z" fill="var(--fill-0, #BABABA)"/>
<path id="Vector_170" d="M54.6059 51.3979C55.0505 51.3736 55.4645 51.4048 55.7407 51.8107C55.8579 51.984 55.8997 52.1979 55.8561 52.4024C55.7787 52.7771 55.5586 52.9866 55.2619 53.1936C54.884 53.2073 54.4968 53.1394 54.2437 52.8282C54.0953 52.6449 54.0305 52.4074 54.066 52.1736C54.119 51.8076 54.3216 51.6 54.6059 51.3979Z" fill="var(--fill-0, #BABABA)"/>
<path id="Vector_171" d="M56.4272 52.3001C56.7364 52.1835 57.0849 52.244 57.3362 52.4585C57.5881 52.673 57.7028 53.0072 57.6361 53.3308C57.5694 53.6544 57.3318 53.9162 57.0157 54.0141C56.5481 54.1588 56.0499 53.9056 55.891 53.4424C55.732 52.9791 55.9695 52.4735 56.4272 52.3001Z" fill="var(--fill-0, #BABABA)"/>
<path id="Vector_172" d="M38.9082 37.9754C39.947 38.0184 40.5181 39.4044 39.2686 39.8658C38.0834 39.8028 37.7286 38.6706 38.9082 37.9754Z" fill="var(--fill-0, #BABABA)"/>
<path id="Vector_173" d="M1.78998 46.6569C2.28055 46.6295 2.73402 46.617 2.94519 47.1358C3.19054 47.7393 2.85204 48.1764 2.31995 48.3828C1.85533 48.4071 1.53959 48.3441 1.28732 47.9077C1.16356 47.6963 1.13768 47.4419 1.21643 47.2106C1.31968 46.9057 1.52213 46.796 1.78998 46.6569Z" fill="var(--fill-0, #BABABA)"/>
<path id="Vector_174" d="M51.1162 49.5157C51.5864 49.3872 52.0739 49.6541 52.2186 50.1192C52.3639 50.5843 52.1145 51.0806 51.6549 51.2421C51.3426 51.3519 50.9953 51.2827 50.749 51.0613C50.5034 50.84 50.398 50.5014 50.474 50.1797C50.5507 49.8573 50.797 49.603 51.1162 49.5157Z" fill="var(--fill-0, #BABABA)"/>
<path id="Vector_175" d="M1.87772 44.658C2.62828 44.6486 3.17309 44.9105 2.92026 45.8551C2.84357 46.1419 2.61438 46.2972 2.33929 46.405C1.82903 46.4131 1.50512 46.3689 1.25049 45.8588C1.14449 45.6487 1.13408 45.4037 1.22193 45.1861C1.34694 44.8669 1.58113 44.7839 1.87772 44.658Z" fill="var(--fill-0, #BABABA)"/>
<path id="Vector_176" d="M4.47517 34.4989C5.78039 34.857 5.46478 36.0787 4.50005 36.2851C3.12331 36.1355 3.09426 34.8011 4.47517 34.4989Z" fill="var(--fill-0, #BABABA)"/>
<path id="Vector_177" d="M47.5374 47.5841C47.9002 47.6084 48.2725 47.7138 48.4788 48.0405C48.6023 48.2375 48.6353 48.4775 48.5711 48.7007C48.4707 49.0568 48.2419 49.2438 47.9389 49.419C47.4389 49.3847 46.9557 49.1534 46.796 48.6415C46.7349 48.4488 46.7568 48.24 46.8565 48.0648C47.0136 47.7842 47.2487 47.6763 47.5374 47.5841Z" fill="var(--fill-0, #BABABA)"/>
<path id="Vector_178" d="M31.7028 45.029C32.8583 44.9754 33.2381 46.1606 32.1633 46.9132C31.5195 46.9188 30.9271 46.4898 31.0615 45.784C31.1393 45.3763 31.3824 45.2472 31.7028 45.029Z" fill="var(--fill-0, #BABABA)"/>
<path id="Vector_179" d="M38.425 43.5295C39.7038 43.5949 40.0411 44.6786 38.8764 45.4112C37.7785 45.3239 37.3083 44.2895 38.425 43.5295Z" fill="var(--fill-0, #BABABA)"/>
<path id="Vector_180" d="M60.1282 60.9979C60.7068 60.9592 61.4955 60.996 61.4824 61.8833C61.4781 62.2118 61.195 62.4731 60.9412 62.6657C60.4194 62.7287 60.0627 62.7281 59.751 62.2443C59.6369 62.0672 59.6001 61.8521 59.6487 61.6476C59.7179 61.3414 59.8757 61.1625 60.1282 60.9979Z" fill="var(--fill-0, #BABABA)"/>
<path id="Vector_181" d="M16.5842 40.9201L16.6435 40.9164C17.9311 40.841 18.1203 41.8585 17.2852 42.7202C16.857 42.7389 16.5185 42.7357 16.2198 42.376C16.0693 42.1971 16.0017 41.9632 16.0336 41.7313C16.0842 41.3479 16.2953 41.1415 16.5842 40.9201Z" fill="var(--fill-0, #BABABA)"/>
<path id="Vector_182" d="M37.511 39.4082C38.609 39.4899 39.0778 40.5803 37.9057 41.2718C37.2111 41.3585 36.6175 40.6508 36.8519 39.9899C36.9748 39.6445 37.2117 39.5622 37.511 39.4082Z" fill="var(--fill-0, #BABABA)"/>
<path id="Vector_183" d="M11.3686 38.173C11.7699 38.2098 12.1442 38.3669 12.3252 38.7529C12.4252 38.9711 12.4338 39.2199 12.3491 39.4437C12.2188 39.7885 11.9921 39.9307 11.6731 40.066C11.5882 40.0441 11.504 40.0204 11.4205 39.9936C10.3969 39.6619 10.2864 38.6194 11.3686 38.173Z" fill="var(--fill-0, #BABABA)"/>
<path id="Vector_184" d="M35.8288 50.8456C36.1505 50.8094 36.4673 50.9491 36.6574 51.2116C36.8476 51.4734 36.8825 51.8176 36.7484 52.1125C36.6144 52.4074 36.3326 52.6076 36.0096 52.6369C35.5183 52.6811 35.0831 52.3214 35.0332 51.8307C34.984 51.34 35.3387 50.9004 35.8288 50.8456Z" fill="var(--fill-0, #BABABA)"/>
<path id="Vector_185" d="M55.1203 40.6714C56.2501 41.0411 56.2732 42.2445 54.9482 42.5456C54.7375 42.4708 54.5754 42.3523 54.3858 42.232C53.9145 41.3055 54.1059 40.9258 55.1203 40.6714Z" fill="var(--fill-0, #BABABA)"/>
<path id="Vector_186" d="M24.2315 61.0004C24.825 60.9598 25.683 61.0097 25.6066 61.9799C25.585 62.2523 25.3322 62.5049 25.0996 62.6533C23.8304 62.8977 23.3433 61.7748 24.2315 61.0004Z" fill="var(--fill-0, #BABABA)"/>
<path id="Vector_187" d="M26.2856 60.9966C26.3862 60.9916 26.8368 60.9642 26.9076 60.9916C27.8563 61.357 27.8307 62.2268 27.016 62.6776C26.5562 62.7898 26.1827 62.6956 25.9229 62.276C25.7909 62.0653 25.7503 61.809 25.8103 61.5671C25.8886 61.2429 26.0199 61.15 26.2856 60.9966Z" fill="var(--fill-0, #BABABA)"/>
<path id="Vector_188" d="M20.6464 60.948C21.9086 61.0478 21.9584 62.4731 20.7805 62.7131C20.3065 62.6888 19.9395 62.493 19.82 61.998C19.7641 61.7629 19.807 61.5154 19.9386 61.3134C20.1216 61.0328 20.343 61.0016 20.6464 60.948Z" fill="var(--fill-0, #BABABA)"/>
<path id="Vector_189" d="M34.2171 60.9979C34.7078 60.9723 35.0551 60.9168 35.3992 61.3514C35.807 61.8664 35.4678 62.349 35.027 62.6639C33.7215 62.8902 33.3103 61.6033 34.2171 60.9979Z" fill="var(--fill-0, #BABABA)"/>
<path id="Vector_190" d="M1.77625 52.769C2.25472 52.721 2.708 52.6543 2.94555 53.1556C3.20362 53.7005 2.85016 54.1862 2.37051 54.4157C1.10587 54.5609 0.718248 53.4767 1.77625 52.769Z" fill="var(--fill-0, #BABABA)"/>
<path id="Vector_191" d="M8.49783 60.9312C9.79052 60.9642 10.026 62.1937 9.00105 62.6969C8.88814 62.6975 8.5181 62.7012 8.43474 62.6564C7.56521 62.19 7.59483 61.2884 8.49783 60.9312Z" fill="var(--fill-0, #BABABA)"/>
<path id="Vector_192" d="M50.2483 60.9942C50.7602 60.9711 51.1387 60.9462 51.4417 61.4425C51.7485 61.945 51.4205 62.3983 50.9928 62.6527C50.5613 62.7294 50.1854 62.778 49.9061 62.3821C49.5033 61.8116 49.7614 61.3302 50.2483 60.9942Z" fill="var(--fill-0, #BABABA)"/>
<path id="Vector_193" d="M14.675 60.9493C15.8816 61.0628 15.9682 62.397 14.84 62.7094C13.5796 62.6496 13.3543 61.1432 14.675 60.9493Z" fill="var(--fill-0, #BABABA)"/>
<path id="Vector_194" d="M30.2905 61.001C30.8991 60.963 31.6319 61.031 31.5799 61.9818C31.5642 62.2692 31.2847 62.5342 31.0334 62.6801C29.74 62.8827 29.3172 61.569 30.2905 61.001Z" fill="var(--fill-0, #BABABA)"/>
<path id="Vector_195" d="M18.5635 41.7413C19.8729 41.9302 19.8695 43.0338 18.8598 43.5632C17.4929 43.5127 17.405 42.015 18.5635 41.7413Z" fill="var(--fill-0, #BABABA)"/>
<path id="Vector_196" d="M20.0585 42.6503C21.4129 42.6678 21.7809 43.7757 20.6442 44.4622C19.877 44.5227 19.6127 44.1224 19.4356 43.4584C19.6675 43.118 19.7761 42.9534 20.0585 42.6503Z" fill="var(--fill-0, #BABABA)"/>
<path id="Vector_197" d="M56.1958 60.9998C56.7732 60.9661 57.5233 60.9985 57.5301 61.8826C57.5326 62.1906 57.2682 62.4718 57.0207 62.6489C55.7145 62.8815 55.2244 61.6526 56.1958 60.9998Z" fill="var(--fill-0, #BABABA)"/>
<path id="Vector_198" d="M44.1967 61.0029C44.7635 60.9698 45.5696 60.9848 45.5534 61.9163C45.5484 62.2125 45.2872 62.4818 45.0459 62.6514C43.6979 62.8584 43.2783 61.6538 44.1967 61.0029Z" fill="var(--fill-0, #BABABA)"/>
<path id="Vector_199" d="M67.998 60.9374C68.7655 60.885 69.384 61.0952 69.1527 62.1115C69.0841 62.4107 68.8977 62.5111 68.6196 62.6458C67.3408 62.7742 66.9723 61.5254 67.998 60.9374Z" fill="var(--fill-0, #BABABA)"/>
<path id="Vector_200" d="M48.1784 61.0035C48.7195 60.9717 49.103 60.9174 49.4447 61.4368C49.7358 61.8789 49.4359 62.397 49.0531 62.6533C47.7238 62.844 47.2693 61.6881 48.1784 61.0035Z" fill="var(--fill-0, #BABABA)"/>
<path id="Vector_201" d="M18.2586 61.001C18.7896 60.968 19.1456 60.915 19.4979 61.3889C19.8169 61.8178 19.5496 62.379 19.157 62.6446C18.5288 62.7362 17.8419 62.6527 17.7964 61.7754C17.7795 61.4481 18.0116 61.2031 18.2586 61.001Z" fill="var(--fill-0, #BABABA)"/>
<path id="Vector_202" d="M12.3024 61.0266C12.7398 60.8084 13.2712 60.9811 13.4969 61.415C13.7225 61.8483 13.5592 62.3827 13.1298 62.6159C12.8452 62.7705 12.4993 62.7599 12.2251 62.5872C11.9509 62.4145 11.7911 62.1077 11.8071 61.7841C11.8231 61.4605 12.0125 61.1712 12.3024 61.0266Z" fill="var(--fill-0, #BABABA)"/>
<path id="Vector_203" d="M54.1714 61.0029C54.773 60.9592 55.5811 61.0197 55.5293 61.9481C55.5138 62.2243 55.2737 62.4924 55.0524 62.6576C54.538 62.7169 54.1757 62.7318 53.8553 62.2692C53.5186 61.7829 53.7443 61.304 54.1714 61.0029Z" fill="var(--fill-0, #BABABA)"/>
<path id="Vector_204" d="M7.61908 36.2801C8.86868 36.2271 9.25319 37.2391 8.32737 38.1338C7.07888 38.092 6.67018 37.062 7.61908 36.2801Z" fill="var(--fill-0, #BABABA)"/>
<path id="Vector_205" d="M10.2624 60.9985C10.8398 60.9524 11.5971 60.9898 11.632 61.8477C11.6442 62.1483 11.3691 62.4519 11.14 62.6365C9.81035 62.9395 9.38201 61.6064 10.2624 60.9985Z" fill="var(--fill-0, #BABABA)"/>
<path id="Vector_206" d="M16.2709 60.9992C16.3397 60.9948 16.4085 60.9911 16.4773 60.988C17.6297 60.9362 18.0546 61.9625 17.1714 62.6471C16.5649 62.715 15.8366 62.6714 15.7988 61.7785C15.7857 61.4674 16.034 61.1912 16.2709 60.9992Z" fill="var(--fill-0, #BABABA)"/>
<path id="Vector_207" d="M51.4816 42.4041C51.8283 42.4808 52.155 42.6765 52.3233 43.0001C52.4299 43.2084 52.4455 43.4522 52.3651 43.6729C52.2529 43.9871 51.9729 44.1268 51.6967 44.2733L51.587 44.254C50.9934 44.1511 50.4485 43.7839 50.6592 43.0824C50.7764 42.6921 51.1349 42.5562 51.4816 42.4041Z" fill="var(--fill-0, #BABABA)"/>
<path id="Vector_208" d="M42.4877 60.9368C42.9703 60.8557 43.4286 61.1768 43.5159 61.6582C43.6031 62.1395 43.2877 62.6015 42.8076 62.695C42.4915 62.7568 42.1666 62.6439 41.9571 62.3995C41.7476 62.1545 41.6865 61.8159 41.7963 61.5129C41.906 61.2105 42.1704 60.9904 42.4877 60.9368Z" fill="var(--fill-0, #BABABA)"/>
<path id="Vector_209" d="M40.192 60.9954C40.2818 60.9898 40.3716 60.9854 40.4614 60.9829C41.5936 60.9499 41.9372 61.892 41.0693 62.6526C40.4289 62.7324 39.7587 62.6601 39.7468 61.7629C39.7418 61.4262 39.9432 61.2105 40.192 60.9954Z" fill="var(--fill-0, #BABABA)"/>
<path id="Vector_210" d="M64.2408 60.9586C64.7109 60.8246 65.2016 61.0939 65.3412 61.5622C65.4815 62.0304 65.2197 62.5242 64.7533 62.6707C64.4459 62.7674 64.1105 62.6913 63.8748 62.4712C63.6397 62.2511 63.5406 61.9213 63.6167 61.6077C63.6927 61.2947 63.9309 61.0465 64.2408 60.9586Z" fill="var(--fill-0, #BABABA)"/>
<path id="Vector_211" d="M62.0062 37.0464C63.0923 37.014 63.5824 38.2067 62.4008 38.8308C62.3198 38.8427 62.0467 38.862 61.9806 38.8296C60.993 38.3501 61.1102 37.4872 62.0062 37.0464Z" fill="var(--fill-0, #BABABA)"/>
<path id="Vector_212" d="M52.2223 60.9947C52.829 60.958 53.5416 61.0565 53.5348 61.9449C53.5329 62.2193 53.2636 62.5117 53.036 62.6663C52.4935 62.7081 52.1662 62.7224 51.8252 62.2149C51.7055 62.0379 51.6662 61.8184 51.7161 61.6108C51.7927 61.2865 51.9586 61.16 52.2223 60.9947Z" fill="var(--fill-0, #BABABA)"/>
<path id="Vector_213" d="M38.2698 60.996C38.8341 60.9655 39.5249 60.9929 39.5529 61.8477C39.5629 62.1594 39.3029 62.4662 39.0641 62.6607C38.4905 62.7144 38.1102 62.7087 37.8097 62.122C37.7124 61.9288 37.6974 61.7043 37.7679 61.4998C37.8708 61.1937 37.9923 61.1269 38.2698 60.996Z" fill="var(--fill-0, #BABABA)"/>
<path id="Vector_214" d="M28.3002 61.0253C28.5935 60.8863 28.9394 60.9169 29.2035 61.1058C29.4676 61.2947 29.6082 61.6127 29.5706 61.935C29.533 62.258 29.3233 62.5342 29.0228 62.6577C28.5754 62.8416 28.0631 62.6352 27.8674 62.1932C27.6716 61.7511 27.8635 61.2336 28.3002 61.0253Z" fill="var(--fill-0, #BABABA)"/>
<path id="Vector_215" d="M58.466 60.9243C58.9417 60.8613 59.3819 61.1849 59.4636 61.6575C59.5446 62.1301 59.2385 62.5828 58.769 62.6826C58.4492 62.7505 58.1175 62.6377 57.9049 62.3889C57.6929 62.1401 57.633 61.7953 57.7502 61.4898C57.8674 61.1843 58.1418 60.9673 58.466 60.9243Z" fill="var(--fill-0, #BABABA)"/>
<path id="Vector_216" d="M22.3025 61.0197C22.5917 60.877 22.9353 60.9019 23.2014 61.084C23.4675 61.266 23.6147 61.5771 23.5864 61.8989C23.5582 62.22 23.3589 62.5005 23.0651 62.634C22.6213 62.8347 22.0984 62.6421 21.8903 62.2019C21.6822 61.7611 21.8656 61.2355 22.3025 61.0197Z" fill="var(--fill-0, #BABABA)"/>
<path id="Vector_217" d="M46.2567 60.9998C47.5611 60.9125 48.0019 61.9369 47.0342 62.657C46.5223 62.7025 46.1389 62.7462 45.8334 62.2505C45.5123 61.728 45.8009 61.2679 46.2567 60.9998Z" fill="var(--fill-0, #BABABA)"/>
<path id="Vector_218" d="M36.2054 60.9979C36.7859 60.963 37.5509 60.9948 37.5646 61.8801C37.5696 62.1788 37.3021 62.4818 37.0658 62.6595C36.5396 62.6975 36.1692 62.7218 35.86 62.2224C35.567 61.7479 35.7989 61.2791 36.2054 60.9979Z" fill="var(--fill-0, #BABABA)"/>
<path id="Vector_219" d="M13.0807 39.1445C13.3901 39.0509 13.726 39.132 13.9586 39.3564C14.1911 39.5809 14.2839 39.9138 14.2011 40.2262C14.1181 40.5386 13.8725 40.7818 13.5592 40.8616C13.0897 40.9813 12.6106 40.7038 12.4806 40.2368C12.3505 39.7704 12.617 39.2854 13.0807 39.1445Z" fill="var(--fill-0, #BABABA)"/>
<path id="Vector_220" d="M61.7493 54.9881C62.1433 54.9743 62.5879 55.0485 62.8467 55.3765C62.9782 55.5423 63.0368 55.7543 63.0088 55.9638C62.9614 56.3255 62.7619 56.5312 62.4962 56.7463C61.1551 56.8099 60.8359 55.9651 61.7493 54.9881Z" fill="var(--fill-0, #BABABA)"/>
<path id="Vector_221" d="M32.2545 61.0309C32.6894 60.8115 33.2201 60.9817 33.4457 61.4138C33.6713 61.8452 33.508 62.3783 33.0792 62.6096C32.7966 62.7624 32.4539 62.7512 32.1821 62.5797C31.9103 62.4089 31.7515 62.1052 31.7665 61.7841C31.7815 61.4636 31.9679 61.1756 32.2545 61.0309Z" fill="var(--fill-0, #BABABA)"/>
<path id="Vector_222" d="M65.4853 56.7332C66.708 56.9327 66.9692 57.9403 65.8563 58.6217L65.7877 58.6105C65.1804 58.5064 65.0476 58.3274 64.6966 57.8405C64.888 57.275 64.9902 57.0405 65.4853 56.7332Z" fill="var(--fill-0, #BABABA)"/>
<path id="Vector_223" d="M34.6155 42.1534C35.7559 42.1883 36.1549 43.3007 35.0208 44.0414C33.9446 43.9865 33.5128 42.8299 34.6155 42.1534Z" fill="var(--fill-0, #BABABA)"/>
<path id="Vector_224" d="M62.0567 60.9998C62.6147 60.9649 63.434 60.9804 63.4396 61.8777C63.4415 62.1794 63.1659 62.4662 62.9215 62.6377C61.7481 62.9314 61.205 61.7798 62.0567 60.9998Z" fill="var(--fill-0, #BABABA)"/>
<path id="Vector_225" d="M66.2939 60.9424C67.526 60.9025 67.6288 62.4406 66.5409 62.7013C66.047 62.6626 65.7415 62.536 65.5663 62.0254C65.4859 61.7972 65.509 61.5447 65.6287 61.3346C65.7895 61.0515 66.0015 61.0091 66.2939 60.9424Z" fill="var(--fill-0, #BABABA)"/>
<path id="Vector_226" d="M26.0873 50.1915C27.1772 50.2682 27.6718 51.4752 26.5798 52.027C25.4074 52.0532 24.992 50.9054 26.0873 50.1915Z" fill="var(--fill-0, #BABABA)"/>
<path id="Vector_227" d="M29.0377 47.637C30.1991 47.7917 30.3151 49.053 29.1275 49.5275C28.8484 49.434 28.4167 49.1565 28.2776 48.8728C28.1882 48.6883 28.1784 48.4744 28.2506 48.2824C28.388 47.9058 28.6999 47.7873 29.0377 47.637Z" fill="var(--fill-0, #BABABA)"/>
<path id="Vector_228" d="M35.4896 8.9835C35.8575 8.98231 36.1967 9.06068 36.4292 9.37611C36.5677 9.56659 36.6207 9.80632 36.5745 10.0374C36.5022 10.4013 36.2833 10.6277 35.9915 10.83C35.6249 10.7872 35.1791 10.5954 34.9728 10.2752C34.8587 10.1015 34.8206 9.88925 34.8661 9.68674C34.9478 9.32679 35.2016 9.16549 35.4896 8.9835Z" fill="var(--fill-0, #BABABA)"/>
<path id="Vector_229" d="M26.6924 23.087C27.8063 23.299 28.1625 24.3409 27.1031 24.8647L27.0617 24.8584C25.7585 24.6702 25.5023 23.5403 26.6924 23.087Z" fill="var(--fill-0, #BABABA)"/>
<path id="Vector_230" d="M24.7235 51.5595C25.8025 51.5376 26.318 52.6599 25.1608 53.3183C24.5211 53.3682 23.9319 52.8619 24.1058 52.1967C24.2023 51.8269 24.4158 51.744 24.7235 51.5595Z" fill="var(--fill-0, #BABABA)"/>
<path id="Vector_231" d="M30.2609 46.3944C30.9703 46.3813 31.1706 46.7348 31.4713 47.3247C31.252 47.7804 31.2027 47.902 30.7682 48.1464C29.806 48.3085 29.1119 47.1345 30.2609 46.3944Z" fill="var(--fill-0, #BABABA)"/>
<path id="Vector_232" d="M27.5043 49.0037C27.6082 49.0162 27.7114 49.0343 27.8135 49.0574C28.2872 49.1677 28.4697 49.4969 28.7057 49.8772L28.6828 49.9315C28.49 50.3991 28.4547 50.4839 28.0102 50.7221C26.9781 50.9285 26.3629 49.7027 27.5043 49.0037Z" fill="var(--fill-0, #BABABA)"/>
<g id="Vector_233">
</g>
<path id="Vector_234" d="M13.499 11.6662C13.8506 11.6641 14.42 11.9048 14.5887 12.1975C15.0453 12.99 14.3722 13.4939 13.8578 13.8541C13.6789 13.8672 13.4813 13.8592 13.3089 13.812C12.6839 13.641 12.4241 12.9682 12.6562 12.389C12.8294 11.9573 13.0963 11.8453 13.499 11.6662Z" fill="var(--fill-0, #BABABA)"/>
<path id="Vector_235" d="M15.0822 13.4129C16.5711 13.624 16.5898 15.4558 15.356 15.4732L14.6286 15.5176C13.7695 14.6749 13.8487 13.7555 15.0822 13.4129Z" fill="var(--fill-0, #BABABA)"/>
<path id="Vector_236" d="M15.217 10.0151C15.5982 10.0163 15.9493 10.2224 16.1363 10.5545C16.3233 10.8867 16.3174 11.2938 16.1207 11.6203C15.924 11.9469 15.5669 12.1425 15.1859 12.1325C14.606 12.1173 14.1464 11.6384 14.1549 11.0584C14.1634 10.4785 14.6369 10.0133 15.217 10.0151Z" fill="var(--fill-0, #BABABA)"/>
<path id="Vector_237" d="M16.3151 11.8098C17.545 11.7088 17.6259 12.3738 17.5816 13.3903C17.2973 13.6542 17.2163 13.6922 16.8828 13.8701C16.2759 13.9322 16.0922 13.6367 15.7236 13.2125C15.6564 12.4658 15.661 12.2259 16.3151 11.8098Z" fill="var(--fill-0, #BABABA)"/>
<path id="Vector_238" d="M11.3932 11.9203C12.6209 11.8819 12.7753 13.4291 11.7954 13.7402C10.9425 13.7494 10.4357 13.2628 10.7735 12.3278C10.8669 12.0693 11.1382 12.0011 11.3932 11.9203Z" fill="var(--fill-0, #BABABA)"/>
<path id="Vector_239" d="M18.3765 11.9266C19.8234 11.8594 19.882 13.4165 18.9708 13.7044C17.8509 13.6863 17.8128 13.4079 17.8271 12.3701C18.0533 12.1348 18.0981 12.0953 18.3765 11.9266Z" fill="var(--fill-0, #BABABA)"/>
<path id="Vector_240" d="M14.8917 15.6599C16.013 15.6654 16.4668 16.5818 15.5141 17.2326C15.0427 17.2401 14.6621 17.2592 14.3957 16.8022C14.1047 16.3032 14.4824 15.8885 14.8917 15.6599Z" fill="var(--fill-0, #BABABA)"/>
<path id="Vector_241" d="M14.9559 8.24434C16.0792 8.19982 16.489 9.29848 15.5542 9.79952C14.2612 9.83481 13.9363 8.76209 14.9559 8.24434Z" fill="var(--fill-0, #BABABA)"/>
<path id="Vector_242" d="M20.2835 11.9765C21.347 12.0818 21.5776 13.1213 20.6565 13.6956C19.5256 13.66 19.3237 12.414 20.2835 11.9765Z" fill="var(--fill-0, #BABABA)"/>
<path id="Vector_243" d="M14.6295 17.4721C15.6552 17.4235 16.5732 17.7425 15.5867 18.8293C14.605 19.1251 14.0663 18.3374 14.6295 17.4721Z" fill="var(--fill-0, #BABABA)"/>
<path id="Vector_244" d="M9.69782 12.0388C10.7376 12.0257 10.7873 13.3551 9.88524 13.6911C8.86009 13.3738 8.85124 12.6189 9.69782 12.0388Z" fill="var(--fill-0, #BABABA)"/>
<path id="Vector_245" d="M15.1003 6.48765C16.0344 6.6982 16.4024 7.63269 15.5826 8.02325C15.276 8.00486 14.9099 8.02251 14.7029 7.76644C14.2802 7.2437 14.6792 6.79129 15.1003 6.48765Z" fill="var(--fill-0, #BABABA)"/>
<g id="Vector_246">
</g>
<path id="Vector_247" d="M62.9552 13.6068C63.8268 13.5574 63.9715 13.7918 64.3543 14.5218C64.1847 15.0969 64.0905 15.4511 63.5057 15.6717C63.0412 15.7164 62.6459 15.7563 62.3535 15.3249C61.8497 14.5808 62.3759 13.9933 62.9552 13.6068Z" fill="var(--fill-0, #BABABA)"/>
<path id="Vector_248" d="M61.6951 12.1216C62.1727 12.1057 62.533 12.3528 62.6322 12.8413C62.6877 13.1262 62.6278 13.4215 62.4663 13.6625C62.2537 13.9728 62.0492 14.0369 61.7013 14.1042C60.5067 13.8989 60.3739 12.4309 61.6951 12.1216Z" fill="var(--fill-0, #BABABA)"/>
<path id="Vector_249" d="M62.8909 10.87C63.3498 10.8378 63.775 10.7909 64.0762 11.2149C64.4833 11.7876 64.0494 12.3174 63.6067 12.6577C62.4682 12.9224 61.8048 11.6162 62.8909 10.87Z" fill="var(--fill-0, #BABABA)"/>
<path id="Vector_250" d="M64.6355 12.1193C65.1324 12.1471 65.4684 12.2327 65.6231 12.7664C65.7141 13.0786 65.6655 13.4146 65.4909 13.6886C65.2964 13.9991 65.0869 14.0311 64.7464 14.1071C64.2582 13.9425 64.1267 13.6938 63.7993 13.2882C64.0232 12.707 64.1024 12.4239 64.6355 12.1193Z" fill="var(--fill-0, #BABABA)"/>
<path id="Vector_251" d="M59.6313 12.1788C60.7149 12.0689 61.0217 13.276 60.0515 13.9178C58.7297 13.8644 58.5196 12.6043 59.6313 12.1788Z" fill="var(--fill-0, #BABABA)"/>
<path id="Vector_252" d="M66.4024 12.2307C67.5665 12.2379 67.6981 13.4995 66.7753 13.9894C65.648 13.9213 65.4186 12.7045 66.4024 12.2307Z" fill="var(--fill-0, #BABABA)"/>
<path id="Vector_253" d="M62.7818 15.8547C63.1727 15.8443 63.4907 15.7871 63.805 16.07C64.2788 16.4963 63.9777 16.9339 63.5905 17.2558C63.4795 17.2818 63.3673 17.3024 63.2544 17.3176C62.3404 17.4411 62.1708 16.5374 62.7818 15.8547Z" fill="var(--fill-0, #BABABA)"/>
<path id="Vector_254" d="M62.9352 9.12036C63.954 9.08308 64.3942 9.90578 63.6478 10.6073C63.275 10.6295 62.9383 10.6931 62.6559 10.4069C62.1932 9.93702 62.5262 9.45381 62.9352 9.12036Z" fill="var(--fill-0, #BABABA)"/>
<path id="Vector_255" d="M63.0082 7.42688C63.4116 7.30729 63.8355 7.53449 63.9596 7.9364C64.0843 8.3383 63.8617 8.76527 63.4614 8.89402C63.1983 8.97863 62.9096 8.91528 62.7064 8.72811C62.5031 8.54094 62.4158 8.25893 62.4782 7.98964C62.5405 7.72036 62.7432 7.50544 63.0082 7.42688Z" fill="var(--fill-0, #BABABA)"/>
<path id="Vector_256" d="M57.8288 12.3491C58.8501 12.3024 59.1313 13.2264 58.4828 13.801L58.4249 13.8034C57.4123 13.8352 57.0619 13.0808 57.8288 12.3491Z" fill="var(--fill-0, #BABABA)"/>
<path id="Vector_257" d="M63.0437 17.5376C64.1123 17.5494 64.2514 18.4602 63.4321 18.9329C62.5592 19.0218 62.0367 17.8614 63.0437 17.5376Z" fill="var(--fill-0, #BABABA)"/>
<path id="Vector_258" d="M67.9518 12.3549C68.9706 12.3231 69.1003 13.1243 68.5223 13.8333C68.2018 13.8743 67.9418 13.9214 67.7348 13.6263C67.4169 13.1724 67.5279 12.6714 67.9518 12.3549Z" fill="var(--fill-0, #BABABA)"/>
<g id="Vector_259">
</g>
<path id="Vector_260" d="M25.0336 1.54833C25.3076 1.451 25.6128 1.51023 25.8306 1.70289C26.0483 1.89561 26.1443 2.19134 26.0811 2.47515C26.0179 2.75896 25.8056 2.98604 25.5266 3.06816C25.1114 3.19036 24.6743 2.95979 24.5408 2.5481C24.4072 2.13634 24.6257 1.6931 25.0336 1.54833Z" fill="var(--fill-0, #BABABA)"/>
<g id="Vector_261">
</g>
<path id="Vector_262" d="M67.2404 23.3268C68.2779 23.5002 68.4431 24.5752 67.4593 25.0476C66.4305 24.7594 66.2135 23.8074 67.2404 23.3268Z" fill="var(--fill-0, #BABABA)"/>
<g id="Vector_263">
</g>
<path id="Vector_264" d="M7.77453 19.6257C8.1851 19.4999 8.62068 19.727 8.75248 20.1358C8.88423 20.5445 8.66339 20.9833 8.25662 21.1209C7.98821 21.2118 7.69167 21.151 7.48062 20.9619C7.2695 20.7728 7.17667 20.4848 7.23752 20.208C7.29844 19.9313 7.50363 19.7087 7.77453 19.6257Z" fill="var(--fill-0, #BABABA)"/>
</g>
</svg>
