<svg preserveAspectRatio="none" width="100%" height="100%" overflow="visible" style="display: block;" viewBox="0 0 65.6647 24" fill="none" xmlns="http://www.w3.org/2000/svg">
<g id="Component 8">
<path id="Vector" d="M10.6777 0C4.64987 0 0.890314 4.7996 2.26221 9.48387L0 9.49196V12.5049H2.26625V23.6945H7.44019V12.5049H11.4527V9.46364H9.61742C7.07395 9.46364 5.60493 8.04723 5.60493 6.0683C5.60493 4.41515 7.27832 3.13836 9.17428 3.13836C13.4093 3.13836 14.6578 6.79067 14.6578 6.79067V23.6945H19.8317V4.31398C18.6561 2.78426 15.4186 0 10.6777 0Z" fill="var(--fill-0, white)"/>
<path id="Vector_2" d="M26.6808 16.3565L36.1262 13.5136C36.1262 13.3295 36.1262 13.1473 36.0959 12.9632C35.8511 10.4258 33.8944 7.79736 29.37 7.79736C25.1814 7.79736 21.6667 11.0369 21.6667 16.142C21.6667 20.9416 25.2745 23.9991 29.461 23.9991C33.6475 23.9991 35.8814 21.921 36.1869 18.6794C35.3007 19.4746 33.8033 19.9643 32.0915 19.9643C30.2259 19.9643 27.6278 19.1388 26.6808 16.3565ZM28.9127 10.2134C30.2886 10.2134 31.359 11.1907 31.1445 13.9122H26.3146C26.3146 11.7107 27.4153 10.2134 28.9127 10.2134Z" fill="var(--fill-0, white)"/>
<path id="Vector_3" d="M48.0226 7.79792C45.3334 7.79792 43.834 9.26492 43.1015 10.825V7.82827L37.966 8.409V23.6941H43.1015V11.4968C43.5285 11.3754 43.9271 11.2823 44.4168 11.2823C46.4949 11.2823 47.4742 12.4741 47.4742 14.797V23.6921H52.6097V13.1459C52.6097 9.41668 50.562 7.7959 48.0246 7.7959L48.0226 7.79792Z" fill="var(--fill-0, white)"/>
<path id="Vector_4" d="M61.5389 8.10367V3.51855L56.4034 4.12963V8.10367H54.0178V10.8556H56.4034V23.6943H61.5389V10.8556H65.6647V8.10367H61.5389Z" fill="var(--fill-0, white)"/>
</g>
</svg>
