<svg preserveAspectRatio="none" width="100%" height="100%" overflow="visible" style="display: block;" viewBox="0 0 66.894 24" fill="none" xmlns="http://www.w3.org/2000/svg">
<g id="Component 8">
<path id="Vector" d="M10.8154 0C4.70982 0 0.901793 4.86149 2.29137 9.60615L0 9.61435V12.6661H2.29547V24H7.53612V12.6661H11.6003V9.58565H9.74142C7.16516 9.58565 5.6772 8.15098 5.6772 6.14654C5.6772 4.47208 7.37216 3.17882 9.29257 3.17882C13.5822 3.17882 14.8468 6.87822 14.8468 6.87822V24H20.0874V4.3696C18.8967 2.82015 15.6174 0 10.8154 0Z" fill="var(--fill-0, white)"/>
<path id="Vector_2" d="M26.9894 16.2589L36.5566 13.3793C36.5566 13.1928 36.5566 13.0084 36.5259 12.8219C36.2779 10.2518 34.296 7.58941 29.7132 7.58941C25.4707 7.58941 21.9107 10.8707 21.9107 16.0417C21.9107 20.9032 25.565 24 29.8054 24C34.0459 24 36.3086 21.8951 36.6181 18.6118C35.7204 19.4173 34.2037 19.9132 32.4698 19.9132C30.5802 19.9132 27.9486 19.077 26.9894 16.2589ZM29.25 10.0366C30.6437 10.0366 31.7279 11.0265 31.5107 13.7831H26.6184C26.6184 11.5532 27.7334 10.0366 29.25 10.0366Z" fill="var(--fill-0, white)"/>
<path id="Vector_3" d="M48.6275 7.89889C45.9036 7.89889 44.3849 9.3848 43.643 10.965V7.92963L38.4413 8.51785V24H43.643V11.6454C44.0754 11.5225 44.4792 11.4282 44.9752 11.4282C47.0801 11.4282 48.072 12.6354 48.072 14.9882V23.998H53.2737V13.3158C53.2737 9.53852 51.1996 7.89684 48.6295 7.89684L48.6275 7.89889Z" fill="var(--fill-0, white)"/>
<path id="Vector_4" d="M62.7151 8.20837V3.56414L57.5133 4.18309V8.20837H55.0969V10.9957H57.5133V24H62.7151V10.9957H66.894V8.20837H62.7151Z" fill="var(--fill-0, white)"/>
</g>
</svg>
