<svg width="141" height="200" viewBox="0 0 141 200" fill="none" xmlns="http://www.w3.org/2000/svg">
<g opacity="0.48">
<path d="M101.85 70.0732C108.178 66.7571 107.758 77.4924 102.14 74.7616C100.83 72.9758 100.444 71.94 101.85 70.0732Z" fill="#BABABA"/>
<path d="M88.647 51.9629C91.2142 49.8542 93.6626 49.5855 94.4346 53.5544C94.5625 54.2155 94.4707 54.7777 94.6392 55.4863C94.3082 56.3868 92.8816 56.4474 92.0253 56.4996C90.5777 55.4914 89.3482 53.5585 88.647 51.9629Z" fill="#BABABA"/>
<path d="M24.6708 153.273C24.3426 155.32 23.7821 156.219 21.4896 155.535C20.1238 155.189 19.7141 153.241 20.41 152.159C21.8128 149.98 24.0797 149.585 24.7066 152.54L24.6708 153.273Z" fill="#BABABA"/>
<path d="M34.9194 139.672C34.2099 140.497 33.2948 140.581 32.4513 139.942C28.416 136.882 36.5108 133.629 35.8776 138.015C35.5954 138.634 35.4049 139.213 34.9194 139.672Z" fill="#BABABA"/>
<path d="M130.823 158.056C130.519 158.676 130.576 160.187 129.196 159.918C127.52 159.591 126.733 153.969 129.699 155.491C130.308 155.802 130.363 156.269 130.545 156.89C130.742 157.408 130.88 157.552 130.823 158.056Z" fill="#BABABA"/>
<path d="M125.553 146.783C125.282 145.496 124.334 143.441 125.272 142.407C126.31 141.898 126.896 142.085 127.601 142.931L127.984 143.666C127.717 145.879 127.683 146.195 125.553 146.783Z" fill="#BABABA"/>
<path d="M79.3543 74.4844C80.0134 74.531 80.5807 74.5721 81.1646 74.9123C81.8674 75.3311 82.3625 76.0276 82.525 76.8303C82.8922 78.671 81.586 80.0739 79.8208 80.2976C79.106 80.388 78.4935 79.7686 77.9819 79.3451L77.8555 79.4136C78.1956 81.8982 76.2814 83.7858 73.8752 82.4296C72.7104 81.7724 72.5254 80.7538 72.2304 79.5471C72.2018 79.7925 72.1687 80.0374 72.1296 80.2815C71.9475 81.4131 71.7218 81.8533 70.8128 82.4934C70.0544 82.568 69.1365 82.6923 68.4468 82.3364C66.9334 81.5556 66.371 79.6628 67.1817 78.2087C67.6154 77.4185 68.3646 76.8497 69.2425 76.6444C71.1815 76.2043 71.7624 77.1702 72.1838 78.7629H72.3944C72.8113 77.1893 74.611 75.8828 76.0136 76.9904C76.2814 77.2021 76.8728 77.5852 77.2039 77.3931C77.0263 75.7244 77.7923 75.016 79.3543 74.4844Z" fill="#BABABA"/>
<path d="M84.9737 0.932734C86.0647 0.573078 87.2656 0.834321 88.1083 1.61488C88.951 2.39544 89.3046 3.57222 89.0293 4.6879C88.7554 5.80359 87.8961 6.68226 86.7871 6.98247C85.1362 7.42941 83.4283 6.47971 82.9362 4.84034C82.4456 3.20097 83.3485 1.46846 84.9737 0.932734Z" fill="#BABABA"/>
<path d="M134.106 188.251C138.5 187.974 140.198 192.588 136.147 194.302C135.586 194.378 134.975 194.389 134.425 194.237C133.513 193.983 132.74 193.372 132.281 192.541C131.267 190.677 132.412 189.096 134.106 188.251Z" fill="#BABABA"/>
<path d="M51.7618 46.3133C52.8345 45.9607 54.0138 46.2114 54.8502 46.97C55.6866 47.7284 56.0511 48.8778 55.8047 49.9796C55.5584 51.0816 54.739 51.9662 53.6593 52.2962C52.0139 52.7993 50.2702 51.8836 49.7502 50.2436C49.2301 48.6035 50.1273 46.8505 51.7618 46.3133Z" fill="#BABABA"/>
<path d="M124.593 55.1987C126.173 55.3199 127.654 56.111 128.089 57.7356C128.299 58.5044 128.19 59.3256 127.786 60.013C127.229 60.9707 126.555 61.2772 125.549 61.5502C121.502 61.0769 120.035 56.7087 124.593 55.1987Z" fill="#BABABA"/>
<path d="M110.406 49.5833C112.09 49.1651 113.793 50.1959 114.202 51.8818C114.613 53.5675 113.573 55.2654 111.886 55.6674C110.21 56.0664 108.526 55.0361 108.118 53.3616C107.711 51.6872 108.734 49.9985 110.406 49.5833Z" fill="#BABABA"/>
<path d="M131.279 29.9587C132.837 29.8429 134.033 30.2209 134.558 31.8606C134.846 32.7695 134.756 33.7559 134.306 34.597C133.798 35.5543 133.139 35.8679 132.164 36.187C130.541 36.1451 129.27 35.8114 128.696 34.0654C128.437 33.302 128.5 32.466 128.87 31.75C129.412 30.696 130.217 30.3094 131.279 29.9587Z" fill="#BABABA"/>
<path d="M10.9606 163.39C12.0373 163.052 13.2115 163.323 14.0324 164.097C14.8533 164.87 15.1933 166.026 14.9216 167.122C14.6502 168.216 13.8094 169.079 12.7222 169.379C11.1734 169.808 9.55298 168.989 8.97647 167.49C8.66678 166.684 8.7044 165.787 9.08031 165.01C9.45622 164.232 10.1369 163.645 10.9606 163.39Z" fill="#BABABA"/>
<path d="M119.811 60.3556C121.421 60.1566 122.862 60.5174 123.667 62.0735C124.035 62.7704 124.105 63.5875 123.859 64.3369C123.5 65.4225 122.847 65.8032 121.9 66.3132C118.127 66.9007 115.619 62.5764 119.811 60.3556Z" fill="#BABABA"/>
<path d="M121.283 185.831C122.976 185.751 124.419 187.041 124.53 188.73C124.64 190.422 123.377 191.889 121.689 192.031C120.569 192.124 119.486 191.606 118.857 190.675C118.226 189.745 118.148 188.547 118.651 187.542C119.155 186.538 120.16 185.883 121.283 185.831Z" fill="#BABABA"/>
<path d="M104.716 124.147C105.459 124.115 106.084 124.181 106.748 124.562C107.453 124.961 107.956 125.638 108.135 126.428C108.313 127.206 108.17 128.022 107.738 128.693C107.11 129.678 106.413 129.857 105.353 130.118C104.692 130.169 104.12 130.182 103.505 129.891C102.794 129.555 102.256 128.936 102.021 128.186C101.287 125.912 102.788 124.738 104.716 124.147Z" fill="#BABABA"/>
<path d="M114.609 167.501C119.057 167.223 119.812 172.63 115.54 173.456C113.238 173.572 112.449 172.377 111.896 170.369C112.347 168.461 112.735 168.067 114.609 167.501Z" fill="#BABABA"/>
<path d="M110.86 148.837C112.244 148.817 113.377 149.526 113.699 150.927C113.917 151.84 113.74 152.804 113.209 153.58C112.473 154.641 111.689 154.772 110.509 154.952C109.633 154.773 109.293 154.638 108.518 154.224C106.488 151.424 107.621 149.415 110.86 148.837Z" fill="#BABABA"/>
<path d="M125.437 97.4286C126.263 97.3905 127.072 97.6851 127.68 98.2468C128.29 98.8084 128.648 99.5903 128.676 100.418C128.732 102.049 127.513 103.444 125.89 103.608C124.768 103.721 123.673 103.216 123.032 102.289C122.389 101.363 122.3 100.16 122.802 99.1501C123.301 98.1398 124.309 97.4805 125.437 97.4286Z" fill="#BABABA"/>
<path d="M41.549 54.4545C42.6406 54.2024 43.7833 54.5595 44.5373 55.3882C45.2912 56.217 45.5389 57.3882 45.1851 58.4512C44.8312 59.5142 43.931 60.3033 42.8308 60.5149C41.1726 60.8338 39.5645 59.7658 39.2151 58.1138C38.8657 56.4618 39.9037 54.8343 41.549 54.4545Z" fill="#BABABA"/>
<path d="M97.1882 48.761C98.7291 48.4334 100.27 49.3154 100.768 50.8098C101.05 51.6531 100.955 52.5765 100.508 53.3449C100.061 54.1132 99.3055 54.6524 98.4342 54.8252C96.7653 55.1555 95.1416 54.0774 94.8 52.4111C94.4584 50.7448 95.5253 49.1146 97.1882 48.761Z" fill="#BABABA"/>
<path d="M128.405 61.5328C128.906 61.5027 129.347 61.4779 129.82 61.6812C130.697 62.0585 131.382 62.7781 131.714 63.6731C132.555 65.8961 131.36 67.1546 129.358 67.8405C127.957 67.8433 126.757 67.3382 126.14 65.9933C125.791 65.2534 125.762 64.4027 126.06 63.6411C126.516 62.4762 127.337 62.0207 128.405 61.5328Z" fill="#BABABA"/>
<path d="M12.9532 131.981C17.1259 131.469 18.9225 136.143 15.0754 138.063C11.3474 138.351 9.0485 134.188 12.9532 131.981Z" fill="#BABABA"/>
<path d="M130.73 193.953C132.254 193.861 133.89 194.247 134.691 195.682C135.032 196.292 135.115 197.014 134.92 197.685C134.596 198.806 133.826 199.362 132.867 199.903C130.262 200.361 129.228 199.169 128.559 196.853C129.055 195.381 129.433 194.782 130.73 193.953Z" fill="#BABABA"/>
<path d="M92.2959 0.00616886C96.3108 -0.205411 97.3115 5.0889 93.2214 6.1465C88.9371 6.25184 88.4721 0.697189 92.2959 0.00616886Z" fill="#BABABA"/>
<path d="M53.891 108.884C55.4989 108.294 57.2794 109.126 57.8573 110.738C58.4351 112.351 57.589 114.125 55.9725 114.691C54.3732 115.251 52.6217 114.415 52.0498 112.82C51.4781 111.225 52.3002 109.467 53.891 108.884Z" fill="#BABABA"/>
<path d="M132.034 86.8565C133.071 86.4599 134.24 86.6508 135.097 87.3569C135.953 88.0628 136.364 89.1746 136.172 90.2675C135.98 91.3607 135.215 92.2663 134.171 92.6386C132.58 93.205 130.83 92.3867 130.245 90.803C129.661 89.2194 130.459 87.46 132.034 86.8565Z" fill="#BABABA"/>
<path d="M46.3551 49.6045C48.0132 49.2602 49.6383 50.3191 49.9932 51.975C50.348 53.631 49.2996 55.2628 47.6459 55.6282C45.9773 55.997 44.3275 54.9369 43.9695 53.2659C43.6113 51.5951 44.6818 49.952 46.3551 49.6045Z" fill="#BABABA"/>
<path d="M60.3923 22.9082C62.0516 22.6891 63.5821 23.8353 63.8387 25.4891C64.0954 27.1431 62.9841 28.6991 61.3365 28.9931C60.2369 29.1894 59.1174 28.7748 58.4108 27.91C57.7041 27.045 57.521 25.8653 57.9324 24.827C58.3438 23.7887 59.2851 23.0544 60.3923 22.9082Z" fill="#BABABA"/>
<path d="M58.2065 36.3879C59.893 36.1334 61.4647 37.2997 61.7098 38.9875C61.9551 40.6753 60.7802 42.2405 59.0911 42.4764C57.415 42.7106 55.8646 41.5468 55.6212 39.872C55.3779 38.1972 56.5332 36.6404 58.2065 36.3879Z" fill="#BABABA"/>
<path d="M79.2346 3.33111C80.9275 3.25135 82.3647 4.55559 82.4504 6.24763C82.5362 7.93966 81.236 9.38205 79.5446 9.47294C77.8441 9.56444 76.3935 8.25763 76.3077 6.55762C76.2219 4.85761 77.5341 3.41132 79.2346 3.33111Z" fill="#BABABA"/>
<path d="M98.7643 0.00390625C99.1691 0.038367 100.114 0.0914894 100.468 0.238963C102.016 0.884086 102.835 2.82562 102.185 4.37967C101.753 5.40988 101.211 5.75374 100.245 6.19119C95.4431 6.43407 95.1918 1.21515 98.7643 0.00390625Z" fill="#BABABA"/>
<path d="M129.323 92.6979C133.207 92.3376 135.182 96.4699 131.469 98.6709C129.933 99.0641 128.61 98.713 127.773 97.2697C127.305 96.4679 127.193 95.5076 127.462 94.6194C127.802 93.5269 128.374 93.1868 129.323 92.6979Z" fill="#BABABA"/>
<path d="M109.983 67.4028C111.331 67.3447 112.473 68.1749 112.827 69.4784C113.102 70.4705 112.955 71.5325 112.419 72.4118C111.772 73.4543 111.132 73.5559 110.023 73.7929C108.692 73.4611 107.549 72.9497 107.108 71.526C106.872 70.7489 106.958 69.9092 107.348 69.1965C107.996 67.9999 108.798 67.7746 109.983 67.4028Z" fill="#BABABA"/>
<path d="M67.0081 43.9147C68.4583 43.8034 69.8073 44.2018 70.5853 45.5237C70.9976 46.2194 71.115 47.0512 70.9103 47.8337C70.6003 49.0047 69.9096 49.5043 68.912 50.041C64.8382 50.5677 63.3467 46.088 67.0081 43.9147Z" fill="#BABABA"/>
<path d="M18.0587 140.864C22.2887 140.762 23.6874 145.732 19.5089 146.87C18.0842 146.97 16.5427 146.221 15.9378 144.889C15.6132 144.19 15.6039 143.384 15.9124 142.679C16.334 141.716 17.1098 141.208 18.0587 140.864Z" fill="#BABABA"/>
<path d="M129.854 23.4766C131.21 23.4737 132.423 24.0799 132.811 25.4575C133.052 26.3206 132.928 27.2444 132.469 28.0141C131.804 29.131 131.031 29.3647 129.868 29.6485C128.476 29.4541 127.299 28.9251 126.868 27.4618C126.646 26.7088 126.746 25.8971 127.148 25.222C127.81 24.0865 128.694 23.8115 129.854 23.4766Z" fill="#BABABA"/>
<path d="M104.075 48.2868C107.856 48.216 109.105 53.4256 104.985 54.5932C104.321 54.6233 103.814 54.6389 103.208 54.3238C102.493 53.9428 101.957 53.2933 101.721 52.5178C101.453 51.6365 101.551 50.6842 101.993 49.8761C102.488 48.9755 103.128 48.5728 104.075 48.2868Z" fill="#BABABA"/>
<path d="M131.755 67.5478C133.305 67.4771 134.548 68.1073 135.012 69.6729C135.252 70.4761 135.165 71.3418 134.769 72.081C134.22 73.0892 133.546 73.3306 132.514 73.6306C131.117 73.6243 129.885 73.3631 129.256 71.9663C128.923 71.2223 128.908 70.3745 129.215 69.6194C129.724 68.3515 130.604 68.0173 131.755 67.5478Z" fill="#BABABA"/>
<path d="M115.52 132.576C119.767 132.281 120.605 137.359 116.515 138.388C114.929 138.531 113.501 137.962 112.974 136.337C112.727 135.583 112.811 134.761 113.207 134.074C113.762 133.12 114.527 132.865 115.52 132.576Z" fill="#BABABA"/>
<path d="M37.449 60.1295C38.509 59.7674 39.6822 60.0123 40.5088 60.7683C41.3356 61.5242 41.6841 62.6708 41.4179 63.759C41.1518 64.847 40.3133 65.7034 39.231 65.9925C37.6346 66.4189 35.9874 65.5032 35.5067 63.9221C35.0262 62.3411 35.8852 60.6635 37.449 60.1295Z" fill="#BABABA"/>
<path d="M17.862 161.728C19.5006 161.388 21.1092 162.424 21.4756 164.057C21.8419 165.69 20.8308 167.315 19.204 167.708C18.1281 167.968 16.9955 167.627 16.2413 166.817C15.4871 166.007 15.2281 164.853 15.564 163.798C15.8997 162.743 16.7781 161.952 17.862 161.728Z" fill="#BABABA"/>
<path d="M84.6608 96.2413C86.3041 95.8292 87.9684 96.8272 88.3793 98.4698C88.7901 100.112 87.7909 101.777 86.1476 102.185C84.5058 102.594 82.846 101.596 82.4352 99.9556C82.0259 98.3153 83.0221 96.6529 84.6608 96.2413Z" fill="#BABABA"/>
<path d="M79.5832 99.605C83.2084 99.6528 84.6154 104.242 80.6788 105.794C79.9489 105.852 79.4057 105.888 78.7285 105.557C77.9911 105.194 77.4313 104.546 77.1815 103.763C76.5134 101.705 77.6104 100.171 79.5832 99.605Z" fill="#BABABA"/>
<path d="M115.21 64.1881C116.859 63.9857 118.368 65.135 118.612 66.7783C118.856 68.4214 117.745 69.9595 116.109 70.2447C115.012 70.4358 113.899 70.0173 113.201 69.1518C112.502 68.2863 112.326 67.1098 112.745 66.0785C113.161 65.0474 114.106 64.3237 115.21 64.1881Z" fill="#BABABA"/>
<path d="M105.047 1.35018C109.608 1.0936 110.467 5.68456 106.884 7.32709C104.838 7.2839 102.824 6.71552 102.853 4.1096C102.866 2.84584 103.941 1.85415 105.047 1.35018Z" fill="#BABABA"/>
<path d="M118.346 179.835C119.828 179.78 120.984 180.355 121.338 181.899C121.535 182.783 121.353 183.709 120.832 184.451C120.259 185.264 119.589 185.563 118.653 185.752C114.536 185.577 113.485 180.737 118.346 179.835Z" fill="#BABABA"/>
<path d="M67.8098 59.5836C69.0963 59.5135 70.3375 60.1133 70.8657 61.3292C71.2223 62.1617 71.2208 63.1046 70.8581 63.9349C70.4097 64.9824 69.6829 65.4833 68.6773 65.9012C67.3185 65.9214 66.0651 65.5824 65.4389 64.2483C65.0999 63.5072 65.0734 62.6607 65.3655 61.8997C65.8338 60.648 66.6631 60.1115 67.8098 59.5836Z" fill="#BABABA"/>
<path d="M89.0699 91.1704C90.1639 91.0259 91.2519 91.4828 91.914 92.3654C92.5762 93.2481 92.7116 94.4193 92.2677 95.4297C91.8238 96.4399 90.8682 97.1321 89.7712 97.2406C88.1098 97.4046 86.6261 96.2069 86.435 94.5498C86.2438 92.8927 87.4161 91.3886 89.0699 91.1704Z" fill="#BABABA"/>
<path d="M133.837 73.7212C135.346 73.6559 136.453 74.4143 136.778 75.9252C136.972 76.8329 136.785 77.78 136.263 78.547C135.676 79.4093 135.07 79.5441 134.111 79.7592C132.719 79.7199 131.389 79.3235 130.876 77.8733C130.624 77.1451 130.675 76.346 131.019 75.6562C131.667 74.3475 132.579 74.1028 133.837 73.7212Z" fill="#BABABA"/>
<path d="M137.729 182.113C139.396 182.038 140.815 183.317 140.913 184.983C141.011 186.649 139.751 188.086 138.087 188.206C136.99 188.286 135.933 187.768 135.324 186.853C134.714 185.937 134.645 184.763 135.143 183.782C135.641 182.801 136.629 182.163 137.729 182.113Z" fill="#BABABA"/>
<path d="M9.50541 137.175C10.5797 136.947 11.6934 137.315 12.4219 138.136C13.1504 138.958 13.3813 140.107 13.0264 141.147C12.6717 142.187 11.786 142.955 10.707 143.159C9.06329 143.472 7.47464 142.402 7.14523 140.762C6.81597 139.122 7.86845 137.522 9.50541 137.175Z" fill="#BABABA"/>
<path d="M73.4672 45.2321C75.0594 44.672 76.802 45.5091 77.3603 47.1009C77.9185 48.6926 77.0789 50.435 75.4852 50.9906C73.8961 51.5453 72.158 50.7077 71.6013 49.1191C71.0445 47.5304 71.8796 45.791 73.4672 45.2321Z" fill="#BABABA"/>
<path d="M131.758 36.8687C133.209 36.8866 134.435 37.6891 134.769 39.1434C134.977 40.0366 134.79 40.9758 134.261 41.7234C133.648 42.58 133.022 42.7207 132.051 42.9029C130.524 42.686 129.118 42.1482 128.744 40.4628C128.58 39.7253 128.724 38.9525 129.144 38.3244C129.824 37.3067 130.641 37.0592 131.758 36.8687Z" fill="#BABABA"/>
<path d="M4.21042 165.811C4.80498 165.716 4.84711 165.719 5.45115 165.752L5.71149 166.059C6.67232 166.13 7.54212 166.654 8.05241 167.471C8.56255 168.29 8.65179 169.301 8.29259 170.195C7.78004 171.471 6.47007 172.238 5.10639 172.062C3.74286 171.888 2.67036 170.812 2.49806 169.448C2.32576 168.083 3.09714 166.776 4.37414 166.267L4.21042 165.811Z" fill="#BABABA"/>
<path d="M127.654 49.5082C129.329 49.3271 130.831 50.5385 131.01 52.2125C131.189 53.8863 129.975 55.3877 128.301 55.5641C126.631 55.74 125.132 54.5295 124.955 52.8588C124.776 51.1882 125.984 49.6887 127.654 49.5082Z" fill="#BABABA"/>
<path d="M119.163 101.437C122.871 101.23 124.031 106.278 119.613 107.346C118.18 107.56 116.861 106.887 116.426 105.456C116.18 104.651 116.272 103.78 116.683 103.045C117.297 101.924 118.025 101.737 119.163 101.437Z" fill="#BABABA"/>
<path d="M16.9346 126.841C20.8439 126.728 22.8366 130.743 18.9878 132.822C16.4037 133.053 15.4999 132.035 14.7549 129.76C15.1806 128.004 15.3243 127.727 16.9346 126.841Z" fill="#BABABA"/>
<path d="M100.111 105.656C101.734 105.214 103.408 106.174 103.846 107.797C104.285 109.423 103.32 111.093 101.694 111.528C100.075 111.96 98.4102 111 97.9738 109.382C97.5374 107.763 98.493 106.096 100.111 105.656Z" fill="#BABABA"/>
<path d="M72.2454 64.0128C73.3259 63.7789 74.4485 64.1497 75.1768 64.9813C75.9052 65.8127 76.1249 66.974 75.7502 68.0141C75.3755 69.0543 74.4665 69.8092 73.3755 69.9862C71.7488 70.25 70.2079 69.1694 69.9009 67.5499C69.5954 65.9302 70.6352 64.3614 72.2454 64.0128Z" fill="#BABABA"/>
<path d="M78.0436 67.0957C81.1451 67.2889 82.8831 71.8447 78.8366 73.4572C74.2649 73.3946 74.0964 68.5992 78.0436 67.0957Z" fill="#BABABA"/>
<path d="M107.265 136.508C108.336 136.278 109.448 136.642 110.175 137.462C110.903 138.281 111.134 139.429 110.777 140.466C110.422 141.502 109.535 142.267 108.458 142.467C106.824 142.77 105.25 141.706 104.923 140.076C104.598 138.446 105.639 136.857 107.265 136.508Z" fill="#BABABA"/>
<path d="M126.178 189.977C127.823 189.692 129.391 190.787 129.688 192.432C129.983 194.075 128.896 195.649 127.253 195.953C125.598 196.26 124.01 195.163 123.712 193.506C123.414 191.85 124.52 190.266 126.178 189.977Z" fill="#BABABA"/>
<path d="M28.9194 125.652C32.951 125.349 34.5588 130.124 30.9524 131.689C26.7986 131.7 25.1174 127.51 28.9194 125.652Z" fill="#BABABA"/>
<path d="M66.3598 103.115C67.9314 102.517 69.6889 103.312 70.2803 104.887C70.8702 106.461 70.0666 108.216 68.4894 108.798C66.9227 109.376 65.1831 108.58 64.5971 107.016C64.011 105.453 64.7988 103.709 66.3598 103.115Z" fill="#BABABA"/>
<path d="M116.471 173.791C117.951 173.714 119.236 174.085 119.719 175.654C119.969 176.476 119.86 177.364 119.419 178.101C118.828 179.109 118.164 179.302 117.103 179.555C115.659 179.665 114.27 179.231 113.754 177.731C113.502 176.993 113.573 176.184 113.949 175.502C114.544 174.399 115.361 174.127 116.471 173.791Z" fill="#BABABA"/>
<path d="M118.759 144.624C122.671 144.296 123.361 149.444 119.182 150.484C118.468 150.517 117.877 150.516 117.24 150.143C116.56 149.745 116.08 149.082 115.918 148.313C115.746 147.529 115.895 146.707 116.334 146.034C116.96 145.064 117.705 144.874 118.759 144.624Z" fill="#BABABA"/>
<path d="M84.752 51.4522C88.4478 51.2934 89.8609 55.9658 85.6218 57.5939C85.1116 57.6222 84.451 57.6155 83.977 57.4222C83.2471 57.122 82.6708 56.5381 82.3804 55.8048C82.0929 55.0536 82.117 54.2185 82.4496 53.4861C82.904 52.4677 83.7512 51.8686 84.752 51.4522Z" fill="#BABABA"/>
<path d="M121.398 113.608C122.018 113.577 122.69 113.551 123.27 113.803C123.986 114.117 124.541 114.713 124.806 115.45C125.077 116.204 125.029 117.037 124.672 117.756C124.159 118.773 123.333 119.136 122.304 119.435C121.607 119.47 121.041 119.495 120.403 119.167C119.678 118.787 119.142 118.124 118.921 117.337C118.698 116.582 118.799 115.768 119.196 115.088C119.715 114.195 120.456 113.861 121.398 113.608Z" fill="#BABABA"/>
<path d="M124.304 168.842C124.921 168.799 125.588 168.812 126.148 169.095C126.855 169.453 127.373 170.1 127.565 170.868C127.773 171.653 127.653 172.49 127.231 173.184C126.625 174.201 125.868 174.35 124.813 174.638C124.16 174.71 123.501 174.582 122.923 174.267C122.22 173.891 121.715 173.228 121.54 172.45C121.355 171.676 121.498 170.86 121.934 170.195C122.536 169.262 123.292 169.079 124.304 168.842Z" fill="#BABABA"/>
<path d="M39.95 109.689C41.3381 109.874 42.6262 110.31 43.2775 111.672C43.6209 112.398 43.6394 113.234 43.3282 113.975C42.8677 115.075 42.0736 115.562 41.0263 115.967C39.6089 115.797 38.216 115.121 37.6475 113.729C37.3704 113.058 37.377 112.303 37.6657 111.636C38.1275 110.56 38.9333 110.097 39.95 109.689Z" fill="#BABABA"/>
<path d="M109.013 142.634C110.651 142.453 112.134 143.615 112.349 145.248C112.565 146.882 111.437 148.388 109.809 148.64C108.722 148.807 107.633 148.375 106.957 147.509C106.281 146.643 106.128 145.479 106.554 144.468C106.981 143.457 107.922 142.754 109.013 142.634Z" fill="#BABABA"/>
<path d="M106.439 130.312C110.007 129.967 111.013 135.082 106.743 136.207C105.343 136.29 103.975 135.729 103.519 134.302C103.277 133.541 103.357 132.713 103.744 132.015C104.397 130.834 105.239 130.65 106.439 130.312Z" fill="#BABABA"/>
<path d="M113.174 161.322C113.818 161.269 114.431 161.272 115.027 161.558C115.747 161.906 116.295 162.532 116.546 163.292C116.801 164.049 116.736 164.878 116.367 165.587C115.851 166.579 115.159 166.821 114.161 167.125C113.341 167.202 112.675 167.194 111.951 166.734C111.248 166.294 110.759 165.581 110.601 164.767C110.244 162.86 111.397 161.683 113.174 161.322Z" fill="#BABABA"/>
<path d="M43.2652 104.722C44.7013 104.64 46.1127 105.036 46.9077 106.333C47.3171 106.989 47.4271 107.79 47.2103 108.532C46.8856 109.641 46.1978 110.128 45.2379 110.63C41.0847 110.727 39.3388 106.86 43.2652 104.722Z" fill="#BABABA"/>
<path d="M46.9839 99.5948C48.6062 99.1492 50.2807 100.111 50.7126 101.737C51.1446 103.363 50.1682 105.029 48.5387 105.448C46.9283 105.861 45.286 104.9 44.859 103.292C44.4323 101.686 45.3806 100.035 46.9839 99.5948Z" fill="#BABABA"/>
<path d="M50.4641 114.137C52.0746 113.725 53.7159 114.688 54.1404 116.295C54.5649 117.902 53.6139 119.552 52.01 119.988C50.3884 120.431 48.7175 119.466 48.2881 117.842C47.8589 116.217 48.8359 114.553 50.4641 114.137Z" fill="#BABABA"/>
<path d="M59.3319 42.8607C60.9435 42.5605 62.5013 43.5986 62.8447 45.2017C63.1883 46.8048 62.1929 48.39 60.5995 48.7767C59.5299 49.0363 58.4037 48.6947 57.6585 47.8846C56.9133 47.0746 56.6666 45.9238 57.0146 44.8795C57.3623 43.8353 58.2497 43.0621 59.3319 42.8607Z" fill="#BABABA"/>
<path d="M112.092 155.158C112.641 155.113 113.339 155.171 113.831 155.441C114.496 155.809 114.972 156.444 115.137 157.185C115.327 158.015 115.172 158.888 114.709 159.602C114.092 160.556 113.454 160.706 112.415 160.9C108.17 160.766 107.457 156.034 112.092 155.158Z" fill="#BABABA"/>
<path d="M35.9102 115.116C40.0112 114.555 41.7434 119.369 37.9701 121.104C34.3241 121.445 32.2713 117.446 35.9102 115.116Z" fill="#BABABA"/>
<path d="M58.0998 29.5034C58.867 29.479 59.4759 29.5735 60.2337 29.6622C62.6566 31.252 62.8565 34.2126 60.0492 35.5107C56.0764 36.2302 54.622 31.3241 58.0998 29.5034Z" fill="#BABABA"/>
<path d="M123.323 162.685C124.742 162.881 125.893 163.632 126.134 165.13C126.271 165.949 126.06 166.789 125.553 167.445C124.803 168.432 124.04 168.453 122.895 168.625C122.415 168.583 121.949 168.452 121.517 168.239C119.98 167.485 119.586 165.675 120.445 164.225C121.133 163.064 122.105 162.939 123.323 162.685Z" fill="#BABABA"/>
<path d="M73.2448 6.58809C74.5856 6.53738 75.8331 7.21712 76.2861 8.52708C76.578 9.37565 76.4952 10.3087 76.0558 11.0918C75.4915 12.1155 74.7241 12.4517 73.6692 12.7785C72.6293 12.7504 71.1877 12.2186 70.7513 11.2553C69.6407 8.80261 71.4405 7.45503 73.2448 6.58809Z" fill="#BABABA"/>
<path d="M133.549 80.2657C135.18 79.9301 136.777 80.9774 137.117 82.608C137.458 84.2386 136.417 85.8383 134.787 86.1856C133.15 86.5349 131.541 85.4867 131.197 83.8478C130.853 82.2088 131.908 80.6029 133.549 80.2657Z" fill="#BABABA"/>
<path d="M117.575 138.594C119.543 138.466 120.182 139.997 120.612 141.577C120.29 142.788 120.094 143.134 119.227 144.036C118.729 144.204 118.087 144.341 117.568 144.469C115.22 144.39 114.871 143.544 114.141 141.494C114.871 139.497 115.495 139.052 117.575 138.594Z" fill="#BABABA"/>
<path d="M111.868 114.661C114.386 114.555 115.818 116.529 114.617 118.87C114.059 119.958 113.219 120.148 112.122 120.441C109.699 120.446 109.277 119.528 108.681 117.43C109.386 115.507 109.912 115.119 111.868 114.661Z" fill="#BABABA"/>
<path d="M67.7762 11.2263C69.4169 10.9798 70.9488 12.1045 71.2046 13.7437C71.4619 15.3829 70.3454 16.9215 68.7079 17.1875C67.0564 17.4557 65.502 16.3286 65.2437 14.6755C64.9853 13.0224 66.1216 11.4747 67.7762 11.2263Z" fill="#BABABA"/>
<path d="M119.784 150.771C120.599 150.721 121.23 150.718 121.951 151.178C122.617 151.607 123.082 152.284 123.245 153.059C123.66 155.064 122.446 156.11 120.634 156.471C119.051 156.638 117.694 156.189 117.233 154.504C117.03 153.746 117.143 152.937 117.546 152.265C118.091 151.339 118.804 151.025 119.784 150.771Z" fill="#BABABA"/>
<path d="M58.4354 103.262C60.0561 102.979 61.6042 104.048 61.9143 105.663C62.2245 107.279 61.1819 108.844 59.5717 109.181C58.5059 109.404 57.4025 109.035 56.6853 108.217C55.9683 107.397 55.7489 106.255 56.1117 105.227C56.4743 104.2 57.3628 103.449 58.4354 103.262Z" fill="#BABABA"/>
<path d="M34.787 100.944C38.7145 101.037 40.2968 105.256 36.5811 107.119C32.7195 107.232 30.9971 103.075 34.787 100.944Z" fill="#BABABA"/>
<path d="M2.2866 154.234C3.85253 154.159 5.28935 154.138 6.1447 155.774C7.03691 157.478 6.03606 159.092 4.44243 159.906C2.99177 159.987 1.75826 160.017 0.774849 158.696C0.315272 158.083 0.145224 157.301 0.308951 156.553C0.570039 155.348 1.31508 154.844 2.2866 154.234Z" fill="#BABABA"/>
<path d="M38.5802 96.1299C42.5389 96.0343 44.193 100.72 40.3994 102.182C36.6956 102.274 34.6201 98.2354 38.5802 96.1299Z" fill="#BABABA"/>
<path d="M129.284 43.6474C134.092 42.988 135.119 47.5287 131.551 49.2725C130.12 49.5328 128.722 49.2238 127.926 47.898C127.518 47.2153 127.41 46.3954 127.625 45.6305C127.914 44.612 128.417 44.1493 129.284 43.6474Z" fill="#BABABA"/>
<path d="M37.0374 84.8639C37.7016 84.7991 38.233 84.7821 38.8669 85.054C39.6132 85.3793 40.1919 85.9986 40.4663 86.7651C41.1818 88.7077 40.0908 90.1608 38.2384 90.7244C35.8627 90.8905 35.3927 90.0558 34.4609 88.0823C34.8966 86.1956 35.2266 85.5115 37.0374 84.8639Z" fill="#BABABA"/>
<path d="M63.2914 16.8053C64.9283 16.5174 66.4888 17.6105 66.7776 19.2472C67.0665 20.884 65.9743 22.4451 64.3378 22.7349C62.7 23.0251 61.1372 21.9318 60.8481 20.2936C60.5589 18.6555 61.6532 17.0935 63.2914 16.8053Z" fill="#BABABA"/>
<path d="M111.568 3.6844C112.614 3.39983 113.732 3.69885 114.495 4.46736C115.26 5.23588 115.55 6.35548 115.26 7.39894C114.968 8.44224 114.138 9.24853 113.087 9.51022C111.485 9.90855 109.863 8.9444 109.446 7.34792C109.031 5.75159 109.978 4.11779 111.568 3.6844Z" fill="#BABABA"/>
<path d="M35.4523 66.1178C37.0704 65.9607 38.5206 67.1179 38.7268 68.7306C38.933 70.3434 37.8203 71.828 36.2146 72.0831C35.1316 72.2551 34.0407 71.8241 33.3678 70.9584C32.6947 70.0927 32.546 68.9293 32.9797 67.9222C33.4134 66.915 34.3608 66.2236 35.4523 66.1178Z" fill="#BABABA"/>
<path d="M117.683 7.19241C119.334 7.05035 120.788 8.26972 120.935 9.91932C121.084 11.5689 119.87 13.0276 118.22 13.1815C116.564 13.336 115.095 12.1146 114.947 10.4565C114.798 8.79852 116.025 7.33521 117.683 7.19241Z" fill="#BABABA"/>
<path d="M93.82 73.4507C95.3579 73.3224 96.61 73.4448 97.3428 75.0721C97.6709 75.799 97.6859 76.628 97.388 77.367C97.0178 78.2901 96.3903 78.7698 95.5084 79.1391C94.8945 79.1471 93.9103 79.214 93.3324 78.9763C91.8306 78.3576 90.9382 76.5479 91.7313 75.0374C92.2505 74.0497 92.7561 73.7575 93.82 73.4507Z" fill="#BABABA"/>
<path d="M121.223 156.806C121.933 156.753 122.487 156.731 123.152 157.041C123.873 157.387 124.425 158.008 124.684 158.765C125.283 160.52 124.144 161.976 122.46 162.432C121.736 162.602 121.27 162.715 120.546 162.463C119.813 162.204 119.22 161.65 118.915 160.934C118.593 160.192 118.591 159.348 118.913 158.604C119.386 157.524 120.186 157.181 121.223 156.806Z" fill="#BABABA"/>
<path d="M63.8241 73.585C68.2841 73.5686 68.2646 78.7801 64.6507 79.7029C60.9443 79.7917 59.8376 75.1819 63.8241 73.585Z" fill="#BABABA"/>
<path d="M116.98 51.8714C118.615 51.6836 120.098 52.8481 120.304 54.4825C120.509 56.1167 119.36 57.6116 117.728 57.8343C116.656 57.9805 115.589 57.5398 114.933 56.6804C114.277 55.821 114.133 54.6755 114.557 53.6805C114.98 52.6856 115.905 51.9948 116.98 51.8714Z" fill="#BABABA"/>
<path d="M63.5294 54.9041C67.7895 54.7094 68.3613 59.1684 64.7616 60.9173C60.459 60.9852 59.834 56.8305 63.5294 54.9041Z" fill="#BABABA"/>
<path d="M122.301 11.9966C123.365 11.7948 124.455 12.1808 125.155 13.0072C125.853 13.8335 126.054 14.9722 125.68 15.9879C125.305 17.0035 124.413 17.7389 123.344 17.9128C121.721 18.1768 120.189 17.0879 119.903 15.4691C119.617 13.8504 120.687 12.303 122.301 11.9966Z" fill="#BABABA"/>
<path d="M113.186 126.455C108.749 125.718 109.801 120.052 113.899 120.644C114.785 120.766 115.578 121.256 116.081 121.995C117.235 123.659 116.212 125.166 114.721 126.117L113.186 126.455Z" fill="#BABABA"/>
<path d="M21.6807 135.716C25.6758 135.413 27.3258 140.195 23.5481 141.755C21.278 141.817 20.3331 140.845 19.4849 138.877C19.9372 137.169 20.1202 136.695 21.6807 135.716Z" fill="#BABABA"/>
<path d="M125.984 174.873C126.646 174.795 127.293 174.86 127.878 175.198C128.503 175.552 128.954 176.149 129.126 176.847C129.641 178.873 128.309 180.125 126.461 180.533C125.766 180.584 125.106 180.549 124.477 180.211C123.01 179.416 122.634 177.51 123.529 176.142C124.173 175.156 124.918 175.07 125.984 174.873Z" fill="#BABABA"/>
<path d="M92.1339 67.4862C89.2281 67.368 88.1898 64.7534 89.511 62.9245C91.5666 60.0794 97.9697 63.1169 93.9141 66.8349L94.0255 67.2278L92.4334 67.796L92.1339 67.4862Z" fill="#BABABA"/>
<path d="M73.2606 101.928C74.317 101.706 75.4125 102.068 76.1273 102.878C76.8421 103.687 77.0663 104.819 76.7157 105.839C76.3635 106.861 75.4892 107.615 74.4283 107.812C72.8136 108.113 71.2576 107.058 70.9371 105.446C70.6181 103.836 71.6534 102.267 73.2606 101.928Z" fill="#BABABA"/>
<path d="M31.2081 106.055C32.6109 106.091 33.9371 106.648 34.6217 107.942C34.9963 108.635 35.0587 109.454 34.7936 110.196C34.4059 111.293 33.6594 111.776 32.6565 112.218C30.2174 112.057 29.4237 111.189 28.8315 108.905C29.4415 107.311 29.6339 106.798 31.2081 106.055Z" fill="#BABABA"/>
<path d="M25.4958 130.601C29.0788 130.415 31.1102 134.865 27.076 136.771C23.4754 136.807 21.5932 132.561 25.4958 130.601Z" fill="#BABABA"/>
<path d="M126.548 17.5264C128.199 17.372 129.661 18.5857 129.813 20.236C129.967 21.8864 128.751 23.3476 127.1 23.4984C125.452 23.649 123.994 22.4361 123.842 20.7882C123.689 19.1404 124.9 17.6805 126.548 17.5264Z" fill="#BABABA"/>
<path d="M5.59563 142.484C9.48353 142.404 11.1226 146.758 7.25306 148.502C5.93739 148.503 4.69123 148.24 3.86884 147.101C3.43289 146.506 3.27488 145.754 3.4353 145.035C3.69804 143.84 4.61403 143.099 5.59563 142.484Z" fill="#BABABA"/>
<path d="M93.488 104.275C94.8769 104.189 96.153 104.498 96.8513 105.843C97.1929 106.498 97.2486 107.265 97.0048 107.962C96.606 109.124 95.816 109.566 94.7761 110.063C93.3646 110.282 92.1111 110.001 91.4038 108.64C91.0261 107.908 90.9749 107.05 91.2608 106.276C91.6762 105.146 92.4496 104.723 93.488 104.275Z" fill="#BABABA"/>
<path d="M110.454 108.65C111.081 108.624 111.772 108.684 112.317 109.015C113 109.428 113.484 110.102 113.656 110.881C113.829 111.644 113.691 112.445 113.272 113.106C112.676 114.045 112.076 114.153 111.069 114.389C109.527 114.613 108.221 114.007 107.778 112.421C107.546 111.611 107.665 110.741 108.105 110.022C108.684 109.062 109.43 108.889 110.454 108.65Z" fill="#BABABA"/>
<path d="M120.324 107.595C120.838 107.577 121.416 107.528 121.899 107.714C122.625 108.002 123.194 108.581 123.466 109.312C123.753 110.083 123.71 110.938 123.343 111.673C122.858 112.655 122.25 112.885 121.276 113.18C119.519 113.284 117.913 112.901 117.516 110.908C117.37 110.188 117.523 109.442 117.94 108.838C118.566 107.92 119.304 107.79 120.324 107.595Z" fill="#BABABA"/>
<path d="M102.184 111.955C103.563 111.959 104.795 112.48 105.256 113.873C105.515 114.662 105.433 115.521 105.032 116.246C104.475 117.258 103.782 117.432 102.74 117.7C100.315 117.769 98.4524 116.298 99.584 113.679C100.046 112.608 101.137 112.278 102.184 111.955Z" fill="#BABABA"/>
<path d="M32.3955 120.226C33.7997 120.151 34.9629 120.405 35.7941 121.668C36.2514 122.349 36.3953 123.193 36.1892 123.988C35.8797 125.169 35.1461 125.651 34.1561 126.202C32.7945 126.287 31.4261 125.858 30.6871 124.629C30.3073 124.003 30.1965 123.249 30.3801 122.539C30.674 121.379 31.4323 120.814 32.3955 120.226Z" fill="#BABABA"/>
<path d="M79.8471 47.3667C83.5309 47.6851 85.0538 51.6773 81.1894 53.4104C76.7456 53.6122 76.0925 49.281 79.8471 47.3667Z" fill="#BABABA"/>
<path d="M102.804 118.119C107.013 117.712 108.11 122.395 104.357 123.741C103.616 123.912 103.117 123.998 102.387 123.705C101.641 123.404 101.051 122.809 100.751 122.063C100.455 121.341 100.462 120.529 100.772 119.813C101.182 118.862 101.902 118.492 102.804 118.119Z" fill="#BABABA"/>
<path d="M27.253 111.178C31.1345 111.137 32.9409 115.309 29.2764 117.289C26.8493 117.634 25.7592 116.078 25.2334 113.989C25.6942 112.618 26.1352 112.058 27.253 111.178Z" fill="#BABABA"/>
<path d="M40.364 90.3719C41.9197 89.8842 43.5781 90.7389 44.0838 92.2889C44.5892 93.8389 43.7537 95.5072 42.2096 96.0305C41.1949 96.3746 40.0735 96.1466 39.2737 95.4334C38.4739 94.7204 38.119 93.6326 38.3446 92.5851C38.5703 91.5377 39.3416 90.6923 40.364 90.3719Z" fill="#BABABA"/>
<path d="M2.34167 147.913C3.07527 147.85 3.58315 147.852 4.268 148.177C5.07941 148.563 5.68857 149.275 5.94319 150.137C6.48192 151.99 5.45307 153.329 3.67014 153.767C-0.20677 153.594 -1.56925 149.29 2.34167 147.913Z" fill="#BABABA"/>
<path d="M24.1639 116.457C25.5864 116.58 26.7852 116.909 27.5248 118.262C27.9024 118.938 27.9865 119.74 27.7574 120.479C27.425 121.528 26.7217 122.059 25.7838 122.516C25.2624 122.529 24.6549 122.5 24.1637 122.319C23.2897 121.999 22.5801 121.343 22.1924 120.497C21.3581 118.631 22.4448 117.171 24.1639 116.457Z" fill="#BABABA"/>
<path d="M20.7075 121.719C22.1356 121.701 23.646 122.497 24.1949 123.857C24.4849 124.572 24.4622 125.377 24.1322 126.076C23.7024 126.966 23.0385 127.442 22.141 127.775C18.1658 127.419 16.7145 123.317 20.7075 121.719Z" fill="#BABABA"/>
<path d="M34.1592 72.6854C34.8167 72.587 35.389 72.5414 36.0255 72.7831C36.7818 73.0759 37.3913 73.6566 37.7203 74.3979C38.4794 76.1417 37.6057 77.725 35.8815 78.3535C34.356 78.5514 32.8732 78.3767 32.2139 76.7655C31.9161 76.0284 31.9205 75.2036 32.2259 74.4696C32.6604 73.446 33.1948 73.094 34.1592 72.6854Z" fill="#BABABA"/>
<path d="M127.611 180.697C129.237 180.512 130.707 181.675 130.901 183.299C131.097 184.924 129.942 186.4 128.319 186.604C126.681 186.81 125.192 185.643 124.994 184.006C124.799 182.369 125.973 180.884 127.611 180.697Z" fill="#BABABA"/>
<path d="M61.7066 49.063C65.3412 49.3406 65.5541 53.9728 61.4691 55.1338C60.9251 55.0605 60.4014 54.8784 59.9294 54.5981C57.1925 52.9479 58.4737 49.7033 61.7066 49.063Z" fill="#BABABA"/>
<path d="M35.6765 78.8636C37.3132 78.8889 38.6213 80.2326 38.6027 81.8694C38.5839 83.5061 37.2455 84.8195 35.6087 84.8073C33.9627 84.7951 32.6402 83.4474 32.6589 81.8015C32.6777 80.1555 34.0307 78.8384 35.6765 78.8636Z" fill="#BABABA"/>
<path d="M113.747 126.792C114.616 126.575 114.81 126.587 115.711 126.608C116.9 127.272 118.241 128.712 117.814 130.099C116.676 133.792 110.548 132.599 111.883 128.418C112.157 127.561 112.929 127.106 113.747 126.792Z" fill="#BABABA"/>
<path d="M11.4532 151.475C12.3296 151.256 13.258 151.449 13.9752 151.998C14.6924 152.548 15.1203 153.393 15.1378 154.296C15.1635 155.63 14.2964 156.815 13.0185 157.196C11.9876 157.503 10.8711 157.229 10.1008 156.478C9.33064 155.727 9.02726 154.618 9.30792 153.578C9.58872 152.54 10.4096 151.735 11.4532 151.475Z" fill="#BABABA"/>
<path d="M59.6364 68.9236C64.2354 68.6181 64.7154 72.107 61.3522 74.6353C58.9638 74.5959 56.7587 73.3469 57.7391 70.3775C57.9795 69.6496 58.928 69.1726 59.6364 68.9236Z" fill="#BABABA"/>
<path d="M91.6865 85.6137C93.1899 85.5352 94.6375 85.9145 95.2635 87.4436C95.5464 88.145 95.5224 88.9332 95.1973 89.616C94.77 90.5115 94.1575 90.9977 93.2606 91.3452C88.9989 91.2206 87.795 87.1718 91.6865 85.6137Z" fill="#BABABA"/>
<path d="M94.0348 67.2212C97.4929 67.7047 97.8481 71.1727 95.1394 72.9191C93.7414 73.0016 92.7076 73.1889 91.5955 72.1432C90.0169 70.657 90.9424 68.8381 92.4427 67.7894L94.0348 67.2212Z" fill="#BABABA"/>
<path d="M14.3167 146.111C18.5364 145.982 19.9349 150.063 16.3497 151.852C14.894 152.038 14.1431 151.522 12.9618 150.795C11.8387 148.732 12.1826 147.193 14.3167 146.111Z" fill="#BABABA"/>
<path d="M60.0192 62.7472C64.1882 62.5722 64.1805 68.1565 61.0022 68.4526C59.4356 68.5112 58.0857 68.3468 57.4842 66.6045C57.2235 65.8604 57.2928 65.0404 57.6742 64.3504C58.2163 63.3813 59.0066 63.0132 60.0192 62.7472Z" fill="#BABABA"/>
<path d="M93.2097 79.6494C94.7446 79.1635 96.3834 80.0041 96.8845 81.5336C97.3856 83.063 96.5594 84.7105 95.035 85.226C93.4896 85.7487 91.8147 84.9102 91.3076 83.3596C90.7989 81.809 91.6537 80.1421 93.2097 79.6494Z" fill="#BABABA"/>
<path d="M89.0493 56.4224C91.15 56.5533 91.6828 57.3442 92.384 59.1765C91.6812 61.1156 91.2193 61.4563 89.4751 62.3194C85.7988 62.6623 84.9712 57.4637 89.0493 56.4224Z" fill="#BABABA"/>
<path d="M2.18023 164.975C0.479918 161.881 2.03095 160.618 5.09765 160.277C8.17233 161.478 8.49587 164.948 5.44979 165.751C4.84574 165.718 4.80361 165.715 4.20905 165.81C3.40998 165.735 2.8544 165.369 2.18023 164.975Z" fill="#BABABA"/>
<path d="M40.8879 122.826C41.8444 122.606 42.8449 122.921 43.505 123.646C44.165 124.373 44.3817 125.399 44.0717 126.331C43.7617 127.261 42.9733 127.953 42.0096 128.138C40.5556 128.418 39.1453 127.482 38.8394 126.033C38.5334 124.585 39.4448 123.159 40.8879 122.826Z" fill="#BABABA"/>
<path d="M122.477 128.476C125.68 128.593 125.194 131.028 123.753 132.93C121.725 134.135 121.654 130.536 121.696 129.324C121.711 128.886 122.155 128.692 122.477 128.476Z" fill="#BABABA"/>
<path d="M132.65 168.192C134.699 168.153 134.762 171.72 133.055 173.029L132.67 173C131.749 172.487 131.465 169.978 131.699 169.057C131.818 168.589 132.27 168.406 132.65 168.192Z" fill="#BABABA"/>
<path d="M101.858 64.2561C103.042 64.2067 105.208 64.2617 105.656 65.5698C105.57 66.0581 105.244 66.2751 104.875 66.6349C102.759 67.691 100.638 65.6773 101.858 64.2561Z" fill="#BABABA"/>
</g>
</svg>
