<svg width="266" height="200" viewBox="0 0 266 200" fill="none" xmlns="http://www.w3.org/2000/svg">
<g opacity="0.48">
<path d="M236.318 27.6971C235.082 29.741 232.922 29.5887 231.753 27.4068C230.287 27.7642 229.175 29.8432 227.771 27.3513C227.048 26.0669 227.869 24.8519 229.202 24.4131C229.714 24.2453 230.041 24.3439 230.52 24.5556C230.903 25.126 231.208 25.779 231.798 25.9459C232.056 25.0949 232.048 24.539 232.623 24.0635C233.573 23.9583 233.491 24.1075 234.177 23.6291C234.899 21.5755 235.516 19.7201 238.443 20.7384C238.812 20.8666 238.838 21.0428 239.078 21.3601C239.137 21.8928 239.113 22.8485 239.411 23.0354C240.163 23.503 241.1 23.8827 241.915 24.2483C242.02 25.3393 242.202 26.8336 242.22 27.8889L242.034 28.1194C241.027 29.3377 240.947 29.5097 239.346 29.6262L239.09 31.0242C238.916 31.9933 238.701 32.4177 238.038 33.1738L237.716 33.8854C237.162 33.5644 236.476 33.5689 235.925 33.8972L235.663 33.177C235.204 32.2361 234.472 32.0621 234.566 30.6172C234.707 28.4246 236.345 28.4633 238.165 28.7284L238.455 28.7733L238.245 28.4257L238.451 28.5737L238.251 28.3671L238.13 28.6447L238.05 28.6144L238.025 28.1622L237.188 27.6361L236.811 27.9288L236.318 27.6971Z" fill="#BABABA"/>
<path d="M236.318 27.6969C236.433 26.6487 236.244 26.8238 236.838 26.2458L237.27 26.1646L237.602 26.558C237.53 27.1069 237.46 27.1398 237.188 27.6359L236.811 27.9286L236.318 27.6969Z" fill="#BABABA"/>
<path d="M235.663 33.1766L238.038 33.1733L237.717 33.885C237.162 33.5639 236.476 33.5685 235.925 33.8968L235.663 33.1766Z" fill="#BABABA"/>
<path d="M255.12 172.373C255.744 172.396 256.32 172.406 256.942 172.482L256.872 173.049C259.798 175.475 258.756 178.402 255.564 178.036L255.116 178.304C255.406 178.564 256.019 178.31 256.129 178.39C258.166 179.839 258.705 181.244 256.643 183.025C256.618 184.034 258.154 184.335 258.021 185.756C257.681 189.383 253.009 189.494 252.596 185.821C252.501 184.986 253.82 183.807 254.364 183.195C253.435 182.216 252.985 182.116 252.614 180.865C252.882 179.854 252.919 179.614 253.492 178.75C253.687 178.726 254.635 178.371 254.88 178.285L254.858 178.103C254.678 178.044 254.497 177.98 254.319 177.915C251.451 176.844 252.387 173.655 254.95 172.764L255.12 172.373Z" fill="#BABABA"/>
<path d="M255.12 172.373C255.744 172.396 256.32 172.406 256.942 172.482L256.872 173.049L254.95 172.764L255.12 172.373Z" fill="#BABABA"/>
<path d="M239.508 136.637C240.046 136.555 240.804 136.32 241.172 136.703C243.068 138.664 242.777 144.943 243.318 147.579C242.841 148.666 242.558 149.365 241.621 150.128C241.06 150.042 239.074 149.821 238.885 149.27C237.974 146.611 237.817 141.077 237.993 138.16C238.03 137.528 239.084 136.901 239.508 136.637Z" fill="#BABABA"/>
<path d="M249.162 121C249.955 121.037 251.291 121.385 251.973 121.834C252.769 123.318 251.709 123.435 251.529 124.841C253.146 123.304 254.544 122.88 256.061 125.042C256.598 125.795 256.782 126.743 256.565 127.644C256.285 128.802 255.875 129.132 254.903 129.715C253.025 130.371 251.341 130.08 250.088 128.338C249.729 127.84 250.12 126.813 250.296 126.243C249.678 126.434 249.244 126.606 248.646 126.851C245.14 126.043 246.779 122.446 249.162 121Z" fill="#BABABA"/>
<path d="M107.256 132.671C109.873 132.833 112.244 135.157 110.37 137.742C109.673 138.189 109.444 138.156 108.615 138.205C108.209 139.407 110.577 139.976 107.639 142.615C105.963 143.133 104.598 143.063 103.595 141.433C103.027 140.508 103.152 138.733 103.689 137.82C103.874 137.579 104.805 136.966 104.83 136.676C105.058 134.1 104.735 133.965 107.256 132.671Z" fill="#BABABA"/>
<path d="M19.8454 54.5492C19.1445 55.2786 17.6332 56.56 16.5597 56.3843C12.5185 55.7235 15.448 47.3498 18.6996 51.3515L18.8337 51.2315C20.2532 52.1239 20.6596 52.5221 22.3434 52.275L22.332 53.1084C22.3068 53.2187 21.9999 53.9166 21.979 53.89C24.2058 56.7131 25.2298 60.4059 20.0616 59.7841C19.6172 59.7305 18.8573 58.6786 18.7588 58.2547C18.4533 56.9389 19.2518 55.6783 19.8454 54.5492Z" fill="#BABABA"/>
<path d="M18.8338 51.2319C20.2533 52.1243 20.6597 52.5225 22.3435 52.2754L22.3321 53.1088C21.4534 53.0455 21.3578 53.0756 20.5977 53.5256L20.1698 53.3831C19.6875 52.6525 19.2273 52.0467 18.6997 51.3519L18.8338 51.2319Z" fill="#BABABA"/>
<path d="M82.7036 11.7841C84.6165 11.6144 85.888 12.9971 85.6921 14.8905C85.5795 15.9782 84.3542 16.8737 83.5616 17.5517C86.9208 20.5296 87.2318 22.4392 82.1676 23.0184C80.1822 22.3698 79.4614 20.7572 80.5433 18.7729C81.0427 17.8565 82.186 18.0961 82.8671 17.6571C82.1091 17.4954 81.1845 17.2592 80.5646 16.775C79.9472 16.2998 79.5584 15.5868 79.4931 14.8105C79.3298 12.7748 80.9417 11.9411 82.7036 11.7841Z" fill="#BABABA"/>
<path d="M258.551 143.503C259.499 143.561 260.287 143.845 261.202 144.111C262.873 147.106 262.334 149.649 258.471 149.133C258.747 150.693 260.938 150.976 258.51 153.35C257.742 153.637 256.119 154.208 255.419 153.518C250.894 149.074 255.824 148.892 256.612 147.807C256.588 145.528 256.667 145.01 258.551 143.503Z" fill="#BABABA"/>
<path d="M207.905 121.44C211.105 121.539 211.375 122.325 211.326 125.037C211.82 125.402 212.495 123.518 214.567 123.514C215.335 123.795 215.605 124.042 215.975 124.775C217.243 127.279 215.674 128.569 213.572 129.439C212.939 129.177 212.72 129.079 212.217 128.714C209.801 126.962 211.238 126.808 211.064 125.854C208.71 126.274 209.512 129.59 205.328 124.906C205.963 123.138 206.337 122.394 207.905 121.44Z" fill="#BABABA"/>
<path d="M144.976 133.124C148.28 133.323 147.502 133.474 148.784 136.291C149.99 138.942 150.938 142.095 147.199 142.881C143.617 142.388 144.902 140.942 144.327 138.531C144.11 137.62 142.726 136.662 142.743 135.337C143.144 134.287 144.038 133.705 144.976 133.124Z" fill="#BABABA"/>
<path d="M18.8339 51.2318C17.6592 48.9643 18.5941 48.0451 20.4217 46.7836C20.0515 45.9047 18.8513 44.7968 19.2752 43.8412C21.1433 39.6294 27.0626 45.25 21.3472 46.8377L21.5622 46.9953C22.3493 46.8659 23.1561 46.5298 23.7756 47.1234C25.1225 48.4144 24.4348 50.6792 23.2321 51.7911C23.031 51.9733 22.8241 52.1489 22.6114 52.3176L22.3436 52.2752C20.6598 52.5223 20.2534 52.1242 18.8339 51.2318Z" fill="#BABABA"/>
<path d="M220.911 58.8069C221.036 58.2503 221.427 56.7826 221.975 56.6852C224.727 56.1977 225.214 57.7589 224.152 59.7324L224.346 59.6991C224.977 59.5953 225.112 59.548 225.761 59.6409C226.393 60.1169 226.727 60.7114 226.739 61.4902C226.772 63.3728 226.823 64.2601 224.907 64.6103C225.142 65.5498 225.245 65.3653 224.997 66.1541C222.389 68.4153 219.447 65.6974 221.779 63.3204C222.121 62.5686 222.08 61.9193 222.667 61.2738C222.944 60.9708 223.155 60.5937 223.284 60.2058L223.29 60.4404L223.423 60.2625C222.074 60.1132 221.82 59.8045 220.911 58.8069Z" fill="#BABABA"/>
<path d="M249.897 130.475C251.67 130.389 253.023 130.532 254.029 132.223C254.526 133.059 254.651 134.066 254.377 134.997C253.979 136.381 253.128 136.891 251.951 137.548C247.312 136.916 245.336 132.619 249.897 130.475Z" fill="#BABABA"/>
<path d="M118.86 108.975C120.729 108.875 121.977 108.885 123.112 110.654C123.652 111.487 123.808 112.513 123.54 113.469C123.143 114.839 122.541 115.217 121.373 115.876C120.588 115.866 119.324 115.725 118.506 115.659C117.564 114.716 117.244 114.21 116.657 113.029C116.966 110.74 116.788 110.265 118.86 108.975Z" fill="#BABABA"/>
<path d="M84.8211 68.8548C89.6621 68.6245 91.2462 73.366 86.5768 75.5653C84.8909 75.68 83.3854 75.351 82.5407 73.6964C82.1347 72.8955 82.0854 71.9608 82.4048 71.1216C82.8482 69.931 83.7573 69.3924 84.8211 68.8548Z" fill="#BABABA"/>
<path d="M133.018 108.979C135.063 108.832 136.638 109.429 136.986 111.685C137.148 112.732 136.869 113.798 136.214 114.631C135.502 115.518 134.887 115.516 133.794 115.673C129.346 115.917 128.551 110.33 133.018 108.979Z" fill="#BABABA"/>
<path d="M53.6945 31.6656C50.1141 30.6171 52.7462 28.274 52.7198 26.9524C52.0801 26.2782 51.6659 26.0137 51.5533 25.0364C51.3705 23.45 52.4181 22.1265 54.1232 22.2837C54.7799 22.3478 55.3796 22.6848 55.7759 23.2123C56.2934 23.8926 56.4578 24.6296 56.3786 25.4683C56.0238 26.1439 55.7436 26.2743 55.1114 26.7667L54.8776 26.9466C57.6448 27.3618 57.1504 30.4811 55.2969 31.1889L55.1851 31.5772L53.752 32.0036L53.6945 31.6656Z" fill="#BABABA"/>
<path d="M55.2967 31.1885L55.1849 31.5768L53.7519 32.0033L53.6943 31.6653C54.288 31.265 54.5458 31.3191 55.2967 31.1885Z" fill="#BABABA"/>
<path d="M71.6588 35.278C72.2105 35.2283 73.4041 35.4156 73.9128 35.6901C74.7188 36.1229 75.2992 36.882 75.5057 37.7732C75.7207 38.6954 75.5409 39.6656 75.0099 40.4497C74.2741 41.5318 73.5842 41.5666 72.3549 41.8189C70.5677 41.7798 69.0118 41.1783 68.527 39.242C68.3331 38.4682 68.4644 37.6489 68.89 36.9743C69.5815 35.8912 70.4839 35.5489 71.6588 35.278Z" fill="#BABABA"/>
<path d="M166.252 68.6429C171.057 68.3183 173.061 73.0195 168.642 75.4229C164.299 75.904 162.353 71.0838 166.252 68.6429Z" fill="#BABABA"/>
<path d="M72.5186 42.2521C72.9909 42.2145 74.0139 42.1129 74.4434 42.2507C75.4246 42.558 76.2285 43.2682 76.6548 44.2039C77.6921 46.5384 76.3749 48.0119 74.3206 48.863C69.6675 49.4857 68.3536 44.7647 72.5186 42.2521Z" fill="#BABABA"/>
<path d="M135.684 122.896C138.791 122.955 139.586 124.298 139.893 127.216C139.058 128.581 138.802 128.882 137.344 129.517C133.176 129.99 131.915 127.115 133.766 123.647C134.402 123.391 135.041 123.14 135.684 122.896Z" fill="#BABABA"/>
<path d="M113.186 129.611C117.459 129.601 119.798 134.168 114.843 136.516C113.579 136.745 111.864 135.922 111.206 134.784C110.695 133.881 110.583 132.807 110.899 131.82C111.295 130.544 112.071 130.143 113.186 129.611Z" fill="#BABABA"/>
<path d="M248.382 137.821C250.151 137.755 251.51 137.769 252.628 139.344C254.057 141.358 252.688 143.235 250.992 144.355C249.983 144.564 249.297 144.421 248.274 144.312C245.903 142.314 245.088 139.333 248.382 137.821Z" fill="#BABABA"/>
<path d="M235.326 108.353C239.655 108.159 240.763 113.338 236.341 115.193L235.977 115.182C231.213 115.047 231.031 110.103 235.326 108.353Z" fill="#BABABA"/>
<path d="M228.42 136.574C229.008 136.57 230.169 136.519 230.664 136.791C232.541 137.821 233.948 141.645 232.805 143.471C232.31 143.786 231.808 144.091 231.329 144.429C230.748 144.619 229.995 144.675 229.538 144.175C228.203 142.72 226.993 140.791 226.94 138.762C226.918 137.894 227.847 137.135 228.42 136.574Z" fill="#BABABA"/>
<path d="M119.736 116.4C122.126 116.212 123.607 119.528 122.279 121.447C121.292 122.871 120.668 122.833 119.107 123.226C116.536 122.487 114.749 120.212 116.62 117.647C117.352 116.644 118.566 116.558 119.736 116.4Z" fill="#BABABA"/>
<path d="M77.3055 55.7551C79.2035 55.7021 80.5565 55.7779 81.524 57.7356C81.8943 58.4685 81.9515 59.3204 81.6825 60.096C81.2282 61.3782 80.4107 61.8257 79.2651 62.3795C74.9033 63.1134 73.2688 58.5328 77.3055 55.7551Z" fill="#BABABA"/>
<path d="M173.434 55.7422C175.776 55.648 176.155 55.5473 177.684 57.4692C178.059 60.1238 178.263 61.122 175.717 62.5043C171.774 62.7862 169.149 58.0957 173.434 55.7422Z" fill="#BABABA"/>
<path d="M182.485 28.6865C187.371 29.0673 188.201 33.6436 184.002 35.5958C182.972 35.4323 182.151 35.2456 181.146 35.0081C180.96 34.7266 180.779 34.441 180.605 34.1517C179.011 31.4654 179.868 29.9533 182.485 28.6865Z" fill="#BABABA"/>
<path d="M140.349 129.259C144.153 130.024 144.296 135.314 140.134 136.514C135.139 134.68 135.44 130.147 140.349 129.259Z" fill="#BABABA"/>
<path d="M215.789 112.852C217.418 112.713 218.679 113.1 219.351 114.732C219.762 115.743 219.74 116.877 219.293 117.872C218.776 119.051 218.292 119.201 217.162 119.674C215.803 119.741 214.022 119.072 213.447 117.856C212.149 115.121 213.76 113.817 215.789 112.852Z" fill="#BABABA"/>
<path d="M212.18 97.9426C216.864 97.6274 217.857 102.574 213.324 104.435C208.741 104.361 207.393 99.8017 212.18 97.9426Z" fill="#BABABA"/>
<path d="M117.063 123.379C117.814 123.351 118.387 123.604 119.108 123.836C121.524 126.317 121.111 129.07 117.753 130.282C112.611 129.103 112.831 123.594 117.063 123.379Z" fill="#BABABA"/>
<path d="M132.41 116.364C133.892 116.253 134.357 116.067 135.819 116.568C138.347 117.438 138.175 121.76 135.751 122.288C134.208 122.644 132.824 122.773 131.571 121.602C130.979 121.054 130.654 120.276 130.678 119.469C130.711 118.098 131.475 117.238 132.41 116.364Z" fill="#BABABA"/>
<path d="M42.0909 29.8091C44.0274 29.8852 44.4247 31.9271 44.8436 33.4144C43.9655 35.5961 43.388 36.3251 41.0235 36.5462C38.3785 35.7458 36.7162 33.7532 38.7626 31.0841C39.6197 29.9659 40.7639 29.9164 42.0909 29.8091Z" fill="#BABABA"/>
<path d="M255.625 116.951C257.056 116.884 258.708 117.381 259.271 118.749C260.352 121.381 258.88 122.878 256.876 123.94C256.475 123.816 256.074 123.685 255.674 123.547C251.947 122.264 252 118.507 255.625 116.951Z" fill="#BABABA"/>
<path d="M235.307 101.196C237.332 101.296 238.926 102.072 239.403 104.234C239.578 105.018 239.424 105.839 238.976 106.506C238.345 107.432 237.76 107.493 236.697 107.718C231.825 107.78 231.073 103.358 235.307 101.196Z" fill="#BABABA"/>
<path d="M40.5374 23.0727C43.8727 22.1846 45.7948 28.1121 40.5953 29.4303L40.2447 29.3957C38.3921 29.2256 36.9689 28.2959 36.9558 26.2442C36.9566 25.4079 37.2922 24.6066 37.8875 24.0193C38.7842 23.1224 39.315 23.1154 40.5374 23.0727Z" fill="#BABABA"/>
<path d="M75.2446 49.1853C80.122 49.0053 80.7683 53.6455 76.592 55.5191L74.051 55.5517C71.4269 53.1982 72.0001 50.4973 75.2446 49.1853Z" fill="#BABABA"/>
<path d="M182.282 21.7501C182.716 21.7323 184.084 21.6502 184.436 21.8015C187.568 23.1459 187.66 26.8469 184.755 28.4167C183.048 28.4099 181.887 28.3208 180.857 26.7744C180.348 26.0159 180.165 25.0834 180.356 24.1894C180.638 22.8583 181.189 22.4138 182.282 21.7501Z" fill="#BABABA"/>
<path d="M178.636 42.4185C183.666 42.3606 184.731 47.0327 180.775 49.1022C176.876 49.3329 174.435 44.9306 178.636 42.4185Z" fill="#BABABA"/>
<path d="M171.105 61.8271C174.972 62.6827 176.628 67.2328 172.007 68.8579C167.839 68.767 166.353 64.0905 171.105 61.8271Z" fill="#BABABA"/>
<path d="M238.044 130.186C242.679 129.515 243.297 134.529 239.508 136.637C237.352 136.656 235.106 135.618 235.252 133.134C235.301 132.272 235.716 131.474 236.396 130.942C236.848 130.594 237.506 130.379 238.044 130.186Z" fill="#BABABA"/>
<path d="M213.336 105.681C216.079 105.661 217.521 107.845 216.587 110.359C216.206 111.37 215.437 112.187 214.45 112.627C214.102 112.58 212.929 112.435 212.693 112.29C209.234 110.156 209.559 106.84 213.336 105.681Z" fill="#BABABA"/>
<path d="M236.58 122.906C238.122 123.166 239.44 124.157 239.854 125.715C240.099 126.638 239.958 127.623 239.467 128.444C238.76 129.648 237.909 129.701 236.609 130.035C233.632 129.92 231.663 124.489 236.58 122.906Z" fill="#BABABA"/>
<path d="M92.3455 31.4507C95.0464 31.6853 97.1603 34.0756 93.8917 36.0153L93.609 36.1816C94.5446 36.4608 95.6906 36.6559 96.0018 37.6742C96.5087 39.3324 95.7279 40.2264 94.2488 40.691C94.0526 40.7385 93.8565 40.7857 93.6604 40.8332C92.3772 41.0642 91.3833 40.225 91.3071 38.951C91.2187 37.4695 92.2071 37.187 93.0638 36.2878C90.3128 34.5577 89.1713 34.2904 92.3455 31.4507Z" fill="#BABABA"/>
<path d="M159.2 78.3965C158.811 76.7735 159.691 75.1152 161.251 74.5256C162.813 73.9363 164.57 74.5995 165.35 76.0739C166.132 77.5483 165.696 79.374 164.332 80.3354C162.967 81.2968 161.102 81.0939 159.976 79.8621C159.597 79.4473 159.329 78.9429 159.2 78.3965Z" fill="#BABABA"/>
<path d="M81.6456 62.4745C85.7722 62.4004 87.1729 67.2707 82.2645 69.028C80.1651 69.1543 79.9065 68.5641 78.6721 67.0627C78.3811 64.155 79.1998 63.7468 81.6456 62.4745Z" fill="#BABABA"/>
<path d="M183.302 14.8028C188.211 14.5567 188.905 19.8148 185.181 21.1886C184.704 21.1829 183.461 21.1931 183.122 20.9835C180.112 19.1324 179.668 16.0049 183.302 14.8028Z" fill="#BABABA"/>
<path d="M136.236 102.23C140.024 102.041 142.841 106.289 138.398 108.594C136.644 108.861 135.18 108.766 134.271 106.953C133.87 106.138 133.819 105.196 134.13 104.344C134.572 103.106 135.123 102.801 136.236 102.23Z" fill="#BABABA"/>
<path d="M207.956 42.9795C209.706 42.6207 211.424 43.7184 211.834 45.4575C212.245 47.1964 211.197 48.9463 209.471 49.4074C208.308 49.7179 207.07 49.3718 206.236 48.5035C205.403 47.6355 205.106 46.3828 205.465 45.2339C205.823 44.0848 206.777 43.2213 207.956 42.9795Z" fill="#BABABA"/>
<path d="M236.505 94.2188C240.937 94.02 242.317 98.9053 238.478 100.66C236.673 100.657 235.334 100.586 234.337 98.8217C233.946 98.1427 233.858 97.3301 234.097 96.5835C234.507 95.3378 235.393 94.75 236.505 94.2188Z" fill="#BABABA"/>
<path d="M107.378 85.5679C112.094 86.3225 112.321 90.4675 108.435 92.5052C104.379 92.9837 102.999 88.1414 107.378 85.5679Z" fill="#BABABA"/>
<path d="M235.358 115.938C238.032 116.437 239.336 122.708 233.936 122.734C232.03 121.94 230.308 120.233 231.575 118.081C232.453 116.589 233.809 116.308 235.358 115.938Z" fill="#BABABA"/>
<path d="M180.925 35.8746C185.435 35.4062 187.103 41.0792 182.612 42.1566C178.536 41.9499 176.204 37.6577 180.925 35.8746Z" fill="#BABABA"/>
<path d="M95.3031 78.6549C99.8303 78.2494 100.714 82.4198 96.9663 85.1456C95.7281 85.4932 93.9696 85.1677 93.328 84.0606C91.8554 81.5194 93.5716 79.8915 95.3031 78.6549Z" fill="#BABABA"/>
<path d="M176.323 49.1935C181.32 48.9083 182.17 54.3158 178.849 55.6576C174.194 55.998 172.505 51.4919 176.323 49.1935Z" fill="#BABABA"/>
<path d="M43.6703 36.7243C44.7744 36.639 46.2443 37.3352 46.4449 38.4278C46.979 41.3377 45.4363 42.4682 43.1602 43.0973C42.4205 43.0895 41.9032 43.1045 41.245 42.7214C39.5573 41.7392 39.4985 39.7683 40.5467 38.2618C41.3271 37.1401 42.4146 36.9925 43.6703 36.7243Z" fill="#BABABA"/>
<path d="M184.7 7.27295C188.702 8.24701 188.711 13.0485 184.413 13.7927C179.836 13.6795 179.707 7.9344 184.7 7.27295Z" fill="#BABABA"/>
<path d="M60.8105 8.86133C63.3595 8.6345 63.965 8.98866 65.1477 11.2033C65.0423 13.5157 65.1673 14.1701 63.1261 15.4984C58.9582 16.4127 57.4488 11.5245 60.8105 8.86133Z" fill="#BABABA"/>
<path d="M48.3831 8.66702C50.41 8.54889 50.7327 8.93089 52.1068 10.4026C52.3217 13.2536 52.5971 14.1656 49.8233 15.4992C49.4478 15.5602 49.1465 15.6257 48.7663 15.5641C47.8956 15.4244 47.1271 14.9169 46.6569 14.1709C45.3614 12.0715 46.3578 9.8284 48.3831 8.66702Z" fill="#BABABA"/>
<path d="M90.2195 74.3826C94.6022 74.0087 95.8057 78.4497 91.5635 80.6218C86.9888 81.0808 85.7955 76.5119 90.2195 74.3826Z" fill="#BABABA"/>
<path d="M177.691 68.8481C180.528 68.8541 180.767 69.4967 182.084 71.8682C181.676 73.7508 181.494 74.3514 179.912 75.3761C178.247 75.4594 177.001 75.3822 175.967 73.8532C175.506 73.1776 175.338 72.3442 175.504 71.5433C175.778 70.222 176.622 69.5319 177.691 68.8481Z" fill="#BABABA"/>
<path d="M211.584 29.4971C213.789 29.7151 216.479 30.2664 215.858 33.6736C215.664 34.7293 214.567 35.6514 213.582 36.1059C209.105 35.7521 207.817 32.3148 211.584 29.4971Z" fill="#BABABA"/>
<path d="M154.915 84.2262C152.585 80.5544 153.912 77.4332 158.477 78.6095L159.2 78.3968C159.329 78.9432 159.597 79.4476 159.976 79.8624L159.718 80.1611C160.287 81.7393 160.074 83.5103 158.449 84.2991C156.993 85.0058 156.356 84.6772 154.915 84.2262Z" fill="#BABABA"/>
<path d="M158.477 78.6092L159.2 78.3965C159.329 78.9429 159.597 79.4473 159.976 79.8621L159.718 80.1608L158.477 78.6092Z" fill="#BABABA"/>
<path d="M41.7992 9.91357C43.3241 9.93568 44.7613 9.94756 45.4293 11.5354C46.3622 13.7523 45.3779 15.7219 43.2656 16.62C39.293 16.5764 37.8403 11.1646 41.7992 9.91357Z" fill="#BABABA"/>
<path d="M67.7961 0.0688477C71.8366 0.26886 72.4627 5.43131 67.9641 6.64264C66.373 6.41172 65.1619 5.91567 64.6939 4.20646C64.4652 3.33762 64.5932 2.41331 65.0497 1.63926C65.7161 0.501836 66.5954 0.347063 67.7961 0.0688477Z" fill="#BABABA"/>
<path d="M70.413 28.4468C73.6261 29.1322 73.8828 29.3127 74.3875 32.5903C73.7244 33.9714 73.6433 34.6066 72.036 34.943C71.4528 34.9422 70.4926 35.0568 69.8813 35.1096C66.9858 32.2585 67.081 30.4827 70.413 28.4468Z" fill="#BABABA"/>
<path d="M190.629 8.88385C191.171 8.84373 192.571 8.70473 193.012 8.96963C196.007 10.7718 195.528 13.9329 192.567 15.2589C188.549 15.9089 187.04 11.1239 190.629 8.88385Z" fill="#BABABA"/>
<path d="M125.871 90.1434C127.507 90.0639 128.537 89.9628 129.601 91.4372C130.166 92.21 130.373 93.1874 130.17 94.1223C129.886 95.4876 129.433 96.0045 128.346 96.7614C123.761 97.3985 122.77 92.02 125.871 90.1434Z" fill="#BABABA"/>
<path d="M246.949 87.845C247.901 87.5485 248.032 87.509 249.013 87.438L249.525 87.7105C250.708 88.2706 251.721 88.9351 252.024 90.2375C252.724 93.2422 250.413 94.0677 248.386 94.6382C247.334 93.9133 247.109 93.7444 246.257 92.8L245.944 90.4144C246.319 89.7128 246.632 89.0563 247.123 88.4276L246.949 87.845Z" fill="#BABABA"/>
<path d="M246.949 87.845C247.901 87.5485 248.032 87.509 249.013 87.438L249.525 87.7105C248.532 87.9316 248.077 88.0714 247.123 88.4276L246.949 87.845Z" fill="#BABABA"/>
<path d="M219.171 101.345C220.944 101.161 222.532 102.451 222.715 104.224C222.899 105.998 221.607 107.585 219.834 107.767C218.946 107.857 218.059 107.577 217.386 106.991C216.417 106.148 216.041 104.809 216.428 103.583C216.814 102.356 217.893 101.478 219.171 101.345Z" fill="#BABABA"/>
<path d="M119.867 90.1226L120.14 90.1242C123.898 90.1752 123.599 92.1022 123.497 95.2031C122.598 96.0666 122.399 96.2011 121.312 96.8169C121.095 96.7815 120.878 96.7447 120.662 96.7064C117.033 96.0341 116.022 92.147 119.867 90.1226Z" fill="#BABABA"/>
<path d="M45.2987 43.2554C49.1245 43.0218 49.7986 45.6189 48.1015 48.624C47.5348 48.9755 46.8935 49.2999 46.3006 49.6171C42.1265 49.5554 40.8331 45.1799 45.2987 43.2554Z" fill="#BABABA"/>
<path d="M132.459 89.7407C137.36 89.4485 137.659 94.9625 134.349 96.4664C129.994 96.5112 129.1 91.282 132.459 89.7407Z" fill="#BABABA"/>
<path d="M248.948 101.613C249.341 101.591 249.732 101.572 250.125 101.56C253.916 101.439 255.147 104.809 252.217 107.458C251.093 107.488 249.943 107.493 248.817 107.507C248.544 107.276 248.288 107.026 248.051 106.76C246.499 104.993 247.386 102.97 248.948 101.613Z" fill="#BABABA"/>
<path d="M74.5443 68.8473C76.0698 68.7962 77.3164 68.9943 78.0939 70.4888C78.5025 71.2884 78.5398 72.2269 78.1954 73.0562C77.7225 74.228 77.0961 74.7535 75.9935 75.2395C71.5113 75.478 70.4992 71.0362 74.5443 68.8473Z" fill="#BABABA"/>
<path d="M145.109 85.6212C146.665 85.5694 147.68 85.9062 148.544 87.2999C149.052 88.1104 149.202 89.0951 148.956 90.0196C148.659 91.1429 147.963 91.6992 147.005 92.2282C146.516 92.1835 146.028 92.1162 145.543 92.0261C144.581 91.839 143.737 91.2645 143.209 90.4371C141.856 88.3463 143.398 86.7001 145.109 85.6212Z" fill="#BABABA"/>
<path d="M199.2 121.768C197.988 123.418 194.576 123.864 193.636 122.133C191.691 118.546 197.219 114.181 199.258 119.168L200.074 119.705C199.972 120.349 199.835 121.477 199.642 122.055L199.2 121.768Z" fill="#BABABA"/>
<path d="M199.258 119.168L200.075 119.704C199.972 120.349 199.835 121.477 199.643 122.055L199.2 121.768L199.258 119.168Z" fill="#BABABA"/>
<path d="M100.824 82.5113C105.407 82.4048 106.532 86.5629 102.722 88.8752C98.4924 89.1164 96.915 85.2965 100.824 82.5113Z" fill="#BABABA"/>
<path d="M69.7395 14.5571C74.0854 14.4967 74.8332 19.9935 71.0434 20.9221C66.6159 21.1137 65.4701 16.5108 69.7395 14.5571Z" fill="#BABABA"/>
<path d="M122.438 102.418C124.203 102.326 125.413 102.545 126.18 104.365C126.547 105.233 126.545 106.213 126.174 107.081C125.726 108.154 125.151 108.517 124.139 108.957C122.69 108.885 121.692 108.637 120.81 107.356C120.288 106.613 120.115 105.679 120.334 104.799C120.638 103.554 121.42 103.032 122.438 102.418Z" fill="#BABABA"/>
<path d="M67.6356 66.3272C72.3565 66.3117 73.6239 69.2373 70.1938 72.5245C65.7643 73.6732 64.4706 69.6906 67.6356 66.3272Z" fill="#BABABA"/>
<path d="M54.6803 8.84066C59.2763 8.55753 60.0063 13.5515 56.3457 15.6394C55.0091 15.631 53.8942 15.084 53.1734 13.9282C52.6798 13.1203 52.5281 12.1494 52.7517 11.2293C53.0583 10.0025 53.6764 9.48266 54.6803 8.84066Z" fill="#BABABA"/>
<path d="M197.827 8.85571C202.328 8.64075 202.805 13.7457 199.206 15.2557C194.872 15.7597 193.855 10.5784 197.827 8.85571Z" fill="#BABABA"/>
<path d="M116.983 102.882C120.036 102.453 121.469 108.156 116.188 109.243C112.138 107.601 112.013 103.552 116.983 102.882Z" fill="#BABABA"/>
<path d="M68.7388 7.19974C70.8822 7.19667 71.1191 7.40078 72.3192 9.18451C72.4213 11.6459 72.4254 12.5352 70.18 13.8194C68.636 13.6822 67.4568 13.3954 66.6314 11.9343C66.2076 11.1865 66.1294 10.2916 66.4166 9.48156C66.848 8.22723 67.6296 7.76436 68.7388 7.19974Z" fill="#BABABA"/>
<path d="M257.847 110.623C259.577 110.498 260.83 110.738 261.642 112.466C262.021 113.27 262.033 114.2 261.675 115.014C261.227 116.009 260.441 116.386 259.497 116.779C255.425 116.609 253.503 112.75 257.847 110.623Z" fill="#BABABA"/>
<path d="M184.981 0.0905843C186.696 -0.262764 188.373 0.844972 188.721 2.56197C189.069 4.27875 187.955 5.95154 186.236 6.29342C184.526 6.63346 182.864 5.52653 182.518 3.81773C182.172 2.10913 183.273 0.442295 184.981 0.0905843Z" fill="#BABABA"/>
<path d="M153.585 136.437C157.317 136.967 157.712 142.132 153.46 142.918C149.584 142.234 148.733 136.965 153.585 136.437Z" fill="#BABABA"/>
<path d="M114.756 96.2829C116.611 96.1595 117.872 96.2215 119.067 97.8589C120.358 99.6277 119.188 101.184 117.705 102.193C117.25 102.299 116.786 102.361 116.319 102.379C115.482 102.412 114.668 102.101 114.068 101.515C112.369 99.8713 113.38 97.7103 114.756 96.2829Z" fill="#BABABA"/>
<path d="M184.256 66.2054C188.62 66.0081 189.597 71.4555 185.994 72.5749C181.555 72.2987 180.284 68.285 184.256 66.2054Z" fill="#BABABA"/>
<path d="M113.003 88.4712C117.734 88.3474 118.774 92.874 114.778 94.5996C112.785 95.0714 112.487 94.8661 111.083 93.3976L110.892 91.2018C111.573 89.9432 111.974 89.441 113.003 88.4712Z" fill="#BABABA"/>
<path d="M249.478 94.8717C251.282 94.7712 252.721 95.1487 253.267 97.1193C253.499 97.9282 253.384 98.7968 252.952 99.519C252.367 100.514 251.869 100.541 250.768 100.805C248.548 100.928 248.397 100.692 247.048 99.0216C246.991 96.7394 247.07 95.5098 249.478 94.8717Z" fill="#BABABA"/>
<path d="M190.098 62.6558C194.281 62.647 195.577 66.5182 191.82 69.2365C187.824 69.4527 186.366 65.017 190.098 62.6558Z" fill="#BABABA"/>
<path d="M212.944 16.2065C214.612 16.2311 215.834 16.4954 216.426 18.2785C216.704 19.1371 216.616 20.0729 216.178 20.8629C215.629 21.8751 215.056 22.0663 214.006 22.349C211.543 22.3594 209.484 20.8054 210.493 18.0816C210.902 16.9753 211.918 16.6477 212.944 16.2065Z" fill="#BABABA"/>
<path d="M136.832 96.0403C139.125 95.9809 141.375 96.615 140.904 99.8078C140.765 100.762 139.762 101.718 138.914 102.203C137.256 101.99 136.951 101.978 135.426 101.247C134.371 98.7971 134.169 97.3679 136.832 96.0403Z" fill="#BABABA"/>
<path d="M238.294 87.461C239.893 87.4202 241.279 87.8735 242.124 89.3489C242.513 90.0167 242.618 90.8143 242.409 91.5595C242.087 92.7014 241.236 93.0644 240.247 93.6259C235.85 93.6913 234.548 89.8685 238.294 87.461Z" fill="#BABABA"/>
<path d="M151.03 82.1071C154.549 82.025 156.236 86.431 152.205 88.7173C148.086 88.7622 146.958 84.471 151.03 82.1071Z" fill="#BABABA"/>
<path d="M210.999 9.86719C215.396 10.5553 215.695 14.5872 211.66 16.0907C208.466 16.5589 208.206 14.2724 208.233 11.778C209.185 10.7667 209.684 10.3 210.999 9.86719Z" fill="#BABABA"/>
<path d="M210.308 36.2768C214.753 36.2257 215.586 40.2773 211.95 42.6283C209.004 42.6304 208.773 41.6682 207.885 39.1345C208.519 37.5774 208.765 36.9268 210.308 36.2768Z" fill="#BABABA"/>
<path d="M99.454 136.617C102.503 136.391 103.442 138.733 102.35 141.387C101.94 142.384 101.071 142.609 100.091 142.889C95.9062 142.852 95.421 137.857 99.454 136.617Z" fill="#BABABA"/>
<path d="M205.414 49.2124C209.109 50.3676 209.811 54.719 205.238 55.7563C203.944 54.9534 202.492 54.2006 202.161 52.5895C201.704 50.3705 203.676 49.5512 205.414 49.2124Z" fill="#BABABA"/>
<path d="M212.128 22.9722C213.895 22.9157 215.162 22.8844 216.106 24.6145C217.152 26.5323 216.104 28.011 214.417 28.8911C209.762 29.4105 208.902 25.8899 212.128 22.9722Z" fill="#BABABA"/>
<path d="M38.4502 16.1989C42.5945 16.1057 44.4552 20.1066 41.0078 22.3485C39.4902 22.5186 38.1261 22.3077 37.152 20.9883C36.6593 20.3248 36.4672 19.485 36.6228 18.6733C36.8761 17.3283 37.402 16.9379 38.4502 16.1989Z" fill="#BABABA"/>
<path d="M219.943 125.478C218.487 125.541 217.191 124.563 216.851 123.146C216.513 121.729 217.226 120.272 218.552 119.668C219.879 119.066 221.447 119.49 222.291 120.677C223.134 121.865 223.017 123.484 222.012 124.538L222.237 125.161L220.334 125.961L219.943 125.478Z" fill="#BABABA"/>
<path d="M222.012 124.538L222.238 125.16L220.334 125.961L219.943 125.478C220.727 125.443 221.47 125.107 222.012 124.538Z" fill="#BABABA"/>
<path d="M261.245 104.68C265.612 104.469 266.795 109.147 262.69 110.991C258.764 110.52 257.331 106.475 261.245 104.68Z" fill="#BABABA"/>
<path d="M224.34 105.87C225.943 105.97 227.39 106.756 227.744 108.441C227.91 109.268 227.73 110.126 227.249 110.82C226.563 111.819 225.969 111.978 224.852 112.224C220.315 111.483 220.628 108.017 224.34 105.87Z" fill="#BABABA"/>
<path d="M69.0787 21.7829C69.4883 21.7632 71.0982 21.6463 71.4166 21.7401C74.9194 22.7721 74.4577 25.7192 72.0739 27.4499C68.764 28.9923 65.8807 24.7376 69.0787 21.7829Z" fill="#BABABA"/>
<path d="M159.691 136.612C163.7 136.469 164.027 141.869 160.621 142.823C156.633 142.705 156.989 141.014 157.108 137.714C158.213 137.099 158.483 136.964 159.691 136.612Z" fill="#BABABA"/>
<path d="M200.074 119.705C200.877 118.988 201.636 118.599 202.762 118.656C203.675 118.706 204.523 119.144 205.092 119.858C207.199 122.45 204.644 124.387 202.191 125.056C200.781 124.254 199.839 123.772 199.642 122.055C199.835 121.477 199.972 120.349 200.074 119.705Z" fill="#BABABA"/>
<path d="M204.762 8.84992C206.609 8.74981 206.918 9.43706 207.899 10.7659C207.706 13.4565 207.876 14.4138 205.039 15.1764C203.87 15.5658 202.682 14.9518 202.334 13.858C201.462 11.1197 202.459 9.77321 204.762 8.84992Z" fill="#BABABA"/>
<path d="M178.133 0.0972055C182.86 -0.277229 183.2 4.33288 179.629 6.23351C178.038 6.24558 176.739 5.62508 176.083 4.10196C175.762 3.36619 175.748 2.53134 176.049 1.78595C176.464 0.754159 177.166 0.495592 178.133 0.0972055Z" fill="#BABABA"/>
<path d="M93.0436 136.635C97.1718 136.625 97.4255 141.743 93.9033 142.836C89.4921 142.668 88.7169 137.918 93.0436 136.635Z" fill="#BABABA"/>
<path d="M128.969 102.621C130.969 102.553 131.499 102.942 132.979 104.244C132.928 106.254 133.194 107.863 131.135 108.791C126.66 108.74 125.403 104.641 128.969 102.621Z" fill="#BABABA"/>
<path d="M199.983 54.2612C204.028 54.0397 205.272 59.2572 201.983 60.6041C197.671 60.9145 196.453 56.2632 199.983 54.2612Z" fill="#BABABA"/>
<path d="M63.0366 62.71C63.2065 62.7499 63.3756 62.7927 63.5439 62.8385C64.4827 63.0973 65.2801 63.5168 65.7456 64.4157C66.1379 65.1844 66.1719 66.0866 65.839 66.8828C65.3468 68.0921 64.695 68.6135 63.5666 69.1368C61.996 69.0321 60.6898 68.6403 60.1273 66.9686C59.8587 66.1485 59.9594 65.2522 60.4034 64.5121C61.0274 63.4623 61.9217 63.0373 63.0366 62.71Z" fill="#BABABA"/>
<path d="M138.796 88.722C142.998 88.1085 144.634 93.0361 141.148 94.6057C136.572 94.8368 135.186 90.4218 138.796 88.722Z" fill="#BABABA"/>
<path d="M170.875 0.0634285C174.746 -0.07701 175.182 0.151258 175.215 4.14966C174.597 5.0359 174.495 5.19128 173.637 5.83492C169.524 6.65872 167.647 2.26807 170.875 0.0634285Z" fill="#BABABA"/>
<path d="M227.876 111.454C232.202 110.858 233.215 115.268 229.669 117.496C225.872 117.991 224.273 113.7 227.876 111.454Z" fill="#BABABA"/>
<path d="M224.232 137.036C224.281 138.545 223.994 138.977 222.725 139.736C220.033 141.347 217.112 138.133 218.43 135.601C218.729 135.024 219.265 134.606 219.898 134.459C221.163 134.162 221.765 134.309 222.811 134.934L223.208 134.6C223.454 134.917 224.324 135.971 224.437 136.281L224.232 137.036Z" fill="#BABABA"/>
<path d="M223.208 134.6C223.454 134.917 224.324 135.972 224.436 136.281L224.232 137.036C223.808 136.193 223.376 135.679 222.811 134.934L223.208 134.6Z" fill="#BABABA"/>
<path d="M52.0811 54.3236C56.5381 53.5983 57.2315 58.3218 53.8608 60.2711C53.5453 60.2701 53.23 60.2607 52.9152 60.2435C51.2891 60.1419 49.7144 59.0062 49.9277 57.1923C50.098 55.7433 50.9787 55.1431 52.0811 54.3236Z" fill="#BABABA"/>
<path d="M222.238 125.16C224.096 125.828 226 127.046 225.132 129.304C223.343 133.953 216.984 130.297 220.334 125.961L222.238 125.16Z" fill="#BABABA"/>
<path d="M73.7 0.0611048C75.2528 -0.0121853 76.4525 -0.126007 77.3502 1.35433C78.4858 3.22671 77.5936 4.91505 75.9001 5.93251C74.1987 6.00293 73.1495 5.93107 72.218 4.32708C71.1512 2.49032 72.027 0.960239 73.7 0.0611048Z" fill="#BABABA"/>
<path d="M164.435 0.0625284C164.801 0.0475838 166.338 -0.0420804 166.6 0.0559809C169.765 1.23435 169.192 4.35594 166.93 5.76442C162.832 6.56795 161.116 2.21558 164.435 0.0625284Z" fill="#BABABA"/>
<path d="M157.847 0.0685482C159.534 -0.0213242 161.026 -0.186737 161.929 1.53353C162.817 3.22145 161.859 4.93497 160.295 5.71434C156.189 6.66424 154.727 2.0484 157.847 0.0685482Z" fill="#BABABA"/>
<path d="M144.581 0.0654754C146.45 -0.024397 149.089 -0.046703 149.076 2.95307C149.072 4.00697 148.223 5.02812 147.402 5.682C143.395 6.82107 141.487 2.55079 144.581 0.0654754Z" fill="#BABABA"/>
<path d="M80.2114 0.0622608C81.8307 -0.0167614 83.3537 -0.196707 84.183 1.60443C84.9525 3.27597 84.2505 5.02244 82.5602 5.81901C80.9844 5.89926 79.9248 5.97931 78.9659 4.53705C77.7267 2.67307 78.5757 1.14585 80.2114 0.0622608Z" fill="#BABABA"/>
<path d="M248.79 108.148C250.741 108.074 252.012 107.966 253.226 109.835C254.16 111.268 253.648 112.828 252.258 113.676C248.075 113.884 245.598 111.903 248.79 108.148Z" fill="#BABABA"/>
<path d="M92.895 60.8115C91.524 60.8529 88.9957 59.5007 89.0669 58.0994C89.2919 53.6713 95.4528 53.9104 95.3488 58.8057C95.3359 59.4143 94.7323 59.9687 94.3442 60.4209L92.895 60.8115Z" fill="#BABABA"/>
<path d="M86.824 0.0844845C88.4284 -0.0131673 89.45 -0.282587 90.5469 1.17769C90.9936 1.76175 91.1762 2.50572 91.0505 3.23002C90.8331 4.50748 90.4564 5.08928 89.4342 5.76752C87.9148 5.90264 86.4815 5.98125 85.5548 4.57441C84.3432 2.73561 85.3257 1.17769 86.824 0.0844845Z" fill="#BABABA"/>
<path d="M151.333 0.0814887C152.964 0.00144292 154.291 -0.231742 155.255 1.40132C156.281 3.1351 155.226 4.77 153.746 5.71991C150.086 6.41084 149.693 4.45473 149.707 1.42548C150.158 0.943978 150.798 0.490316 151.333 0.0814887Z" fill="#BABABA"/>
<path d="M77.35 166.576C78.382 166.197 79.5384 166.412 80.3645 167.139C81.1907 167.863 81.5543 168.981 81.3121 170.054C81.0702 171.126 80.2613 171.98 79.2037 172.281C77.6515 172.721 76.0289 171.855 75.5302 170.32C75.0315 168.787 75.8354 167.132 77.35 166.576Z" fill="#BABABA"/>
<path d="M195.601 58.7073C197.213 58.452 198.734 59.5311 199.022 61.1365C199.313 62.7421 198.267 64.2851 196.668 64.61C195.604 64.8264 194.504 64.4495 193.796 63.6247C193.087 62.8001 192.881 61.6565 193.255 60.636C193.63 59.6154 194.529 58.8776 195.601 58.7073Z" fill="#BABABA"/>
<path d="M56.9462 58.3696C61.3184 58.3619 62.2751 61.9375 58.7379 64.3481C54.4283 64.9829 53.7939 61.0423 56.9462 58.3696Z" fill="#BABABA"/>
<path d="M190.555 194.045C191.554 193.623 192.702 193.77 193.56 194.436C194.418 195.099 194.85 196.176 194.69 197.249C194.531 198.321 193.802 199.224 192.788 199.609C191.261 200.188 189.552 199.439 188.944 197.922C188.334 196.407 189.05 194.683 190.555 194.045Z" fill="#BABABA"/>
<path d="M138.39 0.0704227C139.962 -0.0180167 141.377 -0.166233 142.225 1.42875C143.234 3.32241 142.169 4.95917 140.488 5.8368C138.967 6.00611 137.909 5.95349 137.106 4.50734C136.062 2.6278 136.658 1.0711 138.39 0.0704227Z" fill="#BABABA"/>
<path d="M232.805 143.471L233.143 143.864C238.134 144.003 236.834 153.86 231.636 149.318C230.736 148.531 231.211 145.958 231.622 144.994L231.329 144.429C231.808 144.091 232.31 143.786 232.805 143.471Z" fill="#BABABA"/>
<path d="M232.805 143.471L233.143 143.864L231.622 144.994L231.329 144.429C231.808 144.091 232.31 143.786 232.805 143.471Z" fill="#BABABA"/>
<path d="M244.912 83.6628C245.373 83.1571 245.864 82.6459 246.458 82.2895C247.123 81.896 247.92 81.7886 248.667 81.9914C251.118 82.6676 251.496 86.1182 249.013 87.4378C248.032 87.5089 247.901 87.5484 246.949 87.8448C244.339 87.3926 244.869 85.8963 244.912 83.6628Z" fill="#BABABA"/>
<path d="M99.9115 0.0677094C102.133 -0.0475484 104.208 0.232305 104.022 3.42534C103.959 4.49869 103.171 5.23568 102.272 5.78925C101.851 5.80624 100.614 5.88465 100.275 5.74646C97.2979 4.53267 97.4776 1.62973 99.9115 0.0677094Z" fill="#BABABA"/>
<path d="M223.208 134.6C223.188 133.566 223.096 132.6 223.914 131.834C227.503 128.485 230.795 133.445 227.896 136.338C227.014 137.22 225.448 136.866 224.436 136.281C224.324 135.971 223.454 134.917 223.208 134.6Z" fill="#BABABA"/>
<path d="M94.3442 60.4209L94.6186 60.8361C96.3151 60.8402 98.3095 61.3483 98.3306 63.3969C98.3918 69.3473 90.3585 66.1744 93.1575 61.4597L92.895 60.8115L94.3442 60.4209Z" fill="#BABABA"/>
<path d="M94.3442 60.4209L94.6186 60.8361L93.1575 61.4597L92.895 60.8115L94.3442 60.4209Z" fill="#BABABA"/>
<path d="M249.261 114.288C253.169 114.212 254.768 118.601 250.094 120.141C247.011 120.431 245.002 115.999 249.261 114.288Z" fill="#BABABA"/>
<path d="M204.148 125.512C207.51 125.811 208.124 130.219 204.29 132.043C203.112 131.832 201.909 131.124 201.434 129.979C201.131 129.226 201.151 128.38 201.491 127.643C202.064 126.388 202.922 125.92 204.148 125.512Z" fill="#BABABA"/>
<path d="M158.076 194.133C158.534 194.121 159.742 194.057 160.107 194.235C162.719 195.513 162.553 198.833 159.972 200C155.605 199.804 154.544 196.366 158.076 194.133Z" fill="#BABABA"/>
<path d="M117.895 194.16C118.238 194.139 119.576 194.049 119.798 194.127C122.674 195.15 122.528 198.5 120.306 199.859C118.291 199.933 115.864 199.617 116.087 196.604C116.16 195.629 117.103 194.72 117.895 194.16Z" fill="#BABABA"/>
<path d="M47.9169 49.4198C49.4149 49.2769 50.6434 49.1768 51.639 50.5371C52.039 51.0764 52.1925 51.7595 52.0617 52.4181C51.812 53.6315 51.1331 54.3155 50.1525 54.9704L49.959 55.0361C46.7507 56.1565 44.6543 52.2146 47.9169 49.4198Z" fill="#BABABA"/>
<path d="M112.793 0.0601034C113.132 0.0453635 114.542 -0.0424557 114.79 0.0406609C117.857 1.06877 117.46 4.38892 115.218 5.75769C113.096 5.87151 110.979 5.40783 111.098 2.51001C111.142 1.43932 111.93 0.663006 112.793 0.0601034Z" fill="#BABABA"/>
<path d="M132.079 0.076321C133.503 0.00753479 134.781 -0.175691 135.657 1.1986C136.859 3.07937 135.811 4.6852 134.21 5.72518L134.114 5.73747C130.402 6.25418 130.451 4.24627 130.433 1.27025C130.942 0.762744 131.477 0.464472 132.079 0.076321Z" fill="#BABABA"/>
<path d="M77.5357 173.073C78.5849 172.803 79.698 173.128 80.4358 173.923C81.1736 174.717 81.4179 175.849 81.0719 176.877C80.7259 177.904 79.8454 178.658 78.7778 178.844C77.2162 179.114 75.7193 178.105 75.3858 176.555C75.0523 175.006 76.001 173.47 77.5357 173.073Z" fill="#BABABA"/>
<path d="M93.3964 0.072455C95 -0.0174174 96.4678 -0.159286 97.2914 1.67972C98.03 3.32936 97.3354 4.94521 95.7185 5.7643C91.34 6.12318 90.3837 2.24454 93.3964 0.072455Z" fill="#BABABA"/>
<path d="M119.24 0.0664728C121.256 -0.0299507 123.468 0.161053 123.366 3.09573C123.327 4.22763 122.594 4.98632 121.732 5.67705C117.767 6.44168 115.851 2.5266 119.24 0.0664728Z" fill="#BABABA"/>
<path d="M137.532 194.131C137.88 194.121 139.189 194.063 139.463 194.162C142.169 195.14 142.29 198.586 139.762 199.832C138.28 199.931 137.203 199.998 136.255 198.678C134.959 196.868 135.893 195.183 137.532 194.131Z" fill="#BABABA"/>
<path d="M174.022 166.283C175.473 166.344 176.591 166.352 177.39 167.74C178.522 169.702 177.424 171.235 175.768 172.234C171.958 172.13 170.192 168.586 174.022 166.283Z" fill="#BABABA"/>
<path d="M106.406 0.0670674C108.464 -0.0397969 110.655 0.164714 110.544 3.2042C110.501 4.35535 109.715 5.1038 108.779 5.7368C108.433 5.7585 107.211 5.83077 106.966 5.73169C104.111 4.57522 103.868 1.61414 106.406 0.0670674Z" fill="#BABABA"/>
<path d="M60.6241 193.924C65.0174 193.813 65.7182 197.369 62.5166 199.826C58.3738 200.133 57.2747 195.969 60.6241 193.924Z" fill="#BABABA"/>
<path d="M125.677 0.0680354C127.157 0.000477504 128.373 -0.224714 129.274 1.22594C130.385 3.01909 129.526 4.7543 127.886 5.76112C126.33 5.87392 125.3 5.91774 124.408 4.45091C123.325 2.66841 124.031 1.07321 125.677 0.0680354Z" fill="#BABABA"/>
<path d="M247.465 144.998C249.404 144.953 251.826 145.141 251.664 148.132C251.609 149.125 250.749 150.044 249.924 150.601C248.829 150.789 247.402 150.687 246.64 149.852C244.892 147.934 246.132 146.304 247.465 144.998Z" fill="#BABABA"/>
<path d="M144.413 194.151C144.693 194.137 145.983 194.057 146.202 194.137C148.851 195.091 148.739 198.637 146.46 199.857C145.107 199.961 143.887 200.07 143.041 198.844C141.661 196.843 142.687 195.232 144.413 194.151Z" fill="#BABABA"/>
<path d="M124.402 194.149C126.49 194.018 128.516 194.432 128.521 197.263C128.523 198.307 127.716 199.226 126.885 199.836C124.823 199.934 122.672 199.599 122.723 196.71C122.741 195.674 123.605 194.773 124.402 194.149Z" fill="#BABABA"/>
<path d="M77.0337 179.591C81.4168 179.36 82.3118 182.904 78.9984 185.008L78.26 185.037C74.6055 185.203 73.4087 181.233 77.0337 179.591Z" fill="#BABABA"/>
<path d="M165.057 194.247C166.558 193.676 168.238 194.425 168.82 195.922C169.399 197.42 168.664 199.105 167.172 199.697C165.663 200.295 163.956 199.549 163.368 198.037C162.783 196.524 163.54 194.822 165.057 194.247Z" fill="#BABABA"/>
<path d="M111.218 194.18C111.599 194.149 112.808 194.024 113.125 194.12C116.094 195.025 115.868 198.401 113.608 199.852C109.127 200.229 108.362 196.1 111.218 194.18Z" fill="#BABABA"/>
<path d="M104.816 194.305C105.786 193.883 106.908 194.018 107.75 194.659C108.591 195.3 109.019 196.348 108.869 197.394C108.718 198.442 108.012 199.325 107.024 199.703C105.544 200.268 103.883 199.55 103.283 198.084C102.683 196.616 103.364 194.94 104.816 194.305Z" fill="#BABABA"/>
<path d="M251.632 154.429C252.029 154.425 252.51 154.417 252.901 154.456C253.683 154.536 254.401 154.927 254.893 155.541C256.262 157.271 255.171 159.218 253.564 160.289C252.092 160.364 251.107 160.27 250.231 158.911C249.793 158.235 249.656 157.41 249.848 156.63C250.121 155.484 250.692 155.021 251.632 154.429Z" fill="#BABABA"/>
<path d="M184.02 194.241C185.527 193.691 187.196 194.465 187.75 195.971C188.303 197.478 187.533 199.149 186.029 199.705C184.518 200.264 182.839 199.492 182.284 197.98C181.729 196.469 182.507 194.792 184.02 194.241Z" fill="#BABABA"/>
<path d="M149.32 185.387C152.749 185.445 153.185 190.497 149.064 190.992C145.416 190.778 144.636 185.559 149.32 185.387Z" fill="#BABABA"/>
<path d="M134.959 185.416C135.811 185.401 136.689 185.424 137.545 185.434C137.835 185.698 138.112 185.96 138.362 186.265C138.886 186.902 139.123 187.727 139.023 188.546C138.886 189.629 138.198 190.335 137.365 190.941C136.937 190.966 135.751 191.031 135.383 190.878C132.775 189.791 132.218 186.72 134.959 185.416Z" fill="#BABABA"/>
<path d="M151.022 194.133C151.443 194.118 152.801 194.045 153.097 194.21C155.491 195.539 155.64 198.561 153.104 199.795C150.751 200.002 148.858 199.329 149.314 196.252C149.443 195.373 150.258 194.597 151.022 194.133Z" fill="#BABABA"/>
<path d="M92.0777 194.26C93.5476 193.703 95.1938 194.415 95.7944 195.869C96.3949 197.32 95.7322 198.987 94.2981 199.631C93.3316 200.065 92.2055 199.938 91.3589 199.302C90.5124 198.665 90.0796 197.617 90.2291 196.569C90.3785 195.519 91.0869 194.634 92.0777 194.26Z" fill="#BABABA"/>
<path d="M245.103 75.8013C249.445 75.9655 249.478 79.9956 245.92 81.7386C242.29 81.9763 241.352 77.4333 245.103 75.8013Z" fill="#BABABA"/>
<path d="M131.303 194.139C135.702 193.93 135.979 198.149 133.254 199.828C131.647 199.916 130.427 200.01 129.597 198.383C128.668 196.557 129.667 194.954 131.303 194.139Z" fill="#BABABA"/>
<path d="M173.314 173.261C175.201 173.051 177.68 173.157 177.826 175.968C177.879 177.024 176.997 177.841 176.194 178.461C172.386 179.497 170.366 176.027 173.314 173.261Z" fill="#BABABA"/>
<path d="M117.533 136.805C117.818 136.799 118.986 136.764 119.162 136.862C122.005 138.465 121.179 141.62 118.75 142.947C114.942 142.531 114.175 138.328 117.533 136.805Z" fill="#BABABA"/>
<path d="M116.382 185.397C120.257 185.229 120.72 190.087 116.81 191.058C112.753 190.438 112.414 185.966 116.382 185.397Z" fill="#BABABA"/>
<path d="M252.092 180.724C251.912 181.405 251.255 181.872 250.661 182.179C247.208 183.971 245.044 178.627 248.334 177.246C249.92 176.58 251.615 177.884 253.013 178.603L253.312 178.472L253.493 178.75C252.919 179.614 252.882 179.854 252.614 180.865L252.092 180.724Z" fill="#BABABA"/>
<path d="M253.013 178.603L253.312 178.472L253.492 178.75C252.919 179.614 252.882 179.854 252.614 180.865L252.092 180.724C252.121 179.937 252.129 179.878 252.604 179.194L253.013 178.603Z" fill="#BABABA"/>
<path d="M73.5144 194.147C78.1261 193.965 78.2637 198.422 75.2453 199.914C71.096 199.969 70.3281 196.229 73.5144 194.147Z" fill="#BABABA"/>
<path d="M122.143 185.383C126.32 185.23 127.464 188.767 124.267 190.886C122.379 190.937 121.228 190.831 120.343 188.925C119.574 187.267 120.702 185.969 122.143 185.383Z" fill="#BABABA"/>
<path d="M98.4888 194.155C102.657 193.862 103.571 197.044 100.888 199.787C98.7714 199.977 96.6857 199.578 96.7708 196.685C96.8052 195.521 97.5553 194.804 98.4888 194.155Z" fill="#BABABA"/>
<path d="M160.447 185.551C162.146 185.432 163.421 185.313 164.541 186.828C165.589 188.245 164.527 189.909 163.387 190.808C161.352 191.029 158.989 190.802 159.012 187.793C159.018 186.91 159.763 186.097 160.447 185.551Z" fill="#BABABA"/>
<path d="M77.7346 160.022C79.2514 159.607 80.8199 160.487 81.2562 161.998C81.6925 163.509 80.8349 165.089 79.3306 165.548C78.3381 165.851 77.2596 165.595 76.5087 164.878C75.7576 164.164 75.4501 163.099 75.704 162.092C75.9578 161.087 76.7337 160.295 77.7346 160.022Z" fill="#BABABA"/>
<path d="M123.458 136.997C125.159 136.918 125.308 137.116 126.752 138.056C126.85 140.74 127.356 141.512 124.864 142.914C122.756 142.73 121.069 141.727 121.432 139.313C121.623 138.048 122.453 137.63 123.458 136.997Z" fill="#BABABA"/>
<path d="M98.9873 66.3631C101.239 66.3183 102.786 67.462 102.182 69.9256C101.836 71.3325 100.977 71.6828 99.8092 72.3592C96.7257 72.2179 95.0951 68.1947 98.9873 66.3631Z" fill="#BABABA"/>
<path d="M141.77 185.377C143.244 184.93 144.808 185.727 145.316 187.18C145.821 188.636 145.093 190.231 143.662 190.798C142.679 191.187 141.565 191.007 140.757 190.329C139.948 189.651 139.575 188.585 139.786 187.551C139.999 186.517 140.761 185.682 141.77 185.377Z" fill="#BABABA"/>
<path d="M110.313 185.305C111.345 185.368 112.262 185.983 112.715 186.91C113.168 187.839 113.086 188.939 112.502 189.793C111.918 190.644 110.921 191.117 109.891 191.029C108.325 190.894 107.158 189.526 107.273 187.958C107.389 186.39 108.744 185.207 110.313 185.305Z" fill="#BABABA"/>
<path d="M171.623 194.131C171.956 194.11 172.319 194.088 172.652 194.1C173.412 194.129 174.122 194.481 174.605 195.068C175.111 195.67 175.342 196.456 175.242 197.234C175.068 198.547 174.544 199.097 173.561 199.859C172.087 199.955 170.902 199.986 170.118 198.553C169.043 196.59 169.962 195.109 171.623 194.131Z" fill="#BABABA"/>
<path d="M95.7529 185.713C96.6514 185.166 97.777 185.158 98.6843 185.688C99.5916 186.218 100.135 187.205 100.1 188.255C100.064 189.305 99.4561 190.253 98.5152 190.722C97.1413 191.406 95.4722 190.886 94.7311 189.541C93.9903 188.198 94.4408 186.509 95.7529 185.713Z" fill="#BABABA"/>
<path d="M154.69 185.379C156.788 185.33 158.696 185.928 158.334 188.782C158.215 189.713 157.282 190.477 156.455 190.913C154.305 190.921 152.135 190.041 152.717 187.048C152.862 186.304 153.986 185.668 154.69 185.379Z" fill="#BABABA"/>
<path d="M217.224 129.011C220.923 130.029 221.116 133.517 217.386 134.858C213.113 134.367 213.199 130.096 217.224 129.011Z" fill="#BABABA"/>
<path d="M256.16 161.376C260.227 161.085 261.353 165.159 258.19 166.684C256.42 166.754 255.277 166.774 254.29 165.042C253.277 163.257 254.647 162.004 256.16 161.376Z" fill="#BABABA"/>
<path d="M128.893 185.348C130.41 184.959 131.96 185.866 132.363 187.381C132.768 188.896 131.876 190.454 130.365 190.874C129.374 191.148 128.312 190.87 127.585 190.145C126.856 189.418 126.571 188.358 126.844 187.367C127.114 186.374 127.896 185.604 128.893 185.348Z" fill="#BABABA"/>
<path d="M173.604 179.612C177.586 179.362 179.267 182.437 176.053 185.058C174.519 184.951 173.668 185.141 172.525 183.956C170.949 182.32 172.233 180.722 173.604 179.612Z" fill="#BABABA"/>
<path d="M78.0513 153.469C79.5883 153.238 81.0255 154.284 81.2789 155.817C81.5324 157.351 80.5081 158.804 78.9789 159.08C77.9686 159.263 76.9384 158.888 76.2829 158.098C75.6276 157.308 75.4487 156.225 75.8149 155.266C76.1814 154.308 77.0359 153.621 78.0513 153.469Z" fill="#BABABA"/>
<path d="M67.472 194.1C71.5165 194.215 71.9917 198.311 68.7519 199.9C64.8524 200.287 63.9744 196.176 67.472 194.1Z" fill="#BABABA"/>
<path d="M227.03 154.64C231.62 154.222 232.072 158.339 228.815 160.262C225.417 160.522 223.736 156.345 227.03 154.64Z" fill="#BABABA"/>
<path d="M177.518 194.145C177.84 194.12 178.161 194.106 178.483 194.104C181.861 194.108 182.204 197.511 179.705 199.793C175.555 200.186 174.62 196.225 177.518 194.145Z" fill="#BABABA"/>
<path d="M220.673 154.558C221.64 154.212 222.718 154.413 223.494 155.086C224.27 155.76 224.622 156.8 224.414 157.805C224.207 158.81 223.472 159.627 222.493 159.938C221.019 160.407 219.439 159.609 218.943 158.143C218.446 156.675 219.216 155.082 220.673 154.558Z" fill="#BABABA"/>
<path d="M238.933 154.616C239.324 154.585 239.717 154.566 240.108 154.556C243.418 154.489 244.303 157.817 241.676 159.996C240.503 160.229 239.375 160.223 238.456 159.334C237.899 158.8 237.592 158.059 237.606 157.287C237.621 155.981 238.044 155.441 238.933 154.616Z" fill="#BABABA"/>
<path d="M246.36 154.441C250.323 154.88 250.352 158.927 246.866 160.319C242.857 159.521 242.624 155.508 246.36 154.441Z" fill="#BABABA"/>
<path d="M79.7033 194.11C83.952 194.04 84.2829 196.997 81.8547 199.842C80.4161 199.953 79.2777 199.963 78.4498 198.62C77.2861 196.733 78.0688 195.191 79.7033 194.11Z" fill="#BABABA"/>
<path d="M85.6016 194.145C89.8314 193.813 90.6195 196.874 87.9684 199.783C83.7907 200.284 82.8412 196.385 85.6016 194.145Z" fill="#BABABA"/>
<path d="M174.118 159.945C178.681 159.74 178.476 164.809 175.678 165.31C171.481 165.777 170.492 161.603 174.118 159.945Z" fill="#BABABA"/>
<path d="M232.967 154.634C237.235 154.167 238.388 157.682 235.346 160.073C231.548 160.933 230.123 156.906 232.967 154.634Z" fill="#BABABA"/>
<path d="M209.181 128.368C209.334 128.368 209.488 128.37 209.639 128.378C210.73 128.428 211.75 128.929 212.454 129.762C214.026 131.615 212.733 133.116 211.144 134.235C208.661 134.737 207.844 133.073 207.443 131.021C207.995 129.981 208.335 129.205 209.181 128.368Z" fill="#BABABA"/>
<path d="M223.243 172.469C222.352 172.044 220.709 170.602 220.852 169.554C221.409 165.427 227.649 165.763 226.326 170.654C226.095 171.509 225.536 171.859 224.789 172.263L223.243 172.469Z" fill="#BABABA"/>
<path d="M130.033 136.76C133.561 137.792 133.706 141.906 130.166 142.871C129.847 142.803 129.483 142.723 129.178 142.617C128.416 142.351 127.804 141.773 127.495 141.03C126.565 138.838 128.187 137.474 130.033 136.76Z" fill="#BABABA"/>
<path d="M262.164 138.731C263.677 138.479 265.112 139.482 265.399 140.989C265.683 142.494 264.715 143.954 263.214 144.273C262.215 144.486 261.177 144.142 260.504 143.37C259.83 142.6 259.626 141.526 259.972 140.563C260.315 139.599 261.155 138.899 262.164 138.731Z" fill="#BABABA"/>
<path d="M103.267 185.385C104.704 185.323 105.716 185.723 106.304 187.141C106.601 187.872 106.594 188.689 106.283 189.414C105.911 190.284 105.413 190.53 104.591 190.884C101.819 190.994 99.9085 189.182 101.465 186.306C101.821 185.651 102.543 185.504 103.267 185.385Z" fill="#BABABA"/>
<path d="M173.663 153.643C174.617 153.246 175.713 153.402 176.515 154.051C177.32 154.699 177.705 155.737 177.518 156.753C177.332 157.77 176.603 158.603 175.621 158.923C174.183 159.392 172.632 158.642 172.105 157.224C171.579 155.807 172.267 154.227 173.663 153.643Z" fill="#BABABA"/>
<path d="M223.243 172.469L224.788 172.263L225.087 172.766C230.105 174.611 226.197 179.463 222.856 177.712C222.362 177.446 221.994 177 221.83 176.466C221.398 175.061 222.045 173.677 223.308 172.983L223.243 172.469Z" fill="#BABABA"/>
<path d="M223.243 172.469L224.789 172.263L225.087 172.766L223.308 172.983L223.243 172.469Z" fill="#BABABA"/>
<path d="M89.7001 185.61C90.6348 185.185 91.7268 185.301 92.5498 185.915C93.3727 186.53 93.7961 187.543 93.6546 188.56C93.5132 189.578 92.829 190.438 91.8697 190.804C90.4487 191.345 88.8539 190.661 88.2678 189.259C87.6815 187.854 88.3157 186.239 89.7001 185.61Z" fill="#BABABA"/>
<path d="M111.694 136.985C114.523 136.803 115.658 138.715 114.797 141.319C114.497 142.224 113.901 142.416 113.084 142.773C109.082 143.039 108.743 139.331 111.694 136.985Z" fill="#BABABA"/>
<path d="M28.057 54.5739C27.8783 55.1799 27.8373 55.2041 27.502 55.7519C26.6944 56.355 24.6742 56.4428 24.0152 55.6866C21.7712 53.111 24.8052 48.0313 28.0455 51.7807L28.6832 52.0262C28.5514 53.042 28.4482 53.3485 28.6603 54.3209L28.057 54.5739Z" fill="#BABABA"/>
<path d="M28.0454 51.7808L28.6831 52.0262C28.5513 53.0421 28.4481 53.3485 28.6602 54.3209L28.0569 54.574C28.105 53.6265 28.0685 52.7274 28.0454 51.7808Z" fill="#BABABA"/>
<path d="M241.023 81.7494C245.218 81.4315 245.525 86.0893 242.321 87.4294C238.658 86.9223 237.338 83.8588 241.023 81.7494Z" fill="#BABABA"/>
<path d="M89.1882 49.5767C93.1923 50.0821 93.2664 53.4344 89.7874 55.2722C86.4576 55.5596 85.0076 51.4568 89.1882 49.5767Z" fill="#BABABA"/>
<path d="M125.884 147.322C126.735 147.291 126.793 147.266 127.556 147.59C128.793 148.812 128.701 150.466 127.712 151.852C127.292 152.44 126.58 152.464 125.908 152.552C123.4 152.337 121.82 150.724 123.374 148.183C123.892 147.336 124.942 147.371 125.884 147.322Z" fill="#BABABA"/>
<path d="M167.119 185.544C171.674 185.27 172.527 189.18 169.555 190.892C165.823 191.371 164.167 187.95 167.119 185.544Z" fill="#BABABA"/>
<path d="M83.2472 185.674C84.16 185.242 85.2352 185.338 86.0565 185.926C86.8781 186.513 87.3172 187.498 87.2036 188.503C87.0902 189.506 86.4422 190.368 85.5103 190.757C84.1152 191.34 82.5102 190.702 81.8952 189.322C81.2804 187.94 81.8806 186.321 83.2472 185.674Z" fill="#BABABA"/>
<path d="M255.12 172.373C252.557 170.465 253.529 166.954 256.055 167.155C257.12 167.251 258.098 167.783 258.758 168.625C260.332 170.631 259.161 172.129 256.942 172.482C256.319 172.406 255.744 172.396 255.12 172.373Z" fill="#BABABA"/>
<path d="M131.964 147.326C134.842 146.982 135.286 150.01 133.79 151.774C133.225 152.444 132.502 152.427 131.689 152.499C129.018 152.366 128.197 150.069 129.745 147.997C130.279 147.285 131.114 147.363 131.964 147.326Z" fill="#BABABA"/>
<path d="M167.886 147.297C171.708 147.037 171.987 151.682 168.625 152.54C164.49 152.65 163.994 147.786 167.886 147.297Z" fill="#BABABA"/>
<path d="M140.008 137.231C141.42 137.083 142.788 137.11 143.344 138.635C144.077 140.648 143.359 142.093 141.5 142.912C140.46 142.891 139.467 142.541 138.828 141.686C138.343 141.039 138.161 140.214 138.333 139.423C138.574 138.287 139.094 137.839 140.008 137.231Z" fill="#BABABA"/>
<path d="M241.958 183.684C243.232 183.643 244.202 183.496 245.23 184.394C246.855 185.811 246.18 187.594 244.741 188.882C240.832 189.463 239.068 186.247 241.958 183.684Z" fill="#BABABA"/>
<path d="M223.874 139.661C226.752 139.603 226.856 141.27 227.135 143.655C226.416 144.652 226.246 144.94 225.135 145.415C224.025 145.444 222.84 145.245 222.258 144.242C221.005 142.078 222.314 140.725 223.874 139.661Z" fill="#BABABA"/>
<path d="M248.389 183.487C252.573 183.383 253.337 187.445 250.638 188.802C250.219 188.857 249.246 188.996 248.857 188.9C248.092 188.71 247.43 188.227 247.017 187.553C246.012 185.915 246.974 184.413 248.389 183.487Z" fill="#BABABA"/>
<path d="M77.6434 185.553C79.0901 185.846 79.8013 185.453 80.7471 187.089C81.6413 188.632 80.8182 190.133 79.388 190.925C77.73 190.946 76.5111 190.905 75.7098 189.222C74.8512 187.418 76.1487 186.184 77.6434 185.553Z" fill="#BABABA"/>
<path d="M160.41 147.485C161.921 147.315 162.955 147.082 164.081 148.282C165.399 149.688 164.641 151.322 163.389 152.386C161.573 152.601 158.887 152.474 159.006 149.469C159.032 148.75 159.818 147.921 160.41 147.485Z" fill="#BABABA"/>
<path d="M155.74 147.307C158.539 147.195 159.142 149.844 157.677 151.803C157.196 152.446 156.459 152.44 155.701 152.507C153.132 152.345 151.987 150.149 153.558 148.018C154.057 147.34 154.935 147.365 155.74 147.307Z" fill="#BABABA"/>
<path d="M226.999 145.513C228.51 145.272 229.927 146.31 230.154 147.823C230.379 149.336 229.327 150.742 227.814 150.953C226.32 151.162 224.936 150.128 224.712 148.635C224.489 147.143 225.511 145.751 226.999 145.513Z" fill="#BABABA"/>
<path d="M186.972 50.3391C190.764 50.1331 192.182 53.7125 189.065 55.8491C185.457 56.8302 184.383 52.8776 186.972 50.3391Z" fill="#BABABA"/>
<path d="M71.0461 185.547C72.3156 185.399 73.3893 185.228 74.3124 186.325C74.7399 186.826 74.925 187.492 74.8183 188.141C74.6275 189.367 74.0052 190.083 73.0769 190.816C69.5359 191.097 67.8582 187.846 71.0461 185.547Z" fill="#BABABA"/>
<path d="M180.581 185.543C180.919 185.522 181.32 185.5 181.656 185.52C182.512 185.569 183.304 185.989 183.824 186.673C185.153 188.45 183.738 189.897 182.286 190.845C179.56 190.986 179.392 189.959 178.481 187.774C179.185 186.638 179.449 186.251 180.581 185.543Z" fill="#BABABA"/>
<path d="M229.992 177.344C235.166 177.137 234.173 181.735 232.017 182.151C229.067 182.881 225.667 179.684 229.992 177.344Z" fill="#BABABA"/>
<path d="M241.88 177.331C245.975 176.967 247.611 180.377 244.493 182.347C241.242 183.469 239.012 179.61 241.88 177.331Z" fill="#BABABA"/>
<path d="M135.115 136.948C136.193 136.938 136.75 137.544 137.557 138.214C137.97 140.57 138.668 141.974 135.927 142.818C132.066 142.656 131.819 138.957 135.115 136.948Z" fill="#BABABA"/>
<path d="M173.301 147.44C177.367 147.125 178.853 149.565 175.842 152.478C172.462 153.156 170.261 150.118 173.301 147.44Z" fill="#BABABA"/>
<path d="M82.9369 28.6989C87.3189 28.6043 88.3519 32.7083 85.4398 33.5852L84.4106 33.6634C81.4907 33.8931 79.8478 30.985 82.9369 28.6989Z" fill="#BABABA"/>
<path d="M119.627 147.291C122.911 147.117 123.312 151.885 120.092 152.47C119.704 152.458 118.416 152.44 118.157 152.227C115.713 150.204 116.637 147.682 119.627 147.291Z" fill="#BABABA"/>
<path d="M100.116 147.454C101.565 147.401 102.49 147.155 103.704 148.14C105.227 149.377 104.458 151.223 103.159 152.316C101.917 152.435 100.872 152.679 99.8359 151.835C98.1361 150.453 98.9237 148.779 100.116 147.454Z" fill="#BABABA"/>
<path d="M148.171 147.473C148.509 147.444 149.899 147.336 150.155 147.413C153.023 148.277 152.898 150.916 150.751 152.345C146.577 152.898 145.291 149.416 148.171 147.473Z" fill="#BABABA"/>
<path d="M231.217 183.725C233.804 183.94 234.988 185.543 233.565 188.077C233.139 188.839 232.281 188.917 231.452 189.029C228.232 188.45 227.53 184.425 231.217 183.725Z" fill="#BABABA"/>
<path d="M88.3256 147.473C89.7183 147.397 91.0175 147.094 91.9848 148.312C93.0258 149.624 92.4424 151.405 91.211 152.339C90.018 152.486 89.0757 152.716 88.0677 151.907C86.3687 150.548 87.1182 148.797 88.3256 147.473Z" fill="#BABABA"/>
<path d="M26.1101 182.306C27.485 181.737 29.0608 182.396 29.619 183.776C30.1773 185.156 29.5042 186.726 28.1201 187.273C26.7519 187.813 25.2036 187.15 24.6517 185.786C24.0998 184.423 24.7508 182.869 26.1101 182.306Z" fill="#BABABA"/>
<path d="M174.378 185.672C175.825 186.108 177.142 186.505 177.555 188.122C178.055 190.082 176.703 190.776 175.152 191.04C171.293 190.776 171.153 187.606 174.378 185.672Z" fill="#BABABA"/>
<path d="M7.84694 182.267C9.46341 182.173 10.5574 182.22 11.2942 183.883C11.5663 184.507 11.5585 185.217 11.2731 185.836C10.8705 186.73 10.416 187.011 9.56639 187.342C5.81672 187.424 4.59024 184.218 7.84694 182.267Z" fill="#BABABA"/>
<path d="M32.5511 182.281C34.1254 182.177 35.2131 182.259 35.9685 183.868C36.2604 184.484 36.2741 185.195 36.0059 185.821C35.6372 186.708 35.1836 187.019 34.3641 187.375C30.6257 187.303 29.0813 184.048 32.5511 182.281Z" fill="#BABABA"/>
<path d="M19.8823 182.276C21.8142 182.165 24.0348 182.374 23.5392 185.334C23.3908 186.221 22.7326 186.896 21.9625 187.361C20.6897 187.33 19.5668 187.429 18.7428 186.292C17.5028 184.583 18.4963 183.275 19.8823 182.276Z" fill="#BABABA"/>
<path d="M236.414 183.819C237.77 183.285 239.303 183.94 239.854 185.287C240.406 186.636 239.77 188.177 238.429 188.747C237.547 189.121 236.529 188.99 235.77 188.407C235.008 187.823 234.621 186.873 234.754 185.923C234.887 184.974 235.522 184.169 236.414 183.819Z" fill="#BABABA"/>
<path d="M136.29 147.424C136.605 147.411 136.922 147.399 137.237 147.391C140.628 147.307 141.537 150.372 139.252 152.292C135.155 153.055 133.923 149.682 136.29 147.424Z" fill="#BABABA"/>
<path d="M56.5174 36.6367C59.6069 36.8531 60.8475 40.5215 56.8331 42.1279C56.1242 42.2784 54.9181 41.9015 54.6068 41.2865C53.3733 38.8498 54.7879 37.5747 56.5174 36.6367Z" fill="#BABABA"/>
<path d="M106.755 147.229C108.134 147.348 109.093 147.278 109.936 148.576C110.912 150.079 110.203 151.469 108.901 152.406C108.501 152.425 107.235 152.505 106.912 152.335C104.412 151.033 104.349 148.556 106.755 147.229Z" fill="#BABABA"/>
<path d="M94.3996 147.594C95.2287 147.123 96.2462 147.135 97.0642 147.625C97.8825 148.112 98.3751 149.002 98.3544 149.956C98.3335 150.908 97.8027 151.776 96.9639 152.229C95.6861 152.919 94.0911 152.452 93.3881 151.181C92.6853 149.909 93.1363 148.31 94.3996 147.594Z" fill="#BABABA"/>
<path d="M142.737 147.213C144.196 147.35 145.236 147.368 145.949 148.849C146.684 150.382 146.078 151.805 144.587 152.472C144.35 152.476 143.224 152.495 143.078 152.435C140.38 151.303 140.122 148.521 142.737 147.213Z" fill="#BABABA"/>
<path d="M83.6973 147.266C87.753 147.694 87.1749 151.962 84.4015 152.491C80.4629 152.368 80.2119 148.026 83.6973 147.266Z" fill="#BABABA"/>
<path d="M113.591 147.291C117.36 147.628 117.188 151.798 113.878 152.538C110.406 152.108 109.762 147.974 113.591 147.291Z" fill="#BABABA"/>
<path d="M222.297 160.974C225.869 160.765 227.667 164.145 224.494 166.059C220.534 166.248 219.439 163.49 222.297 160.974Z" fill="#BABABA"/>
<path d="M38.8622 182.271C39.7609 181.958 40.7588 182.154 41.4722 182.785C42.1859 183.413 42.5044 184.38 42.3058 185.311C42.1075 186.241 41.4225 186.992 40.5141 187.277C39.1402 187.706 37.6761 186.953 37.2251 185.588C36.7739 184.22 37.5027 182.744 38.8622 182.271Z" fill="#BABABA"/>
<path d="M224.193 183.538C221.623 181.647 221.558 178.605 225.171 178.527C228.543 178.455 228.543 181.129 226.295 183.34L224.193 183.538Z" fill="#BABABA"/>
<path d="M196.625 36.5172C200.06 36.119 202.079 40.0877 198.752 41.5584C195.284 41.46 193.302 38.7073 196.625 36.5172Z" fill="#BABABA"/>
<path d="M50.962 182.296C51.8847 182.042 52.8718 182.312 53.537 183C54.2021 183.688 54.439 184.685 54.1548 185.598C53.8705 186.511 53.1105 187.197 52.1727 187.385C50.79 187.666 49.435 186.798 49.1087 185.426C48.7823 184.055 49.6018 182.671 50.962 182.296Z" fill="#BABABA"/>
<path d="M198.594 182.3C199.481 181.944 200.49 182.099 201.227 182.705C201.966 183.311 202.314 184.269 202.14 185.209C201.964 186.147 201.292 186.914 200.386 187.213C199.043 187.655 197.593 186.951 197.11 185.625C196.625 184.296 197.282 182.824 198.594 182.3Z" fill="#BABABA"/>
<path d="M190.729 46.1052C191.357 45.8814 192.051 45.9078 192.662 46.1791C193.597 46.5932 194.203 47.5145 194.217 48.5366C194.23 49.559 193.644 50.4948 192.721 50.9319C191.849 51.3448 190.819 51.2431 190.043 50.6674C189.269 50.0917 188.874 49.1359 189.018 48.181C189.161 47.2262 189.818 46.4282 190.729 46.1052Z" fill="#BABABA"/>
<path d="M13.852 182.265C14.1079 182.255 15.2687 182.191 15.4445 182.245C18.1849 183.066 17.8897 185.993 15.9103 187.311C11.942 187.545 10.9622 184.161 13.852 182.265Z" fill="#BABABA"/>
<path d="M196.138 41.6953C197.976 42.0204 198.701 43.7137 197.677 45.265C196.85 46.5157 196.304 46.5058 194.926 46.8455C192.702 46.0741 192.131 44.2625 193.634 42.4389C194.316 41.6114 195.155 41.727 196.138 41.6953Z" fill="#BABABA"/>
<path d="M77.106 147.645C77.9298 147.196 78.9323 147.225 79.7287 147.721C80.5253 148.218 80.992 149.106 80.9497 150.044C80.9075 150.982 80.3627 151.823 79.5248 152.247C78.2582 152.888 76.7123 152.392 76.0519 151.135C75.3917 149.88 75.8607 148.326 77.106 147.645Z" fill="#BABABA"/>
<path d="M81.9991 23.4147C85.2513 23.2016 87.8694 25.6777 84.6146 28.0332C83.0354 28.1438 80.1812 28.0305 80.4594 25.2465C80.5284 24.5552 81.4162 23.8035 81.9991 23.4147Z" fill="#BABABA"/>
<path d="M86.142 44.6953C90.2112 44.4155 91.8301 47.3628 88.0596 49.3552C87.654 49.4696 87.314 49.4927 86.8943 49.4684C86.2216 49.4287 85.5954 49.1122 85.1646 48.594C83.9551 47.1378 84.8496 45.6411 86.142 44.6953Z" fill="#BABABA"/>
<path d="M197.843 31.7076C199.495 31.4505 200.41 31.5148 201.42 32.9783C202.425 34.4359 201.43 35.6039 200.193 36.2549C196.349 36.7022 194.674 33.5427 197.843 31.7076Z" fill="#BABABA"/>
<path d="M44.9299 182.343C45.8218 182.064 46.7949 182.288 47.4756 182.928C48.156 183.569 48.4382 184.527 48.2138 185.434C47.9892 186.341 47.2927 187.056 46.3922 187.305C45.0312 187.682 43.6198 186.898 43.2208 185.543C42.8218 184.189 43.5824 182.765 44.9299 182.343Z" fill="#BABABA"/>
<path d="M204.253 182.274C204.527 182.255 205.831 182.188 206.038 182.272C208.509 183.271 208.484 185.826 206.476 187.169C202.437 187.84 201.678 183.936 204.253 182.274Z" fill="#BABABA"/>
<path d="M56.8947 182.302C58.2667 181.917 59.691 182.715 60.0773 184.087C60.4638 185.459 59.6662 186.885 58.2952 187.272C56.9217 187.661 55.4931 186.863 55.1062 185.487C54.7191 184.114 55.5202 182.687 56.8947 182.302Z" fill="#BABABA"/>
<path d="M236.39 177.411C237.733 176.975 239.176 177.698 239.631 179.035C240.083 180.371 239.379 181.825 238.048 182.296C237.172 182.605 236.195 182.421 235.495 181.811C234.793 181.201 234.474 180.261 234.66 179.35C234.844 178.439 235.505 177.698 236.39 177.411Z" fill="#BABABA"/>
<path d="M58.4359 22.354C59.846 22.3171 60.5556 22.4907 61.3261 23.7195C61.7468 24.3879 61.8644 25.2035 61.6494 25.9634C61.4003 26.8286 60.9202 27.1504 60.2 27.575C56.4411 27.8565 55.5811 24.0227 58.4359 22.354Z" fill="#BABABA"/>
<path d="M1.57097 182.267C2.53418 182.208 3.46075 182.046 4.26264 182.72C5.80746 184.02 5.15727 185.915 3.90008 187.156C-0.321469 187.674 -1.14465 184.015 1.57097 182.267Z" fill="#BABABA"/>
<path d="M62.0193 182.464C63.7033 182.288 66.2056 182.224 65.9235 185.168C65.8417 186.022 64.9702 186.8 64.2174 187.23C62.2003 187.498 61.9223 186.98 60.7375 185.494C60.8098 183.792 60.6391 183.571 62.0193 182.464Z" fill="#BABABA"/>
<path d="M193.159 182.245C194.502 181.95 195.837 182.769 196.185 184.097C196.531 185.428 195.765 186.793 194.451 187.193C193.554 187.465 192.579 187.223 191.912 186.564C191.243 185.907 190.991 184.935 191.251 184.034C191.511 183.133 192.244 182.445 193.159 182.245Z" fill="#BABABA"/>
<path d="M84.0828 34.1279C85.4135 33.6658 86.8672 34.3682 87.3323 35.6981C87.7973 37.0279 87.0981 38.4831 85.7695 38.9513C84.4364 39.4209 82.9755 38.7189 82.5089 37.3848C82.0424 36.0508 82.7476 34.5913 84.0828 34.1279Z" fill="#BABABA"/>
<path d="M224.977 183.977L226.809 183.88C227.474 184.47 228.471 185.375 228.369 186.333C227.765 192.032 219.505 186.695 224.977 183.977Z" fill="#BABABA"/>
<path d="M85.0245 39.6281C85.8665 39.2573 86.8432 39.3695 87.5792 39.9218C88.3152 40.474 88.6961 41.3803 88.5756 42.2925C88.455 43.2047 87.8519 43.981 86.9978 44.3231C85.7076 44.8401 84.2412 44.2271 83.7028 42.9458C83.1642 41.6644 83.7523 40.188 85.0245 39.6281Z" fill="#BABABA"/>
<path d="M63.7895 22.3618C67.7154 22.0385 68.2065 25.7194 65.5323 27.394C61.8358 27.4874 61.0544 24.1148 63.7895 22.3618Z" fill="#BABABA"/>
<path d="M209.95 182.425C210.908 182.372 212.116 182.159 212.876 182.857C214.401 184.259 213.484 186.026 212.198 187.176C208.456 187.664 207.575 184.861 209.95 182.425Z" fill="#BABABA"/>
<path d="M55.1852 31.5771C60.4434 32.7864 56.819 37.4616 53.8199 36.4567C52.306 35.9494 52.3375 33.3001 53.7521 32.0036L55.1852 31.5771Z" fill="#BABABA"/>
<path d="M60.8887 46.2307C61.7651 45.8913 62.7575 46.0676 63.4634 46.6881C64.1691 47.3088 64.4711 48.2706 64.2467 49.1832C64.0221 50.0959 63.3084 50.8077 62.3954 51.03C61.105 51.3443 59.7922 50.6032 59.3944 49.3362C58.9964 48.0689 59.6503 46.7106 60.8887 46.2307Z" fill="#BABABA"/>
<path d="M182.759 54.2378C186.059 55.0503 187.222 57.6644 183.992 59.4776C180.493 59.3124 179.451 56.1528 182.759 54.2378Z" fill="#BABABA"/>
<path d="M64.7044 50.3987C68.3034 50.2437 69.1032 54.4806 65.9223 55.5441C62.6633 54.9218 61.7863 52.3628 64.7044 50.3987Z" fill="#BABABA"/>
<path d="M185.535 188.738L185.824 188.773C189.279 189.199 190.444 191.733 187.314 193.725C184.135 193.302 182.425 190.714 185.535 188.738Z" fill="#BABABA"/>
<path d="M257.888 154.741C261.329 155.103 261.687 157.957 259.169 160.07C258.324 160.354 257.982 160.389 257.191 160.066C256.254 159.183 256.371 158.09 256.293 156.806C256.817 156.022 257.292 155.463 257.888 154.741Z" fill="#BABABA"/>
<path d="M186.62 182.48C190.082 182.239 192.248 184.083 189.453 186.966C186.196 187.942 184.612 184.935 186.62 182.48Z" fill="#BABABA"/>
<path d="M215.516 182.486C219.332 181.972 220.323 184.441 217.979 187.131L217.715 187.15C214.397 187.363 213.119 184.728 215.516 182.486Z" fill="#BABABA"/>
<path d="M199.037 26.4717C199.651 26.7626 200.359 26.7826 200.988 26.5272L201.141 27.2091C202.378 28.2851 202.464 30.38 201.297 31.222C199.358 32.6199 194.826 28.7203 198.433 27.0641L199.037 26.4717Z" fill="#BABABA"/>
<path d="M199.037 26.4717C199.651 26.7626 200.359 26.7826 200.988 26.5272L201.141 27.2091C200.337 27.0273 199.28 27.0695 198.433 27.0641L199.037 26.4717Z" fill="#BABABA"/>
<path d="M65.6872 188.81C69.67 188.562 70.495 191.85 67.4158 193.558C64.5174 194.194 63.2178 190.988 65.6872 188.81Z" fill="#BABABA"/>
<path d="M194.969 21.707C197.647 22.5585 197.903 26.3663 194.633 27.0398C193.028 26.6342 191.8 25.4307 192.494 23.63C192.973 22.3873 193.786 22.1861 194.969 21.707Z" fill="#BABABA"/>
<path d="M68.8828 54.4873C73.0595 54.0461 73.4786 57.5985 70.4766 59.3081C67.7984 59.4766 66.2519 56.6608 68.8828 54.4873Z" fill="#BABABA"/>
<path d="M199.036 26.4718C198.001 25.9805 197.45 24.8299 197.718 23.7144C197.984 22.5987 198.998 21.8234 200.144 21.856C201.29 21.8885 202.259 22.7203 202.461 23.8491C202.666 24.9782 202.05 26.0955 200.987 26.5273C200.359 26.7828 199.651 26.7627 199.036 26.4718Z" fill="#BABABA"/>
<path d="M92.0816 26.6472C92.6866 26.5919 93.2141 26.5342 93.8238 26.5215L93.9775 27.1651C99.444 32.9243 85.2816 32.0729 91.7504 27.0511L92.0816 26.6472Z" fill="#BABABA"/>
<path d="M92.0817 26.6472C92.6867 26.5919 93.2142 26.5342 93.8239 26.5215L93.9776 27.1651C93.3451 27.0525 92.416 27.0677 91.7505 27.0511L92.0817 26.6472Z" fill="#BABABA"/>
<path d="M94.6215 40.9375C96.3466 41.4059 97.5185 42.4058 96.7712 44.4429C96.3747 45.5245 95.658 45.6989 94.637 46.1487C93.0697 45.8842 91.8669 44.56 92.4365 42.9874C92.9032 41.698 93.4611 41.5214 94.6215 40.9375Z" fill="#BABABA"/>
<path d="M58.8912 41.8091C62.9584 42.1962 61.9493 44.877 59.3107 46.7476C57.5055 46.6026 56.2317 45.3016 56.8811 43.4211C57.208 42.4746 58.0398 42.2195 58.8912 41.8091Z" fill="#BABABA"/>
<path d="M189.593 21.7368C192.496 23.0919 192.612 26.0722 189.359 26.9906C188.459 26.6947 187.507 25.9012 187.281 24.9937C186.745 22.8136 188.014 22.2376 189.593 21.7368Z" fill="#BABABA"/>
<path d="M95.6466 46.2536C96.419 45.8677 97.3404 45.9346 98.049 46.4282C98.7573 46.9216 99.1395 47.7628 99.0451 48.6212C98.951 49.4794 98.3951 50.2174 97.5963 50.5453C96.4227 51.0271 95.0783 50.494 94.5536 49.3389C94.0287 48.1839 94.5118 46.8207 95.6466 46.2536Z" fill="#BABABA"/>
<path d="M28.6831 52.0259C34.1891 46.966 34.278 58.9929 28.6602 54.3206C28.4481 53.3482 28.5513 53.0417 28.6831 52.0259Z" fill="#BABABA"/>
<path d="M92.0818 26.6473C91.371 26.1731 90.5728 25.58 90.4854 24.6686C90.021 19.8313 97.5394 22.9975 93.8239 26.5215C93.2143 26.5342 92.6867 26.592 92.0818 26.6473Z" fill="#BABABA"/>
<path d="M103.962 71.7045C104.732 71.5997 105.497 71.9242 105.956 72.5502C106.416 73.1762 106.496 74.0035 106.165 74.7061C105.835 75.4087 105.146 75.8744 104.371 75.9195C103.235 75.9856 102.249 75.142 102.139 74.0088C102.029 72.8757 102.834 71.858 103.962 71.7045Z" fill="#BABABA"/>
<path d="M10.8823 51.027C11.9573 50.6176 13.1625 51.1437 13.5931 52.2105C14.0236 53.2773 13.5212 54.4925 12.463 54.9439C11.7598 55.2439 10.9495 55.1405 10.3441 54.6735C9.73878 54.2065 9.43292 53.4489 9.5447 52.6926C9.65627 51.9362 10.1679 51.2993 10.8823 51.027Z" fill="#BABABA"/>
<path d="M236.136 16.0939C236.852 15.8006 237.671 15.9299 238.261 16.4295C238.853 16.929 239.115 17.7157 238.945 18.4699C238.773 19.2241 238.195 19.8205 237.448 20.0166C236.392 20.2936 235.303 19.7044 234.957 18.6693C234.611 17.6342 235.127 16.5081 236.136 16.0939Z" fill="#BABABA"/>
<path d="M21.5933 36.8823C23.8235 37.7014 23.9543 40.1929 21.8772 41.352C18.786 40.6643 18.3047 37.6642 21.5933 36.8823Z" fill="#BABABA"/>
<path d="M220.264 59.4116C222.15 60.4508 221.763 61.4099 221.56 63.2935C218.893 65.7176 215.953 60.5967 220.264 59.4116Z" fill="#BABABA"/>
<path d="M20.9741 60.3934C22.0331 60.14 23.1028 60.7693 23.396 61.8181C23.6891 62.8667 23.1007 63.9595 22.0638 64.2921C21.3573 64.5186 20.5837 64.3409 20.0469 63.8286C19.5101 63.3164 19.2964 62.5518 19.4897 61.8355C19.6831 61.1192 20.2525 60.566 20.9741 60.3934Z" fill="#BABABA"/>
<path d="M247.06 25.4945C247.459 24.7284 248.329 24.3343 249.169 24.5399C250.008 24.7454 250.598 25.4974 250.598 26.3613C250.598 27.225 250.008 27.9772 249.169 28.1827C248.329 28.3882 247.459 27.9939 247.06 27.2281L246.215 27.1773C246.499 26.6407 246.513 26.0018 246.256 25.4527L247.06 25.4945Z" fill="#BABABA"/>
<path d="M246.256 25.4526L247.06 25.4944C246.776 26.0375 246.776 26.6849 247.06 27.228L246.215 27.1772C246.499 26.6406 246.513 26.0017 246.256 25.4526Z" fill="#BABABA"/>
<path d="M34.9071 51.2946C35.8891 50.9169 36.9936 51.3857 37.4042 52.3542C37.8147 53.323 37.3834 54.4426 36.4292 54.8856C35.7826 55.1855 35.0239 55.1094 34.4501 54.6864C33.8763 54.2637 33.5788 53.5615 33.674 52.8552C33.7692 52.1489 34.2419 51.5505 34.9071 51.2946Z" fill="#BABABA"/>
<path d="M246.215 27.1773C245.797 27.968 244.89 28.3674 244.024 28.1418C243.158 27.9162 242.56 27.1251 242.581 26.2307C242.601 25.3365 243.236 24.5737 244.11 24.3882C244.986 24.2029 245.873 24.6435 246.256 25.4528C246.514 26.0018 246.499 26.6407 246.215 27.1773Z" fill="#BABABA"/>
<path d="M6.23856 51.3482C6.85498 51.0647 7.57641 51.1355 8.12609 51.5335C8.67576 51.9317 8.9681 52.5949 8.89092 53.2693C8.81374 53.9434 8.37912 54.5236 7.75391 54.7873C6.8083 55.1859 5.71775 54.7523 5.30401 53.8133C4.89027 52.8742 5.30626 51.7769 6.23856 51.3482Z" fill="#BABABA"/>
<path d="M236.56 11.6182C237.493 11.8266 238.259 12.3296 239.096 12.8004L239.029 13.009L238.914 13.3554C238.556 14.4474 238.597 14.5426 237.893 15.4276C234.949 15.5081 234.435 13.4871 236.56 11.6182Z" fill="#BABABA"/>
<path d="M224.657 24.5322C227.147 24.6278 227.925 26.6058 226.019 28.165C223.267 28.1494 222.424 26.2893 224.657 24.5322Z" fill="#BABABA"/>
<path d="M43.2541 74.5548C44.7756 74.5039 45.8231 74.9221 46.1101 76.5138C45.9275 77.6588 45.3003 77.5306 45.0429 78.5293C45.5398 78.4558 45.2857 78.4676 45.8055 78.4994C47.944 83.6884 44.968 81.023 43.9796 84.0479C43.2668 83.8234 43.8412 83.1128 42.8303 82.6325L42.5386 82.784C43.1366 83.807 43.6146 85.0713 44.4996 85.6331L44.6748 85.5487C43.972 82.292 47.7053 80.7691 49.6 82.7469C51.2593 84.4793 49.4635 87.8658 46.8807 87.4023C45.4988 87.1544 45.324 86.201 44.2996 86.1005L44.1549 86.3879C46.0008 87.7302 47.7757 87.8609 45.9015 90.6571C44.2402 91.9827 41.8835 91.7665 41.5831 89.2665C41.4329 88.0154 42.4252 87.5345 43.2236 86.7073L43.2068 86.434C42.3107 86.5709 42.3545 87.103 41.7924 87.3069C38.5924 88.4672 38.6577 86.1387 37.6539 85.0857C36.0115 89.5502 30.9197 84.1206 34.6507 82.5451C35.9335 82.6321 36.3685 83.0708 37.346 83.9005L37.5798 84.1016L37.8353 83.9292L37.9686 82.9111C38.9936 81.6378 40.3446 81.1352 41.7738 82.1143L41.9275 82.2218C41.0945 79.9371 41.2409 79.7537 43.2752 78.588L43.301 78.3401C42.298 77.9272 42.0161 77.9296 41.6818 76.8698C41.8804 75.6083 42.2249 75.3164 43.2541 74.5548Z" fill="#BABABA"/>
<path d="M52.5778 82.3174C55.423 83.1641 55.6807 85.5131 52.9491 86.7844C50.2221 86.2636 49.6808 83.2642 52.5778 82.3174Z" fill="#BABABA"/>
<path d="M43.3118 91.9219C46.2956 92.3313 46.7581 94.1083 44.3967 96.0327C41.2489 95.5434 40.8114 93.9627 43.3118 91.9219Z" fill="#BABABA"/>
<path d="M43.3294 96.5919C44.3583 96.175 45.5302 96.6717 45.9464 97.7008C46.3624 98.73 45.8649 99.902 44.8356 100.318C43.807 100.731 42.6369 100.236 42.2213 99.2059C41.8055 98.1786 42.3015 97.0083 43.3294 96.5919Z" fill="#BABABA"/>
<path d="M30.276 82.8475C31.2525 82.5259 32.3058 83.0506 32.6373 84.0238C32.9685 84.9971 32.4542 86.0557 31.4843 86.3968C30.5006 86.7425 29.4238 86.2193 29.0878 85.2323C28.7519 84.2452 29.2858 83.1736 30.276 82.8475Z" fill="#BABABA"/>
<path d="M56.558 82.8722C57.1615 82.5709 57.8813 82.6227 58.4357 83.0069C58.9899 83.3914 59.2906 84.0475 59.2198 84.7184C59.1492 85.3891 58.7184 85.968 58.0961 86.2284C57.1773 86.6131 56.1189 86.1998 55.7039 85.2943C55.289 84.3886 55.6669 83.3171 56.558 82.8722Z" fill="#BABABA"/>
<path d="M43.6559 70.252C44.8918 70.5521 45.5956 70.8211 45.6052 72.2277C45.2291 73.0611 45.0171 73.1572 44.2956 73.7746C41.0008 73.8207 41.3511 71.2835 43.6559 70.252Z" fill="#BABABA"/>
<path d="M235.925 33.897C236.476 33.5686 237.162 33.5641 237.716 33.8851C238.404 34.2843 238.742 35.0958 238.537 35.866C238.333 36.6359 237.639 37.1741 236.842 37.1792C236.046 37.1846 235.344 36.6556 235.131 35.8883C234.916 35.121 235.241 34.3052 235.925 33.897Z" fill="#BABABA"/>
<path d="M20.1649 64.8818C21.4507 65.021 22.678 64.9254 23.0768 66.3227C22.9456 67.143 22.8741 67.187 22.3787 67.8875C19.6801 68.966 19.1015 66.9436 20.1649 64.8818Z" fill="#BABABA"/>
<path d="M222.395 52.3945C225.001 52.6592 225.147 54.0356 223.965 56.0953C221.271 55.8334 220.784 54.4886 222.395 52.3945Z" fill="#BABABA"/>
<path d="M236.494 37.8035C237.094 37.676 237.714 37.8844 238.118 38.3474C238.519 38.8105 238.636 39.4554 238.425 40.0309C238.214 40.6063 237.706 41.0217 237.102 41.1153C236.199 41.2543 235.352 40.6514 235.188 39.7547C235.024 38.858 235.602 37.9933 236.494 37.8035Z" fill="#BABABA"/>
<path d="M228.727 60.3009C229.6 60.0546 230.509 60.5568 230.764 61.4264C231.018 62.2963 230.527 63.2093 229.659 63.4738C229.09 63.6474 228.472 63.5019 228.04 63.0929C227.608 62.6838 227.43 62.0744 227.571 61.4966C227.714 60.9191 228.156 60.4624 228.727 60.3009Z" fill="#BABABA"/>
<path d="M222.188 67.7326C222.698 67.3887 223.357 67.3637 223.892 67.6678C224.424 67.972 224.739 68.5526 224.702 69.1657C224.666 69.7788 224.285 70.3181 223.718 70.5566C222.954 70.8792 222.068 70.5684 221.672 69.8384C221.277 69.1086 221.501 68.1976 222.188 67.7326Z" fill="#BABABA"/>
<path d="M215.797 60.3996C216.616 60.2727 217.388 60.8195 217.542 61.6341C217.693 62.4489 217.169 63.2369 216.36 63.4137C215.814 63.5331 215.247 63.3458 214.878 62.9247C214.51 62.5036 214.401 61.9156 214.592 61.3901C214.784 60.8648 215.245 60.4852 215.797 60.3996Z" fill="#BABABA"/>
</g>
</svg>
