<svg preserveAspectRatio="none" width="100%" height="100%" overflow="visible" style="display: block;" viewBox="0 0 40 40" fill="none" xmlns="http://www.w3.org/2000/svg">
<g id="Frame" clip-path="url(#clip0_0_5)">
<g id="Vector">
</g>
<path id="Vector_2" d="M15 35V25C15 24.1159 15.3512 23.2681 15.9763 22.643C16.6014 22.0179 17.4493 21.6667 18.3333 21.6667H20.5683" stroke="var(--stroke-0, white)" stroke-width="2.5" stroke-linecap="round" stroke-linejoin="round"/>
<path id="Vector_3" d="M32.8033 17.8033L20 5L5 20H8.33333V31.6667C8.33333 32.5507 8.68452 33.3986 9.30964 34.0237C9.93477 34.6488 10.7826 35 11.6667 35H20" stroke="var(--stroke-0, white)" stroke-width="2.5" stroke-linecap="round" stroke-linejoin="round"/>
<path id="Vector_4" d="M36.6667 26.6667C36.6667 33.3333 32.5 36.6667 30.8333 36.6667C29.1667 36.6667 25 33.3333 25 26.6667C26.6667 26.6667 29.1667 25.8333 30.8333 24.1667C32.5 25.8333 35 26.6667 36.6667 26.6667Z" stroke="var(--stroke-0, #FF9A6D)" stroke-width="2.5" stroke-linecap="round" stroke-linejoin="round"/>
</g>
<defs>
<clipPath id="clip0_0_5">
<rect width="40" height="40" fill="white"/>
</clipPath>
</defs>
</svg>
