<svg width="244" height="321" viewBox="0 0 244 321" fill="none" xmlns="http://www.w3.org/2000/svg">
<g clip-path="url(#clip0)">
<rect x="0" width="244" height="321" fill="#202020"/>
<circle cx="11" cy="3" r="7" fill="#131313"/>
<circle cx="31" cy="3" r="7" fill="#131313"/>
<circle cx="51" cy="3" r="7" fill="#131313"/>
<circle cx="71" cy="3" r="7" fill="#131313"/>
<circle cx="91" cy="3" r="7" fill="#131313"/>
<circle cx="111" cy="3" r="7" fill="#131313"/>
<circle cx="131" cy="3" r="7" fill="#131313"/>
<circle cx="151" cy="3" r="7" fill="#131313"/>
<circle cx="171" cy="3" r="7" fill="#131313"/>
<circle cx="191" cy="3" r="7" fill="#131313"/>
<circle cx="211" cy="3" r="7" fill="#131313"/>
<circle cx="231" cy="3" r="7" fill="#131313"/>
<circle cx="251" cy="3" r="7" fill="#131313"/>
<circle cx="271" cy="3" r="7" fill="#131313"/>
<path d="M13.9792 18.0511C12.4851 12.9575 10.8048 7.88088 9.4875 2.73845C8.45925 -1.27562 13.2241 -5.32662 16.9797 -2.88039C18.0915 -2.15606 18.5779 -1.02977 18.9484 0.175388C19.6147 2.34299 20.2255 4.52926 20.8638 6.70522C22.3382 11.7318 23.9819 16.7397 25.2948 21.8111C26.562 26.7062 19.3074 28.4957 17.5919 23.9141C15.7996 19.1273 18.5182 27.2483 17.0789 22.3414C16.8592 21.5924 18.0228 21.2497 18.2429 22C19.4152 25.9963 16.7486 16.7293 17.9208 20.7255C18.2419 21.8202 18.4265 23.22 19.0472 24.21C20.6477 26.7631 24.8435 25.065 24.1308 22.1526C23.1668 18.2135 21.836 14.3296 20.6948 10.4389C19.6834 6.99094 18.8872 3.37249 17.6335 0.00269281C16.4662 -3.13483 11.7743 -2.92096 10.6589 0.259642C10.3043 1.2708 10.4979 1.87331 10.7717 2.80658C12.0251 7.07963 13.2785 11.3528 14.532 15.6259C15.7854 19.899 17.0389 24.1723 18.2923 28.4453C18.8227 30.2536 19.4422 32.2392 21.2896 33.0996C23.3893 34.0775 26.3092 33.0269 27.448 31.079C29.0635 28.3154 26.7095 23.464 25.9186 20.7677C24.6399 16.4082 23.3611 12.0488 22.0824 7.68937C21.8627 6.94033 23.0263 6.59773 23.2464 7.34793C24.647 12.1229 26.0477 16.8979 27.4484 21.673C28.3059 24.5964 30.1682 28.5016 28.6166 31.4797C27.6247 33.3832 25.3626 34.6158 23.2365 34.6817C20.4945 34.7667 18.5516 32.8754 17.6319 30.4212C16.1334 26.423 15.1798 22.1444 13.9792 18.0511Z" fill="#4D4D4D"/>
<g>
<path d="M214.501 63L194.001 83.5" stroke="#4D4D4D" stroke-width="0.301471"/>
<path d="M214.501 77.5L194.001 98" stroke="#4D4D4D" stroke-width="0.301471"/>
</g>
<g>
<path d="M64.5 28L44 48.5" stroke="#4D4D4D" stroke-width="0.301471"/>
<path d="M64.5 42.5L44 63" stroke="#4D4D4D" stroke-width="0.301471"/>
</g>
</g>
<defs>
<clipPath id="clip0">
<rect width="244" height="321" fill="white"/>
</clipPath>
</defs>
</svg>
