<svg preserveAspectRatio="none" width="100%" height="100%" overflow="visible" style="display: block;" viewBox="0 0 67.5422 64.0001" fill="none" xmlns="http://www.w3.org/2000/svg">
<g id="Group 48095693" opacity="0.48">
<path id="Vector" d="M48.9922 15.1829L49.7246 15.1908L49.696 15.2777C50.4223 15.4365 50.5288 16.3635 49.6243 16.5695L49.6254 16.6356C50.0524 16.6861 50.3074 16.9181 50.1713 17.3744C50.0973 17.6237 49.9213 17.8301 49.6865 17.9427C49.2292 18.1573 48.7064 17.924 48.5657 17.4318C48.5186 17.2632 48.5433 17.0827 48.6341 16.9329C48.768 16.708 48.9501 16.6562 49.19 16.6113C48.5674 16.2028 48.3393 15.8941 48.9507 15.3072L48.9922 15.1829Z" fill="var(--fill-0, #BABABA)"/>
<path id="Vector_2" d="M48.9922 15.1829L49.7246 15.1908L49.696 15.2777C49.5055 15.307 49.1552 15.3033 48.9507 15.3072L48.9922 15.1829Z" fill="var(--fill-0, #BABABA)"/>
<path id="Vector_3" d="M33.5301 4.54899C33.7902 4.56014 34.1847 4.6228 34.3595 4.80863C34.7653 5.24114 34.0704 5.81516 34.0698 6.11537C34.0698 6.18211 34.3847 6.45957 34.3562 6.7999C34.2037 7.11137 33.9947 7.19639 33.6781 7.31614C32.9893 7.29081 32.2496 6.64904 33.1194 6.08679C33.4987 5.8415 32.0383 5.21895 33.5301 4.54899Z" fill="var(--fill-0, #BABABA)"/>
<path id="Vector_4" d="M4.85258 19.4584C4.97071 19.4516 5.21376 19.4264 5.31598 19.4641C5.83665 19.6562 6.00415 20.2695 5.80509 20.751C5.65776 21.1073 5.43035 21.1843 5.1116 21.33C4.7461 21.3482 4.37237 21.2451 4.2214 20.8977C3.89883 20.1551 4.28495 19.7546 4.85258 19.4584Z" fill="var(--fill-0, #BABABA)"/>
<path id="Vector_5" d="M25.2824 16.2134C25.7864 16.2054 26.1858 16.2565 26.3796 16.7782C26.6046 17.3837 26.3126 17.778 25.7662 17.9577C24.4799 18.088 24.1375 16.6268 25.2824 16.2134Z" fill="var(--fill-0, #BABABA)"/>
<path id="Vector_6" d="M25.128 18.162C25.7717 18.1528 26.5453 18.3316 26.3964 19.2542C26.3518 19.5308 26.0659 19.7705 25.8245 19.9082C24.5051 20.0556 24.1479 18.8189 25.128 18.162Z" fill="var(--fill-0, #BABABA)"/>
<path id="Vector_7" d="M6.51692 10.2593C7.72403 10.5797 8.14959 11.7608 6.86409 12.1732C6.2166 12.0846 6.01586 11.8341 5.71302 11.2864C5.9355 10.8021 6.04489 10.4963 6.51692 10.2593Z" fill="var(--fill-0, #BABABA)"/>
<path id="Vector_8" d="M23.4828 10.8499C23.9715 10.7542 24.4443 11.0754 24.5355 11.565C24.6266 12.0545 24.3011 12.5244 23.8107 12.6109C23.3267 12.6964 22.8643 12.376 22.7743 11.8928C22.6844 11.4097 23.0005 10.9443 23.4828 10.8499Z" fill="var(--fill-0, #BABABA)"/>
<path id="Vector_9" d="M61.803 33.3589C62.1185 33.2918 62.4457 33.4003 62.6587 33.6425C62.8716 33.8846 62.9378 34.2229 62.8313 34.5275C62.7248 34.8319 62.462 35.0552 62.1448 35.1117C61.6645 35.1969 61.205 34.8816 61.112 34.4033C61.0184 33.9249 61.3261 33.4601 61.803 33.3589Z" fill="var(--fill-0, #BABABA)"/>
<path id="Vector_10" d="M58.2943 19.4406C58.746 19.2451 59.2705 19.4535 59.465 19.9057C59.6594 20.358 59.4498 20.8822 58.997 21.0756C58.5459 21.2684 58.0236 21.0596 57.8303 20.6089C57.6364 20.1581 57.8437 19.6355 58.2943 19.4406Z" fill="var(--fill-0, #BABABA)"/>
<path id="Vector_11" d="M24.523 12.5033C25.251 12.5331 25.6537 13.0996 25.3535 13.7929C25.199 14.1498 24.9244 14.2208 24.5905 14.3566C23.4054 14.1232 23.4011 13.0296 24.523 12.5033Z" fill="var(--fill-0, #BABABA)"/>
<path id="Vector_12" d="M0.779411 32.5125C1.26085 32.4152 1.72929 32.7291 1.82237 33.2114C1.91546 33.6936 1.59748 34.1593 1.11436 34.2482C0.637236 34.336 0.178492 34.0228 0.0865858 33.5464C-0.00537606 33.07 0.303854 32.6086 0.779411 32.5125Z" fill="var(--fill-0, #BABABA)"/>
<path id="Vector_13" d="M4.5429 17.5628C4.96039 17.5324 5.37957 17.5576 5.5366 17.9947C5.79119 18.7036 5.37307 19.0568 4.8171 19.2682C3.74471 19.3731 3.37138 18.0073 4.5429 17.5628Z" fill="var(--fill-0, #BABABA)"/>
<path id="Vector_14" d="M7.8746 8.79688C8.93752 9.00562 9.14296 10.3918 7.98265 10.7088C6.67075 10.3522 6.76355 9.40805 7.8746 8.79688Z" fill="var(--fill-0, #BABABA)"/>
<path id="Vector_15" d="M5.42077 11.9896C6.54146 12.0131 7.04672 13.2049 5.95416 13.8071C4.71932 13.5842 4.27346 12.7932 5.42077 11.9896Z" fill="var(--fill-0, #BABABA)"/>
<path id="Vector_16" d="M4.59385 13.8575C5.98824 13.7636 6.28794 15.0237 5.29894 15.5519C4.90206 15.5384 4.57821 15.563 4.28943 15.2455C3.84425 14.7561 4.16396 14.2057 4.59385 13.8575Z" fill="var(--fill-0, #BABABA)"/>
<path id="Vector_17" d="M61.5984 52.4086C62.1863 52.3705 62.9742 52.4675 62.8621 53.3764C62.8296 53.6359 62.5337 53.8971 62.3084 54.0316C61.8977 54.1151 61.5463 54.1122 61.2611 53.7542C61.1086 53.5636 61.0481 53.3154 61.0957 53.0761C61.1619 52.7303 61.3193 52.5857 61.5984 52.4086Z" fill="var(--fill-0, #BABABA)"/>
<path id="Vector_18" d="M25.3413 14.3016C25.4405 14.3112 25.4936 14.3248 25.5852 14.362C25.8186 14.4569 26.0007 14.6466 26.0859 14.8837C26.3138 15.536 25.8244 15.9538 25.2511 16.1128C25.1369 16.1042 24.9441 16.0809 24.8555 16.0145C23.9057 15.3024 24.4787 14.553 25.3413 14.3016Z" fill="var(--fill-0, #BABABA)"/>
<path id="Vector_19" d="M0.623631 34.4823C0.922045 34.3686 1.25879 34.4261 1.50251 34.6325C1.74628 34.8389 1.85859 35.1614 1.7956 35.4746C1.73261 35.7877 1.50441 36.0418 1.19984 36.138C0.747479 36.2807 0.263628 36.0379 0.107724 35.5899C-0.0481795 35.142 0.180354 34.6512 0.623631 34.4823Z" fill="var(--fill-0, #BABABA)"/>
<path id="Vector_20" d="M61.59 35.2694C62.072 35.2323 62.4721 35.2088 62.7769 35.6515C63.1154 36.1429 62.7612 36.5926 62.355 36.8614C61.1546 37.1444 60.6211 35.8845 61.59 35.2694Z" fill="var(--fill-0, #BABABA)"/>
<path id="Vector_21" d="M4.32821 15.7557C4.54161 15.7424 4.91378 15.7091 5.11048 15.7933C5.78498 16.0819 5.87257 16.9999 5.16517 17.309C3.86095 17.5542 3.35849 16.5454 4.32821 15.7557Z" fill="var(--fill-0, #BABABA)"/>
<path id="Vector_22" d="M61.6656 29.6777C62.1134 29.5006 62.6206 29.7191 62.7993 30.1665C62.9787 30.614 62.7618 31.1219 62.3152 31.3026C61.8663 31.4844 61.3546 31.2664 61.1747 30.8164C60.9948 30.3664 61.2145 29.8559 61.6656 29.6777Z" fill="var(--fill-0, #BABABA)"/>
<path id="Vector_23" d="M24.7842 20.0723C26.17 19.9472 26.2348 21.2094 25.3092 21.8027C24.1097 21.9018 23.7628 20.729 24.7842 20.0723Z" fill="var(--fill-0, #BABABA)"/>
<path id="Vector_24" d="M44.9309 43.4945C45.0436 43.4967 45.1568 43.5018 45.2694 43.5102C46.3258 43.5858 46.4821 44.6562 45.6555 45.225C45.0044 45.2642 44.4098 45.0894 44.4585 44.2084C44.4731 43.94 44.7085 43.6525 44.9309 43.4945Z" fill="var(--fill-0, #BABABA)"/>
<path id="Vector_25" d="M61.5597 31.5613C62.1672 31.5136 62.9238 31.6525 62.8756 32.5323C62.8616 32.7944 62.5836 33.0292 62.3684 33.1713C61.1204 33.4126 60.6485 32.2707 61.5597 31.5613Z" fill="var(--fill-0, #BABABA)"/>
<path id="Vector_26" d="M5.5778 21.365C6.7403 21.2969 7.03989 22.5571 5.89717 23.0791C5.51195 23.1135 5.10174 23.0015 4.94684 22.634C4.64983 21.9292 5.0573 21.6102 5.5778 21.365Z" fill="var(--fill-0, #BABABA)"/>
<path id="Vector_27" d="M60.2321 62.2236C61.3064 62.417 61.4947 63.7614 60.2893 64.0001C59.8382 63.9508 59.5232 63.8135 59.41 63.3265C59.3534 63.0715 59.4033 62.8042 59.5496 62.5873C59.7255 62.3295 59.9458 62.2791 60.2321 62.2236Z" fill="var(--fill-0, #BABABA)"/>
<path id="Vector_28" d="M45.6522 41.6244C46.1184 41.5173 46.5841 41.8054 46.6951 42.2705C46.806 42.7356 46.5214 43.2036 46.0574 43.3185C45.5877 43.4345 45.1136 43.1459 45.001 42.6757C44.8889 42.2055 45.1809 41.7337 45.6522 41.6244Z" fill="var(--fill-0, #BABABA)"/>
<path id="Vector_29" d="M0.963234 30.6079C2.03472 30.6116 2.19937 31.9726 1.02947 32.3553C0.585073 32.2519 0.214593 32.1253 0.083907 31.6317C0.0338071 31.4486 0.0604267 31.253 0.157656 31.09C0.345503 30.7704 0.629571 30.6838 0.963234 30.6079Z" fill="var(--fill-0, #BABABA)"/>
<path id="Vector_30" d="M14.3135 11.304C14.7606 11.1281 15.2656 11.3476 15.4421 11.7945C15.6185 12.2413 15.3996 12.7467 14.953 12.9236C14.5056 13.1009 13.9992 12.8816 13.8224 12.434C13.6457 11.9864 13.8656 11.4803 14.3135 11.304Z" fill="var(--fill-0, #BABABA)"/>
<path id="Vector_31" d="M51.3941 38.4032C51.4916 38.3948 51.9786 38.3611 52.0486 38.3897C52.9901 38.7719 52.8612 39.4775 52.1551 39.9645C50.9743 40.2144 50.3769 39.0202 51.3941 38.4032Z" fill="var(--fill-0, #BABABA)"/>
<path id="Vector_32" d="M61.7889 27.8035C62.096 27.7327 62.4172 27.8334 62.629 28.0668C62.8403 28.3002 62.9092 28.6297 62.8089 28.9284C62.708 29.227 62.4541 29.4478 62.1442 29.5058C61.6791 29.5929 61.2302 29.292 61.1333 28.8288C61.0363 28.3656 61.3277 27.91 61.7889 27.8035Z" fill="var(--fill-0, #BABABA)"/>
<path id="Vector_33" d="M0.592249 56.0373C0.699734 56.0434 1.1406 56.0614 1.22438 56.1006C2.03932 56.4834 2.08365 57.2561 1.28014 57.654C0.000578562 57.9 -0.40521 56.7047 0.592249 56.0373Z" fill="var(--fill-0, #BABABA)"/>
<path id="Vector_34" d="M53.2383 38.3976C53.7365 38.3696 54.1792 38.3107 54.5026 38.7742C54.8299 39.2427 54.4482 39.7319 54.0543 39.9785C53.7102 40.0698 53.3487 40.0367 53.0792 39.7874C52.9043 39.6226 52.8085 39.3912 52.8169 39.1513C52.8276 38.7691 52.9727 38.6385 53.2383 38.3976Z" fill="var(--fill-0, #BABABA)"/>
<path id="Vector_35" d="M0.581535 36.3199C1.0604 36.2875 1.45839 36.3083 1.72302 36.7543C2.03247 37.2757 1.70744 37.6803 1.26483 37.9235C0.803565 37.9683 0.44345 37.9885 0.165659 37.5632C-0.178932 37.0358 0.14061 36.5991 0.581535 36.3199Z" fill="var(--fill-0, #BABABA)"/>
<path id="Vector_36" d="M12.5895 14.2033C13.0519 14.1222 13.4949 14.4234 13.5895 14.8832C13.6842 15.343 13.396 15.7947 12.9391 15.9027C12.6315 15.9754 12.3086 15.8751 12.0964 15.6409C11.8841 15.4067 11.816 15.0755 11.9186 14.7765C12.0211 14.4775 12.2781 14.2579 12.5895 14.2033Z" fill="var(--fill-0, #BABABA)"/>
<path id="Vector_37" d="M12.4585 11.2754C13.7557 11.1847 14.0595 12.4126 13.0304 12.9552C11.9889 13.2345 11.4381 11.981 12.4585 11.2754Z" fill="var(--fill-0, #BABABA)"/>
<path id="Vector_38" d="M56.3279 62.2712C56.4198 62.2667 56.7784 62.251 56.8529 62.2751C57.7266 62.5632 57.684 63.4985 57.0043 63.9339C56.5868 64.0269 56.241 64.0219 55.9675 63.6391C55.8207 63.4363 55.7658 63.1813 55.8173 62.9364C55.8891 62.58 56.0364 62.4522 56.3279 62.2712Z" fill="var(--fill-0, #BABABA)"/>
<path id="Vector_39" d="M0.570554 50.6624C0.741869 50.6725 0.91296 50.6865 1.08371 50.7045C1.8569 50.7902 2.19073 51.7412 1.25677 52.277C0.770954 52.3095 0.412354 52.3251 0.124307 51.8645C-0.193552 51.3557 0.150477 50.9264 0.570554 50.6624Z" fill="var(--fill-0, #BABABA)"/>
<path id="Vector_40" d="M61.7391 55.9935C62.9484 55.942 63.2566 57.2191 62.2468 57.6647C61.6545 57.6972 61.0021 57.6025 61.1053 56.7428C61.1462 56.4004 61.4516 56.1656 61.7391 55.9935Z" fill="var(--fill-0, #BABABA)"/>
<path id="Vector_41" d="M44.2276 19.6008C44.6866 19.4699 45.1652 19.7352 45.2969 20.1939C45.4291 20.6526 45.1652 21.1317 44.7068 21.2649C44.2467 21.3986 43.7653 21.1333 43.633 20.673C43.5002 20.2126 43.767 19.7322 44.2276 19.6008Z" fill="var(--fill-0, #BABABA)"/>
<path id="Vector_42" d="M11.5424 17.2951C12.0104 17.1851 12.4784 17.4776 12.5848 17.9464C12.6913 18.4152 12.3954 18.881 11.9257 18.9839C11.4611 19.0856 11.0014 18.7935 10.8961 18.3297C10.7908 17.8659 11.0794 17.4039 11.5424 17.2951Z" fill="var(--fill-0, #BABABA)"/>
<path id="Vector_43" d="M0.629565 54.253C1.95015 54.197 2.2749 55.4226 1.21647 55.8636C0.583331 55.909 -0.0591686 55.7353 0.0583477 54.8414C0.0932046 54.5764 0.394532 54.3724 0.629565 54.253Z" fill="var(--fill-0, #BABABA)"/>
<path id="Vector_44" d="M1.09521 48.9045C1.85584 48.9667 2.01331 49.7619 1.55255 50.2786C1.34218 50.5145 1.05189 50.5033 0.760815 50.5145C0.0585758 50.3901 -0.25738 49.6632 0.268165 49.1297C0.52651 48.868 0.753753 48.9089 1.09521 48.9045Z" fill="var(--fill-0, #BABABA)"/>
<path id="Vector_45" d="M24.1782 21.763C24.5669 21.8106 24.8991 21.8797 25.0649 22.273C25.1511 22.4729 25.1504 22.6995 25.063 22.8987C24.9093 23.2504 24.7015 23.3767 24.361 23.4982C24.1709 23.4932 24.0384 23.4913 23.8635 23.4089C23.6598 23.3108 23.504 23.1351 23.431 22.9212C23.3532 22.6913 23.3783 22.4391 23.5 22.2292C23.6673 21.9372 23.8743 21.8493 24.1782 21.763Z" fill="var(--fill-0, #BABABA)"/>
<path id="Vector_46" d="M0.736714 28.7668C1.20056 28.6417 1.67735 28.9192 1.79789 29.3842C1.91843 29.8493 1.63638 30.3233 1.17013 30.4392C0.710375 30.5536 0.244233 30.2763 0.125372 29.8176C0.00651062 29.359 0.279258 28.8902 0.736714 28.7668Z" fill="var(--fill-0, #BABABA)"/>
<path id="Vector_47" d="M57.1046 38.4065C57.6409 38.3398 58.0948 38.3527 58.3436 38.9064C58.5722 39.4141 58.2198 39.7834 57.8039 39.9851C57.4083 40.072 56.9919 39.9795 56.7565 39.6276C56.6327 39.4449 56.589 39.2196 56.6361 39.0044C56.7027 38.7041 56.8613 38.5651 57.1046 38.4065Z" fill="var(--fill-0, #BABABA)"/>
<path id="Vector_48" d="M10.9879 7.01702C12.0279 6.99561 12.2981 8.3464 11.0249 8.78828C10.6441 8.72377 10.3265 8.46778 10.1895 8.10274C10.1123 7.89416 10.1248 7.66293 10.2241 7.46388C10.3621 7.18166 10.7092 7.10029 10.9879 7.01702Z" fill="var(--fill-0, #BABABA)"/>
<path id="Vector_49" d="M0.521865 38.1695C0.639998 38.1633 1.07296 38.1465 1.16134 38.1835C2.03271 38.55 2.09811 39.2976 1.29466 39.7179C0.0612715 39.9656 -0.431658 38.8986 0.521865 38.1695Z" fill="var(--fill-0, #BABABA)"/>
<path id="Vector_50" d="M18.1116 14.2102C18.5794 14.1438 19.0135 14.4663 19.0849 14.9333C19.1564 15.4003 18.8386 15.8378 18.3724 15.9143C18.0662 15.9646 17.7568 15.8465 17.5619 15.6051C17.3671 15.3637 17.317 15.0362 17.4307 14.7476C17.5445 14.459 17.8045 14.2538 18.1116 14.2102Z" fill="var(--fill-0, #BABABA)"/>
<path id="Vector_51" d="M52.6931 62.2773C53.3045 62.2308 53.9943 62.3451 53.8962 63.2412C53.866 63.5175 53.6351 63.7736 53.3975 63.9237C53.2647 63.9512 53.1296 63.9652 52.9946 63.9641C52.1618 63.9607 51.9096 62.8898 52.6931 62.2773Z" fill="var(--fill-0, #BABABA)"/>
<path id="Vector_52" d="M14.4199 14.2048C14.8805 14.0888 15.3479 14.3677 15.4647 14.828C15.5815 15.2883 15.3035 15.7562 14.8434 15.8739C14.3821 15.9918 13.9127 15.7129 13.7956 15.2514C13.6785 14.7899 13.9582 14.3211 14.4199 14.2048Z" fill="var(--fill-0, #BABABA)"/>
<path id="Vector_53" d="M0.618633 52.4721C1.87365 52.388 2.30813 53.5166 1.18963 54.0619C-0.0943103 54.2121 -0.382076 52.8711 0.618633 52.4721Z" fill="var(--fill-0, #BABABA)"/>
<path id="Vector_54" d="M0.652888 45.2809C1.11948 45.3241 1.51708 45.3235 1.75593 45.7976C2.03215 46.3457 1.61089 46.6847 1.19065 46.9027C1.0659 46.9106 0.743337 46.9375 0.637421 46.8859C-0.209402 46.474 -0.172192 45.6463 0.652888 45.2809Z" fill="var(--fill-0, #BABABA)"/>
<path id="Vector_55" d="M10.6456 11.3081C10.9421 11.2095 11.2688 11.2795 11.4988 11.491C11.7289 11.7025 11.8261 12.0221 11.7528 12.3258C11.6795 12.6296 11.4471 12.8697 11.146 12.9529C10.6965 13.0771 10.2299 12.8205 10.0942 12.3743C9.95846 11.9282 10.2031 11.4552 10.6456 11.3081Z" fill="var(--fill-0, #BABABA)"/>
<path id="Vector_56" d="M0.563872 59.6945C1.13918 59.672 1.50664 59.6989 1.81519 60.2683C2.03565 60.6757 1.73595 61.1156 1.35398 61.2737C0.95307 61.3706 0.629494 61.4048 0.318359 61.0674C0.169964 60.9088 0.0953194 60.6953 0.11286 60.479C0.139647 60.1092 0.300315 59.9225 0.563872 59.6945Z" fill="var(--fill-0, #BABABA)"/>
<path id="Vector_57" d="M45.581 62.2723C46.9781 62.1748 47.0285 63.559 46.198 63.9356C45.0133 64.1777 44.6306 62.8462 45.581 62.2723Z" fill="var(--fill-0, #BABABA)"/>
<path id="Vector_58" d="M0.572962 57.8956C1.21434 57.8681 1.95054 58.0732 1.81403 58.9956C1.77738 59.2433 1.53741 59.4053 1.31258 59.5095C0.89609 59.5387 0.555814 59.574 0.262836 59.2142C-0.140765 58.7182 0.153165 58.2262 0.572962 57.8956Z" fill="var(--fill-0, #BABABA)"/>
<path id="Vector_59" d="M58.0729 21.2897C59.2587 21.238 59.688 22.4124 58.7017 23.0202C58.2427 22.9721 57.8701 22.9256 57.6162 22.4912C57.3254 21.9929 57.6481 21.556 58.0729 21.2897Z" fill="var(--fill-0, #BABABA)"/>
<path id="Vector_60" d="M22.3948 9.36475C23.4415 9.47419 23.7474 10.5315 22.6232 11.1509C21.4478 11.1407 21.2188 10.0049 22.3948 9.36475Z" fill="var(--fill-0, #BABABA)"/>
<path id="Vector_61" d="M43.7171 62.2763C44.3352 62.2314 45.0038 62.3553 44.9175 63.2474C44.8895 63.5355 44.6726 63.7765 44.4266 63.9339C43.303 64.1917 42.8222 63.0154 43.7171 62.2763Z" fill="var(--fill-0, #BABABA)"/>
<path id="Vector_62" d="M61.6533 54.2524C62.2193 54.235 62.8929 54.3331 62.8324 55.1631C62.8105 55.459 62.5399 55.7055 62.2939 55.8619C61.8276 55.8921 61.474 55.9347 61.1949 55.4887C60.8721 54.9725 61.2179 54.5231 61.6533 54.2524Z" fill="var(--fill-0, #BABABA)"/>
<path id="Vector_63" d="M39.0176 12.4032C40.3855 12.2848 40.4634 13.3661 39.4861 14.0878C38.4936 14.2788 37.9377 13.1634 39.0176 12.4032Z" fill="var(--fill-0, #BABABA)"/>
<path id="Vector_64" d="M64.3433 33.1074C64.4811 33.1024 64.6033 33.0934 64.7406 33.1032L64.8263 33.2336C65.1687 33.38 65.4119 33.7572 65.3391 34.1341C65.2024 34.84 64.0827 35.204 63.7397 34.4539C63.4859 33.8984 63.6854 33.4537 64.2413 33.2297L64.3433 33.1074Z" fill="var(--fill-0, #BABABA)"/>
<path id="Vector_65" d="M64.3433 33.1074C64.4811 33.1024 64.6033 33.0934 64.7406 33.1032L64.8263 33.2336L64.2413 33.2297L64.3433 33.1074Z" fill="var(--fill-0, #BABABA)"/>
<path id="Vector_66" d="M49.0426 18.1128C49.5033 18.085 50.3932 18.0076 50.3719 18.858C50.3641 19.1761 50.0385 19.4912 49.7846 19.6769C49.4528 19.7447 49.0454 19.7236 48.8241 19.4529C48.3729 18.9017 48.6206 18.4912 49.0426 18.1128Z" fill="var(--fill-0, #BABABA)"/>
<path id="Vector_67" d="M0.443052 41.7565C0.9561 41.7408 1.83901 41.7386 1.82837 42.6117C1.82512 42.8779 1.523 43.1418 1.31111 43.2948C0.122446 43.4887 -0.426075 42.5797 0.443052 41.7565Z" fill="var(--fill-0, #BABABA)"/>
<path id="Vector_68" d="M0.706275 47.0837C1.91097 47.0204 2.2759 48.1804 1.16592 48.6814C0.656455 48.7291 0.233633 48.6215 0.0643352 48.0728C0.0078467 47.8879 0.0279656 47.6878 0.120208 47.5175C0.264119 47.2518 0.434424 47.17 0.706275 47.0837Z" fill="var(--fill-0, #BABABA)"/>
<path id="Vector_69" d="M58.9477 38.4066C59.4274 38.3808 59.7911 38.3085 60.1341 38.726C60.5034 39.1754 60.1386 39.7252 59.7289 39.9886C58.6148 40.187 58.0808 39.148 58.9477 38.4066Z" fill="var(--fill-0, #BABABA)"/>
<path id="Vector_70" d="M29.4423 62.2751C30.0272 62.2532 30.6592 62.3323 30.5941 63.2132C30.5736 63.4906 30.3274 63.7758 30.0887 63.9288C28.9294 64.1782 28.479 62.8686 29.4423 62.2751Z" fill="var(--fill-0, #BABABA)"/>
<path id="Vector_71" d="M40.1894 62.2729C40.8316 62.2404 41.4161 62.4337 41.3175 63.3046C41.2867 63.5747 41.0468 63.8028 40.8069 63.9345C39.6144 64.1766 39.2417 62.8512 40.1894 62.2729Z" fill="var(--fill-0, #BABABA)"/>
<path id="Vector_72" d="M33.0375 62.2723C33.6652 62.2432 34.2743 62.4079 34.1583 63.2844C34.1208 63.568 33.8742 63.8005 33.6237 63.9406C32.5399 64.1821 32.0288 62.8854 33.0375 62.2723Z" fill="var(--fill-0, #BABABA)"/>
<path id="Vector_73" d="M16.9344 62.2746C18.2958 62.1933 18.383 63.5136 17.522 63.9474C17.0618 63.9877 16.7134 63.9793 16.4858 63.5243C16.222 62.9969 16.4791 62.5419 16.9344 62.2746Z" fill="var(--fill-0, #BABABA)"/>
<path id="Vector_74" d="M53.3392 10.1458C54.0621 10.1494 54.2908 10.5136 54.7094 11.0427C54.5043 11.4331 54.4046 11.5923 54.0666 11.8725C53.3835 11.9981 53.1767 11.7521 52.7889 11.2409C52.9262 10.8912 53.0842 10.398 53.3392 10.1458Z" fill="var(--fill-0, #BABABA)"/>
<path id="Vector_75" d="M24.0629 62.2712C24.6659 62.2482 25.3107 62.3973 25.2287 63.2452C25.2021 63.5198 24.982 63.772 24.7502 63.9255C23.4807 64.111 23.1508 62.8406 24.0629 62.2712Z" fill="var(--fill-0, #BABABA)"/>
<path id="Vector_76" d="M27.6349 62.2701C27.7311 62.2668 28.0806 62.2544 28.1601 62.2797C29.0243 62.5548 28.958 63.5187 28.2912 63.9373C27.8532 63.9816 27.525 63.9917 27.2647 63.5809C26.9264 63.0474 27.1627 62.5767 27.6349 62.2701Z" fill="var(--fill-0, #BABABA)"/>
<path id="Vector_77" d="M61.6701 59.7046C62.1134 59.5404 62.6055 59.7674 62.7685 60.2107C62.9322 60.654 62.7041 61.146 62.2603 61.3079C61.8181 61.4693 61.3283 61.2424 61.1658 60.8008C61.0033 60.3586 61.2286 59.8683 61.6701 59.7046Z" fill="var(--fill-0, #BABABA)"/>
<path id="Vector_78" d="M37.0069 15.5273C38.2868 15.5121 38.5513 16.6877 37.5432 17.2516C36.4044 17.3538 36.0766 16.2696 37.0069 15.5273Z" fill="var(--fill-0, #BABABA)"/>
<path id="Vector_79" d="M20.4826 62.2723C21.8027 62.1669 22.02 63.3735 21.1725 63.9221C19.9386 64.1793 19.5931 62.84 20.4826 62.2723Z" fill="var(--fill-0, #BABABA)"/>
<path id="Vector_80" d="M43.4414 16.5024C43.8914 16.3752 44.3599 16.6341 44.4921 17.0829C44.6244 17.5316 44.3705 18.003 43.9233 18.14C43.6297 18.2299 43.3103 18.1551 43.0872 17.944C42.8636 17.733 42.7712 17.4184 42.8446 17.1201C42.918 16.8218 43.1455 16.5859 43.4414 16.5024Z" fill="var(--fill-0, #BABABA)"/>
<path id="Vector_81" d="M0.531944 39.9649C0.664647 39.9599 1.08545 39.9414 1.18521 39.9862C2.04677 40.3695 2.06604 41.06 1.27039 41.4915C0.0615991 41.7117 -0.43318 40.6094 0.531944 39.9649Z" fill="var(--fill-0, #BABABA)"/>
<path id="Vector_82" d="M58.18 62.2706C59.4952 62.2073 59.651 63.5136 58.7247 63.9429C57.6392 64.1732 57.1684 62.8075 58.18 62.2706Z" fill="var(--fill-0, #BABABA)"/>
<path id="Vector_83" d="M41.9227 62.2774C42.0331 62.2723 42.4147 62.2505 42.4977 62.2813C43.3635 62.6018 43.2934 63.4738 42.607 63.9216C41.397 64.1485 41.0804 62.9229 41.9227 62.2774Z" fill="var(--fill-0, #BABABA)"/>
<path id="Vector_84" d="M0.479885 43.5544C0.604406 43.5465 0.729094 43.5404 0.853839 43.5359C1.73143 43.5101 2.23646 44.3608 1.39911 45.0417C0.196657 45.3706 -0.442593 44.367 0.479885 43.5544Z" fill="var(--fill-0, #BABABA)"/>
<path id="Vector_85" d="M45.3428 16.4977C45.6387 16.4139 45.9565 16.4963 46.175 16.7131C46.393 16.9299 46.4771 17.2475 46.3953 17.5439C46.3135 17.8404 46.0781 18.0696 45.7794 18.1437C45.3283 18.2557 44.8704 17.985 44.7516 17.5356C44.6322 17.0862 44.8951 16.6242 45.3428 16.4977Z" fill="var(--fill-0, #BABABA)"/>
<path id="Vector_86" d="M55.2659 38.3969C55.7047 38.379 56.1054 38.3599 56.3637 38.7752C56.6983 39.3143 56.3144 39.7475 55.8745 40.0109C54.7985 40.1134 54.2426 39.0705 55.2659 38.3969Z" fill="var(--fill-0, #BABABA)"/>
<path id="Vector_87" d="M60.7998 38.4049C60.9091 38.3976 61.3266 38.3606 61.4135 38.3847C62.3673 38.6475 62.3247 39.4326 61.6623 39.9437C60.6037 40.3287 59.9648 39.1861 60.7998 38.4049Z" fill="var(--fill-0, #BABABA)"/>
<path id="Vector_88" d="M62.9036 38.3398C63.3648 38.2361 63.8221 38.5281 63.9224 38.9898C64.0227 39.4516 63.7274 39.9066 63.265 40.003C62.8072 40.0989 62.3583 39.8074 62.2591 39.3507C62.1599 38.894 62.4474 38.4429 62.9036 38.3398Z" fill="var(--fill-0, #BABABA)"/>
<path id="Vector_89" d="M13.3504 62.2779C13.8569 62.2476 14.2005 62.2835 14.4174 62.8192C14.502 63.0243 14.4983 63.2552 14.4072 63.4575C14.2812 63.7445 14.1786 63.8268 13.9077 63.9412C12.8306 64.1709 12.3532 62.8814 13.3504 62.2779Z" fill="var(--fill-0, #BABABA)"/>
<path id="Vector_90" d="M49.1737 62.2723C49.7924 62.2504 50.3775 62.3899 50.2845 63.2474C50.2525 63.5449 50.0452 63.7674 49.7997 63.9372C49.3335 63.9641 48.991 63.9815 48.7405 63.5248C48.4486 62.9912 48.7153 62.5469 49.1737 62.2723Z" fill="var(--fill-0, #BABABA)"/>
<path id="Vector_91" d="M22.2898 62.2722C22.4062 62.2678 22.7056 62.2504 22.7991 62.2778C23.671 62.5311 23.5976 63.4894 22.9578 63.9226C21.7079 64.1726 21.3962 62.8472 22.2898 62.2722Z" fill="var(--fill-0, #BABABA)"/>
<path id="Vector_92" d="M38.3927 62.2695C39.0344 62.2358 39.5892 62.4342 39.5119 63.2765C39.485 63.5651 39.2541 63.7831 39.0075 63.9327C38.5883 64.0073 38.3014 64.0039 38.029 63.62C37.8805 63.4138 37.8273 63.1538 37.8828 62.9061C37.959 62.5519 38.1013 62.4454 38.3927 62.2695Z" fill="var(--fill-0, #BABABA)"/>
<path id="Vector_93" d="M20.9172 8.17969C22.1877 8.36468 22.2124 9.39447 21.2142 10.0242C20.8471 9.96249 20.4843 9.80334 20.3253 9.44283C20.2365 9.24596 20.2329 9.02119 20.3155 8.82163C20.4101 8.59371 20.6707 8.27311 20.9172 8.17969Z" fill="var(--fill-0, #BABABA)"/>
<path id="Vector_94" d="M50.8925 62.2757C51.4697 62.2533 52.1231 62.3116 52.0895 63.1875C52.0789 63.471 51.8485 63.7384 51.6199 63.9087C50.4234 64.1928 50.0457 62.9605 50.8925 62.2757Z" fill="var(--fill-0, #BABABA)"/>
<path id="Vector_95" d="M6.17568 62.279C7.5225 62.177 7.6738 63.5046 6.803 63.9333C5.70074 64.1855 5.25365 62.9795 6.17568 62.279Z" fill="var(--fill-0, #BABABA)"/>
<path id="Vector_96" d="M36.6039 62.2728C37.2125 62.2476 37.7875 62.3922 37.7315 63.2165C37.7102 63.5281 37.4871 63.7568 37.235 63.9322C35.978 64.0863 35.6804 62.8483 36.6039 62.2728Z" fill="var(--fill-0, #BABABA)"/>
<path id="Vector_97" d="M47.4516 13.5392C47.91 13.5192 48.3012 13.8677 48.3337 14.3254C48.3668 14.783 48.0294 15.1837 47.5727 15.2293C47.2656 15.26 46.9663 15.1215 46.7909 14.8677C46.6155 14.6139 46.592 14.2849 46.7293 14.0087C46.8666 13.7325 47.1434 13.5527 47.4516 13.5392Z" fill="var(--fill-0, #BABABA)"/>
<path id="Vector_98" d="M45.196 45.4636C45.6376 45.4148 45.9907 45.4283 46.1986 45.8749C46.4749 46.4678 46.1515 46.8814 45.6387 47.1067C44.6429 47.2361 44.1139 46.0061 45.196 45.4636Z" fill="var(--fill-0, #BABABA)"/>
<path id="Vector_99" d="M17.9638 11.3095C18.2568 11.2214 18.5745 11.2981 18.7949 11.5103C19.0153 11.7225 19.1042 12.037 19.0274 12.3331C18.9506 12.6292 18.72 12.8609 18.4243 12.9391C17.9775 13.0573 17.5184 12.7955 17.3927 12.3507C17.2671 11.9059 17.5212 11.4425 17.9638 11.3095Z" fill="var(--fill-0, #BABABA)"/>
<path id="Vector_100" d="M18.726 62.2734C19.3752 62.2381 19.9365 62.4252 19.829 63.3034C19.7963 63.5707 19.5668 63.8066 19.326 63.9366C18.9031 63.9921 18.5634 64.0011 18.3349 63.5841C18.043 63.0523 18.2428 62.5636 18.726 62.2734Z" fill="var(--fill-0, #BABABA)"/>
<path id="Vector_101" d="M0.582367 26.9666C1.78336 26.893 2.28599 27.926 1.21041 28.5744C0.833427 28.6024 0.470679 28.5755 0.212334 28.2591C0.0804154 28.0961 0.0241506 27.8846 0.0576626 27.6776C0.118354 27.3173 0.306313 27.1697 0.582367 26.9666Z" fill="var(--fill-0, #BABABA)"/>
<path id="Vector_102" d="M54.5396 62.2757C55.8599 62.1916 56.0073 63.3965 55.1347 63.9249C53.9764 64.1597 53.6076 62.8478 54.5396 62.2757Z" fill="var(--fill-0, #BABABA)"/>
<path id="Vector_103" d="M61.7178 57.8967C61.8825 57.8905 62.1078 57.8849 62.2636 57.9353C62.4995 58.0138 62.6901 58.1892 62.7881 58.4173C62.9994 58.9172 62.6531 59.3066 62.221 59.5112C61.6488 59.5039 61.0021 59.3593 61.1187 58.5366C61.1607 58.2408 61.4645 58.0362 61.7178 57.8967Z" fill="var(--fill-0, #BABABA)"/>
<path id="Vector_104" d="M64.3433 33.1073C64.03 32.9631 63.7576 32.777 63.6534 32.4273C63.3687 31.4708 65.1261 30.9431 65.2959 32.0438C65.3789 32.5818 65.236 32.8632 64.7406 33.1031C64.6033 33.0934 64.4811 33.1023 64.3433 33.1073Z" fill="var(--fill-0, #BABABA)"/>
<path id="Vector_105" d="M17.5902 6.74491C18.1512 6.72009 18.82 6.78106 18.805 7.61287C18.7999 7.89094 18.5343 8.20997 18.3148 8.38157C18.202 8.41155 18.0858 8.42679 17.9691 8.4269C17.1215 8.42993 16.8576 7.36657 17.5902 6.74491Z" fill="var(--fill-0, #BABABA)"/>
<path id="Vector_106" d="M47.7436 19.271C48.0294 19.1677 48.3483 19.2259 48.5792 19.4234C48.8101 19.6208 48.9171 19.9271 48.8588 20.2252C48.8011 20.5234 48.5876 20.7675 48.2995 20.8643C47.8613 21.0118 47.3861 20.7791 47.2342 20.3426C47.0818 19.9061 47.3087 19.4283 47.7436 19.271Z" fill="var(--fill-0, #BABABA)"/>
<path id="Vector_107" d="M36.6858 17.4006C36.9861 17.3401 37.296 17.4471 37.4944 17.6803C37.6934 17.9135 37.7505 18.2362 37.6429 18.5233C37.5359 18.8103 37.2815 19.0167 36.9783 19.0624C36.5255 19.1306 36.1007 18.8252 36.0217 18.3742C35.9421 17.9232 36.2369 17.4911 36.6858 17.4006Z" fill="var(--fill-0, #BABABA)"/>
<path id="Vector_108" d="M2.51146 62.2701C3.09814 62.246 3.8298 62.3682 3.72579 63.2374C3.69239 63.5165 3.42502 63.7681 3.18495 63.9138C2.01102 64.1407 1.75295 62.7588 2.51146 62.2701Z" fill="var(--fill-0, #BABABA)"/>
<path id="Vector_109" d="M9.8215 62.2745C10.4794 62.2532 11.0177 62.4723 10.887 63.3174C10.8436 63.5982 10.6453 63.7825 10.4047 63.9299C9.13943 64.121 8.8896 62.8186 9.8215 62.2745Z" fill="var(--fill-0, #BABABA)"/>
<path id="Vector_110" d="M36.4605 19.3241C36.8987 19.1695 37.3796 19.3988 37.5348 19.8364C37.6906 20.2741 37.4625 20.7551 37.0254 20.9118C36.5866 21.0691 36.1035 20.8401 35.9472 20.4009C35.7908 19.9617 36.0211 19.4792 36.4605 19.3241Z" fill="var(--fill-0, #BABABA)"/>
<path id="Vector_111" d="M8.01751 62.2678C9.30811 62.2224 9.44289 63.5287 8.59164 63.9355C7.43833 64.1883 7.07867 62.8382 8.01751 62.2678Z" fill="var(--fill-0, #BABABA)"/>
<path id="Vector_112" d="M47.3698 62.2751C47.9857 62.2527 48.564 62.4068 48.4929 63.2497C48.4671 63.5551 48.2525 63.7714 47.9969 63.9356C46.7467 64.0914 46.5107 62.8064 47.3698 62.2751Z" fill="var(--fill-0, #BABABA)"/>
<path id="Vector_113" d="M61.3255 26.0913C61.7777 25.9926 62.2249 26.2778 62.3258 26.7294C62.4267 27.181 62.1437 27.6293 61.6926 27.7325C61.2381 27.8365 60.7858 27.5512 60.6844 27.0963C60.5824 26.6414 60.8704 26.1906 61.3255 26.0913Z" fill="var(--fill-0, #BABABA)"/>
<path id="Vector_114" d="M10.7397 14.2166C11.1976 14.1445 11.6273 14.4566 11.7005 14.9143C11.7736 15.372 11.4625 15.8025 11.005 15.8767C10.5459 15.9511 10.1136 15.6388 10.0403 15.1796C9.96693 14.7204 10.2803 14.2889 10.7397 14.2166Z" fill="var(--fill-0, #BABABA)"/>
<path id="Vector_115" d="M31.2874 62.2757C32.5365 62.1838 32.7091 63.3858 31.794 63.9434C30.5937 64.0897 30.3488 62.7133 31.2874 62.2757Z" fill="var(--fill-0, #BABABA)"/>
<path id="Vector_116" d="M34.8314 62.274C35.4478 62.2438 36.0071 62.3861 35.9314 63.2172C35.904 63.5254 35.6809 63.7574 35.4327 63.9356C34.206 64.1121 33.9482 62.7991 34.8314 62.274Z" fill="var(--fill-0, #BABABA)"/>
<path id="Vector_117" d="M43.4694 13.5497C43.9065 13.3919 44.3885 13.6186 44.5459 14.0558C44.7029 14.4931 44.4753 14.9748 44.0377 15.1312C43.6011 15.2872 43.1208 15.0603 42.9645 14.6241C42.8076 14.1879 43.0334 13.7071 43.4694 13.5497Z" fill="var(--fill-0, #BABABA)"/>
<path id="Vector_118" d="M15.2015 62.2696C16.5088 62.2292 16.5414 63.5983 15.6198 63.9603C14.5279 64.0999 14.2237 62.7734 15.2015 62.2696Z" fill="var(--fill-0, #BABABA)"/>
<path id="Vector_119" d="M47.135 16.5119C47.562 16.3257 48.0586 16.5229 48.2418 16.9511C48.4245 17.3793 48.2239 17.8746 47.7941 18.0546C47.3693 18.2327 46.88 18.0343 46.699 17.6105C46.5175 17.1867 46.7125 16.6961 47.135 16.5119Z" fill="var(--fill-0, #BABABA)"/>
<path id="Vector_120" d="M49.6193 38.3992C50.9424 38.3252 51.0931 39.6382 50.0441 40.0378C49.6484 40.0249 49.3004 39.8904 49.1026 39.5211C49.0017 39.3311 48.9838 39.1086 49.0521 38.9046C49.1491 38.6222 49.3727 38.5286 49.6193 38.3992Z" fill="var(--fill-0, #BABABA)"/>
<path id="Vector_121" d="M64.1662 29.711C64.652 29.6858 64.995 29.6738 65.255 30.1584C65.5257 30.6627 65.2158 31.0966 64.7624 31.3145C63.6321 31.3237 63.1832 30.359 64.1662 29.711Z" fill="var(--fill-0, #BABABA)"/>
<path id="Vector_122" d="M25.8466 62.2718C26.4558 62.2466 27.0674 62.394 26.9777 63.2475C26.9487 63.5243 26.7451 63.7636 26.5121 63.9205C25.3215 64.1637 25.0078 62.923 25.8466 62.2718Z" fill="var(--fill-0, #BABABA)"/>
<path id="Vector_123" d="M45.5732 13.5324C46.0327 13.5087 46.425 13.8611 46.4502 14.3205C46.476 14.78 46.1252 15.1736 45.6656 15.201C45.2039 15.2287 44.8071 14.8754 44.7819 14.4132C44.7561 13.9511 45.1108 13.5561 45.5732 13.5324Z" fill="var(--fill-0, #BABABA)"/>
<path id="Vector_124" d="M57.3321 14.1175C58.1603 14.1946 58.6064 15.4573 57.2833 15.8757C56.7268 15.7649 56.2819 15.3905 56.5217 14.7763C56.6719 14.3911 56.9796 14.2766 57.3321 14.1175Z" fill="var(--fill-0, #BABABA)"/>
<path id="Vector_125" d="M47.9851 38.9546C48.1056 38.9523 48.2256 38.9619 48.3432 38.9826C49.171 39.1339 49.2561 40.22 48.3567 40.7002C47.3816 40.6952 46.9344 39.617 47.9851 38.9546Z" fill="var(--fill-0, #BABABA)"/>
<path id="Vector_126" d="M50.1248 8.86768C50.4913 8.91139 50.7905 8.92175 51.0393 9.22841C51.4389 9.72077 51.0999 10.2504 50.6398 10.5491C49.8922 10.5508 49.728 10.392 49.5386 9.69012C49.6591 9.21075 49.635 9.00979 50.1248 8.86768Z" fill="var(--fill-0, #BABABA)"/>
<path id="Vector_127" d="M51.0404 13.5465C51.4865 13.4638 51.9169 13.7527 52.0088 14.1967C52.1013 14.6409 51.8216 15.0772 51.3795 15.179C51.0853 15.2467 50.777 15.1499 50.5742 14.9258C50.3713 14.7018 50.3058 14.3856 50.4027 14.0993C50.4997 13.8131 50.7434 13.6016 51.0404 13.5465Z" fill="var(--fill-0, #BABABA)"/>
<path id="Vector_128" d="M64.2037 27.9716C64.2984 27.967 64.6565 27.9525 64.7249 27.9784C65.4882 28.2678 65.5913 29.1658 64.8572 29.5402C63.6377 29.5963 63.13 28.6961 64.2037 27.9716Z" fill="var(--fill-0, #BABABA)"/>
<path id="Vector_129" d="M40.4533 10.9825C41.0008 10.922 41.2401 11.4422 41.48 11.8489C41.2541 12.355 41.1852 12.4404 40.7055 12.7199C39.4861 12.6205 39.3959 11.6051 40.4533 10.9825Z" fill="var(--fill-0, #BABABA)"/>
<path id="Vector_130" d="M64.809 38.2792C65.7947 38.1941 66.0614 39.4858 65.0202 40.007C64.2973 40.0759 63.8893 39.4208 64.1684 38.7746C64.3147 38.4356 64.4794 38.4025 64.809 38.2792Z" fill="var(--fill-0, #BABABA)"/>
<path id="Vector_131" d="M56.0728 12.7277C56.4472 12.7061 56.8221 12.7949 57.0631 13.1109C57.1791 13.2635 57.2256 13.4582 57.1908 13.6469C57.1348 13.9337 56.8602 14.0883 56.631 14.2516C55.9664 14.5051 55.406 14.2511 55.5074 13.46C55.5573 13.0704 55.7708 12.9427 56.0728 12.7277Z" fill="var(--fill-0, #BABABA)"/>
<path id="Vector_132" d="M58.6081 17.5666C59.2033 17.5311 59.4756 18.3183 59.1988 18.7703C58.9752 19.135 58.779 19.1493 58.4114 19.2574C57.5731 19.1219 57.1539 17.7236 58.6081 17.5666Z" fill="var(--fill-0, #BABABA)"/>
<path id="Vector_133" d="M4.37691 62.2757C4.97306 62.2521 5.55925 62.3894 5.49923 63.2132C5.47961 63.4822 5.25439 63.7697 5.02832 63.9233C3.84716 64.1373 3.53832 62.9291 4.37691 62.2757Z" fill="var(--fill-0, #BABABA)"/>
<path id="Vector_134" d="M48.9922 15.1829C47.3384 13.9139 50.1982 12.792 50.1612 14.3087C50.1522 14.6764 50.0205 14.9629 49.7246 15.1907L48.9922 15.1829Z" fill="var(--fill-0, #BABABA)"/>
<path id="Vector_135" d="M9.2987 7.79471C9.47343 7.79281 9.5891 7.78827 9.74702 7.86992C9.96978 7.98491 10.1341 8.18817 10.1999 8.43015C10.3658 9.05797 9.99136 9.38183 9.43919 9.52703C8.95316 9.35414 8.42447 8.93636 8.61787 8.36375C8.72546 8.04499 9.02377 7.93263 9.2987 7.79471Z" fill="var(--fill-0, #BABABA)"/>
<path id="Vector_136" d="M12.6889 19.016C13.8696 18.9513 14.0537 20.0667 13.0157 20.6358C11.9618 20.7139 11.5265 19.5804 12.6889 19.016Z" fill="var(--fill-0, #BABABA)"/>
<path id="Vector_137" d="M54.942 11.3791C55.6374 11.4095 55.8083 11.7729 56.1166 12.3292C55.8095 12.6841 55.7445 12.7601 55.3729 13.0152C54.4522 13.3149 53.7618 12.1644 54.942 11.3791Z" fill="var(--fill-0, #BABABA)"/>
<path id="Vector_138" d="M16.1462 11.2744C17.691 11.1961 17.4182 12.65 16.7638 12.7863C15.5273 13.0729 15.1448 11.7984 16.1462 11.2744Z" fill="var(--fill-0, #BABABA)"/>
<path id="Vector_139" d="M66.7211 39.8624C67.7163 39.7773 67.8323 41.4041 66.8023 41.4943C66.5866 41.4814 66.4151 41.4753 66.2313 41.3503C66.0458 41.2242 65.9169 41.0298 65.8743 40.809C65.7633 40.2138 66.2066 39.9426 66.7211 39.8624Z" fill="var(--fill-0, #BABABA)"/>
<path id="Vector_140" d="M57.3506 49.7194C58.6305 49.6572 58.7969 50.8895 57.8818 51.2936C57.3943 51.3233 57.0418 51.2807 56.8092 50.7864C56.7274 50.6155 56.7195 50.4177 56.7862 50.2406C56.9005 49.934 57.0715 49.846 57.3506 49.7194Z" fill="var(--fill-0, #BABABA)"/>
<path id="Vector_141" d="M45.0632 8.92682C46.1498 8.87588 46.24 10.2644 45.1103 10.596C44.4826 10.5077 44.0354 9.86169 44.3582 9.26222C44.4843 9.02882 44.8166 8.98813 45.0632 8.92682Z" fill="var(--fill-0, #BABABA)"/>
<path id="Vector_142" d="M53.7169 49.7187C54.0022 49.6308 54.3126 49.7025 54.5295 49.907C54.7469 50.1116 54.8377 50.4164 54.7671 50.7067C54.6971 50.9965 54.4763 51.2262 54.1893 51.308C53.7522 51.4324 53.2966 51.1819 53.1672 50.7465C53.0377 50.3111 53.2832 49.8527 53.7169 49.7187Z" fill="var(--fill-0, #BABABA)"/>
<path id="Vector_143" d="M61.9436 61.5063C62.397 61.4463 62.8134 61.7657 62.8733 62.2191C62.9327 62.673 62.6139 63.0888 62.1599 63.1488C61.7066 63.2088 61.2902 62.8899 61.2302 62.436C61.1703 61.982 61.4897 61.5657 61.9436 61.5063Z" fill="var(--fill-0, #BABABA)"/>
<path id="Vector_144" d="M29.954 7.13249C30.3965 7.04339 30.829 7.32516 30.9259 7.76591C31.0229 8.20667 30.7494 8.64406 30.3103 8.74925C30.0192 8.81902 29.7131 8.72616 29.5097 8.50643C29.3064 8.28664 29.2375 7.97427 29.3296 7.68936C29.4218 7.40451 29.6605 7.19156 29.954 7.13249Z" fill="var(--fill-0, #BABABA)"/>
<path id="Vector_145" d="M49.7779 43.2601C49.8558 43.352 49.9308 43.4355 50.002 43.533L49.9785 43.6597C50.8449 44.8253 48.5113 45.9366 48.6072 44.0665C48.6307 43.6036 49.0986 43.2875 49.5778 43.3851L49.7779 43.2601Z" fill="var(--fill-0, #BABABA)"/>
<path id="Vector_146" d="M49.7779 43.2601C49.8558 43.352 49.9308 43.4355 50.002 43.533L49.9785 43.6597C49.8412 43.5745 49.7106 43.4781 49.5778 43.3851L49.7779 43.2601Z" fill="var(--fill-0, #BABABA)"/>
<path id="Vector_147" d="M0.706235 25.0545C1.82474 25.0133 2.05013 26.3821 1.01227 26.7918C0.963571 26.7877 0.914872 26.783 0.866285 26.7775C-0.206548 26.6522 -0.115314 25.6009 0.706235 25.0545Z" fill="var(--fill-0, #BABABA)"/>
<path id="Vector_148" d="M11.6094 62.2683C12.8882 62.2465 12.9466 63.5645 12.1038 63.9411C11.0712 64.1871 10.6506 62.8646 11.6094 62.2683Z" fill="var(--fill-0, #BABABA)"/>
<path id="Vector_149" d="M66.3786 41.6461C66.8667 41.6259 67.1839 41.6175 67.4468 42.1012C67.5404 42.271 67.5588 42.4716 67.4983 42.6548C67.4087 42.9339 67.2461 43.074 67.0029 43.2113C66.5865 43.2304 66.2537 43.2601 65.9824 42.8807C65.6193 42.3735 65.9667 41.9319 66.3786 41.6461Z" fill="var(--fill-0, #BABABA)"/>
<path id="Vector_150" d="M66.3663 43.4545C66.6437 43.3391 66.9615 43.3839 67.1963 43.5705C67.4316 43.7572 67.5465 44.0564 67.4978 44.3523C67.4485 44.6487 67.2428 44.8948 66.9603 44.9956C66.5384 45.1464 66.0732 44.9329 65.9118 44.5148C65.7504 44.0962 65.9522 43.626 66.3663 43.4545Z" fill="var(--fill-0, #BABABA)"/>
<path id="Vector_151" d="M48.128 8.70704C48.5517 8.68216 48.9373 8.61334 49.2298 8.99189C49.5997 9.47048 49.3267 9.92188 48.9221 10.2375C47.8529 10.5448 47.3575 9.39818 48.128 8.70704Z" fill="var(--fill-0, #BABABA)"/>
<path id="Vector_152" d="M51.0354 16.5478C52.2795 16.4411 52.4555 17.6491 51.4938 18.1166C50.5176 18.3309 49.9056 17.1314 51.0354 16.5478Z" fill="var(--fill-0, #BABABA)"/>
<path id="Vector_153" d="M55.5237 49.7316C55.9546 49.5955 56.4153 49.8308 56.5559 50.2601C56.6971 50.6894 56.4662 51.1523 56.0381 51.298C55.7573 51.3932 55.4474 51.3305 55.2255 51.1338C55.0036 50.9365 54.905 50.6361 54.9666 50.3458C55.0283 50.0561 55.2412 49.8213 55.5237 49.7316Z" fill="var(--fill-0, #BABABA)"/>
<path id="Vector_154" d="M62.6693 49.7137C63.1513 49.7041 63.5178 49.7781 63.7666 50.2337C63.8535 50.3906 63.8736 50.5767 63.821 50.7487C63.7414 51.0138 63.5912 51.1444 63.3642 51.2755C62.1117 51.489 61.7559 50.3245 62.6693 49.7137Z" fill="var(--fill-0, #BABABA)"/>
<path id="Vector_155" d="M36.9811 21.1398C37.6939 21.1222 37.8671 21.9349 37.5353 22.4414C37.3571 22.7135 37.1128 22.7347 36.8197 22.8067C35.7555 22.5556 35.7807 21.3815 36.9811 21.1398Z" fill="var(--fill-0, #BABABA)"/>
<path id="Vector_156" d="M59.5877 25.639C59.8679 25.5332 60.1834 25.588 60.4115 25.7822C60.6396 25.9763 60.7438 26.2791 60.6838 26.5726C60.6244 26.866 60.4098 27.1037 60.124 27.1931C59.6992 27.326 59.2458 27.097 59.1007 26.6765C58.9555 26.2558 59.1713 25.7961 59.5877 25.639Z" fill="var(--fill-0, #BABABA)"/>
<path id="Vector_157" d="M21.8684 25.6695C23.1869 25.5433 23.4014 26.7284 22.4812 27.214C21.296 27.2614 20.9018 26.281 21.8684 25.6695Z" fill="var(--fill-0, #BABABA)"/>
<path id="Vector_158" d="M36.1685 25.6658C37.4938 25.5348 37.7096 26.7474 36.864 27.1738C35.6636 27.3676 35.2438 26.4283 36.1685 25.6658Z" fill="var(--fill-0, #BABABA)"/>
<path id="Vector_159" d="M57.8807 25.6313C58.0242 25.6386 58.3918 25.649 58.496 25.7265C59.1887 26.2441 59.029 27.0028 58.2276 27.2257C57.8163 27.2516 57.4884 27.1199 57.3192 26.7213C57.2318 26.5208 57.2334 26.2929 57.3237 26.0938C57.4425 25.834 57.6263 25.7233 57.8807 25.6313Z" fill="var(--fill-0, #BABABA)"/>
<path id="Vector_160" d="M38.0789 13.9106C38.1198 13.9151 38.1602 13.9203 38.2 13.9265C39.2485 14.0904 39.1476 15.1284 38.3115 15.6371C37.7847 15.4818 37.0618 15.1624 37.4165 14.3583C37.5135 14.1384 37.8424 13.9704 38.0789 13.9106Z" fill="var(--fill-0, #BABABA)"/>
<path id="Vector_161" d="M46.6519 40.0737C47.6747 40.0849 48.1706 41.0774 47.0123 41.7067C46.6323 41.6911 46.2619 41.5806 46.0758 41.2141C45.9795 41.0264 45.9677 40.8062 46.0439 40.6089C46.156 40.3169 46.3897 40.2026 46.6519 40.0737Z" fill="var(--fill-0, #BABABA)"/>
<path id="Vector_162" d="M16.1242 6.39844C17.2315 6.53198 17.4017 7.57909 16.4384 8.06126C15.6994 8.10486 15.2565 7.62112 15.5188 6.86161C15.617 6.57726 15.8565 6.50273 16.1242 6.39844Z" fill="var(--fill-0, #BABABA)"/>
<path id="Vector_163" d="M59.1495 49.7429C59.5681 49.5966 60.027 49.8107 60.1851 50.2249C60.3425 50.6396 60.1419 51.1047 59.7323 51.2739C59.4566 51.3877 59.1405 51.3429 58.9074 51.1568C58.6748 50.9707 58.561 50.6726 58.6115 50.3784C58.6613 50.0848 58.8676 49.841 59.1495 49.7429Z" fill="var(--fill-0, #BABABA)"/>
<path id="Vector_164" d="M64.2256 34.9853C64.7098 34.9613 64.995 34.948 65.2573 35.4333C65.3486 35.6025 65.3671 35.8017 65.3088 35.985C65.2203 36.2699 65.055 36.3786 64.805 36.4997C64.2951 36.531 63.9005 36.4969 63.6725 35.9521C63.6041 35.7929 63.6058 35.6123 63.6769 35.4543C63.7901 35.2028 63.9829 35.0808 64.2256 34.9853Z" fill="var(--fill-0, #BABABA)"/>
<path id="Vector_165" d="M28.0738 7.13964C28.3532 7.04611 28.6614 7.11011 28.8805 7.30715C29.0997 7.50413 29.196 7.80378 29.1327 8.0916C29.0693 8.37942 28.8562 8.61092 28.5745 8.69778C28.1463 8.82982 27.6914 8.59282 27.5543 8.16613C27.4172 7.73944 27.6487 7.28182 28.0738 7.13964Z" fill="var(--fill-0, #BABABA)"/>
<path id="Vector_166" d="M7.58576 25.6219C7.68355 25.6319 8.06429 25.6619 8.13625 25.6952C8.93297 26.0633 8.8609 26.8998 8.11573 27.1902C6.92297 27.2706 6.57026 26.1471 7.58576 25.6219Z" fill="var(--fill-0, #BABABA)"/>
<path id="Vector_167" d="M38.0038 25.6667C38.4998 25.6406 38.8321 25.6234 39.0972 26.1158C39.1919 26.2905 39.2053 26.498 39.1336 26.6833C39.0394 26.9307 38.8741 27.069 38.641 27.1686C37.5404 27.43 37.0321 26.312 38.0038 25.6667Z" fill="var(--fill-0, #BABABA)"/>
<path id="Vector_168" d="M5.68803 25.6679C5.82359 25.6598 6.19789 25.6489 6.31546 25.6952C6.5214 25.7777 6.6893 25.9338 6.78642 26.1333C7.00548 26.5768 6.72652 27.014 6.30818 27.2012C5.16681 27.2743 4.71293 26.2976 5.68803 25.6679Z" fill="var(--fill-0, #BABABA)"/>
<path id="Vector_169" d="M58.0639 15.8102C59.1136 15.938 59.1668 17.0808 58.0572 17.4475C56.9426 17.3929 56.8327 16.2098 58.0639 15.8102Z" fill="var(--fill-0, #BABABA)"/>
<path id="Vector_170" d="M28.1498 4.55083C28.2956 4.54629 28.5367 4.55576 28.6736 4.60048C28.8789 4.66712 29.0486 4.81388 29.1441 5.00745C29.393 5.50105 29.0135 5.92415 28.5884 6.13369C28.1691 6.19443 27.8145 6.08342 27.6268 5.67472C27.5378 5.47594 27.5324 5.24976 27.6116 5.04695C27.7213 4.75807 27.887 4.67703 28.1498 4.55083Z" fill="var(--fill-0, #BABABA)"/>
<path id="Vector_171" d="M15.1553 17.1006C16.2059 17.1983 16.3735 18.3418 15.379 18.7869C14.2306 18.8151 14.0686 17.5175 15.1553 17.1006Z" fill="var(--fill-0, #BABABA)"/>
<path id="Vector_172" d="M66.3484 46.9212C66.7743 46.8943 67.087 46.8383 67.3722 47.2356C67.6967 47.6879 67.421 48.1743 67.0265 48.4691L66.2823 48.4136C65.6781 47.9098 65.6692 47.36 66.3484 46.9212Z" fill="var(--fill-0, #BABABA)"/>
<path id="Vector_173" d="M66.4027 48.6181C66.6779 48.5144 66.9878 48.5665 67.2136 48.7548C67.4389 48.9437 67.546 49.239 67.4933 49.5282C67.44 49.8173 67.236 50.0561 66.9581 50.1525C66.5361 50.2982 66.0755 50.0785 65.9236 49.6593C65.7717 49.2396 65.9852 48.7756 66.4027 48.6181Z" fill="var(--fill-0, #BABABA)"/>
<path id="Vector_174" d="M60.9175 49.748C61.3339 49.5905 61.8002 49.7956 61.9649 50.2092C62.1297 50.6228 61.9318 51.0924 61.5211 51.2639C61.2493 51.3771 60.9371 51.335 60.7051 51.154C60.4726 50.9725 60.3566 50.6805 60.4003 50.3891C60.4445 50.0977 60.6424 49.8528 60.9175 49.748Z" fill="var(--fill-0, #BABABA)"/>
<path id="Vector_175" d="M32.7467 25.639C34.0154 25.722 34.0659 26.9865 32.8767 27.2426C32.4732 27.1667 32.1796 26.9937 32.0692 26.5672C32.021 26.3869 32.0468 26.1948 32.1398 26.0332C32.2916 25.7761 32.4755 25.7122 32.7467 25.639Z" fill="var(--fill-0, #BABABA)"/>
<path id="Vector_176" d="M13.6421 20.4936C14.0798 20.4181 14.4973 20.7072 14.5806 21.1434C14.6639 21.5797 14.3823 22.0022 13.9476 22.0934C13.6594 22.1538 13.361 22.0539 13.1673 21.8322C12.9735 21.6105 12.9145 21.3015 13.0129 21.0239C13.1113 20.7464 13.3519 20.5436 13.6421 20.4936Z" fill="var(--fill-0, #BABABA)"/>
<path id="Vector_177" d="M29.9325 4.57046C30.3654 4.45121 30.8133 4.7049 30.9332 5.13748C31.0537 5.57011 30.801 6.01843 30.3687 6.1397C29.9349 6.26142 29.4847 6.00778 29.3641 5.57369C29.2434 5.13961 29.4981 4.69005 29.9325 4.57046Z" fill="var(--fill-0, #BABABA)"/>
<path id="Vector_178" d="M52.3473 25.6747C52.7979 25.6316 53.1223 25.627 53.4132 26.0155C53.7629 26.4829 53.5062 26.9014 53.0809 27.1664C51.9376 27.3867 51.4602 26.3661 52.3473 25.6747Z" fill="var(--fill-0, #BABABA)"/>
<path id="Vector_179" d="M0.960376 61.4996C1.24024 61.4027 1.5507 61.4654 1.77105 61.6632C1.9914 61.8616 2.08678 62.1637 2.0201 62.4523C1.95346 62.7409 1.7353 62.9701 1.45045 63.0514C1.02662 63.1724 0.58345 62.9342 0.450747 62.5139C0.317988 62.0936 0.543886 61.6442 0.960376 61.4996Z" fill="var(--fill-0, #BABABA)"/>
<path id="Vector_180" d="M51.746 9.36947C52.7726 9.49292 53.4653 10.313 52.4325 11.014C51.097 11.1804 51.0898 10.2524 51.746 9.36947Z" fill="var(--fill-0, #BABABA)"/>
<path id="Vector_181" d="M66.3691 45.2031C66.9603 45.1655 67.6496 45.2771 67.4922 46.1849C67.449 46.4326 67.1811 46.622 66.957 46.7352C65.7992 46.7532 65.4259 45.7013 66.3691 45.2031Z" fill="var(--fill-0, #BABABA)"/>
<path id="Vector_182" d="M64.29 26.3007C65.5313 26.2176 65.6574 27.4087 64.7249 27.8287C63.5111 27.8228 63.1748 26.7474 64.29 26.3007Z" fill="var(--fill-0, #BABABA)"/>
<path id="Vector_183" d="M14.4227 6.35807C15.6125 6.4655 15.5358 7.75661 14.5946 8.00235C13.5203 7.88147 13.2615 6.58761 14.4227 6.35807Z" fill="var(--fill-0, #BABABA)"/>
<path id="Vector_184" d="M50.0228 49.7557C50.4397 49.5826 50.9172 49.7815 51.0881 50.199C51.259 50.6165 51.0573 51.0934 50.6386 51.2615C50.2239 51.4285 49.7521 51.2285 49.5823 50.8149C49.413 50.4007 49.6103 49.9278 50.0228 49.7557Z" fill="var(--fill-0, #BABABA)"/>
<path id="Vector_185" d="M27.2095 25.6734C28.5436 25.5137 28.7216 26.8097 27.782 27.2041C26.6588 27.295 26.3054 26.257 27.2095 25.6734Z" fill="var(--fill-0, #BABABA)"/>
<path id="Vector_186" d="M46.0131 19.5824C46.4362 19.4291 46.903 19.6485 47.0549 20.0721C47.2073 20.4956 46.9865 20.962 46.5623 21.1128C46.1403 21.263 45.6763 21.0433 45.5244 20.6216C45.3731 20.1998 45.5917 19.7351 46.0131 19.5824Z" fill="var(--fill-0, #BABABA)"/>
<path id="Vector_187" d="M55.9473 25.668C56.4472 25.6616 56.8053 25.6323 57.0732 26.1544C57.1544 26.3125 57.1656 26.4972 57.1051 26.6643C57.0093 26.9354 56.8316 27.0606 56.5884 27.1812C55.5136 27.3242 55.0064 26.3516 55.9473 25.668Z" fill="var(--fill-0, #BABABA)"/>
<path id="Vector_188" d="M51.8631 49.744C52.2767 49.5927 52.7357 49.7984 52.8982 50.2075C53.0601 50.6171 52.8668 51.0811 52.4616 51.2543C52.1898 51.3697 51.8766 51.3294 51.644 51.1478C51.4109 50.9668 51.2949 50.6732 51.3403 50.3812C51.3856 50.0898 51.5863 49.846 51.8631 49.744Z" fill="var(--fill-0, #BABABA)"/>
<path id="Vector_189" d="M48.7703 25.6721C49.2388 25.6614 49.5784 25.633 49.8378 26.1055C50.09 26.564 49.8149 27.003 49.3934 27.2097C48.253 27.3065 47.849 26.3465 48.7703 25.6721Z" fill="var(--fill-0, #BABABA)"/>
<path id="Vector_190" d="M23.673 25.6649C24.1537 25.6624 24.5138 25.6289 24.7642 26.1352C24.9792 26.5698 24.6834 27.0128 24.2952 27.207C23.1085 27.2729 22.7649 26.2656 23.673 25.6649Z" fill="var(--fill-0, #BABABA)"/>
<path id="Vector_191" d="M39.7853 25.6647C40.3614 25.6316 41.0479 25.7625 40.9656 26.5939C40.9409 26.8459 40.6854 27.0615 40.4634 27.1778C39.3297 27.3405 38.905 26.4253 39.7853 25.6647Z" fill="var(--fill-0, #BABABA)"/>
<path id="Vector_192" d="M25.4561 25.6651C25.8864 25.6599 26.242 25.6133 26.4885 26.0428C26.7679 26.5294 26.4824 26.9751 26.046 27.2166C24.9055 27.2985 24.5415 26.2479 25.4561 25.6651Z" fill="var(--fill-0, #BABABA)"/>
<path id="Vector_193" d="M64.1858 55.4359C64.2872 55.4331 64.7114 55.4129 64.7798 55.4533C65.505 55.8814 65.4204 56.6553 64.7098 56.9961C63.5665 57.0302 63.2269 55.9946 64.1858 55.4359Z" fill="var(--fill-0, #BABABA)"/>
<path id="Vector_194" d="M46.9702 25.675C47.0902 25.6716 47.497 25.6517 47.5889 25.6926C48.3651 26.0381 48.2872 26.8529 47.5923 27.1924C46.4479 27.3138 46.0562 26.2583 46.9702 25.675Z" fill="var(--fill-0, #BABABA)"/>
<path id="Vector_195" d="M53.3751 43.2131C54.3647 43.2495 54.6769 44.535 53.8088 44.9066C53.7892 44.906 53.769 44.906 53.7494 44.9055L53.6541 44.9021C52.6527 44.8763 52.3691 43.7891 53.3751 43.2131Z" fill="var(--fill-0, #BABABA)"/>
<path id="Vector_196" d="M1.50447 23.529C1.85999 23.5106 2.21915 23.662 2.38553 23.9909C2.47985 24.1806 2.49319 24.4004 2.42246 24.6C2.318 24.9045 2.09687 25.0307 1.82379 25.1551C0.614831 25.0476 0.456182 24.1697 1.50447 23.529Z" fill="var(--fill-0, #BABABA)"/>
<path id="Vector_197" d="M34.3775 25.6699C34.9844 25.661 35.6574 25.8179 35.4714 26.709C35.4209 26.9508 35.1766 27.1055 34.9519 27.2032C33.8277 27.3016 33.4399 26.3369 34.3775 25.6699Z" fill="var(--fill-0, #BABABA)"/>
<path id="Vector_198" d="M43.3954 25.6613C43.855 25.6587 44.2248 25.6388 44.4658 26.107C44.7102 26.5825 44.4193 26.9976 44.0007 27.2124C42.8961 27.2899 42.4831 26.3186 43.3954 25.6613Z" fill="var(--fill-0, #BABABA)"/>
<path id="Vector_199" d="M28.9921 25.6766C29.1284 25.6656 29.5095 25.6591 29.6272 25.7049C29.8262 25.7843 29.9886 25.9349 30.0825 26.1275C30.3153 26.5979 29.999 26.9963 29.5836 27.1927C28.4824 27.3361 28.0918 26.2692 28.9921 25.6766Z" fill="var(--fill-0, #BABABA)"/>
<path id="Vector_200" d="M12.5243 6.57158C12.9352 6.56368 13.2574 6.62717 13.4627 7.03189C13.5617 7.22731 13.5761 7.45477 13.5027 7.66117C13.3941 7.96911 13.2298 8.04734 12.9524 8.18649C12.5396 8.22219 12.2182 8.08119 12.0316 7.69328C11.9269 7.47641 11.9184 7.2254 12.0082 7.00191C12.1173 6.73253 12.2725 6.67901 12.5243 6.57158Z" fill="var(--fill-0, #BABABA)"/>
<path id="Vector_201" d="M13.3843 17.2582C14.4142 17.1572 14.6625 18.5891 13.654 18.9634C12.6261 18.9072 12.3714 17.8292 13.3843 17.2582Z" fill="var(--fill-0, #BABABA)"/>
<path id="Vector_202" d="M16.4907 25.6667C16.9387 25.6609 17.3005 25.6215 17.5931 26.0339C17.92 26.4946 17.6067 26.9069 17.2191 27.1619C16.8198 27.2265 16.5244 27.2623 16.2342 26.9259C16.1096 26.7834 16.0482 26.5963 16.0641 26.4077C16.097 26.0351 16.2268 25.8983 16.4907 25.6667Z" fill="var(--fill-0, #BABABA)"/>
<path id="Vector_203" d="M57.693 23.0748C58.1234 22.9638 58.5622 23.2211 58.6754 23.6506C58.7886 24.0801 58.533 24.5203 58.1043 24.6354C57.6722 24.7513 57.2284 24.4939 57.1146 24.0616C57.0009 23.6292 57.2603 23.1866 57.693 23.0748Z" fill="var(--fill-0, #BABABA)"/>
<path id="Vector_204" d="M64.1225 57.2303C64.2155 57.2253 64.6498 57.1967 64.7142 57.2242C65.5593 57.5851 65.436 58.3657 64.7675 58.7272C63.6467 58.8516 63.2163 57.9073 64.1225 57.2303Z" fill="var(--fill-0, #BABABA)"/>
<path id="Vector_205" d="M54.1389 25.6749C54.2454 25.6698 54.6533 25.6526 54.7245 25.6775C55.569 25.9722 55.5208 26.8395 54.8047 27.2063C53.7085 27.306 53.3134 26.3653 54.1389 25.6749Z" fill="var(--fill-0, #BABABA)"/>
<path id="Vector_206" d="M45.1837 25.7018C45.4549 25.5755 45.7732 25.6095 46.0114 25.79C46.2496 25.9707 46.3678 26.2681 46.3196 26.563C46.2709 26.8579 46.0629 27.1017 45.7799 27.1964C45.3748 27.3318 44.9343 27.1274 44.7757 26.7306C44.6177 26.3337 44.7964 25.8823 45.1837 25.7018Z" fill="var(--fill-0, #BABABA)"/>
<path id="Vector_207" d="M19.3131 7.34853C20.4742 7.2425 20.823 8.30334 19.94 8.91704C18.7401 9.11906 18.5205 7.97556 19.3131 7.34853Z" fill="var(--fill-0, #BABABA)"/>
<path id="Vector_208" d="M46.4765 8.70228C47.0863 8.67269 47.6808 8.84759 47.6231 9.6743C47.6069 9.90804 47.3978 10.1095 47.2034 10.2378C46.6122 10.3753 46.4715 10.2848 46.0893 9.82706C46.0641 9.28375 45.9498 8.99996 46.4765 8.70228Z" fill="var(--fill-0, #BABABA)"/>
<path id="Vector_209" d="M50.5714 25.6736C51.0746 25.6505 51.4591 25.6681 51.6877 26.1779C51.8811 26.6081 51.5796 27.0195 51.2041 27.2003C50.1158 27.3273 49.686 26.3701 50.5714 25.6736Z" fill="var(--fill-0, #BABABA)"/>
<path id="Vector_210" d="M66.4173 38.1773C67.5992 38.0904 67.9203 39.2533 67.041 39.6775C66.9301 39.687 66.5961 39.7341 66.5182 39.7061C65.621 39.3855 65.719 38.6094 66.4173 38.1773Z" fill="var(--fill-0, #BABABA)"/>
<path id="Vector_211" d="M20.082 25.7065C20.3465 25.5836 20.6568 25.6133 20.893 25.7843C21.1292 25.9553 21.2545 26.2407 21.2203 26.5304C21.1862 26.82 20.9979 27.0685 20.7284 27.1798C20.324 27.3468 19.8603 27.16 19.6845 26.7593C19.5087 26.3587 19.6852 25.891 20.082 25.7065Z" fill="var(--fill-0, #BABABA)"/>
<path id="Vector_212" d="M51.9802 42.01C52.3989 41.8727 52.8506 42.0979 52.9929 42.5154C53.1347 42.9324 52.9144 43.3863 52.4986 43.5331C52.2257 43.6295 51.922 43.5718 51.7034 43.3818C51.4849 43.1918 51.3851 42.8993 51.4423 42.6152C51.4994 42.3316 51.7051 42.1007 51.9802 42.01Z" fill="var(--fill-0, #BABABA)"/>
<path id="Vector_213" d="M46.2524 22.6678C45.0744 23.0802 44.4922 21.8749 45.3608 21.3833C45.9391 21.0558 47.0274 21.5051 46.5584 22.4422C46.5034 22.4816 46.2877 22.6309 46.2524 22.6678Z" fill="var(--fill-0, #BABABA)"/>
<path id="Vector_214" d="M6.68958 22.8128C7.64764 22.8095 7.89528 24.1348 6.74982 24.4873C5.60307 24.4272 5.69817 23.3379 6.68958 22.8128Z" fill="var(--fill-0, #BABABA)"/>
<path id="Vector_215" d="M31.7486 4.55143C32.9681 4.62653 32.9899 5.75366 32.0714 6.19974C31.0123 6.17957 30.736 5.0113 31.7486 4.55143Z" fill="var(--fill-0, #BABABA)"/>
<path id="Vector_216" d="M30.7982 25.6933C31.2117 25.5306 31.6786 25.7351 31.8394 26.1492C32.0008 26.5634 31.794 27.0295 31.3793 27.1888C30.9669 27.3472 30.5041 27.1423 30.344 26.7305C30.1839 26.3187 30.387 25.8549 30.7982 25.6933Z" fill="var(--fill-0, #BABABA)"/>
<path id="Vector_217" d="M41.5982 25.6675C42.0948 25.6638 42.7913 25.6953 42.7549 26.5013C42.7431 26.77 42.5162 27.0298 42.2892 27.1783C41.1023 27.3075 40.719 26.3944 41.5982 25.6675Z" fill="var(--fill-0, #BABABA)"/>
<path id="Vector_218" d="M3.88684 25.6694C5.1529 25.5527 5.42968 26.6733 4.52502 27.1594C4.06768 27.2001 3.75946 27.1714 3.49114 26.7446C3.38791 26.5831 3.35664 26.386 3.40484 26.2005C3.48038 25.9055 3.63757 25.806 3.88684 25.6694Z" fill="var(--fill-0, #BABABA)"/>
<path id="Vector_219" d="M64.0692 53.7492C64.5708 53.7184 64.8717 53.6775 65.1996 54.1471C65.301 54.2922 65.3357 54.4732 65.2943 54.6453C65.2315 54.912 65.0639 55.0678 64.8459 55.2051C64.7215 55.2292 64.5702 55.2595 64.4441 55.2539C64.1897 55.2449 63.9515 55.1239 63.7946 54.9227C63.4646 54.5024 63.7145 54.0451 64.0692 53.7492Z" fill="var(--fill-0, #BABABA)"/>
<path id="Vector_220" d="M18.3447 25.668C18.4617 25.6699 18.8411 25.6768 18.9288 25.7152C19.7313 26.066 19.6193 26.8784 18.902 27.2136C17.7966 27.2644 17.4528 26.3022 18.3447 25.668Z" fill="var(--fill-0, #BABABA)"/>
<path id="Vector_221" d="M14.764 25.7048C15.17 25.5265 15.6435 25.7122 15.8201 26.1189C15.9967 26.5257 15.809 26.9984 15.4015 27.1733C14.9965 27.3472 14.5271 27.1609 14.3516 26.7566C14.176 26.3522 14.3604 25.8821 14.764 25.7048Z" fill="var(--fill-0, #BABABA)"/>
<path id="Vector_222" d="M31.7021 7.13821C31.9823 7.07298 32.2754 7.1632 32.471 7.37458C32.666 7.58591 32.7327 7.88578 32.6453 8.15982C32.5578 8.43391 32.3303 8.63997 32.0484 8.69949C31.6197 8.79021 31.1977 8.51853 31.1025 8.0905C31.0078 7.66246 31.2751 7.23768 31.7021 7.13821Z" fill="var(--fill-0, #BABABA)"/>
<path id="Vector_223" d="M9.30829 25.6693C9.83193 25.6565 10.5488 25.7059 10.4784 26.5552C10.459 26.7894 10.2279 27.0475 10.0295 27.1826C8.86232 27.2709 8.46118 26.4197 9.30829 25.6693Z" fill="var(--fill-0, #BABABA)"/>
<path id="Vector_224" d="M22.6333 6.20476C23.0685 6.12064 23.4888 6.40723 23.5695 6.84306C23.6503 7.27888 23.3604 7.697 22.924 7.77422C22.4923 7.85066 22.0799 7.56469 22.0001 7.13368C21.9202 6.70273 22.2029 6.28798 22.6333 6.20476Z" fill="var(--fill-0, #BABABA)"/>
<path id="Vector_225" d="M64.0586 58.9609C64.5433 58.9351 65.2506 58.9256 65.2859 59.7124C65.2982 59.9876 65.051 60.2756 64.8364 60.4437C63.6825 60.5905 63.251 59.6664 64.0586 58.9609Z" fill="var(--fill-0, #BABABA)"/>
<path id="Vector_226" d="M64.5472 52.0339C65.473 52.0159 65.5941 53.3934 64.438 53.5615C63.4393 53.4578 63.2208 52.137 64.5472 52.0339Z" fill="var(--fill-0, #BABABA)"/>
<path id="Vector_227" d="M35.1934 4.56577C35.4736 4.4858 35.7757 4.56515 35.9802 4.77278C36.1847 4.98036 36.2598 5.28309 36.1758 5.56233C36.0917 5.84153 35.8625 6.05263 35.5773 6.11298C35.157 6.20186 34.7417 5.94172 34.638 5.52473C34.5349 5.10768 34.7804 4.68368 35.1934 4.56577Z" fill="var(--fill-0, #BABABA)"/>
<path id="Vector_228" d="M49.7779 43.2601C49.3744 42.3853 50.0659 41.8916 50.7793 42.1444C51.6849 42.4649 51.2237 44.0273 50.002 43.533C49.9308 43.4355 49.8558 43.352 49.7779 43.2601Z" fill="var(--fill-0, #BABABA)"/>
<path id="Vector_229" d="M23.0339 23.3092C24.0853 23.3661 24.3902 24.4463 23.491 24.9352C22.3544 24.9298 22.0032 23.9307 23.0339 23.3092Z" fill="var(--fill-0, #BABABA)"/>
<path id="Vector_230" d="M11.1426 25.6698C12.3163 25.6234 12.6779 26.5324 11.8128 27.175C10.6187 27.3031 10.246 26.3395 11.1426 25.6698Z" fill="var(--fill-0, #BABABA)"/>
<path id="Vector_231" d="M53.1509 45.0675C53.5858 45.0338 53.9596 44.9688 54.2286 45.3992C54.3121 45.5326 54.3384 45.694 54.3031 45.8475C54.2269 46.1849 54.0722 46.3676 53.7993 46.5559C52.7155 46.8523 52.4 45.8677 53.1509 45.0675Z" fill="var(--fill-0, #BABABA)"/>
<path id="Vector_232" d="M12.9439 25.7035C13.2072 25.5882 13.5123 25.624 13.7418 25.7971C13.9713 25.9702 14.0895 26.2537 14.0509 26.5386C14.0123 26.8235 13.8229 27.0653 13.5557 27.1712C13.1525 27.3308 12.6958 27.138 12.529 26.7378C12.3622 26.3376 12.5467 25.8775 12.9439 25.7035Z" fill="var(--fill-0, #BABABA)"/>
<path id="Vector_233" d="M16.2525 15.991C17.2962 15.8941 17.7703 16.9348 16.8085 17.4786C15.5137 17.6408 15.3556 16.3728 16.2525 15.991Z" fill="var(--fill-0, #BABABA)"/>
<path id="Vector_234" d="M27.5887 18.1087C27.6719 18.1005 27.7552 18.0947 27.8388 18.0914C28.7591 18.0632 28.9109 19.0741 28.1761 19.6562C27.0024 19.763 26.7299 18.6942 27.5887 18.1087Z" fill="var(--fill-0, #BABABA)"/>
<path id="Vector_235" d="M28.8299 10.1591C29.21 10.1396 29.5153 10.103 29.7407 10.4672C30.0557 10.9762 29.8217 11.4323 29.3542 11.7047C28.2414 11.7807 27.9207 10.7436 28.8299 10.1591Z" fill="var(--fill-0, #BABABA)"/>
<path id="Vector_236" d="M46.0355 47.141C47.0571 46.988 47.3502 48.2209 46.2232 48.742C45.8808 48.7034 45.6051 48.5851 45.4482 48.2517C45.3596 48.0589 45.3546 47.8381 45.4336 47.6414C45.5524 47.341 45.7581 47.2559 46.0355 47.141Z" fill="var(--fill-0, #BABABA)"/>
<path id="Vector_237" d="M62.7797 23.3175C63.705 23.4774 64.3304 24.3094 63.3894 24.9286C62.1689 25.2289 62.0103 23.7377 62.7797 23.3175Z" fill="var(--fill-0, #BABABA)"/>
<path id="Vector_238" d="M64.1774 36.656C64.6431 36.6306 65.0096 36.6009 65.2758 37.0806C65.3509 37.2168 65.3666 37.3776 65.3189 37.5261C65.2304 37.8047 65.0555 37.9386 64.8078 38.0602C63.6764 38.2619 63.2404 37.2487 64.1774 36.656Z" fill="var(--fill-0, #BABABA)"/>
<path id="Vector_239" d="M36.9278 22.9366C37.3734 22.9029 37.662 22.8586 37.899 23.3138C38.1546 23.8042 37.8889 24.2123 37.4597 24.4468C36.322 24.5046 36.0362 23.4976 36.9278 22.9366Z" fill="var(--fill-0, #BABABA)"/>
<path id="Vector_240" d="M50.2901 46.2246C51.4697 46.1053 51.6967 47.2278 50.8079 47.7579C49.6305 47.8207 49.4551 46.9795 50.2901 46.2246Z" fill="var(--fill-0, #BABABA)"/>
<path id="Vector_241" d="M40.6994 6.31456C41.1174 6.25958 41.5041 6.54488 41.5747 6.96053C41.6459 7.37613 41.3752 7.77345 40.9627 7.86003C40.6814 7.9191 40.3906 7.81957 40.2045 7.60074C40.0179 7.3819 39.9664 7.07872 40.0695 6.81051C40.1726 6.54236 40.4147 6.35205 40.6994 6.31456Z" fill="var(--fill-0, #BABABA)"/>
<path id="Vector_242" d="M64.4537 49.7182C65.5347 49.6689 65.8636 50.6849 64.9989 51.2744C64.5652 51.3041 64.2749 51.3097 64.0563 50.8844C63.8036 50.3924 63.9958 49.9564 64.4537 49.7182Z" fill="var(--fill-0, #BABABA)"/>
<path id="Vector_243" d="M2.20554 25.2834C2.2734 25.28 2.34132 25.2784 2.40924 25.2789C3.34231 25.2895 3.56782 26.2076 2.844 26.8453C1.77319 27.0844 1.40338 25.8773 2.20554 25.2834Z" fill="var(--fill-0, #BABABA)"/>
<path id="Vector_244" d="M43.3058 9.42765C44.3055 9.27309 44.6205 10.6011 43.5854 11.0083C42.7134 10.9176 42.1581 9.85597 43.3058 9.42765Z" fill="var(--fill-0, #BABABA)"/>
<path id="Vector_245" d="M52.0581 46.1753C52.8987 46.1882 53.4244 47.2883 52.4291 47.7814C51.4753 47.7943 51.4221 47.3992 51.472 46.5833C51.6552 46.4252 51.8547 46.3064 52.0581 46.1753Z" fill="var(--fill-0, #BABABA)"/>
<path id="Vector_246" d="M64.2048 24.5382C64.5394 24.5445 64.8566 24.7658 64.9816 25.0602C65.2489 25.6907 64.9726 25.9456 64.4738 26.1597C63.3665 26.2297 63.2415 25.0765 64.2048 24.5382Z" fill="var(--fill-0, #BABABA)"/>
<path id="Vector_247" d="M41.8 10.0802C42.222 10.0073 42.6238 10.2888 42.7 10.7105C42.7756 11.1323 42.4971 11.5362 42.0757 11.615C41.6504 11.6946 41.2418 11.4125 41.165 10.9866C41.0883 10.5606 41.3735 10.1538 41.8 10.0802Z" fill="var(--fill-0, #BABABA)"/>
<path id="Vector_248" d="M64.0003 60.6354C64.1096 60.6298 64.2194 60.6276 64.3293 60.6287C65.2618 60.6466 65.4075 61.499 64.6885 62.1026C64.6134 62.107 64.5388 62.1104 64.4637 62.1121C63.5015 62.1317 63.2841 61.2967 64.0003 60.6354Z" fill="var(--fill-0, #BABABA)"/>
<path id="Vector_249" d="M40.1283 4.58234C40.6792 4.57096 40.8647 5.23851 41.0059 5.67137C40.7397 5.98452 40.6327 6.07351 40.2566 6.23731C39.8397 6.21613 39.3202 5.95067 39.3998 5.45202C39.476 4.97647 39.768 4.83648 40.1283 4.58234Z" fill="var(--fill-0, #BABABA)"/>
<path id="Vector_250" d="M16.548 12.9079C17.6377 13.075 17.5649 14.1827 16.5653 14.4167C15.5455 14.3817 15.3581 13.0701 16.548 12.9079Z" fill="var(--fill-0, #BABABA)"/>
<path id="Vector_251" d="M30.4878 10.1544C31.2336 10.1429 31.3619 10.2912 31.5351 10.994C31.5155 11.0597 31.4953 11.1252 31.474 11.1904C31.3681 11.5178 31.3474 11.5732 31.0375 11.7305C30.996 11.7302 30.9545 11.7291 30.9131 11.7271C30.6211 11.7143 30.3492 11.5759 30.1671 11.3477C29.7887 10.8817 30.029 10.4301 30.4878 10.1544Z" fill="var(--fill-0, #BABABA)"/>
<path id="Vector_252" d="M35.2175 7.16484C35.6305 7.07456 36.039 7.3319 36.136 7.74301C36.2335 8.15418 35.983 8.56725 35.5734 8.67126C35.3027 8.74008 35.0152 8.65742 34.8224 8.45495C34.6296 8.25247 34.5607 7.96173 34.6431 7.69437C34.7249 7.427 34.9446 7.22458 35.2175 7.16484Z" fill="var(--fill-0, #BABABA)"/>
<path id="Vector_253" d="M14.5998 21.9344C14.9952 21.7779 15.4428 21.9697 15.6021 22.364C15.7615 22.7582 15.573 23.2072 15.18 23.3694C14.7828 23.5334 14.3281 23.3424 14.1671 22.9441C14.0061 22.5458 14.2003 22.0925 14.5998 21.9344Z" fill="var(--fill-0, #BABABA)"/>
<path id="Vector_254" d="M23.3895 4.47803C24.4665 4.52645 24.6244 5.43889 23.76 6.13133C22.7076 6.0272 22.4652 4.99203 23.3895 4.47803Z" fill="var(--fill-0, #BABABA)"/>
<path id="Vector_255" d="M29.8856 0.128493C30.5089 0.071948 31.0229 0.233232 30.8951 1.07271C30.8587 1.30859 30.6345 1.49924 30.4253 1.61552C29.9869 1.63323 29.6973 1.55175 29.4688 1.1375C29.3666 0.954189 29.3489 0.73552 29.4205 0.538203C29.5081 0.302161 29.676 0.234184 29.8856 0.128493Z" fill="var(--fill-0, #BABABA)"/>
<path id="Vector_256" d="M24.4156 3.00895C24.6937 3.02728 25.0645 3.20448 25.2263 3.43519C25.3312 3.58521 25.3717 3.77099 25.3388 3.95104C25.2793 4.29087 25.0417 4.44868 24.7759 4.62392C23.5529 4.64252 23.5875 3.71046 24.4156 3.00895Z" fill="var(--fill-0, #BABABA)"/>
<path id="Vector_257" d="M33.2959 8.81063C33.7493 8.78889 34.0861 8.74484 34.3601 9.18308C34.6403 9.63078 34.3018 10.0183 33.9392 10.2371C33.019 10.3817 32.374 9.22219 33.2959 8.81063Z" fill="var(--fill-0, #BABABA)"/>
<path id="Vector_258" d="M31.7027 0C32.9053 0.0378832 32.9708 1.14008 32.0518 1.46937C31.6668 1.47498 31.3681 1.40896 31.163 1.04464C31.0716 0.879886 31.0554 0.683578 31.1187 0.506043C31.2291 0.19048 31.4169 0.129173 31.7027 0Z" fill="var(--fill-0, #BABABA)"/>
<path id="Vector_259" d="M48.4306 49.3545C48.8325 49.2289 49.2606 49.452 49.3884 49.8538C49.5156 50.2556 49.2948 50.6849 48.8941 50.8143C48.49 50.9449 48.0569 50.7219 47.9285 50.3172C47.7996 49.9126 48.0249 49.4811 48.4306 49.3545Z" fill="var(--fill-0, #BABABA)"/>
<path id="Vector_260" d="M29.1567 18.5624C30.3372 18.4438 30.5339 19.4886 29.6771 20.0627C28.6691 20.2049 28.3665 19.1633 29.1567 18.5624Z" fill="var(--fill-0, #BABABA)"/>
<path id="Vector_261" d="M33.3037 0.118438C33.3721 0.117653 33.4405 0.118551 33.5088 0.121184C34.4761 0.162486 34.6335 1.10687 33.8467 1.58848C32.7596 1.70219 32.4272 0.541709 33.3037 0.118438Z" fill="var(--fill-0, #BABABA)"/>
<path id="Vector_262" d="M61.1731 23.2281C61.4331 23.1367 61.7228 23.1937 61.929 23.3771C62.1353 23.5605 62.2255 23.8413 62.165 24.1104C62.1044 24.3797 61.9027 24.5947 61.6376 24.6722C61.2431 24.7877 60.8284 24.5678 60.7023 24.1764C60.5762 23.785 60.7853 23.3645 61.1731 23.2281Z" fill="var(--fill-0, #BABABA)"/>
<path id="Vector_263" d="M39.1207 3.11589C39.5522 3.2654 40.1933 3.77004 40.0112 4.29833C39.9333 4.52423 39.643 4.63121 39.444 4.72867C39.1835 4.73987 38.7508 4.59719 38.6203 4.37399C38.2689 3.77234 38.7295 3.3971 39.1207 3.11589Z" fill="var(--fill-0, #BABABA)"/>
<path id="Vector_264" d="M34.8841 0.441081C35.9354 0.532875 36.4156 1.14018 35.496 1.92945C34.4447 2.11562 34.0866 1.11222 34.8841 0.441081Z" fill="var(--fill-0, #BABABA)"/>
<path id="Vector_265" d="M46.5583 22.4422L46.6222 22.5215L46.8828 22.5444C47.1143 22.6105 47.367 22.6639 47.4724 22.9029C47.8775 23.8193 46.3151 24.6678 46.0439 23.4513C45.9912 23.2156 46.1549 23.0083 46.2983 22.83L46.2524 22.6678C46.2877 22.6309 46.5034 22.4816 46.5583 22.4422Z" fill="var(--fill-0, #BABABA)"/>
<path id="Vector_266" d="M46.5583 22.4422L46.6222 22.5215L46.8828 22.5444C46.592 22.5962 46.518 22.6147 46.2983 22.83L46.2524 22.6678C46.2877 22.6309 46.5034 22.4816 46.5583 22.4422Z" fill="var(--fill-0, #BABABA)"/>
<path id="Vector_267" d="M42.9303 59.6542C44.0909 59.6318 44.305 60.6663 43.3394 61.0826C42.1754 61.0036 42.0331 59.8806 42.9303 59.6542Z" fill="var(--fill-0, #BABABA)"/>
<path id="Vector_268" d="M21.3923 59.6928C21.551 59.6749 21.7106 59.6659 21.8704 59.6654C22.6438 59.6693 22.8775 60.4583 22.2561 61.0137C21.2058 61.2199 20.6264 60.4544 21.3923 59.6928Z" fill="var(--fill-0, #BABABA)"/>
<path id="Vector_269" d="M30.2496 59.6928C31.3272 59.5376 31.9504 60.3564 31.0756 61.0199C30.0698 61.2575 29.4875 60.4281 30.2496 59.6928Z" fill="var(--fill-0, #BABABA)"/>
<path id="Vector_270" d="M39.1179 59.6995C39.2473 59.6872 39.3762 59.6788 39.5057 59.6748C40.3558 59.6552 40.7341 60.4695 39.9512 61.0136C38.9621 61.2165 38.3619 60.4398 39.1179 59.6995Z" fill="var(--fill-0, #BABABA)"/>
<path id="Vector_271" d="M47.0605 48.4926C47.4539 48.376 47.8686 48.5963 47.9919 48.9874C48.1151 49.3792 47.9022 49.7972 47.5127 49.9272C47.2549 50.0135 46.9708 49.9536 46.7696 49.7714C46.5679 49.5888 46.4805 49.3119 46.541 49.0468C46.6015 48.7818 46.7999 48.5699 47.0605 48.4926Z" fill="var(--fill-0, #BABABA)"/>
<path id="Vector_272" d="M26.9501 1.11866C27.7857 1.06889 28.3324 2.06557 27.2539 2.61431C26.9138 2.63219 26.586 2.53137 26.4374 2.21912C26.1463 1.60716 26.4956 1.3408 26.9501 1.11866Z" fill="var(--fill-0, #BABABA)"/>
<path id="Vector_273" d="M36.5154 1.05859C37.4159 1.41596 38.0117 1.98101 36.8505 2.63932C35.7331 2.62649 35.6669 1.61031 36.5154 1.05859Z" fill="var(--fill-0, #BABABA)"/>
<path id="Vector_274" d="M33.7991 59.7034C34.2419 59.6417 34.6128 59.6036 34.9177 59.9853C35.2069 60.3467 34.9323 60.7821 34.6285 61.0091C33.612 61.1946 33.0432 60.512 33.7991 59.7034Z" fill="var(--fill-0, #BABABA)"/>
<path id="Vector_275" d="M49.009 45.1969C49.1485 45.193 49.2875 45.1918 49.427 45.193C49.8092 45.1991 50.243 45.4507 50.201 45.8901C50.1679 46.2353 49.9135 46.3922 49.6596 46.5867C48.9126 46.7946 48.1824 45.7971 49.009 45.1969Z" fill="var(--fill-0, #BABABA)"/>
<path id="Vector_276" d="M32.4004 59.6452C32.4889 59.6547 32.7954 59.685 32.8509 59.7298C33.5027 60.2555 33.3009 60.9363 32.5113 61.0731C31.4124 60.9464 31.3653 59.7993 32.4004 59.6452Z" fill="var(--fill-0, #BABABA)"/>
<path id="Vector_277" d="M40.9448 59.7007C41.3718 59.6435 41.7434 59.6093 42.0314 59.9865C42.3369 60.3855 42.0511 60.7834 41.7311 61.0249C40.7145 61.1639 40.1328 60.4477 40.9448 59.7007Z" fill="var(--fill-0, #BABABA)"/>
<path id="Vector_278" d="M44.4748 59.7063C45.544 59.5527 46.2176 60.2515 45.3271 61.0137C44.3207 61.2081 43.7261 60.4516 44.4748 59.7063Z" fill="var(--fill-0, #BABABA)"/>
<path id="Vector_279" d="M32.0759 9.58708C33.0868 9.60131 33.3704 10.6548 32.4603 11.1541C31.3636 10.9958 31.2084 10.2578 32.0759 9.58708Z" fill="var(--fill-0, #BABABA)"/>
<path id="Vector_280" d="M14.4524 59.6985C14.5788 59.6856 14.9062 59.6447 15.0166 59.6727C15.7718 59.8627 15.8838 60.6618 15.2044 61.0356C14.2162 61.2048 13.678 60.4175 14.4524 59.6985Z" fill="var(--fill-0, #BABABA)"/>
<path id="Vector_281" d="M10.9495 59.7039C11.4259 59.6496 11.7588 59.6283 12.0672 60.0564C12.345 60.4425 12.039 60.8219 11.7152 61.0153L11.5082 61.0388C10.6548 61.1363 10.212 60.3574 10.9495 59.7039Z" fill="var(--fill-0, #BABABA)"/>
<path id="Vector_282" d="M40.817 8.00662C41.1987 8.00231 41.6515 8.12408 41.8555 8.47792C41.9317 8.60793 41.9502 8.76356 41.9076 8.90792C41.8302 9.16789 41.6447 9.26467 41.4284 9.40085C40.3962 9.62484 39.9658 8.71155 40.817 8.00662Z" fill="var(--fill-0, #BABABA)"/>
<path id="Vector_283" d="M28.6913 0.462728C29.4776 0.556259 29.5781 1.80467 28.4807 2.01823C27.527 1.62382 27.5394 0.673103 28.6913 0.462728Z" fill="var(--fill-0, #BABABA)"/>
<path id="Vector_284" d="M37.6267 59.6496C38.7727 59.6899 38.9021 60.6762 37.9624 61.0635C36.9228 61.1509 36.6224 59.9018 37.6267 59.6496Z" fill="var(--fill-0, #BABABA)"/>
<path id="Vector_285" d="M23.1737 59.6884C23.453 59.6783 23.8028 59.6318 24.0543 59.7758C24.5945 60.0851 24.4167 60.571 24.0957 60.9829C23.0237 61.2782 22.4625 60.5306 23.1737 59.6884Z" fill="var(--fill-0, #BABABA)"/>
<path id="Vector_286" d="M19.6655 59.6974C19.8136 59.6805 20.1852 59.6374 20.3178 59.6811C21.0517 59.921 21.056 60.6405 20.4762 61.0104C19.5174 61.2194 18.9247 60.4937 19.6655 59.6974Z" fill="var(--fill-0, #BABABA)"/>
<path id="Vector_287" d="M35.867 59.6502C36.9794 59.7012 37.1582 60.7027 36.168 61.0703C34.9978 61.0294 34.9625 59.8492 35.867 59.6502Z" fill="var(--fill-0, #BABABA)"/>
<path id="Vector_288" d="M27.0512 59.6502C27.151 59.6581 27.4715 59.6777 27.5382 59.7315C28.2061 60.2661 27.92 60.9537 27.1615 61.0899C26.1018 60.9033 26.0896 59.8099 27.0512 59.6502Z" fill="var(--fill-0, #BABABA)"/>
<path id="Vector_289" d="M28.5068 59.6973C29.6341 59.5348 30.138 60.3939 29.2749 61.0159C28.2989 61.2435 27.7034 60.4264 28.5068 59.6973Z" fill="var(--fill-0, #BABABA)"/>
<path id="Vector_290" d="M53.5342 59.6473C54.655 59.6008 54.8551 60.6527 53.968 61.0573C53.4961 61.0579 53.2232 61.0203 53.017 60.544C52.9419 60.3691 52.9481 60.1702 53.0349 60.0009C53.1543 59.7706 53.3011 59.7062 53.5342 59.6473Z" fill="var(--fill-0, #BABABA)"/>
<path id="Vector_291" d="M50.0015 59.6452C51.1183 59.6396 51.3285 60.6539 50.4117 61.0585C50.2878 61.0557 50.0183 61.0557 49.9107 61.007C49.6949 60.9067 49.5302 60.7217 49.4545 60.4959C49.3071 60.0526 49.594 59.7567 50.0015 59.6452Z" fill="var(--fill-0, #BABABA)"/>
<path id="Vector_292" d="M37.871 1.95638C38.1036 1.9849 38.5642 2.27693 38.6841 2.46948C39.0142 2.9999 38.5765 3.30779 38.2257 3.55212C37.3078 3.74361 36.9844 2.6988 37.871 1.95638Z" fill="var(--fill-0, #BABABA)"/>
<path id="Vector_293" d="M30.8447 18.6732C31.9167 18.6567 32.1174 19.7405 31.2588 20.1508C30.1855 20.1456 29.9146 19.0806 30.8447 18.6732Z" fill="var(--fill-0, #BABABA)"/>
<path id="Vector_294" d="M55.1941 59.6429C55.5578 59.6592 55.7999 59.6199 56.0723 59.9046C56.4696 60.3199 56.2264 60.7402 55.8223 61.031C54.6449 61.1207 54.3177 60.0324 55.1941 59.6429Z" fill="var(--fill-0, #BABABA)"/>
<path id="Vector_295" d="M24.9409 59.6911C25.0842 59.6844 25.4281 59.6575 25.554 59.6883C26.302 59.8733 26.3447 60.6954 25.6959 61.0333C24.6763 61.1482 24.2298 60.4841 24.9409 59.6911Z" fill="var(--fill-0, #BABABA)"/>
<path id="Vector_296" d="M16.2129 14.5458C17.3498 14.3971 17.677 15.3733 16.7796 15.8645C16.6886 15.8686 16.3555 15.8894 16.2866 15.8636C15.4778 15.5612 15.4927 14.9014 16.2129 14.5458Z" fill="var(--fill-0, #BABABA)"/>
<path id="Vector_297" d="M16.2225 59.6962C16.6959 59.6654 16.9945 59.6307 17.3064 60.0554C17.5743 60.4203 17.3041 60.8187 16.9991 61.0322C16.0442 61.2497 15.4137 60.4421 16.2225 59.6962Z" fill="var(--fill-0, #BABABA)"/>
<path id="Vector_298" d="M31.089 13.0737C31.4768 12.983 31.8669 13.2145 31.9733 13.5983C32.0798 13.9822 31.8646 14.3817 31.4852 14.5036C31.2258 14.5871 30.9416 14.5217 30.7449 14.3333C30.5478 14.145 30.4699 13.8639 30.5417 13.601C30.6135 13.3382 30.8234 13.1357 31.089 13.0737Z" fill="var(--fill-0, #BABABA)"/>
<path id="Vector_299" d="M17.9176 59.6974C18.3621 59.6441 18.6829 59.6038 18.9977 59.9641C19.3075 60.3188 19.0798 60.7812 18.749 61.0081C17.7585 61.2177 17.1767 60.4035 17.9176 59.6974Z" fill="var(--fill-0, #BABABA)"/>
<path id="Vector_300" d="M3.89301 28.4755C5.04604 28.4322 5.2066 29.5277 4.34969 29.8892C3.25063 29.8675 2.96622 28.8553 3.89301 28.4755Z" fill="var(--fill-0, #BABABA)"/>
<path id="Vector_301" d="M48.2457 59.6475C49.3262 59.5914 49.5672 60.6528 48.7019 61.0558C48.2306 61.0485 47.9549 61.0249 47.7425 60.5542C47.5351 60.0947 47.845 59.7769 48.2457 59.6475Z" fill="var(--fill-0, #BABABA)"/>
<path id="Vector_302" d="M57.0547 59.6507C57.1673 59.653 57.4828 59.6558 57.5736 59.7062C58.2063 60.0609 58.2007 60.7665 57.5131 61.0344C57.4038 61.0372 57.0861 61.0506 56.9992 61.0063C56.3502 60.6757 56.2527 59.8525 57.0547 59.6507Z" fill="var(--fill-0, #BABABA)"/>
<path id="Vector_303" d="M58.7359 59.6345C59.2733 59.6176 59.8488 59.7533 59.7614 60.5406C59.7401 60.7323 59.5344 60.9279 59.3635 61.0259C58.9023 61.0467 58.5745 61.0657 58.3189 60.614C58.083 60.1982 58.3912 59.8284 58.7359 59.6345Z" fill="var(--fill-0, #BABABA)"/>
<path id="Vector_304" d="M46.6172 59.6514C47.6545 59.6783 47.7604 60.859 46.787 61.0725C45.7564 61.0714 45.6068 59.8027 46.6172 59.6514Z" fill="var(--fill-0, #BABABA)"/>
<path id="Vector_305" d="M4.07032 59.6978C4.20442 59.6888 4.52559 59.6552 4.64843 59.6843C5.39438 59.862 5.42021 60.6942 4.78337 61.0226C3.81433 61.2596 3.29865 60.2363 4.07032 59.6978Z" fill="var(--fill-0, #BABABA)"/>
<path id="Vector_306" d="M33.0095 15.555C33.4136 15.495 33.7896 15.7744 33.8484 16.1784C33.9073 16.5824 33.6265 16.9573 33.2225 17.015C32.8201 17.0725 32.4469 16.7934 32.388 16.391C32.3297 15.9887 32.6077 15.6148 33.0095 15.555Z" fill="var(--fill-0, #BABABA)"/>
<path id="Vector_307" d="M15.7986 23.2273C16.0665 23.1865 16.3352 23.296 16.4982 23.5125C16.6612 23.7289 16.6923 24.0174 16.5791 24.2636C16.4659 24.5098 16.2267 24.674 15.9563 24.6912C15.5627 24.7161 15.2192 24.4268 15.177 24.0347C15.1347 23.6426 15.4087 23.2867 15.7986 23.2273Z" fill="var(--fill-0, #BABABA)"/>
<path id="Vector_308" d="M30.0111 11.7588C30.3894 11.6212 30.8083 11.8126 30.9517 12.1887C31.0952 12.5648 30.9102 12.9865 30.5363 13.1358C30.2892 13.2343 30.0082 13.1922 29.801 13.0254C29.5938 12.8586 29.4925 12.5931 29.536 12.3307C29.5796 12.0684 29.7611 11.8497 30.0111 11.7588Z" fill="var(--fill-0, #BABABA)"/>
<path id="Vector_309" d="M66.4532 50.3448C67.4787 50.245 67.8357 51.1809 66.994 51.7009C66.5187 51.7054 66.2055 51.7082 65.9544 51.2386C65.7325 50.8222 66.1214 50.4927 66.4532 50.3448Z" fill="var(--fill-0, #BABABA)"/>
<path id="Vector_310" d="M51.528 59.6827C51.9018 59.6637 52.1618 59.6009 52.4846 59.848C52.9223 60.1832 52.753 60.6545 52.4033 60.9868C51.4086 61.2199 50.8073 60.4202 51.528 59.6827Z" fill="var(--fill-0, #BABABA)"/>
<path id="Vector_311" d="M12.7081 59.6984C13.0435 59.6642 13.3156 59.6076 13.594 59.8379C14.0653 60.228 13.9105 60.6751 13.5008 61.0299C12.5145 61.1352 11.9307 60.488 12.7081 59.6984Z" fill="var(--fill-0, #BABABA)"/>
<path id="Vector_312" d="M32.1588 14.2977C33.2864 14.5015 33.1362 15.5188 32.1796 15.753C31.219 15.5917 31.0834 14.6372 32.1588 14.2977Z" fill="var(--fill-0, #BABABA)"/>
<path id="Vector_313" d="M7.75631 24.0652C8.14815 23.9675 8.54513 24.2053 8.64387 24.5969C8.74262 24.9884 8.5059 25.3861 8.11457 25.4859C7.72179 25.5861 7.32234 25.3482 7.22326 24.9552C7.12412 24.5621 7.36302 24.1633 7.75631 24.0652Z" fill="var(--fill-0, #BABABA)"/>
<path id="Vector_314" d="M9.22847 59.6984C9.66458 59.6541 10.0019 59.6283 10.2791 60.0234C10.5509 60.4106 10.2974 60.8051 9.9654 61.0265C8.99596 61.1509 8.44352 60.4207 9.22847 59.6984Z" fill="var(--fill-0, #BABABA)"/>
<path id="Vector_315" d="M25.7389 1.86003C26.5465 2.0815 26.8408 3.1865 25.7289 3.48373C24.6406 3.16671 24.9556 2.36153 25.7389 1.86003Z" fill="var(--fill-0, #BABABA)"/>
<path id="Vector_316" d="M7.46259 59.6995C7.8125 59.681 8.06182 59.6278 8.37711 59.8346C8.84246 60.14 8.69312 60.6203 8.35979 60.9778C7.36424 61.2165 6.82653 60.5435 7.46259 59.6995Z" fill="var(--fill-0, #BABABA)"/>
<path id="Vector_317" d="M5.77622 28.5256C6.23413 28.504 6.91048 28.531 6.85707 29.3147C6.84188 29.5377 6.64143 29.7184 6.45162 29.8385C5.97971 29.8901 5.39044 29.8806 5.37946 29.1559C5.37559 28.8977 5.57683 28.6831 5.77622 28.5256Z" fill="var(--fill-0, #BABABA)"/>
<path id="Vector_318" d="M32.3695 18.6682C32.494 18.665 32.6184 18.6754 32.7405 18.6994C33.4153 18.8315 33.4797 19.7019 32.833 20.1199C31.7537 20.1963 31.59 19.1299 32.3695 18.6682Z" fill="var(--fill-0, #BABABA)"/>
<path id="Vector_319" d="M16.5726 28.5367C16.8946 28.5206 17.1958 28.4672 17.48 28.6647C17.9603 28.9986 17.7297 29.4817 17.3741 29.8153C17.3112 29.8253 17.2481 29.8344 17.1849 29.8427C16.3106 29.9554 15.9725 29.1123 16.5726 28.5367Z" fill="var(--fill-0, #BABABA)"/>
<path id="Vector_320" d="M39.8784 28.5368C40.8053 28.4953 41.5287 28.9232 40.6943 29.7929C39.6508 30.053 39.1638 29.2045 39.8784 28.5368Z" fill="var(--fill-0, #BABABA)"/>
<path id="Vector_321" d="M5.82841 59.7338C6.16224 59.5354 6.5933 59.6396 6.79964 59.9686C7.00604 60.297 6.91229 60.7307 6.58843 60.9448C6.37189 61.0883 6.09472 61.1028 5.86422 60.9835C5.63379 60.8635 5.48623 60.6287 5.47878 60.3687C5.47138 60.1092 5.6052 59.866 5.82841 59.7338Z" fill="var(--fill-0, #BABABA)"/>
<path id="Vector_322" d="M20.1538 28.5405C20.2048 28.5363 20.2558 28.5325 20.3069 28.5289C21.2633 28.4635 21.6872 29.1174 20.9562 29.8143C20.8434 29.8355 20.7296 29.8511 20.6153 29.8611C19.8984 29.921 19.5932 29.1045 20.1538 28.5405Z" fill="var(--fill-0, #BABABA)"/>
<path id="Vector_323" d="M12.9902 28.5357C13.008 28.5348 13.0259 28.5339 13.0437 28.533L13.1331 28.5303C14.1128 28.4948 14.5436 29.1867 13.7335 29.8276C12.7213 29.9672 12.289 29.1782 12.9902 28.5357Z" fill="var(--fill-0, #BABABA)"/>
<path id="Vector_324" d="M43.419 28.537C44.3616 28.4963 45.0027 28.7872 44.3027 29.8047C43.285 30.0831 42.7577 29.2372 43.419 28.537Z" fill="var(--fill-0, #BABABA)"/>
<path id="Vector_325" d="M52.498 28.538C52.8567 28.5202 53.1795 28.4664 53.4552 28.745C53.8161 29.1094 53.5398 29.5394 53.2339 29.8174C52.1668 30.0368 51.7959 29.0693 52.498 28.538Z" fill="var(--fill-0, #BABABA)"/>
<path id="Vector_326" d="M23.7297 28.5351C24.0416 28.5229 24.3454 28.4752 24.6166 28.6716C25.0839 29.0101 24.8876 29.4771 24.5412 29.8232C24.4623 29.8368 24.3828 29.8475 24.3031 29.8553C23.4771 29.938 23.1441 29.1651 23.7297 28.5351Z" fill="var(--fill-0, #BABABA)"/>
<path id="Vector_327" d="M48.8644 28.5363C49.2259 28.5296 49.501 28.4631 49.793 28.7326C50.2083 29.1158 49.9695 29.5452 49.6081 29.8428C48.5836 29.9962 48.2115 29.1235 48.8644 28.5363Z" fill="var(--fill-0, #BABABA)"/>
<path id="Vector_328" d="M47.042 28.5374C47.4001 28.5177 47.6904 28.4674 47.9784 28.7338C48.332 29.0617 48.1437 29.4996 47.8618 29.8041C46.8621 30.0987 46.37 29.2405 47.042 28.5374Z" fill="var(--fill-0, #BABABA)"/>
<path id="Vector_329" d="M56.1126 28.5419C57.0732 28.4933 57.7215 29.0025 56.8753 29.801C55.8801 30.0767 55.4245 29.2309 56.1126 28.5419Z" fill="var(--fill-0, #BABABA)"/>
<path id="Vector_330" d="M50.6756 28.5417C51.0601 28.526 51.3862 28.4629 51.6614 28.7928C51.9937 29.1912 51.7174 29.572 51.3985 29.8387C51.3436 29.8465 51.2893 29.8535 51.2343 29.8597C50.3881 29.9526 50.0704 29.1343 50.6756 28.5417Z" fill="var(--fill-0, #BABABA)"/>
<path id="Vector_331" d="M34.5103 28.5349C34.8454 28.5208 35.0964 28.469 35.38 28.705C35.7908 29.0467 35.6215 29.5051 35.2646 29.8238C34.2379 30.0262 33.8154 29.1712 34.5103 28.5349Z" fill="var(--fill-0, #BABABA)"/>
<path id="Vector_332" d="M7.58471 28.5377C8.02009 28.5168 8.71358 28.4968 8.69156 29.2567C8.68551 29.4638 8.49688 29.7034 8.33341 29.8382C8.01213 29.8676 7.74689 29.926 7.48983 29.686C7.09329 29.3159 7.24505 28.8686 7.58471 28.5377Z" fill="var(--fill-0, #BABABA)"/>
<path id="Vector_333" d="M33.7532 7.42293C34.4587 7.18196 34.8835 8.5861 33.6719 8.70777C32.6688 8.58291 32.6716 7.52919 33.7532 7.42293Z" fill="var(--fill-0, #BABABA)"/>
<path id="Vector_334" d="M45.27 28.5327C45.6651 28.5217 45.9632 28.4576 46.2378 28.8163C46.5174 29.1824 46.2938 29.6051 45.9823 29.857C45.924 29.8628 45.8657 29.8679 45.8074 29.8723C44.9472 29.9333 44.6502 29.1064 45.27 28.5327Z" fill="var(--fill-0, #BABABA)"/>
<path id="Vector_335" d="M30.8957 28.5356C31.8472 28.4981 32.4665 28.9369 31.715 29.8039C30.7236 30.0412 30.2283 29.2582 30.8957 28.5356Z" fill="var(--fill-0, #BABABA)"/>
<path id="Vector_336" d="M11.2011 28.5323C11.6039 28.5205 11.8815 28.4591 12.1673 28.8127C12.4603 29.1753 12.2483 29.591 11.9303 29.8418C11.5745 29.8749 11.3113 29.9223 11.0505 29.6305C10.7036 29.2423 10.877 28.8373 11.2011 28.5323Z" fill="var(--fill-0, #BABABA)"/>
<path id="Vector_337" d="M18.3705 28.542C18.6783 28.5235 18.9691 28.4709 19.2395 28.6665C19.6969 28.9974 19.5119 29.4807 19.164 29.8227C19.0382 29.8539 18.9093 29.8713 18.7798 29.8745C18.1074 29.8923 17.854 29.0515 18.3705 28.542Z" fill="var(--fill-0, #BABABA)"/>
<path id="Vector_338" d="M9.4068 28.535C9.80351 28.52 10.0608 28.4611 10.3504 28.7923C10.6556 29.1415 10.4432 29.5861 10.1378 29.8387C9.78053 29.8719 9.52034 29.9219 9.2556 29.6329C8.88843 29.2323 9.06361 28.8412 9.4068 28.535Z" fill="var(--fill-0, #BABABA)"/>
<path id="Vector_339" d="M36.3052 28.5375C36.6236 28.5231 36.8763 28.4735 37.1537 28.6802C37.6003 29.0128 37.4104 29.4963 37.0668 29.8341C36.98 29.8436 36.8925 29.8516 36.8057 29.8581C36.0116 29.9145 35.7028 29.0917 36.3052 28.5375Z" fill="var(--fill-0, #BABABA)"/>
<path id="Vector_340" d="M54.3194 28.5404C54.6775 28.5218 54.9795 28.4686 55.2474 28.7678C55.5859 29.1453 55.3505 29.5464 55.0238 29.8267C53.9792 29.963 53.6323 29.2133 54.3194 28.5404Z" fill="var(--fill-0, #BABABA)"/>
<path id="Vector_341" d="M47.8232 23.6584C48.9076 23.7424 48.9748 24.5982 48.0714 25.0435C47.7313 25.026 47.432 24.9099 47.283 24.5785C47.2084 24.4155 47.2101 24.2276 47.288 24.0662C47.4006 23.8349 47.599 23.7477 47.8232 23.6584Z" fill="var(--fill-0, #BABABA)"/>
<path id="Vector_342" d="M32.7282 28.5343C33.0303 28.5222 33.2836 28.4713 33.5425 28.6727C33.9796 29.0129 33.8075 29.501 33.4506 29.8387C33.0958 29.8725 32.8336 29.9299 32.5713 29.6405C32.216 29.2483 32.3751 28.8339 32.7282 28.5343Z" fill="var(--fill-0, #BABABA)"/>
<path id="Vector_343" d="M21.9777 28.546C22.3838 28.5223 22.6602 28.4595 22.9463 28.8204C23.2315 29.1802 23.0311 29.5912 22.7203 29.841C22.2358 29.8882 21.6805 29.8427 21.6555 29.1469C21.6469 28.9044 21.8025 28.7086 21.9777 28.546Z" fill="var(--fill-0, #BABABA)"/>
<path id="Vector_344" d="M38.0761 28.5346C38.3709 28.5225 38.6326 28.472 38.8881 28.6599C39.3488 28.9991 39.2171 29.4584 38.8506 29.8199C38.757 29.839 38.6623 29.8521 38.567 29.8589C37.7645 29.9241 37.5039 29.1145 38.0761 28.5346Z" fill="var(--fill-0, #BABABA)"/>
<path id="Vector_345" d="M25.554 28.5372C25.9311 28.519 26.1855 28.4615 26.4681 28.7633C26.8094 29.128 26.6097 29.5425 26.3006 29.8342C26.2034 29.8482 26.106 29.8597 26.0083 29.8684C25.2835 29.9267 24.9451 29.0905 25.554 28.5372Z" fill="var(--fill-0, #BABABA)"/>
<path id="Vector_346" d="M29.1185 28.5362C29.4442 28.522 29.6873 28.4661 29.9682 28.6831C30.3805 29.0017 30.2125 29.5034 29.8893 29.8344C28.8754 29.9675 28.4309 29.2151 29.1185 28.5362Z" fill="var(--fill-0, #BABABA)"/>
<path id="Vector_347" d="M14.8672 28.5736C15.0897 28.4537 15.3595 28.4632 15.5731 28.5983C15.7866 28.7333 15.9109 28.973 15.898 29.2254C15.8852 29.4777 15.7374 29.7036 15.5113 29.8163C15.1691 29.9869 14.7534 29.8514 14.5775 29.512C14.4016 29.1725 14.5306 28.7547 14.8672 28.5736Z" fill="var(--fill-0, #BABABA)"/>
<path id="Vector_348" d="M33.8804 18.7554C34.243 18.6539 34.6207 18.8574 34.7356 19.2158C34.8499 19.5743 34.661 19.9593 34.3069 20.0873C34.0659 20.1744 33.7969 20.1229 33.6047 19.953C33.413 19.7832 33.3295 19.5221 33.3872 19.2724C33.4444 19.0227 33.6338 18.8244 33.8804 18.7554Z" fill="var(--fill-0, #BABABA)"/>
<path id="Vector_349" d="M41.6795 28.5357C42.1183 28.5163 42.7678 28.5058 42.7655 29.2552C42.765 29.4661 42.5756 29.7036 42.408 29.8387C42.0611 29.8742 41.8 29.9232 41.5388 29.6404C41.2009 29.2744 41.3466 28.836 41.6795 28.5357Z" fill="var(--fill-0, #BABABA)"/>
<path id="Vector_350" d="M27.3445 28.5369C27.4517 28.532 27.5748 28.5235 27.682 28.5255C28.4955 28.5412 28.7107 29.3955 28.0519 29.8375C27.064 29.9676 26.6585 29.1435 27.3445 28.5369Z" fill="var(--fill-0, #BABABA)"/>
<path id="Vector_351" d="M57.93 28.5349C58.9012 28.4848 59.447 29.0082 58.6798 29.8172C57.6902 30.0932 57.2912 29.1596 57.93 28.5349Z" fill="var(--fill-0, #BABABA)"/>
</g>
</svg>
