<svg preserveAspectRatio="none" width="100%" height="100%" overflow="visible" style="display: block;" viewBox="0 0 71.002 48" fill="none" xmlns="http://www.w3.org/2000/svg">
<g id="Group 48095672" opacity="0.48">
<path id="Vector" d="M70.8957 40.2251C70.6099 40.9772 69.4977 41.0943 69.1508 40.2308C69.0714 40.0343 69.0766 39.8138 69.1649 39.6211C69.4916 38.9165 70.6216 38.8079 70.9004 39.7706C70.9032 39.9182 70.9121 40.0794 70.8957 40.2251Z" fill="var(--fill-0, #BABABA)"/>
<path id="Vector_2" d="M69.6645 24.0207C70.2747 24.0084 70.6813 23.9935 70.9055 24.6415C70.9126 24.7976 70.9299 25.0052 70.9064 25.1532C70.3019 26.5391 68.0353 25.066 69.6645 24.0207Z" fill="var(--fill-0, #BABABA)"/>
<path id="Vector_3" d="M70.9082 38.456C70.5533 38.9646 69.7316 39.0412 69.4237 38.6567C68.6199 37.6522 69.9229 36.4455 70.9228 37.7185C70.95 38.047 70.9589 38.1255 70.9082 38.456Z" fill="var(--fill-0, #BABABA)"/>
<path id="Vector_4" d="M70.909 28.9996C70.6213 29.3244 70.2292 29.5223 69.7864 29.4105C69.5702 29.3573 69.3841 29.2191 69.2717 29.0269C69.1448 28.805 69.1194 28.539 69.2017 28.2969C69.2689 28.0976 69.4165 27.9354 69.6083 27.8494C70.1409 27.6082 70.6838 27.8038 70.9249 28.3382C70.9358 28.6043 70.9433 28.7298 70.909 28.9996Z" fill="var(--fill-0, #BABABA)"/>
<path id="Vector_5" d="M70.9215 27.1149C70.5365 27.663 69.8178 27.7899 69.3689 27.2568C69.2067 27.066 69.1315 26.8164 69.1602 26.5672C69.2396 25.8951 69.9348 25.9007 70.443 25.9571C70.6963 26.1197 70.7673 26.1884 70.9262 26.4389L70.9215 27.1149Z" fill="var(--fill-0, #BABABA)"/>
<path id="Vector_6" d="M70.9049 32.6465C70.5547 33.1923 70.2769 33.2435 69.6132 33.1001C69.1478 32.9995 69.0317 32.4881 69.1934 32.0792C69.2841 31.8441 69.4656 31.6561 69.6968 31.5569C70.2459 31.3195 70.6609 31.6053 70.8922 32.1092C70.911 32.318 70.9293 32.4374 70.9049 32.6465Z" fill="var(--fill-0, #BABABA)"/>
<path id="Vector_7" d="M68.0052 44.6872C68.3324 44.5744 68.6948 44.6473 68.9524 44.8776C69.2104 45.1079 69.3237 45.46 69.248 45.7975C69.1728 46.135 68.9209 46.4053 68.5895 46.504C68.0917 46.6525 67.5671 46.3761 67.4077 45.8816C67.2489 45.3871 67.5144 44.8564 68.0052 44.6872Z" fill="var(--fill-0, #BABABA)"/>
<path id="Vector_8" d="M4.22739 0.00893507C5.04511 -0.0379772 5.56077 0.357346 5.32766 1.30166C5.25509 1.59559 4.98973 1.77247 4.72279 1.90202C3.88946 1.98941 3.3298 1.34768 3.61442 0.516041C3.72169 0.202602 3.93623 0.120857 4.22739 0.00893507Z" fill="var(--fill-0, #BABABA)"/>
<path id="Vector_9" d="M66.2025 0.0310148C66.7045 -0.100227 67.2192 0.196947 67.3565 0.697659C67.4937 1.19837 67.2028 1.71633 66.7036 1.85956C66.3755 1.95376 66.022 1.86421 65.7785 1.62519C65.5345 1.38611 65.4381 1.03446 65.526 0.704569C65.6135 0.374631 65.872 0.117365 66.2025 0.0310148Z" fill="var(--fill-0, #BABABA)"/>
<path id="Vector_10" d="M68.0529 1.61072C68.3838 1.52559 68.7345 1.62538 68.9709 1.87184C69.2074 2.11824 69.2929 2.473 69.1942 2.79998C69.0955 3.12695 68.8285 3.37538 68.4947 3.44984C67.9908 3.56251 67.4897 3.25001 67.3689 2.7478C67.2481 2.24558 67.5527 1.73942 68.0529 1.61072Z" fill="var(--fill-0, #BABABA)"/>
<path id="Vector_11" d="M4.23894 46.137C4.5466 46.0684 4.86817 46.1581 5.09582 46.3763C5.35022 46.6197 5.44757 46.985 5.34825 47.323C5.24892 47.6609 4.96947 47.9152 4.62374 47.9825C4.11753 48.0807 3.62626 47.7545 3.52102 47.2496C3.41577 46.7448 3.7356 46.2489 4.23894 46.137Z" fill="var(--fill-0, #BABABA)"/>
<path id="Vector_12" d="M66.1323 46.1334C66.6216 45.967 67.1533 46.2256 67.3244 46.713C67.4955 47.2 67.2421 47.7345 66.7565 47.9103C66.2644 48.0884 65.721 47.8308 65.5475 47.3368C65.3741 46.8428 65.6368 46.3022 66.1323 46.1334Z" fill="var(--fill-0, #BABABA)"/>
<path id="Vector_13" d="M8.41097 0.0145133C9.75986 -0.0566543 9.95828 1.51872 8.80093 1.88104C8.34812 1.89951 8.00568 1.78905 7.81836 1.33558C7.71871 1.09166 7.71847 0.818463 7.8177 0.574359C7.94382 0.2691 8.12479 0.143264 8.41097 0.0145133Z" fill="var(--fill-0, #BABABA)"/>
<path id="Vector_14" d="M69.7935 3.15099C70.2669 3.09961 70.6378 3.20256 70.853 3.66444C70.9762 3.92617 70.9833 4.22781 70.8718 4.49495C70.7449 4.79927 70.555 4.88444 70.2664 4.9958C70.1249 5.0107 69.9689 5.03317 69.8325 4.99115C69.5872 4.91288 69.3817 4.74267 69.2595 4.51624C69.1284 4.27364 69.1077 3.98662 69.2022 3.72771C69.3164 3.41282 69.5101 3.29032 69.7935 3.15099Z" fill="var(--fill-0, #BABABA)"/>
<path id="Vector_15" d="M64.1377 0.0101606C64.2162 0.00569498 64.2947 0.00292118 64.3732 0.00179303C64.7629 -0.00154442 64.8847 0.151367 65.1427 0.411923C65.2852 1.17747 65.3181 1.49067 64.5636 1.86085C63.27 2.04003 63.0829 0.339581 64.1377 0.0101606Z" fill="var(--fill-0, #BABABA)"/>
<path id="Vector_16" d="M22.5445 0.0388869C23.0361 -0.0590743 23.5159 0.254176 23.6239 0.743794C23.7319 1.23336 23.4285 1.71941 22.9412 1.8374C22.6171 1.9159 22.2758 1.813 22.049 1.56843C21.8222 1.3238 21.7454 0.975677 21.8482 0.658384C21.951 0.341044 22.2173 0.104085 22.5445 0.0388869Z" fill="var(--fill-0, #BABABA)"/>
<path id="Vector_17" d="M10.3831 0.0531277C10.8247 0.00555735 11.1693 0.01322 11.4469 0.41832C11.5971 0.639532 11.6449 0.914707 11.5781 1.17362C11.4886 1.52316 11.2952 1.68542 10.9992 1.85352C9.71339 2.04836 9.39252 0.684 10.3831 0.0531277Z" fill="var(--fill-0, #BABABA)"/>
<path id="Vector_18" d="M60.0836 0.0156555C60.5527 0.0174888 60.901 0.0680682 61.1187 0.551857C61.2348 0.807102 61.2376 1.09953 61.1271 1.35708C60.9955 1.65547 60.8108 1.77228 60.5212 1.88044C60.3727 1.88369 60.2138 1.89177 60.0709 1.84914C59.8354 1.7791 59.6384 1.6174 59.5233 1.40042C59.2111 0.806162 59.535 0.288245 60.0836 0.0156555Z" fill="var(--fill-0, #BABABA)"/>
<path id="Vector_19" d="M54.2708 0.00521851C55.5658 0.113333 55.563 1.54073 54.5119 1.89741C53.286 1.89163 53.0439 0.307939 54.2708 0.00521851Z" fill="var(--fill-0, #BABABA)"/>
<path id="Vector_20" d="M16.7621 0.0121765C17.1898 0.0425896 17.5137 0.254776 17.6097 0.691559C17.6723 0.976229 17.6172 1.27411 17.457 1.5176C17.2827 1.7837 17.0921 1.82916 16.8008 1.89925C16.308 1.87142 15.944 1.61241 15.8665 1.10164C15.8216 0.82219 15.9003 0.537003 16.0822 0.320209C16.2787 0.0879981 16.4773 0.0416025 16.7621 0.0121765Z" fill="var(--fill-0, #BABABA)"/>
<path id="Vector_21" d="M52.2696 0.0191351C52.7439 -0.0137693 53.1124 0.185491 53.2351 0.668199C53.3065 0.952634 53.2581 1.25404 53.1002 1.50143C52.9366 1.76011 52.7481 1.81666 52.4684 1.88778C51.2853 1.88364 51.1099 0.219993 52.2696 0.0191351Z" fill="var(--fill-0, #BABABA)"/>
<path id="Vector_22" d="M6.41962 0.00858559C7.68376 -0.0508304 7.8974 1.53418 6.78044 1.87098C6.64783 1.87883 6.52947 1.8879 6.39997 1.85274C6.15643 1.78646 5.95096 1.62278 5.8318 1.4003C5.50817 0.787856 5.83641 0.264253 6.41962 0.00858559Z" fill="var(--fill-0, #BABABA)"/>
<path id="Vector_23" d="M46.3574 0.0112977C46.8007 -0.00144096 47.1339 0.124395 47.2905 0.577771C47.3826 0.852382 47.3605 1.15261 47.2284 1.41053C47.0672 1.72595 46.8768 1.79782 46.56 1.89023C45.3543 1.80388 45.2034 0.261512 46.3574 0.0112977Z" fill="var(--fill-0, #BABABA)"/>
<path id="Vector_24" d="M40.3625 0.0112492C40.5421 0.00349313 40.7028 -0.00976295 40.8683 0.0679385C41.0944 0.176523 41.2679 0.370377 41.3506 0.606913C41.4441 0.869867 41.4258 1.15966 41.2998 1.40865C41.1471 1.70902 40.968 1.78997 40.6671 1.87952C39.4511 1.90551 39.264 0.34993 40.3625 0.0112492Z" fill="var(--fill-0, #BABABA)"/>
<path id="Vector_25" d="M42.1402 0.0577012C42.8105 0.0127631 42.9802 -0.0146875 43.3661 0.57999C43.4112 1.22351 43.399 1.43959 42.826 1.8116C41.6786 2.14112 41.1404 0.831754 42.1402 0.0577012Z" fill="var(--fill-0, #BABABA)"/>
<path id="Vector_26" d="M2.5803 1.60196C2.71478 1.59561 2.8834 1.6037 3.0105 1.65019C3.26236 1.74001 3.46299 1.93457 3.56043 2.18357C3.66229 2.44859 3.64819 2.74416 3.5216 2.99833C3.37146 3.29715 3.19622 3.38791 2.89703 3.48818C1.62292 3.46077 1.49657 2.03484 2.5803 1.60196Z" fill="var(--fill-0, #BABABA)"/>
<path id="Vector_27" d="M48.3705 0.010437C49.5978 0.112676 49.666 1.54171 48.5129 1.89591C47.2748 1.8206 47.2123 0.183561 48.3705 0.010437Z" fill="var(--fill-0, #BABABA)"/>
<path id="Vector_28" d="M2.54739 44.7941C3.0498 44.7405 3.50012 45.1053 3.55206 45.6078C3.604 46.1103 3.23777 46.5597 2.73504 46.61C2.23457 46.6603 1.78786 46.296 1.73616 45.7953C1.68445 45.2952 2.04725 44.8472 2.54739 44.7941Z" fill="var(--fill-0, #BABABA)"/>
<path id="Vector_29" d="M34.4069 0.00521851C35.1575 0.0206366 35.6243 0.380329 35.441 1.25977C35.3794 1.55488 35.1265 1.72969 34.8614 1.8576C34.7157 1.87931 34.5333 1.88373 34.3909 1.845C34.1572 1.78394 33.9591 1.6291 33.8433 1.4171C33.5125 0.80395 33.8481 0.289466 34.4069 0.00521851Z" fill="var(--fill-0, #BABABA)"/>
<path id="Vector_30" d="M18.5453 0.00381892C18.7174 -0.00196286 18.8941 5.94691e-05 19.0547 0.0671845C19.2873 0.166321 19.4678 0.358341 19.5523 0.59671C19.6491 0.866338 19.6282 1.16422 19.4946 1.41763C19.3393 1.70714 19.1474 1.79091 18.8509 1.88092C17.9206 1.89578 17.7896 1.21907 17.938 0.463871C18.1447 0.214267 18.2424 0.114472 18.5453 0.00381892Z" fill="var(--fill-0, #BABABA)"/>
<path id="Vector_31" d="M20.4648 0.00761961C20.9101 -0.00187567 21.2898 0.0869192 21.5014 0.529343C21.6096 0.756242 21.6235 1.0168 21.54 1.2539C21.4201 1.59451 21.2366 1.70596 20.9339 1.85784C19.7511 2.00487 19.4004 0.627727 20.4648 0.00761961Z" fill="var(--fill-0, #BABABA)"/>
<path id="Vector_32" d="M52.2321 46.1625C52.5598 46.1305 52.8785 46.2776 53.0665 46.5479C53.2545 46.8177 53.2818 47.1684 53.1379 47.4641C52.9946 47.7602 52.7022 47.9553 52.3736 47.9746C51.8796 48.0037 51.4528 47.6314 51.4142 47.1378C51.3757 46.6443 51.7395 46.2104 52.2321 46.1625Z" fill="var(--fill-0, #BABABA)"/>
<path id="Vector_33" d="M12.6499 0.00749907C13.0741 -0.00467557 13.4266 0.188379 13.5563 0.610026C13.6379 0.882898 13.6062 1.17716 13.4683 1.42638C13.306 1.72116 13.0961 1.79722 12.793 1.8885C12.3656 1.85254 12.032 1.68083 11.892 1.25086C11.8039 0.980343 11.8344 0.685283 11.9757 0.438406C12.1381 0.159705 12.3577 0.0893841 12.6499 0.00749907Z" fill="var(--fill-0, #BABABA)"/>
<path id="Vector_34" d="M36.2771 0.0526498C36.4623 0.0340823 36.71 0.0347868 36.9013 0.0296631C37.637 0.570565 37.7174 1.39609 36.8482 1.83565C35.7281 2.07199 35.2227 0.685449 36.2771 0.0526498Z" fill="var(--fill-0, #BABABA)"/>
<path id="Vector_35" d="M64.1584 46.173C64.6458 46.0691 65.1258 46.3793 65.232 46.8663C65.3387 47.3533 65.0317 47.8351 64.5452 47.9446C64.0545 48.0546 63.5675 47.7449 63.4603 47.2532C63.3531 46.762 63.6662 46.2768 64.1584 46.173Z" fill="var(--fill-0, #BABABA)"/>
<path id="Vector_36" d="M58.1197 0.0108153C59.4039 -0.0157903 59.5797 1.36836 58.5409 1.86357C58.1023 1.9032 57.753 1.79762 57.55 1.37099C57.432 1.12035 57.4235 0.831827 57.5274 0.574844C57.6468 0.278704 57.8381 0.13322 58.1197 0.0108153Z" fill="var(--fill-0, #BABABA)"/>
<path id="Vector_37" d="M62.3488 0.010437C62.4781 0.0213895 62.5834 0.0278285 62.6999 0.0877146C62.9218 0.198743 63.0873 0.396641 63.1578 0.634305C63.2349 0.906425 63.1949 1.19824 63.0478 1.43976C62.8612 1.75009 62.6529 1.8159 62.3244 1.90131C61.8416 1.76805 61.5116 1.55793 61.4416 1.01341C61.4082 0.769213 61.4792 0.522194 61.6362 0.332476C61.8378 0.0934964 62.0564 0.0462558 62.3488 0.010437Z" fill="var(--fill-0, #BABABA)"/>
<path id="Vector_38" d="M28.526 0.00521851C29.8122 0.0619081 29.8769 1.40916 28.8311 1.88665C28.4006 1.88157 28.045 1.73585 27.8703 1.3135C27.7646 1.05468 27.7725 0.763336 27.8921 0.51063C28.0325 0.216793 28.2324 0.10224 28.526 0.00521851Z" fill="var(--fill-0, #BABABA)"/>
<path id="Vector_39" d="M26.5181 0.0121765C26.9777 0.0209667 27.3197 0.111313 27.5069 0.59026C27.6037 0.833189 27.5989 1.10479 27.4935 1.3441C27.3558 1.65942 27.1583 1.75658 26.8597 1.87602C26.419 1.89497 26.2781 1.80782 25.9678 1.50261C25.7596 0.872862 25.7704 0.226619 26.5181 0.0121765Z" fill="var(--fill-0, #BABABA)"/>
<path id="Vector_40" d="M8.60072 46.1687C9.76633 46.1785 9.85851 47.804 8.72397 47.9634C8.52838 47.9549 8.33537 47.9385 8.16464 47.836C7.95039 47.7077 7.79696 47.4985 7.739 47.2555C7.68269 47.0167 7.72847 46.7657 7.86545 46.5621C8.06466 46.2683 8.27628 46.2246 8.60072 46.1687Z" fill="var(--fill-0, #BABABA)"/>
<path id="Vector_41" d="M24.5758 0.0017395C24.7021 0.00197454 24.8388 -0.000282434 24.9599 0.0368996C25.1942 0.111076 25.3884 0.276962 25.4983 0.496763C25.7995 1.10832 25.4638 1.61556 24.89 1.86103C24.7484 1.87377 24.5573 1.85402 24.423 1.80866C24.1941 1.73378 24.0094 1.56249 23.9177 1.33982C23.6572 0.724462 24.0078 0.232353 24.5758 0.0017395Z" fill="var(--fill-0, #BABABA)"/>
<path id="Vector_42" d="M0.6067 3.20612C1.96452 3.02242 2.308 4.42922 1.35001 4.96049C1.21219 4.97906 0.959341 5.02108 0.827724 4.99057C-0.0768659 4.78092 -0.0808613 3.65653 0.6067 3.20612Z" fill="var(--fill-0, #BABABA)"/>
<path id="Vector_43" d="M8.94006 17.7456C9.43889 17.7205 9.86368 18.1045 9.88897 18.6033C9.91426 19.1021 9.53046 19.527 9.03167 19.5525C8.53261 19.578 8.10743 19.194 8.08214 18.6949C8.05681 18.1958 8.44099 17.7708 8.94006 17.7456Z" fill="var(--fill-0, #BABABA)"/>
<path id="Vector_44" d="M14.7531 0.0104403C14.8975 0.0100643 14.9546 0.041653 15.0836 0.093783C15.6309 0.315042 15.7259 0.994048 15.4549 1.46872C15.2978 1.7438 15.1142 1.80373 14.8159 1.89493C13.5744 1.84284 13.5274 0.146806 14.7531 0.0104403Z" fill="var(--fill-0, #BABABA)"/>
<path id="Vector_45" d="M6.34405 46.1636C6.79512 46.158 7.1888 46.244 7.37772 46.7061C7.48264 46.9637 7.47389 47.2532 7.3536 47.5042C7.21747 47.7905 7.09051 47.8582 6.80951 47.9654C6.02506 47.994 5.86115 47.7877 5.64845 47.0732C5.78072 46.5312 5.82124 46.37 6.34405 46.1636Z" fill="var(--fill-0, #BABABA)"/>
<path id="Vector_46" d="M30.553 0.00695801C30.9914 0.0232692 31.3178 0.158458 31.4769 0.604689C31.5717 0.873894 31.5495 1.17046 31.4158 1.4226C31.2511 1.72603 31.0471 1.78732 30.735 1.87692C30.5934 1.86216 30.4759 1.85116 30.3438 1.7939C30.1083 1.68997 29.9268 1.4925 29.843 1.24905C29.7507 0.989812 29.772 0.703638 29.9018 0.460945C30.0532 0.182009 30.2663 0.0893131 30.553 0.00695801Z" fill="var(--fill-0, #BABABA)"/>
<path id="Vector_47" d="M50.2864 0.010437C51.4437 0.0414142 51.6482 1.39228 50.4937 1.9078C49.2325 1.68081 49.1724 0.295342 50.2864 0.010437Z" fill="var(--fill-0, #BABABA)"/>
<path id="Vector_48" d="M60.2071 46.1787C60.6988 46.128 61.1397 46.4828 61.1957 46.9741C61.2511 47.4653 60.9009 47.9095 60.4107 47.9706C60.0887 48.0101 59.77 47.8742 59.5763 47.6143C59.3826 47.3539 59.3436 47.0098 59.4743 46.7132C59.6045 46.4161 59.8847 46.2121 60.2071 46.1787Z" fill="var(--fill-0, #BABABA)"/>
<path id="Vector_49" d="M32.13 10.25C32.8081 10.2268 32.9671 10.2211 33.3529 10.7827C33.3627 11.3578 33.4113 11.7305 32.8179 11.9876C32.3721 12.0121 32.0243 12.0006 31.7357 11.6005C31.6058 11.4217 31.5534 11.1981 31.5905 10.9803C31.6504 10.6306 31.8532 10.4377 32.13 10.25Z" fill="var(--fill-0, #BABABA)"/>
<path id="Vector_50" d="M10.9049 17.7278C12.157 17.687 12.2935 19.1656 11.1589 19.5561C10.991 19.5519 10.8359 19.5527 10.6815 19.4806C10.4536 19.373 10.2807 19.1757 10.2039 18.9356C10.1255 18.6918 10.1492 18.4266 10.2696 18.2004C10.4222 17.9107 10.6082 17.815 10.9049 17.7278Z" fill="var(--fill-0, #BABABA)"/>
<path id="Vector_51" d="M41.9993 46.2329C42.3044 46.1205 42.647 46.1812 42.8948 46.3922C43.1425 46.6028 43.2572 46.9309 43.1951 47.2506C43.1326 47.5697 42.9027 47.8306 42.5939 47.9326C42.1271 48.0873 41.6232 47.8391 41.4611 47.3751C41.2989 46.9112 41.5382 46.4031 41.9993 46.2329Z" fill="var(--fill-0, #BABABA)"/>
<path id="Vector_52" d="M44.2265 0.0854678C44.5396 -0.0088269 44.879 0.07381 45.1135 0.301415C45.3476 0.529019 45.4407 0.865773 45.3556 1.18137C45.271 1.49697 45.0219 1.74183 44.7046 1.82108C44.2303 1.93973 43.748 1.65811 43.6183 1.18678C43.4885 0.715399 43.7584 0.226534 44.2265 0.0854678Z" fill="var(--fill-0, #BABABA)"/>
<path id="Vector_53" d="M56.3373 0.00874359C56.7881 0.00503009 56.9375 0.226053 57.1815 0.57028C57.2421 1.34335 57.1937 1.64767 56.3951 1.90004C55.2246 1.63197 55.1123 0.276492 56.3373 0.00874359Z" fill="var(--fill-0, #BABABA)"/>
<path id="Vector_54" d="M33.98 46.2203C34.4491 46.067 34.9539 46.3209 35.1114 46.7886C35.2689 47.2563 35.0197 47.7635 34.5534 47.9252C34.0811 48.0888 33.5657 47.8359 33.4063 47.3621C33.2469 46.8882 33.5046 46.3749 33.98 46.2203Z" fill="var(--fill-0, #BABABA)"/>
<path id="Vector_55" d="M40.2546 46.1739C41.5031 46.3478 41.4631 47.8464 40.3481 47.9644C40.1502 47.9526 39.997 47.9385 39.8245 47.8351C39.6092 47.7082 39.4559 47.4985 39.4 47.255C39.346 47.0181 39.3939 46.7695 39.5312 46.5697C39.7276 46.2811 39.9345 46.2251 40.2546 46.1739Z" fill="var(--fill-0, #BABABA)"/>
<path id="Vector_56" d="M0.553912 7.19617C1.28091 7.16077 2.08839 7.37324 1.78722 8.40917C1.72136 8.63569 1.5017 8.77939 1.29083 8.88196C0.838112 8.90052 0.450922 8.90593 0.171517 8.49354C-0.194992 7.95269 0.0694649 7.49367 0.553912 7.19617Z" fill="var(--fill-0, #BABABA)"/>
<path id="Vector_57" d="M10.4876 46.1651C10.958 46.1689 11.3244 46.3009 11.4832 46.7889C11.5632 47.0267 11.5459 47.2867 11.4349 47.5118C11.3096 47.7614 11.1335 47.8719 10.8813 47.9622C10.1254 47.956 9.53976 47.5776 9.83674 46.6657C9.9175 46.4175 10.2437 46.2474 10.4876 46.1651Z" fill="var(--fill-0, #BABABA)"/>
<path id="Vector_58" d="M15.0467 17.734C16.1598 17.8537 16.3169 19.2121 15.1155 19.5746C13.9825 19.5013 13.7371 17.9712 15.0467 17.734Z" fill="var(--fill-0, #BABABA)"/>
<path id="Vector_59" d="M58.1697 46.1745C58.6591 46.1035 59.1141 46.4411 59.1874 46.9304C59.2607 47.4193 58.9256 47.8757 58.4367 47.9514C57.945 48.0275 57.4848 47.6891 57.411 47.1969C57.3368 46.7048 57.6771 46.2464 58.1697 46.1745Z" fill="var(--fill-0, #BABABA)"/>
<path id="Vector_60" d="M32.4846 0.00521851C33.6307 0.030978 33.9276 1.34753 32.7784 1.87118C31.6582 1.97239 31.3294 0.358236 32.4846 0.00521851Z" fill="var(--fill-0, #BABABA)"/>
<path id="Vector_61" d="M0.756235 22.1479C1.00349 22.15 1.28708 22.1335 1.50124 22.2635C1.68329 22.3742 1.81181 22.555 1.85656 22.7632C1.91503 23.0337 1.86403 23.3162 1.71469 23.5491C1.5969 23.7328 1.51073 23.7886 1.30955 23.8329L1.13299 23.8331C-0.127814 23.8409 -0.394104 22.5127 0.756235 22.1479Z" fill="var(--fill-0, #BABABA)"/>
<path id="Vector_62" d="M20.3574 46.1798C20.8465 46.1027 21.306 46.4359 21.3841 46.9248C21.4624 47.4141 21.1297 47.8739 20.6408 47.9528C20.1508 48.0318 19.6897 47.6985 19.6113 47.2083C19.533 46.7184 19.8672 46.2578 20.3574 46.1798Z" fill="var(--fill-0, #BABABA)"/>
<path id="Vector_63" d="M69.7346 5.22683C70.4703 5.16873 70.6912 5.24587 70.9958 5.91853C70.9187 6.46361 70.8952 6.67072 70.3716 6.89382C69.901 6.93434 69.4831 6.93245 69.227 6.44834C69.1249 6.26012 69.1038 6.03882 69.1677 5.83462C69.2678 5.51827 69.4587 5.37208 69.7346 5.22683Z" fill="var(--fill-0, #BABABA)"/>
<path id="Vector_64" d="M46.2119 46.1807C46.6946 46.1295 47.1304 46.4721 47.1948 46.9535C47.2592 47.4348 46.9282 47.88 46.4488 47.9571C46.1273 48.0092 45.8024 47.8823 45.6008 47.6257C45.3996 47.369 45.3535 47.0235 45.4805 46.7231C45.6074 46.4228 45.8875 46.215 46.2119 46.1807Z" fill="var(--fill-0, #BABABA)"/>
<path id="Vector_65" d="M0.932941 37.1923C1.15114 37.2083 1.37668 37.2102 1.55281 37.3573C1.94499 37.6854 1.99402 38.3468 1.62351 38.7101C1.44874 38.8812 1.34363 38.8808 1.11476 38.8812C1.04472 38.8826 0.974683 38.8831 0.904596 38.8822C0.124996 38.8681 0.0571652 38.3345 0.0806213 37.699C0.354527 37.3131 0.469553 37.2595 0.932941 37.1923Z" fill="var(--fill-0, #BABABA)"/>
<path id="Vector_66" d="M16.9613 17.734C17.1565 17.7433 17.3159 17.7385 17.4872 17.8348C17.7051 17.9558 17.8635 18.1613 17.925 18.4029C17.9902 18.6542 17.952 18.9211 17.8191 19.144C17.6554 19.4155 17.484 19.4789 17.1961 19.5588C16.7444 19.5404 16.3841 19.3819 16.2434 18.9107C16.1685 18.6668 16.1964 18.4029 16.3205 18.18C16.4774 17.896 16.6676 17.8156 16.9613 17.734Z" fill="var(--fill-0, #BABABA)"/>
<path id="Vector_67" d="M48.6631 34.1082C48.9733 34.0203 49.3075 34.1059 49.5369 34.3329C49.7668 34.56 49.8566 34.8928 49.7719 35.2044C49.6873 35.5161 49.442 35.7582 49.1289 35.8376C48.6541 35.9589 48.1704 35.6759 48.0431 35.203C47.9152 34.7301 48.1916 34.2422 48.6631 34.1082Z" fill="var(--fill-0, #BABABA)"/>
<path id="Vector_68" d="M48.0108 46.2337C48.368 46.1077 48.7652 46.2196 49.004 46.5134C49.2428 46.8072 49.271 47.2194 49.0745 47.5428C48.9584 47.7342 48.7746 47.8752 48.5598 47.9377C48.3755 47.9913 48.1791 47.9847 47.999 47.918C47.6451 47.7877 47.411 47.4493 47.4138 47.0718C47.4162 46.6944 47.6549 46.3592 48.0108 46.2337Z" fill="var(--fill-0, #BABABA)"/>
<path id="Vector_69" d="M26.2309 34.2926C26.7012 34.1313 27.2128 34.3842 27.37 34.8562C27.5272 35.3276 27.2697 35.8372 26.7967 35.9904C26.3294 36.1413 25.8275 35.8879 25.6723 35.4216C25.517 34.9558 25.7663 34.4519 26.2309 34.2926Z" fill="var(--fill-0, #BABABA)"/>
<path id="Vector_70" d="M69.7619 7.17635C70.2137 7.01841 70.7101 7.24456 70.8873 7.68928C70.9756 7.91162 70.9714 8.16019 70.8755 8.37934C70.7792 8.59853 70.5991 8.76996 70.3754 8.85528C70.0745 8.97021 69.7347 8.91408 69.4865 8.70838C69.2383 8.50263 69.1198 8.17923 69.1772 7.86194C69.2341 7.5447 69.4578 7.28268 69.7619 7.17635Z" fill="var(--fill-0, #BABABA)"/>
<path id="Vector_71" d="M0.66775 29.6724C0.923606 29.6639 1.21049 29.6277 1.43644 29.7443C1.63444 29.8444 1.78377 30.0202 1.85085 30.2318C1.92954 30.4757 1.90007 30.7423 1.76991 30.9637C1.63805 31.1907 1.52688 31.2668 1.2856 31.327C1.01691 31.3411 0.80642 31.3171 0.540787 31.2936C0.297952 31.1155 0.263589 31.0807 0.0790423 30.8419C0.0740596 30.6407 0.0793253 30.4268 0.0805944 30.2247C0.278914 29.9093 0.331608 29.8233 0.66775 29.6724Z" fill="var(--fill-0, #BABABA)"/>
<path id="Vector_72" d="M38.4958 0.010437C39.6065 0.119163 39.8341 1.51769 38.6354 1.88463C38.2184 1.86634 37.8847 1.69246 37.7493 1.27613C37.6624 1.00396 37.6943 0.707635 37.8372 0.460241C37.9975 0.176651 38.2025 0.100313 38.4958 0.010437Z" fill="var(--fill-0, #BABABA)"/>
<path id="Vector_73" d="M14.3255 46.2149C15.1151 46.1571 15.727 46.5068 15.4683 47.4869C15.4104 47.7064 15.1583 47.8663 14.9459 47.9466C13.6174 48.0016 13.3665 46.6685 14.3255 46.2149Z" fill="var(--fill-0, #BABABA)"/>
<path id="Vector_74" d="M44.0042 10.25C44.4621 10.2332 44.8771 10.2045 45.1559 10.6529C45.2725 10.8383 45.3087 11.0632 45.2565 11.2759C45.1705 11.6136 44.981 11.8011 44.6971 11.9734C43.9807 12.042 43.4176 11.7744 43.5144 10.885C43.5431 10.6236 43.7833 10.3899 44.0042 10.25Z" fill="var(--fill-0, #BABABA)"/>
<path id="Vector_75" d="M24.3213 46.1668C24.7417 46.18 25.0486 46.3121 25.2077 46.7295C25.3091 46.9941 25.2927 47.2898 25.1627 47.5418C25.0275 47.8027 24.8553 47.8826 24.5911 47.9653C24.4667 47.9634 24.2093 47.9667 24.0984 47.9178C23.6165 47.7058 23.3561 47.0971 23.6259 46.6219C23.7976 46.3196 23.9996 46.2486 24.3213 46.1668Z" fill="var(--fill-0, #BABABA)"/>
<path id="Vector_76" d="M53.9842 10.2529C54.4369 10.2315 54.8205 10.2281 55.0419 10.7127C55.1636 10.9744 55.1674 11.2756 55.0531 11.5404C54.938 11.8091 54.8139 11.8983 54.5539 11.9962C54.1144 12.033 53.7623 11.9818 53.4991 11.5787C53.367 11.3764 53.3289 11.1268 53.3943 10.8942C53.4892 10.5513 53.6975 10.4197 53.9842 10.2529Z" fill="var(--fill-0, #BABABA)"/>
<path id="Vector_77" d="M6.75475 23.4444C7.22125 23.2821 7.73075 23.5298 7.89127 23.9969C8.05185 24.464 7.80229 24.9726 7.33462 25.1314C6.8694 25.2894 6.36399 25.0414 6.20426 24.5768C6.04454 24.1121 6.29071 23.6058 6.75475 23.4444Z" fill="var(--fill-0, #BABABA)"/>
<path id="Vector_78" d="M26.2384 10.2563C26.698 10.2329 27.1099 10.2065 27.3643 10.6868C27.4777 10.9001 27.4991 11.1505 27.4237 11.38C27.3157 11.6994 27.1686 11.8357 26.8822 11.9813C25.6243 12.0743 25.2414 10.881 26.2384 10.2563Z" fill="var(--fill-0, #BABABA)"/>
<path id="Vector_79" d="M28.2298 46.1668C28.6485 46.1965 28.9559 46.3017 29.1151 46.7267C29.2122 46.9866 29.1952 47.2752 29.0683 47.522C28.9237 47.7961 28.7709 47.8755 28.4903 47.9601C28.2894 47.9597 28.0916 47.9611 27.911 47.8642C27.6865 47.7411 27.5212 47.5328 27.4528 47.2861C27.2855 46.674 27.6706 46.3017 28.2298 46.1668Z" fill="var(--fill-0, #BABABA)"/>
<path id="Vector_80" d="M54.2123 46.1924C54.6931 46.1275 55.1378 46.4599 55.2116 46.9398C55.2854 47.4197 54.9615 47.8705 54.483 47.9533C54.1657 48.0083 53.8428 47.8875 53.6397 47.6374C53.4362 47.3873 53.384 47.047 53.5025 46.7471C53.6214 46.4477 53.8926 46.2352 54.2123 46.1924Z" fill="var(--fill-0, #BABABA)"/>
<path id="Vector_81" d="M10.3551 10.2556C10.5146 10.2476 10.822 10.2185 10.9572 10.2847C11.7201 10.6581 11.7443 11.6676 10.9274 11.9872C10.4887 12.0348 10.1273 11.9923 9.87527 11.5739C9.75296 11.3709 9.72188 11.1257 9.78971 10.8987C9.88283 10.5821 10.0846 10.4135 10.3551 10.2556Z" fill="var(--fill-0, #BABABA)"/>
<path id="Vector_82" d="M18.8515 23.4292C19.1597 23.3408 19.4916 23.4248 19.7205 23.6492C19.9495 23.8736 20.0402 24.2038 19.958 24.5137C19.8758 24.8236 19.6334 25.0654 19.3234 25.1468C18.8514 25.2708 18.3675 24.9919 18.2382 24.5213C18.109 24.0508 18.3824 23.5638 18.8515 23.4292Z" fill="var(--fill-0, #BABABA)"/>
<path id="Vector_83" d="M16.3369 10.2558C17.1193 10.2073 17.6641 10.5327 17.4307 11.4826C17.3726 11.7191 17.1553 11.8816 16.9343 11.9835C16.224 12.0226 15.5968 11.8116 15.7644 10.8577C15.8133 10.579 16.0916 10.3858 16.3369 10.2558Z" fill="var(--fill-0, #BABABA)"/>
<path id="Vector_84" d="M26.2622 46.1897C26.7391 46.1375 27.1716 46.4722 27.2406 46.947C27.3095 47.4217 26.9901 47.8659 26.5182 47.9515C26.1978 48.0093 25.8712 47.888 25.6666 47.6347C25.4619 47.3813 25.4119 47.0367 25.536 46.7359C25.6601 46.4346 25.9386 46.2254 26.2622 46.1897Z" fill="var(--fill-0, #BABABA)"/>
<path id="Vector_85" d="M44.071 34.3029C44.3718 34.1896 44.7103 34.247 44.9566 34.4529C45.2029 34.6592 45.3195 34.9821 45.2607 35.298C45.2024 35.6139 44.9782 35.8739 44.6741 35.9777C44.2139 36.1357 43.7128 35.895 43.5478 35.4376C43.3828 34.9798 43.616 34.4745 44.071 34.3029Z" fill="var(--fill-0, #BABABA)"/>
<path id="Vector_86" d="M0.716324 5.22116C1.02525 5.13035 1.35914 5.21341 1.58951 5.43838C1.81989 5.66335 1.9108 5.99522 1.82732 6.30621C1.74379 6.6172 1.49889 6.85886 1.18681 6.93821C0.716465 7.05775 0.237049 6.77862 0.108815 6.31058C-0.0194649 5.84259 0.250727 5.35805 0.716324 5.22116Z" fill="var(--fill-0, #BABABA)"/>
<path id="Vector_87" d="M62.2002 46.1655C62.6515 46.1561 63.0134 46.3337 63.1441 46.7939C63.217 47.0464 63.1864 47.3176 63.0595 47.5474C62.9105 47.8177 62.754 47.876 62.4733 47.9479C62.2971 47.9536 62.0808 47.9606 61.921 47.8849C61.7212 47.7891 61.5666 47.6194 61.489 47.4121C61.2737 46.8245 61.6395 46.3384 62.2002 46.1655Z" fill="var(--fill-0, #BABABA)"/>
<path id="Vector_88" d="M44.2531 8.28336C44.7364 8.21708 45.1829 8.55186 45.2544 9.03414C45.3263 9.51648 44.9963 9.96666 44.515 10.0438C44.1986 10.0945 43.8794 9.97122 43.6792 9.72114C43.4794 9.47107 43.4291 9.13267 43.5476 8.83517C43.6665 8.53766 43.9358 8.32693 44.2531 8.28336Z" fill="var(--fill-0, #BABABA)"/>
<path id="Vector_89" d="M38.1399 10.2557C38.9075 10.2205 39.4918 10.5125 39.2572 11.4944C39.2017 11.7276 38.93 11.9006 38.7072 11.9881C38.5286 11.9918 38.326 11.9844 38.145 11.9822C37.392 11.5309 37.3027 10.656 38.1399 10.2557Z" fill="var(--fill-0, #BABABA)"/>
<path id="Vector_90" d="M22.2937 34.3021C22.6026 34.1968 22.9445 34.2688 23.1846 34.4902C23.4247 34.7111 23.5243 35.0462 23.4442 35.3626C23.3641 35.6789 23.1171 35.9262 22.8007 36.0066C22.3379 36.1241 21.8647 35.8557 21.7286 35.3979C21.5925 34.9405 21.8418 34.4568 22.2937 34.3021Z" fill="var(--fill-0, #BABABA)"/>
<path id="Vector_91" d="M69.906 16.5589C70.6666 16.5973 71.1968 16.9858 70.8038 17.8813C70.7028 18.1114 70.4085 18.1877 70.1707 18.235C69.6672 18.2596 69.2644 18.1528 69.1365 17.5882C69.0806 17.3499 69.1299 17.099 69.2719 16.8997C69.4468 16.6591 69.6315 16.6105 69.906 16.5589Z" fill="var(--fill-0, #BABABA)"/>
<path id="Vector_92" d="M69.6808 22.1482C69.8797 22.1381 70.1909 22.108 70.3667 22.185C71.1432 22.5244 71.2264 23.4516 70.3939 23.7762C69.1436 23.9994 68.6476 22.7552 69.6808 22.1482Z" fill="var(--fill-0, #BABABA)"/>
<path id="Vector_93" d="M12.8109 23.4329C13.1183 23.3375 13.4533 23.4157 13.6867 23.6372C13.9201 23.8589 14.0156 24.1893 13.9362 24.5013C13.8568 24.8132 13.6151 25.0579 13.3041 25.141C12.8364 25.266 12.3547 24.9938 12.2204 24.5287C12.0861 24.0635 12.3486 23.5765 12.8109 23.4329Z" fill="var(--fill-0, #BABABA)"/>
<path id="Vector_94" d="M30.1363 46.1651C30.5647 46.1726 30.9101 46.3315 31.072 46.7517C31.1675 46.9943 31.1608 47.2651 31.0534 47.5024C30.9313 47.7746 30.764 47.8691 30.5022 47.973C30.4877 47.9725 30.4733 47.972 30.4588 47.9716L30.3867 47.9687C29.2141 47.9255 28.989 46.5402 30.1363 46.1651Z" fill="var(--fill-0, #BABABA)"/>
<path id="Vector_95" d="M16.2904 46.2395C16.7487 46.0735 17.2549 46.3076 17.4253 46.7645C17.5957 47.221 17.3667 47.7296 16.9119 47.9049C16.708 47.9834 16.4822 47.9839 16.2779 47.9063C15.93 47.7747 15.7009 47.4405 15.7038 47.0687C15.7065 46.6969 15.9406 46.3659 16.2904 46.2395Z" fill="var(--fill-0, #BABABA)"/>
<path id="Vector_96" d="M8.85741 25.2938C10.0479 25.3046 10.2293 26.6105 9.24441 27.0801C8.40479 27.0989 7.89683 26.595 8.25498 25.683C8.34537 25.4532 8.62402 25.3512 8.85741 25.2938Z" fill="var(--fill-0, #BABABA)"/>
<path id="Vector_97" d="M18.7745 25.369C18.996 25.2985 19.2364 25.3173 19.444 25.4221C19.7725 25.5876 19.9651 25.9383 19.9283 26.3044C19.8915 26.6706 19.6329 26.9762 19.278 27.0725C18.8116 27.1999 18.3291 26.931 18.1921 26.4671C18.0551 26.0036 18.3139 25.5157 18.7745 25.369Z" fill="var(--fill-0, #BABABA)"/>
<path id="Vector_98" d="M18.7915 21.5108C19.099 21.4134 19.4352 21.4903 19.6697 21.7119C19.9043 21.9334 20.0003 22.2646 19.9206 22.5772C19.841 22.8899 19.5981 23.1347 19.2862 23.2169C18.9703 23.3002 18.6343 23.2034 18.411 22.9649C18.1879 22.7265 18.1135 22.3848 18.2174 22.0751C18.3077 21.8061 18.521 21.5965 18.7915 21.5108Z" fill="var(--fill-0, #BABABA)"/>
<path id="Vector_99" d="M42.1955 34.2715C42.6519 34.2452 43.0176 34.2771 43.2259 34.7613C43.3246 34.9902 43.3279 35.2492 43.2357 35.4809C43.1121 35.7884 42.942 35.8988 42.6515 36.0159C42.2011 36.0328 41.8491 35.9731 41.622 35.5228C41.5153 35.3094 41.5036 35.0602 41.5905 34.8379C41.7137 34.5248 41.9078 34.405 42.1955 34.2715Z" fill="var(--fill-0, #BABABA)"/>
<path id="Vector_100" d="M14.9145 25.2956C15.3551 25.3383 15.6872 25.4385 15.8459 25.9034C15.9248 26.1323 15.9099 26.3828 15.8044 26.6009C15.6612 26.891 15.4828 26.9831 15.1915 27.0743C14.7091 27.0776 14.339 27.0038 14.1842 26.4674C14.1044 26.199 14.1442 25.9095 14.2935 25.6726C14.4564 25.4183 14.6369 25.3604 14.9145 25.2956Z" fill="var(--fill-0, #BABABA)"/>
<path id="Vector_101" d="M63.9019 10.2556C64.6545 10.2126 65.2148 10.4707 65.0371 11.4309C64.9873 11.7018 64.732 11.867 64.4899 11.9844C64.2958 11.9898 64.0815 11.9851 63.885 11.9851C63.1493 11.5432 63.1188 10.6483 63.9019 10.2556Z" fill="var(--fill-0, #BABABA)"/>
<path id="Vector_102" d="M47.094 35.7955C47.4029 35.7104 47.7333 35.7983 47.9594 36.0254C48.1855 36.2529 48.2715 36.5838 48.1846 36.8922C48.0976 37.2005 47.8513 37.4384 47.5401 37.5145C47.2778 37.5785 47.0005 37.5197 46.7871 37.3542C46.5732 37.1893 46.4463 36.9359 46.4416 36.6661C46.4355 36.2609 46.7034 35.9032 47.094 35.7955Z" fill="var(--fill-0, #BABABA)"/>
<path id="Vector_103" d="M65.8743 10.2589C66.6293 10.2041 67.1769 10.521 67.003 11.446C66.9555 11.6982 66.696 11.8819 66.4629 11.9832C65.6934 12.0363 65.1307 11.6821 65.3493 10.7546C65.4066 10.5126 65.6501 10.3571 65.8743 10.2589Z" fill="var(--fill-0, #BABABA)"/>
<path id="Vector_104" d="M12.5697 46.1668C13.0514 46.1767 13.2478 46.3544 13.5123 46.7319C13.5355 47.3909 13.5077 47.7472 12.8375 47.9601C11.5427 47.9578 11.4032 46.4766 12.5697 46.1668Z" fill="var(--fill-0, #BABABA)"/>
<path id="Vector_105" d="M59.9515 10.2574C61.0073 10.1878 61.0679 10.5643 61.0402 11.4988C60.8536 11.8021 60.8 11.8619 60.47 11.9894C60.2815 11.9967 60.0667 11.9909 59.8758 11.9905C59.1806 11.4813 59.1129 10.6457 59.9515 10.2574Z" fill="var(--fill-0, #BABABA)"/>
<path id="Vector_106" d="M44.0117 46.244C44.3154 46.1406 44.651 46.2092 44.8902 46.4231C45.129 46.6369 45.2339 46.9632 45.1643 47.2762C45.0947 47.5893 44.8616 47.8408 44.5546 47.9334C44.3572 47.9931 44.1452 47.9818 43.9548 47.9024C43.615 47.7595 43.3987 47.4219 43.4114 47.0534C43.4241 46.6854 43.6629 46.3629 44.0117 46.244Z" fill="var(--fill-0, #BABABA)"/>
<path id="Vector_107" d="M6.76546 25.3358L7.42087 25.3927C8.11962 25.9187 8.10429 26.653 7.32535 27.0793C6.29497 27.1287 5.99479 26.6727 6.2695 25.7255C6.4712 25.5173 6.51623 25.4863 6.76546 25.3358Z" fill="var(--fill-0, #BABABA)"/>
<path id="Vector_108" d="M26.3757 8.28973C26.8541 8.18697 27.3253 8.49129 27.4284 8.96958C27.5316 9.44791 27.2277 9.91934 26.7495 10.0229C26.2707 10.1266 25.7985 9.82232 25.6952 9.34337C25.5919 8.86447 25.8967 8.39257 26.3757 8.28973Z" fill="var(--fill-0, #BABABA)"/>
<path id="Vector_109" d="M32.1192 12.224C32.5597 12.2048 32.9782 12.1685 33.2797 12.5543C33.6747 13.0599 33.3231 13.5558 32.8946 13.858C32.7324 13.9037 32.5708 13.9398 32.4025 13.9141C32.152 13.8771 31.9278 13.7382 31.7831 13.5303C31.6458 13.3298 31.5957 13.0822 31.6441 12.8441C31.7103 12.5156 31.8575 12.3957 32.1192 12.224Z" fill="var(--fill-0, #BABABA)"/>
<path id="Vector_110" d="M56.5831 34.1745C56.7053 34.1707 56.8096 34.1688 56.9309 34.1928C57.205 34.2469 57.4428 34.4152 57.5852 34.6558C57.7121 34.8674 57.7436 35.1226 57.6713 35.3586C57.5725 35.6763 57.3812 35.815 57.1015 35.9556C55.8601 36.097 55.5466 34.8274 56.5831 34.1745Z" fill="var(--fill-0, #BABABA)"/>
<path id="Vector_111" d="M38.2475 34.3052C38.7086 34.1393 39.2167 34.379 39.3817 34.8406C39.5472 35.3018 39.3065 35.8094 38.8449 35.9739C38.3843 36.138 37.878 35.8978 37.713 35.4376C37.5485 34.9774 37.7873 34.4707 38.2475 34.3052Z" fill="var(--fill-0, #BABABA)"/>
<path id="Vector_112" d="M38.3108 8.29792C38.4682 8.27329 38.629 8.29153 38.7771 8.35076C39.1451 8.49807 39.3703 8.87187 39.3289 9.26606C39.2876 9.66026 38.9891 9.97896 38.5984 10.0465C38.1138 10.1303 37.6531 9.80283 37.5732 9.31725C37.4933 8.83168 37.8247 8.37398 38.3108 8.29792Z" fill="var(--fill-0, #BABABA)"/>
<path id="Vector_113" d="M0.746117 14.7227C1.22177 14.7432 1.65254 14.7526 1.83742 15.2894C1.91183 15.4989 1.89599 15.7299 1.7937 15.9273C1.66142 16.1803 1.50344 16.3015 1.23691 16.3757C1.0283 16.3689 0.726469 16.3885 0.548268 16.2882C-0.248113 15.8398 -0.146815 14.9398 0.746117 14.7227Z" fill="var(--fill-0, #BABABA)"/>
<path id="Vector_114" d="M0.58081 12.8905C1.03597 12.8483 1.44479 12.7984 1.74055 13.2337C1.85999 13.4095 1.90188 13.6267 1.85642 13.8343C1.78925 14.135 1.59803 14.3562 1.34128 14.5139C1.2153 14.5205 1.08914 14.5217 0.963067 14.5173C0.525626 14.502 0.376192 14.3958 0.0913811 14.0878C0.0632713 13.8392 0.0589936 13.626 0.0524597 13.3775C0.208145 13.1505 0.353723 13.0356 0.58081 12.8905Z" fill="var(--fill-0, #BABABA)"/>
<path id="Vector_115" d="M22.1586 46.2154C23.4871 46.0593 23.7221 47.5052 22.7506 47.933C22.0373 47.9931 21.4749 47.7083 21.6151 46.8222C21.6583 46.5491 21.9182 46.3423 22.1586 46.2154Z" fill="var(--fill-0, #BABABA)"/>
<path id="Vector_116" d="M0.753716 42.9126C1.21151 42.9093 1.61741 42.9639 1.80957 43.4523C1.88986 43.6577 1.88417 43.8871 1.79373 44.0883C1.63974 44.423 1.45444 44.4906 1.13151 44.6011C0.00410558 44.6603 -0.501588 43.5096 0.753716 42.9126Z" fill="var(--fill-0, #BABABA)"/>
<path id="Vector_117" d="M56.2293 46.1668C56.6697 46.2101 57.0044 46.3511 57.1389 46.8136C57.2061 47.0524 57.1751 47.3086 57.0524 47.5239C56.902 47.7933 56.7257 47.8699 56.4474 47.9517C56.4328 47.9517 56.4187 47.9521 56.4046 47.9521L56.3332 47.9517C55.8927 47.9517 55.5924 47.7876 55.4664 47.3335C55.3987 47.0915 55.4311 46.8325 55.5566 46.6143C55.716 46.3347 55.9341 46.2416 56.2293 46.1668Z" fill="var(--fill-0, #BABABA)"/>
<path id="Vector_118" d="M32.2768 8.30064C32.5867 8.22439 32.9136 8.32094 33.1323 8.5533C33.3511 8.78565 33.4278 9.11779 33.333 9.42249C33.2381 9.72718 32.9866 9.95723 32.6747 10.0245C32.2019 10.1265 31.7349 9.82989 31.6262 9.35866C31.5174 8.88742 31.8072 8.41618 32.2768 8.30064Z" fill="var(--fill-0, #BABABA)"/>
<path id="Vector_119" d="M0.689898 39.1176C0.897055 39.1096 1.13618 39.1138 1.34625 39.1124C2.02384 39.5674 2.08923 40.5151 1.26201 40.7901C0.820764 40.8235 0.41712 40.7957 0.184721 40.3684C-0.131255 39.7874 0.225335 39.3865 0.689898 39.1176Z" fill="var(--fill-0, #BABABA)"/>
<path id="Vector_120" d="M69.9174 35.2654C70.8105 35.2287 70.928 35.7195 70.9168 36.4753C70.6643 36.8067 70.6249 36.8533 70.2253 36.9529C70.2107 36.9529 70.1962 36.9529 70.1816 36.9529L70.1087 36.9515C68.872 36.9322 68.7968 35.4689 69.9174 35.2654Z" fill="var(--fill-0, #BABABA)"/>
<path id="Vector_121" d="M10.9526 25.2956C11.8132 25.3144 11.9257 25.775 11.868 26.513C11.6559 26.8853 11.5704 26.9596 11.1756 27.0893C9.9287 27.0475 9.77137 25.7529 10.9526 25.2956Z" fill="var(--fill-0, #BABABA)"/>
<path id="Vector_122" d="M36.2041 46.1668C37.423 46.3253 37.447 47.7213 36.4293 47.9667C36.237 47.9615 36.0481 47.9639 35.8807 47.8656C35.6636 47.7359 35.5047 47.5267 35.4384 47.2823C35.2795 46.6881 35.6542 46.3003 36.2041 46.1668Z" fill="var(--fill-0, #BABABA)"/>
<path id="Vector_123" d="M52.0023 10.2579C52.4522 10.2313 52.8367 10.2211 53.0741 10.6904C53.1845 10.9088 53.1991 11.1631 53.115 11.3928C52.9956 11.7284 52.8339 11.843 52.5326 11.9847C52.0945 12.0125 51.7795 11.9745 51.5351 11.556C51.41 11.343 51.3781 11.0877 51.4472 10.8504C51.5435 10.5224 51.7208 10.4053 52.0023 10.2579Z" fill="var(--fill-0, #BABABA)"/>
<path id="Vector_124" d="M61.9882 10.2538C62.479 10.2281 62.855 10.2585 63.0421 10.8129C63.1253 11.0524 63.1084 11.3155 62.9946 11.5421C62.8578 11.8087 62.7051 11.8984 62.4348 11.9865C61.2112 12.0777 60.9372 10.6942 61.9882 10.2538Z" fill="var(--fill-0, #BABABA)"/>
<path id="Vector_125" d="M8.68348 27.3156C8.794 27.3109 9.16022 27.2893 9.24822 27.317C10.1801 27.6103 10.1002 28.5664 9.34538 28.9763C8.07076 29.1235 7.65339 27.8383 8.68348 27.3156Z" fill="var(--fill-0, #BABABA)"/>
<path id="Vector_126" d="M16.351 34.2954C16.8159 34.1525 17.3088 34.4124 17.4538 34.8769C17.5988 35.3408 17.3414 35.8353 16.8779 35.9825C16.4111 36.1305 15.9129 35.871 15.7669 35.4038C15.6209 34.9361 15.8829 34.4392 16.351 34.2954Z" fill="var(--fill-0, #BABABA)"/>
<path id="Vector_127" d="M56.1214 8.28647C56.6028 8.21521 57.0512 8.54628 57.1245 9.02715C57.1979 9.50803 56.8688 9.95783 56.3884 10.0334C55.9047 10.1095 55.4516 9.77789 55.3773 9.29396C55.3035 8.80999 55.6372 8.35821 56.1214 8.28647Z" fill="var(--fill-0, #BABABA)"/>
<path id="Vector_128" d="M12.7686 25.3614C13.0705 25.2613 13.4028 25.3313 13.6388 25.5447C13.8748 25.7576 13.9779 26.0815 13.909 26.3918C13.84 26.7025 13.6095 26.9516 13.3054 27.0451C12.8425 27.1871 12.3516 26.93 12.2045 26.4684C12.0574 26.0072 12.3089 25.5137 12.7686 25.3614Z" fill="var(--fill-0, #BABABA)"/>
<path id="Vector_129" d="M20.3438 34.2671C21.0546 34.2548 21.6251 34.5049 21.4465 35.4215C21.3924 35.6993 21.1273 35.8888 20.8759 36.0091C19.7055 36.1483 19.2765 34.9026 20.3438 34.2671Z" fill="var(--fill-0, #BABABA)"/>
<path id="Vector_130" d="M0.938106 16.5589C1.1086 16.5727 1.30706 16.5725 1.45715 16.6673C1.85981 16.9212 2.01963 17.5464 1.71794 17.9362C1.53161 18.177 1.38434 18.2065 1.09111 18.2362C1.07071 18.2368 1.05026 18.2373 1.02986 18.2378L0.937167 18.2383C-0.0270741 18.248 -0.44026 16.8477 0.938106 16.5589Z" fill="var(--fill-0, #BABABA)"/>
<path id="Vector_131" d="M16.9531 25.318C17.4362 25.277 17.8619 25.6334 17.9068 26.1162C17.9517 26.5985 17.599 27.0272 17.1167 27.0765C16.8698 27.1014 16.6237 27.0215 16.4387 26.8561C16.2538 26.6906 16.1469 26.4546 16.1445 26.2064C16.1399 25.7444 16.4925 25.3565 16.9531 25.318Z" fill="var(--fill-0, #BABABA)"/>
<path id="Vector_132" d="M34.1384 10.2538C34.5771 10.2286 34.9404 10.2078 35.2145 10.6227C35.3489 10.8241 35.3917 11.073 35.3324 11.3077C35.2431 11.6484 35.0899 11.7847 34.8079 11.9613C34.3661 12.0165 34.0378 12.0199 33.7598 11.6056C33.6201 11.397 33.5726 11.14 33.6287 10.8953C33.7035 10.572 33.8705 10.418 34.1384 10.2538Z" fill="var(--fill-0, #BABABA)"/>
<path id="Vector_133" d="M48.0577 10.2576C48.8629 10.2047 49.3565 10.5953 49.0942 11.5238C49.0316 11.7455 48.7891 11.8989 48.5752 11.9838C47.8377 12.0308 47.3032 11.719 47.4842 10.8156C47.5354 10.5594 47.8245 10.3665 48.0577 10.2576Z" fill="var(--fill-0, #BABABA)"/>
<path id="Vector_134" d="M69.6877 29.6648C70.1752 29.6422 70.5822 29.6601 70.8633 30.1198C71.1769 30.6322 70.8718 31.0552 70.4078 31.2898C69.7549 31.3683 69.0653 31.2075 69.1551 30.3083C69.1824 30.0338 69.463 29.8114 69.6877 29.6648Z" fill="var(--fill-0, #BABABA)"/>
<path id="Vector_135" d="M10.514 34.2739C11.2494 34.2312 11.7618 34.5517 11.6166 35.4402C11.5765 35.6855 11.3136 35.8971 11.0892 36.0033C10.4225 36.048 9.82359 35.8425 9.9271 34.9776C9.96701 34.6439 10.2352 34.4389 10.514 34.2739Z" fill="var(--fill-0, #BABABA)"/>
<path id="Vector_136" d="M16.3479 8.35314C16.8136 8.20234 17.313 8.45932 17.461 8.92591C17.609 9.39249 17.349 9.89038 16.8815 10.0356C16.418 10.1795 15.9253 9.92221 15.7785 9.45957C15.6318 8.99693 15.8861 8.50266 16.3479 8.35314Z" fill="var(--fill-0, #BABABA)"/>
<path id="Vector_137" d="M16.647 27.3158C17.2589 27.29 18.121 27.3661 17.9323 28.3598C17.8875 28.5953 17.6148 28.8205 17.4067 28.9418C16.1501 29.2083 15.7227 27.9246 16.647 27.3158Z" fill="var(--fill-0, #BABABA)"/>
<path id="Vector_138" d="M32.1656 46.1721C32.5955 46.2243 32.9002 46.3216 33.0543 46.7738C33.1435 47.0314 33.1179 47.3149 32.984 47.5523C32.8271 47.8258 32.6717 47.8799 32.3852 47.9546C31.8991 47.949 31.5578 47.8691 31.4127 47.3266C31.3405 47.0601 31.3874 46.7748 31.5414 46.5454C31.709 46.2953 31.8881 46.2347 32.1656 46.1721Z" fill="var(--fill-0, #BABABA)"/>
<path id="Vector_139" d="M53.994 8.34204C54.301 8.23886 54.6399 8.31219 54.8768 8.53307C55.1137 8.75395 55.2106 9.0869 55.1288 9.40038C55.0475 9.71382 54.8007 9.95741 54.4862 10.0348C54.2253 10.0991 53.9489 10.0409 53.7365 9.87675C53.5235 9.7126 53.3971 9.46036 53.3928 9.19168C53.3872 8.80787 53.6302 8.46435 53.994 8.34204Z" fill="var(--fill-0, #BABABA)"/>
<path id="Vector_140" d="M14.3539 10.2563C15.0718 10.2109 15.6106 10.4576 15.4751 11.3718C15.434 11.6484 15.1825 11.8494 14.9394 11.9798C14.2992 12.0417 14.1796 11.9831 13.8104 11.474C13.783 10.886 13.7598 10.5432 14.3539 10.2563Z" fill="var(--fill-0, #BABABA)"/>
<path id="Vector_141" d="M22.3049 10.2542C22.7816 10.2327 23.1718 10.2612 23.3723 10.7747C23.4692 11.0166 23.4642 11.2874 23.3583 11.5255C23.2294 11.8119 23.0885 11.8889 22.8113 11.9932C22.3869 12.0119 22.0762 11.9711 21.8278 11.5744C21.6974 11.3648 21.6623 11.1096 21.7313 10.8726C21.832 10.5316 22.0152 10.4141 22.3049 10.2542Z" fill="var(--fill-0, #BABABA)"/>
<path id="Vector_142" d="M69.7308 20.2656C69.924 20.2529 70.2098 20.2178 70.3814 20.2982C71.1391 20.6534 71.2444 21.5765 70.388 21.8749C69.8046 21.9422 69.61 21.9316 69.2189 21.5001C69.1287 21.1376 69.1456 21.0559 69.2217 20.6921C69.3961 20.4637 69.4765 20.3883 69.7308 20.2656Z" fill="var(--fill-0, #BABABA)"/>
<path id="Vector_143" d="M50.2116 46.1687C51.4488 46.3017 51.4507 47.6574 50.4461 47.9577C50.4311 47.9577 50.4156 47.9573 50.4006 47.9573L50.3244 47.9549C49.2268 47.9291 49.0557 46.4592 50.2116 46.1687Z" fill="var(--fill-0, #BABABA)"/>
<path id="Vector_144" d="M0.798211 41.045C1.28003 41.0266 1.70195 41.1362 1.84654 41.6673C1.90742 41.8836 1.87804 42.1148 1.76513 42.309C1.60536 42.5825 1.45921 42.6446 1.17318 42.7283C0.863173 42.7297 0.712564 42.6954 0.421595 42.6013L0.409374 42.5877C-0.139895 41.9823 -0.0192291 41.2631 0.798211 41.045Z" fill="var(--fill-0, #BABABA)"/>
<path id="Vector_145" d="M52.1653 8.29397C52.6457 8.22741 53.0894 8.5613 53.1585 9.04133C53.2281 9.52131 52.8967 9.96721 52.4172 10.0393C51.9335 10.1119 51.4832 9.77726 51.4136 9.29337C51.3436 8.80949 51.6806 8.3611 52.1653 8.29397Z" fill="var(--fill-0, #BABABA)"/>
<path id="Vector_146" d="M24.4324 8.2919C24.9101 8.20832 25.3656 8.52622 25.452 9.00343C25.5383 9.48064 25.2231 9.93797 24.7464 10.0271C24.2658 10.117 23.8038 9.79854 23.7168 9.31743C23.6297 8.83628 23.9508 8.37618 24.4324 8.2919Z" fill="var(--fill-0, #BABABA)"/>
<path id="Vector_147" d="M14.4552 34.2913C14.9215 34.179 15.3919 34.4601 15.5142 34.924C15.6364 35.3875 15.3654 35.8642 14.9044 35.9958C14.7208 36.0484 14.5251 36.04 14.3467 35.9718C13.986 35.8341 13.7571 35.4773 13.782 35.0919C13.8068 34.7064 14.0797 34.3821 14.4552 34.2913Z" fill="var(--fill-0, #BABABA)"/>
<path id="Vector_148" d="M12.5552 8.28552C12.7154 8.29817 12.9053 8.30451 13.0489 8.37728C13.243 8.47754 13.3903 8.64963 13.4594 8.85684C13.5432 9.11086 13.5142 9.38857 13.3797 9.6198C13.2118 9.91152 13.0107 9.98057 12.7064 10.061C12.5269 10.0574 12.4027 10.0586 12.2397 9.97408C12.0212 9.85958 11.862 9.65731 11.8019 9.41809C11.732 9.15049 11.7812 8.86581 11.9367 8.63713C12.1008 8.39448 12.2848 8.34113 12.5552 8.28552Z" fill="var(--fill-0, #BABABA)"/>
<path id="Vector_149" d="M8.44826 10.259C8.90305 10.228 9.24187 10.2454 9.46205 10.7178C9.575 10.9643 9.57768 11.2472 9.46943 11.4957C9.3435 11.7861 9.1974 11.8701 8.92157 11.9877L8.36732 11.9837C7.65211 11.493 7.55514 10.5439 8.44826 10.259Z" fill="var(--fill-0, #BABABA)"/>
<path id="Vector_150" d="M67.8495 10.2564C68.289 10.2254 68.5969 10.237 68.8559 10.6557C68.987 10.8679 69.0246 11.1247 68.9593 11.3655C68.8667 11.7061 68.7088 11.8145 68.4248 11.9789C68.2707 11.9923 67.9957 12.0261 67.8518 11.9782C67.3465 11.81 67.111 11.1955 67.3517 10.7229C67.4824 10.4659 67.5863 10.3807 67.8495 10.2564Z" fill="var(--fill-0, #BABABA)"/>
<path id="Vector_151" d="M10.3843 8.32751C10.8242 8.27303 11.1807 8.31064 11.4058 8.75113C11.5315 8.99928 11.5472 9.28888 11.449 9.54916C11.3403 9.83538 11.2175 9.93231 10.9503 10.0478C10.5006 10.0774 10.1191 10.0388 9.8788 9.59513C9.76989 9.39456 9.74596 9.15863 9.81243 8.94028C9.91462 8.59719 10.0886 8.48 10.3843 8.32751Z" fill="var(--fill-0, #BABABA)"/>
<path id="Vector_152" d="M8.47038 39.0444C8.7764 38.9335 9.11846 39.0007 9.36007 39.2188C9.60173 39.4365 9.70355 39.7702 9.62495 40.0856C9.54641 40.4015 9.30019 40.6483 8.98459 40.7277C8.52933 40.8419 8.06434 40.5792 7.92723 40.1303C7.79011 39.6814 8.02895 39.2038 8.47038 39.0444Z" fill="var(--fill-0, #BABABA)"/>
<path id="Vector_153" d="M40.115 10.2589C40.8502 10.2082 41.4058 10.4671 41.2441 11.4027C41.199 11.6642 40.9399 11.8661 40.7002 11.9776C39.9345 12.0445 39.4024 11.6535 39.5998 10.7598C39.6496 10.5328 39.9049 10.3552 40.115 10.2589Z" fill="var(--fill-0, #BABABA)"/>
<path id="Vector_154" d="M24.1739 12.2277C24.8133 12.199 25.6522 12.2392 25.4816 13.264C25.4366 13.5345 25.2145 13.7364 24.9718 13.8618C24.5732 13.9586 24.2222 13.9196 23.9379 13.5943C23.7728 13.4038 23.6976 13.1514 23.7314 12.9016C23.7742 12.5735 23.9303 12.4194 24.1739 12.2277Z" fill="var(--fill-0, #BABABA)"/>
<path id="Vector_155" d="M22.3064 38.9822C22.7933 38.9602 23.2058 39.3371 23.2268 39.8241C23.2479 40.3111 22.8695 40.7229 22.3825 40.7426C21.8973 40.7624 21.4877 40.3854 21.4667 39.9003C21.4457 39.4152 21.8213 39.0048 22.3064 38.9822Z" fill="var(--fill-0, #BABABA)"/>
<path id="Vector_156" d="M30.109 34.3083C30.5672 34.1437 31.0722 34.3821 31.2364 34.8404C31.4007 35.2987 31.1619 35.8035 30.7033 35.9671C30.2455 36.1307 29.7417 35.8924 29.5777 35.4345C29.4137 34.9772 29.6515 34.4728 30.109 34.3083Z" fill="var(--fill-0, #BABABA)"/>
<path id="Vector_157" d="M57.9311 10.2529C58.6 10.2238 59.221 10.3537 59.1011 11.2924C59.063 11.5879 58.8148 11.8291 58.5605 11.9803C57.9057 12.0145 57.7882 12.0044 57.4329 11.444C57.4131 11.1913 57.4244 10.9699 57.4324 10.7177C57.596 10.4765 57.6858 10.4022 57.9311 10.2529Z" fill="var(--fill-0, #BABABA)"/>
<path id="Vector_158" d="M52.5993 32.3563C53.0685 32.2219 53.5573 32.495 53.6894 32.9651C53.8215 33.4347 53.546 33.9226 53.0755 34.0518C52.6083 34.1806 52.1246 33.9075 51.9934 33.4412C51.8627 32.9745 52.133 32.4898 52.5993 32.3563Z" fill="var(--fill-0, #BABABA)"/>
<path id="Vector_159" d="M36.1386 10.2507C36.5645 10.2347 36.8958 10.2027 37.1798 10.5846C37.3208 10.7756 37.3734 11.0173 37.326 11.2497C37.2498 11.6057 37.0557 11.7958 36.7614 11.9728C35.4838 12.1072 35.2182 10.8444 36.1386 10.2507Z" fill="var(--fill-0, #BABABA)"/>
<path id="Vector_160" d="M18.1655 39.0356C18.4715 38.9289 18.8115 38.999 19.0505 39.218C19.2895 39.4366 19.3889 39.7694 19.3093 40.0834C19.2297 40.3979 18.9839 40.6428 18.6695 40.7218C18.2127 40.836 17.7469 40.5709 17.612 40.1196C17.4771 39.6684 17.721 39.1912 18.1655 39.0356Z" fill="var(--fill-0, #BABABA)"/>
<path id="Vector_161" d="M26.1376 38.9813C26.576 39.0025 26.9091 39.152 27.0391 39.6074C27.1114 39.8646 27.0721 40.1405 26.9307 40.3675C26.7626 40.6331 26.5924 40.6891 26.3043 40.753C26.0999 40.7516 25.9153 40.7285 25.7421 40.6148C25.5394 40.4804 25.4002 40.2688 25.3566 40.0296C25.2461 39.4448 25.5875 39.0833 26.1376 38.9813Z" fill="var(--fill-0, #BABABA)"/>
<path id="Vector_162" d="M0.61214 27.7965C0.775722 27.7876 1.12051 27.7561 1.26473 27.8078C2.07897 28.0983 2.11808 29.0441 1.33026 29.3966C0.680017 29.4732 -0.0430818 29.304 0.0715196 28.3944C0.102685 28.1472 0.393137 27.9122 0.61214 27.7965Z" fill="var(--fill-0, #BABABA)"/>
<path id="Vector_163" d="M18.4592 8.2803C18.9132 8.31697 19.2708 8.39984 19.4358 8.88466C19.5177 9.12205 19.4966 9.38279 19.3778 9.60395C19.2222 9.89507 19.0122 9.96586 18.7164 10.0533C18.5138 10.0615 18.397 10.0721 18.2164 9.97451C17.9976 9.85718 17.8383 9.65331 17.7774 9.41269C17.7129 9.16896 17.7496 8.90948 17.8792 8.69316C18.0191 8.46227 18.2062 8.34799 18.4592 8.2803Z" fill="var(--fill-0, #BABABA)"/>
<path id="Vector_164" d="M26.2552 12.2236C26.7082 12.2027 27.1156 12.1594 27.4036 12.5924C27.517 12.76 27.5562 12.967 27.5119 13.1644C27.4248 13.5353 27.2244 13.6809 26.9236 13.8565C26.7364 13.905 26.5853 13.9385 26.3956 13.8841C26.1533 13.8139 25.9503 13.6478 25.8336 13.4242C25.57 12.9236 25.7628 12.4631 26.2552 12.2236Z" fill="var(--fill-0, #BABABA)"/>
<path id="Vector_165" d="M20.2877 10.2526C21.302 10.2031 21.5193 10.5114 21.4068 11.512C21.2451 11.7785 21.1899 11.8429 20.9142 11.9871L20.2978 11.9776C19.559 11.5067 19.5429 10.7328 20.2877 10.2526Z" fill="var(--fill-0, #BABABA)"/>
<path id="Vector_166" d="M34.3956 34.2739C35.1528 34.2128 35.6812 34.5296 35.5143 35.4411C35.465 35.7095 35.2182 35.8956 34.9747 36.0094C33.6869 36.0827 33.4442 34.8601 34.3956 34.2739Z" fill="var(--fill-0, #BABABA)"/>
<path id="Vector_167" d="M69.8762 14.6789C70.4845 14.7365 70.6006 14.6997 70.9141 15.2587C70.9494 15.9702 70.8882 16.2434 70.1202 16.3407C69.8856 16.3505 69.7545 16.3682 69.5504 16.2509C69.3596 16.1436 69.2205 15.963 69.1664 15.7509C69.1058 15.518 69.1448 15.2705 69.274 15.0677C69.432 14.822 69.6031 14.7353 69.8762 14.6789Z" fill="var(--fill-0, #BABABA)"/>
<path id="Vector_168" d="M44.0046 12.2264C44.4404 12.206 44.8752 12.1591 45.1666 12.5498C45.5596 13.0764 45.1911 13.5598 44.7436 13.8549C44.5922 13.8961 44.4784 13.9279 44.32 13.9115C44.0676 13.8831 43.8392 13.7483 43.692 13.5411C43.5477 13.3398 43.4932 13.0874 43.5421 12.8444C43.6046 12.5365 43.7513 12.3827 44.0046 12.2264Z" fill="var(--fill-0, #BABABA)"/>
<path id="Vector_169" d="M69.729 41.0472C70.2037 41.0284 70.6498 41.0552 70.8708 41.5431C71.1227 42.0987 70.8176 42.511 70.3142 42.7164C69.6838 42.7333 69.0323 42.502 69.1644 41.6597C69.2063 41.3955 69.4949 41.1699 69.729 41.0472Z" fill="var(--fill-0, #BABABA)"/>
<path id="Vector_170" d="M12.5837 38.9803C13.0694 38.9328 13.5012 39.2896 13.5458 39.7756C13.5903 40.2616 13.2307 40.6908 12.7444 40.7322C12.2625 40.7735 11.8379 40.4177 11.7938 39.9364C11.7496 39.4545 12.1025 39.0277 12.5837 38.9803Z" fill="var(--fill-0, #BABABA)"/>
<path id="Vector_171" d="M10.4048 39.0506C10.8628 38.8804 11.3716 39.1159 11.5381 39.5752C11.7045 40.0344 11.4648 40.5416 11.0041 40.7043C10.5487 40.865 10.0488 40.6286 9.88432 40.1745C9.71975 39.7204 9.9521 39.2189 10.4048 39.0506Z" fill="var(--fill-0, #BABABA)"/>
<path id="Vector_172" d="M12.8712 17.741C13.3344 17.6385 13.7953 17.9219 13.913 18.3814C14.0306 18.841 13.7626 19.311 13.3072 19.4438C12.9989 19.5336 12.6662 19.4483 12.4392 19.2212C12.2122 18.9941 12.1271 18.6614 12.217 18.3532C12.3069 18.045 12.5577 17.8103 12.8712 17.741Z" fill="var(--fill-0, #BABABA)"/>
<path id="Vector_173" d="M8.60163 34.2758C9.07169 34.2396 9.46236 34.2913 9.65349 34.7985C9.74628 35.0401 9.73688 35.3094 9.6274 35.544C9.50297 35.81 9.35124 35.9125 9.08795 36.0089C8.6343 36.0451 8.29021 35.9741 8.08456 35.5299C7.81747 34.9526 8.09626 34.5183 8.60163 34.2758Z" fill="var(--fill-0, #BABABA)"/>
<path id="Vector_174" d="M4.4909 10.2509C5.86673 10.1941 5.84684 11.6742 4.99941 11.9957C3.68399 12.1083 3.47199 10.7354 4.4909 10.2509Z" fill="var(--fill-0, #BABABA)"/>
<path id="Vector_175" d="M12.8232 21.485C13.0233 21.5001 13.2232 21.5173 13.423 21.5366C14.0775 21.9592 14.1613 22.9934 13.3352 23.1776C12.042 23.3422 11.7367 22.09 12.8232 21.485Z" fill="var(--fill-0, #BABABA)"/>
<path id="Vector_176" d="M22.5747 8.28726C23.3535 8.36971 23.6572 8.97379 23.2813 9.69435C23.1474 9.95105 22.8863 10.0128 22.6167 10.0737C22.1456 10.0035 21.7906 9.79979 21.7192 9.28304C21.6857 9.04378 21.7518 8.80123 21.9022 8.61208C22.1009 8.36638 22.2787 8.32416 22.5747 8.28726Z" fill="var(--fill-0, #BABABA)"/>
<path id="Vector_177" d="M62.087 8.28386C62.4001 8.23907 62.7131 8.36608 62.9068 8.61643C63.1004 8.86684 63.1442 9.20185 63.0219 9.49371C62.8997 9.78557 62.6299 9.9892 62.3159 10.0269C61.8379 10.0842 61.4026 9.74609 61.3396 9.2686C61.2771 8.79111 61.6099 8.35198 62.087 8.28386Z" fill="var(--fill-0, #BABABA)"/>
<path id="Vector_178" d="M42.0045 12.2296C42.1112 12.2212 42.5728 12.1972 42.6471 12.2233C43.5962 12.5577 43.4782 13.3886 42.7595 13.8496C42.6043 13.8936 42.4849 13.9302 42.3223 13.9119C42.0783 13.8863 41.856 13.7604 41.7084 13.5645C41.3479 13.0829 41.5458 12.5518 42.0045 12.2296Z" fill="var(--fill-0, #BABABA)"/>
<path id="Vector_179" d="M40.2265 34.2717C40.6721 34.2299 41.0039 34.2788 41.2404 34.7108C41.3621 34.9312 41.3899 35.1917 41.3165 35.4328C41.2253 35.7308 41.0622 35.8648 40.7966 35.9978C40.3515 36.0279 40.0168 36.0124 39.7512 35.5889C39.6215 35.3802 39.5858 35.1268 39.6525 34.8903C39.7503 34.5425 39.9299 34.4311 40.2265 34.2717Z" fill="var(--fill-0, #BABABA)"/>
<path id="Vector_180" d="M48.0395 8.35211C48.2722 8.27253 48.5274 8.29392 48.7432 8.41111C48.9594 8.52829 49.1164 8.73056 49.1766 8.96884C49.288 9.41131 49.0421 9.86553 48.6111 10.0144C48.1518 10.1729 47.6512 9.92875 47.4933 9.46931C47.3353 9.00987 47.5798 8.50944 48.0395 8.35211Z" fill="var(--fill-0, #BABABA)"/>
<path id="Vector_181" d="M42.0928 10.2564C42.797 10.2132 43.3728 10.4248 43.2196 11.3465C43.1754 11.612 42.915 11.8467 42.679 11.976C42.4891 11.9902 42.2597 11.9859 42.0665 11.9873C41.3666 11.45 41.2881 10.7365 42.0928 10.2564Z" fill="var(--fill-0, #BABABA)"/>
<path id="Vector_182" d="M44.1177 32.3415C44.2823 32.3378 44.5394 32.3199 44.6917 32.3791C45.1519 32.5587 45.4391 33.1604 45.1946 33.614C45.0616 33.8593 44.898 33.9449 44.64 34.0239C43.9415 34.0657 43.3844 33.7992 43.5405 32.9093C43.587 32.6433 43.8804 32.4562 44.1177 32.3415Z" fill="var(--fill-0, #BABABA)"/>
<path id="Vector_183" d="M8.46838 8.30422C8.93967 8.18826 9.41575 8.47631 9.53166 8.9476C9.64763 9.41893 9.35948 9.89496 8.88819 10.0108C8.41696 10.1267 7.94097 9.83865 7.82505 9.36741C7.70913 8.89617 7.99719 8.42019 8.46838 8.30422Z" fill="var(--fill-0, #BABABA)"/>
<path id="Vector_184" d="M6.82733 34.2212C6.90762 34.2316 6.98758 34.2433 7.06721 34.2579C7.43503 34.327 7.57708 34.515 7.78109 34.8041C7.81353 35.4622 7.80234 35.7842 7.12488 36.0131C6.67809 36.0122 6.30871 35.936 6.1362 35.4547C6.05304 35.2182 6.06954 34.9583 6.18198 34.7345C6.33362 34.4332 6.52513 34.326 6.82733 34.2212Z" fill="var(--fill-0, #BABABA)"/>
<path id="Vector_185" d="M10.6833 27.3221C10.931 27.3132 11.207 27.3189 11.4573 27.3193C12.1229 27.78 12.0992 28.6092 11.3544 28.9683C10.9243 29.0266 10.5611 28.9965 10.2979 28.6031C10.1698 28.4155 10.1252 28.1838 10.1746 27.9619C10.2459 27.6512 10.427 27.4824 10.6833 27.3221Z" fill="var(--fill-0, #BABABA)"/>
<path id="Vector_186" d="M48.7483 41.1427C49.1967 41.1582 49.5864 41.2593 49.7467 41.7369C49.8243 41.9658 49.7998 42.2168 49.68 42.4269C49.523 42.6972 49.3453 42.7893 49.06 42.8716C47.8143 42.8359 47.6225 41.3956 48.7483 41.1427Z" fill="var(--fill-0, #BABABA)"/>
<path id="Vector_187" d="M56.596 32.3055C57.075 32.2411 57.5159 32.5763 57.5827 33.0548C57.6494 33.5333 57.3171 33.9761 56.8386 34.0452C56.3568 34.1153 55.9102 33.7796 55.8425 33.2974C55.7753 32.8151 56.1133 32.3704 56.596 32.3055Z" fill="var(--fill-0, #BABABA)"/>
<path id="Vector_188" d="M8.92617 21.469C9.23006 21.4225 9.53617 21.5382 9.73327 21.7741C9.93032 22.01 9.98978 22.3318 9.88994 22.6226C9.787 22.9224 9.53053 23.1435 9.21883 23.2011C8.90704 23.2588 8.58838 23.144 8.38503 22.9007C8.18173 22.6573 8.12528 22.3233 8.23739 22.0267C8.3495 21.7301 8.61278 21.517 8.92617 21.469Z" fill="var(--fill-0, #BABABA)"/>
<path id="Vector_189" d="M69.9216 9.07817C70.3879 9.07027 70.7456 9.16499 70.8932 9.67064C70.9633 9.909 70.9303 10.1658 70.802 10.3786C70.6502 10.6327 70.4659 10.6907 70.1975 10.7561L69.6396 10.757C68.9053 10.2226 68.9866 9.27263 69.9216 9.07817Z" fill="var(--fill-0, #BABABA)"/>
<path id="Vector_190" d="M58.1521 8.29565C58.6246 8.24582 59.0509 8.58088 59.1144 9.05184C59.1778 9.52279 58.8554 9.95878 58.3862 10.0358C58.0708 10.0876 57.7521 9.96371 57.5542 9.71247C57.3563 9.46122 57.3107 9.12225 57.4348 8.82757C57.5594 8.53294 57.8339 8.32916 58.1521 8.29565Z" fill="var(--fill-0, #BABABA)"/>
<path id="Vector_191" d="M6.45899 10.2537C7.08215 10.224 7.17546 10.2542 7.49148 10.7846C7.53548 11.3774 7.54784 11.7984 6.90964 11.9883C6.46439 12.0219 6.14813 11.9832 5.91752 11.5399C5.80236 11.3177 5.78468 11.0578 5.86868 10.8221C5.98084 10.5084 6.17361 10.3835 6.45899 10.2537Z" fill="var(--fill-0, #BABABA)"/>
<path id="Vector_192" d="M38.0529 12.231C38.1822 12.2235 38.5658 12.1931 38.6777 12.2276C39.6403 12.5238 39.5327 13.3871 38.8215 13.8639C37.7281 14.1666 37.1128 12.9734 38.0529 12.231Z" fill="var(--fill-0, #BABABA)"/>
<path id="Vector_193" d="M0.622835 35.3109C0.810673 35.2992 1.11518 35.2686 1.28572 35.3321C2.0515 35.6184 2.06348 36.6224 1.32323 36.9449C1.18663 36.9543 0.877985 36.9834 0.752995 36.9392C-0.123391 36.6304 -0.189622 35.7223 0.622835 35.3109Z" fill="var(--fill-0, #BABABA)"/>
<path id="Vector_194" d="M20.4916 8.28378C20.9324 8.30672 21.2664 8.3966 21.4189 8.86741C21.5015 9.12858 21.4704 9.4125 21.333 9.64951C21.1794 9.92045 21.0042 9.98668 20.7239 10.0734C20.2653 10.0187 19.8951 9.83932 19.7609 9.35957C19.7003 9.14705 19.7278 8.91912 19.8371 8.7271C19.9909 8.46128 20.2082 8.35519 20.4916 8.28378Z" fill="var(--fill-0, #BABABA)"/>
<path id="Vector_195" d="M18.9191 19.5567C19.057 19.5528 19.1946 19.5734 19.3253 19.6175C20.0089 19.8495 20.1437 20.9636 19.2633 21.3025C18.7701 21.3141 18.3527 21.2771 18.1823 20.7178C18.1085 20.4828 18.1356 20.2278 18.2569 20.0136C18.4184 19.7249 18.6205 19.6423 18.9191 19.5567Z" fill="var(--fill-0, #BABABA)"/>
<path id="Vector_196" d="M24.1692 38.9929C24.4834 38.9549 24.794 39.0884 24.9819 39.3431C25.1698 39.5979 25.2058 39.9345 25.0762 40.2231C24.9466 40.5122 24.6714 40.7087 24.3562 40.7378C24.0043 40.7703 23.6672 40.5883 23.5011 40.2762C23.3653 40.021 23.3638 39.7154 23.4974 39.4588C23.6309 39.2026 23.8821 39.0282 24.1692 38.9929Z" fill="var(--fill-0, #BABABA)"/>
<path id="Vector_197" d="M61.8754 12.2327C62.3337 12.2059 62.7949 12.192 63.0261 12.6667C63.3025 13.2339 63.0134 13.692 62.4931 13.9116C61.7208 13.9741 61.4984 13.663 61.3076 12.9771C61.4557 12.5777 61.5111 12.4395 61.8754 12.2327Z" fill="var(--fill-0, #BABABA)"/>
<path id="Vector_198" d="M50.5834 32.3495C50.8838 32.2517 51.2137 32.3227 51.4474 32.5361C51.6805 32.7495 51.7811 33.0715 51.7106 33.3798C51.6401 33.6877 51.4093 33.934 51.1061 34.0243C50.6459 34.162 50.1608 33.904 50.0174 33.4452C49.8745 32.9869 50.1265 32.498 50.5834 32.3495Z" fill="var(--fill-0, #BABABA)"/>
<path id="Vector_199" d="M16.9306 21.4547C17.2472 21.4113 17.5624 21.5436 17.7532 21.7999C17.9441 22.0562 17.9805 22.396 17.8482 22.6869C17.7159 22.9778 17.4359 23.1738 17.1173 23.1984C16.6443 23.235 16.228 22.8889 16.1775 22.4172C16.1269 21.9455 16.4606 21.5191 16.9306 21.4547Z" fill="var(--fill-0, #BABABA)"/>
<path id="Vector_200" d="M10.3169 12.2243C10.9301 12.2049 11.0756 12.1474 11.4971 12.6239C11.5055 13.2917 11.5484 13.545 10.9432 13.9116C9.7518 14 9.30952 12.7828 10.3169 12.2243Z" fill="var(--fill-0, #BABABA)"/>
<path id="Vector_201" d="M4.70643 8.29693C5.18688 8.27555 5.59499 8.64497 5.62131 9.12519C5.64768 9.60541 5.28249 10.0173 4.80255 10.0486C4.48766 10.0691 4.18602 9.91898 4.01261 9.65532C3.83916 9.39171 3.82069 9.05524 3.96424 8.77424C4.1078 8.49324 4.3912 8.31094 4.70643 8.29693Z" fill="var(--fill-0, #BABABA)"/>
<path id="Vector_202" d="M28.3924 8.27856C28.8 8.28364 29.1216 8.36858 29.3116 8.76687C29.4238 9.0082 29.4277 9.28591 29.3224 9.53029C29.1861 9.85008 28.9988 9.95265 28.6927 10.0659C28.006 10.0606 27.8308 9.7948 27.6547 9.18193C27.7889 8.61743 27.8404 8.48107 28.3924 8.27856Z" fill="var(--fill-0, #BABABA)"/>
<path id="Vector_203" d="M12.6941 27.325C13.3201 27.2902 14.0577 27.3311 13.9186 28.3046C13.8748 28.6106 13.6155 28.8273 13.3454 28.9716C12.0669 29.1065 11.7492 27.7466 12.6941 27.325Z" fill="var(--fill-0, #BABABA)"/>
<path id="Vector_204" d="M56.0148 10.2545C56.8281 10.2095 57.3207 10.6152 57.041 11.5417C56.9733 11.7648 56.7162 11.9036 56.5014 11.9852C56.0712 12.023 55.7558 11.9658 55.5213 11.5542C55.4009 11.3398 55.3746 11.0852 55.4484 10.8507C55.5523 10.5201 55.7281 10.4047 56.0148 10.2545Z" fill="var(--fill-0, #BABABA)"/>
<path id="Vector_205" d="M28.2171 10.2614C28.6574 10.2272 29.007 10.2118 29.2714 10.6352C29.4001 10.8452 29.4379 11.0985 29.3759 11.3368C29.2861 11.6815 29.1408 11.8113 28.8522 11.9807C28.2127 12.0327 28.0781 11.9752 27.7215 11.4487C27.6899 10.8668 27.676 10.5807 28.2171 10.2614Z" fill="var(--fill-0, #BABABA)"/>
<path id="Vector_206" d="M14.7081 27.3141C14.8514 27.3084 15.2135 27.2849 15.3411 27.3315C16.1694 27.6323 16.1252 28.6105 15.3878 28.9692C14.9414 29.027 14.5558 28.987 14.2928 28.5644C14.1735 28.3755 14.1356 28.1461 14.1876 27.928C14.2646 27.598 14.4357 27.4739 14.7081 27.3141Z" fill="var(--fill-0, #BABABA)"/>
<path id="Vector_207" d="M69.8038 12.8342C70.0778 12.8363 70.3068 12.8025 70.5423 12.9511C70.7529 13.0837 70.9 13.297 70.9493 13.5412C71.0546 14.0751 70.7199 14.3813 70.2292 14.4708L69.6393 14.4766C68.922 13.9011 68.9638 13.2412 69.8038 12.8342Z" fill="var(--fill-0, #BABABA)"/>
<path id="Vector_208" d="M42.3448 8.289C43.5562 8.36746 43.5506 9.81201 42.4266 10.0641C41.2299 9.86964 41.1711 8.4932 42.3448 8.289Z" fill="var(--fill-0, #BABABA)"/>
<path id="Vector_209" d="M58.4704 32.3316C58.7731 32.2546 59.0942 32.3448 59.3127 32.5676C59.5374 32.7975 59.6187 33.1322 59.5238 33.4396C59.4288 33.7465 59.1731 33.9773 58.8577 34.0403C58.3919 34.1329 57.9369 33.8377 57.832 33.3747C57.7267 32.9112 58.0102 32.4487 58.4704 32.3316Z" fill="var(--fill-0, #BABABA)"/>
<path id="Vector_210" d="M0.669378 20.2713C0.887441 20.2633 1.13507 20.2359 1.33325 20.3246C1.56433 20.4307 1.74432 20.6236 1.83415 20.8615C2.00887 21.3368 1.74098 21.7491 1.2798 21.8983C0.794838 21.9229 0.40384 21.9134 0.13548 21.4186C-0.127003 20.9347 0.211772 20.4712 0.669378 20.2713Z" fill="var(--fill-0, #BABABA)"/>
<path id="Vector_211" d="M12.3385 10.254C12.7857 10.2258 13.1027 10.2148 13.3701 10.6448C13.5031 10.8596 13.5424 11.1195 13.4787 11.3641C13.3899 11.6988 13.2423 11.8092 12.9594 11.9672C12.5438 12.0154 12.1839 12.0125 11.9409 11.6235C11.5966 11.0724 11.8462 10.5556 12.3385 10.254Z" fill="var(--fill-0, #BABABA)"/>
<path id="Vector_212" d="M10.8166 21.494C11.1254 21.4015 11.4599 21.486 11.6877 21.714C11.9155 21.942 11.9997 22.2766 11.907 22.5852C11.8143 22.8939 11.5597 23.1267 11.244 23.1915C10.7848 23.2856 10.3328 23.0017 10.2184 22.5471C10.104 22.0926 10.3676 21.6285 10.8166 21.494Z" fill="var(--fill-0, #BABABA)"/>
<path id="Vector_213" d="M6.80422 21.5164C7.26619 21.3861 7.74702 21.6518 7.88259 22.1122C8.01811 22.5727 7.75783 23.0566 7.29886 23.1972C6.99737 23.2896 6.6695 23.2129 6.44039 22.9962C6.21123 22.7796 6.11614 22.4566 6.19144 22.1504C6.2667 21.8442 6.50074 21.6021 6.80422 21.5164Z" fill="var(--fill-0, #BABABA)"/>
<path id="Vector_214" d="M16.4569 38.9778C16.6308 38.9919 16.787 38.998 16.9418 39.0835C17.1539 39.2039 17.3049 39.4083 17.357 39.6467C17.4141 39.8981 17.3667 40.1623 17.2256 40.3785C17.0546 40.6413 16.9048 40.6874 16.6175 40.7504C16.16 40.7123 15.8373 40.6056 15.6946 40.1148C15.6241 39.8728 15.6571 39.6119 15.7857 39.3947C15.9508 39.1122 16.1595 39.0478 16.4569 38.9778Z" fill="var(--fill-0, #BABABA)"/>
<path id="Vector_215" d="M69.661 42.9195C71.1337 42.7766 71.333 44.1308 70.4084 44.5069C69.9811 44.5778 69.5181 44.552 69.2539 44.1543C69.1369 43.9809 69.0993 43.7656 69.1501 43.5625C69.229 43.2424 69.395 43.0826 69.661 42.9195Z" fill="var(--fill-0, #BABABA)"/>
<path id="Vector_216" d="M24.2866 34.2743C24.9453 34.2174 25.0802 34.286 25.4132 34.8515C25.3841 35.4386 25.3747 35.7174 24.8112 36.0046C24.0113 36.053 23.773 35.8015 23.6833 35.033C23.8471 34.6165 23.9075 34.4994 24.2866 34.2743Z" fill="var(--fill-0, #BABABA)"/>
<path id="Vector_217" d="M20.1304 39.0347C20.5871 38.8866 21.078 39.1339 21.2308 39.5889C21.3835 40.0439 21.1412 40.5375 20.6875 40.6949C20.2274 40.8543 19.7254 40.608 19.5705 40.1459C19.4155 39.6843 19.6671 39.1851 20.1304 39.0347Z" fill="var(--fill-0, #BABABA)"/>
<path id="Vector_218" d="M37.9545 46.2178C39.2862 46.0688 39.5203 47.5218 38.5417 47.9401C38.1078 47.9711 37.8319 47.9678 37.5602 47.5688C37.4248 47.3662 37.3801 47.1161 37.4365 46.8792C37.5141 46.5515 37.6819 46.3847 37.9545 46.2178Z" fill="var(--fill-0, #BABABA)"/>
<path id="Vector_219" d="M40.2893 8.29921C40.7679 8.22592 41.2154 8.55525 41.2873 9.03415C41.3592 9.513 41.0292 9.95942 40.5497 10.0304C40.2983 10.0677 40.0435 9.99378 39.8508 9.82799C39.658 9.66215 39.5466 9.42077 39.5462 9.16656C39.5452 8.73345 39.8611 8.36473 40.2893 8.29921Z" fill="var(--fill-0, #BABABA)"/>
<path id="Vector_220" d="M12.3979 34.2725C13.6125 34.116 13.9764 35.4331 13.0107 35.9953C11.713 36.0954 11.4377 34.8601 12.3979 34.2725Z" fill="var(--fill-0, #BABABA)"/>
<path id="Vector_221" d="M46.0943 10.2561C46.5677 10.2311 46.939 10.25 47.143 10.7639C47.2385 11.0013 47.2338 11.2674 47.1294 11.501C47.0095 11.7676 46.8577 11.8786 46.5992 11.9859L46.0431 11.9866C45.6384 11.6718 45.5895 11.5517 45.4569 11.0846C45.5923 10.6238 45.6139 10.4344 46.0943 10.2561Z" fill="var(--fill-0, #BABABA)"/>
<path id="Vector_222" d="M6.90799 19.5795C7.37848 19.5109 7.81761 19.8306 7.89687 20.2995C7.97612 20.7683 7.66649 21.2146 7.19962 21.3045C6.88797 21.3645 6.56828 21.2511 6.36413 21.0081C6.15998 20.7651 6.10343 20.4306 6.21634 20.134C6.32925 19.8374 6.5939 19.6252 6.90799 19.5795Z" fill="var(--fill-0, #BABABA)"/>
<path id="Vector_223" d="M64.0183 8.30237C64.4921 8.20845 64.9528 8.51667 65.0463 8.99068C65.1403 9.4647 64.832 9.92494 64.3577 10.0186C63.8839 10.1122 63.4241 9.80403 63.3301 9.33021C63.2366 8.85639 63.5445 8.39624 64.0183 8.30237Z" fill="var(--fill-0, #BABABA)"/>
<path id="Vector_224" d="M2.56198 10.256C3.8405 10.178 4.03901 11.5814 3.05145 11.9884C2.6017 12.0154 2.28017 11.9783 2.04678 11.5313C1.93331 11.3143 1.91343 11.0604 1.99174 10.8284C2.09807 10.5199 2.28003 10.3824 2.56198 10.256Z" fill="var(--fill-0, #BABABA)"/>
<path id="Vector_225" d="M12.2828 12.2325C12.9178 12.1847 13.6313 12.3063 13.5372 13.2193C13.5083 13.5 13.2447 13.7196 13.0137 13.8706C11.7737 14.168 11.3674 12.6182 12.2828 12.2325Z" fill="var(--fill-0, #BABABA)"/>
<path id="Vector_226" d="M14.367 12.2322C14.8042 12.2008 15.1876 12.2006 15.4265 12.627C15.7294 13.1676 15.4465 13.6339 14.9533 13.8835C13.7267 14.0726 13.3164 12.7585 14.367 12.2322Z" fill="var(--fill-0, #BABABA)"/>
<path id="Vector_227" d="M24.335 10.2567C24.7989 10.2254 25.1909 10.2757 25.3795 10.7754C25.4715 11.0158 25.4618 11.2833 25.3524 11.5163C25.2171 11.805 25.0819 11.8805 24.8001 11.9886C24.4021 12.0294 24.0558 11.9478 23.8417 11.5709C23.7217 11.3575 23.6945 11.1042 23.7665 10.8701C23.8688 10.5275 24.0391 10.4094 24.335 10.2567Z" fill="var(--fill-0, #BABABA)"/>
<path id="Vector_228" d="M34.3247 8.29676C34.6407 8.24176 34.9613 8.36412 35.1601 8.61556C35.3594 8.86704 35.4045 9.20723 35.2786 9.502C35.1521 9.79678 34.8748 9.99886 34.5556 10.0285C34.0883 10.0719 33.6702 9.73863 33.6082 9.2735C33.5462 8.80838 33.8625 8.37728 34.3247 8.29676Z" fill="var(--fill-0, #BABABA)"/>
<path id="Vector_229" d="M6.47964 8.277C6.9183 8.27216 7.29266 8.36655 7.47429 8.81221C7.57206 9.04832 7.56967 9.3141 7.46757 9.54842C7.33473 9.85608 7.20603 9.90605 6.91083 10.0223C6.50182 10.0891 6.18265 10.0254 5.96045 9.63083C5.83353 9.40101 5.80627 9.12932 5.88501 8.87887C5.99021 8.53793 6.18218 8.42685 6.47964 8.277Z" fill="var(--fill-0, #BABABA)"/>
<path id="Vector_230" d="M47.155 37.7047C47.596 37.7188 47.9668 37.7649 48.1558 38.2166C48.3791 38.7511 48.0942 39.2052 47.587 39.3894L47.0145 39.3918C46.2826 38.8672 46.1905 37.9731 47.155 37.7047Z" fill="var(--fill-0, #BABABA)"/>
<path id="Vector_231" d="M18.3607 10.2529C18.5376 10.2445 18.8361 10.2167 18.984 10.309C19.6974 10.7545 19.6845 11.7183 18.8405 11.9858C17.7027 12.0954 17.3671 10.8818 18.3607 10.2529Z" fill="var(--fill-0, #BABABA)"/>
<path id="Vector_232" d="M16.3389 12.2279C16.7422 12.2053 17.1352 12.1925 17.3743 12.5695C17.7251 13.1228 17.4072 13.6009 16.9463 13.9056C15.7013 14.0127 15.2932 12.7404 16.3389 12.2279Z" fill="var(--fill-0, #BABABA)"/>
<path id="Vector_233" d="M58.59 35.8013C59.0685 35.7233 59.5193 36.0495 59.5945 36.5285C59.6692 37.0075 59.3402 37.4559 58.8607 37.5279C58.3855 37.5988 57.9422 37.2736 57.8679 36.7988C57.7937 36.3245 58.1161 35.8789 58.59 35.8013Z" fill="var(--fill-0, #BABABA)"/>
<path id="Vector_234" d="M49.9958 10.2578C50.4381 10.2274 50.7959 10.2222 51.0295 10.6618C51.3237 11.2155 51.0657 11.7024 50.5561 11.9552C49.3138 12.1467 49.0421 10.8229 49.9958 10.2578Z" fill="var(--fill-0, #BABABA)"/>
<path id="Vector_235" d="M28.2384 34.2697C29.5609 34.2185 29.6548 35.6306 28.7359 36.0141C28.2969 36.0362 27.9595 35.9681 27.7248 35.5492C27.6033 35.3344 27.5794 35.0778 27.659 34.8437C27.7652 34.5278 27.9568 34.4075 28.2384 34.2697Z" fill="var(--fill-0, #BABABA)"/>
<path id="Vector_236" d="M47.9589 12.2312C48.0238 12.2278 48.0887 12.2249 48.1535 12.2224C49.0551 12.1893 49.206 12.5207 49.1924 13.3409C49.0166 13.6324 48.931 13.7039 48.6419 13.8835C48.1056 13.9861 47.9575 13.8888 47.581 13.5301C47.3949 12.9555 47.4151 12.5675 47.9589 12.2312Z" fill="var(--fill-0, #BABABA)"/>
<path id="Vector_237" d="M54.4373 32.3763C54.8867 32.2047 55.3901 32.4285 55.5636 32.8774C55.7366 33.3258 55.5147 33.8307 55.0663 34.0055C54.616 34.1813 54.1088 33.9576 53.9344 33.5063C53.76 33.0555 53.9856 32.5488 54.4373 32.3763Z" fill="var(--fill-0, #BABABA)"/>
<path id="Vector_238" d="M14.8017 21.5144C15.127 21.4011 15.4884 21.4898 15.7245 21.7407C15.9604 21.9916 16.0268 22.3578 15.8939 22.6756C15.7982 22.9043 15.6097 23.0816 15.3755 23.1631C14.9202 23.3215 14.4228 23.0809 14.2643 22.6256C14.1059 22.1703 14.3464 21.6728 14.8017 21.5144Z" fill="var(--fill-0, #BABABA)"/>
<path id="Vector_239" d="M0.929542 9.08121C1.10398 9.09009 1.24063 9.08755 1.39157 9.17893C1.6006 9.30684 1.7475 9.51545 1.79756 9.75533C1.91357 10.2963 1.62171 10.6917 1.08584 10.7775C0.887848 10.7715 0.621933 10.7771 0.473487 10.6475C-0.289943 9.98044 0.0137647 9.24427 0.929542 9.08121Z" fill="var(--fill-0, #BABABA)"/>
<path id="Vector_240" d="M30.3512 8.28552C30.5135 8.28942 30.6952 8.28566 30.8451 8.34955C31.0698 8.44699 31.2423 8.63562 31.3193 8.86812C31.5181 9.46284 31.1517 9.87636 30.6132 10.0606C30.4288 10.0536 30.3069 10.0474 30.1412 9.95777C29.9173 9.83659 29.7532 9.62854 29.6874 9.3826C29.5396 8.83394 29.8209 8.42772 30.3512 8.28552Z" fill="var(--fill-0, #BABABA)"/>
<path id="Vector_241" d="M59.959 8.35579C60.2608 8.25613 60.5931 8.32857 60.8263 8.5449C61.059 8.76117 61.1563 9.08711 61.0792 9.39561C61.0026 9.70416 60.7638 9.94648 60.4563 10.0281C60.0004 10.1493 59.5303 9.88589 59.3959 9.43355C59.2614 8.98116 59.5106 8.50372 59.959 8.35579Z" fill="var(--fill-0, #BABABA)"/>
<path id="Vector_242" d="M69.787 33.384C71.0778 33.3196 71.35 34.6692 70.338 35.0259C70.211 35.0292 69.8392 35.0466 69.7335 34.994C68.8634 34.561 68.9555 33.7272 69.787 33.384Z" fill="var(--fill-0, #BABABA)"/>
<path id="Vector_243" d="M18.4961 46.1668C18.9012 46.2153 19.1979 46.3629 19.3312 46.7756C19.415 47.0393 19.3824 47.326 19.2414 47.5643C19.0906 47.8168 18.9249 47.8948 18.6563 47.97C18.4532 47.9592 18.301 47.9611 18.1248 47.8553C17.91 47.7265 17.7582 47.5145 17.7056 47.2701C17.6495 47.0172 17.7004 46.7525 17.8463 46.5387C18.0257 46.2768 18.2035 46.227 18.4961 46.1668Z" fill="var(--fill-0, #BABABA)"/>
<path id="Vector_244" d="M18.3065 12.228C18.756 12.1989 19.1545 12.1796 19.4073 12.62C19.7048 13.1381 19.4251 13.6571 18.9353 13.8932C18.7469 13.9152 18.5862 13.9331 18.4024 13.872C18.1569 13.7885 17.9554 13.6097 17.8434 13.3758C17.6159 12.8963 17.837 12.4357 18.3065 12.228Z" fill="var(--fill-0, #BABABA)"/>
<path id="Vector_245" d="M26.2258 32.3675C26.4194 32.2961 26.6322 32.2951 26.8264 32.3657C27.1758 32.4926 27.4064 32.8273 27.4008 33.1991C27.3951 33.5709 27.1543 33.8981 26.8011 34.0146C26.3494 34.1632 25.8618 33.9225 25.7049 33.4736C25.548 33.0247 25.7797 32.5325 26.2258 32.3675Z" fill="var(--fill-0, #BABABA)"/>
<path id="Vector_246" d="M47.1159 39.5989C47.5845 39.4729 48.0654 39.754 48.1867 40.2236C48.3075 40.6937 48.0221 41.1718 47.5511 41.2883C47.0867 41.403 46.6167 41.1224 46.4973 40.6589C46.3779 40.1954 46.6538 39.7225 47.1159 39.5989Z" fill="var(--fill-0, #BABABA)"/>
<path id="Vector_247" d="M0.98937 24.0365C2.14023 24.1159 2.17844 25.623 1.07234 25.6691C0.817186 25.67 0.62399 25.6822 0.408608 25.529C0.227445 25.4021 0.106121 25.2061 0.0727464 24.9872C0.0412052 24.7671 0.103301 24.5438 0.244038 24.3715C0.457353 24.1059 0.67532 24.0658 0.98937 24.0365Z" fill="var(--fill-0, #BABABA)"/>
<path id="Vector_248" d="M65.9367 12.2273C66.6267 12.1918 67.2321 12.4087 67.0455 13.321C66.9896 13.5928 66.6982 13.792 66.4547 13.9135C65.3101 14.0107 64.8607 12.7079 65.9367 12.2273Z" fill="var(--fill-0, #BABABA)"/>
<path id="Vector_249" d="M52.0177 12.2311C52.4657 12.2061 52.8389 12.1852 53.0918 12.6382C53.206 12.8416 53.2276 13.084 53.1515 13.3045C53.0321 13.6403 52.8572 13.7481 52.5545 13.8872C51.9707 13.9814 51.8146 13.8512 51.4663 13.4038C51.4329 12.7477 51.4033 12.5563 52.0177 12.2311Z" fill="var(--fill-0, #BABABA)"/>
<path id="Vector_250" d="M8.41759 12.2317C8.87774 12.082 9.37177 12.3358 9.5182 12.797C9.66462 13.2582 9.40745 13.7504 8.94519 13.8936C8.48754 14.0354 8.00126 13.7812 7.85624 13.3246C7.71128 12.868 7.96196 12.3799 8.41759 12.2317Z" fill="var(--fill-0, #BABABA)"/>
<path id="Vector_251" d="M62.1679 32.3708C62.4593 32.2486 62.794 32.2932 63.0426 32.4883C63.2918 32.6834 63.4154 32.9979 63.366 33.31C63.3172 33.6221 63.1028 33.8835 62.8062 33.9925C62.361 34.1566 61.867 33.9347 61.6936 33.4938C61.5201 33.0529 61.7307 32.5536 62.1679 32.3708Z" fill="var(--fill-0, #BABABA)"/>
<path id="Vector_252" d="M50.2037 8.30317C50.6851 8.25936 51.1105 8.61586 51.1509 9.09767C51.1918 9.57949 50.8327 10.0024 50.3508 10.0401C49.8728 10.0775 49.4544 9.72224 49.414 9.24471C49.3736 8.76722 49.7261 8.34661 50.2037 8.30317Z" fill="var(--fill-0, #BABABA)"/>
<path id="Vector_253" d="M36.4497 8.29957C36.9278 8.2951 37.3203 8.67647 37.3292 9.15433C37.3382 9.6322 36.9607 10.0281 36.4826 10.0416C35.9985 10.0553 35.5961 9.67145 35.5872 9.18714C35.5778 8.70284 35.9656 8.30408 36.4497 8.29957Z" fill="var(--fill-0, #BABABA)"/>
<path id="Vector_254" d="M22.2653 12.2286C22.6809 12.1994 23.0886 12.1601 23.3528 12.5565C23.4725 12.7381 23.5143 12.96 23.4691 13.1727C23.3891 13.5437 23.204 13.7175 22.9034 13.9034C21.7594 14.0471 21.282 12.9031 22.2653 12.2286Z" fill="var(--fill-0, #BABABA)"/>
<path id="Vector_255" d="M2.46491 8.3294C3.76248 8.17888 4.09129 9.43945 3.17133 10.0007C2.55789 10.1232 2.38782 10.0322 2.01488 9.52618C1.97755 8.92915 1.9164 8.67066 2.46491 8.3294Z" fill="var(--fill-0, #BABABA)"/>
<path id="Vector_256" d="M36.1242 12.224C36.7014 12.2018 37.3247 12.2509 37.3694 13.0559C37.3891 13.4065 37.0549 13.7212 36.7578 13.8811C36.3437 13.9655 35.9808 13.8835 35.7401 13.5098C35.6062 13.2988 35.5667 13.0414 35.6315 12.8001C35.7162 12.4838 35.8609 12.3849 36.1242 12.224Z" fill="var(--fill-0, #BABABA)"/>
<path id="Vector_257" d="M20.3209 32.3783C20.524 32.2951 20.751 32.2918 20.9565 32.3689C21.3036 32.4986 21.5304 32.8342 21.5218 33.2046C21.5132 33.575 21.2709 33.8999 20.9182 34.0131C20.4728 34.1565 19.9937 33.9224 19.8332 33.4834C19.6726 33.0439 19.888 32.5559 20.3209 32.3783Z" fill="var(--fill-0, #BABABA)"/>
<path id="Vector_258" d="M30.1453 12.2338C30.5891 12.2025 30.9961 12.1587 31.2741 12.5764C31.6104 13.0819 31.3349 13.5683 30.8911 13.8606C30.4438 13.9605 30.0594 13.9242 29.7962 13.4939C29.6658 13.281 29.6286 13.0239 29.6934 12.7828C29.7707 12.4934 29.9005 12.3791 30.1453 12.2338Z" fill="var(--fill-0, #BABABA)"/>
<path id="Vector_259" d="M38.3105 32.3514C38.7669 32.2193 39.2445 32.4774 39.3846 32.931C39.5246 33.3846 39.275 33.8669 38.8238 34.0149C38.5248 34.1132 38.1962 34.0422 37.9645 33.8297C37.7323 33.6168 37.6331 33.2957 37.705 32.9893C37.777 32.6828 38.0082 32.4388 38.3105 32.3514Z" fill="var(--fill-0, #BABABA)"/>
<path id="Vector_260" d="M50.6661 42.828C50.9768 42.766 51.2964 42.8769 51.5014 43.1185C51.7063 43.3597 51.7642 43.6934 51.6518 43.9895C51.5399 44.2857 51.2758 44.4977 50.9622 44.5433C50.4959 44.611 50.0602 44.2946 49.9798 43.8297C49.8994 43.3653 50.204 42.9211 50.6661 42.828Z" fill="var(--fill-0, #BABABA)"/>
<path id="Vector_261" d="M22.3984 32.3601C22.7044 32.276 23.0318 32.3653 23.2529 32.5928C23.4739 32.8203 23.5538 33.1499 23.4612 33.4535C23.3687 33.7567 23.1183 33.9861 22.8078 34.0514C22.3474 34.1483 21.8932 33.8615 21.7825 33.4042C21.6718 32.9468 21.9446 32.4842 22.3984 32.3601Z" fill="var(--fill-0, #BABABA)"/>
<path id="Vector_262" d="M66.1588 8.29964C66.6382 8.29203 67.0336 8.67391 67.043 9.15351C67.0519 9.63312 66.6716 10.0298 66.1917 10.0405C65.7103 10.0512 65.3113 9.66851 65.3019 9.1867C65.2929 8.70493 65.677 8.3073 66.1588 8.29964Z" fill="var(--fill-0, #BABABA)"/>
<path id="Vector_263" d="M0.62934 31.5446C0.859483 31.5366 1.11228 31.5423 1.34445 31.5427C1.9481 32.0034 2.14487 32.8632 1.31488 33.1372C1.20211 33.1452 0.793345 33.1668 0.717054 33.1358C-0.19092 32.7687 -0.154913 31.9893 0.62934 31.5446Z" fill="var(--fill-0, #BABABA)"/>
<path id="Vector_264" d="M55.9557 12.2281C56.3863 12.2046 56.7666 12.1913 57.0331 12.5971C57.152 12.7804 57.1915 13.0038 57.1435 13.2167C57.0599 13.571 56.8592 13.7285 56.5663 13.8992C55.4367 14.0385 54.922 12.8107 55.9557 12.2281Z" fill="var(--fill-0, #BABABA)"/>
<path id="Vector_265" d="M42.1884 32.3503C42.4898 32.2643 42.8141 32.3466 43.0374 32.5666C43.2607 32.7861 43.3486 33.1086 43.2677 33.4113C43.1869 33.714 42.9499 33.9495 42.6468 34.0285C42.1856 34.1488 41.7137 33.8757 41.5882 33.416C41.4627 32.9563 41.7301 32.481 42.1884 32.3503Z" fill="var(--fill-0, #BABABA)"/>
<path id="Vector_266" d="M6.55618 39.0246C7.89891 38.9306 8.0891 40.2397 7.12655 40.7272C5.87412 40.8179 5.59448 39.4923 6.55618 39.0246Z" fill="var(--fill-0, #BABABA)"/>
<path id="Vector_267" d="M69.6882 11.0063C70.972 10.8494 71.3931 12.0775 70.4756 12.5641C70.1832 12.6061 69.9529 12.5952 69.6586 12.5906C69.0188 12.1358 68.9027 11.3599 69.6882 11.0063Z" fill="var(--fill-0, #BABABA)"/>
<path id="Vector_268" d="M14.3738 8.32531C14.912 8.2604 15.1074 8.35253 15.4282 8.77253C15.5397 9.43852 15.5306 9.73879 14.8836 10.0524C13.7882 10.1192 13.3071 8.95769 14.3738 8.32531Z" fill="var(--fill-0, #BABABA)"/>
<path id="Vector_269" d="M53.9873 12.2271C54.9664 12.1924 55.1681 12.4105 55.114 13.3882C54.9293 13.6713 54.8503 13.738 54.558 13.9079C54.125 13.9388 53.7715 13.8695 53.5252 13.4688C53.4129 13.2831 53.3786 13.0604 53.4303 12.8495C53.5144 12.5069 53.7038 12.3908 53.9873 12.2271Z" fill="var(--fill-0, #BABABA)"/>
<path id="Vector_270" d="M63.9594 12.2287C64.3942 12.2034 64.8098 12.2281 65.0166 12.6675C65.2888 13.2464 64.9536 13.647 64.4718 13.8865C63.3563 14.048 62.8435 12.7547 63.9594 12.2287Z" fill="var(--fill-0, #BABABA)"/>
<path id="Vector_271" d="M4.43364 12.2241C4.87117 12.2033 5.22043 12.1828 5.49795 12.5872C5.61782 12.7648 5.66045 12.9835 5.61603 13.1931C5.5372 13.5693 5.34062 13.7089 5.04176 13.9003C3.93871 14.117 3.42671 12.8463 4.43364 12.2241Z" fill="var(--fill-0, #BABABA)"/>
<path id="Vector_272" d="M49.994 12.2309C50.4519 12.2047 50.8895 12.2058 51.1161 12.6751C51.3765 13.2145 51.0601 13.6517 50.5919 13.8874C49.8168 14.0392 49.5409 13.5931 49.4318 12.9208C49.5531 12.5293 49.6147 12.3959 49.994 12.2309Z" fill="var(--fill-0, #BABABA)"/>
<path id="Vector_273" d="M28.1363 32.3487C28.5727 32.2961 28.9154 32.3257 29.1765 32.7309C29.3149 32.9429 29.3546 33.2042 29.2856 33.4482C29.2048 33.7392 29.059 33.8661 28.8107 34.0099C28.354 34.0677 27.9849 34.0593 27.7151 33.617C27.5821 33.4026 27.549 33.1412 27.6244 32.9006C27.7233 32.5903 27.8682 32.4973 28.1363 32.3487Z" fill="var(--fill-0, #BABABA)"/>
<path id="Vector_274" d="M58.4892 39.5816C59.8599 39.5158 59.9629 40.9302 58.9734 41.3133C58.2692 41.3434 58.0953 41.1732 57.88 40.5353C57.998 40.0455 58.0483 39.8575 58.4892 39.5816Z" fill="var(--fill-0, #BABABA)"/>
<path id="Vector_275" d="M52.4787 42.874C53.8052 42.733 54.0933 44.0515 53.0926 44.5352C51.8539 44.6551 51.508 43.3333 52.4787 42.874Z" fill="var(--fill-0, #BABABA)"/>
<path id="Vector_276" d="M54.3725 42.8897C54.8204 42.7097 55.3295 42.9292 55.5058 43.3786C55.6816 43.8285 55.4574 44.3352 55.0061 44.5072C54.561 44.6765 54.0617 44.456 53.8883 44.0123C53.7144 43.5685 53.9306 43.0679 54.3725 42.8897Z" fill="var(--fill-0, #BABABA)"/>
<path id="Vector_277" d="M30.1925 10.2567C30.2934 10.2505 30.6521 10.2274 30.7321 10.2574C31.6003 10.5827 31.5141 11.5356 30.8206 11.9784C30.4135 12.0397 30.0613 11.9874 29.817 11.6136C29.6838 11.406 29.6405 11.1533 29.6969 10.9132C29.7701 10.5887 29.9266 10.4287 30.1925 10.2567Z" fill="var(--fill-0, #BABABA)"/>
<path id="Vector_278" d="M46.0101 8.3695C46.303 8.24432 46.6405 8.28931 46.8901 8.48674C47.1397 8.68416 47.2614 9.00235 47.2074 9.31597C47.1529 9.62965 46.9315 9.88837 46.6297 9.99033C46.1878 10.1397 45.7069 9.91342 45.5405 9.47782C45.3741 9.04226 45.5814 8.55292 46.0101 8.3695Z" fill="var(--fill-0, #BABABA)"/>
<path id="Vector_279" d="M20.3312 12.2268C21.0094 12.1861 21.6316 12.3872 21.4439 13.2901C21.3807 13.5942 21.1164 13.76 20.8481 13.8957C20.419 13.9464 20.0565 13.8466 19.8392 13.4381C19.7238 13.2227 19.7063 12.968 19.7913 12.7389C19.901 12.4447 20.0634 12.3491 20.3312 12.2268Z" fill="var(--fill-0, #BABABA)"/>
<path id="Vector_280" d="M10.5043 32.3647C10.9578 32.211 11.4501 32.4536 11.6042 32.9067C11.7584 33.3603 11.5161 33.853 11.0629 34.0071C10.6092 34.1618 10.1161 33.9192 9.9618 33.4656C9.80752 33.0116 10.0505 32.5189 10.5043 32.3647Z" fill="var(--fill-0, #BABABA)"/>
<path id="Vector_281" d="M27.8504 39.02C28.4334 38.9589 28.6023 39.0219 28.9369 39.4948C28.9558 40.1252 28.9925 40.4091 28.3888 40.7278C27.979 40.7682 27.6474 40.7221 27.4043 40.3451C27.2738 40.1411 27.235 39.8915 27.2972 39.6574C27.3848 39.3195 27.5692 39.1836 27.8504 39.02Z" fill="var(--fill-0, #BABABA)"/>
<path id="Vector_282" d="M59.9609 12.2273C60.3821 12.2058 60.7516 12.1906 60.9819 12.601C61.3035 13.1732 61.0336 13.6304 60.5335 13.9158C59.3522 13.988 58.9066 12.7587 59.9609 12.2273Z" fill="var(--fill-0, #BABABA)"/>
<path id="Vector_283" d="M40.1613 32.3504C41.4479 32.192 41.7196 33.5749 40.8542 34.0059C40.4034 34.0628 40.0005 34.0548 39.7458 33.6238C39.4322 33.094 39.695 32.6286 40.1613 32.3504Z" fill="var(--fill-0, #BABABA)"/>
<path id="Vector_284" d="M14.3781 39.0372C14.8432 38.9126 15.3204 39.1914 15.4411 39.6572C15.5618 40.1231 15.2798 40.5983 14.813 40.7153C14.351 40.8314 13.882 40.5532 13.7626 40.092C13.6431 39.6309 13.918 39.1599 14.3781 39.0372Z" fill="var(--fill-0, #BABABA)"/>
<path id="Vector_285" d="M67.8437 8.34341C68.2982 8.18706 68.7932 8.4306 68.9464 8.88614C69.1001 9.34163 68.8533 9.83505 68.3969 9.98566C67.9442 10.135 67.4563 9.89099 67.304 9.4395C67.1522 8.988 67.3929 8.49834 67.8437 8.34341Z" fill="var(--fill-0, #BABABA)"/>
<path id="Vector_286" d="M66.1065 35.7967C66.5837 35.7449 67.0114 36.0909 67.0617 36.568C67.1115 37.0456 66.7642 37.4724 66.2866 37.5204C65.8118 37.5683 65.3878 37.2233 65.338 36.7485C65.2882 36.2738 65.6318 35.8484 66.1065 35.7967Z" fill="var(--fill-0, #BABABA)"/>
<path id="Vector_287" d="M0.592246 33.431C0.689643 33.4211 1.10053 33.3882 1.18453 33.4146C2.08818 33.7013 2.0815 34.5488 1.37246 35.0194C0.841051 35.0363 0.0687846 35.0128 0.0594774 34.1779C0.056234 33.8865 0.365159 33.5993 0.592246 33.431Z" fill="var(--fill-0, #BABABA)"/>
<path id="Vector_288" d="M58.3573 42.8476C58.8152 42.7108 59.297 42.9703 59.4347 43.4276C59.5724 43.8855 59.3139 44.3678 58.8565 44.5064C58.3982 44.6456 57.9136 44.3861 57.7754 43.9273C57.6372 43.4681 57.8981 42.9844 58.3573 42.8476Z" fill="var(--fill-0, #BABABA)"/>
<path id="Vector_289" d="M67.7943 12.226C68.2399 12.2017 68.584 12.1819 68.8839 12.5782C69.0127 12.7455 69.0653 12.9591 69.0291 13.1671C68.9652 13.5259 68.7532 13.6831 68.4735 13.8668C68.0565 13.9603 67.7026 13.9124 67.4497 13.5287C67.3115 13.3198 67.2645 13.0637 67.3195 12.8193C67.3872 12.5195 67.5456 12.3774 67.7943 12.226Z" fill="var(--fill-0, #BABABA)"/>
<path id="Vector_290" d="M0.759406 11.0113C1.19097 10.9907 1.52331 11.0198 1.75669 11.4455C1.85921 11.631 1.8783 11.8512 1.8092 12.0516C1.70588 12.348 1.48909 12.5031 1.21809 12.6254C1.01089 12.6224 0.732942 12.6412 0.54769 12.5429C-0.217291 12.1371 -0.145794 11.1886 0.759406 11.0113Z" fill="var(--fill-0, #BABABA)"/>
<path id="Vector_291" d="M28.3282 12.2277C28.7466 12.2061 29.0994 12.1871 29.3355 12.6078C29.4439 12.8053 29.4701 13.0375 29.4083 13.2542C29.3082 13.6108 29.1045 13.7578 28.798 13.919C27.6115 13.9655 27.2797 12.6275 28.3282 12.2277Z" fill="var(--fill-0, #BABABA)"/>
<path id="Vector_292" d="M69.6347 18.4803C70.1095 18.4593 70.5208 18.4174 70.855 18.8565C71.1925 19.2992 70.8964 19.7344 70.4954 20.0055C70.3784 20.0204 69.9614 20.0608 69.8543 20.0322C68.9108 19.7803 68.9132 18.9538 69.6347 18.4803Z" fill="var(--fill-0, #BABABA)"/>
<path id="Vector_293" d="M56.495 42.874C56.6999 42.8838 56.9683 42.9177 57.178 42.9379C57.774 43.5551 57.7228 44.2113 56.8983 44.5577C56.4969 44.5732 56.0931 44.459 55.8961 44.0797C55.7936 43.8841 55.7777 43.6543 55.8529 43.4465C55.9727 43.1085 56.1904 43.0065 56.495 42.874Z" fill="var(--fill-0, #BABABA)"/>
<path id="Vector_294" d="M34.4426 32.3649C34.8967 32.2168 35.3851 32.465 35.5336 32.9191C35.6817 33.3732 35.4335 33.862 34.9794 34.0101C34.5248 34.1586 34.0364 33.9104 33.8882 33.4559C33.7399 33.0018 33.9881 32.513 34.4426 32.3649Z" fill="var(--fill-0, #BABABA)"/>
<path id="Vector_295" d="M36.3645 34.2702C36.7899 34.2331 37.1198 34.2759 37.3455 34.6956C37.4621 34.917 37.4823 35.177 37.4024 35.4139C37.2994 35.7223 37.1316 35.8703 36.8547 36.009C35.6725 36.0875 35.3468 34.9222 36.3645 34.2702Z" fill="var(--fill-0, #BABABA)"/>
<path id="Vector_296" d="M12.7044 19.6572C12.9284 19.6411 13.157 19.6485 13.3821 19.6508C14.0836 20.1324 14.1122 20.8252 13.3711 21.2843C12.9252 21.3241 12.5295 21.3438 12.2674 20.9016C12.1574 20.7189 12.1256 20.4995 12.1793 20.2931C12.2633 19.9703 12.4377 19.8242 12.7044 19.6572Z" fill="var(--fill-0, #BABABA)"/>
<path id="Vector_297" d="M58.0296 12.223C58.4907 12.0971 58.9664 12.3692 59.0924 12.8305C59.2179 13.2917 58.9453 13.7675 58.4841 13.8928C58.2256 13.9629 57.9497 13.9095 57.7358 13.7483C57.5224 13.587 57.3955 13.3359 57.3922 13.0683C57.3875 12.6743 57.6493 12.3268 58.0296 12.223Z" fill="var(--fill-0, #BABABA)"/>
<path id="Vector_298" d="M55.0729 35.7794C56.3491 35.7719 56.4746 37.1985 55.4927 37.5102C54.3133 37.56 53.9993 36.2462 55.0729 35.7794Z" fill="var(--fill-0, #BABABA)"/>
<path id="Vector_299" d="M24.311 32.3619C24.6069 32.2646 24.9324 32.3337 25.1629 32.5434C25.3936 32.7525 25.4937 33.0698 25.4251 33.374C25.3565 33.6776 25.1298 33.9211 24.8315 34.0114C24.3783 34.1482 23.8993 33.8953 23.7568 33.4435C23.6143 32.9923 23.8614 32.51 24.311 32.3619Z" fill="var(--fill-0, #BABABA)"/>
<path id="Vector_300" d="M34.2268 12.2372C34.5246 12.1329 34.856 12.1994 35.0905 12.4106C35.3251 12.6218 35.4257 12.944 35.3533 13.2513C35.2809 13.5586 35.0468 13.8019 34.7427 13.8861C34.2934 14.0103 33.8265 13.756 33.6873 13.3111C33.5481 12.8662 33.7867 12.3911 34.2268 12.2372Z" fill="var(--fill-0, #BABABA)"/>
<path id="Vector_301" d="M65.9962 37.7023C66.4601 37.5872 66.9297 37.8706 67.0435 38.3351C67.1572 38.7995 66.8724 39.2681 66.4075 39.3805C65.9449 39.4928 65.4786 39.2089 65.3654 38.7464C65.2516 38.2838 65.5341 37.817 65.9962 37.7023Z" fill="var(--fill-0, #BABABA)"/>
<path id="Vector_302" d="M14.4313 32.3599C14.8875 32.2349 15.3594 32.5 15.4899 32.9546C15.6203 33.4096 15.3608 33.8844 14.9077 34.0202C14.6098 34.1095 14.2868 34.032 14.0622 33.8167C13.8376 33.6014 13.746 33.2822 13.8223 32.9809C13.8987 32.6791 14.1313 32.4422 14.4313 32.3599Z" fill="var(--fill-0, #BABABA)"/>
<path id="Vector_303" d="M8.53556 32.3696C8.82719 32.2568 9.15689 32.3108 9.39766 32.5101C9.63838 32.7094 9.75255 33.0235 9.6961 33.3309C9.63969 33.6388 9.42149 33.8917 9.12558 33.9922C8.68057 34.1441 8.19589 33.9123 8.03522 33.47C7.87456 33.0281 8.09699 32.5393 8.53556 32.3696Z" fill="var(--fill-0, #BABABA)"/>
<path id="Vector_304" d="M12.3914 32.3724C12.6866 32.2671 13.0157 32.3296 13.2513 32.5364C13.4869 32.7432 13.5919 33.0615 13.5258 33.3679C13.4596 33.674 13.2326 33.9207 12.9327 34.0119C12.4841 34.1478 12.0087 33.9015 11.8618 33.4563C11.7148 33.0112 11.9499 32.5298 12.3914 32.3724Z" fill="var(--fill-0, #BABABA)"/>
<path id="Vector_305" d="M16.3777 32.371C16.8302 32.2422 17.3026 32.4993 17.4398 32.9496C17.5771 33.3995 17.3286 33.8766 16.8811 34.0223C16.5843 34.1187 16.2584 34.0477 16.0289 33.8357C15.7994 33.6242 15.7021 33.305 15.7745 33.0014C15.8468 32.6977 16.0775 32.4565 16.3777 32.371Z" fill="var(--fill-0, #BABABA)"/>
<path id="Vector_306" d="M6.46827 12.2247C6.53027 12.2216 6.59236 12.2201 6.65446 12.2202C7.51731 12.2251 7.53865 12.7469 7.50678 13.4375C7.31598 13.7285 7.24843 13.7828 6.93316 13.9338C5.7446 13.9665 5.39821 12.6914 6.46827 12.2247Z" fill="var(--fill-0, #BABABA)"/>
<path id="Vector_307" d="M62.3658 42.8634C62.8317 42.7689 63.2857 43.0693 63.3821 43.5347C63.478 44 63.1795 44.455 62.7141 44.5528C62.4612 44.6059 62.1975 44.5425 61.9964 44.3803C61.7947 44.2181 61.6767 43.9742 61.6748 43.7156C61.6715 43.3025 61.9611 42.9452 62.3658 42.8634Z" fill="var(--fill-0, #BABABA)"/>
<path id="Vector_308" d="M36.3572 32.3665C36.8075 32.2165 37.2945 32.4586 37.4463 32.908C37.5986 33.3578 37.3584 33.8457 36.9095 33.9999C36.4578 34.155 35.9656 33.913 35.8129 33.4608C35.6596 33.0081 35.9041 32.5173 36.3572 32.3665Z" fill="var(--fill-0, #BABABA)"/>
<path id="Vector_309" d="M60.233 42.895C60.6791 42.729 61.1754 42.9566 61.3414 43.4026C61.5073 43.8487 61.2798 44.3451 60.8337 44.5111C60.5756 44.6074 60.287 44.574 60.0572 44.4222C59.7864 44.2431 59.6393 43.9272 59.6764 43.6048C59.7136 43.2823 59.9288 43.0078 60.233 42.895Z" fill="var(--fill-0, #BABABA)"/>
<path id="Vector_310" d="M40.1433 12.2503C40.5884 12.0785 41.0886 12.3013 41.2587 12.7472C41.4284 13.1931 41.2037 13.6923 40.7572 13.8607C40.4869 13.9627 40.1837 13.9223 39.9491 13.7533C39.715 13.5844 39.5806 13.3092 39.5924 13.0205C39.6055 12.6768 39.8222 12.374 40.1433 12.2503Z" fill="var(--fill-0, #BABABA)"/>
<path id="Vector_311" d="M30.1163 32.3717C30.5679 32.218 31.0584 32.461 31.21 32.9132C31.3616 33.3654 31.1164 33.8547 30.6634 34.0042C30.2135 34.1523 29.7283 33.9092 29.5777 33.4603C29.4271 33.011 29.6679 32.5244 30.1163 32.3717Z" fill="var(--fill-0, #BABABA)"/>
<path id="Vector_312" d="M0.978181 25.9129C1.20499 25.9265 1.33853 25.9148 1.51993 26.0492C1.71604 26.1964 1.84014 26.4201 1.86124 26.6645C1.91375 27.2234 1.56379 27.5247 1.03746 27.5562C0.597337 27.5144 0.202014 27.3955 0.109646 26.8911C0.0731692 26.6838 0.122667 26.4709 0.24667 26.3007C0.451429 26.0177 0.658303 25.9632 0.978181 25.9129Z" fill="var(--fill-0, #BABABA)"/>
<path id="Vector_313" d="M60.3317 37.7256C60.782 37.5643 61.2775 37.8012 61.434 38.253C61.591 38.7047 61.3489 39.1978 60.8958 39.3501C60.4487 39.5005 59.9641 39.2627 59.8094 38.8171C59.6548 38.3714 59.8879 37.8844 60.3317 37.7256Z" fill="var(--fill-0, #BABABA)"/>
<path id="Vector_314" d="M58.5137 37.7186C58.9706 37.5959 59.4411 37.8657 59.5662 38.3217C59.6912 38.7781 59.4237 39.2496 58.9682 39.3769C58.509 39.5057 58.0333 39.2359 57.9073 38.7762C57.7813 38.3165 58.0535 37.8422 58.5137 37.7186Z" fill="var(--fill-0, #BABABA)"/>
<path id="Vector_315" d="M60.3074 32.3618C60.7511 32.1972 61.2442 32.4233 61.4092 32.8671C61.5742 33.3108 61.3481 33.8044 60.9044 33.9694C60.4606 34.1344 59.9666 33.9083 59.8016 33.4645C59.6366 33.0203 59.8632 32.5267 60.3074 32.3618Z" fill="var(--fill-0, #BABABA)"/>
<path id="Vector_316" d="M55.1682 39.6219C55.4728 39.5726 55.7803 39.6901 55.9735 39.9303C56.1667 40.1705 56.2165 40.4958 56.1032 40.7825C55.9899 41.0693 55.7319 41.2733 55.4263 41.3165C54.9609 41.3823 54.5294 41.0617 54.4589 40.5968C54.3879 40.1324 54.7048 39.6976 55.1682 39.6219Z" fill="var(--fill-0, #BABABA)"/>
<path id="Vector_317" d="M6.61098 32.3715C6.8965 32.2531 7.22352 32.2982 7.46664 32.489C7.70975 32.6794 7.83117 32.9864 7.78435 33.2919C7.73754 33.5974 7.52977 33.8536 7.24068 33.9632C6.80333 34.1281 6.31437 33.9119 6.14238 33.4771C5.97038 33.0423 6.17904 32.5501 6.61098 32.3715Z" fill="var(--fill-0, #BABABA)"/>
<path id="Vector_318" d="M2.56625 12.2269C2.98193 12.2052 3.32644 12.2133 3.56913 12.6143C3.69191 12.8219 3.7219 13.0715 3.65177 13.3022C3.54295 13.6488 3.38454 13.7501 3.08247 13.9053C1.92988 14.0061 1.56003 12.7918 2.56625 12.2269Z" fill="var(--fill-0, #BABABA)"/>
<path id="Vector_319" d="M55.0402 37.7183C55.4929 37.597 55.9583 37.863 56.0838 38.3143C56.2093 38.7656 55.9484 39.2338 55.4981 39.3635C55.0421 39.4956 54.5659 39.2295 54.4385 38.7721C54.3112 38.3143 54.5814 37.841 55.0402 37.7183Z" fill="var(--fill-0, #BABABA)"/>
<path id="Vector_320" d="M62.2109 37.7093C62.892 37.667 63.4011 37.9068 63.2732 38.751C63.2291 39.0443 62.9959 39.2361 62.7482 39.3846L62.1564 39.3922C61.895 39.2023 61.8739 39.1886 61.6623 38.9334C61.6299 38.3185 61.5895 37.9928 62.2109 37.7093Z" fill="var(--fill-0, #BABABA)"/>
<path id="Vector_321" d="M46.1093 12.2444C46.4012 12.1435 46.7246 12.2079 46.955 12.413C47.1858 12.618 47.2878 12.9316 47.2215 13.233C47.1552 13.5345 46.9314 13.7767 46.6362 13.8663C46.1916 14.0012 45.721 13.7555 45.5777 13.3137C45.4338 12.8718 45.6707 12.3965 46.1093 12.2444Z" fill="var(--fill-0, #BABABA)"/>
<path id="Vector_322" d="M62.157 35.9265C62.9166 35.8696 63.5738 36.2541 63.2109 37.174C63.1451 37.3409 62.9213 37.4748 62.7558 37.5477C62.3088 37.5538 61.9539 37.5562 61.7006 37.1289C61.3992 36.6207 61.686 36.1601 62.157 35.9265Z" fill="var(--fill-0, #BABABA)"/>
<path id="Vector_323" d="M62.121 34.1718C62.5577 34.1633 62.9008 34.1464 63.196 34.5305C63.5524 34.9939 63.2468 35.488 62.8426 35.7728C62.7142 35.7827 62.3711 35.8123 62.2691 35.7813C61.3849 35.512 61.4239 34.6071 62.121 34.1718Z" fill="var(--fill-0, #BABABA)"/>
<path id="Vector_324" d="M0.804326 18.4858C2.12943 18.4321 2.18377 19.7963 1.24431 20.0404C0.42931 20.0512 0.294495 20.0086 0.061203 19.2327C0.258442 18.7777 0.28735 18.595 0.804326 18.4858Z" fill="var(--fill-0, #BABABA)"/>
<path id="Vector_325" d="M64.2533 34.0891C64.713 34.043 65.1248 34.3735 65.1793 34.8327C65.2343 35.2915 64.9113 35.7094 64.4535 35.7724C64.1498 35.8142 63.8471 35.6892 63.6619 35.4448C63.4767 35.2003 63.4382 34.8746 63.5609 34.5939C63.6831 34.3128 63.9482 34.1196 64.2533 34.0891Z" fill="var(--fill-0, #BABABA)"/>
<path id="Vector_326" d="M65.9061 39.6051C66.3409 39.4308 66.835 39.6446 67.0051 40.0809C67.1753 40.5175 66.9567 41.0092 66.5186 41.1752C66.0866 41.3392 65.6029 41.1244 65.4347 40.6933C65.2668 40.2628 65.477 39.7772 65.9061 39.6051Z" fill="var(--fill-0, #BABABA)"/>
<path id="Vector_327" d="M56.6425 41.1432C57.7955 41.1145 57.9892 42.3799 57.0589 42.7386L56.3703 42.7235C55.7428 42.1674 55.7202 41.3415 56.6425 41.1432Z" fill="var(--fill-0, #BABABA)"/>
<path id="Vector_328" d="M64.051 37.7387C64.4924 37.6023 64.9615 37.8501 65.0978 38.2919C65.2341 38.7338 64.9864 39.2024 64.5445 39.3388C64.1027 39.4751 63.634 39.2274 63.4977 38.7855C63.3614 38.3436 63.6091 37.875 64.051 37.7387Z" fill="var(--fill-0, #BABABA)"/>
<path id="Vector_329" d="M63.9958 35.9147C64.156 35.9095 64.4837 35.8865 64.6252 35.9574C65.3044 36.2968 65.3524 37.2374 64.5885 37.5063C64.1612 37.5223 63.8872 37.5378 63.6042 37.1397C63.4777 36.9653 63.4326 36.7448 63.481 36.5347C63.552 36.2301 63.7466 36.0712 63.9958 35.9147Z" fill="var(--fill-0, #BABABA)"/>
<path id="Vector_330" d="M62.3622 41.1917L62.4045 41.1954C62.5098 41.2058 62.7336 41.2114 62.8215 41.2542C63.5505 41.6082 63.5115 42.5205 62.6979 42.7664C62.484 42.7734 62.2193 42.8045 62.0463 42.6766C61.3666 42.1741 61.5274 41.3468 62.3622 41.1917Z" fill="var(--fill-0, #BABABA)"/>
<path id="Vector_331" d="M64.1504 41.1859C64.4428 41.1229 64.7459 41.2221 64.9443 41.4458C65.1427 41.67 65.2047 41.9831 65.1069 42.2656C65.0092 42.5481 64.7662 42.7559 64.4719 42.8095C64.0277 42.8894 63.6009 42.5989 63.513 42.1556C63.4251 41.7128 63.709 41.2813 64.1504 41.1859Z" fill="var(--fill-0, #BABABA)"/>
<path id="Vector_332" d="M62.1654 39.5417C62.7106 39.5304 63.3885 39.6301 63.2799 40.4381C63.2427 40.7154 62.9753 40.9256 62.7464 41.0736C62.5438 41.0882 62.3186 41.0811 62.1137 41.0797C61.5167 40.5885 61.3573 39.9069 62.1654 39.5417Z" fill="var(--fill-0, #BABABA)"/>
<path id="Vector_333" d="M64.2815 39.5444C64.4588 39.5538 64.6449 39.5782 64.7986 39.6736C64.965 39.7775 65.0844 39.9435 65.1295 40.1348C65.2513 40.6551 64.8724 41.0077 64.3836 41.0791C63.2925 41.0636 63.129 39.6939 64.2815 39.5444Z" fill="var(--fill-0, #BABABA)"/>
</g>
</svg>
