<svg xmlns="http://www.w3.org/2000/svg" width="199" height="150" fill="none" viewBox="0 0 199 150"><g fill="#bababa"><path d="M83.966 31.211c1.256.146 1.738.383 1.946 1.746.117.76-.478 1.358-.936 1.905.085.631.645.921.785 1.445.378 1.42-.3 1.9-1.416 2.275l-.16.053.039.111c1.466.293 1.725 1.139 1.463 2.647-.171.99-.967.701-1.492.975l-.018.131c.938.204 1.605.875 1.634 1.917.019.692-.662 1.245-1.169 1.65l-.183.144c1.891 1.379 1.949 2.611-.275 3.589l.03.089c2.021.57 2.067 2.836.34 3.521l-.035.159.415.426c.728.739 1.126 1.279.693 2.341-.201.492-.937.669-1.4.837.823.555 1.813.991 1.495 2.23-.318 1.234-.639 1.047-1.529 1.569l.12.129c1.298.109 2.482 2.312.039 3.375l-.147.062.014.111c.886.188 1.277.683 1.476 1.545.336 1.45-.874 1.232-1.336 1.958l.098.196c.687.309.866.244.973.985a5 5 0 0 0-.316.682c.147.122.227.163.395.245.062.278.086.477.049.76-.201 1.508.085 1.567-1.052 2.581-.908.055-2.351-.099-2.319-1.418.025-1.023-.038-2.878.552-3.718-.017.024.421-.368.447-.391-.127-.408-1-.586-1.083-1.286-.119-1.009.341-1.996 1.4-2.131l.226-.027.037-.126c-1.247-.312-1.702-.59-1.552-2.093.062-.618.386-1.026.9-1.364.314.002.211.043.466-.084-1.112-.484-1.793-1.378-1.372-2.678.164-.507 1.043-.752 1.519-.966l.009-.138a23 23 0 0 0-1.044-.451c-.304-.386-.459-.682-.486-1.15-.125-2.111 1.127-1.675 1.379-1.988-1.001-.76-1.744-1.1-1.349-2.506.405-1.443.907-.668 1.619-1.112-.114-.409-1.012-.289-1.332-.826-.943-1.579-.103-2.195.963-3.058-.449-.225-.992-.505-1.18-.976-.725-1.808.773-2.139.999-2.736-.833-.56-.819-.726-1.17-1.667.345-1.562.358-1.521 1.774-2.05l-.044-.075-.135-.024c-2.071-.394-2.147-2.459-.323-3.532l.128-.074c-1.48-1.474-2.384-3.051.431-3.744"/><path d="M84.578 69.188c.224.331.171.154.17.55-.372.527-.99.613-1.594.727l-.116-.123c.977-.58 1.053.263 1.54-1.154m-8.576-58.136c.264.12.61.086.862.239.37.225 1.008.883 1.076 1.322.141.92-.781 1.399-1.198 2.1.133.601.846.719.943 1.054.551 1.889-1.037 2.312-1.173 2.658.552.349.767.514 1.205.997.051 1.704.177 1.81-1.31 2.6 1.366.896 1.354 1.054 1.31 2.635-.45.51-.594.718-1.201 1.015l.083.062.134.107c.581.452.632.497 1.064 1.108-.013.278-.017.65-.06.918-.183 1.159-.352.986-1.067 1.535q.192.22.38.442c1.162 1.347 1.36 2.58-.658 3.187-.724.022-1.244-.044-1.727-.637-1.007-1.238-.097-2.065.786-2.855-.14-.828-2.772-1.539.137-3.786-2.166-1.405-1.374-2.116-.179-3.584-.063-.577-.73-.573-1.001-1.109-.717-1.422.765-2.124.915-2.696-.59-.596-1.312-1.188-1.037-2.141.294-1.02.575-.874 1.188-1.421-.365-.32-1.175-.889-1.239-1.353-.174-1.271.569-2.179 1.767-2.397m77.589 75.541c1.075 1.138 1.411 2.666-.18 3.503 1.106 1.363 1.823 2.636-.152 3.746l.939.879c.464 1.343.39 2.234-1.051 2.803 3.132 2.604.378 3.08.267 3.872 1.012 1.073 2.007 2.45.143 3.447l.168.367c-.716.023-1.143.019-1.852.181.315-.24.232-.092.361-.411-.256-.171-.44-.274-.707-.424-1.315-.996-.352-2.493.717-3.228-3.19-1.915-.339-2.855-.023-3.702-1.708-1.481-2.151-2.6.196-3.766-2.458-1.05-1.726-2.012-.443-3.614-.036-.605-2.554-1.974-.08-3.597.464.143 1.221.057 1.697-.056"/><path d="M151.527 104.556c.579.079 1.484.172 2.03.287l.168.367c-.716.023-1.143.019-1.852.181.315-.24.232-.092.361-.411-.256-.171-.44-.274-.707-.424m-91.901 5.663c1.142-.136 1.371.306 2.055 1.099.103 1.437.217 1.974-1.216 2.453l-.193.065c1.074.708 2.169 1.601 1.161 3.184-.193.304-.744.434-1.103.44-.096.173-.122.112.016.198.588.368 1.274.774 1.414 1.517.087.453.003 1.077-.279 1.454-.312.418-1.007.471-1.464.575l.176.22c1.644.407 1.554 1.176 1.495 2.675-.433.473-.615.626-1.158.952 1.358 1.147 2 3.2-.261 3.559-2.257-.212-2.763-2.915-.22-3.476l-.08-.143c-1.109-.174-1.286-.487-1.717-1.49l-.065-.154c.118-.437.257-.881.388-1.316.303-.246.658-.472.985-.692-1.62-.979-1.935-2.186-.249-3.347l.591-.41q-.15-.065-.3-.133c-1.239-.576-1.72-1.401-1.101-2.714.309-.654 1.234-.566 1.488-.894l-.142-.157c-2.361-.216-1.963-2.571-.221-3.465m13.894 7.023 1.235-.018.076.245c.962.597 1.305 1.501 1.028 2.697-.12.516-.759.598-1.213.808 1.164.873 2.014 2.34.681 3.501-.39.067-.284-.011-.552.208.166.503 1.165.896 1.182 1.687.039 1.77-.671 1.798-2.032 1.967l.028.103.185.016c1.931.201 2.133 2.795 1.316 3.368-2.009 1.41-4.828-1.368-1.791-3.305l.134-.083c-.653-.388-1.545-.926-1.486-1.857.05-.79.908-1.21 1.323-1.8-.365-.39-.769-.749-1.047-1.207-.627-1.03.267-2.057 1.193-2.513-1.658-1.005-1.93-2.433-.245-3.628z"/><path d="m73.52 117.242 1.235-.018.076.245c-.419.004-.874-.023-1.296-.038zm102.163-16.792c.236.072.473.157.708.237.694.704.395 4.428.399 5.612l.078 11.159c.029 1.943.91 2.757-.359 4.448l-.297-.138-.103.106c-.045 1.106-.453 1.237-1.427 1.689-2.163-.288-2.047-3.811.714-2.474-.059-.712-.047-1.452-.045-2.167.016-5.667-.07-11.34.041-17.004.009-.461.163-1.023.291-1.468m-43.557-14.07c.402-.1 1.038-.039 1.436.046l.007.306c.325.36.624.674.908 1.068-.003.584.007 1.21-.01 1.791l-1.017.675c.352.351.678.645.958 1.056.015.953.108 1.552-.503 2.328-.397.503.166.856.557 1.294.206 1.456.296 2.051-1.202 2.623.757.608 1.146.901 1.286 1.933.09.671-.196 1.32-.832 1.571-.456-.01-.851-.089-1.223.097-1.818-.852-1.381-2.684.319-3.5-1.67-1.127-2.26-2.633-.184-3.767-2.875-1.88-.575-2.754-.353-3.688-1.179-1.261-1.509-2.048-.183-3.482.059-.123.035-.191.036-.351"/><path d="M132.126 86.38c.402-.1 1.038-.039 1.436.046l.007.306c-.631.19-.851.248-1.479-.001.059-.123.035-.191.036-.351"/><path d="M132.432 75.77c-.538-.351-.925-.715-1.059-1.38a1.8 1.8 0 0 1 .282-1.401c1.019-1.455 2.547-.681 3.347.57-.43 1.388-.453 1.445-1.499 2.446.605.541.963 1.306.993 2.117.027.766-.366 1.012-1.01 1.18.092.758 1.778 1.673.704 3.056q-.315.403-.67.772c.483 1.14 2.02 2.282.042 3.296-.398-.085-1.034-.146-1.436-.046-1.687-1.152-.908-2.415.354-3.406-1.019-.434-.959-.598-1.27-1.583.253-1.113.276-1.222 1.137-1.981-.388-.611-1.47-.967-1.22-2.018.171-.72.762-1.189 1.305-1.622m34.283-4.511c1.068.752 1.031 1.382.942 2.559-.384.542-.466.688-1.036.999.751.747.847 1.028 1.244 1.978-.37 1.03-.408.934-1.15 1.719l.097.253.137.096c1.43 1.01.672 2.207-.183 3.296-.009.437.657.845.834 1.31.836 2.188-2.756 3.051-3.105.914-.136-.826.617-1.637 1.112-2.229-1.857-1.28-1.404-2.001-.081-3.487-.025-.757-2.694-1.338.167-3.808-.556-.313-.84-.443-1.102-1.052-.416-.964-.077-2.13.979-2.506.349-.007.808-.004 1.145-.042m-36.246-27.863c.468-1.097 1.354-2.381 2.745-1.662.45.238.775.657.895 1.151.326 1.301-.373 1.961-1.481 2.344 1.229 1.305 1.67 2.504.022 3.704.366.974 1.225 1.345.788 2.371-.181.41-.468.763-.832 1.024l-.22.172c-.745.006-.979-.035-1.686-.163l-.208-.283c-1.106-.926-.757-2.081.233-2.912l.306-.26c-.271-.809-1.518-1.054-.767-2.727.208-.464.63-.627 1.08-.833l.178-.082.108-.049c-.055-.201-.002-.121-.228-.246-.554-.304-.717-.97-.933-1.549"/><path d="M130.492 52.054c.569.08 1.666.155 2.114.274l-.22.171c-.745.007-.979-.034-1.686-.162zM69.433 33.971a3.106 3.106 0 1 1 2.02 5.874 3.106 3.106 0 0 1-2.02-5.874m19.233 80.504c2.5.754 2.111 3.607-.41 3.221.045.145.012.09.149.234 1.771 1.875 1.071 3.094-1.388 2.718-.313-.426-.311-.781-.648-1.056-.951.885-.271 1.069-1.72.673l-.153.117c.356.851.171 1.213-.332 1.953-1.894 1.396-3.932-1.577-1.817-2.483.566-.243 1.106-.087 1.639.147a6 6 0 0 1-.129-.896c-.072-1.476 1.523-2.391 2.528-.983.432-.646.347-.663 1.073-.78.035-.278-.078-.304-.303-.613-.105-1.189.509-1.746 1.511-2.252m43.825-13.307c.372-.186.767-.107 1.223-.097l-.102.365c.333.354.607.619.873 1.032.065 1.701.145 1.829-1.394 2.633.714.378 1.184.591 1.414 1.417.288 1.037-.132 1.695-.961 2.196.99 1.052 1.758 2.504.181 3.448l-.269.402c-.472.128-.638.204-1.081.062l-.022-.294-.227-.112c-1.941-1.485.036-2.926.184-3.582-.2-.241-.627-.714-.777-.935a1.54 1.54 0 0 1-.233-1.151c.199-1.048 1.242-.783 1.543-1.765l-.14-.145c-.83-.066-1.026-.129-1.27-.997-.248-.884.083-1.573.775-2.117.237-.182.176-.091.283-.36"/><path d="M132.126 112.22c.617-.118.978-.224 1.599-.058l-.269.402c-.472.128-.638.204-1.081.062l-.022-.294zm.365-11.052c.372-.186.767-.107 1.223-.097l-.102.365c-.43.043-.985.117-1.404.092.237-.182.176-.091.283-.36M91.095 20.749c.225-.162.217-.168.413-.368a22 22 0 0 1-.623-.046c-.479-.044-.833-.174-1.09-.546-1.569-2.274 1.225-4.209 2.787-2.116.305.408.024 1.659-.21 2.129.251.046.341-.043.623-.147.271-.449-.015-1.204.111-1.654.437-1.56 2.398-1.37 3.17-.21l-.064 1.531c-.378 1.516-1.072.605-2.094.904.209.154.266.221.447.41.337 1.199-.736 2.436-2.006 1.869-1.043-.465-1.055-.792-1.464-1.756m52.568 105.373c.489-.018.941-.072 1.396.183.643.363.559.752.84 1.215.298-.522.524-1.043 1.012-1.368 1.231-.265 1.751.255 2.157 1.325.621-1.103 1.882-2.063 2.9-.813.253.313.371.715.326 1.116-.073.657-.328.976-.804 1.383-1.907.632-1.799-.895-2.411-1.181-.123.501-.328.926-.814 1.178-1.685.875-1.927-.892-2.428-1.065-.674 3-5.134.007-2.174-1.973m24.21.903c.397-.002.821.016 1.201-.075.415.12.963.511 1.161.893.5.96-.555 1.68-.75 2.296.852.211 1.207.785 1.269 1.665.039.554-.582 1.055-.933 1.453l.071.167.68.135c1.103.918.688 2.634-.635 2.982a1.34 1.34 0 0 1-1.067-.17c-1.672-1.074-.252-2.182-.009-2.978-.394-.229-.967-.522-1.132-.926-.545-1.334.555-1.489.881-2.247-1.644-.523-1.989-2.124-.737-3.195m-37.086-.922c1.303-.038 1.802.292 2.024 1.551.431-.397.471-1.156 1.036-1.396 1.472-.624 1.849.287 2.315 1.408.099-.296.212-.653.385-.91a1.52 1.52 0 0 1 1.062-.666c.424-.062.854.067 1.172.354.893.809.516 1.941-.217 2.706-1.337.514-1.692-.078-2.351-1.116l-.18.051-.173.612c-.409.394-.758.515-1.27.756-1.024-.385-1.305-.457-1.66-1.508l-.119.006c-.426 2.214-2.104 1.54-3.108.161l.138-.514c.216-.826.249-.975.946-1.495m-20.831-42.022c1.741-.13 2.456 1.648 1.49 2.956-.329.096-.45.116-.752.279l-.012.178c2.063 1.015 1.011 1.824.569 3.312-.085.289 1.079 1.841.296 2.987-.396.268-.428.253-.927.257-.54.014-.786-.064-1.244-.35-1.153-.719-.002-2.173.507-2.828.053-.42-1.078-.861-1.105-1.556-.039-1.045.75-1.332 1.153-1.999-1.328-1.154-1.661-2.089.025-3.236m74.494 42.494c1.125.249 2.224.56 1.692 2.254-.205.653-.795.891-1.427 1.095.539.615.65.757 1.043 1.479-.124.303-.455 1.193-.706 1.37-.284.202-.706.146-.866.536q.123.254.244.511c.74 1.532.287 2.058-1.293 2.52-1.148-.422-2.085-1.652-.878-2.685.623-.535 1.349-.345 2.112-.246-.692-.318-1.799-.8-1.986-1.672-.187-.865.914-1.335 1.302-1.966-.142-1.326-1.138-.44-.26-2.656zm-148.247-5.913c.707.127.883.442 1.346.972-.361 2.386.202 11.531-.271 12.762-.298.31-.486.33-.894.46-.776-.739-.644-1.724-.638-2.738.014-2.556-.021-5.118.04-7.673.007-.305.361-1.021.461-1.44-1.251-.672-1.615-1.904-.044-2.343m37.209-10.647c.307-.027.75-.015 1.07-.015 1.836.566 2.029 2.947.204 3.658.623.474.725.558 1.224 1.176-.029 1.34.166 1.798-1.155 2.39l-1.235.019c-.755-.487-.818-.736-1.163-1.565.307-1.16.365-1.247 1.306-2.009-1.718-1.134-1.692-2.189-.251-3.654m70.979-14.227a2.553 2.553 0 1 1-.027 5.106 2.553 2.553 0 0 1 .027-5.106M75.814 0c1.867.311 1.953.858 1.879 2.582-.475.543-.557.724-1.226.994 1.693 1.223 2.03 3.125-.316 3.66-1.235-.052-2.343-1.051-1.797-2.364.346-.833 1.117-.512 1.407-1.282-2.1-.704-1.787-3.112.053-3.59m54.273 59.297c1.642.148 1.941.478 2.405 2.006-.462 1.138-.511.853-1.31 1.693.939 1.615 1.255 2.818-.858 3.507-3.095-.317-2.047-3.467.091-3.703-2.077-.176-1.559-2.488-.328-3.503m35.062 4.803c.733-.339.9-.281 1.711-.254.509.393.625.58.998 1.089-.265 1.57-.069 1.576-1.506 2.323.731.453 1.109.55 1.329 1.499.201.869-.052 1.805-.924 2.169l-.043.333c-.336.038-.795.035-1.144.042l-.064-.265-.344-.295c-1.536-1.29-.597-2.549.719-3.433l-.12-.057-.182-.091c-1.373-.668-1.609-2.047-.43-3.06"/><path d="M165.506 71.036c.5 0 .765-.168 1.251-.11l-.042.333c-.337.038-.796.035-1.145.042zm11.046 22.597c.9.024 1.773.296 1.911 1.401.151 1.213-.822 1.383-1.32 2.019q.056.136.109.274c.539 1.43-.716 2.248-1.773 1.622-.333.482.126 1.091-.264 1.693-.49.349-.974.252-1.564.187-1.056-.777-1.481-2.003-.207-3.021.766-.612 1.284.348 1.767.512-.067-.591-.137-.778.104-1.313.29-.295.476-.27.867-.32l.053-.111c-.941-1.283-1.283-2.033.317-2.943m-132.01 41.771c.268 0 1.197.271 1.447.404 1.259.672.196 2.324-.242 2.999 1.25 1.288 1.704 2.943-.468 3.516-2.716-.339-2.452-1.818-1.04-3.574-1.577-.834-1.422-2.666.303-3.345M33.046 34.541c1.644.584 1.79 2.46.519 3.536-.324-.008-.621-.063-.877.105 2.001.468 2.341 2.954.161 3.69-2.095-.356-2.629-2.378-.464-3.562-1.577-1.687-2.044-3.064.661-3.769m41.668 38.955c.343-.126.16-.103.57.008.955.83.691 2.857-1.005 2.683l-.067.08c.275.338.486.233.923.428 2.725 3.789-2.997 4.696-2.744 1.304.051-.69 1.219-1.415 1.117-1.856-1.06-.694-1.481-1.02-.631-2.316l-.022-.091c.378-.141 1.08-.216 1.503-.277z"/><path d="m74.358 73.459.357.037c-.61.361-1.133.341-1.838.331l-.022-.091c.378-.141 1.08-.216 1.503-.277m33.988-40.54c1.211-.094 1.613.376 2.113 1.393.467-.848 1.082-1.528 2.157-1.371.449.068.846.329 1.086.714.648 1.042.051 2.086-.905 2.652-.923-.006-1.134-.15-1.92-.625a7 7 0 0 0-.358-.895c-.486.168-.552 1.824-1.87 1.505-1.791-.433-1.932-2.536-.303-3.373M59.51 77.294c1.647-.12 2.799.943 1.817 2.64-.256.444-.715.506-1.188.579 1.432.905 2.692 2.876.354 3.479-.873.071-1.571.023-1.994-.837-.792-1.615.841-2.036 1.454-2.552-.25-.497-.958-.163-1.154-.634-.566-1.356-.457-1.884.711-2.675m60.297 20.344c2.624-.039 3.253 2.425.95 3.211l-.141.048.004.1c1.402.989 2.018 2.154.377 3.332-1.484.283-2.27-.479-2.085-2.01.074-.605.964-1.054 1.453-1.363-1.806-.374-1.91-2.187-.558-3.318m-32.044 37.556c-1.209-1.088-.914-1.799-.048-2.94-.764-.212-1.581-.39-1.681-1.29-.414-3.706 5.191-1.389 2.455.843l-.125.101c1.79.454 2.804 1.759 1.109 3.18-.508-.087-1.187.028-1.71.106M100 90.623c.812-.008 1.458.459 1.812 1.231.562 1.229-.816 1.354-1.093 2.208.901 1.038 2.023 2.623.028 3.242-.326.101-.195.165-.6.086-.816-.162-1.404-.748-1.368-1.553.053-1.184.657-1.811 1.737-1.813-1.878-.352-1.747-1.01-1.58-2.741zm-32.694 9.46c.556-.009 1.155.631 1.384 1.113.791 1.665-.811 1.74-1.132 2.562 1.372 1.198 2.167 2.613-.031 3.508-1.268-.143-1.792-.878-1.607-2.15.096-.666.852-1.086 1.366-1.452-1.906-1.19-2.134-2.487.02-3.581m37.545 13.568c.369.03 1.227.368 1.452.612.857.924-.608 2.026-.638 2.53l.194.067-.212-.083c.315.12.703.023 1.08.03 1.555.903 1.208 2.188-.163 3.066-.946-.213-1.969-.336-2.012-1.524-.04-1.045.609-.687.68-1.404-2.392-.781-2.794-2.032-.381-3.294M67.325 89.238c.724.212 1.349.894 1.452 1.688.184 1.412-.931 1.216-1.306 1.698 1.194 1.193 2.442 2.52.135 3.627-2.829-.58-1.92-2.196-.352-3.595-.309-.534-1.003-.381-1.175-.878-.487-1.404.024-2.079 1.246-2.54m100.524 37.62c-.692-.269-1.106-.808-1.151-1.542-.085-1.407 1.207-1.278 1.821-1.92-.636.212-1.586.445-1.873-.288-1.182-3.021 3.539-2.803 2.272-.111-.196.415.322 1.045.518 1.414.485.919.651 1.729-.388 2.296l-.005.211.031.032c-.38.091-.804.073-1.201.075z"/><path d="M167.849 126.858c.423-.215.474-.256.932-.342l.267.191-.005.211.031.032c-.38.091-.804.073-1.201.075zm-15.528-18.335c.322-.145 1.115-.135 1.433-.036-.119.393-.137.212.029.56.518.36.64.495.755 1.13q.06.346.101.693c-.247.554-.362.992-.833 1.351l-.119.271a6.7 6.7 0 0 1-1.368-.051l-.347-.268c-.41-.194-.777-.536-.945-.963a1.87 1.87 0 0 1 .051-1.477c.27-.588.551-.735 1.131-.931z"/><path d="M152.321 108.523c.322-.145 1.115-.135 1.433-.036-.119.393-.137.212.029.56a84 84 0 0 1-1.575-.245zm-.349 3.65.11-.24c.63.211 1.059.251 1.724.288l-.119.271a6.7 6.7 0 0 1-1.368-.051zm.117-32.907c.344-.265 1.047-.338 1.446-.18l.007.356c1.199 1.025 1.425 2.536-.105 3.345l.06.192a2.55 2.55 0 0 1-1.275-.015c-.091-.331-.209-.307-.58-.56-1.043-.451-.935-2.284 0-2.761z"/><path d="M152.089 79.266c.344-.265 1.047-.338 1.446-.18l.007.356c-.861-.007-1.059.026-1.9.201zm-.447 3.138c.594.134 1.195.278 1.795.383l.06.192a2.55 2.55 0 0 1-1.275-.015c-.091-.331-.209-.307-.58-.56M32.136 118.287q.228-.025.457-.025c1.204-.007 2.216.717 2.111 2.023-.066.828-.478 1.126-1.055 1.643-2.587.538-3.336-2.331-1.513-3.641"/><path d="M152.222 82.964c.451.113.812.118 1.275.015.546.382.802.748.915 1.436a2 2 0 0 1-.362 1.511c-.148.2-.328.328-.543.45l.084.217c-.476.113-1.233.199-1.697.056.063-.068.027-.016.027-.187l-.489-.359c-1.052-1.053-.54-2.575.79-3.139"/><path d="M151.432 86.103c.619.08 1.479.164 2.075.273l.084.217c-.476.113-1.233.199-1.697.056.063-.068.027-.016.027-.187zM84.743 27.294c.321.021.992.14 1.338.189.959 1.358.944 2.677-.794 3.338-1.049.305-1.802.087-2.084-1.005-.361-1.397.306-2.211 1.54-2.522m-54.819-3.088c1.932.466 1.891 2.269.723 3.608l-1.247.385c-1.752-.567-2.198-3.465.524-3.993m57.839 110.988c.523-.078 1.202-.193 1.71-.106l-.094.096.482.211c.754 1.241 1.136 2.295-.211 3.288l-.072.25c-.416.063-.867-.028-1.29-.084l-.053-.114c-1.614-.787-1.399-2.031-.415-3.229z"/><path d="M87.763 135.194c.523-.078 1.202-.193 1.71-.106l-.094.096.482.211c-.674.038-1.369.086-2.041.111zm.472 3.541a6 6 0 0 1 1.415-.052l-.072.25c-.416.063-.867-.028-1.29-.084zm64.084-26.294c.569.07.794.074 1.368.051.849 1.057 1.417 2.425.033 3.366l.12.386c-.287-.099-1.154-.205-1.592-.31l-.432-.39c-1.495-.34-1.084-2.435.503-3.103"/><path d="M151.816 115.544c.336.062 1.755.259 1.904.314l.121.386c-.288-.099-1.155-.205-1.593-.31zM25.115 55.209c2.692-.394 3.175 2.183 1.278 3.612-2.579.083-3.277-2.392-1.278-3.612m1.048-23.415c.904-.056 1.549.147 1.758 1.079.308 1.368-.254 2.215-1.489 2.562-2.255-.179-2.97-3.038-.269-3.641m63.308-10.738c1.32-.106 1.614.157 2.112 1.32-.08 1.284-.2 1.682-1.307 2.407-2.68-.103-2.943-2.347-.805-3.727m7.788 99.89a1.81 1.81 0 1 1 .783 3.533 1.81 1.81 0 0 1-.783-3.533m44.738-93.199c.976-.003 1.716.293 1.999 1.314.144.52.069 1.077-.208 1.541-.318.54-.639.768-1.221.931-2.311-.74-3.057-2.69-.57-3.786m-67.964 74.649c2.175.169 2.665 3.565.445 3.663-.983-.055-1.757-.221-2.053-1.314a1.72 1.72 0 0 1 .231-1.404c.357-.54.764-.801 1.377-.945m-.456-22.112c2.746-.175 3.1 2.953 1.215 3.552a19 19 0 0 1-.715-.056c-2.074-.204-2.329-2.317-.5-3.496M25.648 43.443c1.518.067 2.341 1.504 1.642 2.849-.333.641-.844.707-1.483.898-2.113.006-2.498-3.068-.159-3.747m109.924-20.662c.702-.073 1.558.324 1.93.932a1.8 1.8 0 0 1 .179 1.492c-.205.66-.625.991-1.207 1.283a5 5 0 0 1-.704-.058 1.77 1.77 0 0 1-1.208-.738c-.833-1.188-.023-2.264 1.01-2.911M25.235 62.88q.288-.022.578-.004c1.847.122 2.229 2.453.541 3.587-2.692.068-3.41-2.53-1.119-3.583m.032-11.598c.748-.047 1.498-.045 1.919.656.827 1.378-.029 2.302-1.021 2.997-2.352.128-2.964-2.452-.898-3.653m49.096 32.747c1.559.157 2.011 2.057 1.034 3.118-.458.497-.839.434-1.46.465-.897-.16-1.488-.632-1.521-1.594a2.14 2.14 0 0 1 .653-1.606c.459-.452.668-.404 1.294-.383"/><path d="M152.248 115.934c.438.105 1.305.211 1.592.31 3.095 3.103-3.907 4.852-2.776.808.156-.56.7-.871 1.184-1.118m-38.054-68.616c1.248.087 2.285.989 1.817 2.294-.304.849-.763.984-1.503 1.374-2.443-.081-2.766-2.691-.314-3.668M75.602 7.456a1.788 1.788 0 1 1 .795 3.489 1.79 1.79 0 0 1-.795-3.489M25.325 39.614c2.336-.052 3.148 2.469 1.238 3.569-.501.011-1.041-.008-1.546-.016-1.179-1.286-1.351-2.613.308-3.553m79.049-22.32c.928-.098 1.629-.122 2.285.67.295.348.429.804.368 1.257-.101.774-.461 1.082-1.032 1.538-1.873.91-3.31-1.715-1.621-3.465m24.903.566c2.16-.188 2.409.398 2.614 2.439-.368.445-.602.665-1.017 1.063-1.765.649-3.494-1.788-1.597-3.502M25.056 59.1c2.34-.329 3.245 2.245 1.203 3.467-.891.188-1.672.008-2.147-.834a1.8 1.8 0 0 1-.14-1.458c.215-.646.511-.876 1.084-1.175M73.57 95.059c1.312-.042 1.459.148 2.293 1.101.028.952.235 2.239-1.004 2.313-.807.059-1.479.154-2.069-.503-.955-1.066-.157-2.2.78-2.911M25.462 66.664c.899.034 1.136.297 1.885.792.206 1.404.055 2.356-1.423 2.824-1.982-.168-2.222-1.296-1.705-3.038.412-.17.838-.385 1.243-.578m6.407-45.127c2.748-.131 3.093 1.827 1.059 3.424-2.391.228-3.301-2.004-1.059-3.424m120.004 83.854c.709-.162 1.136-.157 1.852-.181.872.872 1.336 2.697.029 3.277-.318-.099-1.111-.109-1.433.036-1.648-.554-1.944-2.408-.448-3.132M26.931 27.964c2.45-.159 3.276 2.16 1.095 3.445-2.629.215-3.141-1.925-1.095-3.445m151.358 33.423c.793-.529.851-1.153 1.936-1.165 1.017-.012 1.686.968 1.585 1.932q-.032.311-.133.607c-1.775 2.24-3.714.44-3.388-1.374m-47.56-5.508c2.87-.445 2.457 3.052.903 3.362-2.847.133-3.094-2.597-.903-3.362m-71.057 50.634c2.488-.013 2.825 3.414.727 3.554-1.863.504-3.239-2.532-.727-3.554M96.48 18.352c.249-.563.512-1.143 1.139-1.359 2.106-.724 3.461 3.126.969 3.485-1.085.156-1.588-.214-2.097-1.158zm51.087 14.696c2.299.487 3.347 2.354 1.01 3.703-1.967.101-3.408-2.652-1.01-3.703M73.64 109.706c-.999-.385-1.643-1.191-1.116-2.257a2.23 2.23 0 0 1 1.352-1.14c2.069-.601 3.032 3.005.605 3.415zm34.713-90.949c1.257.102 2.35.783 2.095 2.226-.133.758-.573.961-1.169 1.356q-.287.015-.572.001c-.955-.056-1.845-.637-1.712-1.707.119-.944.652-1.343 1.358-1.876m36.701 53.475c1.811.315 2.169 3.16-.34 3.68-.86-.3-1.497-.693-1.644-1.672a1.67 1.67 0 0 1 .342-1.288c.488-.618.908-.645 1.642-.72m7.551 3.455c2.001.324 2.479 2.815.93 3.399-.399-.158-1.102-.085-1.446.18-.897-.359-1.535-1.123-1.142-2.122.378-.956.774-1.086 1.658-1.457"/><path d="M150.717 73.973c.311-1.241.562-1.781 1.921-1.954 1.906.525 2.005 2.302.62 3.542-.252.06-.529.049-.653.126-.598-.155-.87-.223-1.443-.473-.152-.397-.334-.834-.445-1.241m-62.429 64.876c.423.056.874.147 1.29.084 1.296.291 1.348 2.323.683 2.855-2.012 1.608-4.572-.813-1.973-2.939M74.327 91.36c.737.059 1.052.545 1.55 1.084.005 1.455.016 2.328-1.674 2.408-2.512-.199-2.297-3.383.124-3.492M61.117 7.575c2.272.067 2.851 2.4.953 3.641-2.616-.008-3.123-2.486-.953-3.641M25.119 47.449c.982-.072 1.768.07 2.244 1.06.2.407.217.879.047 1.299-.246.614-.576.782-1.145 1.035-2.3.535-3.042-1.994-1.146-3.394m.259-11.528c.754-.094 1.627-.096 2.032.62.743 1.316.099 2.203-.982 2.841-2.313-.269-3.173-2.381-1.05-3.461m101.168-20.604c2.44-.142 3.151 2.595.917 3.363-.86.096-.93.016-1.735-.354l-.692-1.116c.369-1.061.519-1.41 1.51-1.893m-52.43 72.409c.834.02 1.619.721 1.768 1.542a1.83 1.83 0 0 1-.35 1.446c-.384.496-.769.444-1.386.501-2.29-.072-2.37-2.958-.032-3.489m9.493-70.901c2.471-.008 2.62 2.703.522 3.577-2.482-.092-2.689-3.092-.522-3.577M73.582 98.793c1.017-.023 1.59.065 2.148 1.046.214.371.268.813.15 1.225-.158.55-.393.808-.866 1.082-.204.011-1.099.072-1.235.026-2.096-.716-1.602-2.376-.197-3.379m97.234-45.959c.755.005 1.709.385 2.148 1.023.252.358.338.807.237 1.233-.167.711-.653 1.072-1.23 1.431-.343.063-1.393-.262-1.654-.502-1.149-1.053-.193-2.367.499-3.185M71.827.202a1.752 1.752 0 0 1 2.083 2.447 1.75 1.75 0 0 1-2.444.743 1.75 1.75 0 0 1 .361-3.19M59.9 95.36a1.75 1.75 0 1 1 .23 3.492 1.75 1.75 0 0 1-.23-3.492m-.179 7.358c1.821-.154 3.187 2.889.509 3.58a3.3 3.3 0 0 1-.889-.14c-1.549-.457-1.377-2.695.38-3.44m88.458-30.501c2.393-.111 2.937 2.577.812 3.635-1.54-.013-1.782-.704-2.099-2.042.324-.92.401-1.18 1.287-1.593m-27.658-52.056c2.164-.105 2.443 2.588.252 3.545-.324-.041-.649-.082-.95-.217a1.82 1.82 0 0 1-.974-1.113c-.13-.423-.07-.881.162-1.257.372-.606.856-.81 1.51-.958M130.7 52.337c.707.128.941.169 1.686.163.39.452.63.784.667 1.379.173 2.787-3.758 2.252-3.506-.11.06-.569.718-1.137 1.153-1.432M60.879.232c2.157-.209 2.387.603 2.303 2.451-.359.355-.717.619-1.114.929-2.283.425-3.043-1.893-1.189-3.38m59.527 41.908c2.226.191 2.439 2.706.244 3.679-2.141.118-2.679-2.879-.244-3.679M63.71 17.078c.984-.15 1.767-.052 2.306.913.226.4.274.877.131 1.313-.209.656-.526.842-1.096 1.154-2.083.606-3.065-2.059-1.341-3.38m-3.815 70.776c.366.106.868.231 1.147.499.944.901.981 3.167-.757 3.055-2.445.017-2.76-2.537-.39-3.554m-.213-3.562c1.942-.189 3.055 2.387.838 3.489l-.495-.02c-.741-.023-1.188-.161-1.56-.876a1.56 1.56 0 0 1-.082-1.271c.281-.779.598-.988 1.299-1.322m78.639-58.714c2.307-.148 3.467 2.356 1.342 3.434-2.076.206-3.53-2.411-1.342-3.434m18.048 15.069c2.45.009 3.29 2.442 1.091 3.6-.676-.053-.985-.207-1.609-.448-.225-.358-.454-.892-.639-1.285.241-.994.346-1.295 1.157-1.867"/><path d="M68.051 16.941c2.546.393 2.443 3.144.229 3.641-2.224-.188-2.329-2.949-.229-3.641m68.491 55.393c1.617-.064 1.905.082 2.384 1.624-.37 1.072-.264 1.182-1.269 1.814-2.107.142-3.243-2.436-1.115-3.438m-76.86 26.689c2.084-.209 2.969 3.19.726 3.404-2.363.273-3.077-2.256-.726-3.404m91.09-63.445c.21.001.376.018.581.058.534.103.997.431 1.27.902.685 1.156-.003 2.033-1.057 2.536-.839-.015-1.571-.27-2-1.046a1.54 1.54 0 0 1-.107-1.276c.232-.645.729-.925 1.313-1.174m2.629 2.545c.787-.094 1.466-.011 1.989.647.319.395.448.91.351 1.408-.128.694-.528 1.052-1.071 1.436-2.077.146-3.269-1.897-1.269-3.491"/><path d="M140.918 72.353c2.202-.071 2.376 2.943.07 3.515-2.338-.651-2.505-3.204-.07-3.515M64.739.118c1.229-.017 1.456.245 2.181 1.201-.191 1.343-.191 1.596-1.383 2.353-2.469-.011-2.782-2.437-.798-3.554m-5.164 91.536c2.338-.147 2.954 2.589.975 3.47-.943-.067-1.672-.054-2.132-1.041-.501-1.074.263-1.961 1.157-2.429m27.378-67.713c2.432.001 2.629 2.64.643 3.593-2.571-.202-2.717-2.374-.643-3.593m98.169 86.359c.796.061 1.503.299 1.888 1.048.206.39.238.849.09 1.265-.226.64-.635.932-1.208 1.22-2.072.404-3.127-2.327-.77-3.533m-65.557-47.275c2.125.176 2.078 2.864-.123 3.557-1.223-.339-2.302-1.44-1.509-2.766.388-.648.947-.679 1.632-.791M61.529 3.807c1.656.031 2.692 2.879.183 3.606-1.956-.299-2.344-1.315-1.388-3.02.359-.196.828-.405 1.205-.586m25.15 66.448c2.917-.161 3.036 2.697 1.12 3.37-1.355.059-2.347-.592-2.124-2.093.11-.745.422-.866 1.004-1.277m25.307.015c1.061-.096 1.732-.046 2.268 1.019.202.399.23.864.076 1.283-.194.546-.461.782-.954 1.02-2.556.263-3.193-2.16-1.39-3.322m-10.792-24.324c2.776-.137 3.177 2.034 1.047 3.422-.524.067-1.449-.246-1.744-.665-.847-1.202-.147-2.054.697-2.757m.304-28.901c.772.106 1.395.338 1.72 1.101.193.461.179.982-.037 1.432-.327.694-.696.828-1.376 1.051-1.996-.01-2.67-3.019-.307-3.584m-21.831 53.21c1.282-.013 2.554.306 2.261 2.071-.111.667-.574 1.042-1.14 1.388a6 6 0 0 1-.542-.041c-1.902-.247-2.303-2.316-.579-3.418m31.006-20.849c.758.073 1.483.302 1.888 1.005.213.372.263.814.14 1.224-.205.68-.63.981-1.222 1.28-2.393-.147-3.09-2.634-.806-3.509m65.293 11.255c-.28-.337-.619-.925-.507-1.355.773-2.936 5.387-1.191 2.83 2.081l-.215.013a13 13 0 0 0-.364-.441c-.601-.27-1.085-.253-1.744-.298M50.202 16.967c.16.034.31.087.46.152.43.187.761.547.912.991.464 1.388-.525 2.174-1.722 2.493-1.777-.434-2.431-3.357.35-3.636m82.325 3.572a1.72 1.72 0 1 1 .984 3.295 1.72 1.72 0 0 1-.984-3.295"/><path d="M173.757 55.624c2.415-.124 3.225 1.807 1.161 3.405-1.376.149-2.367-.619-2.196-2.095.077-.67.53-.931 1.035-1.31M25.302 70.492c1.919-.502 3.373 1.956.967 3.156-2.136.109-2.551-.859-2.073-2.723zM9.76 127.219a1.718 1.718 0 1 1 1.125 3.247 1.718 1.718 0 0 1-1.125-3.247M93.787 70.26c.899-.077 1.687-.056 2.2.815.204.347.258.762.152 1.15-.197.731-.497.982-1.103 1.355-2.429.205-3.077-2.138-1.249-3.32m38.682 45.747c-1.34-.939-1.648-2.534-.094-3.381.443.142.609.066 1.081-.062 1.062.744 1.655 2.461.463 3.246l-.281.464c-.436.081-.955.025-1.406.002z"/><path d="M132.469 116.007c.372-.253.988-.195 1.45-.197l-.281.464c-.436.08-.955.025-1.406.002zm-13.276-63.38c2.161-.082 3.435 1.868 1.472 3.447-1.1.193-2.258-.184-2.362-1.449-.073-.88.372-1.365.89-1.998m66.442 39.468c1.18.091 1.691 1.85.936 2.715-.56.642-.884.602-1.659.711-1.348-.188-1.871-1.914-.899-2.859.639-.62.801-.533 1.622-.567m-84.445-21.83c2.614-.193 3.079 2.439.975 3.407-2.43-.227-2.839-2.477-.975-3.407m14.788.052a1.71 1.71 0 1 1 .86 3.31 1.71 1.71 0 0 1-.86-3.31M68.594.098c.947.032 1.264.481 1.78 1.205-.014 1.369.042 1.758-1.286 2.321-2.401-.035-2.887-2.616-.494-3.526m39.976 70.213a1.71 1.71 0 0 1 1.094 3.237 1.707 1.707 0 0 1-2.246-1.954 1.7 1.7 0 0 1 1.152-1.283M144.852 30.3c.713.169 1.577.674 1.899 1.36.162.345.172.741.027 1.094-.257.639-.805.831-1.393 1.101-2.116.149-2.803-2.482-.533-3.555"/><path d="M104.896 70.31a1.706 1.706 0 1 1 1.036 3.254 1.706 1.706 0 0 1-1.036-3.254m-7.268-.057c1.306-.019 1.436.081 2.224 1.122-.122 1.223-.01 1.586-1.172 2.213-2.603.095-3.038-2.357-1.052-3.335m-87.756 53.25c2.487.128 2.283 2.831.207 3.372-.894-.091-1.72-.657-1.881-1.584a1.42 1.42 0 0 1 .247-1.059c.385-.535.818-.646 1.427-.729m45.002-53.236c2.426-.223 2.97 2.363.997 3.362-1.24-.006-2.37-.434-2.171-2.011.087-.694.618-.987 1.174-1.351m5.296-53.212c1.762-.179 1.975.391 2.42 1.923-.401.854-.476 1.032-1.297 1.47-2.286.333-2.715-2.001-1.123-3.393"/><path d="M58.592 70.264c1.3-.11 1.338-.062 2.058.987.056 1.326.083 1.855-1.218 2.417-1.354.068-1.581-.408-2.12-1.5l.041-.209c.205-1.004.389-1.131 1.239-1.695m64.641-52.299c2.386-.137 2.864 2.068.897 3.425-2.292.305-2.91-2.123-.897-3.425m41.946 45.44c-1.155-.663-.966-2.167.109-2.785a1.6 1.6 0 0 1 1.287-.143c.7.216.851.597 1.174 1.217-.13.763-.201.919-.498 1.61l.035.344c-.251.072-.125.05-.439-.063-.018.206-.035.121.013.261-.811-.027-.978-.085-1.711.254l.157-.471z"/><path d="m167.251 63.304.035.344c-.251.072-.125.05-.439-.062-.019.205-.035.12.013.26-.811-.027-.978-.085-1.711.254l.157-.47-.127-.225a68 68 0 0 0 2.072-.101m.659-12.531c.883-.106 1.775.211 2.197 1.039.186.362.219.783.093 1.17-.195.602-.52.864-1.049 1.144-1.249.042-2.443-.629-2.293-2.063.068-.657.554-.913 1.052-1.29M42.465 16.964a1.697 1.697 0 1 1 .653 3.331 1.697 1.697 0 0 1-.653-3.331m14.079.068c.759-.053 1.453.003 1.855.71.703 1.236.276 2.086-.772 2.75-.777.031-1.294.026-1.804-.656a1.73 1.73 0 0 1-.308-1.42c.158-.736.433-1.003 1.029-1.384m48.596 15.794q.226.03.45.072c1.94.372 1.94 2.359.087 3.363-2.356-.263-2.966-2.81-.537-3.435m75.855 104.03c1.546-.146 2.28.777 1.693 2.29-.232.596-.712.722-1.293.899-2.666-.217-2.583-2.879-.4-3.189m-66.154-73.715c.804-.09 1.558-.219 2.154.437.907 1 .163 2.131-.661 2.836-1.27.232-1.783-.39-2.359-1.42.174-.881.161-1.293.866-1.853m10.975.105c1.255-.076 2.758.112 2.369 2.068-.115.58-.702 1.008-1.228 1.275-2.059-.19-3.03-2.253-1.141-3.343M159.699 43.4c1.979-.025 2.664 2.544.596 3.648-2.267-.815-3.075-2.386-.596-3.648"/><path d="M53.678 16.971c2.094.366 2.058 2.948-.188 3.605-1.825-.303-2.433-3.181.188-3.605m-6.052 53.291c.197-.009.941-.04 1.081.037 1.451.807 1.374 2.715-.185 3.33-2.579-.005-2.797-2.41-.896-3.367m67.763-37.324c2.632-.035 2.97 2.369.879 3.344-2.185.01-2.976-2.05-.879-3.344m5.966 1.157c1.857-3.702 4.951 1.477 2.14 2.137-1.05.247-1.745-.17-2.126-1.191.054-.227.001-.688-.014-.946m1.138 21.281c.87.156 1.508.228 1.978 1.081.597 1.084-.158 1.902-1.067 2.394-2.144.007-3.066-2.058-.911-3.475m1.214-15.404q.133.02.265.046c2.078.411 1.708 2.519-.087 3.49-.881-.123-1.542-.293-1.811-1.254a1.6 1.6 0 0 1 .171-1.257c.355-.593.824-.847 1.462-1.025M44.209 143.283c2.213.504 2.3 2.565.161 3.351-2.323.066-2.771-2.919-.161-3.351m10.693-.002c2.334-.195 3.151 2.012.856 3.281-1.876.488-3.042-2.155-.856-3.281m74.964-110.456c2.118.347 2.273 2.534.539 3.522-2.795-.187-2.757-3.038-.539-3.522M40.382 70.296a1.69 1.69 0 1 1 .585 3.33 1.69 1.69 0 0 1-.585-3.33m55.13-29.399c.766.11.903.218 1.538.668.659 1.317.735 2.204-.914 2.759l-.111-.019-.186-.035c-2.134-.385-2.548-2.463-.327-3.373"/><path d="M51.372 143.3a1.689 1.689 0 1 1 .688 3.307 1.689 1.689 0 0 1-.688-3.307m138.417-39.292c2.308.896 1.972 2.989-.333 3.553-1.665.218-2.357-2.519.333-3.553m-24.587-55.912c2.217.848 3.119 1.926 1.075 3.635-2.446-.179-3.073-2.076-1.075-3.635m-44.168-12.837a1.689 1.689 0 1 1-3.11-1.319 1.689 1.689 0 0 1 3.11 1.319m5.23-2.454c2.546.213 2.386 2.883.716 3.346-2.382.533-2.885-2.432-.716-3.346M86.68 16.947c1.094-.069 2.494.009 2.374 1.75-.034.491-.541 1.191-.966 1.474-.23.026-.536.064-.764.049a1.8 1.8 0 0 1-1.319-.716c-.713-.947-.202-1.959.675-2.557m25.209 46.083a1.685 1.685 0 1 1 .563 3.323 1.685 1.685 0 0 1-.563-3.323M45.937 17.038c.846-.012 1.548.283 1.903 1.096.187.429.186.915-.002 1.343-.243.565-.558.796-1.096 1.031-.67.12-1.455-.063-1.739-.694-.584-1.298-.153-2.165.934-2.776m12.681 126.307a1.683 1.683 0 0 1 2.185 1.246 1.684 1.684 0 1 1-2.185-1.246M97.839 32.899a1.683 1.683 0 1 1 .674 3.298 1.683 1.683 0 0 1-.674-3.298m-87.012 90.038c-1.282-1.877.488-3.537 2.609-2.333 1.145 1.551-.625 3.783-2.609 2.333m106.07-72.61c2.072.117 2.6 2.88.394 3.43-2.513-.375-2.616-2.888-.394-3.43m-89.642 55.399c2.304-.214 2.842 1.923.915 3.365-1.9.671-3-1.882-.915-3.365m89.444-60.682c1.8-.058 2.016.038 2.244 1.836-.408.787-.548 1.019-1.291 1.49-2.142-.01-2.962-2.075-.953-3.326M28.976 70.38c1.435-.131 2.554.377 2.163 2.211-.108.503-.586.862-1.061 1.075-.195 0-.409 0-.603-.019a1.8 1.8 0 0 1-1.288-.731c-.746-1.001-.073-1.941.789-2.536m75.365-7.199a1.68 1.68 0 1 1 1.325 3.088 1.68 1.68 0 0 1-1.325-3.088M38.723 17.794a1.68 1.68 0 1 1 .79 3.264 1.68 1.68 0 0 1-.79-3.264m145.723 67.26c2.328-.273 2.888 2.383.835 3.276-2.293.087-2.94-2.12-.835-3.276M33.281 30.908c.846.071 1.601.142 1.906 1.069.394 1.197-.587 1.982-1.553 2.341-2.053-.32-2.478-2.551-.353-3.41m67.986 1.969a1.676 1.676 0 1 1 .925 3.225 1.676 1.676 0 0 1-.925-3.225"/><path d="M35.458 19.225c2.323.086 2.704 2.613.377 3.473-2.101-.142-2.527-2.522-.377-3.473m126.828 26.697c1.632.031 2.651 1.435 1.714 2.955-.273.441-.565.422-1.038.489-1.347.281-3.011-1.866-.676-3.444M62.454 70.249c2.201-.034 2.678 2.774.322 3.468-2.182-.481-2.367-2.905-.322-3.468m6.816.014c2.731-.18 2.777 2.411.934 3.331-.788.055-1.342-.062-1.786-.791a1.73 1.73 0 0 1-.183-1.409c.187-.611.492-.864 1.035-1.131m62.658-32.042 1.527.054c.961.742 1.16 2.225.427 2.786-1.702 1.303-4.342-.759-1.954-2.84m53.429 50.224c1.172.077 1.761 1.119 1.34 2.181-.37.931-.71.972-1.548 1.373-2.104-.555-2.308-3.019.208-3.554M47.704 143.322a1.673 1.673 0 1 1 .59 3.293 1.673 1.673 0 0 1-.59-3.293m117.634-52.905c.888-.059 1.449-.125 1.994.693.298.44.403.984.29 1.504-.242 1.161-.416.644-.883.932-.334.122-.573.173-.93.145a1.52 1.52 0 0 1-1.097-.591c-.759-.972-.283-2.036.626-2.683m-57.136-27.346a1.672 1.672 0 1 1 .802 3.247 1.672 1.672 0 0 1-.802-3.247m-48.136 65.848c.845.096 1.407.414 1.639 1.287a1.76 1.76 0 0 1-.233 1.43c-.363.55-.72.641-1.327.771-2.152-.527-2.334-2.72-.079-3.488m56.837 7.801c2.334.314 2.625 2.781.414 3.3-2.344-.349-2.792-2.663-.414-3.3M90.549 70.25c1.404-.041 2.297.711 1.874 2.243-.201.73-.639.922-1.288 1.234a8 8 0 0 1-.261-.055c-1.972-.46-2.226-2.456-.325-3.422m16.572-19.249c2.192-.057 3.072 2.396.872 3.352a10 10 0 0 1-.503-.077c-.949-.18-1.922-1.121-1.6-2.15.197-.633.692-.833 1.231-1.125"/><path d="M112.566 136.857a1.669 1.669 0 1 1 1.222 3.106 1.669 1.669 0 0 1-1.222-3.106m-46.476 6.494a1.666 1.666 0 0 1 .973 3.188 1.668 1.668 0 1 1-.973-3.188M51.811 70.279c1.557-.113 2.5 2.766-.03 3.372-.86-.074-1.556-.561-1.708-1.45a1.66 1.66 0 0 1 .293-1.239c.4-.546.818-.599 1.445-.683M34.76 27.155c.528.022.886.174 1.387.338.683 1.428.833 2.344-.801 3.11-2.414.182-2.546-2.401-.586-3.448m2.141 43.108c.754-.004 1.356.299 1.561 1.029.378 1.349-.221 1.964-1.301 2.36-.85-.032-1.518-.301-1.788-1.184a1.68 1.68 0 0 1 .202-1.391c.341-.533.747-.673 1.326-.814m34.74 1.808c.3-1.169.926-2.464 2.515-1.517.607.362.676 1.086.759 1.753-.205.372-.377.766-.557 1.152-.423.061-1.125.136-1.503.277-.934-.474-.917-.721-1.214-1.665m5.761 71.114c2.387.365 2.182 2.875.103 3.424-.301.03-.479 0-.754-.139a1.6 1.6 0 0 1-.822-.998c-.338-1.191.346-2.013 1.473-2.287m-42.885-38.618q.282.035.562.084c1.71.311 2.183 2.33.362 3.28-2.619.1-2.801-2.222-.924-3.364m57.563 38.706c1.888-.064 1.958 1.526 1.294 2.88l-1.111.454c-.275.019-.535.009-.797-.091a1.47 1.47 0 0 1-.848-.884c-.427-1.214.353-2.039 1.462-2.359"/><path d="M30.879 104.461c2.217.235 2.695 2.438.615 3.457-2.144-.424-3.011-2.43-.615-3.457m-8.645 13.57c-1.541-2.182.262-3.881 2.103-2.512.98 1.262.262 3.082-1.211 3.024-.467-.251-.307-.377-.892-.512M99.338 65.3a1.662 1.662 0 1 1-3.126-1.128 1.662 1.662 0 0 1 3.126 1.128m-47.646 69.447c2.29-.125 2.947 2.556.896 3.332l-.095-.001c-.824-.009-1.349-.189-1.78-.957a1.6 1.6 0 0 1-.135-1.282c.195-.614.578-.824 1.114-1.092m17.98 8.58a1.66 1.66 0 1 1 .959 3.18 1.66 1.66 0 0 1-.959-3.18m23.04-104.992c2.523.11 2.176 2.981.602 3.493-2.378-.078-2.639-2.406-.602-3.493m27.251 52.161c.247.016.912.028 1.109.125 1.301.636 1.301 2.676-.089 3.214-1.202-.024-2.414-.378-2.135-2.059.108-.651.541-.979 1.115-1.28m-56.125-80.1a1.659 1.659 0 1 1 .867 3.203 1.659 1.659 0 0 1-.867-3.203"/><path d="M73.82 143.185c2.255.481 2.228 2.679.028 3.433-1.94-.024-2.477-2.66-.028-3.433m107.88-29.744c1.833-.294 2.158.434 2.548 1.955-.517.598-.61.699-1.264 1.164-1.253.527-3.483-1.259-1.284-3.119m-5.734-52.78c.659.045 1.143.028 1.744.298.128.15.242.285.364.441l-.059.331c1.072 4.532-5.675 1.188-2.127-.872z"/><path d="M175.966 60.661c.659.045 1.143.028 1.744.298.128.15.242.285.364.441l-.059.331c-.63-.91-1.071-.765-2.127-.872zm-4.364 33.89c.771-.062 1.584-.027 1.901.764.54 1.351-.053 2.076-1.181 2.569-2.12.198-2.481-1.972-.72-3.333m1.559-33.979c1.869-.01 2.439 2.885-.091 3.518-2.073-.478-2.042-2.947.091-3.518"/><path d="M168.987 60.7c.879-.028 1.534-.094 2.044.759.6 1.005.157 1.969-.771 2.521-1.556.342-1.763-.193-2.233-1.507.247-.814.379-1.157.96-1.773M66.154 70.254c.778.01 1.374.14 1.606.96.387 1.363-.213 2.127-1.419 2.474-.769-.135-1.324-.452-1.585-1.243a1.72 1.72 0 0 1 .134-1.371c.288-.508.735-.687 1.264-.82m-22.447.133c1.358-.142 1.457-.185 2.22.976.05 1.188.191 1.748-1.004 2.237-2.229.133-2.931-1.762-1.216-3.213m18.741 72.888c2.26-.128 2.88 2.227.761 3.287-2.226.39-2.678-2.167-.761-3.287M96.433 52.64a1.655 1.655 0 1 1 .482 3.275 1.655 1.655 0 0 1-.482-3.275m8.095-4.262c1.752-.031 2.795 2.183.451 3.441-.241-.037-.724-.158-.934-.261a1.77 1.77 0 0 1-.893-1.013 1.55 1.55 0 0 1 .108-1.273c.318-.584.666-.723 1.268-.894m72.372 88.443c2.243.307 2.911 2.397.818 3.235-.991-.003-1.823-.254-2.142-1.307a1.37 1.37 0 0 1 .111-1.052c.287-.532.672-.694 1.213-.876M99.766 64.353a1.655 1.655 0 0 1 3.261.276 1.654 1.654 0 1 1-3.261-.276m20.481 72.488c2.671-.086 3.331 2.122 1.244 3.196-2.098-.038-3.105-1.947-1.244-3.196m-.192-42.837c2.198-.029 2.743 2.44.722 3.425-.749-.028-1.26-.095-1.698-.787a1.7 1.7 0 0 1-.177-1.401c.207-.676.563-.929 1.153-1.237m67.842 13.504c2.366.522 2.301 2.581.14 3.349-2.492-.398-2.342-2.378-.14-3.349M80.94 143.27c1.879-.116 2.553 2.022.565 3.316-.892.076-1.597-.09-1.939-1.024a1.78 1.78 0 0 1 .126-1.471c.313-.564.663-.668 1.248-.821m41.955-80.157c1.406.01 1.506.639 1.821 1.81-.381.82-.467 1.159-1.288 1.573-2.346-.064-2.885-2.89-.533-3.383m-34.656 80.213a1.647 1.647 0 0 1 .581 3.246 1.648 1.648 0 0 1-1.869-2.187 1.65 1.65 0 0 1 1.288-1.059m43.993-27.05c.451.023.97.079 1.406-.002 2.433 1.396.048 4.859-2.071 2.352-.647-.766-.041-1.85.665-2.35"/><path d="M123.918 136.833c2.406-.161 3.515 1.714 1.513 3.105-1.971.357-3.387-1.633-1.513-3.105M32.64 70.384l.109-.004c.159-.006.881-.046 1.004.014 1.459.706 1.538 2.545.02 3.212a8 8 0 0 1-.26.005c-2.042.007-2.648-1.817-.873-3.227m93.999-32.944c1.689-.019 1.722.572 1.979 2.046-.495.741-.676.879-1.48 1.26a2.9 2.9 0 0 1-.903-.155 1.52 1.52 0 0 1-.855-.9 1.7 1.7 0 0 1 .081-1.292c.277-.575.611-.745 1.178-.959M76.686 70.26c1.753.21 1.629.942 1.598 2.43-.403.499-.603.731-1.18.989-.987-.095-1.66-.328-1.9-1.448-.099-.451 0-.923.272-1.297.355-.499.634-.556 1.21-.674M179.32 87.21a1.645 1.645 0 1 1 .72 3.211 1.645 1.645 0 0 1-.72-3.211"/><path d="M128.157 136.831c.812-.037 1.527.269 1.844 1.063.169.418.152.888-.047 1.293-.277.564-.606.703-1.163.887-2.51-.311-2.706-2.891-.634-3.243M111.934 21.475c.259.036.503.144.705.311 1.048.86.478 3.213-.993 3.126-2.256-1.082-2.303-3.246.288-3.437m31.039 115.356c.958.11 1.594.201 1.968 1.232.13.35.105.739-.07 1.068-.297.563-.632.726-1.207.897-2.229.074-2.905-2.216-.691-3.197m30.188.01a1.645 1.645 0 0 1 .663 3.219 1.643 1.643 0 1 1-.663-3.219m-67.725-.155c2.121.436 2.773 2.462.652 3.316-.829-.041-1.527-.107-1.919-.941-.556-1.18.343-1.949 1.267-2.375m-6.659-86.269a1.64 1.64 0 1 1 1.372 2.982 1.64 1.64 0 0 1-1.372-2.982m67.077 86.411c2.337.141 2.49 2.393.56 3.236-.879-.012-1.637-.229-1.955-1.151a1.42 1.42 0 0 1 .071-1.103c.286-.574.744-.81 1.324-.982m19.197-41.143c.644.054 1.304.324 1.552.933.556 1.357-.079 1.995-1.159 2.48-.286-.039-.669-.093-.93-.217a1.68 1.68 0 0 1-.851-.947c-.385-1.076.404-1.935 1.388-2.249m-19.139-1.833c.742.167 1.31.09 1.735 1.086.5 1.174-.187 1.766-1.191 2.25-1.933.477-2.761-1.867-.544-3.336M44.13 132.233l1.527-.056c1.045 1.244 1.362 2.114-.246 3.053-1.953.587-3.335-2.03-1.281-2.997m-31.693 4.729c.957-.076 1.674-.092 2.234.8.592.943-.034 1.755-.827 2.222-2.207.203-3.32-1.755-1.407-3.022m25.677-30.903c2.383.287 2.594 2.645.777 3.447-2.236-.312-2.837-2.076-.777-3.447m146.544 30.889c2.388-.123 3.239 1.784 1.237 3.062-.336.031-.709.055-1.036-.034a1.7 1.7 0 0 1-1.067-.84c-.493-.9.019-1.766.866-2.188m-164.452-.085a1.63 1.63 0 1 1 .861 3.146 1.63 1.63 0 0 1-.861-3.146m114.986-.06c2.443-.083 3.134 2.06 1.14 3.204-1.809.204-3.198-1.971-1.14-3.204m-51.052 6.603c.866-.103 1.612-.092 2.086.781.182.334.225.727.119 1.092-.209.706-.555.932-1.169 1.239-2.052.471-2.754-1.935-1.036-3.112m19.844-17.391c2.227-.115 2.638 2.074.663 3.182-2.439.187-2.718-2.59-.663-3.182m21.437-67.748c2.231.152 2.9 2.413.95 3.262-2.412-.052-2.968-2.042-.95-3.262M8.984 136.852a1.627 1.627 0 1 1 .53 3.21 1.627 1.627 0 0 1-.53-3.21m90.006 6.532c2.5-.059 2.828 2.159.794 3.165-2.062.32-2.757-2.008-.794-3.165m-75.464-6.437c.946-.095 1.675-.098 2.281.759.22.307.292.695.199 1.06-.151.607-.508.914-1.017 1.209-2.067.287-3.153-1.554-1.463-3.028m-8.689-4.357a1.627 1.627 0 0 1 1.998 2.043 1.624 1.624 0 0 1-3.133-.096 1.627 1.627 0 0 1 1.135-1.947m9.471-24.445c2.252-.177 2.684 2.306.671 3.194-2.164-.223-3.029-2.268-.671-3.194"/><path d="M23.418 111.272c1.262-.081 2.307 3.052-.302 3.485-2.217-.793-1.788-3.166.302-3.485m71.765 32.132c2.405-.182 3.109 1.678 1.183 3.06-2.084.618-2.974-1.677-1.183-3.06m43.915-6.521a1.622 1.622 0 1 1 .869 3.128 1.624 1.624 0 0 1-.869-3.128m-18.19-49.87c.491.369.79.633.965 1.252.125.432.068.895-.157 1.283-.653 1.145-1.222.601-1.757.741l-.047.006c-1.502-.634-1.172-1.833-.648-3.046.554-.056 1.095-.148 1.644-.236m10.62 49.886a1.621 1.621 0 1 1 1.175 3.024 1.624 1.624 0 0 1-2.07-.936 1.624 1.624 0 0 1 .895-2.088M113.69 24.151c2.163-.127 2.409 2.105.651 3.413-1.175.012-2.253-.886-1.912-2.13.205-.747.65-.918 1.261-1.283m-.472 105.171c2.1-.16 3.273 1.78 1.256 3.11-1.984.415-3.231-1.846-1.256-3.11m64.655-39.061c1.85-.094 2.541 2.515.462 3.401-2.317-.181-2.522-2.474-.462-3.401M39.657 143.438a1.621 1.621 0 0 1 2.21 1.779 1.62 1.62 0 1 1-2.21-1.779m27.65-32.336c1.9.853 2.18 2.963-.028 3.755-1.917-.786-2.033-2.944.028-3.755m31.022-67.693c2.479.455 2.671 2.49.423 3.3-1.321-.185-1.584-1.036-2.044-2.132.577-.465.972-.807 1.621-1.168m70.424 48.611c.203-.003.893-.02 1.037.077 1.045.701 1.618 1.316 1.111 2.526-.44.232-.582.335-.975.642-.39.065-.997-.129-1.406-.228-1.131-1.14-.907-1.948.233-3.017m15.898 10.837c2.263-.173 2.839 1.745 1.09 3.183-2.31.495-2.892-1.572-1.09-3.183M26.224 130.283c1.45-.096 1.878 1.234 1.253 2.356-.311.558-.687.611-1.271.779-1.955-.087-2.728-2.71.018-3.135m67.608 6.664c.94-.055 2.504-.045 2.603 1.449.036.545-.473 1.128-.881 1.478-2.022.677-3.251-1.218-1.722-2.927m75.084.006c.994-.053 1.725-.142 2.295.871.521.927-.202 1.723-.962 2.124-1.404.231-1.763-.232-2.368-1.393.298-.803.369-1.086 1.035-1.602m23.602-.011c2.294-.123 2.97 2.116.799 3.111-2.23-.051-2.875-2.138-.799-3.111m-94.374-.072a1.615 1.615 0 1 1 .51 3.19 1.615 1.615 0 0 1-.51-3.19M93.91 32.946c1.254-.037 1.427.164 2.107 1.181-.305 1.099-.337 1.393-1.262 2.031-.921.088-1.599-.268-1.947-1.15a1.62 1.62 0 0 1 .043-1.288c.262-.537.526-.609 1.059-.774m-54.351 90.238a1.613 1.613 0 1 1 .523 3.182 1.613 1.613 0 0 1-.523-3.182m-27.255 7.108c2.125.26 2.389 2.388.425 3.328-.323-.092-.723-.198-1.018-.355a1.78 1.78 0 0 1-.898-1.173c-.228-.951.676-1.602 1.491-1.8m145.721 6.677c2.286-.11 2.996 2.114 1.085 2.997-.423.068-.839.13-1.244-.025a1.63 1.63 0 0 1-.922-.93c-.35-.917.241-1.701 1.081-2.042"/><path d="M181.879 105.503c2.352-.311 2.525 2.514.5 3.33-2.073-.441-2.513-2.344-.5-3.33m-80.423 31.421a1.612 1.612 0 1 1 1.194 2.995 1.612 1.612 0 0 1-1.194-2.995M80.4 128.985c1.379-.071 2.419.364 2.043 2.108-.122.568-.56.896-1.067 1.166-1.28.103-1.528-.47-2.044-1.462.238-1.027.283-1.112 1.068-1.812m66.035 7.966c.259-.016.623-.043.875-.018.441.044.843.27 1.108.625.699.952-.098 1.974-.938 2.48-2.311.06-2.851-2.303-1.045-3.087m15.218.007c.631-.021 1.027.035 1.649.103q.092.138.181.279c.715 1.146.494 1.969-.621 2.674-.2.014-.422.028-.621.021a1.78 1.78 0 0 1-1.307-.637c-.781-.945-.07-1.845.719-2.44m-145.38.035a1.608 1.608 0 0 1 2.152 1.838 1.61 1.61 0 1 1-2.152-1.838m8.278-17.917c2.169-.064 2.645 2.133.586 3.34-1.013-.107-2.081-.726-1.849-1.882.164-.823.631-1.036 1.263-1.458M131.87 38.02c-2.141-1.64.665-4.054 2.163-2.267.246.288.358.665.311 1.04-.057.445-.299.879-.59 1.215l-.299.267-1.527-.054z"/><path d="m131.87 38.019 1.884-.011-.299.267-1.527-.054zM44.538 92.233c.255.048.602.112.836.214.437.195.78.553.955.999.166.407.146.867-.053 1.258-.283.561-.691.712-1.248.892-2.232.099-2.247-2.057-.49-3.363m-12.972 44.612a1.607 1.607 0 1 1 .404 3.19 1.607 1.607 0 0 1-.404-3.19m118.602.108c.273-.009.691-.026.953.015.421.069.794.309 1.032.662.622.904-.069 1.906-.845 2.421-2.08.027-3.242-1.854-1.14-3.098m-41.364-.062a1.608 1.608 0 0 1 2.141 1.791 1.606 1.606 0 1 1-2.141-1.791m-7.601-8.253a1.603 1.603 0 0 1 .755 3.118 1.605 1.605 0 1 1-.755-3.118m22.965-2.411a1.605 1.605 0 1 1 1.247 2.957 1.605 1.605 0 0 1-1.247-2.957m64.433 10.716c.23-.013.51-.027.737.007.504.077.953.367 1.231.795.628.974-.111 1.797-.938 2.268-.277.026-.586.045-.858-.03a1.83 1.83 0 0 1-1.133-.925c-.499-.982.061-1.716.961-2.115M13.435 120.604c-1.298-2.12 1.258-3.374 2.399-2.338.493.842.965 1.915-.255 2.487-.988.464-1.257.086-2.144-.149m140.688 16.343c.897-.014 1.65.028 2.045.949.495 1.152-.303 1.716-1.171 2.096-1.998.308-2.843-1.878-.874-3.045m-122.539-7.08a1.602 1.602 0 1 1 1.242 2.954 1.602 1.602 0 0 1-1.242-2.954m9.477-21.27c1.029.202 2.054.957 1.52 2.13-.373.818-.919.962-1.693 1.272l-.156.014c-.919-.42-1.376-.982-1.132-2.031.174-.749.846-1.038 1.461-1.385m10.897 29.827c2.005.063 2.559 2.262.519 3.162-2.387-.025-2.805-2.245-.519-3.162m127.853-30.178c2.338.405 2.118 2.378.447 3.467-2.023-.491-2.781-2.574-.447-3.467m-136.123 6.258c2.067-.217 2.145 2.074.279 3.084-1.439.105-2.489-.944-1.696-2.317.34-.589.809-.609 1.417-.767M27.327 136.94c.928-.036 1.599-.035 2.154.825.607.942-.098 1.752-.885 2.214-2.073.207-3.003-1.495-1.269-3.039m-22.005-.1a1.592 1.592 0 1 1 .285 3.172 1.592 1.592 0 0 1-.285-3.172m105.554-4.961c2.3.001 3.224 2.008 1.291 2.97-2.301.396-3.15-1.757-1.291-2.97M49.793 114.33c2.118.466 2.363 2.658.631 3.341-.224-.019-.488-.039-.707-.08a1.6 1.6 0 0 1-1.066-.701c-.736-1.115.263-2.029 1.142-2.56m-13.877 29.116a1.584 1.584 0 1 1 1.032 2.996 1.584 1.584 0 0 1-1.032-2.996m7.933-56.24h.112l.185.003c1.991.03 2.567 1.873 1.292 3.242-2.352.521-2.788-1.498-1.589-3.245m152.32 49.76c.94-.134 1.706-.096 2.174.88.167.346.178.747.031 1.103-.218.537-.563.795-1.073 1.009-1.701.388-2.925-1.42-1.132-2.992M67.304 107.449c1.899.697 2.158 2.902.142 3.51-2.062-.339-2.222-2.649-.142-3.51m.064-11.086c.66.169 1.057.427 1.324 1.081a1.87 1.87 0 0 1-.032 1.494c-.258.569-.569.681-1.112.878-2.259-.143-2.254-2.837-.18-3.453M1.002 136.938c2.237-.077 3.186 1.87 1.125 2.998-2.151.399-2.924-1.609-1.125-2.998m154.445-8.782c-1.133 2.329-3.746.728-2.904-1.011.62-1.283 2.422-1.684 2.878.168zm-65.031-16.231c2.458.151 2.419 2.017.491 3.263-1.913-.126-2.655-2.134-.491-3.263m61.795 8.085c1.281.164 2.088.738 1.679 2.245-.147.546-.608.88-1.117 1.103-2.049-.07-2.544-2.431-.562-3.348m-37.75 6.253c2.465-.149 2.811 1.883.899 3.108-.755-.073-1.343-.223-1.801-.89a1.28 1.28 0 0 1-.195-1.037c.15-.616.592-.875 1.097-1.181"/><path d="M127.808 126.104c2.206.352 2.579 2.466.551 3.259-2.221-.145-2.482-2.403-.551-3.259m32.314.16a1.577 1.577 0 1 1 .96 3.004 1.577 1.577 0 0 1-.96-3.004M99.821 97.71c1.889-.252 2.809 2.048.988 3.293-1.216.045-2.027-.336-1.959-1.836.029-.625.47-1.094.971-1.457m55.605 22.42c1.592-.053 2.342.883 1.722 2.499-.171.448-.568.545-1.012.681-2.262-.233-2.451-2.1-.71-3.18m-53.33-8.759c1.217.007 1.375.381 2.005 1.327-.398 1.087-.429 1.342-1.343 2.086-2.437-.245-2.251-2.026-.662-3.413m46.912 8.747c2.217.05 2.422 2.515.532 3.275-2.142-.167-2.481-2.353-.532-3.275M67.293 10.474c2.423.094 2.654 2.419.891 3.108-.868.03-1.426-.059-1.859-.914a1.58 1.58 0 0 1-.06-1.282c.216-.555.514-.688 1.028-.912m111.656 105.494c2.567.017 2.441 1.573.942 3.007-2.299.438-2.998-1.782-.942-3.007m-73.067 4.05c2.352.028 2.043 2.512.448 3.188-.946-.21-1.629-.447-1.868-1.516a1.3 1.3 0 0 1 .215-1.027c.339-.478.66-.542 1.205-.645m17.62 13.129c2.174-.007 2.625 2.043.567 2.995-.326.029-.75.001-1.051-.131a1.5 1.5 0 0 1-.827-.921 1.44 1.44 0 0 1 .102-1.103c.291-.559.639-.675 1.209-.84m-14-14.748c.926.167 1.462.64 1.538 1.613.033.465-.123.923-.432 1.272-.322.37-.527.35-.996.372-1.095-.338-1.256-.745-1.798-1.715.446-1.058.552-1.287 1.688-1.542m-2.911-17.162c2.344-.132 2.558 2.302.885 3.186-2.05.107-2.782-2.144-.885-3.186m-74.349 42.198a1.567 1.567 0 1 1 .893 3.004 1.567 1.567 0 0 1-.893-3.004m22.886-8.563c2.462-.146 2.719 2.266 1.106 3.054-2.29.07-2.902-1.9-1.106-3.054m22.499-5.868c2.076.344 1.995 2.741.095 3.28l-.115-.002c-1.906-.035-2.055-2.701.02-3.278m62.926-2.877c2.443-.082 2.565 2.377.778 3.219-1.965-.017-2.587-2.148-.778-3.219m-73.223-7.034c1.849.265 1.754 3.222.332 3.578a12 12 0 0 1-.46-.148c-1.008-.356-1.645-1.366-1.181-2.408.294-.66.673-.761 1.309-1.022m42.637-24.94c.534.265.819-.164 1.397.477.836.926.605 1.958-.203 2.797l-.314.015c-2.384.08-2.404-1.823-.88-3.289m-71.685 42.892a1.56 1.56 0 0 1 2.248 1.532 1.56 1.56 0 0 1-2.966.539 1.56 1.56 0 0 1 .718-2.071m152.882-36.057c2.252.008 2.488 2.353.638 3.386-1.567.021-2.603-2.081-.638-3.386m-91.54-13.641c.879.049 1.335-.152 1.93.704.658.947.025 1.838-.761 2.399-1.871.101-1.793-.256-2.035-2.051.291-.453.424-.738.866-1.052m-64.835 49.675a1.56 1.56 0 1 1 1.202 2.877 1.56 1.56 0 0 1-1.202-2.877m45.403-2.099a1.56 1.56 0 1 1 1.029 2.943 1.56 1.56 0 0 1-1.029-2.943m-30.835-5.813c2.22-.09 2.726 2.041.963 3.165-2.13.169-2.703-2.045-.963-3.165"/><path d="M109.847 101.239c1.292-.06 2.291.309 2.109 1.972-.059.53-.481.872-.938 1.126-2.084.407-2.676-1.778-1.171-3.098m-25.929 27.728c2.193.031 2.568 2.54.708 3.278-1.639-.116-1.686-.669-1.829-2.123.414-.578.53-.763 1.121-1.155m71.873-1.89c.725-1.328 2.573-1.312 2.768.103.275 1.998-1.69 3.379-2.878 1.046-.008-.515.016-.635.11-1.149M42.008 111.746c1.174-.169 1.45.265 2.178 1.098-.317.882-.475 1.419-1.294 1.853l-.114.006c-2.391.115-2.596-1.583-.77-2.957m90.453 21.401c2.504-.133 3.035 2.06 1.265 3.053-2.007.214-2.838-1.807-1.265-3.053m45.907-21.948c1.828.879 2.304 2.351.345 3.431-2.39-.118-2.22-2.427-.345-3.431m-17.801-4.429c1.119-.045 1.37.248 2.047 1.121-.366 1.12-.395 1.432-1.504 1.886-1.162.145-1.291-.289-1.867-1.154.205-1.201.216-1.333 1.324-1.853m-56.847-5.505c1.901.175 1.812 2.537.034 3.268-2.373-.287-2.038-3.001-.034-3.268m-44.849 33.64a1.555 1.555 0 0 1 1.79 2.032 1.553 1.553 0 1 1-1.79-2.032m109.659-25.161c2.252.623 2.351 1.782.573 3.123-1.137.08-2.211-.335-1.919-1.755.155-.745.718-1.015 1.346-1.368m-58.154-29.246c2.014.439 2.182 2.431.436 3.239-.893-.003-1.566-.341-1.799-1.268a1.66 1.66 0 0 1 .218-1.288c.312-.489.612-.545 1.145-.683m56.108 17.519c2.006-.117 2.76 1.693 1.26 3.037-.74.135-1.638-.074-2.072-.736a1.42 1.42 0 0 1-.198-1.11c.152-.666.475-.844 1.01-1.191m-46.502-17.41c2.178.239 2.638 1.674.96 3.051-1.155.048-2.462-.159-2.05-1.915.118-.507.623-.898 1.09-1.136m-63.647 48.491c2.249.228 2.303 2.494.496 3.247-2.171-.354-2.451-2.388-.496-3.247m116.527-22.055c1.594.305 2.2 2.409-.008 3.009-2.277-.216-2.559-2.856.008-3.009M46.178 129.098c.691-.003 1.28.151 1.652.794.219.368.267.813.134 1.221-.173.529-.483.857-.957 1.115-.862.051-1.307-.007-1.798-.818a1.56 1.56 0 0 1-.149-1.279c.19-.607.586-.771 1.118-1.033m74.58-45.194c.625-.109.983.891 1.209 1.355-.228 1.085-.306 1.695-1.601 1.599-1.571-.105-1.997-1.28-1.092-2.516.352-.481.92-.419 1.484-.438M76.38 135.045a1.546 1.546 0 1 1 1.36 2.777 1.546 1.546 0 0 1-1.36-2.777m-3.622-.065q.404-.016.807-.009c1.784.04 1.981 1.62.628 2.848-1.412.415-1.866-.132-2.316-1.369.227-.727.307-.975.881-1.47M50.297 89.898a1.543 1.543 0 1 1 1.18 2.857 1.543 1.543 0 0 1-1.18-2.857m16.904 25.357c2.037.593 2.193 2.479.275 3.494-1.697-.267-2.389-2.54-.275-3.494m62.642 4.973c2.323-.127 2.385 2.42.721 3.157-2.06-.145-2.667-2.297-.721-3.157"/><path d="M52.69 129.102c2.388-.103 2.687 2.137.831 3.17-1.602.143-2.687-1.837-.831-3.17m115.761-27.897a1.543 1.543 0 1 1 .101 3.084 1.543 1.543 0 0 1-.101-3.084m-58.278-3.56.051.001c2.171.054 2.287 2.667.388 3.265-1.862-.091-2.319-2.262-.439-3.266m5-70.044c.848.152 1.417.346 1.742 1.232.123.345.103.725-.057 1.054-.272.573-.652.671-1.211.848-2.151.157-2.352-1.9-.474-3.134m27.398 92.596a1.54 1.54 0 1 1 .42 3.052 1.54 1.54 0 0 1-.42-3.052M62.1 134.984c2.384-.155 2.997 1.891 1.273 2.958-2.275.175-2.788-1.478-1.273-2.958m-39.912-4.622c2.508.062 2.679 2.342.911 3.029-1.952-.204-2.949-1.916-.911-3.029m112.243-7.315c-3.926 1.824-2.657-4.963.246-2.213.293.98.199 1.292-.246 2.213M42.157 89.943c2.183.074 2.347 2.728.438 3.042-2.226-.245-2.496-2.238-.438-3.042m1.921-6.334c.9-.027 1.683.287 1.915 1.193.286 1.121-.257 1.613-1.189 1.876-1.879.251-2.409-2.236-.726-3.069m70.459 39.528c2.286-.271 2.46 2.065.605 2.902-2.194-.109-2.78-2.072-.605-2.902m69.796-41.725c2.131.202 2.55 2.398.613 3.209-1.778.066-2.567-2.075-.613-3.209m-84.595 19.824c2.186-.012 2.5 1.923.918 3.194-.805.109-1.057-.106-1.751-.492-.128-1.37-.31-1.795.833-2.702m6.675-20.615c2.236-.219 2.796 1.848 1.085 3.045-.712.121-1.182.057-1.636-.557a1.66 1.66 0 0 1-.296-1.239c.095-.614.372-.903.847-1.249m42.549 52.682a1.525 1.525 0 1 1 1.33 2.745 1.525 1.525 0 0 1-1.33-2.745m-56.03-23.087c2.215-.009 2.634 1.756.868 3.135-1.551.095-2.936-1.944-.868-3.135m9.586 33.321a8 8 0 0 1 .643-.062 1.37 1.37 0 0 1 1.06.469c.778.911.01 1.921-.677 2.552-2.145.197-2.751-1.841-1.026-2.959m-35.371-20.552c2.173.086 2.175 2.166.507 3.246-1.92-.564-2.644-2.662-.507-3.246m3.563-112.4c1.929.047 2.7 1.937.838 3.044-2.118-.08-2.88-1.847-.838-3.044m41.536 109.629a1.515 1.515 0 1 1 .684 2.953 1.515 1.515 0 0 1-.684-2.953m-46.26 14.781a1.515 1.515 0 1 1-1.094 1.829 1.515 1.515 0 0 1 1.094-1.829m3.596-.004c2.364-.135 2.499 2.017.724 2.938-2.04.109-2.654-2.068-.724-2.938m36.871-44.111c2.154-.104 2.74 1.943.905 3.025-2.024.3-2.558-2.127-.905-3.025m10.293 10.423a1.507 1.507 0 0 1 1.855 1.868 1.51 1.51 0 1 1-1.855-1.868m49.355 5.939c2.259-.064 2.878 2.3.814 2.904-.343.057-.555.02-.877-.12a1.66 1.66 0 0 1-.885-.931c-.337-.903.078-1.551.948-1.853m-39.626 12.996c2.043-.281 2.549 1.888.898 3.008-1.898.504-2.702-1.906-.898-3.008m35.694-10.596c.178-.009.543-.067.675.023 1.374.942 1.416 2.61-.295 3.125a10 10 0 0 1-.323-.118c-1.656-.642-1.95-2.329-.057-3.03m-42.536 23.516c.21.006.941.04 1.105.108 1.459.606 1.454 2.113.083 2.768-2.137.291-2.805-1.912-1.188-2.876m16.466.053a1.506 1.506 0 0 1 1.883 1.721 1.506 1.506 0 0 1-2.942.106 1.507 1.507 0 0 1 1.059-1.827M99.674 80.758c2.164-.263 2.878 1.711 1.137 2.934-1.973.494-2.629-1.757-1.137-2.934m16.472 10.119c2.272-.106 2.763 1.661 1.27 3.029-1.9.362-2.84-1.71-1.27-3.029"/><path d="M103.219 90.857c2.09.35 2.51 2.199.704 3.244-2.007.066-2.355-2.132-.704-3.244m-36.082 35.566c1.804.173 2.377 2.415.71 3.159-2.242-.026-2.657-2.018-.71-3.159m68.078-5.596c1.252-1.214 2.643-.687 2.66 1.142-.244 2.074-3.214 1.988-2.66-1.142m10.86-.691c1.841.546 1.999 2.767-.034 3.204-1.071-.139-1.161-.698-1.49-1.585.341-1.107.352-1.401 1.524-1.619m24.409-7.865c2.063.269 2.566 2.64.63 2.867-1.027.294-2.114-.316-1.835-1.489.209-.875.506-.947 1.205-1.378m-67.249-31.639c2.169-.112 2.441 1.879.824 3.094-.723.006-1.186-.124-1.596-.759a1.56 1.56 0 0 1-.199-1.269c.164-.606.454-.791.971-1.066m-74.599 62.763c1.219-.072 2.041.406 1.819 1.817-.117.738-.462.912-1.075 1.297a5 5 0 0 1-.334-.046c-1.647-.279-1.938-2.106-.41-3.068m127.359-10.133c1.847-.117 2.372 2.107.426 3.015-2.177-.031-2.265-2.606-.426-3.015m8.87-21.419c1.784.535 2.198 2.575.459 3.27-2.156-.599-2.604-2.162-.459-3.27m-2.943 21.43c2.434-.281 2.985 1.613 1.327 2.873-2.093.223-2.564-1.399-1.327-2.873"/><path d="M158.777 133.254c.627-.022 1.249-.124 1.694.389.879 1.015.23 1.847-.542 2.519-1.767.445-2.812-1.874-1.152-2.908M46.679 112.917a1.49 1.49 0 1 1 .702 2.896 1.49 1.49 0 0 1-.702-2.896m69.589-32.296c2.206-.07 2.838 1.601 1.017 2.942-1.777.438-2.637-1.766-1.017-2.942m36.136 52.717a1.489 1.489 0 1 1 1.168 2.738 1.489 1.489 0 0 1-1.168-2.738M67.028 86.004a1.488 1.488 0 1 1 .72 2.887 1.488 1.488 0 0 1-.72-2.887"/><path d="M113.203 80.591c2.245-.063 2.424 1.783.813 3.094-.184.004-.302.01-.487-.034a1.8 1.8 0 0 1-1.151-.848c-.539-.955-.035-1.734.825-2.212m26.32 52.641a1.485 1.485 0 0 1 1.722 1.958 1.487 1.487 0 1 1-1.722-1.958m-1.394-11.282c.638-4.238 5.361.542 1.424 1.393-.982-.311-1.008-.459-1.424-1.393m-24.78-20.718c2.169-.078 2.523 2.01.744 3.093-1.786.19-2.393-1.882-.744-3.093m-95.881 16.092a1.484 1.484 0 1 1 1.125 2.746 1.484 1.484 0 0 1-1.125-2.746m78.654-7.954c1.857.202 2.485 2.303.781 3.344-1.838.154-2.346-2.289-.781-3.344m67.19-4.556c2.163-.191 2.365 1.965.782 2.964-2.246.146-2.444-1.867-.782-2.964M38.579 90.063c1.27-.02 1.363.608 1.812 1.623-.338.732-.529.905-1.171 1.398-2.233.078-2.521-2.268-.641-3.021m119.941 30.161c2.224-.222 2.697 1.738 1.132 2.996q-.173.005-.348.006c-1.792-.006-2.049-1.828-.784-3.002M44.636 96.121a1.48 1.48 0 0 1 1.385 2.173 1.479 1.479 0 1 1-1.385-2.173M99.945 84.09l1.169.133c.795 1.228 1.007 2.324-.553 2.953-1.918-.008-2.315-2.239-.616-3.086m-47.797 33.405c1.942-.296 2.246 2.173.433 2.794-1.224-.095-2.378-.939-1.632-2.286.188-.341.817-.423 1.199-.508m118.138-13.061c2.455.083 2.139 1.964.593 3.166-1.995-.248-2.231-2.071-.593-3.166m-24.399 28.848c2.31-.186 2.31 2.35.754 2.861-1.984.016-2.731-2.176-.754-2.861"/><path d="M99.496 109.757c1.788.329 2.57 1.955.72 3.038-2.045-.121-2.777-1.954-.72-3.038m-6.051-54.585c2.306-.142 2.661 1.944 1.008 2.935-.647.002-1.257-.156-1.656-.709a1.37 1.37 0 0 1-.233-1.077c.115-.556.446-.842.881-1.149m48.942 78.082c.511-.028 1.04-.011 1.553-.004l.63.994c-.16.866-.151 1.305-.817 1.883-2.09.121-2.744-1.366-1.366-2.873m42.511-9.643c2.562-.156 2.159 2.364.818 2.776-2.128.365-2.571-1.818-.818-2.776m-24.511-20.293c.482.062 1.051.336 1.221.795.456 1.232-.029 1.866-.995 2.389-.212-.043-.408-.075-.606-.166a1.73 1.73 0 0 1-.947-1.081 1.45 1.45 0 0 1 .158-1.21c.315-.508.618-.6 1.169-.727m27.48-1.993c1.979.161 2.3 1.82.707 2.955-2.09.658-2.447-1.634-.707-2.955m-61.463 31.933c.592-.053 1.104-.172 1.546.307.789.852.334 1.81-.384 2.503-2.013.672-2.738-1.85-1.162-2.81M46.77 90.132a1.453 1.453 0 1 1 .658 2.83 1.453 1.453 0 0 1-.658-2.83"/><path d="M129.398 133.258c2.222-.103 2.727 1.575 1.083 2.86-1.605.439-2.743-1.728-1.083-2.86m-100.023-6.121c1.816-.174 2.179 2.362.379 3.039-2.065-.445-2.127-2.021-.379-3.039m84.129-36.275c1.616-.031 2.151 2.122.075 3.096-.695-.226-1.117-.438-1.342-1.208a1.46 1.46 0 0 1 .132-1.136c.286-.497.614-.619 1.135-.752m57.28 30.053a1.423 1.423 0 1 1 .793 2.732 1.423 1.423 0 0 1-.793-2.732M37.13 24.407c.73.095 1.268.133 1.633.849.458.899.043 1.669-.798 2.081-2.045-.159-2.406-1.814-.835-2.93m135.184 91.996a1.407 1.407 0 1 1 .46 2.776 1.407 1.407 0 0 1-.46-2.776m9.041 4.288c.715-.06 1.239.055 1.633.71.217.356.264.79.129 1.185-.189.561-.533.735-1.036.963-.756-.149-1.726-.548-1.726-1.449 0-.634.569-1.028 1-1.409m-14.011-6.82c.97.355 1.076.507 1.714 1.277-.318.866-.36 1.354-1.143 1.763-2.044.095-2.302-1.941-.571-3.04m-146.413 6.677c-1.288-1.048-.973-2.998 1.303-2.517.283.428 1.541 1.233.495 2.153-.544.478-1.102.453-1.798.364m54.658-57.079c.682-.005 1.201-.054 1.629.574.586.863.099 1.58-.628 2.049-1.864.048-2.712-1.674-1.001-2.623m-28.557-.002a1.34 1.34 0 1 1 .829 2.55 1.34 1.34 0 0 1-.829-2.55m7.069.033a1.338 1.338 0 1 1 1.035 2.464 1.338 1.338 0 0 1-1.035-2.464m124.246 57.315c.125.039.454.146.556.207.31.187.525.496.592.852.177.939-.569 1.494-1.4 1.642-2.064-.617-1.591-2.299.252-2.701M72.239 63.467a1.331 1.331 0 1 1 .358 2.638 1.331 1.331 0 0 1-.358-2.638m-32.688.036a1.33 1.33 0 1 1 1.1 2.422 1.33 1.33 0 0 1-1.1-2.422m29.077-.032a1.325 1.325 0 1 1 .447 2.612 1.325 1.325 0 0 1-.447-2.612m-32.794.025a1.325 1.325 0 1 1 1.065 2.427 1.325 1.325 0 0 1-1.065-2.427m145.021 21.497c1.906-.061 2.786 1.064 1.227 2.564-1.715-.075-2.702-1.132-1.227-2.564M43.253 63.509a1.32 1.32 0 0 1 1.865 1.375 1.323 1.323 0 1 1-1.865-1.375m18.291-.026a1.32 1.32 0 1 1 .555 2.58 1.32 1.32 0 0 1-.555-2.58m-3.668.007a1.316 1.316 0 1 1 .7 2.537 1.316 1.316 0 0 1-.7-2.537m-7.31.006a1.312 1.312 0 1 1 .975 2.437 1.312 1.312 0 0 1-.975-2.437m14.482.027a1.299 1.299 0 0 1 .506 2.545 1.299 1.299 0 1 1-.506-2.545m-33 .016a1.291 1.291 0 1 1 1.027 2.37 1.291 1.291 0 0 1-1.027-2.37m137.463 51.729c.811.164 1.902-.077 2.081.861-.114.542-.399.822-.739 1.269-.192.303-.262.309-.568.491-1.421.083-1.555-1.646-.774-2.621M32.552 42.601c1.761-.082 2.172 1.765.703 2.632-1.753.021-2.153-1.704-.703-2.632M21.904 147.327c1.965.161 2.207 1.682.552 2.478-1.468-.237-2.169-1.683-.552-2.478m112.773-26.493c.084-.288.109-.469.302-.7l.094.009c-.053.336-.008.387.142.684-.554 3.13 2.416 3.216 2.66 1.142l.254-.019c.415.934.442 1.082 1.424 1.393.01.388.003.578-.028.966-.22.117-.109.108-.334.043.092-.456.16-.402 0-.734-.538-.115-1.097-.118-1.623-.17-1.326-.131-.799.424-1.53 1.023l-.246-.045c-.535-.468-.203-1.354-.955-1.576l-.298.271-.108-.074c.445-.921.539-1.233.246-2.213m-64.241 26.761a1.21 1.21 0 0 1 1.827 1.048 1.208 1.208 0 1 1-1.827-1.048m15.083-.153a1.203 1.203 0 1 1 .534 2.345 1.203 1.203 0 0 1-.534-2.345m-7.278-.027a1.204 1.204 0 1 1 .224 2.397 1.204 1.204 0 0 1-.224-2.397m-3.581.027a1.197 1.197 0 0 1 .113 2.394 1.2 1.2 0 0 1-1.259-1.14 1.2 1.2 0 0 1 1.146-1.254m-11.062-.012a1.2 1.2 0 1 1 .234 2.388 1.2 1.2 0 0 1-.234-2.388"/><path d="M184.661 120.71c1.572.324 1.708 1.799.175 2.578-1.697-.199-1.711-1.838-.175-2.578m-95.403 26.703c1.845.09 1.764 1.669.452 2.436-1.697-.285-2.069-1.882-.452-2.436m-29.361.047a1.195 1.195 0 1 1 .394 2.358 1.195 1.195 0 0 1-.394-2.358m7.436-.034a1.19 1.19 0 1 1 .093 2.378 1.19 1.19 0 0 1-.093-2.378m14.649-.011c.428-.04.844.155 1.088.508a1.184 1.184 0 1 1-2.158.756 1.184 1.184 0 0 1 1.07-1.264m-52.151.041a1.182 1.182 0 0 1 .604 2.287 1.183 1.183 0 1 1-.604-2.287m77.754-.013a1.179 1.179 0 1 1 .361 2.33 1.179 1.179 0 0 1-.361-2.33m59.454-.025c1.624-.169 2.415.975 1.172 2.263-1.849.248-2.114-.979-1.172-2.263m-29.688.05a1.176 1.176 0 1 1 .53 2.29 1.176 1.176 0 0 1-.53-2.29m-44.533-.011a1.172 1.172 0 1 1-.467 2.02 1.174 1.174 0 0 1 .467-2.02m-36.519.001a1.169 1.169 0 1 1 .274 2.323 1.17 1.17 0 0 1-.274-2.323m-15.273.151a1.17 1.17 0 0 1 1.182.022 1.171 1.171 0 0 1-.076 2.038 1.17 1.17 0 0 1-1.106-2.06m7.356-.051c1.822-.173 2.467.697 1.187 2.15-1.566.415-2.162-.948-1.187-2.15m111.314-.037a1.168 1.168 0 1 1 1.073 2.076 1.168 1.168 0 0 1-1.073-2.076m3.616-.08c1.643-.166 2.381.738 1.325 2.169-1.677.465-2.311-1.079-1.325-2.169m-118.518.146a1.164 1.164 0 0 1 1.665 1.178 1.165 1.165 0 1 1-1.665-1.178m-6.997-.137a1.163 1.163 0 1 1 .07 2.326 1.163 1.163 0 0 1-.07-2.326m84.232.164a1.17 1.17 0 0 1 1.191-.006 1.163 1.163 0 1 1-1.191.006m3.854-.018a1.16 1.16 0 0 1 1.172.052c.354.227.556.626.531 1.046a1.163 1.163 0 1 1-1.703-1.098m-91.854-.136a1.162 1.162 0 1 1 .079 2.322 1.162 1.162 0 0 1-.079-2.322m121.822-.036c1.659-.047 2.378.826 1.249 2.211-1.849.389-2.1-.924-1.249-2.211m-26.238.176a1.16 1.16 0 0 1 1.706 1.12 1.16 1.16 0 0 1-2.197.402 1.157 1.157 0 0 1 .491-1.522m-77.426.016a1.157 1.157 0 1 1 1.133 2.017 1.157 1.157 0 0 1-1.133-2.017m88.601-.005a1.156 1.156 0 0 1 1.733 1.055 1.16 1.16 0 0 1-.643.987 1.159 1.159 0 0 1-1.09-2.042m-40.968.007a1.155 1.155 0 1 1 1.106 2.029 1.156 1.156 0 0 1-1.106-2.029m52.486-.136a1.157 1.157 0 0 1 .86 2.146 1.158 1.158 0 1 1-.86-2.146m-33.967.122a1.153 1.153 0 0 1 1.712 1.082 1.154 1.154 0 1 1-1.712-1.082m-3.7.009a1.155 1.155 0 0 1 1.691 1.107 1.152 1.152 0 0 1-2.183.419 1.153 1.153 0 0 1 .492-1.526m29.886.025a1.149 1.149 0 0 1 1.783.995 1.152 1.152 0 1 1-1.783-.995m-48.28-.027a1.148 1.148 0 0 1 1.684 1.124 1.145 1.145 0 1 1-1.684-1.124m37.066-.003c.37-.2.819-.18 1.169.05.351.231.548.635.513 1.053a1.143 1.143 0 1 1-1.682-1.103m-22.41.016a1.142 1.142 0 0 1 1.723 1.045 1.144 1.144 0 1 1-1.723-1.045m37.534-.208c1.809.136 2.265 1.147.903 2.369-1.566-.056-1.91-1.39-.903-2.369M26.202 147.4c1.66.33 1.377 1.89.109 2.45-1.455-.597-1.789-1.976-.109-2.45m77.387.198a1.128 1.128 0 1 1 .956 2.043 1.128 1.128 0 0 1-.956-2.043M91.287 56.636c1.201.225 2.181 1.433.693 2.28-1.644.116-1.595-1.288-.693-2.28"/><path d="M186.921 120.868c1.479.162 1.777 1.595.361 2.327-1.634-.252-1.245-1.478-.361-2.327M121.079 34.06l.276.035c.015.258.068.719.014.946l-.172.336-.163-.118c.161-.381.177-.807.045-1.199M99.392 64.357l.374-.004c-.074.315-.054.646.059.951l-.487-.004c.109-.303.128-.63.054-.943m-3.116-46.566.204.561.011.968-.279.002zM73.64 109.706l.841.018.001.276c-.32 0-.763-.012-1.07.015zm81.781 17.607.371-.236c-.095.514-.119.633-.111 1.149l-.234-.07zm-20.894-51.064c.357-.008.371-.156.732-.068l-.135.382c-.248.088-.168.07-.423.089z"/></g></svg>