<svg preserveAspectRatio="none" width="100%" height="100%" overflow="visible" style="display: block;" viewBox="0 0 70.4567 100" fill="none" xmlns="http://www.w3.org/2000/svg">
<g id="Group 48095659" opacity="0.48">
<path id="Vector" d="M50.9223 35.0373C54.0862 33.3793 53.8762 38.7469 51.0675 37.3815C50.4122 36.4886 50.2195 35.9707 50.9223 35.0373Z" fill="var(--fill-0, #BABABA)"/>
<path id="Vector_2" d="M44.3233 25.9811C45.6069 24.9267 46.8311 24.7924 47.2171 26.7768C47.2811 27.1073 47.2352 27.3884 47.3194 27.7427C47.1539 28.193 46.4406 28.2233 46.0125 28.2494C45.2887 27.7453 44.674 26.7788 44.3233 25.9811Z" fill="var(--fill-0, #BABABA)"/>
<path id="Vector_3" d="M12.3388 76.6335C12.1747 77.6568 11.8944 78.1067 10.7482 77.7644C10.0653 77.5913 9.8604 76.6177 10.2084 76.0767C10.9098 74.9872 12.0432 74.7893 12.3567 76.2671L12.3388 76.6335Z" fill="var(--fill-0, #BABABA)"/>
<path id="Vector_4" d="M17.4621 69.838C17.1074 70.2503 16.6498 70.2925 16.2281 69.9727C14.2104 68.443 18.2578 66.8163 17.9412 69.0096C17.8001 69.3188 17.7049 69.6085 17.4621 69.838Z" fill="var(--fill-0, #BABABA)"/>
<path id="Vector_5" d="M65.4097 79.0295C65.2577 79.3395 65.2863 80.0949 64.5964 79.9602C63.7582 79.7969 63.3647 76.9859 64.8477 77.7466C65.1524 77.9024 65.1795 78.1356 65.2705 78.4464C65.3691 78.7052 65.4383 78.7774 65.4097 79.0295Z" fill="var(--fill-0, #BABABA)"/>
<path id="Vector_6" d="M62.7772 73.3906C62.6417 72.7472 62.1677 71.7194 62.6365 71.2025C63.1556 70.9482 63.4483 71.0415 63.8012 71.4644L63.9923 71.8323C63.8591 72.9383 63.8418 73.0964 62.7772 73.3906Z" fill="var(--fill-0, #BABABA)"/>
<path id="Vector_7" d="M39.6738 37.2448C40.0034 37.2681 40.287 37.2887 40.579 37.4588C40.9303 37.6682 41.1779 38.0164 41.2591 38.4177C41.4427 39.3381 40.7896 40.0395 39.9071 40.1514C39.5497 40.1966 39.2434 39.8869 38.9876 39.6752L38.9244 39.7094C39.0944 40.9517 38.1374 41.8954 36.9343 41.2174C36.3519 40.8888 36.2594 40.3795 36.1119 39.7761C36.0976 39.8988 36.0811 40.0213 36.0615 40.1433C35.9704 40.7091 35.8576 40.9292 35.4031 41.2493C35.0239 41.2866 34.5649 41.3487 34.2201 41.1708C33.4634 40.7804 33.1822 39.834 33.5876 39.1069C33.8044 38.7118 34.179 38.4274 34.618 38.3248C35.5875 38.1047 35.8779 38.5877 36.0886 39.3841H36.1939C36.4023 38.5973 37.3022 37.944 38.0035 38.4978C38.1374 38.6036 38.4331 38.7952 38.5986 38.6991C38.5098 37.8648 38.8928 37.5106 39.6738 37.2448Z" fill="var(--fill-0, #BABABA)"/>
<path id="Vector_8" d="M42.488 0.469118C43.0335 0.289292 43.6339 0.419912 44.0552 0.810186C44.4766 1.20046 44.6534 1.78884 44.5157 2.34668C44.3788 2.90452 43.9491 3.34385 43.3946 3.49395C42.5692 3.71742 41.7152 3.24257 41.4692 2.4229C41.2239 1.60322 41.6754 0.736975 42.488 0.469118Z" fill="var(--fill-0, #BABABA)"/>
<path id="Vector_9" d="M67.0509 94.1253C69.2479 93.9868 70.0966 96.2937 68.0712 97.1507C67.7905 97.1891 67.485 97.1944 67.2104 97.1184C66.7544 96.9912 66.3677 96.6857 66.1382 96.2704C65.6311 95.3382 66.2037 94.5481 67.0509 94.1253Z" fill="var(--fill-0, #BABABA)"/>
<path id="Vector_10" d="M25.878 23.1569C26.4143 22.9806 27.004 23.1059 27.4222 23.4852C27.8404 23.8644 28.0226 24.4391 27.8994 24.99C27.7763 25.541 27.3666 25.9833 26.8267 26.1483C26.004 26.3998 25.1322 25.942 24.8722 25.122C24.6121 24.3019 25.0607 23.4255 25.878 23.1569Z" fill="var(--fill-0, #BABABA)"/>
<path id="Vector_11" d="M62.2952 27.6017C63.0852 27.6622 63.8256 28.0578 64.043 28.8701C64.1484 29.2545 64.0934 29.6651 63.8918 30.0088C63.6134 30.4876 63.2763 30.6409 62.773 30.7774C60.7497 30.5407 60.0161 28.3566 62.2952 27.6017Z" fill="var(--fill-0, #BABABA)"/>
<path id="Vector_12" d="M55.2014 24.7925C56.0434 24.5834 56.8951 25.0989 57.0998 25.9418C57.3052 26.7846 56.7853 27.6336 55.9418 27.8345C55.1036 28.0341 54.2617 27.5189 54.0578 26.6817C53.8539 25.8445 54.3655 25.0001 55.2014 24.7925Z" fill="var(--fill-0, #BABABA)"/>
<path id="Vector_13" d="M65.6385 14.9809C66.4172 14.9229 67.0154 15.1119 67.278 15.9318C67.4217 16.3862 67.3766 16.8794 67.1516 17.2999C66.898 17.7786 66.5685 17.9354 66.0809 18.0949C65.2691 18.074 64.634 17.9071 64.3466 17.0342C64.2172 16.6525 64.2488 16.2345 64.4339 15.8765C64.7048 15.3495 65.1073 15.1562 65.6385 14.9809Z" fill="var(--fill-0, #BABABA)"/>
<path id="Vector_14" d="M5.47762 81.6953C6.01597 81.5268 6.60308 81.6622 7.01352 82.049C7.42396 82.4357 7.59392 83.0135 7.45811 83.5613C7.32238 84.1083 6.90201 84.5402 6.35839 84.6899C5.58401 84.9043 4.77382 84.495 4.48557 83.7456C4.33072 83.3423 4.34953 82.8939 4.53749 82.5057C4.72544 82.1167 5.06575 81.8232 5.47762 81.6953Z" fill="var(--fill-0, #BABABA)"/>
<path id="Vector_15" d="M59.9057 30.1766C60.7108 30.0771 61.4308 30.2575 61.8334 31.0355C62.0177 31.384 62.0523 31.7925 61.9297 32.1672C61.7499 32.71 61.4233 32.9004 60.95 33.1554C59.0638 33.4491 57.8095 31.287 59.9057 30.1766Z" fill="var(--fill-0, #BABABA)"/>
<path id="Vector_16" d="M60.639 92.9149C61.4854 92.8751 62.207 93.5199 62.2627 94.3648C62.3176 95.2105 61.6863 95.9441 60.8421 96.0148C60.2823 96.0615 59.7406 95.8027 59.4261 95.3369C59.1108 94.8719 59.0717 94.273 59.323 93.7704C59.5751 93.2686 60.0777 92.9413 60.639 92.9149Z" fill="var(--fill-0, #BABABA)"/>
<path id="Vector_17" d="M52.3564 62.0731C52.7281 62.0573 53.0404 62.0904 53.3722 62.2807C53.7251 62.4801 53.9764 62.8187 54.0659 63.2137C54.1547 63.6027 54.0832 64.0105 53.8673 64.3461C53.5535 64.8389 53.2052 64.9285 52.6747 65.0586C52.3444 65.0842 52.0585 65.091 51.7508 64.945C51.3956 64.7772 51.1263 64.468 51.0089 64.0925C50.6417 62.9556 51.3926 62.3688 52.3564 62.0731Z" fill="var(--fill-0, #BABABA)"/>
<path id="Vector_18" d="M57.3018 83.7501C59.5259 83.6109 59.9036 86.3143 57.7675 86.7274C56.6163 86.7854 56.2221 86.1879 55.9452 85.1842C56.1709 84.2302 56.365 84.033 57.3018 83.7501Z" fill="var(--fill-0, #BABABA)"/>
<path id="Vector_19" d="M55.4286 74.4193C56.1208 74.4095 56.6873 74.7639 56.8484 75.4644C56.9575 75.9211 56.8687 76.4027 56.6031 76.7909C56.2351 77.3214 55.8431 77.3868 55.2532 77.4771C54.8153 77.3876 54.6453 77.3199 54.2578 77.113C53.2428 75.7127 53.8094 74.7083 55.4286 74.4193Z" fill="var(--fill-0, #BABABA)"/>
<path id="Vector_20" d="M62.7193 48.7178C63.1324 48.6987 63.5372 48.8461 63.8412 49.1269C64.1459 49.4077 64.325 49.7986 64.3393 50.2124C64.3671 51.028 63.7577 51.7257 62.9458 51.8074C62.3853 51.8639 61.8375 51.6114 61.517 51.1481C61.1957 50.6848 61.1513 50.0837 61.4019 49.5785C61.6517 49.0734 62.1558 48.7437 62.7193 48.7178Z" fill="var(--fill-0, #BABABA)"/>
<path id="Vector_21" d="M20.7751 27.2282C21.3209 27.1021 21.8923 27.2807 22.2693 27.695C22.6462 28.1094 22.7701 28.695 22.5932 29.2265C22.4162 29.758 21.9661 30.1526 21.416 30.2583C20.587 30.4178 19.7829 29.8838 19.6082 29.0578C19.4335 28.2318 19.9525 27.4181 20.7751 27.2282Z" fill="var(--fill-0, #BABABA)"/>
<path id="Vector_22" d="M48.5918 24.3827C49.3623 24.2189 50.1327 24.6599 50.3818 25.4071C50.5225 25.8288 50.4751 26.2904 50.2516 26.6746C50.0282 27.0588 49.6504 27.3284 49.2148 27.4148C48.3804 27.5799 47.5685 27.0409 47.3977 26.2078C47.2269 25.3746 47.7604 24.5595 48.5918 24.3827Z" fill="var(--fill-0, #BABABA)"/>
<path id="Vector_23" d="M64.2006 30.7695C64.4511 30.7544 64.6716 30.742 64.9079 30.8437C65.3465 31.0323 65.6889 31.3921 65.8551 31.8396C66.2757 32.9511 65.6783 33.5803 64.6769 33.9233C63.9764 33.9247 63.3767 33.6721 63.0682 32.9997C62.8936 32.6297 62.8794 32.2044 63.0283 31.8236C63.2563 31.2412 63.6664 31.0134 64.2006 30.7695Z" fill="var(--fill-0, #BABABA)"/>
<path id="Vector_24" d="M6.47738 65.9892C8.56366 65.7334 9.46197 68.0704 7.53844 69.0305C5.67449 69.1742 4.52503 67.093 6.47738 65.9892Z" fill="var(--fill-0, #BABABA)"/>
<path id="Vector_25" d="M65.3662 96.9767C66.1284 96.9308 66.9462 97.1234 67.3465 97.8412C67.5173 98.1459 67.5587 98.5071 67.4609 98.8426C67.2991 99.4032 66.9139 99.6808 66.4346 99.9517C65.1322 100.18 64.6153 99.5845 64.2804 98.4266C64.5287 97.6907 64.7176 97.3912 65.3662 96.9767Z" fill="var(--fill-0, #BABABA)"/>
<path id="Vector_26" d="M46.146 0.0030844C48.1534 -0.102704 48.6538 2.54442 46.6087 3.07321C44.4666 3.12588 44.2341 0.348591 46.146 0.0030844Z" fill="var(--fill-0, #BABABA)"/>
<path id="Vector_27" d="M26.9466 54.4411C27.7505 54.1462 28.6408 54.5622 28.9297 55.3681C29.2186 56.1747 28.7956 57.0617 27.9873 57.3447C27.1877 57.6245 26.3119 57.207 26.026 56.4094C25.7402 55.6118 26.1512 54.733 26.9466 54.4411Z" fill="var(--fill-0, #BABABA)"/>
<path id="Vector_28" d="M66.0172 43.4301C66.5356 43.2317 67.1202 43.3272 67.5483 43.6802C67.9765 44.0332 68.1819 44.5891 68.0863 45.1355C67.99 45.6821 67.6078 46.1349 67.0856 46.321C66.2903 46.6042 65.4153 46.1951 65.1226 45.4033C64.8306 44.6115 65.2294 43.7318 66.0172 43.4301Z" fill="var(--fill-0, #BABABA)"/>
<path id="Vector_29" d="M23.1747 24.8031C24.0038 24.631 24.8163 25.1605 24.9938 25.9884C25.1712 26.8164 24.647 27.6323 23.8201 27.815C22.9859 27.9994 22.1609 27.4693 21.9819 26.6338C21.8029 25.7984 22.3381 24.9769 23.1747 24.8031Z" fill="var(--fill-0, #BABABA)"/>
<path id="Vector_30" d="M30.1949 11.4565C31.0245 11.347 31.7898 11.9201 31.9181 12.747C32.0464 13.574 31.4908 14.352 30.667 14.499C30.1172 14.5971 29.5575 14.3898 29.2041 13.9574C28.8508 13.5249 28.7592 12.9351 28.9649 12.4159C29.1706 11.8968 29.6413 11.5297 30.1949 11.4565Z" fill="var(--fill-0, #BABABA)"/>
<path id="Vector_31" d="M29.1038 18.1952C29.9471 18.068 30.7329 18.6511 30.8555 19.495C30.9781 20.3389 30.3907 21.1215 29.5461 21.2394C28.7081 21.3565 27.9329 20.7746 27.8112 19.9372C27.6895 19.0998 28.2672 18.3214 29.1038 18.1952Z" fill="var(--fill-0, #BABABA)"/>
<path id="Vector_32" d="M39.6173 1.66586C40.4637 1.62599 41.1823 2.2781 41.2251 3.12411C41.268 3.97011 40.618 4.6913 39.7722 4.73675C38.922 4.78249 38.1967 4.1291 38.1538 3.2791C38.1109 2.42911 38.767 1.70597 39.6173 1.66586Z" fill="var(--fill-0, #BABABA)"/>
<path id="Vector_33" d="M49.3822 0.00172102C49.5846 0.0189512 50.0571 0.0455121 50.2339 0.119248C51.0082 0.441806 51.4175 1.41256 51.0924 2.18958C50.8765 2.70468 50.6056 2.8766 50.1226 3.09533C47.7216 3.21677 47.596 0.607335 49.3822 0.00172102Z" fill="var(--fill-0, #BABABA)"/>
<path id="Vector_34" d="M64.6593 46.3488C66.6012 46.1687 67.5884 48.2348 65.7322 49.3353C64.964 49.5319 64.3026 49.3564 63.8843 48.6347C63.6503 48.2338 63.5939 47.7537 63.7285 47.3096C63.8986 46.7633 64.1845 46.5933 64.6593 46.3488Z" fill="var(--fill-0, #BABABA)"/>
<path id="Vector_35" d="M54.9906 33.7035C55.6647 33.6745 56.2358 34.0896 56.4126 34.7413C56.5503 35.2374 56.4766 35.7684 56.2087 36.208C55.8852 36.7293 55.5654 36.78 55.0109 36.8985C54.345 36.7326 53.7739 36.477 53.5535 35.7651C53.4354 35.3766 53.4782 34.9567 53.6731 34.6004C53.9974 34.0021 54.3984 33.8894 54.9906 33.7035Z" fill="var(--fill-0, #BABABA)"/>
<path id="Vector_36" d="M33.5032 21.9575C34.2283 21.9018 34.9027 22.101 35.2917 22.7619C35.4979 23.1098 35.5566 23.5257 35.4543 23.917C35.2993 24.5024 34.9539 24.7522 34.4551 25.0206C32.4182 25.2839 31.6725 23.0441 33.5032 21.9575Z" fill="var(--fill-0, #BABABA)"/>
<path id="Vector_37" d="M9.03003 70.4316C11.145 70.3804 11.8443 72.8656 9.75513 73.4344C9.04275 73.4848 8.27206 73.1101 7.96959 72.4442C7.80729 72.0944 7.80263 71.6918 7.95687 71.339C8.1677 70.8574 8.55556 70.6039 9.03003 70.4316Z" fill="var(--fill-0, #BABABA)"/>
<path id="Vector_38" d="M64.9253 11.7388C65.6033 11.7373 66.2097 12.0404 66.4038 12.7292C66.5242 13.1607 66.4625 13.6227 66.233 14.0075C65.9005 14.5659 65.5137 14.6828 64.9321 14.8247C64.2361 14.7275 63.6478 14.463 63.4326 13.7314C63.3212 13.3549 63.3716 12.949 63.5725 12.6115C63.9036 12.0437 64.3452 11.9063 64.9253 11.7388Z" fill="var(--fill-0, #BABABA)"/>
<path id="Vector_39" d="M52.0356 24.1439C53.9264 24.1085 54.5509 26.7132 52.4908 27.297C52.159 27.3121 51.9054 27.3199 51.6022 27.1624C51.2448 26.9719 50.9769 26.6471 50.8588 26.2594C50.7249 25.8187 50.7738 25.3426 50.995 24.9385C51.2425 24.4882 51.5623 24.2869 52.0356 24.1439Z" fill="var(--fill-0, #BABABA)"/>
<path id="Vector_40" d="M65.8756 33.7746C66.6506 33.7393 67.2721 34.0544 67.5038 34.8372C67.6242 35.2388 67.5806 35.6716 67.3827 36.0412C67.1081 36.5453 66.771 36.666 66.2548 36.816C65.5566 36.8129 64.9404 36.6823 64.6259 35.9839C64.4596 35.6119 64.4521 35.188 64.6055 34.8104C64.8599 34.1765 65.3 34.0094 65.8756 33.7746Z" fill="var(--fill-0, #BABABA)"/>
<path id="Vector_41" d="M57.7603 66.2887C59.8836 66.1413 60.3027 68.6799 58.2577 69.1945C57.4646 69.266 56.7506 68.9816 56.4872 68.169C56.3638 67.792 56.406 67.3812 56.6039 67.0374C56.8815 66.5603 57.2637 66.4332 57.7603 66.2887Z" fill="var(--fill-0, #BABABA)"/>
<path id="Vector_42" d="M18.724 30.067C19.254 29.886 19.8406 30.0084 20.2539 30.3864C20.6673 30.7643 20.8415 31.3377 20.7084 31.8817C20.5754 32.4257 20.1562 32.8539 19.615 32.9985C18.8168 33.2117 17.9932 32.7539 17.7529 31.9633C17.5127 31.1728 17.9421 30.334 18.724 30.067Z" fill="var(--fill-0, #BABABA)"/>
<path id="Vector_43" d="M8.9311 80.8628C9.7504 80.6927 10.5547 81.2111 10.7379 82.0275C10.921 82.8439 10.4155 83.6565 9.6021 83.8528C9.06413 83.983 8.49786 83.8122 8.12076 83.4074C7.74365 83.0026 7.61416 82.4255 7.7821 81.8981C7.94996 81.3706 8.38914 80.9749 8.9311 80.8628Z" fill="var(--fill-0, #BABABA)"/>
<path id="Vector_44" d="M42.3303 48.1225C43.1519 47.9164 43.9841 48.4154 44.1895 49.2367C44.3949 50.058 43.8953 50.8901 43.0736 51.0945C42.2528 51.2987 41.4229 50.7997 41.2174 49.9796C41.0128 49.1594 41.5109 48.3282 42.3303 48.1225Z" fill="var(--fill-0, #BABABA)"/>
<path id="Vector_45" d="M39.7911 49.8025C41.6037 49.8264 42.3072 52.1207 40.3389 52.8971C39.974 52.9257 39.7024 52.9438 39.3638 52.7783C38.9951 52.5969 38.7152 52.2732 38.5903 51.8812C38.2562 50.8525 38.8047 50.0855 39.7911 49.8025Z" fill="var(--fill-0, #BABABA)"/>
<path id="Vector_46" d="M57.6035 32.0953C58.4282 31.9941 59.1829 32.5687 59.3047 33.3904C59.4266 34.2119 58.8714 34.981 58.0535 35.1235C57.505 35.2191 56.9482 35.0098 56.5991 34.5771C56.25 34.1443 56.1619 33.5561 56.3711 33.0405C56.5795 32.5249 57.052 32.1631 57.6035 32.0953Z" fill="var(--fill-0, #BABABA)"/>
<path id="Vector_47" d="M52.5202 0.674069C54.8008 0.545783 55.2304 2.84123 53.4389 3.66249C52.4156 3.64089 51.4089 3.35671 51.4232 2.05376C51.43 1.42189 51.9672 0.926051 52.5202 0.674069Z" fill="var(--fill-0, #BABABA)"/>
<path id="Vector_48" d="M59.1719 89.9181C59.913 89.8911 60.4909 90.1785 60.6677 90.9504C60.7662 91.3921 60.6752 91.8556 60.4149 92.2265C60.1282 92.6328 59.7934 92.7826 59.3254 92.8766C57.2668 92.7893 56.7416 90.3696 59.1719 89.9181Z" fill="var(--fill-0, #BABABA)"/>
<path id="Vector_49" d="M33.9022 29.7893C34.5454 29.7543 35.166 30.0542 35.4301 30.6621C35.6084 31.0784 35.6077 31.5498 35.4263 31.9649C35.2021 32.4887 34.8387 32.7392 34.3359 32.9481C33.6565 32.9582 33.0298 32.7887 32.7168 32.1217C32.5472 31.7511 32.534 31.3279 32.68 30.9474C32.9142 30.3215 33.3288 30.0533 33.9022 29.7893Z" fill="var(--fill-0, #BABABA)"/>
<path id="Vector_50" d="M44.5347 45.5868C45.0817 45.5146 45.6257 45.743 45.9568 46.1843C46.2878 46.6257 46.3556 47.2113 46.1336 47.7164C45.9117 48.2215 45.4339 48.5676 44.8854 48.6219C44.0547 48.7039 43.3128 48.1051 43.2173 47.2765C43.1217 46.448 43.7078 45.6959 44.5347 45.5868Z" fill="var(--fill-0, #BABABA)"/>
<path id="Vector_51" d="M66.9179 36.8606C67.6726 36.8279 68.2256 37.2071 68.3881 37.9625C68.4852 38.4164 68.3919 38.89 68.1308 39.2735C67.8374 39.7046 67.5341 39.772 67.0549 39.8795C66.3589 39.8599 65.6938 39.6617 65.4372 38.9366C65.3115 38.5725 65.3371 38.173 65.5087 37.8281C65.833 37.1737 66.2889 37.0514 66.9179 36.8606Z" fill="var(--fill-0, #BABABA)"/>
<path id="Vector_52" d="M68.8619 91.0572C69.6955 91.0196 70.4051 91.6591 70.454 92.492C70.5029 93.325 69.8731 94.0435 69.0409 94.1037C68.4924 94.1436 67.9642 93.8848 67.6595 93.4273C67.3548 92.9691 67.3202 92.3822 67.5692 91.8916C67.8183 91.401 68.3119 91.082 68.8619 91.0572Z" fill="var(--fill-0, #BABABA)"/>
<path id="Vector_53" d="M4.75125 68.5857C5.28839 68.4721 5.84525 68.6557 6.2095 69.0665C6.57374 69.4773 6.68915 70.0522 6.51174 70.5721C6.33439 71.092 5.89153 71.4757 5.35205 71.5781C4.53019 71.7346 3.73587 71.1996 3.57117 70.3795C3.40655 69.5594 3.93278 68.7595 4.75125 68.5857Z" fill="var(--fill-0, #BABABA)"/>
<path id="Vector_54" d="M36.7311 22.6181C37.5271 22.3381 38.3984 22.7567 38.6775 23.5526C38.9567 24.3484 38.5368 25.2196 37.74 25.4974C36.9455 25.7747 36.0765 25.3559 35.7981 24.5616C35.5197 23.7673 35.9373 22.8976 36.7311 22.6181Z" fill="var(--fill-0, #BABABA)"/>
<path id="Vector_55" d="M65.8799 18.4381C66.6052 18.4471 67.2184 18.8483 67.3855 19.5755C67.4893 20.0221 67.396 20.4917 67.1312 20.8655C66.8249 21.2937 66.5119 21.3641 66.0266 21.4552C65.2629 21.3468 64.5602 21.0779 64.3728 20.2352C64.2908 19.8664 64.363 19.48 64.573 19.166C64.9131 18.6571 65.3216 18.5334 65.8799 18.4381Z" fill="var(--fill-0, #BABABA)"/>
<path id="Vector_56" d="M2.1055 82.9059C2.40278 82.8585 2.42385 82.86 2.72586 82.8766L2.85603 83.0301C3.33644 83.0654 3.77134 83.3273 4.02648 83.7358C4.28154 84.1451 4.32616 84.6507 4.14656 85.0977C3.89029 85.7357 3.23532 86.1195 2.55348 86.0314C1.87173 85.9441 1.33548 85.4062 1.24933 84.7245C1.16318 84.0421 1.54887 83.3882 2.18736 83.1339L2.1055 82.9059Z" fill="var(--fill-0, #BABABA)"/>
<path id="Vector_57" d="M63.8251 24.755C64.6625 24.6645 65.4134 25.2701 65.5029 26.1071C65.5925 26.944 64.9853 27.6947 64.1486 27.7829C63.3134 27.8709 62.564 27.2656 62.4752 26.4303C62.3857 25.595 62.9899 24.8453 63.8251 24.755Z" fill="var(--fill-0, #BABABA)"/>
<path id="Vector_58" d="M59.5784 50.7178C61.4324 50.6142 62.0125 53.1382 59.8034 53.6724C59.0871 53.7792 58.4273 53.4429 58.2098 52.7273C58.0872 52.3248 58.1331 51.8896 58.3385 51.5219C58.6454 50.9612 59.0096 50.8681 59.5784 50.7178Z" fill="var(--fill-0, #BABABA)"/>
<path id="Vector_59" d="M8.46758 63.4198C10.4222 63.3634 11.4185 65.3708 9.49416 66.4107C8.20213 66.5258 7.75023 66.0172 7.37771 64.8795C7.59057 64.0015 7.66243 63.863 8.46758 63.4198Z" fill="var(--fill-0, #BABABA)"/>
<path id="Vector_60" d="M50.0549 52.8271C50.8667 52.6059 51.7034 53.086 51.9224 53.8978C52.1421 54.7104 51.6598 55.5456 50.8464 55.763C50.0368 55.979 49.2047 55.4989 48.9865 54.6901C48.7683 53.8805 49.246 53.0468 50.0549 52.8271Z" fill="var(--fill-0, #BABABA)"/>
<path id="Vector_61" d="M36.1236 32.0077C36.6638 31.8908 37.2251 32.0762 37.5893 32.4919C37.9534 32.9076 38.0633 33.4883 37.876 34.0083C37.6886 34.5284 37.2341 34.9059 36.6886 34.9944C35.8753 35.1263 35.1048 34.586 34.9513 33.7762C34.7986 32.9664 35.3185 32.182 36.1236 32.0077Z" fill="var(--fill-0, #BABABA)"/>
<path id="Vector_62" d="M39.0199 33.5481C40.5706 33.6447 41.4396 35.9225 39.4164 36.7288C37.1306 36.6975 37.0463 34.2998 39.0199 33.5481Z" fill="var(--fill-0, #BABABA)"/>
<path id="Vector_63" d="M53.631 68.2575C54.1667 68.1424 54.7228 68.3245 55.0862 68.7346C55.4503 69.1439 55.5655 69.718 55.3871 70.2364C55.2096 70.7548 54.7664 71.137 54.2277 71.2371C53.4106 71.3883 52.6235 70.8564 52.4603 70.0415C52.2977 69.2266 52.8184 68.4321 53.631 68.2575Z" fill="var(--fill-0, #BABABA)"/>
<path id="Vector_64" d="M63.0896 94.9884C63.912 94.8455 64.696 95.3932 64.8442 96.2156C64.9917 97.0373 64.4484 97.8243 63.6268 97.9763C62.7992 98.1298 62.0054 97.5813 61.8564 96.7529C61.7074 95.9244 62.2604 95.1329 63.0896 94.9884Z" fill="var(--fill-0, #BABABA)"/>
<path id="Vector_65" d="M14.4583 62.8248C16.4741 62.6736 17.2779 65.061 15.4748 65.8435C13.3979 65.8488 12.5573 63.754 14.4583 62.8248Z" fill="var(--fill-0, #BABABA)"/>
<path id="Vector_66" d="M33.1801 51.5573C33.966 51.2583 34.8447 51.6555 35.1404 52.4431C35.4353 53.2302 35.0336 54.1075 34.245 54.3986C33.4616 54.6876 32.5918 54.2895 32.2988 53.5078C32.0058 52.726 32.3997 51.8541 33.1801 51.5573Z" fill="var(--fill-0, #BABABA)"/>
<path id="Vector_67" d="M58.2339 86.8974C58.9735 86.859 59.6161 87.0441 59.8576 87.8289C59.9825 88.2397 59.9283 88.6836 59.7078 89.0523C59.4122 89.5564 59.0803 89.6527 58.5499 89.7791C57.8276 89.834 57.1331 89.6174 56.875 88.8672C56.7494 88.4985 56.7847 88.0937 56.9728 87.7529C57.27 87.2014 57.6786 87.0652 58.2339 86.8974Z" fill="var(--fill-0, #BABABA)"/>
<path id="Vector_68" d="M59.3773 72.3105C61.3335 72.1464 61.6781 74.7204 59.5887 75.2403C59.2321 75.2569 58.9364 75.2561 58.6181 75.0695C58.278 74.8709 58.038 74.5391 57.9567 74.1546C57.8709 73.7626 57.9454 73.3518 58.1651 73.0155C58.4781 72.5302 58.8506 72.4354 59.3773 72.3105Z" fill="var(--fill-0, #BABABA)"/>
<path id="Vector_69" d="M42.374 25.7279C44.2219 25.6485 44.9284 27.9847 42.8089 28.7987C42.5538 28.8129 42.2235 28.8096 41.9865 28.7129C41.6216 28.5628 41.3334 28.2708 41.1882 27.9042C41.0445 27.5286 41.0565 27.1111 41.2228 26.7449C41.45 26.2356 41.8736 25.9361 42.374 25.7279Z" fill="var(--fill-0, #BABABA)"/>
<path id="Vector_70" d="M60.6969 56.8044C61.0069 56.7886 61.3432 56.7758 61.6329 56.9015C61.991 57.0587 62.2687 57.3567 62.4011 57.7253C62.5365 58.1023 62.5124 58.5184 62.3341 58.878C62.0775 59.3867 61.6645 59.568 61.1498 59.7177C60.8015 59.735 60.5185 59.7478 60.1995 59.5838C59.8369 59.3934 59.569 59.0624 59.4584 58.6689C59.347 58.2912 59.3975 57.8841 59.5961 57.544C59.8557 57.0978 60.2259 56.9308 60.6969 56.8044Z" fill="var(--fill-0, #BABABA)"/>
<path id="Vector_71" d="M62.1506 84.4208C62.4591 84.399 62.7924 84.4058 63.0723 84.5472C63.4259 84.7263 63.6847 85.0498 63.781 85.4335C63.8849 85.8263 63.8247 86.2446 63.614 86.5915C63.3108 87.1001 62.9323 87.1746 62.4049 87.3183C62.0783 87.3545 61.7488 87.2905 61.4598 87.1332C61.1085 86.9451 60.8557 86.6133 60.7684 86.2243C60.6758 85.8376 60.7473 85.4298 60.9655 85.0972C61.2665 84.6307 61.6442 84.5389 62.1506 84.4208Z" fill="var(--fill-0, #BABABA)"/>
<path id="Vector_72" d="M19.9743 54.8453C20.6683 54.9379 21.3124 55.1561 21.638 55.837C21.8097 56.1997 21.819 56.618 21.6634 56.9882C21.4331 57.5382 21.0361 57.782 20.5124 57.9844C19.8037 57.8994 19.1073 57.5615 18.823 56.8656C18.6845 56.53 18.6878 56.1523 18.8321 55.819C19.063 55.281 19.4659 55.0492 19.9743 54.8453Z" fill="var(--fill-0, #BABABA)"/>
<path id="Vector_73" d="M54.5031 71.3171C55.3224 71.2268 56.0636 71.8076 56.1712 72.624C56.2795 73.4411 55.7152 74.1943 54.9011 74.3199C54.3579 74.4035 53.8131 74.1875 53.4753 73.7549C53.1374 73.3215 53.0607 72.7399 53.2736 72.2343C53.4873 71.7286 53.9576 71.3773 54.5031 71.3171Z" fill="var(--fill-0, #BABABA)"/>
<path id="Vector_74" d="M53.2201 65.1576C55.0041 64.9853 55.5074 67.5427 53.3721 68.1055C52.6724 68.1469 51.9884 67.8662 51.7604 67.153C51.6393 66.7722 51.6792 66.3584 51.8726 66.0093C52.1991 65.4187 52.6204 65.3269 53.2201 65.1576Z" fill="var(--fill-0, #BABABA)"/>
<path id="Vector_75" d="M56.5858 80.6614C56.9078 80.635 57.2141 80.6365 57.512 80.7795C57.8724 80.9533 58.1463 81.2663 58.2719 81.6463C58.3991 82.0247 58.3668 82.4393 58.1824 82.7937C57.9243 83.2895 57.5782 83.4107 57.0794 83.5627C56.6693 83.601 56.336 83.5973 55.9741 83.367C55.6227 83.1473 55.3782 82.7907 55.2992 82.3836C55.1209 81.4303 55.6972 80.842 56.5858 80.6614Z" fill="var(--fill-0, #BABABA)"/>
<path id="Vector_76" d="M21.6298 52.361C22.3479 52.3203 23.0535 52.5182 23.451 53.1668C23.6558 53.4948 23.7108 53.8951 23.6024 54.2661C23.44 54.8206 23.0961 55.0644 22.6162 55.3149C20.5396 55.3638 19.6666 53.4301 21.6298 52.361Z" fill="var(--fill-0, #BABABA)"/>
<path id="Vector_77" d="M23.4918 49.7987C24.303 49.5759 25.1402 50.057 25.3561 50.87C25.5721 51.683 25.084 52.5159 24.2692 52.7251C23.464 52.932 22.6428 52.4512 22.4294 51.6475C22.216 50.8441 22.6902 50.0189 23.4918 49.7987Z" fill="var(--fill-0, #BABABA)"/>
<path id="Vector_78" d="M25.2309 57.0703C26.0361 56.8641 26.8568 57.3457 27.069 58.1492C27.2813 58.9528 26.8058 59.7775 26.0038 59.9957C25.1931 60.2169 24.3576 59.7346 24.1429 58.9227C23.9283 58.1101 24.4168 57.2779 25.2309 57.0703Z" fill="var(--fill-0, #BABABA)"/>
<path id="Vector_79" d="M29.6656 21.4318C30.4714 21.2817 31.2503 21.8007 31.422 22.6023C31.5937 23.4038 31.096 24.1964 30.2994 24.3898C29.7646 24.5196 29.2015 24.3488 28.8289 23.9437C28.4563 23.5387 28.333 22.9634 28.5069 22.4412C28.6808 21.9191 29.1245 21.5325 29.6656 21.4318Z" fill="var(--fill-0, #BABABA)"/>
<path id="Vector_80" d="M56.046 77.5808C56.3206 77.5583 56.6697 77.5876 56.9157 77.7223C57.2483 77.9066 57.4861 78.2241 57.5688 78.5943C57.6636 79.0097 57.5861 79.4461 57.3544 79.8027C57.0459 80.2797 56.7269 80.355 56.2077 80.452C54.0852 80.3851 53.7285 78.0187 56.046 77.5808Z" fill="var(--fill-0, #BABABA)"/>
<path id="Vector_81" d="M17.9543 57.5578C20.0048 57.2772 20.8709 59.6841 18.9843 60.5517C17.1613 60.7225 16.1349 58.7225 17.9543 57.5578Z" fill="var(--fill-0, #BABABA)"/>
<path id="Vector_82" d="M29.0469 14.7533C29.4304 14.7411 29.7349 14.7883 30.1138 14.8326C31.3252 15.6276 31.4252 17.1078 30.0215 17.7569C28.0352 18.1166 27.308 15.6636 29.0469 14.7533Z" fill="var(--fill-0, #BABABA)"/>
<path id="Vector_83" d="M61.6576 81.3419C62.3671 81.4397 62.9427 81.8152 63.0631 82.5646C63.1316 82.9739 63.0262 83.3937 62.7727 83.7218C62.398 84.2154 62.0165 84.2259 61.4439 84.3117C61.2039 84.2906 60.9706 84.2252 60.7547 84.1191C59.9865 83.7421 59.7894 82.837 60.219 82.1116C60.5628 81.5315 61.0489 81.4691 61.6576 81.3419Z" fill="var(--fill-0, #BABABA)"/>
<path id="Vector_84" d="M36.6197 3.29487C37.2901 3.26951 37.9138 3.60938 38.1403 4.26435C38.2863 4.68863 38.2449 5.15513 38.0252 5.54668C37.743 6.05854 37.3593 6.22663 36.8319 6.39006C36.312 6.37599 35.5912 6.11008 35.373 5.62847C34.8177 4.40212 35.7176 3.72833 36.6197 3.29487Z" fill="var(--fill-0, #BABABA)"/>
<path id="Vector_85" d="M66.7703 40.1317C67.5859 39.9639 68.3842 40.4875 68.5542 41.3029C68.725 42.1182 68.2044 42.918 67.3895 43.0916C66.5709 43.2663 65.7665 42.7422 65.5942 41.9228C65.4227 41.1032 65.9501 40.3003 66.7703 40.1317Z" fill="var(--fill-0, #BABABA)"/>
<path id="Vector_86" d="M58.7849 69.2983C59.769 69.2343 60.0881 69.9995 60.3033 70.7895C60.1422 71.3952 60.0444 71.5683 59.611 72.019C59.362 72.1032 59.0407 72.1717 58.7811 72.2357C57.6074 72.1958 57.4328 71.7729 57.0679 70.7482C57.4328 69.7497 57.7451 69.527 58.7849 69.2983Z" fill="var(--fill-0, #BABABA)"/>
<path id="Vector_87" d="M55.9346 57.3328C57.1934 57.2793 57.9097 58.2665 57.3092 59.4372C57.0301 59.9812 56.6103 60.076 56.0618 60.2228C54.8504 60.225 54.6389 59.766 54.341 58.7172C54.6939 57.7556 54.9565 57.5615 55.9346 57.3328Z" fill="var(--fill-0, #BABABA)"/>
<path id="Vector_88" d="M33.8862 5.61713C34.7065 5.49388 35.4725 6.05623 35.6004 6.87583C35.7291 7.69543 35.1708 8.46469 34.3521 8.59772C33.5263 8.7318 32.7491 8.16825 32.62 7.34172C32.4908 6.5152 33.0589 5.74135 33.8862 5.61713Z" fill="var(--fill-0, #BABABA)"/>
<path id="Vector_89" d="M59.8904 75.386C60.2982 75.3611 60.6135 75.3596 60.9739 75.5899C61.3072 75.8043 61.5397 76.1429 61.6209 76.5304C61.8286 77.5326 61.2214 78.0555 60.3155 78.2361C59.524 78.3196 58.8453 78.0954 58.6151 77.2527C58.5135 76.8735 58.5699 76.4694 58.7716 76.1331C59.0439 75.6704 59.4006 75.5131 59.8904 75.386Z" fill="var(--fill-0, #BABABA)"/>
<path id="Vector_90" d="M29.2164 51.632C30.0268 51.4906 30.8008 52.025 30.9559 52.8327C31.1109 53.6408 30.5897 54.4233 29.7846 54.5919C29.2517 54.7032 28.7 54.5189 28.3414 54.1096C27.9829 53.6995 27.8732 53.1284 28.0546 52.6145C28.2359 52.1014 28.6801 51.7257 29.2164 51.632Z" fill="var(--fill-0, #BABABA)"/>
<path id="Vector_91" d="M17.3938 50.4702C19.3575 50.5165 20.1487 52.6259 18.2908 53.5574C16.3601 53.6138 15.4989 51.5357 17.3938 50.4702Z" fill="var(--fill-0, #BABABA)"/>
<path id="Vector_92" d="M1.14327 77.1179C1.92623 77.0803 2.64463 77.0697 3.0723 77.8876C3.5184 78.7401 3.01798 79.5467 2.22118 79.9537C1.49586 79.9944 0.879106 80.0094 0.387407 79.3488C0.157621 79.0426 0.0725982 78.6513 0.15446 78.2774C0.285003 77.6747 0.657519 77.4226 1.14327 77.1179Z" fill="var(--fill-0, #BABABA)"/>
<path id="Vector_93" d="M19.288 48.0655C21.2673 48.0178 22.0943 50.3604 20.1976 51.0914C18.3457 51.1374 17.3079 49.1183 19.288 48.0655Z" fill="var(--fill-0, #BABABA)"/>
<path id="Vector_94" d="M64.6394 21.827C67.0433 21.4973 67.5572 23.7676 65.7733 24.6395C65.0577 24.7697 64.3587 24.6152 63.9607 23.9523C63.7568 23.6109 63.7026 23.201 63.8102 22.8186C63.9547 22.3093 64.206 22.078 64.6394 21.827Z" fill="var(--fill-0, #BABABA)"/>
<path id="Vector_95" d="M18.5172 42.4337C18.8493 42.4013 19.115 42.3928 19.432 42.5287C19.8051 42.6914 20.0945 43.001 20.2316 43.3843C20.5894 44.3556 20.0439 45.0821 19.1177 45.3639C17.9299 45.4469 17.6949 45.0296 17.229 44.0429C17.4468 43.0995 17.6118 42.7574 18.5172 42.4337Z" fill="var(--fill-0, #BABABA)"/>
<path id="Vector_96" d="M31.6421 8.40473C32.4606 8.2608 33.2408 8.80735 33.3852 9.62567C33.5297 10.4441 32.9836 11.2246 32.1653 11.3695C31.3464 11.5146 30.565 10.968 30.4205 10.1489C30.2759 9.32982 30.823 8.54882 31.6421 8.40473Z" fill="var(--fill-0, #BABABA)"/>
<path id="Vector_97" d="M55.7829 1.84218C56.3058 1.69989 56.8648 1.8494 57.2463 2.23365C57.6285 2.61791 57.7737 3.1777 57.6285 3.69942C57.4825 4.22107 57.068 4.62421 56.542 4.75505C55.7415 4.95422 54.9304 4.47215 54.722 3.67392C54.5143 2.87576 54.9876 2.05887 55.7829 1.84218Z" fill="var(--fill-0, #BABABA)"/>
<path id="Vector_98" d="M17.7256 33.0602C18.5347 32.9817 19.2598 33.5603 19.3629 34.3666C19.4659 35.173 18.9096 35.9153 18.1068 36.0428C17.5653 36.1288 17.0199 35.9133 16.6834 35.4805C16.3468 35.0476 16.2725 34.4659 16.4893 33.9624C16.7062 33.4588 17.1799 33.1131 17.7256 33.0602Z" fill="var(--fill-0, #BABABA)"/>
<path id="Vector_99" d="M58.8404 3.59834C59.6658 3.52732 60.3926 4.13699 60.4664 4.96178C60.5409 5.78658 59.9337 6.51589 59.109 6.59286C58.2806 6.67013 57.5463 6.0594 57.4725 5.23039C57.398 4.40139 58.0113 3.66975 58.8404 3.59834Z" fill="var(--fill-0, #BABABA)"/>
<path id="Vector_100" d="M46.9099 36.7282C47.6788 36.6641 48.3048 36.7252 48.6713 37.5389C48.8353 37.9023 48.8428 38.3168 48.6938 38.6863C48.5087 39.1478 48.195 39.3877 47.7541 39.5723C47.4471 39.5763 46.955 39.6098 46.6661 39.4909C45.9152 39.1816 45.469 38.2768 45.8655 37.5215C46.1251 37.0277 46.3779 36.8816 46.9099 36.7282Z" fill="var(--fill-0, #BABABA)"/>
<path id="Vector_101" d="M60.6104 78.4027C60.9656 78.3763 61.2425 78.365 61.575 78.52C61.9354 78.6931 62.2116 79.0038 62.341 79.3823C62.6404 80.2596 62.0709 80.9879 61.2289 81.2159C60.867 81.3009 60.6338 81.3574 60.2718 81.231C59.9054 81.1015 59.609 80.8247 59.4562 80.4665C59.2952 80.0956 59.2945 79.6735 59.4555 79.3018C59.6917 78.7616 60.092 78.59 60.6104 78.4027Z" fill="var(--fill-0, #BABABA)"/>
<path id="Vector_102" d="M31.9118 36.7934C34.1418 36.7852 34.132 39.391 32.3251 39.8524C30.4719 39.8967 29.9186 37.5919 31.9118 36.7934Z" fill="var(--fill-0, #BABABA)"/>
<path id="Vector_103" d="M58.4882 25.9375C59.3061 25.8436 60.0472 26.4258 60.1503 27.243C60.2526 28.0601 59.6786 28.8076 58.8622 28.9189C58.3265 28.992 57.793 28.7717 57.465 28.342C57.1369 27.9123 57.0647 27.3396 57.2769 26.8421C57.4883 26.3446 57.951 25.9992 58.4882 25.9375Z" fill="var(--fill-0, #BABABA)"/>
<path id="Vector_104" d="M31.7625 27.4537C33.8925 27.3563 34.1784 29.5858 32.3786 30.4602C30.2273 30.4942 29.9148 28.4168 31.7625 27.4537Z" fill="var(--fill-0, #BABABA)"/>
<path id="Vector_105" d="M61.1483 5.998C61.6803 5.89711 62.225 6.0901 62.5749 6.50332C62.924 6.91647 63.0248 7.48582 62.8375 7.99362C62.6501 8.50142 62.204 8.86912 61.6697 8.9561C60.8579 9.08807 60.0919 8.54363 59.949 7.73426C59.806 6.9249 60.341 6.1512 61.1483 5.998Z" fill="var(--fill-0, #BABABA)"/>
<path id="Vector_106" d="M56.5915 63.2277C54.3734 62.859 54.8993 60.0262 56.9481 60.3219C57.3913 60.3828 57.7878 60.6281 58.0391 60.9976C58.6162 61.8297 58.1045 62.5829 57.3589 63.0584L56.5915 63.2277Z" fill="var(--fill-0, #BABABA)"/>
<path id="Vector_107" d="M10.8422 67.8584C12.8397 67.7064 13.6647 70.0975 11.7759 70.8778C10.6409 70.9086 10.1684 70.4226 9.7443 69.4384C9.97047 68.5844 10.062 68.3474 10.8422 67.8584Z" fill="var(--fill-0, #BABABA)"/>
<path id="Vector_108" d="M62.9907 87.436C63.3217 87.3969 63.6453 87.4293 63.938 87.5986C64.2502 87.7754 64.4759 88.0741 64.5617 88.4232C64.819 89.4359 64.1532 90.062 63.2292 90.2659C62.8816 90.2914 62.552 90.2741 62.2375 90.1048C61.5039 89.7076 61.3158 88.7543 61.7635 88.0703C62.0855 87.5775 62.458 87.5346 62.9907 87.436Z" fill="var(--fill-0, #BABABA)"/>
<path id="Vector_109" d="M46.0678 33.7429C44.6149 33.6838 44.0957 32.3765 44.7563 31.4621C45.7841 30.0395 48.9856 31.5583 46.9579 33.4173L47.0136 33.6137L46.2175 33.8978L46.0678 33.7429Z" fill="var(--fill-0, #BABABA)"/>
<path id="Vector_110" d="M36.6279 50.9651C37.1561 50.8537 37.7038 51.035 38.0612 51.4397C38.4186 51.8444 38.5307 52.4103 38.3554 52.9204C38.1793 53.4313 37.7422 53.8083 37.2117 53.9068C36.4044 54.0573 35.6264 53.5299 35.4662 52.7241C35.3066 51.9188 35.8243 51.1345 36.6279 50.9651Z" fill="var(--fill-0, #BABABA)"/>
<path id="Vector_111" d="M15.6028 53.0284C16.3042 53.0465 16.9673 53.3249 17.3096 53.972C17.4968 54.3188 17.5281 54.7281 17.3955 55.0991C17.2017 55.6476 16.8284 55.8891 16.327 56.1103C15.1074 56.0298 14.7106 55.5957 14.4145 54.4535C14.7195 53.6567 14.8157 53.4001 15.6028 53.0284Z" fill="var(--fill-0, #BABABA)"/>
<path id="Vector_112" d="M12.7497 65.2991C14.5412 65.2058 15.5569 67.4306 13.5398 68.3839C11.7395 68.402 10.7984 66.2787 12.7497 65.2991Z" fill="var(--fill-0, #BABABA)"/>
<path id="Vector_113" d="M63.2715 8.76573C64.0969 8.68854 64.8283 9.29535 64.9042 10.1205C64.981 10.9457 64.373 11.6763 63.5477 11.7517C62.7238 11.827 61.9947 11.2205 61.9187 10.3966C61.8419 9.57269 62.4476 8.84278 63.2715 8.76573Z" fill="var(--fill-0, #BABABA)"/>
<path id="Vector_114" d="M2.79724 71.2425C4.74117 71.2026 5.5607 73.3793 3.62595 74.2514C2.96812 74.2521 2.34505 74.1205 1.93386 73.5509C1.71588 73.2537 1.63688 72.8775 1.71709 72.5178C1.84846 71.9204 2.30645 71.5502 2.79724 71.2425Z" fill="var(--fill-0, #BABABA)"/>
<path id="Vector_115" d="M46.7427 52.1374C47.4372 52.0946 48.0752 52.2489 48.4244 52.9214C48.5952 53.2487 48.623 53.6325 48.5011 53.9808C48.3017 54.5617 47.9067 54.7829 47.3868 55.0312C46.681 55.1411 46.0543 55.0003 45.7006 54.3202C45.5118 53.9537 45.4862 53.5249 45.6292 53.1381C45.8368 52.5731 46.2236 52.3617 46.7427 52.1374Z" fill="var(--fill-0, #BABABA)"/>
<path id="Vector_116" d="M55.2283 54.326C55.5421 54.3132 55.8874 54.3433 56.1598 54.5088C56.5014 54.715 56.7437 55.0521 56.8294 55.4418C56.916 55.8233 56.8467 56.2236 56.6376 56.5539C56.3396 57.0234 56.0394 57.0776 55.536 57.1957C54.7648 57.3078 54.1117 57.0046 53.8905 56.2115C53.7746 55.8067 53.8341 55.3719 54.0538 55.0122C54.3435 54.5322 54.7167 54.4456 55.2283 54.326Z" fill="var(--fill-0, #BABABA)"/>
<path id="Vector_117" d="M60.1623 53.7989C60.4197 53.7898 60.7086 53.765 60.9501 53.8583C61.3128 54.002 61.5972 54.2917 61.7334 54.6574C61.8771 55.0426 61.8553 55.47 61.6717 55.8379C61.4294 56.3285 61.1254 56.4436 60.6386 56.5911C59.7598 56.643 58.957 56.4519 58.7583 55.4549C58.6854 55.0953 58.7621 54.7221 58.9705 54.4204C59.2835 53.9614 59.6522 53.8959 60.1623 53.7989Z" fill="var(--fill-0, #BABABA)"/>
<path id="Vector_118" d="M51.093 55.9792C51.7822 55.9815 52.3984 56.2418 52.6287 56.9385C52.7581 57.3328 52.7175 57.7624 52.5166 58.1251C52.2382 58.6307 51.8921 58.718 51.3707 58.8519C50.1585 58.8865 49.227 58.1507 49.7929 56.8415C50.0238 56.3057 50.5693 56.141 51.093 55.9792Z" fill="var(--fill-0, #BABABA)"/>
<path id="Vector_119" d="M16.198 60.1136C16.9001 60.0759 17.4817 60.2031 17.8972 60.8344C18.1259 61.1752 18.1978 61.5973 18.0948 61.9946C17.94 62.5852 17.5732 62.826 17.0782 63.1014C16.3974 63.1443 15.7133 62.9298 15.3438 62.3151C15.1539 62.0021 15.0985 61.6251 15.1903 61.27C15.3372 60.6899 15.7164 60.4077 16.198 60.1136Z" fill="var(--fill-0, #BABABA)"/>
<path id="Vector_120" d="M39.9246 23.6844C41.7665 23.8436 42.5279 25.8397 40.5957 26.7063C38.3739 26.8072 38.0473 24.6416 39.9246 23.6844Z" fill="var(--fill-0, #BABABA)"/>
<path id="Vector_121" d="M51.3993 59.0601C53.5038 58.857 54.0523 61.1985 52.1758 61.8711C51.8056 61.9569 51.5558 61.9998 51.1908 61.8531C50.8177 61.7026 50.5227 61.4054 50.373 61.0322C50.2248 60.671 50.2285 60.2655 50.3835 59.9073C50.5882 59.4318 50.9486 59.2467 51.3993 59.0601Z" fill="var(--fill-0, #BABABA)"/>
<path id="Vector_122" d="M13.6262 55.5902C15.5669 55.5699 16.4701 57.6556 14.6379 58.6457C13.4243 58.818 12.8793 58.0401 12.6164 56.9957C12.8468 56.3103 13.0673 56.0304 13.6262 55.5902Z" fill="var(--fill-0, #BABABA)"/>
<path id="Vector_123" d="M20.1825 45.186C20.9603 44.9422 21.7895 45.3695 22.0423 46.1445C22.2951 46.9195 21.8773 47.7536 21.1053 48.0153C20.598 48.1873 20.0373 48.0733 19.6374 47.7167C19.2374 47.3603 19.06 46.8163 19.1728 46.2926C19.2857 45.7689 19.6713 45.3462 20.1825 45.186Z" fill="var(--fill-0, #BABABA)"/>
<path id="Vector_124" d="M1.17082 73.9581C1.53762 73.9265 1.79156 73.9272 2.13398 74.0897C2.53968 74.2831 2.84425 74.639 2.97156 75.0701C3.24092 75.9963 2.7265 76.666 1.83505 76.8849C-0.103384 76.7984 -0.784616 74.6465 1.17082 73.9581Z" fill="var(--fill-0, #BABABA)"/>
<path id="Vector_125" d="M12.0807 58.2294C12.792 58.2911 13.3914 58.4559 13.7612 59.1323C13.9499 59.4702 13.992 59.8712 13.8775 60.2406C13.7113 60.7651 13.3596 61.0306 12.8907 61.2594C12.63 61.2654 12.3262 61.2511 12.0807 61.1608C11.6437 61.0006 11.2888 60.6725 11.095 60.2497C10.6779 59.3167 11.2212 58.5868 12.0807 58.2294Z" fill="var(--fill-0, #BABABA)"/>
<path id="Vector_126" d="M10.3547 60.8582C11.0687 60.8492 11.8239 61.2472 12.0984 61.9274C12.2434 62.2848 12.232 62.6874 12.067 63.0365C11.8521 63.4819 11.5202 63.7197 11.0715 63.8859C9.08389 63.7084 8.35826 61.6573 10.3547 60.8582Z" fill="var(--fill-0, #BABABA)"/>
<path id="Vector_127" d="M17.0797 36.3447C17.4084 36.2955 17.6946 36.2727 18.0128 36.3935C18.391 36.5399 18.6957 36.8303 18.8602 37.2009C19.2398 38.0728 18.803 38.8644 17.9408 39.1787C17.1781 39.2776 16.4367 39.1903 16.1071 38.3847C15.9582 38.0161 15.9603 37.6037 16.1131 37.2367C16.3303 36.7249 16.5975 36.5489 17.0797 36.3447Z" fill="var(--fill-0, #BABABA)"/>
<path id="Vector_128" d="M63.8037 90.3494C64.6163 90.2568 65.3514 90.8384 65.4485 91.6503C65.5463 92.4629 64.9692 93.201 64.1574 93.3026C63.3387 93.4056 62.5939 92.8225 62.4953 92.0039C62.3975 91.1853 62.9844 90.4427 63.8037 90.3494Z" fill="var(--fill-0, #BABABA)"/>
<path id="Vector_129" d="M30.8532 24.5303C32.6705 24.6691 32.7769 26.9852 30.7345 27.5657C30.4625 27.529 30.2006 27.438 29.9646 27.2978C28.5962 26.4727 29.2368 24.8505 30.8532 24.5303Z" fill="var(--fill-0, #BABABA)"/>
<path id="Vector_130" d="M17.8362 39.4311C18.6545 39.4438 19.3086 40.1156 19.2992 40.934C19.2898 41.7523 18.6206 42.409 17.8022 42.4029C16.9793 42.3968 16.318 41.723 16.3274 40.9001C16.3368 40.0771 17.0133 39.4185 17.8362 39.4311Z" fill="var(--fill-0, #BABABA)"/>
<path id="Vector_131" d="M56.8709 63.396C57.305 63.2876 57.4021 63.2936 57.8528 63.3042C58.4472 63.636 59.1176 64.356 58.9039 65.0498C58.3351 66.8962 55.2712 66.2995 55.9386 64.2093C56.0756 63.7804 56.4616 63.5532 56.8709 63.396Z" fill="var(--fill-0, #BABABA)"/>
<path id="Vector_132" d="M5.72844 75.7387C6.16664 75.6296 6.6308 75.7259 6.9894 76.0005C7.348 76.2751 7.56198 76.698 7.57071 77.1494C7.58358 77.8161 7.15004 78.409 6.51109 78.5993C5.99562 78.7528 5.43741 78.6159 5.05225 78.2404C4.66717 77.865 4.51548 77.3105 4.65581 76.7905C4.79621 76.2714 5.20664 75.8688 5.72844 75.7387Z" fill="var(--fill-0, #BABABA)"/>
<path id="Vector_133" d="M29.8164 34.4627C32.1159 34.31 32.3559 36.0544 30.6743 37.3185C29.4801 37.2988 28.3776 36.6743 28.8678 35.1897C28.988 34.8257 29.4622 34.5872 29.8164 34.4627Z" fill="var(--fill-0, #BABABA)"/>
<path id="Vector_134" d="M45.845 42.8082C46.5967 42.7689 47.3205 42.9586 47.6335 43.7231C47.7749 44.0738 47.7629 44.4679 47.6004 44.8093C47.3867 45.257 47.0805 45.5001 46.632 45.6739C44.5012 45.6116 43.8993 43.5872 45.845 42.8082Z" fill="var(--fill-0, #BABABA)"/>
<path id="Vector_135" d="M47.0136 33.6138C48.7427 33.8556 48.9202 35.5896 47.5659 36.4628C46.8669 36.504 46.35 36.5977 45.794 36.0748C45.0047 35.3317 45.4674 34.4223 46.2176 33.8979L47.0136 33.6138Z" fill="var(--fill-0, #BABABA)"/>
<path id="Vector_136" d="M7.15818 73.0551C9.26801 72.9904 9.96723 75.0309 8.17469 75.9255C7.44681 76.0188 7.07136 75.7608 6.48072 75.3974C5.91919 74.3658 6.09112 73.5961 7.15818 73.0551Z" fill="var(--fill-0, #BABABA)"/>
<path id="Vector_137" d="M30.008 31.3745C32.0924 31.287 32.0886 34.0791 30.4994 34.2272C29.7162 34.2565 29.0412 34.1743 28.7404 33.3032C28.6101 32.9311 28.6447 32.5211 28.8355 32.1761C29.1065 31.6916 29.5017 31.5075 30.008 31.3745Z" fill="var(--fill-0, #BABABA)"/>
<path id="Vector_138" d="M46.6058 39.8249C47.3733 39.5819 48.1926 40.0022 48.4432 40.767C48.6937 41.5317 48.2807 42.3554 47.5185 42.6132C46.7458 42.8745 45.9083 42.4552 45.6548 41.68C45.4005 40.9047 45.8278 40.0712 46.6058 39.8249Z" fill="var(--fill-0, #BABABA)"/>
<path id="Vector_139" d="M44.5246 28.2119C45.575 28.2773 45.8413 28.6728 46.192 29.5889C45.8406 30.5585 45.6096 30.7288 44.7376 31.1603C42.8994 31.3318 42.4856 28.7325 44.5246 28.2119Z" fill="var(--fill-0, #BABABA)"/>
<path id="Vector_140" d="M1.09151 82.4882C0.241365 80.9413 1.01687 80.31 2.55021 80.1392C4.08753 80.7396 4.2493 82.4747 2.72627 82.8765C2.42425 82.8599 2.40319 82.8584 2.10591 82.9058C1.70638 82.8682 1.42859 82.6854 1.09151 82.4882Z" fill="var(--fill-0, #BABABA)"/>
<path id="Vector_141" d="M20.4442 61.4128C20.9224 61.3029 21.4227 61.4602 21.7527 61.8228C22.0827 62.1862 22.1911 62.6994 22.0361 63.1651C21.8811 63.6301 21.4869 63.9762 21.0051 64.0688C20.2781 64.2087 19.5729 63.7407 19.42 63.0162C19.267 62.2923 19.7226 61.579 20.4442 61.4128Z" fill="var(--fill-0, #BABABA)"/>
<path id="Vector_142" d="M61.2347 64.2399C62.8358 64.2986 62.5928 65.516 61.8727 66.467C60.8585 67.0697 60.8231 65.2699 60.8442 64.6642C60.8517 64.4453 61.0737 64.3482 61.2347 64.2399Z" fill="var(--fill-0, #BABABA)"/>
<path id="Vector_143" d="M66.3246 84.096C67.3486 84.0764 67.3802 85.8596 66.527 86.5142L66.3344 86.4999C65.8739 86.2434 65.7317 84.9891 65.8491 84.5286C65.9085 84.2946 66.1343 84.2028 66.3246 84.096Z" fill="var(--fill-0, #BABABA)"/>
<path id="Vector_144" d="M50.9296 32.1272C51.5217 32.1025 52.6045 32.1299 52.8287 32.784C52.7858 33.0282 52.6225 33.1367 52.4382 33.3166C51.3803 33.8446 50.3194 32.8377 50.9296 32.1272Z" fill="var(--fill-0, #BABABA)"/>
</g>
</svg>
