<svg preserveAspectRatio="none" width="100%" height="100%" overflow="visible" style="display: block;" viewBox="0 0 98.7529 110" fill="none" xmlns="http://www.w3.org/2000/svg">
<g id="Group 48095691" opacity="0.48">
<path id="Vector" d="M1.1091 100.78C2.1891 100.744 3.43242 101.489 2.81846 102.736C2.60146 103.176 2.08117 103.254 1.63465 103.373C2.63007 103.6 3.26833 104.173 2.91921 105.35C2.80956 105.72 2.49488 105.914 2.1469 106.058C0.858803 106.085 -0.567645 106.029 0.231258 103.865C0.345974 103.554 1.41325 103.473 1.79787 103.416C0.219871 102.93 -0.338593 102.034 1.1091 100.78Z" fill="var(--fill-0, #BABABA)"/>
<path id="Vector_2" d="M87.542 94.2641C85.4342 92.428 88.2491 90.7843 89.7263 91.9621C90.3568 92.4654 90.2391 93.979 89.2431 94.3712C89.2958 94.4459 89.3733 94.5358 89.3914 94.6124C89.0556 95.9968 87.166 96.3939 87.2148 94.4363L87.542 94.2641Z" fill="var(--fill-0, #BABABA)"/>
<path id="Vector_3" d="M87.542 94.264C88.1352 94.2765 88.6586 94.265 89.2432 94.3712C89.2958 94.4458 89.3733 94.5358 89.3914 94.6123C89.0556 95.9967 87.166 96.3938 87.2148 94.4363L87.542 94.264Z" fill="var(--fill-0, #BABABA)"/>
<path id="Vector_4" d="M77.3103 18.4103C78.513 18.4759 79.3272 19.6334 78.8115 20.782C78.5015 21.473 77.7897 21.6043 77.1161 21.8172C76.4885 21.9012 75.9766 21.573 75.6724 21.0314C75.46 20.6507 75.4188 20.1978 75.5595 19.7851C75.8446 18.9575 76.5708 18.7379 77.3103 18.4103Z" fill="var(--fill-0, #BABABA)"/>
<path id="Vector_5" d="M68.1541 19.3772C69.4763 19.2715 70.414 20.3736 69.9155 21.6514C69.6581 22.3106 69.0879 22.4751 68.4765 22.7114C67.4126 22.8718 66.3812 22.0024 66.5094 20.8805C66.5764 20.2942 67.6575 19.7045 68.1541 19.3772Z" fill="var(--fill-0, #BABABA)"/>
<path id="Vector_6" d="M69.9126 29.3411C72.7379 29.1654 72.3323 32.1827 70.965 32.4796C70.5249 32.4972 69.8265 32.5738 69.4486 32.3746C67.9378 31.5787 68.3636 29.7697 69.9126 29.3411Z" fill="var(--fill-0, #BABABA)"/>
<path id="Vector_7" d="M78.1006 28.5752C79.5798 28.4948 80.9805 28.2738 80.6227 30.5594C80.5461 31.0495 80.3376 31.2933 79.9147 31.5474C79.0689 31.6681 78.114 31.8132 77.5323 31.0317C76.941 30.239 77.3266 29.0876 78.1006 28.5752Z" fill="var(--fill-0, #BABABA)"/>
<path id="Vector_8" d="M78.9244 32.0337C79.8027 31.9834 80.5012 32.2027 80.7145 33.1599C80.8265 33.652 80.7193 34.1682 80.4208 34.5751C80.0812 35.0315 79.7425 35.0546 79.2095 35.1191C78.2222 35.0915 77.428 35.0008 77.2826 33.7743C77.2271 33.2893 77.384 32.8041 77.7122 32.4427C78.0834 32.036 78.3791 32.0745 78.9244 32.0337Z" fill="var(--fill-0, #BABABA)"/>
<path id="Vector_9" d="M19.0462 35.4806C19.329 35.4596 20.1113 35.3935 20.3477 35.4707C21.7755 35.9369 21.8521 37.9189 20.4957 38.5458C19.4906 38.6186 18.5783 38.661 18.1288 37.5673C17.7837 36.7277 18.1748 35.7722 19.0462 35.4806Z" fill="var(--fill-0, #BABABA)"/>
<path id="Vector_10" d="M87.2454 46.4518C88.0128 46.4269 88.7858 47.0812 88.959 47.7886C89.3063 49.2126 88.4672 49.5999 87.3899 49.8835C86.3212 49.9961 85.4218 49.071 85.7337 48.0033C85.9873 47.1364 86.5154 46.8519 87.2454 46.4518Z" fill="var(--fill-0, #BABABA)"/>
<path id="Vector_11" d="M69.4734 32.7869C70.3565 32.7383 71.1411 32.6912 71.7754 33.4335C72.516 34.3004 72.0041 35.2319 71.2014 35.7842C68.8841 36.3824 67.6412 34.2554 69.4734 32.7869Z" fill="var(--fill-0, #BABABA)"/>
<path id="Vector_12" d="M78.5264 35.4676C79.4191 35.4029 80.2046 35.4688 80.6246 36.3616C81.125 37.4229 80.5414 38.1719 79.6171 38.5789C79.2784 38.6001 78.5513 38.6363 78.2709 38.4778C76.9334 37.7204 76.9487 35.9104 78.5264 35.4676Z" fill="var(--fill-0, #BABABA)"/>
<path id="Vector_13" d="M19.1768 32.0372C19.6451 31.997 20.1577 31.9415 20.6142 32.1042C21.7687 32.5159 21.6877 34.781 20.5433 35.0604C19.9446 35.078 19.4265 35.1597 18.8675 34.9028C17.6168 34.3278 17.8368 32.346 19.1768 32.0372Z" fill="var(--fill-0, #BABABA)"/>
<path id="Vector_14" d="M10.5862 53.0898C12.1229 53.254 12.7683 54.4874 11.7685 55.825C11.4609 56.2366 10.9908 56.2133 10.5001 56.2111C8.37159 56.2281 7.96066 53.4871 10.5862 53.0898Z" fill="var(--fill-0, #BABABA)"/>
<path id="Vector_15" d="M66.2836 16.5897C66.9389 16.5564 67.7675 16.8367 68.0354 17.446C68.6229 18.7779 67.5637 19.4803 66.6137 19.9295C66.0434 19.9668 65.2799 19.7539 64.9919 19.2105C64.3136 17.9329 65.3134 17.1914 66.2836 16.5897Z" fill="var(--fill-0, #BABABA)"/>
<path id="Vector_16" d="M9.88859 63.2026C10.259 63.1834 10.9575 63.1318 11.281 63.2887C12.6357 63.9479 12.5591 65.7409 11.0902 66.2346C10.8327 66.2441 10.159 66.2872 9.93577 66.2125C9.10491 65.937 8.41067 64.9841 8.84907 64.1134C9.10443 63.6063 9.37624 63.4312 9.88859 63.2026Z" fill="var(--fill-0, #BABABA)"/>
<path id="Vector_17" d="M18.953 28.5753C19.8331 28.5089 20.4194 28.4105 21.1553 29.0404C21.991 29.7558 21.5759 30.9489 20.849 31.5815C20.6277 31.5991 20.406 31.6123 20.1841 31.6212C18.1788 31.6911 17.4592 30.005 18.953 28.5753Z" fill="var(--fill-0, #BABABA)"/>
<path id="Vector_18" d="M28.0103 36.2205C28.432 36.2085 28.9845 36.1396 29.3632 36.3433C30.5183 36.9645 30.5472 38.8941 29.1575 39.2626C28.7451 39.2695 28.0413 39.3478 27.6979 39.1576C26.2982 38.3823 26.5298 36.7208 28.0103 36.2205Z" fill="var(--fill-0, #BABABA)"/>
<path id="Vector_19" d="M26.31 9.87193C28.0661 10.2619 29.33 12.6359 26.8539 13.5078C25.7069 13.3528 25.1907 12.7049 24.7889 11.6794C25.2086 10.8706 25.5391 10.3737 26.31 9.87193Z" fill="var(--fill-0, #BABABA)"/>
<path id="Vector_20" d="M78.4786 25.126C78.822 25.1042 79.4286 25.0255 79.6956 25.2235C80.7805 26.0266 80.6485 27.8876 79.178 28.1684C78.69 28.2354 78.2078 28.3483 77.7677 28.0905C77.4242 27.8851 77.1783 27.5499 77.0855 27.1608C76.8186 26.0604 77.4548 25.3623 78.4786 25.126Z" fill="var(--fill-0, #BABABA)"/>
<path id="Vector_21" d="M31.8128 16.8841L31.8937 16.8828C33.9894 16.834 34.9179 19.0149 32.8314 20.3605C32.3433 20.3508 31.4981 19.9891 31.181 19.6423C30.1538 18.5186 31.0097 17.5475 31.8128 16.8841Z" fill="var(--fill-0, #BABABA)"/>
<path id="Vector_22" d="M87.9046 63.2064C88.2443 63.1872 88.7696 63.1528 89.0815 63.2676C90.4028 63.7536 90.6774 65.6853 89.2011 66.1743C88.2414 66.2891 87.2493 66.3206 86.8264 65.2854C86.4159 64.2798 87.0014 63.5393 87.9046 63.2064Z" fill="var(--fill-0, #BABABA)"/>
<path id="Vector_23" d="M69.772 36.2211C70.279 36.198 70.7354 36.1557 71.209 36.3805C72.3581 36.9264 72.3237 38.8192 71.0607 39.1864C70.3613 39.2185 69.0793 39.396 68.7635 38.6429C68.3119 37.5648 68.8075 36.6558 69.772 36.2211Z" fill="var(--fill-0, #BABABA)"/>
<path id="Vector_24" d="M69.4744 22.6352C70.3211 22.548 70.9268 22.8572 71.1526 23.7285C71.2655 24.1656 71.1966 24.6296 70.9631 25.0156C70.6656 25.514 70.1633 25.5979 69.6409 25.7172C68.8889 25.8239 68.2708 25.7323 67.9149 24.9518C67.7398 24.5573 67.7407 24.1068 67.9177 23.7131C68.2555 22.9617 68.7339 22.8954 69.4744 22.6352Z" fill="var(--fill-0, #BABABA)"/>
<path id="Vector_25" d="M78.2757 38.9128C78.9751 38.8723 79.2268 38.7901 79.9022 39.0504C81.0188 39.4808 80.9729 41.552 79.9424 41.8542C78.5848 41.8949 76.9793 42.1901 77.4481 40.0765C77.5773 39.4928 77.7591 39.2165 78.2757 38.9128Z" fill="var(--fill-0, #BABABA)"/>
<path id="Vector_26" d="M19.974 25.1603C20.1822 25.1728 20.8678 25.2039 21.0138 25.2891C22.4138 26.1065 22.0269 27.8197 20.5915 28.2735C20.0284 28.192 19.4744 28.1808 19.0444 27.8064C18.2961 27.1549 18.2163 26.1889 18.9346 25.4883C19.319 25.1134 19.453 25.1811 19.974 25.1603Z" fill="var(--fill-0, #BABABA)"/>
<path id="Vector_27" d="M87.5373 66.5484C88.1984 66.5158 89.4613 66.38 89.8536 66.9885C90.3645 67.7817 90.1464 68.8025 89.4613 69.3861C89.1064 69.4474 88.4041 69.5507 88.0664 69.4923C86.4542 69.213 86.282 67.398 87.5373 66.5484Z" fill="var(--fill-0, #BABABA)"/>
<path id="Vector_28" d="M87.7688 53.2514C88.6548 53.2286 89.5264 53.1498 90.0162 54.0689C90.4621 54.9055 89.9349 55.8469 89.1552 56.2384C88.0884 56.3598 86.7058 56.4026 86.768 54.7002C86.79 54.0918 87.2875 53.6021 87.7688 53.2514Z" fill="var(--fill-0, #BABABA)"/>
<path id="Vector_29" d="M78.1906 21.7733C79.089 21.8428 79.7071 22.0243 79.9032 22.9995C80.1434 24.1989 79.4449 24.6297 78.4786 24.839C77.0913 25.0698 76.1871 24.2793 76.6971 22.8162C76.9276 22.1526 77.5696 21.9883 78.1906 21.7733Z" fill="var(--fill-0, #BABABA)"/>
<path id="Vector_30" d="M69.8447 25.9989C70.8139 25.9259 71.5841 26.1666 71.7486 27.2653C71.8175 27.7154 71.6922 28.1736 71.4032 28.5253C71.0483 28.9525 70.6885 28.9545 70.1661 28.9969C68.0459 29.1049 67.5063 26.4807 69.8447 25.9989Z" fill="var(--fill-0, #BABABA)"/>
<path id="Vector_31" d="M72.2213 9.90472C73.2804 9.82876 73.8392 10.8091 74.2745 11.6367C73.7904 12.5179 73.4364 12.7569 72.6107 13.2547C70.877 13.732 69.7729 11.2968 72.2213 9.90472Z" fill="var(--fill-0, #BABABA)"/>
<path id="Vector_32" d="M28.7649 32.8144C30.1542 32.4604 31.1979 35.8502 28.5368 35.8629C27.0274 35.7709 26.2405 34.5507 27.2651 33.2506C27.6162 32.8051 28.2245 32.8381 28.7649 32.8144Z" fill="var(--fill-0, #BABABA)"/>
<path id="Vector_33" d="M34.2529 14.3911C35.3957 14.4493 36.6014 15.796 36.0657 16.9335C35.8441 17.406 35.4414 17.7694 34.9486 17.9415C33.8948 17.8771 32.6608 16.7272 33.027 15.6001C33.2496 14.9152 33.669 14.7196 34.2529 14.3911Z" fill="var(--fill-0, #BABABA)"/>
<path id="Vector_34" d="M10.0195 59.8739C10.3456 59.8539 10.9928 59.7773 11.2788 59.9084C12.5782 60.5016 12.5003 62.3214 11.1397 62.8141C10.7381 62.8304 10.0812 62.882 9.7258 62.6955C8.36192 61.9779 8.38163 60.1906 10.0195 59.8739Z" fill="var(--fill-0, #BABABA)"/>
<path id="Vector_35" d="M11.2591 46.3309C13.382 46.5418 14.1154 48.8934 12.0563 49.833C9.59471 49.1296 9.22158 48.1034 11.2591 46.3309Z" fill="var(--fill-0, #BABABA)"/>
<path id="Vector_36" d="M75.7967 15.4348C77.1276 15.2909 77.4539 16.2931 77.7428 17.369C77.1726 18.0665 76.9583 18.2043 76.1699 18.5652C75.0811 18.8659 74.0573 18.2348 74.2286 17.0212C74.3424 16.2126 75.1509 15.8212 75.7967 15.4348Z" fill="var(--fill-0, #BABABA)"/>
<path id="Vector_37" d="M30.0242 19.5449C31.9894 19.8913 33.3963 21.6902 31.2587 22.9297C28.866 22.9041 28.1718 21.1324 30.0242 19.5449Z" fill="var(--fill-0, #BABABA)"/>
<path id="Vector_38" d="M28.5253 22.8187C30.6224 22.6216 32.1217 24.1881 30.361 25.9654C28.1719 26.1184 26.8877 24.7014 28.5253 22.8187Z" fill="var(--fill-0, #BABABA)"/>
<path id="Vector_39" d="M55.0262 9.80927C55.1334 9.79683 55.2425 9.78793 55.3506 9.78267C57.5502 9.69149 57.8898 11.6657 56.3848 13.0081C55.4721 13.2515 55.1305 13.0692 54.3412 12.641C54.1173 11.4761 54.0829 10.6489 55.0262 9.80927Z" fill="var(--fill-0, #BABABA)"/>
<path id="Vector_40" d="M27.7923 29.4344C28.0339 29.4198 28.2422 29.4161 28.484 29.4274C30.2602 29.5103 30.8518 31.3634 29.4196 32.4725C29.1558 32.4796 28.4602 32.5234 28.2347 32.4608C26.4127 31.954 26.3764 30.3853 27.7923 29.4344Z" fill="var(--fill-0, #BABABA)"/>
<path id="Vector_41" d="M18.9506 38.9001C20.8585 38.828 21.2482 38.9987 21.3806 40.9146L21.326 41.0276C21.1166 41.4557 21.0534 41.7032 20.6281 41.8479C19.9589 41.8611 19.3405 41.8438 18.6714 41.8228C17.8858 40.7158 17.7644 39.7743 18.9506 38.9001Z" fill="var(--fill-0, #BABABA)"/>
<path id="Vector_42" d="M9.88114 66.5694C10.8111 66.4986 11.7662 66.4536 12.165 67.5204C12.2953 67.862 12.2804 68.2418 12.124 68.5719C11.8994 69.0522 11.5963 69.2761 11.1199 69.4454C8.55563 69.7153 7.89651 67.2879 9.88114 66.5694Z" fill="var(--fill-0, #BABABA)"/>
<path id="Vector_43" d="M63.8448 14.2153C64.4466 14.1901 65.2665 14.3265 65.6129 14.8398C66.4443 16.0712 65.255 16.9912 64.4523 17.5438C62.9263 17.9545 61.6384 15.661 63.8448 14.2153Z" fill="var(--fill-0, #BABABA)"/>
<path id="Vector_44" d="M19.9318 21.7604C22.3269 21.6655 23.4034 23.7224 21.3524 24.9115C20.6717 24.8765 19.8645 24.8004 19.3728 24.2635C18.6268 23.4491 19.1918 22.3803 19.9318 21.7604Z" fill="var(--fill-0, #BABABA)"/>
<path id="Vector_45" d="M10.259 49.7141C12.6053 49.9602 12.9799 52.1614 11.2548 52.7748C10.6681 52.7822 10.0332 52.8626 9.53308 52.5234C8.32956 51.707 8.90056 49.9992 10.259 49.7141Z" fill="var(--fill-0, #BABABA)"/>
<path id="Vector_46" d="M84.5483 43.9198C85.0659 44.0645 85.9643 44.408 86.3327 44.7723C87.3478 45.7758 86.1978 46.657 85.5223 47.2872C83.3007 47.8915 82.7506 45.3906 84.5483 43.9198Z" fill="var(--fill-0, #BABABA)"/>
<path id="Vector_47" d="M44.6249 70.6644C45.598 70.6175 45.9251 70.8471 46.6938 71.3925C46.9106 72.5913 46.929 73.3634 45.6689 73.8457C44.917 73.7471 44.0999 73.5931 43.6538 72.9128C43.462 72.62 43.4061 72.2584 43.5008 71.9206C43.6743 71.3179 44.118 70.9696 44.6249 70.6644Z" fill="var(--fill-0, #BABABA)"/>
<path id="Vector_48" d="M51.7923 9.24258C51.8612 9.23761 51.9301 9.23369 52 9.23082C52.6305 9.20537 53.2476 9.2377 53.7279 9.70097C54.4885 10.4358 53.9862 11.8028 53.3299 12.4384C50.7887 12.8768 50.361 10.746 51.7923 9.24258Z" fill="var(--fill-0, #BABABA)"/>
<path id="Vector_49" d="M58.4974 10.7547C59.7517 10.9809 61.0185 11.4628 60.2043 13.0811C60.0014 13.4836 59.6981 13.8745 59.3422 14.1535C57.1177 14.5237 56.5226 11.7787 58.4974 10.7547Z" fill="var(--fill-0, #BABABA)"/>
<path id="Vector_50" d="M27.7886 26.0736C28.7005 26.0572 29.5797 26.0847 30.2022 26.8371C30.7653 27.5178 30.385 28.5664 29.7395 29.0165C29.6681 29.0317 29.5964 29.0456 29.5246 29.0579C28.8775 29.1685 28.1821 29.1556 27.638 28.7466C27.3359 28.5226 27.1431 28.1809 27.1075 27.8065C27.0501 27.173 27.3894 26.5405 27.7886 26.0736Z" fill="var(--fill-0, #BABABA)"/>
<path id="Vector_51" d="M87.5449 69.8138C87.8425 69.7937 88.5227 69.7229 88.7878 69.7813C90.4392 70.1468 90.6764 71.7714 89.3159 72.6525C89.0145 72.6765 88.7122 72.6879 88.4108 72.686C86.6226 72.6707 86.0629 70.939 87.5449 69.8138Z" fill="var(--fill-0, #BABABA)"/>
<path id="Vector_52" d="M9.63346 56.6309C10.0757 56.5895 10.7038 56.4943 11.1367 56.5997C12.575 56.9501 12.5211 58.9277 11.2229 59.4396L11.1443 59.4472L11.013 59.4606C8.72587 59.6969 7.95328 57.5997 9.63346 56.6309Z" fill="var(--fill-0, #BABABA)"/>
<path id="Vector_53" d="M87.5449 59.9601C87.8281 59.9409 88.4979 59.8902 88.7495 59.9514C90.3923 60.3504 90.708 61.8181 89.3924 62.8017C88.5266 62.9337 87.6741 63.0112 87.057 62.2678C86.3844 61.4584 86.8398 60.5322 87.5449 59.9601Z" fill="var(--fill-0, #BABABA)"/>
<path id="Vector_54" d="M61.2634 12.1762C63.6534 12.1757 63.8543 14.2869 61.915 15.6979C61.1017 15.8726 60.3746 15.0122 59.9402 14.4436C60.2693 13.5175 60.5286 12.8557 61.2634 12.1762Z" fill="var(--fill-0, #BABABA)"/>
<path id="Vector_55" d="M88.6165 49.8138C88.781 49.8003 89.2144 49.7704 89.3187 49.8642C90.7108 51.1151 90.0861 52.7492 88.3419 52.9823C87.2732 52.7837 86.2848 52.1384 86.8971 50.8776C87.2483 50.1533 87.8941 50.0414 88.6165 49.8138Z" fill="var(--fill-0, #BABABA)"/>
<path id="Vector_56" d="M9.77401 69.81C10.6076 69.7507 11.5326 69.6033 12.0726 70.4357C12.2535 70.7113 12.3148 71.049 12.2426 71.3705C12.0996 71.9991 11.8056 72.3311 11.2824 72.6439C11.0231 72.6583 10.3031 72.7167 10.0829 72.6526C8.53815 72.2057 8.23562 70.5027 9.77401 69.81Z" fill="var(--fill-0, #BABABA)"/>
<path id="Vector_57" d="M74.1272 12.6844C74.773 12.6042 75.458 12.824 75.724 13.4195C76.3431 14.8111 75.3806 15.4244 74.4257 15.8718C73.3178 16.1272 72.3964 15.1891 72.6834 14.0876C72.892 13.2884 73.4651 13.0513 74.1272 12.6844Z" fill="var(--fill-0, #BABABA)"/>
<path id="Vector_58" d="M22.3551 15.3679C24.5128 15.644 25.7005 17.5314 23.4805 18.7647C23.0702 18.8288 22.2511 18.5675 21.9623 18.2823C20.8915 17.2247 21.5485 16.26 22.3551 15.3679Z" fill="var(--fill-0, #BABABA)"/>
<path id="Vector_59" d="M43.0002 10.0062C44.3766 9.9208 44.8789 11.8465 44.2009 12.801C43.8887 13.2405 43.416 13.2588 42.9307 13.3334C41.5524 13.3368 41.1303 11.8899 41.6778 10.8037C41.9553 10.2529 42.4483 10.1576 43.0002 10.0062Z" fill="var(--fill-0, #BABABA)"/>
<path id="Vector_60" d="M42.7508 0.829382C43.051 0.797618 43.7067 0.717151 43.9234 0.899607C45.0355 1.83581 44.9435 3.44193 43.4596 3.85689C43.1899 3.87688 42.6524 3.9207 42.4316 3.80206C41.5875 3.34855 41.1461 2.18637 41.6306 1.32145C41.8446 0.939217 42.3703 0.904967 42.7508 0.829382Z" fill="var(--fill-0, #BABABA)"/>
<path id="Vector_61" d="M45.6906 9.33098C45.8569 9.32055 46.4482 9.30495 46.5659 9.35949C48.037 10.0406 48.0695 11.9396 46.5797 12.5985C45.6848 12.6408 45.1912 12.5656 44.7693 11.6739C44.5457 11.2015 44.5221 10.6588 44.7039 10.1688C44.8986 9.65379 45.2173 9.54472 45.6906 9.33098Z" fill="var(--fill-0, #BABABA)"/>
<path id="Vector_62" d="M96.1721 106.449C96.6227 106.411 97.3633 106.437 97.8407 106.441C98.9649 107.524 98.786 108.431 97.6513 109.388C96.8122 109.436 96.1386 109.512 95.5454 108.787C95.3177 108.511 95.2172 108.152 95.2699 107.798C95.3607 107.183 95.7128 106.815 96.1721 106.449Z" fill="var(--fill-0, #BABABA)"/>
<path id="Vector_63" d="M31.1153 5.57796C32.2907 5.61709 34.0377 7.95266 31.2895 9.10088C30.7671 8.83002 29.9725 8.28064 29.6773 7.76743C28.9946 6.58123 30.3076 5.99731 31.1153 5.57796Z" fill="var(--fill-0, #BABABA)"/>
<path id="Vector_64" d="M9.60783 72.9559C10.2903 72.9396 11.5772 72.798 11.9691 73.3931C12.5154 74.2226 12.1413 75.2435 11.3894 75.7563C9.19499 76.0663 7.90019 74.6608 9.60783 72.9559Z" fill="var(--fill-0, #BABABA)"/>
<path id="Vector_65" d="M10.266 88.4718C12.866 88.2756 12.6918 91.166 11.0712 91.3287C10.6435 91.3402 9.98659 91.3995 9.62856 91.1555C8.25751 90.2217 8.68844 88.7416 10.266 88.4718Z" fill="var(--fill-0, #BABABA)"/>
<path id="Vector_66" d="M34.1257 3.85942C34.5933 4.0147 35.2569 4.80691 35.3662 5.2785C35.6839 6.65013 34.7609 7.09139 33.6244 7.32666C33.1567 7.09598 32.5328 6.55426 32.3311 6.0841C31.7534 4.73764 33.2685 4.16032 34.1257 3.85942Z" fill="var(--fill-0, #BABABA)"/>
<path id="Vector_67" d="M20.8408 18.5129C22.9297 18.3763 24.2838 20.2882 22.2882 21.7186C20.0998 21.8903 19.2464 19.8893 20.8408 18.5129Z" fill="var(--fill-0, #BABABA)"/>
<path id="Vector_68" d="M9.62677 82.3437C10.2494 82.3102 11.5482 82.1074 11.9145 82.668C12.419 83.4411 12.2562 84.5376 11.5429 85.0982L10.7054 85.1078C9.69623 85.1155 8.80414 84.9576 8.88317 83.6114C8.91723 83.0297 9.16991 82.6967 9.62677 82.3437Z" fill="var(--fill-0, #BABABA)"/>
<path id="Vector_69" d="M24.0454 12.6517C26.0202 12.7136 27.3079 15.0805 25.171 15.9564C23.9566 15.9255 23.4476 15.3669 22.7619 14.4519C23.1306 13.7552 23.4292 13.1627 24.0454 12.6517Z" fill="var(--fill-0, #BABABA)"/>
<path id="Vector_70" d="M36.8419 12.5685C38.5406 12.6627 39.7684 15.1916 37.3119 15.9704C36.7879 15.9227 35.8753 15.27 35.6801 14.7853C35.1797 13.5433 35.8145 13.044 36.8419 12.5685Z" fill="var(--fill-0, #BABABA)"/>
<path id="Vector_71" d="M87.7478 79.193C88.0099 79.1815 88.7667 79.1279 88.9849 79.2016C90.4707 79.7039 90.642 81.4003 89.1379 82.0183C88.804 82.0365 88.1142 82.0987 87.8214 81.9906C86.303 81.4309 86.3738 79.8666 87.7478 79.193Z" fill="var(--fill-0, #BABABA)"/>
<path id="Vector_72" d="M87.5401 56.7149C87.9238 56.6933 88.4567 56.643 88.8279 56.7005C90.2994 56.9287 90.6104 58.676 89.3943 59.4606C89.0929 59.5037 88.5304 59.6012 88.2433 59.563C86.4341 59.3228 86.28 57.7078 87.5401 56.7149Z" fill="var(--fill-0, #BABABA)"/>
<path id="Vector_73" d="M9.68902 76.1132C10.3867 76.0902 11.5385 75.9008 11.9447 76.538C12.446 77.3254 12.2663 78.4037 11.4412 78.8792C10.747 78.8888 9.48934 79.0093 9.09094 78.3941C8.54511 77.5522 8.96331 76.6155 9.68902 76.1132Z" fill="var(--fill-0, #BABABA)"/>
<path id="Vector_74" d="M48.7938 9.06548C49.0579 9.04845 49.652 8.98646 49.8721 9.0828C50.8815 9.52531 51.0958 10.8433 50.582 11.7401C50.3572 12.1325 50.2481 12.1558 49.8558 12.2898C47.9031 12.3426 47.9786 11.6902 47.8657 9.93777C48.1786 9.46015 48.2791 9.30429 48.7938 9.06548Z" fill="var(--fill-0, #BABABA)"/>
<path id="Vector_75" d="M87.7478 88.4727C88.0654 88.4555 88.6854 88.399 88.9715 88.4871C90.4506 88.9425 90.5817 90.6857 89.1695 91.3009C88.9074 91.3134 88.1295 91.3717 87.9133 91.3038C86.3308 90.8063 86.3193 89.1721 87.7478 88.4727Z" fill="var(--fill-0, #BABABA)"/>
<path id="Vector_76" d="M58.5959 1.26923C59.0724 1.37132 59.7622 1.48641 60.1679 1.75775C61.2796 2.50183 60.5755 3.82457 59.9029 4.63648C59.8158 4.63993 59.7287 4.64222 59.6417 4.64337C57.3684 4.66777 57.0947 2.5779 58.5959 1.26923Z" fill="var(--fill-0, #BABABA)"/>
<path id="Vector_77" d="M64.6245 3.84966C66.9246 4.03135 67.3772 5.53625 65.7832 7.17634C63.4506 7.41037 62.9617 5.38565 64.6245 3.84966Z" fill="var(--fill-0, #BABABA)"/>
<path id="Vector_78" d="M61.6624 2.41773C64.0017 2.64065 64.5432 3.98329 62.8641 5.67045C60.6779 6.19878 60.0148 3.72276 61.6624 2.41773Z" fill="var(--fill-0, #BABABA)"/>
<path id="Vector_79" d="M87.5554 82.3408C88.2912 82.315 89.5245 82.1361 89.9225 82.8546C90.3779 83.6736 90.1349 84.5739 89.358 85.0532C88.8021 85.1279 88.1266 85.0953 87.5564 85.0896C86.5039 84.2276 86.4829 83.2057 87.5554 82.3408Z" fill="var(--fill-0, #BABABA)"/>
<path id="Vector_80" d="M87.7697 76.1122C88.7705 76.074 89.8813 76.0615 90.1894 77.3934C90.3119 77.9244 89.8354 78.595 89.3819 78.8782C88.7303 78.8936 87.2292 79.0897 86.9239 78.3051C86.5499 77.3417 86.8417 76.5686 87.7697 76.1122Z" fill="var(--fill-0, #BABABA)"/>
<path id="Vector_81" d="M28.4142 7.56228C30.3788 8.21585 31.3225 9.81585 29.1384 11.018C28.6289 11.0623 27.9321 10.8551 27.6143 10.4747C26.6274 9.29336 27.6571 8.25326 28.4142 7.56228Z" fill="var(--fill-0, #BABABA)"/>
<path id="Vector_82" d="M9.78197 79.1844C10.9199 79.1433 12.6457 79.1844 12.148 81.1066C12.0359 81.54 11.7422 81.7935 11.3273 81.9619C9.07147 82.2231 7.81954 80.6359 9.78197 79.1844Z" fill="var(--fill-0, #BABABA)"/>
<path id="Vector_83" d="M87.9994 72.9731C88.4586 72.9473 88.87 72.886 89.2834 73.1023C89.6804 73.3127 89.9742 73.6754 90.0995 74.1069C90.354 75.0139 89.7378 75.5612 88.9342 75.785C88.6222 75.8109 87.8941 75.8692 87.6387 75.7228C86.2341 74.9182 86.4657 73.3902 87.9994 72.9731Z" fill="var(--fill-0, #BABABA)"/>
<path id="Vector_84" d="M87.5516 85.4111C88.2108 85.3776 89.5168 85.2063 89.8679 85.8263C90.3539 86.6836 90.0755 87.6049 89.3292 88.1445C88.4882 88.2067 87.8195 88.3158 87.1239 87.7312C86.2781 87.0194 86.8522 85.9574 87.5516 85.4111Z" fill="var(--fill-0, #BABABA)"/>
<path id="Vector_85" d="M9.86663 85.4044C10.159 85.391 10.8458 85.3345 11.1048 85.3986C12.5626 85.7603 12.6599 87.581 11.3207 88.1532C11.0029 88.1809 10.2856 88.2641 10 88.1522C8.49769 87.5647 8.33858 86.0808 9.86663 85.4044Z" fill="var(--fill-0, #BABABA)"/>
<path id="Vector_86" d="M55.4166 0.625627C57.9109 0.505361 58.2802 2.55333 56.647 3.8398C55.917 3.8951 55.275 3.76402 54.8349 3.12509C54.5765 2.75396 54.4847 2.29117 54.5823 1.84914C54.7124 1.28494 54.9353 0.925957 55.4166 0.625627Z" fill="var(--fill-0, #BABABA)"/>
<path id="Vector_87" d="M43.4898 77.158C43.831 77.1589 44.3999 77.1618 44.7115 77.268C46.203 77.7751 46.3476 79.5336 44.9123 80.1861C42.7981 80.3765 41.7822 78.6744 43.4898 77.158Z" fill="var(--fill-0, #BABABA)"/>
<path id="Vector_88" d="M36.6724 2.63894C38.0079 2.55704 38.633 3.92407 38.1396 5.05756C37.9254 5.54972 37.3686 5.68003 36.891 5.8333C35.7059 5.75753 34.7778 4.60213 35.3427 3.45966C35.5952 2.94884 36.1703 2.81709 36.6724 2.63894Z" fill="var(--fill-0, #BABABA)"/>
<path id="Vector_89" d="M53.7413 70.4682C54.0494 70.4529 54.3737 70.4376 54.6531 70.5725C55.0971 70.7907 55.4281 71.1877 55.563 71.6632C55.8644 72.7568 55.253 73.3108 54.2541 73.5127C54.0111 73.527 53.7317 73.5557 53.4964 73.5088C52.6554 73.3414 52.2832 72.488 52.5224 71.7139C52.7501 70.9763 53.1146 70.8012 53.7413 70.4682Z" fill="var(--fill-0, #BABABA)"/>
<path id="Vector_90" d="M39.8195 11.0471C41.6313 11.3197 42.2403 13.8509 39.8696 14.3854C39.7664 14.3512 39.6653 14.311 39.5667 14.2652C38.7616 13.8993 37.9579 12.8045 38.4421 11.9247C38.7341 11.3937 39.2935 11.2379 39.8195 11.0471Z" fill="var(--fill-0, #BABABA)"/>
<path id="Vector_91" d="M92.7803 106.974C93.3027 106.756 93.9026 106.835 94.3494 107.183C94.7962 107.531 95.022 108.092 94.9398 108.652C94.8575 109.213 94.4795 109.685 93.9514 109.889C93.1487 110.199 92.2474 109.807 91.9269 109.009C91.6064 108.212 91.9862 107.305 92.7803 106.974Z" fill="var(--fill-0, #BABABA)"/>
<path id="Vector_92" d="M13.8622 44.0516C15.0439 44.016 15.284 44.9988 15.7066 45.928C15.3191 46.7045 15.0055 47.0017 14.2326 47.3397C13.142 47.2761 12.1335 46.3297 12.5324 45.1896C12.7561 44.5503 13.2982 44.3239 13.8622 44.0516Z" fill="var(--fill-0, #BABABA)"/>
<path id="Vector_93" d="M40.2864 1.39476C41.2826 1.53138 41.67 3.59351 40.8771 4.25416C40.2946 4.73953 39.9893 4.65648 39.2968 4.65294C38.8895 4.35978 38.3907 3.69952 38.2798 3.2176C38.2101 2.90779 38.2708 2.58287 38.4478 2.31919C38.8759 1.67557 39.5804 1.56047 40.2864 1.39476Z" fill="var(--fill-0, #BABABA)"/>
<path id="Vector_94" d="M49.122 6.10352e-05C49.7621 0.0294339 50.3419 -0.0260616 50.7677 0.516809C52.044 2.14255 49.7028 4.31653 48.3078 2.49991C48.015 1.25974 47.8313 0.583116 49.122 6.10352e-05Z" fill="var(--fill-0, #BABABA)"/>
<path id="Vector_95" d="M52.2631 0.245212C53.3547 0.199287 54.5708 0.305586 54.3794 1.954C54.3153 2.51094 53.9355 3.00186 53.4619 3.30812C52.2851 3.30601 51.0518 2.88245 51.3398 1.30857C51.4355 0.78464 51.799 0.487562 52.2631 0.245212Z" fill="var(--fill-0, #BABABA)"/>
<path id="Vector_96" d="M96.7213 100.119C98.4368 100.051 99.2347 102.876 96.8131 103.282C96.2611 103.287 95.6162 103.084 95.4038 102.56C94.8709 101.246 95.7999 100.578 96.7213 100.119Z" fill="var(--fill-0, #BABABA)"/>
<path id="Vector_97" d="M9.66692 91.72C10.0247 91.7028 11.0248 91.6425 11.3173 91.7066C11.6251 91.7736 11.8918 91.964 12.0544 92.2338C12.4969 92.982 12.1887 93.888 11.426 94.2975C11.0621 94.353 10.6933 94.3712 10.3257 94.3502C8.77894 94.265 8.26755 92.6816 9.66692 91.72Z" fill="var(--fill-0, #BABABA)"/>
<path id="Vector_98" d="M89.778 106.953C90.6477 106.961 91.2916 107.077 91.5557 108.047C91.6733 108.479 91.6064 108.94 91.37 109.321C91.083 109.792 90.7816 109.84 90.2765 109.97C89.3532 109.971 88.7514 109.742 88.5504 108.732C88.4634 108.304 88.5543 107.858 88.804 107.499C89.0767 107.106 89.3321 107.043 89.778 106.953Z" fill="var(--fill-0, #BABABA)"/>
<path id="Vector_99" d="M44.7476 54.999C44.68 53.4369 46.2823 52.9213 47.3472 54.0748C48.835 55.6863 46.7221 57.1387 45.3769 56.2402L45.2162 56.405C44.9999 56.0279 44.7875 55.6486 44.5789 55.2672L44.7476 54.999Z" fill="var(--fill-0, #BABABA)"/>
<path id="Vector_100" d="M55.3802 80.233C56.7608 80.2962 57.0679 81.9523 56.2863 82.8756C55.9237 83.3042 55.562 83.2832 55.0434 83.3129C53.0935 83.1005 53.0055 80.7238 55.3802 80.233Z" fill="var(--fill-0, #BABABA)"/>
<path id="Vector_101" d="M43.8814 74.0322C44.2271 74.0006 44.5804 73.9719 44.924 74.0188C46.701 74.2637 46.751 76.0185 45.4844 76.9484C44.4671 77.0106 43.1009 76.7379 43.1912 75.3506C43.2145 74.9928 43.6003 74.2724 43.8814 74.0322Z" fill="var(--fill-0, #BABABA)"/>
<path id="Vector_102" d="M54.2991 77.0757C55.1544 77.0307 55.7907 77.1168 56.1609 78.0114C56.3284 78.4047 56.315 78.8515 56.1236 79.2332C55.8643 79.7652 55.5783 79.8101 55.0377 79.9785C54.2187 80.0723 53.6006 80.0771 53.2342 79.1729C53.0725 78.7634 53.0849 78.3061 53.2705 77.9071C53.5021 77.4 53.8092 77.2757 54.2991 77.0757Z" fill="var(--fill-0, #BABABA)"/>
<path id="Vector_103" d="M70.2561 7.49332C70.6149 7.62229 71.4272 8.15215 71.6252 8.46836C72.3361 9.60252 71.1306 10.3553 70.3317 10.8586C69.8628 10.8388 69.1491 10.6066 68.9156 10.2087C68.1722 8.94292 69.4352 7.99276 70.2561 7.49332Z" fill="var(--fill-0, #BABABA)"/>
<path id="Vector_104" d="M16.5639 42.8272C18.0534 42.7335 18.6715 43.7928 18.1448 45.2033C17.9857 45.6293 17.628 45.7407 17.2157 45.8849C17.0435 45.8834 16.4353 45.9096 16.328 45.8265C14.9995 44.7969 14.7226 43.3438 16.5639 42.8272Z" fill="var(--fill-0, #BABABA)"/>
<path id="Vector_105" d="M19.6957 42.7299C20.5503 42.7128 21.116 42.8367 21.4961 43.6973C21.6825 44.1088 21.6945 44.5783 21.5295 44.9989C21.3242 45.5341 21.1226 45.6652 20.6271 45.8968C19.8521 45.9141 19.4115 45.9726 18.9355 45.2567C18.6925 44.8913 18.6107 44.4419 18.7095 44.0143C18.8603 43.3452 19.1491 43.079 19.6957 42.7299Z" fill="var(--fill-0, #BABABA)"/>
<path id="Vector_106" d="M54.2139 73.8332C55.0023 73.7787 55.5084 73.8858 55.8136 74.7125C55.9734 75.1516 55.9419 75.6386 55.7256 76.0529C55.474 76.5399 55.1592 76.6011 54.6665 76.7427C54.3 76.7848 53.8245 76.8461 53.5078 76.6222C52.7644 76.0979 52.5855 75.0846 53.1146 74.3403C53.4083 73.9279 53.7384 73.9231 54.2139 73.8332Z" fill="var(--fill-0, #BABABA)"/>
<path id="Vector_107" d="M67.5111 5.55423C68.3512 5.61575 69.1902 6.45235 69.6485 7.09931C69.1682 7.91362 68.82 8.255 68.1569 8.90665C67.1638 8.86369 66.7897 8.46931 66.1008 7.81086C66.4128 6.84453 66.7868 6.23975 67.5111 5.55423Z" fill="var(--fill-0, #BABABA)"/>
<path id="Vector_108" d="M47.8122 1.51655C47.794 2.74733 47.4037 3.59484 45.9534 3.25997C45.5831 3.17511 45.2654 2.93898 45.0773 2.60889C43.8717 0.531266 47.1167 -0.803237 47.8065 1.23621L47.8122 1.51655Z" fill="var(--fill-0, #BABABA)"/>
<path id="Vector_109" d="M23.0674 42.8398C23.2882 42.8457 23.9307 42.8528 24.1072 42.9628C25.3541 43.7393 25.2916 45.4442 23.8792 45.9577C21.7138 46.068 21.3648 43.7215 23.0674 42.8398Z" fill="var(--fill-0, #BABABA)"/>
<path id="Vector_110" d="M42.3794 68.5547C44.4935 68.4016 44.7687 70.5295 42.7291 71.6537C42.5963 71.6489 42.4639 71.6365 42.3323 71.6192C41.5199 71.5063 40.7579 70.6185 41.0558 69.7956C41.331 69.036 41.741 68.9097 42.3794 68.5547Z" fill="var(--fill-0, #BABABA)"/>
<path id="Vector_111" d="M43.1619 80.4225C45.7113 80.2962 45.9456 82.5781 44.42 83.2832C44.067 83.2899 43.5017 83.3215 43.1783 83.2191C41.7088 82.7522 41.9171 80.9764 43.1619 80.4225Z" fill="var(--fill-0, #BABABA)"/>
<path id="Vector_112" d="M69.3892 39.567C69.7959 39.5482 70.8388 39.4576 71.1813 39.5668C72.1313 39.8701 72.3533 41.611 71.3965 42.0289C70.2102 42.0651 68.3961 42.3788 68.6506 40.5832C68.7243 40.0653 68.9941 39.864 69.3892 39.567Z" fill="var(--fill-0, #BABABA)"/>
<path id="Vector_113" d="M26.255 42.9187C27.5188 42.8429 28.4677 43.2741 28.268 44.8872C28.209 45.3627 27.8799 45.7112 27.4641 45.9541C27.2623 45.9678 27.0604 45.9761 26.8582 45.9793C25.2022 45.9914 24.8362 44.0894 26.255 42.9187Z" fill="var(--fill-0, #BABABA)"/>
<path id="Vector_114" d="M29.6691 42.9251C31.0974 42.8514 31.8867 43.5356 31.4589 45.1456C31.3373 45.603 31.0055 45.7873 30.5834 45.978C29.8169 46.0752 29.2751 46.0181 28.8632 45.2824C28.6467 44.89 28.5961 44.4273 28.7227 43.9974C28.9009 43.3889 29.1333 43.1999 29.6691 42.9251Z" fill="var(--fill-0, #BABABA)"/>
<path id="Vector_115" d="M86.0198 107.034C86.2934 107.011 86.8618 106.946 87.1105 107.003C88.6634 107.361 88.7638 109.07 87.5478 109.87C85.3175 110.367 84.6315 108.206 86.0198 107.034Z" fill="var(--fill-0, #BABABA)"/>
<path id="Vector_116" d="M4.062 106.943C6.36877 106.828 6.52338 109.282 4.97839 109.919C4.61769 109.923 4.05473 109.966 3.74521 109.786C2.54782 109.091 2.68473 107.318 4.062 106.943Z" fill="var(--fill-0, #BABABA)"/>
<path id="Vector_117" d="M83.5561 106.939C85.4515 106.947 85.7586 109.311 83.9293 110C82.6625 109.941 82.4922 109.755 82.1152 108.571C82.3085 107.475 82.408 107.12 83.5561 106.939Z" fill="var(--fill-0, #BABABA)"/>
<path id="Vector_118" d="M32.7638 42.9931C35.0609 42.7901 35.4396 45.154 33.9142 45.9925C31.6925 46.2891 31.2707 44.1039 32.7638 42.9931Z" fill="var(--fill-0, #BABABA)"/>
<path id="Vector_119" d="M79.7913 107.027C80.2342 107.01 80.7337 107.018 81.1814 107.013C81.4436 107.267 81.6273 107.533 81.8454 107.824C81.8521 108.262 81.8359 108.739 81.8301 109.18C81.4666 109.582 81.4025 109.664 80.9336 109.924C78.8986 110.216 78.2088 108.032 79.7913 107.027Z" fill="var(--fill-0, #BABABA)"/>
<path id="Vector_120" d="M55.2989 83.5788C57.533 83.4899 57.5148 85.9918 55.8988 86.5582C53.5643 86.4826 53.4189 84.1873 55.2989 83.5788Z" fill="var(--fill-0, #BABABA)"/>
<path id="Vector_121" d="M78.7857 42.9163C81.035 42.8084 80.9451 45.4309 79.5788 45.976C79.4114 45.9802 78.8344 46.0022 78.712 45.9393C77.251 45.1919 77.2749 43.5319 78.7857 42.9163Z" fill="var(--fill-0, #BABABA)"/>
<path id="Vector_122" d="M10.0555 107.022C10.8934 106.975 11.5144 106.963 11.9903 107.765C12.5124 108.644 12.149 109.458 11.3089 109.902C9.07192 110.143 8.52561 108.016 10.0555 107.022Z" fill="var(--fill-0, #BABABA)"/>
<path id="Vector_123" d="M63.9194 97.8529C64.681 97.8491 65.1727 98.0997 65.4234 98.8719C65.5736 99.3435 65.522 99.8564 65.2818 100.29C65.0474 100.713 64.792 100.762 64.3557 100.892C64.0323 100.892 63.5491 100.929 63.3042 100.714C62.2297 99.7712 62.3828 98.115 63.9194 97.8529Z" fill="var(--fill-0, #BABABA)"/>
<path id="Vector_124" d="M73.5847 107.032C74.0315 107.009 74.5443 107.02 74.9969 107.017C75.2131 107.221 75.4351 107.536 75.6207 107.781C75.6417 108.851 75.7651 109.364 74.7883 109.956C72.6614 110.056 72.0577 108.144 73.5847 107.032Z" fill="var(--fill-0, #BABABA)"/>
<path id="Vector_125" d="M39.917 107.033C40.9678 106.917 42.0612 107.043 42.0826 108.519C42.091 109.098 41.6835 109.563 41.2438 109.921C39.071 110.213 38.5039 108.175 39.917 107.033Z" fill="var(--fill-0, #BABABA)"/>
<path id="Vector_126" d="M81.8378 43.0177C84.2862 42.9649 83.9379 45.0721 82.6654 46.0389C82.4482 46.0503 81.9689 46.086 81.7746 46.0172C81.3498 45.8667 81.0111 45.5409 80.8437 45.1227C80.4505 44.1652 80.9633 43.4106 81.8378 43.0177Z" fill="var(--fill-0, #BABABA)"/>
<path id="Vector_127" d="M45.2162 56.405C45.2914 58.1441 42.5476 58.6856 42.2941 56.7008C42.1145 55.295 43.3263 54.2429 44.5789 55.2672C44.7876 55.6487 45 56.0279 45.2162 56.405Z" fill="var(--fill-0, #BABABA)"/>
<path id="Vector_128" d="M36.1334 43.0152C38.1924 42.9331 38.5348 45.2029 36.9371 46.0235C35.4454 46.1367 34.7261 45.3758 35.2068 43.7839C35.3487 43.3141 35.6878 43.2001 36.1334 43.0152Z" fill="var(--fill-0, #BABABA)"/>
<path id="Vector_129" d="M69.5844 43.0242C71.8434 42.7564 72.2107 44.9093 70.7679 45.9555C69.9365 46.0241 69.3328 46.0398 68.8994 45.2076C68.4411 44.3285 68.7712 43.4918 69.5844 43.0242Z" fill="var(--fill-0, #BABABA)"/>
<path id="Vector_130" d="M5.84215 97.9333C8.14088 97.6931 8.55689 100.079 6.89431 100.934C5.04076 101.164 4.26099 98.9561 5.84215 97.9333Z" fill="var(--fill-0, #BABABA)"/>
<path id="Vector_131" d="M87.8205 97.9419C88.6414 97.8385 89.2585 97.8108 89.7445 98.5858C90.2669 99.4201 89.9809 100.343 89.1724 100.83C86.8876 101.195 86.5566 99.0068 87.8205 97.9419Z" fill="var(--fill-0, #BABABA)"/>
<path id="Vector_132" d="M43.0728 83.5721C45.2255 83.6161 45.2726 85.9554 43.6825 86.5994C41.3317 86.4845 41.3042 84.0984 43.0728 83.5721Z" fill="var(--fill-0, #BABABA)"/>
<path id="Vector_133" d="M6.99806 107.019C7.22912 107.006 7.7895 106.963 7.99501 107.037C9.3519 107.522 9.45925 109.316 8.12666 109.919C5.91184 110.109 5.4568 107.937 6.99806 107.019Z" fill="var(--fill-0, #BABABA)"/>
<path id="Vector_134" d="M73.0814 97.8462C73.8976 97.8816 74.0277 98.027 74.5692 98.6499C74.6046 99.8526 74.818 100.497 73.5062 100.904C72.6652 100.89 72.1524 100.786 71.8759 99.8841C71.7324 99.4134 71.7927 98.9044 72.0424 98.4806C72.3141 98.0156 72.5925 97.961 73.0814 97.8462Z" fill="var(--fill-0, #BABABA)"/>
<path id="Vector_135" d="M76.5803 107.025C77.3687 106.981 78.0528 106.89 78.557 107.627C79.1253 108.46 78.734 109.369 77.9609 109.869C77.3783 110.01 76.787 110.002 76.3325 109.566C76.0225 109.268 75.856 108.851 75.878 108.421C75.9058 107.781 76.1345 107.442 76.5803 107.025Z" fill="var(--fill-0, #BABABA)"/>
<path id="Vector_136" d="M66.3793 97.9294C66.5687 97.9103 67.2097 97.8577 67.3705 97.8959C68.8085 98.2394 68.9262 100.008 67.8489 100.787C65.6837 101.327 65.034 99.1914 66.3793 97.9294Z" fill="var(--fill-0, #BABABA)"/>
<path id="Vector_137" d="M91.0208 97.9323C91.8341 97.8816 92.4866 97.8347 92.8923 98.669C93.3056 99.5196 92.9966 100.406 92.1967 100.851C89.8995 101.121 89.5694 98.8939 91.0208 97.9323Z" fill="var(--fill-0, #BABABA)"/>
<path id="Vector_138" d="M94.093 98.028C96.0831 97.8787 97.0715 99.51 95.1646 100.896C93.4884 101.531 92.3555 99.1483 94.093 98.028Z" fill="var(--fill-0, #BABABA)"/>
<path id="Vector_139" d="M76.0005 97.851C77.3945 97.9447 78.0843 98.7006 77.5237 100.228C77.3716 100.642 77.0434 100.758 76.63 100.894C76.3114 100.898 75.8532 100.937 75.592 100.742C74.5481 99.9693 74.6103 98.1878 76.0005 97.851Z" fill="var(--fill-0, #BABABA)"/>
<path id="Vector_140" d="M70.2599 97.8529C70.9172 97.9314 71.0626 98.1629 71.5104 98.6308C71.5668 99.9808 71.7448 100.564 70.2446 100.923C68.7425 100.803 68.3387 99.4966 69.1491 98.2691C69.3912 97.9017 69.8408 97.8902 70.2599 97.8529Z" fill="var(--fill-0, #BABABA)"/>
<path id="Vector_141" d="M41.0354 66.0776C42.0361 65.958 42.7385 67.0468 42.2948 67.929C41.9583 68.5978 41.4579 68.7193 40.8147 68.9709C39.4174 69.0465 38.2209 66.645 41.0354 66.0776Z" fill="var(--fill-0, #BABABA)"/>
<path id="Vector_142" d="M58.7758 59.939C60.1469 59.8845 61.0797 62.3156 58.8409 62.9107C57.5799 62.9538 56.8833 61.9942 57.3502 60.8336C57.5731 60.2777 58.2438 60.1304 58.7758 59.939Z" fill="var(--fill-0, #BABABA)"/>
<path id="Vector_143" d="M63.6783 43.0237C65.0264 42.9278 65.7296 43.5798 65.3804 45.0653C65.2503 45.6152 64.9278 45.7634 64.4322 45.9952C63.6936 46.0636 63.0382 45.9075 62.7665 45.1667C62.3886 44.1378 62.7043 43.3965 63.6783 43.0237Z" fill="var(--fill-0, #BABABA)"/>
<path id="Vector_144" d="M75.5279 43.0138C77.7926 42.7101 78.1533 44.9264 76.7047 45.9554C74.3999 46.1522 74.0899 43.8649 75.5279 43.0138Z" fill="var(--fill-0, #BABABA)"/>
<path id="Vector_145" d="M42.866 107.022C43.6476 106.987 44.2175 106.858 44.7936 107.508C45.0442 107.789 45.1598 108.166 45.1102 108.54C45.0294 109.167 44.7967 109.505 44.3115 109.86C42.2924 110.335 41.5484 108.396 42.866 107.022Z" fill="var(--fill-0, #BABABA)"/>
<path id="Vector_146" d="M82.2913 97.8491C84.2096 97.938 84.357 100.381 82.741 100.9C81.8474 100.899 81.2647 100.793 81.036 99.775C80.9279 99.3072 81.0207 98.8154 81.2934 98.4193C81.5823 97.9964 81.8091 97.9438 82.2913 97.8491Z" fill="var(--fill-0, #BABABA)"/>
<path id="Vector_147" d="M42.5239 43.0295C43.3254 43.0501 43.8 43.2347 44.0282 44.0833C44.1578 44.5667 44.0746 45.0824 43.7995 45.5004C43.5207 45.9198 43.2807 45.9519 42.8125 46.0545C40.8442 46.0176 40.6008 43.481 42.5239 43.0295Z" fill="var(--fill-0, #BABABA)"/>
<path id="Vector_148" d="M84.7616 97.939C85.8428 97.8213 86.8417 98.0203 86.9 99.4823C86.922 100.02 86.5355 100.5 86.1155 100.827C85.4687 100.935 84.9099 101.008 84.4344 100.483C84.1627 100.186 84.023 99.7932 84.0469 99.3923C84.0823 98.7159 84.2746 98.3542 84.7616 97.939Z" fill="var(--fill-0, #BABABA)"/>
<path id="Vector_149" d="M67.3408 107.03C68.1407 106.979 68.8429 106.883 69.3223 107.661C69.8227 108.47 69.3912 109.466 68.6267 109.918C66.518 110.107 65.9965 108.256 67.3408 107.03Z" fill="var(--fill-0, #BABABA)"/>
<path id="Vector_150" d="M48.4417 43.0227C50.5227 42.8506 50.8088 45.4445 49.0129 46.059C48.1097 46.0816 47.9729 45.923 47.4266 45.2204C47.3692 44.1669 47.2515 43.3963 48.4417 43.0227Z" fill="var(--fill-0, #BABABA)"/>
<path id="Vector_151" d="M56.869 57.0712C57.6296 57.0338 58.3031 57.2766 58.6801 57.99C58.8609 58.3335 58.8973 58.7363 58.7787 59.1076C58.6122 59.6309 58.1769 59.7773 57.7157 59.9993C56.3494 60.4604 54.9038 58.5727 56.869 57.0712Z" fill="var(--fill-0, #BABABA)"/>
<path id="Vector_152" d="M64.2667 107.026C65.0809 106.985 65.7392 106.893 66.2376 107.668C66.7725 108.501 66.2989 109.458 65.5411 109.929C63.5654 110.237 62.8603 107.991 64.2667 107.026Z" fill="var(--fill-0, #BABABA)"/>
<path id="Vector_153" d="M49.0378 107.023C49.4693 107.006 49.9687 107.018 50.406 107.016C51.4508 107.789 51.4623 109.067 50.4318 109.855C48.3958 110.359 47.6141 108.218 49.0378 107.023Z" fill="var(--fill-0, #BABABA)"/>
<path id="Vector_154" d="M56.1686 68.3519C58.1922 68.3806 58.6916 70.1449 56.9627 71.4432C55.9543 71.6365 55.031 70.8864 55.1621 69.8406C55.2587 69.0675 55.6213 68.8322 56.1686 68.3519Z" fill="var(--fill-0, #BABABA)"/>
<path id="Vector_155" d="M79.2239 97.8567C81.147 97.9648 81.2991 100.35 79.6286 100.901C79.6028 100.901 79.5769 100.901 79.5511 100.901L79.42 100.897C77.5409 100.852 77.3122 98.1983 79.2239 97.8567Z" fill="var(--fill-0, #BABABA)"/>
<path id="Vector_156" d="M45.9634 107.024C47.9385 106.944 48.0418 107.15 48.0858 109.106C47.8084 109.462 47.7136 109.547 47.3749 109.852C45.3932 110.321 44.5408 108.368 45.9634 107.024Z" fill="var(--fill-0, #BABABA)"/>
<path id="Vector_157" d="M39.4036 63.103C39.6514 63.0983 40.4837 63.1174 40.7075 63.214C41.79 63.6809 42.062 65.3323 40.8551 65.8566C38.5609 66.3848 38.0186 64.0541 39.4036 63.103Z" fill="var(--fill-0, #BABABA)"/>
<path id="Vector_158" d="M12.3968 97.8501C13.136 97.8921 13.5896 98.0682 13.872 98.8193C14.0447 99.2842 14.0078 99.8009 13.7709 100.237C13.5366 100.674 13.2873 100.746 12.8338 100.899C12.0035 100.895 11.5057 100.759 11.2209 99.8755C11.0722 99.4192 11.1208 98.9216 11.3548 98.5026C11.6015 98.0663 11.9408 97.9716 12.3968 97.8501Z" fill="var(--fill-0, #BABABA)"/>
<path id="Vector_159" d="M60.3191 97.9352C61.4777 97.8012 62.4871 98.1275 62.4077 99.6488C62.38 100.173 62.0604 100.544 61.6232 100.831C61.3964 100.872 61.1658 100.893 60.9352 100.89C60.5344 100.887 60.2167 100.729 59.9546 100.429C59.6608 100.096 59.5259 99.6526 59.5843 99.2134C59.6656 98.5552 59.8254 98.3208 60.3191 97.9352Z" fill="var(--fill-0, #BABABA)"/>
<path id="Vector_160" d="M39.2461 43.0221C40.1069 43.0007 40.64 43.1461 40.9134 44.0574C41.0587 44.5277 40.9991 45.0374 40.7492 45.4614C40.518 45.8489 40.278 45.9434 39.8639 46.0461C38.9004 46.0628 38.7729 45.9696 38.2343 45.1757C38.1752 44.0142 38.0774 43.5329 39.2461 43.0221Z" fill="var(--fill-0, #BABABA)"/>
<path id="Vector_161" d="M27.4996 97.8433C28.2426 97.8156 28.7292 97.9878 29.0632 98.7035C29.2736 99.1426 29.2839 99.6516 29.0911 100.099C28.882 100.578 28.6615 100.724 28.1945 100.89C26.099 100.966 25.7234 98.6336 27.4996 97.8433Z" fill="var(--fill-0, #BABABA)"/>
<path id="Vector_162" d="M30.8447 97.8539C31.5271 97.9036 32.0808 98.205 32.2091 98.8901C32.4368 100.106 31.9727 100.672 30.9203 100.93C30.0988 100.875 29.9711 100.689 29.5161 100.025C29.4724 98.7131 29.4287 98.1055 30.8447 97.8539Z" fill="var(--fill-0, #BABABA)"/>
<path id="Vector_163" d="M13.2184 107.017C14.4256 106.957 15.347 107.34 15.151 108.909C15.0953 109.354 14.8368 109.643 14.4545 109.885C13.6013 109.946 12.9236 109.988 12.4513 109.146C11.9464 108.245 12.4617 107.484 13.2184 107.017Z" fill="var(--fill-0, #BABABA)"/>
<path id="Vector_164" d="M57.6114 66.0585C59.7766 65.981 60.7984 67.4764 58.9126 68.9077C57.1426 69.0589 56.0347 67.5472 57.6114 66.0585Z" fill="var(--fill-0, #BABABA)"/>
<path id="Vector_165" d="M57.9396 97.851C58.6486 97.9447 59.0676 98.2213 59.2724 98.9494C59.4054 99.423 59.3326 99.931 59.0743 100.349C58.7892 100.803 58.4811 100.833 57.9865 100.931C57.2354 100.849 56.7781 100.611 56.5695 99.8248C56.4451 99.3464 56.5293 98.8384 56.801 98.426C57.0995 97.9763 57.4402 97.9352 57.9396 97.851Z" fill="var(--fill-0, #BABABA)"/>
<path id="Vector_166" d="M54.7 43.0273C55.5467 43.0184 55.5869 43.0878 56.1925 43.7C56.2299 44.9106 56.4557 45.7016 55.0779 46.0623C53.2017 46.0669 52.7472 43.6754 54.7 43.0273Z" fill="var(--fill-0, #BABABA)"/>
<path id="Vector_167" d="M58.1711 107.035C58.9394 106.975 59.6005 106.878 60.0837 107.581C60.6645 108.427 60.2684 109.356 59.5039 109.888C57.5167 110.348 56.8001 108.18 58.1711 107.035Z" fill="var(--fill-0, #BABABA)"/>
<path id="Vector_168" d="M54.2685 97.9266C55.0262 97.8787 55.5869 97.8615 56.0356 98.559C56.5858 99.4153 56.2538 100.34 55.4549 100.862C53.2093 101.08 52.8151 98.8365 54.2685 97.9266Z" fill="var(--fill-0, #BABABA)"/>
<path id="Vector_169" d="M48.1911 97.9361C48.9814 97.8778 49.5669 97.7869 50.0462 98.56C50.2529 98.89 50.317 99.29 50.2261 99.6698C50.0759 100.319 49.9573 100.513 49.4224 100.839C48.3442 100.969 48.1538 100.916 47.5127 100.053C47.4754 99.0546 47.285 98.582 48.1911 97.9361Z" fill="var(--fill-0, #BABABA)"/>
<path id="Vector_170" d="M66.6366 43.0144C68.7731 42.9032 69.151 45.0193 67.6221 45.9603C66.8873 46.03 66.2673 46.0493 65.8855 45.3204C65.3804 44.3564 65.7621 43.5158 66.6366 43.0144Z" fill="var(--fill-0, #BABABA)"/>
<path id="Vector_171" d="M57.6382 43.0113C59.7479 42.9479 59.9775 45.3863 58.217 46.0477C56.249 46.0602 55.8758 43.8504 57.6382 43.0113Z" fill="var(--fill-0, #BABABA)"/>
<path id="Vector_172" d="M45.3834 43.0146C46.178 42.9873 46.6761 43.0874 46.9865 43.9121C47.1613 44.3773 47.1323 44.8946 46.9067 45.3374C46.6816 45.789 46.4338 45.9039 45.978 46.0442C44.0397 46.0772 43.581 43.7963 45.3834 43.0146Z" fill="var(--fill-0, #BABABA)"/>
<path id="Vector_173" d="M30.9813 107.029C31.1992 107.016 31.8668 106.96 32.0598 107.026C33.4377 107.494 33.47 109.194 32.2846 109.899C30.8404 110.14 30.5529 109.659 30.2538 108.383C30.4047 107.668 30.3757 107.434 30.9813 107.029Z" fill="var(--fill-0, #BABABA)"/>
<path id="Vector_174" d="M24.2122 97.9371C26.3623 97.6041 26.7932 99.9119 25.3193 100.861C23.1433 101.073 22.6732 98.8939 24.2122 97.9371Z" fill="var(--fill-0, #BABABA)"/>
<path id="Vector_175" d="M34.0636 107.022C35.1716 106.967 36.2265 107.182 36.041 108.776C35.984 109.266 35.5717 109.659 35.1514 109.922C32.9529 110.211 32.6329 107.777 34.0636 107.022Z" fill="var(--fill-0, #BABABA)"/>
<path id="Vector_176" d="M16.1921 107.027C17.041 106.975 17.7018 106.973 18.1069 107.847C18.4674 108.624 18.1773 109.519 17.4136 109.898C15.2453 110.164 14.6798 108.144 16.1921 107.027Z" fill="var(--fill-0, #BABABA)"/>
<path id="Vector_177" d="M51.2078 97.9313C51.9588 97.8988 52.4621 97.8194 52.9405 98.5006C53.526 99.3349 53.1797 100.308 52.4133 100.865C51.2824 100.936 50.3189 100.674 50.3955 99.1646C50.4242 98.6011 50.76 98.2576 51.2078 97.9313Z" fill="var(--fill-0, #BABABA)"/>
<path id="Vector_178" d="M36.3768 97.9285C38.6153 97.7247 39.0121 99.9185 37.4642 100.858C35.4135 101.096 34.8604 99.0383 36.3768 97.9285Z" fill="var(--fill-0, #BABABA)"/>
<path id="Vector_179" d="M21.0764 97.9381C22.2505 97.8223 23.2076 98.1744 23.0861 99.6976C23.0459 100.201 22.703 100.592 22.2732 100.864C21.1691 100.941 20.3096 100.697 20.284 99.2861C20.2736 98.713 20.6442 98.2921 21.0764 97.9381Z" fill="var(--fill-0, #BABABA)"/>
<path id="Vector_180" d="M9.24747 97.8156C11.1901 97.8749 11.5411 100.298 9.85426 100.896C8.67408 100.92 7.94397 100.396 8.16489 99.0488C8.27425 98.382 8.68795 98.1428 9.24747 97.8156Z" fill="var(--fill-0, #BABABA)"/>
<path id="Vector_181" d="M60.6061 43.0194C62.7665 42.8762 62.9358 45.3218 61.4203 46.014C59.3499 46.1582 58.9097 43.9283 60.6061 43.0194Z" fill="var(--fill-0, #BABABA)"/>
<path id="Vector_182" d="M70.4781 107.02C71.2731 106.986 71.7649 106.882 72.295 107.581C72.5265 107.882 72.6212 108.265 72.5562 108.639C72.448 109.245 72.2003 109.6 71.7123 109.934C71.1095 109.983 70.6187 109.992 70.1575 109.544C69.8552 109.253 69.6926 108.845 69.7117 108.425C69.7423 107.759 70.0073 107.429 70.4781 107.02Z" fill="var(--fill-0, #BABABA)"/>
<path id="Vector_183" d="M28.04 107.023C28.8229 106.977 29.4481 106.892 29.8969 107.667C30.3333 108.42 30.0429 109.45 29.3042 109.888C27.0196 110.204 26.6678 107.979 28.04 107.023Z" fill="var(--fill-0, #BABABA)"/>
<path id="Vector_184" d="M19.1389 107.019C19.9517 106.973 20.5816 106.944 21.0312 107.734C21.4966 108.552 21.2249 109.474 20.402 109.904C19.3522 109.991 18.425 109.827 18.3916 108.413C18.3782 107.845 18.7192 107.39 19.1389 107.019Z" fill="var(--fill-0, #BABABA)"/>
<path id="Vector_185" d="M33.3983 97.9342C34.1323 97.8739 34.6752 97.8653 35.0878 98.5666C35.648 99.5196 35.2867 100.351 34.418 100.873C33.7139 100.923 33.2145 100.916 32.797 100.269C32.1864 99.3196 32.5013 98.4643 33.3983 97.9342Z" fill="var(--fill-0, #BABABA)"/>
<path id="Vector_186" d="M27.7502 39.6705C28.6928 39.6363 29.8972 39.4927 30.215 40.6612C30.3649 41.2125 30.156 41.8575 29.5369 41.9662C29.129 41.9592 27.9064 42.0444 27.6194 41.9416C26.4955 41.5386 26.719 40.1239 27.7502 39.6705Z" fill="var(--fill-0, #BABABA)"/>
<path id="Vector_187" d="M39.6364 59.9237C41.5546 59.895 42.573 61.178 41.1888 62.8227C38.9899 62.9978 38.1321 61.5071 39.6364 59.9237Z" fill="var(--fill-0, #BABABA)"/>
<path id="Vector_188" d="M51.978 107.033C52.1808 107.023 52.3846 107.014 52.5884 107.009C54.3517 106.967 54.7316 108.745 53.5117 109.848C52.3396 110.035 51.403 109.817 51.381 108.329C51.3723 107.812 51.6402 107.41 51.978 107.033Z" fill="var(--fill-0, #BABABA)"/>
<path id="Vector_189" d="M22.1132 107.02C22.3471 107.007 22.9479 106.977 23.1361 107.046C24.4011 107.509 24.5918 109.249 23.3722 109.888C22.2524 109.975 21.311 109.798 21.3291 108.306C21.3361 107.732 21.685 107.374 22.1132 107.02Z" fill="var(--fill-0, #BABABA)"/>
<path id="Vector_190" d="M41.2985 57.1705C43.3381 57.1167 43.4533 59.8605 41.8742 60.204C41.7569 60.1849 41.6407 60.16 41.5258 60.1303C40.9655 59.9868 40.428 59.7639 40.1443 59.2262C39.9964 58.9535 39.9717 58.6301 40.0761 58.3373C40.2806 57.769 40.7821 57.4189 41.2985 57.1705Z" fill="var(--fill-0, #BABABA)"/>
<path id="Vector_191" d="M51.4613 43.0338C52.2698 43.0153 52.7539 43.0821 53.0936 43.9139C53.2763 44.3584 53.2581 44.86 53.0448 45.2908C52.8151 45.7637 52.6075 45.87 52.1339 46.0271C51.3503 46.0201 50.8863 45.9394 50.538 45.1461C50.3476 44.7218 50.3495 44.236 50.5419 43.8129C50.7418 43.3698 51.0394 43.2071 51.4613 43.0338Z" fill="var(--fill-0, #BABABA)"/>
<path id="Vector_192" d="M61.3189 107.023C62.4087 106.959 63.5759 107.108 63.3578 108.755C63.2899 109.265 62.9186 109.649 62.4689 109.907C60.4865 110.198 59.8905 107.947 61.3189 107.023Z" fill="var(--fill-0, #BABABA)"/>
<path id="Vector_193" d="M49.2741 52.975C51.1389 53.1758 51.2738 55.8399 49.5009 55.9466C47.8275 55.8852 47.9576 55.0227 47.9815 53.664C48.436 53.22 48.656 53.1123 49.2741 52.975Z" fill="var(--fill-0, #BABABA)"/>
<path id="Vector_194" d="M55.1965 107.021C55.9925 106.977 56.5896 106.894 57.068 107.666C57.2727 107.992 57.3292 108.389 57.2239 108.758C57.0546 109.373 56.8757 109.602 56.3513 109.896C54.3469 110.203 53.7661 107.993 55.1965 107.021Z" fill="var(--fill-0, #BABABA)"/>
<path id="Vector_195" d="M51.5503 53.4455C53.6647 53.2828 54.5765 54.4291 53.151 56.1902C51.0996 56.8539 50.3897 54.8986 51.5503 53.4455Z" fill="var(--fill-0, #BABABA)"/>
<path id="Vector_196" d="M54.5641 54.7475C56.7092 54.782 57.289 56.4847 55.496 57.7997C55.1487 57.8303 54.2876 57.55 54.0589 57.2874C53.2466 56.352 53.8982 55.4218 54.5641 54.7475Z" fill="var(--fill-0, #BABABA)"/>
<path id="Vector_197" d="M18.1177 97.9275C18.2925 97.9113 18.8526 97.8692 18.9987 97.9285C20.313 98.4595 20.4646 100.113 19.2461 100.82C17.0222 101.202 16.6614 98.7953 18.1177 97.9275Z" fill="var(--fill-0, #BABABA)"/>
<path id="Vector_198" d="M15.0536 97.9342C17.2393 97.7056 17.6489 99.9654 16.1772 100.842C13.9896 101.163 13.6324 98.8805 15.0536 97.9342Z" fill="var(--fill-0, #BABABA)"/>
<path id="Vector_199" d="M72.6566 43.02C73.799 42.9692 74.6572 43.314 74.5099 44.7777C74.4544 45.332 74.109 45.6717 73.6459 45.9662C72.9274 46.0177 72.3351 45.995 71.9572 45.2943C71.4434 44.3416 71.7802 43.5088 72.6566 43.02Z" fill="var(--fill-0, #BABABA)"/>
<path id="Vector_200" d="M25.1803 107.026C25.3899 107.01 26.0219 106.97 26.1858 107.046C27.3907 107.608 27.5518 109.267 26.3303 109.903C24.1546 110.189 23.6802 107.901 25.1803 107.026Z" fill="var(--fill-0, #BABABA)"/>
<path id="Vector_201" d="M37.0371 107.02C38.1198 106.97 38.3293 106.832 38.955 107.801L38.9792 109.177C38.6639 109.544 38.5868 109.605 38.1902 109.884C36.147 110.295 35.5561 107.954 37.0371 107.02Z" fill="var(--fill-0, #BABABA)"/>
<path id="Vector_202" d="M45.9609 83.6812C47.1268 83.6057 48.0313 83.9625 47.7978 85.4914C47.7251 85.9689 47.3252 86.3315 46.8922 86.5525C44.743 86.696 44.3168 84.6361 45.9609 83.6812Z" fill="var(--fill-0, #BABABA)"/>
<path id="Vector_203" d="M57.9693 63.1997C58.751 63.1767 59.4312 63.061 60.1287 63.5269C60.9065 64.0474 60.3708 65.2539 59.8426 65.7705C59.2188 65.9226 58.4352 65.9064 57.9253 65.4653C57.6717 65.251 57.5158 64.9439 57.4909 64.6119C57.4564 64.1115 57.6555 63.5891 57.9693 63.1997Z" fill="var(--fill-0, #BABABA)"/>
<path id="Vector_204" d="M42.5063 97.9247C44.7354 97.762 44.9473 100.128 43.4877 100.805C41.3528 101.219 40.9866 98.7953 42.5063 97.9247Z" fill="var(--fill-0, #BABABA)"/>
<path id="Vector_205" d="M96.2018 103.579C96.9624 103.552 97.8043 103.411 98.431 103.937C99.1199 104.517 98.5583 105.471 98.0923 105.994C97.7039 106.072 97.0495 106.195 96.6706 106.084C95.3531 105.696 95.3789 104.492 96.2018 103.579Z" fill="var(--fill-0, #BABABA)"/>
<path id="Vector_206" d="M3.11136 98.6068C4.97927 98.3504 5.68833 100.782 3.75699 101.622C3.20321 101.586 2.5329 101.208 2.24386 100.727C2.05471 100.406 2.00065 100.022 2.09336 99.6602C2.24884 99.0651 2.61901 98.8853 3.11136 98.6068Z" fill="var(--fill-0, #BABABA)"/>
<path id="Vector_207" d="M39.3836 97.9352C40.0691 97.8749 40.6204 97.8175 41.06 98.4375C41.6572 99.2813 41.4092 100.268 40.5638 100.814C38.4895 101.239 37.9968 99.0001 39.3836 97.9352Z" fill="var(--fill-0, #BABABA)"/>
<path id="Vector_208" d="M64.5384 92.9638C65.2197 92.9265 65.7181 92.9648 66.1296 93.5752C66.3764 93.9359 66.4549 94.3865 66.3448 94.8104C66.1937 95.4017 66.0071 95.6026 65.5163 95.9068C63.3482 95.9968 62.9206 93.7512 64.5384 92.9638Z" fill="var(--fill-0, #BABABA)"/>
<path id="Vector_209" d="M32.2415 92.9839C34.1274 93.1159 34.1984 95.6418 32.5043 95.9518C31.6355 95.9164 31.1087 95.6294 30.9379 94.7099C30.8557 94.2803 30.9622 93.8364 31.2301 93.49C31.5509 93.0748 31.7397 93.047 32.2415 92.9839Z" fill="var(--fill-0, #BABABA)"/>
<path id="Vector_210" d="M49.0043 83.6726C49.7611 83.6363 50.2673 83.6057 50.672 84.3567C51.1293 85.2063 50.7868 86.1162 49.9601 86.5573C49.2301 86.5688 48.7087 86.5965 48.2925 85.9067C47.7156 84.9499 48.1844 84.1845 49.0043 83.6726Z" fill="var(--fill-0, #BABABA)"/>
<path id="Vector_211" d="M67.6125 92.9494C69.7863 92.9016 69.9576 95.1969 68.4726 95.9145C66.4012 95.9623 65.9994 93.6785 67.6125 92.9494Z" fill="var(--fill-0, #BABABA)"/>
<path id="Vector_212" d="M35.0647 92.96C37.0178 93.0155 37.3233 95.2639 35.7574 95.9432C33.4694 95.8762 33.4466 93.4766 35.0647 92.96Z" fill="var(--fill-0, #BABABA)"/>
<path id="Vector_213" d="M73.3761 93.0537C75.5461 92.7581 76.0417 94.8065 74.6037 95.8484C72.7198 96.2828 71.8453 94.1961 73.3761 93.0537Z" fill="var(--fill-0, #BABABA)"/>
<path id="Vector_214" d="M45.379 97.9276C46.1297 97.8835 46.6378 97.8845 47.0529 98.6126C47.55 99.4852 47.2305 100.358 46.398 100.827C44.3535 101.238 43.9681 98.9561 45.379 97.9276Z" fill="var(--fill-0, #BABABA)"/>
<path id="Vector_215" d="M61.6528 92.9667C63.7529 92.8882 63.8926 95.3356 62.2518 95.9384C61.4997 95.859 61.0051 95.7069 60.6788 94.9596C60.5219 94.6047 60.5152 94.2028 60.6616 93.844C60.8711 93.3159 61.1601 93.1915 61.6528 92.9667Z" fill="var(--fill-0, #BABABA)"/>
<path id="Vector_216" d="M29.056 92.9705C31.0064 92.9992 31.1858 95.2802 29.7597 95.9317C28.8571 95.9556 28.2729 95.7959 27.996 94.82C27.8734 94.399 27.9374 93.9464 28.1717 93.5762C28.4314 93.1561 28.5967 93.093 29.056 92.9705Z" fill="var(--fill-0, #BABABA)"/>
<path id="Vector_217" d="M38.2292 92.981C38.9338 93.0116 39.4668 93.248 39.6456 93.9588C39.9065 94.9969 39.5623 95.66 38.5792 95.9346C37.7295 95.9288 37.2114 95.6533 37.0198 94.7635C36.9286 94.3406 37.0124 93.8976 37.2522 93.5369C37.5308 93.1159 37.7571 93.0614 38.2292 92.981Z" fill="var(--fill-0, #BABABA)"/>
<path id="Vector_218" d="M44.2882 92.9705C44.9775 93.0203 45.3444 93.1944 45.5913 93.8862C45.7561 94.3578 45.7161 94.8774 45.4811 95.3184C45.2486 95.7586 44.9974 95.814 44.5459 95.948C43.2524 95.793 42.5463 94.9061 43.2021 93.5522C43.3952 93.1542 43.8636 93.0337 44.2882 92.9705Z" fill="var(--fill-0, #BABABA)"/>
<path id="Vector_219" d="M77.1601 92.9705C78.8077 93.1561 78.9512 95.3605 77.1209 95.9671C76.3679 95.8131 75.88 95.5739 75.6972 94.7501C75.6044 94.3339 75.6934 93.8976 75.9403 93.5503C76.2723 93.0834 76.6282 93.0471 77.1601 92.9705Z" fill="var(--fill-0, #BABABA)"/>
<path id="Vector_220" d="M70.8598 92.9801C72.8307 93.093 72.868 95.4007 71.2205 95.9661C70.389 95.8044 69.8724 95.5719 69.6724 94.6812C69.4505 93.6957 69.9595 93.1523 70.8598 92.9801Z" fill="var(--fill-0, #BABABA)"/>
<path id="Vector_221" d="M58.4696 92.9581C59.6464 92.9169 60.4989 93.3178 60.2645 94.7788C60.1717 95.3586 59.8598 95.616 59.3546 95.902C57.3588 95.8982 56.9914 93.8163 58.4696 92.9581Z" fill="var(--fill-0, #BABABA)"/>
<path id="Vector_222" d="M22.8292 93.0633C23.0532 93.026 23.2799 93.0078 23.507 93.0069C24.8692 93.0164 25.4387 94.8888 24.1117 95.8246C21.995 96.2436 21.5658 94.2019 22.8292 93.0633Z" fill="var(--fill-0, #BABABA)"/>
<path id="Vector_223" d="M40.9589 92.9676C43.0273 92.893 43.3172 95.393 41.6798 95.9231C39.5738 95.9116 39.5402 93.602 40.9589 92.9676Z" fill="var(--fill-0, #BABABA)"/>
<path id="Vector_224" d="M0.883685 106.258C1.08365 106.246 1.28419 106.247 1.48396 106.262C1.93756 106.301 2.36342 106.478 2.64203 106.849C2.85176 107.124 2.93012 107.477 2.85606 107.814C2.71819 108.422 2.44743 108.677 1.96407 109.012C0.95104 109.072 -0.07098 108.854 0.0229747 107.45C0.0574184 106.935 0.457157 106.537 0.883685 106.258Z" fill="var(--fill-0, #BABABA)"/>
<path id="Vector_225" d="M16.7644 93.0595C17.5817 93.0097 17.9934 92.9227 18.5512 93.5953C19.1288 94.2909 18.8358 95.3242 18.1848 95.8427C16.0162 96.1824 15.5261 94.2842 16.7644 93.0595Z" fill="var(--fill-0, #BABABA)"/>
<path id="Vector_226" d="M46.5972 93.07C47.3749 92.9542 47.8763 92.9246 48.3623 93.6364C48.8924 94.4152 48.6541 95.3777 47.8562 95.8513C45.7608 96.1766 45.3428 94.1234 46.5972 93.07Z" fill="var(--fill-0, #BABABA)"/>
<path id="Vector_227" d="M52.2344 83.5808C54.1776 83.7674 54.3364 85.9191 52.6601 86.5812C50.7619 86.4587 50.4127 84.2132 52.2344 83.5808Z" fill="var(--fill-0, #BABABA)"/>
<path id="Vector_228" d="M19.8356 93.0432C22.0434 92.7323 22.4619 94.9099 21.0584 95.8532C18.9808 96.1355 18.6011 94.2143 19.8356 93.0432Z" fill="var(--fill-0, #BABABA)"/>
<path id="Vector_229" d="M55.6443 92.959C57.7004 92.9255 57.885 95.2227 56.2891 95.9212C54.3326 95.8025 54.034 93.6307 55.6443 92.959Z" fill="var(--fill-0, #BABABA)"/>
<path id="Vector_230" d="M79.4621 93.0585C79.6248 93.0499 80.2935 93.004 80.4103 93.048C81.8091 93.5819 81.6818 95.1261 80.6638 95.8236C78.6776 96.279 78.049 94.1081 79.4621 93.0585Z" fill="var(--fill-0, #BABABA)"/>
<path id="Vector_231" d="M26.0698 92.9619C28.1215 93.0623 28.2768 95.2897 26.7874 95.926C25.9488 95.9327 25.4671 95.7585 25.1649 94.9041C25.0162 94.4879 25.0429 94.0287 25.2388 93.6326C25.4425 93.2183 25.6572 93.1064 26.0698 92.9619Z" fill="var(--fill-0, #BABABA)"/>
<path id="Vector_232" d="M14.0111 93.0461C16.1205 92.982 16.3557 95.0381 14.9079 95.9001C14.2465 95.9221 13.6618 95.9432 13.3033 95.2974C12.7748 94.3463 13.1782 93.5513 14.0111 93.0461Z" fill="var(--fill-0, #BABABA)"/>
<path id="Vector_233" d="M52.4583 93.0518C53.4992 92.9935 54.4694 93.0891 54.4321 94.6181C54.4187 95.1443 54.0848 95.5299 53.6523 95.8245C53.4658 95.8657 53.3567 95.8887 53.1653 95.8954C52.796 95.9088 52.4391 95.7671 52.1779 95.505C51.4431 94.7568 51.7168 93.6919 52.4583 93.0518Z" fill="var(--fill-0, #BABABA)"/>
<path id="Vector_234" d="M49.9888 92.9629C50.7227 92.9715 51.181 93.2068 51.4144 93.9349C51.5608 94.3913 51.5101 94.8869 51.2747 95.3041C51.0298 95.7413 50.7868 95.8035 50.3256 95.9154C48.613 95.9317 48.2351 93.5723 49.9888 92.9629Z" fill="var(--fill-0, #BABABA)"/>
<path id="Vector_235" d="M16.4078 60.8957C16.5817 60.891 17.098 60.8776 17.2385 60.9331C18.539 61.444 18.4813 63.1193 17.3017 63.7153C15.3883 63.8148 14.7557 61.664 16.4078 60.8957Z" fill="var(--fill-0, #BABABA)"/>
<path id="Vector_236" d="M16.1259 57.4562C16.7314 57.4304 17.2403 57.3236 17.7413 57.7394C18.5746 58.4311 18.2403 59.5027 17.5242 60.1734C15.6465 60.7063 14.9991 58.7363 16.1259 57.4562Z" fill="var(--fill-0, #BABABA)"/>
<path id="Vector_237" d="M16.8244 50.9421C18.8472 50.9515 19.0016 52.6453 17.6322 53.8461C15.594 53.6814 15.0936 52.1478 16.8244 50.9421Z" fill="var(--fill-0, #BABABA)"/>
<path id="Vector_238" d="M16.121 54.1108C17.0577 54.0363 18.1035 54.1622 18.1826 55.4684C18.2105 55.9311 17.8666 56.4319 17.5186 56.7363C15.3934 57.3281 15.0395 55.3232 16.121 54.1108Z" fill="var(--fill-0, #BABABA)"/>
<path id="Vector_239" d="M82.6309 93.0451C84.5359 92.9083 84.7683 95.2754 83.1705 95.9193C81.411 95.8226 80.969 93.888 82.6309 93.0451Z" fill="var(--fill-0, #BABABA)"/>
<path id="Vector_240" d="M85.2717 93.1398C87.1412 93.091 87.3861 94.9539 85.9873 95.9154C84.0661 95.8972 83.8633 93.8871 85.2717 93.1398Z" fill="var(--fill-0, #BABABA)"/>
<path id="Vector_241" d="M18.7352 48.448C20.4913 48.4855 20.741 50.129 19.137 51.1802C17.835 51.4043 17.0899 49.3732 18.7352 48.448Z" fill="var(--fill-0, #BABABA)"/>
<path id="Vector_242" d="M16.394 64.5946C16.8245 64.4368 17.3067 64.5248 17.654 64.8242C18.0013 65.1237 18.1591 65.5877 18.0663 66.0365C17.9736 66.4852 17.6449 66.8488 17.2074 66.9865C16.5527 67.1922 15.8536 66.8373 15.6327 66.1876C15.4118 65.538 15.7497 64.8309 16.394 64.5946Z" fill="var(--fill-0, #BABABA)"/>
<path id="Vector_243" d="M16.2822 68.0419C16.6666 67.8467 17.1264 67.8744 17.4841 68.1155C17.8419 68.3557 18.0415 68.7709 18.0058 69.2005C17.9701 69.6301 17.7047 70.0071 17.3121 70.185C16.7233 70.452 16.029 70.2003 15.7489 69.6177C15.469 69.035 15.7058 68.3346 16.2822 68.0419Z" fill="var(--fill-0, #BABABA)"/>
<path id="Vector_244" d="M12.3469 94.0048C12.5308 95.6657 11.5358 96.2952 10.0407 95.6571C9.80091 95.3825 9.81507 95.3567 9.70705 95.0199C9.92844 94.1425 11.0816 95.04 12.3469 94.0048Z" fill="var(--fill-0, #BABABA)"/>
</g>
</svg>
