<svg preserveAspectRatio="none" width="100%" height="100%" overflow="visible" style="display: block;" viewBox="0 0 120.737 100" fill="none" xmlns="http://www.w3.org/2000/svg">
<g id="Group 48095685" opacity="0.48">
<path id="Vector" d="M104.354 72.7789C107.933 72.6056 112.556 72.7438 116.212 72.7468L116.176 80.6011C115.192 80.6439 114.012 80.6206 113.011 80.6245C111.444 80.6245 101.85 80.7481 101.285 80.4512C100.905 79.513 101.118 76.4336 101.237 75.3318C101.391 73.8943 103.064 73.0533 104.354 72.7789Z" fill="var(--fill-0, #BABABA)"/>
<path id="Vector_2" d="M107.88 60.9173C110.618 60.8559 113.495 60.8959 116.244 60.8949C116.25 62.0015 116.45 67.7244 116.008 68.3697C115.294 68.6831 113.404 68.5624 112.544 68.5507C110.526 68.5546 107.316 68.8388 105.733 67.6845C104.901 67.0762 104.357 66.1516 104.231 65.1286C103.896 62.6137 105.478 61.1158 107.88 60.9173Z" fill="var(--fill-0, #BABABA)"/>
<path id="Vector_3" d="M111.736 63.6015C112.206 63.5898 112.729 63.6064 113.203 63.6103C113.299 63.7047 113.393 63.802 113.485 63.9013C114.175 64.6643 113.938 65.3466 113.215 65.9588C113.053 65.9899 112.887 66.0065 112.722 66.0094C111.439 66.0357 110.471 64.7578 111.736 63.6015Z" fill="var(--fill-0, #BABABA)"/>
<path id="Vector_4" d="M16.8185 71.577C18.7214 71.4223 22.3608 71.5556 24.333 71.6257C25.1203 71.6539 25.7 72.5318 26.1206 73.1421C26.1756 75.185 26.7425 77.4907 24.7579 78.6421C23.007 78.7949 21.1414 78.6703 19.3962 78.717C17.3122 78.7715 15.1677 78.7696 15.4307 76.0463C15.638 73.8973 14.7268 72.9552 16.8185 71.577Z" fill="var(--fill-0, #BABABA)"/>
<path id="Vector_5" d="M18.8678 74.1081C20.6394 74.0419 20.8867 75.5563 19.6242 76.2143C17.9779 76.3038 17.4066 74.7573 18.8678 74.1081Z" fill="var(--fill-0, #BABABA)"/>
<path id="Vector_6" d="M21.6538 74.2088C23.1653 74.1251 23.9491 75.3183 22.6665 76.1339C21.2941 76.4269 20.5215 75.1431 21.6538 74.2088Z" fill="var(--fill-0, #BABABA)"/>
<path id="Vector_7" d="M6.47654 71.5007C7.64078 71.5173 8.83548 71.5046 9.99903 71.4949C11.7046 71.4803 12.659 71.4122 13.5826 72.9986C13.6507 74.3174 13.664 76.2095 13.5749 77.5127C13.1586 78.1765 12.8884 78.4636 12.1545 78.6903C10.1569 78.7147 7.63143 78.921 5.71096 78.4947C4.83618 78.0567 4.68395 76.4878 4.70936 75.7783C4.77233 74.0176 4.3618 72.1188 6.47654 71.5007Z" fill="var(--fill-0, #BABABA)"/>
<path id="Vector_8" d="M99.9045 12.9095C101.556 12.8813 103.402 12.8094 105.047 12.8814C106.005 12.9233 106.463 13.3574 107 14.0712C107.154 15.1404 107.291 17.2959 106.918 18.318C106.728 18.8372 106.42 19.0023 105.949 19.2199C103.9 19.2862 101.546 19.2407 99.4997 19.2095C99.0198 18.8432 98.9546 18.7712 98.5955 18.2838C98.5234 16.5071 97.8928 13.5837 99.9045 12.9095Z" fill="var(--fill-0, #BABABA)"/>
<path id="Vector_9" d="M89.7676 12.9124C91.208 12.8376 92.9278 12.8587 94.3809 12.8671C95.4106 12.8731 96.0257 13.2714 96.6827 14.0069C96.709 14.8726 96.7489 15.7456 96.7518 16.6114C96.7557 17.827 96.7995 18.8702 95.4428 19.2334C93.431 19.2336 91.3336 19.2634 89.3296 19.1987C88.8507 18.7556 88.7777 18.6362 88.4322 18.1052C88.3485 16.8435 88.2843 15.1522 88.4575 13.9338C88.9179 13.323 89.059 13.1909 89.7676 12.9124Z" fill="var(--fill-0, #BABABA)"/>
<path id="Vector_10" d="M92.6932 62.4355C93.975 62.3809 95.3094 62.3809 96.5931 62.4501C97.3474 62.4909 97.1926 63.3883 97.2141 63.9431C97.2355 64.5134 97.2413 65.0341 96.6943 65.3378C95.9186 65.3806 95.1419 65.4176 94.3662 65.4487C92.3282 65.5178 91.8854 65.0614 92.1511 63.0992C92.1949 62.778 92.4606 62.6106 92.6932 62.4355Z" fill="var(--fill-0, #BABABA)"/>
<path id="Vector_11" d="M57.325 10.3547C58.4161 10.332 60.2226 10.0818 61.1618 10.5323C61.9813 10.9255 61.7058 12.4828 61.2387 13.1092C60.4931 13.3376 59.8994 13.2489 59.1714 13.3333C57.0152 13.5831 56.5508 12.1452 57.325 10.3547Z" fill="var(--fill-0, #BABABA)"/>
<path id="Vector_12" d="M67.0541 20.8902C68.367 20.8399 68.5724 21.4495 68.879 22.5846C68.661 23.6646 68.5588 23.9084 67.4882 24.18C66.6502 24.1422 65.9932 23.9362 65.7129 23.0444C65.5757 22.6114 65.6224 22.1411 65.8424 21.7436C66.1528 21.1843 66.4789 21.0664 67.0541 20.8902Z" fill="var(--fill-0, #BABABA)"/>
<path id="Vector_13" d="M66.9688 45.701C67.8058 45.6702 68.4248 45.9145 68.7168 46.7725C68.8803 47.253 68.8355 47.7799 68.5932 48.2258C68.3187 48.7369 68.0374 48.8453 67.5148 49.0116C66.1493 48.895 66.0072 48.5759 65.5215 47.3658C65.8641 46.3865 65.9069 46.0012 66.9688 45.701Z" fill="var(--fill-0, #BABABA)"/>
<path id="Vector_14" d="M66.5735 31.6229C67.3833 31.2578 68.3361 31.6138 68.7089 32.4204C69.0806 33.227 68.7332 34.1828 67.9293 34.5619C67.1166 34.9457 66.1462 34.5928 65.7696 33.7761C65.3929 32.9596 65.754 31.9924 66.5735 31.6229Z" fill="var(--fill-0, #BABABA)"/>
<path id="Vector_15" d="M66.6683 13.6933C66.9067 13.6803 67.5296 13.6296 67.7379 13.7013C68.5954 13.9954 69.1881 15.0772 68.7696 15.9343C68.5156 16.4532 68.3229 16.578 67.7992 16.7762C65.2551 16.9824 65.0575 14.433 66.6683 13.6933Z" fill="var(--fill-0, #BABABA)"/>
<path id="Vector_16" d="M66.8284 17.3388C67.68 17.1096 68.5579 17.6082 68.7973 18.4573C69.0368 19.3065 68.5491 20.1904 67.7034 20.4403C67.1467 20.6048 66.5442 20.4572 66.1266 20.0539C65.7101 19.6507 65.5417 19.0541 65.6867 18.4921C65.8317 17.9301 66.2678 17.4896 66.8284 17.3388Z" fill="var(--fill-0, #BABABA)"/>
<path id="Vector_17" d="M67.6113 9.991C68.3004 10.2843 68.8191 10.7748 68.8639 11.5617C68.8911 12.0138 68.7344 12.4576 68.4288 12.7915C68.0054 13.2597 67.6609 13.2818 67.076 13.2891C65.8847 12.9471 65.2199 12.0122 65.9859 10.8253C66.3859 10.2042 66.929 10.1232 67.6113 9.991Z" fill="var(--fill-0, #BABABA)"/>
<path id="Vector_18" d="M66.7516 6.60772C67.5799 6.32946 68.4782 6.76509 68.7731 7.58771C69.0671 8.41032 68.6486 9.31722 67.832 9.6276C67.2899 9.83384 66.6777 9.73077 66.2329 9.3581C65.7881 8.98543 65.5788 8.40137 65.6859 7.83093C65.7939 7.2604 66.2008 6.79254 66.7516 6.60772Z" fill="var(--fill-0, #BABABA)"/>
<path id="Vector_19" d="M67.6161 35.1214C69.149 35.1824 69.6502 38.1941 67.0107 38.2071C64.997 37.6492 65.1916 35.2728 67.6161 35.1214Z" fill="var(--fill-0, #BABABA)"/>
<path id="Vector_20" d="M66.6246 24.6338C67.1579 24.4138 67.7692 24.5013 68.2188 24.862C68.6694 25.2227 68.8884 25.7998 68.7901 26.3685C68.6928 26.9372 68.2938 27.4076 67.7477 27.5968C66.938 27.878 66.0503 27.4635 65.7467 26.6613C65.442 25.8592 65.8314 24.9607 66.6246 24.6338Z" fill="var(--fill-0, #BABABA)"/>
<path id="Vector_21" d="M66.6096 28.0765C67.7406 28.0401 69.1109 28.251 68.7898 29.9898C68.6924 30.5147 68.2077 30.8683 67.7318 31.1027C65.4349 31.1584 64.8665 29.1683 66.6096 28.0765Z" fill="var(--fill-0, #BABABA)"/>
<path id="Vector_22" d="M66.6687 38.7049C67.0931 38.6687 67.642 38.5848 68.0177 38.7915C68.3934 39.0015 68.6737 39.3481 68.8002 39.7595C69.0659 40.6513 68.5608 41.4373 67.6819 41.6789C65.3285 41.7925 64.9888 39.4315 66.6687 38.7049Z" fill="var(--fill-0, #BABABA)"/>
<path id="Vector_23" d="M66.9562 42.1778C68.1076 42.3178 69.0838 42.6802 68.7315 44.234C68.6049 44.7908 68.1417 45.0871 67.6463 45.3329C65.216 45.3422 64.9367 43.3599 66.9562 42.1778Z" fill="var(--fill-0, #BABABA)"/>
<path id="Vector_24" d="M1.18725 68.9718C1.39446 68.9572 1.94573 68.9086 2.12608 68.9845C2.9156 69.3212 3.42754 70.313 3.07745 71.1335C2.86878 71.623 2.52376 71.8459 2.04996 72.0299C0.999601 71.9851 -0.208528 71.7495 0.0508504 70.1543C0.136304 69.6288 0.711998 69.2064 1.18725 68.9718Z" fill="var(--fill-0, #BABABA)"/>
<path id="Vector_25" d="M51.4076 54.0737C52.1564 54.0202 54.3433 53.9735 54.193 55.5161C54.159 55.8665 53.5193 56.431 53.1887 56.612C51.0529 56.9283 49.2534 55.2971 51.4076 54.0737Z" fill="var(--fill-0, #BABABA)"/>
<path id="Vector_26" d="M69.8989 90.8337C70.7009 90.5106 71.6119 90.9009 71.9321 91.7038C72.2523 92.5068 71.8591 93.4168 71.0542 93.7341C70.2551 94.0494 69.35 93.6582 69.0317 92.8591C68.7135 92.061 69.1008 91.1549 69.8989 90.8337Z" fill="var(--fill-0, #BABABA)"/>
<path id="Vector_27" d="M1.01078 72.3746C1.47873 72.3493 2.00401 72.3601 2.47732 72.3571C3.4033 73.528 3.51795 74.3465 2.25152 75.2672C1.16232 75.311 -0.210002 75.0998 0.0269912 73.3995C0.0907409 72.943 0.592174 72.5722 1.01078 72.3746Z" fill="var(--fill-0, #BABABA)"/>
<path id="Vector_28" d="M1.32862 65.7719C1.54916 65.7534 2.07687 65.694 2.27036 65.7787C2.69442 65.9616 3.01638 66.3227 3.15089 66.7646C3.2706 67.1734 3.21707 67.6133 3.00295 67.9812C2.73666 68.4435 2.45071 68.5097 1.96952 68.6459C1.07479 68.6888 0.383271 68.5885 0.0933307 67.5792C-0.014606 67.2094 0.0368812 66.8113 0.235236 66.4804C0.516708 66.0045 0.82699 65.9071 1.32862 65.7719Z" fill="var(--fill-0, #BABABA)"/>
<path id="Vector_29" d="M118.592 53.7668C120.954 53.7191 121.398 55.907 119.76 56.6837C119.546 56.6924 118.935 56.7314 118.749 56.6623C117.171 56.0686 117.056 54.4471 118.592 53.7668Z" fill="var(--fill-0, #BABABA)"/>
<path id="Vector_30" d="M83.2154 26.4455C83.522 26.4171 83.6319 26.3947 83.9444 26.4446L83.9901 26.6756C86.108 27.6628 84.6471 30.147 82.8475 29.5501C82.5419 29.4492 82.2927 29.2262 82.1594 28.9343C81.6309 27.8076 82.0854 27.1109 83.1346 26.6969L83.2154 26.4455Z" fill="var(--fill-0, #BABABA)"/>
<path id="Vector_31" d="M53.6431 87.8824C54.4673 87.7451 55.2505 88.2911 55.4063 89.1126C55.5622 89.9331 55.0335 90.7282 54.2161 90.9015C53.6712 91.0183 53.1061 90.8295 52.7395 90.41C52.3727 89.9905 52.2617 89.4055 52.4492 88.8809C52.6368 88.3563 53.0936 87.9748 53.6431 87.8824Z" fill="var(--fill-0, #BABABA)"/>
<path id="Vector_32" d="M2.11165 75.6192C2.6562 75.7049 3.06449 76.2995 3.13242 76.828C3.1953 77.2865 3.06176 77.7507 2.76472 78.106C2.37132 78.5731 1.90959 78.5478 1.33877 78.579C0.780882 78.4125 0.0599758 77.923 0.0331133 77.3283C-0.0314151 75.9015 1.1116 75.6601 2.11165 75.6192Z" fill="var(--fill-0, #BABABA)"/>
<path id="Vector_33" d="M66.813 49.3153C67.7172 49.2709 68.4472 49.5078 68.6992 50.4898C68.7956 50.86 68.7382 51.2532 68.5406 51.5809C68.2759 52.0239 68.0033 52.0755 67.5216 52.2078C66.7137 52.2312 66.084 52.1699 65.7142 51.3262C65.5633 50.9867 65.5585 50.6002 65.7015 50.2571C65.9526 49.6682 66.2544 49.5324 66.813 49.3153Z" fill="var(--fill-0, #BABABA)"/>
<path id="Vector_34" d="M26.804 38.2924C29.1083 38.3659 29.2782 40.6131 27.6844 41.3093C26.3785 41.3326 25.321 40.5762 25.7919 39.0465C25.9288 38.602 26.3717 38.4212 26.804 38.2924Z" fill="var(--fill-0, #BABABA)"/>
<path id="Vector_35" d="M83.1745 14.0673C83.8499 13.9296 84.5341 14.262 84.8427 14.8782C85.0548 15.3011 85.0587 15.7984 84.8534 16.2246C84.648 16.6508 84.2567 16.9576 83.7935 17.0551C82.9672 17.2293 82.1564 16.6988 81.9851 15.8718C81.8138 15.0447 82.3472 14.2359 83.1745 14.0673Z" fill="var(--fill-0, #BABABA)"/>
<path id="Vector_36" d="M118.702 85.1275C121.053 84.927 121.234 87.4059 119.595 88.0269C117.171 88.0561 116.911 85.6278 118.702 85.1275Z" fill="var(--fill-0, #BABABA)"/>
<path id="Vector_37" d="M0.886028 82.0023C1.34824 81.9692 1.85191 81.9886 2.3184 81.9935C3.45315 82.9356 3.55826 83.9206 2.30672 84.817C0.240353 84.9572 -0.866264 83.2753 0.886028 82.0023Z" fill="var(--fill-0, #BABABA)"/>
<path id="Vector_38" d="M118.571 56.9789C121.092 56.8582 121.273 59.3352 119.635 59.8958C117.547 59.9338 116.728 58.0076 118.571 56.9789Z" fill="var(--fill-0, #BABABA)"/>
<path id="Vector_39" d="M118.6 81.8998L119.94 81.9028C120.761 82.8468 121.088 84.2912 119.642 84.771C118.843 84.7545 118.19 84.773 117.708 83.9885C117.535 83.7131 117.486 83.3773 117.573 83.0629C117.73 82.4838 118.119 82.1947 118.6 81.8998Z" fill="var(--fill-0, #BABABA)"/>
<path id="Vector_40" d="M82.9751 32.9693C83.1932 32.9512 83.8316 32.8904 84.0156 32.9773C85.3675 33.6153 85.3821 35.2495 83.9874 35.8171C83.6243 35.8093 83.0734 35.8267 82.7591 35.6438C81.6057 34.9715 81.5522 33.3421 82.9751 32.9693Z" fill="var(--fill-0, #BABABA)"/>
<path id="Vector_41" d="M47.8702 76.3535C48.6615 76.2017 49.433 76.6961 49.6251 77.4786C49.8171 78.2611 49.3625 79.0573 48.5909 79.2889C48.0553 79.4505 47.4745 79.3025 47.0807 78.9054C46.6867 78.5083 46.5438 77.9263 46.7091 77.392C46.8744 76.8577 47.3209 76.4586 47.8702 76.3535Z" fill="var(--fill-0, #BABABA)"/>
<path id="Vector_42" d="M83.2123 26.4463C80.2847 25.7475 82.9943 21.5521 84.9136 24.5076C85.4372 25.3144 84.7433 26.1612 83.9413 26.4454C83.6289 26.3956 83.5189 26.418 83.2123 26.4463Z" fill="var(--fill-0, #BABABA)"/>
<path id="Vector_43" d="M82.933 7.74571C85.1395 7.56585 85.9891 9.30978 84.3287 10.5993C83.4226 10.619 82.8931 10.6318 82.2975 9.84274C81.7242 9.08427 82.206 8.17318 82.933 7.74571Z" fill="var(--fill-0, #BABABA)"/>
<path id="Vector_44" d="M82.9472 20.5069C83.1925 20.4848 83.7434 20.4269 83.9653 20.5218C85.2636 21.0756 85.4495 22.6481 84.157 23.3129C83.8524 23.3195 83.1905 23.3563 82.9297 23.2519C81.5447 22.6976 81.5632 21.0406 82.9472 20.5069Z" fill="var(--fill-0, #BABABA)"/>
<path id="Vector_45" d="M82.9643 17.3709C83.7761 17.3349 84.3863 17.3307 84.8116 18.1376C85.2788 19.0239 84.8321 19.7834 84.0398 20.2106C82.9527 20.2298 81.5541 19.985 81.9551 18.3018C82.0592 17.8657 82.5507 17.5463 82.9643 17.3709Z" fill="var(--fill-0, #BABABA)"/>
<path id="Vector_46" d="M1.73234 85.2273C3.58244 85.094 3.87082 87.787 1.63219 88.0956C-0.341722 87.7277 -0.694825 85.6137 1.73234 85.2273Z" fill="var(--fill-0, #BABABA)"/>
<path id="Vector_47" d="M66.8091 3.26194C69.2248 3.23245 69.3192 5.83178 67.6685 6.14897C65.2869 6.2462 65.0854 3.96523 66.8091 3.26194Z" fill="var(--fill-0, #BABABA)"/>
<path id="Vector_48" d="M38.1786 66.6206C39.0188 66.5748 39.6258 66.6293 40.1071 67.3934C40.6567 68.2664 40.2853 69.0129 39.5076 69.5073C38.7769 69.5482 38.1524 69.6183 37.6378 68.9915C36.891 68.0815 37.4365 67.2337 38.1786 66.6206Z" fill="var(--fill-0, #BABABA)"/>
<path id="Vector_49" d="M111.518 26.6219C113.224 26.4483 113.865 28.8822 112.075 29.5333C111.742 29.5511 111.17 29.6038 110.905 29.4171C109.595 28.4987 109.976 26.9239 111.518 26.6219Z" fill="var(--fill-0, #BABABA)"/>
<path id="Vector_50" d="M118.416 69.4372H119.853C120.8 70.2684 121.015 71.484 119.822 72.1974C119.562 72.2354 119.299 72.2519 119.036 72.2471C117.482 72.2081 116.987 70.5867 118.416 69.4372Z" fill="var(--fill-0, #BABABA)"/>
<path id="Vector_51" d="M118.99 88.3421C121.047 88.2546 121.148 90.933 119.471 91.1559C118.563 91.1306 117.739 91.0206 117.55 89.9023C117.488 89.549 117.58 89.187 117.802 88.9047C118.146 88.458 118.467 88.4093 118.99 88.3421Z" fill="var(--fill-0, #BABABA)"/>
<path id="Vector_52" d="M118.593 75.6777C120.871 75.5512 121.312 77.6846 119.726 78.4856C119.347 78.5012 118.846 78.5547 118.5 78.3805C117.18 77.7167 117.144 76.1857 118.593 75.6777Z" fill="var(--fill-0, #BABABA)"/>
<path id="Vector_53" d="M110.887 32.9498C111.09 32.9367 111.761 32.8925 111.904 32.9331C113.371 33.3484 113.459 34.9822 112.325 35.7685C111.236 35.8344 109.835 35.59 110.076 33.9496C110.14 33.5235 110.51 33.1662 110.887 32.9498Z" fill="var(--fill-0, #BABABA)"/>
<path id="Vector_54" d="M82.6507 29.9353C83.5266 29.8836 85.0994 29.7864 85.0391 31.3919C85.0216 31.8607 84.6693 32.3483 84.278 32.6266C83.9967 32.6667 83.7135 32.687 83.4303 32.6873C81.9081 32.6942 81.3825 31.0026 82.6507 29.9353Z" fill="var(--fill-0, #BABABA)"/>
<path id="Vector_55" d="M118.779 66.3465C121.035 66.2345 121.182 68.6162 119.648 69.1077C119.207 69.1281 118.695 69.1972 118.318 68.951C117.075 68.1412 117.267 66.6443 118.779 66.3465Z" fill="var(--fill-0, #BABABA)"/>
<path id="Vector_56" d="M41.1948 38.3912C43.1755 38.2432 44.0249 40.2575 42.3452 41.2895C41.3302 41.3521 40.1353 41.2042 40.2206 39.7172C40.2525 39.1594 40.7436 38.699 41.1948 38.3912Z" fill="var(--fill-0, #BABABA)"/>
<path id="Vector_57" d="M118.752 72.5574C121.015 72.4679 121.235 74.6743 119.615 75.3809C118.7 75.3994 117.891 75.2242 117.578 74.2198C117.479 73.9103 117.517 73.5745 117.682 73.2951C117.939 72.8543 118.29 72.6937 118.752 72.5574Z" fill="var(--fill-0, #BABABA)"/>
<path id="Vector_58" d="M111.138 23.4106C113.432 23.2676 113.764 25.5206 112.252 26.277C109.955 26.5205 109.416 24.4618 111.138 23.4106Z" fill="var(--fill-0, #BABABA)"/>
<path id="Vector_59" d="M47.6828 73.072C48.4606 72.8004 49.3115 73.2092 49.5866 73.9859C49.8616 74.7626 49.4571 75.6151 48.6818 75.8935C47.9016 76.1738 47.0424 75.766 46.7657 74.9845C46.489 74.2029 46.9002 73.3455 47.6828 73.072Z" fill="var(--fill-0, #BABABA)"/>
<path id="Vector_60" d="M53.2424 2.51809C53.1457 1.52116 53.0892 -0.242908 54.8679 0.0857685C55.3422 0.173364 55.6541 0.461941 55.8983 0.881619L56.2243 1.01311L56.2126 1.78716L55.9333 1.81003C55.577 3.45565 54.3667 3.14887 53.2424 2.51809Z" fill="var(--fill-0, #BABABA)"/>
<path id="Vector_61" d="M82.869 88.4747C83.3654 88.2557 83.9425 88.3229 84.3747 88.6509C84.8078 88.9789 85.0297 89.5152 84.9528 90.0534C84.8769 90.5906 84.5158 91.0451 84.0087 91.2398C83.2505 91.5308 82.3989 91.1649 82.0894 90.4135C81.7799 89.6631 82.1254 88.8027 82.869 88.4747Z" fill="var(--fill-0, #BABABA)"/>
<path id="Vector_62" d="M82.806 85.2585C83.2975 85.0346 83.8718 85.093 84.3078 85.4113C84.7438 85.7305 84.9745 86.26 84.9103 86.7963C84.846 87.3325 84.4976 87.7929 83.9983 87.9992C83.245 88.3117 82.3797 87.9632 82.0547 87.2148C81.7296 86.4673 82.0634 85.5962 82.806 85.2585Z" fill="var(--fill-0, #BABABA)"/>
<path id="Vector_63" d="M118.592 78.8013C121.111 78.6008 121.158 81.0953 119.626 81.5741C117.496 81.6452 116.628 79.9575 118.592 78.8013Z" fill="var(--fill-0, #BABABA)"/>
<path id="Vector_64" d="M83.0617 57.0777C85.3577 56.9619 85.7558 59.3192 84.0058 59.9635C83.6438 59.9187 83.2233 59.9178 82.8525 59.9041C81.779 58.9318 81.6826 57.7941 83.0617 57.0777Z" fill="var(--fill-0, #BABABA)"/>
<path id="Vector_65" d="M83.1063 10.9455C85.4509 10.736 85.5511 13.4385 83.844 13.832C81.7018 13.7609 81.2745 11.9629 83.1063 10.9455Z" fill="var(--fill-0, #BABABA)"/>
<path id="Vector_66" d="M118.578 60.2071C119.731 60.137 120.967 60.4806 120.573 62.1449C120.488 62.505 120.077 62.7941 119.738 62.9556C118.911 62.9751 118.28 62.9809 117.745 62.2461C117.117 61.3818 117.859 60.6217 118.578 60.2071Z" fill="var(--fill-0, #BABABA)"/>
<path id="Vector_67" d="M47.6225 69.7612C48.1438 69.5646 48.7311 69.6755 49.1453 70.0473C49.5595 70.4201 49.7316 70.9924 49.5916 71.5316C49.4516 72.0708 49.0228 72.4864 48.4797 72.6109C47.7151 72.7852 46.9461 72.3374 46.7202 71.5861C46.4943 70.8347 46.8887 70.0376 47.6225 69.7612Z" fill="var(--fill-0, #BABABA)"/>
<path id="Vector_68" d="M1.11257 78.9004C2.22561 78.8284 3.53321 79.0503 3.09767 80.7545C2.99373 81.1604 2.55507 81.4543 2.15067 81.5896C1.28903 81.6295 0.589043 81.5954 0.145325 80.6971C0.0080927 80.4217 -0.00679819 80.1005 0.104253 79.8134C0.2956 79.3082 0.657661 79.1194 1.11257 78.9004Z" fill="var(--fill-0, #BABABA)"/>
<path id="Vector_69" d="M118.826 63.2254C121.07 63.1962 121.127 65.7637 119.606 66.0284C118.481 66.079 117.247 65.5797 117.645 64.0916C117.765 63.6419 118.4 63.3675 118.826 63.2254Z" fill="var(--fill-0, #BABABA)"/>
<path id="Vector_70" d="M44.7724 66.6277C45.607 66.5917 46.1751 66.7961 46.486 67.6419C46.639 68.0507 46.6065 68.5062 46.397 68.8896C46.1725 69.3033 45.9371 69.3938 45.5094 69.5281C43.0671 69.6196 43.1141 67.0822 44.7724 66.6277Z" fill="var(--fill-0, #BABABA)"/>
<path id="Vector_71" d="M82.9023 91.6322C83.1573 91.6214 83.6819 91.5884 83.9165 91.6769C85.2197 92.1723 85.3735 93.9038 84.0148 94.4284C83.5992 94.444 83.1388 94.4352 82.7193 94.4362C81.6127 93.4522 81.6458 92.4487 82.9023 91.6322Z" fill="var(--fill-0, #BABABA)"/>
<path id="Vector_72" d="M41.3958 66.6301C42.2967 66.5941 42.9062 66.6885 43.3148 67.5898C43.7004 68.4404 43.2668 69.1402 42.5151 69.5159C41.2871 69.6005 40.257 69.1927 40.5471 67.5654C40.6243 67.1323 40.9976 66.8238 41.3958 66.6301Z" fill="var(--fill-0, #BABABA)"/>
<path id="Vector_73" d="M56.2261 1.01092C57.3272 -1.76488 60.8771 1.94974 58.1568 2.94044C57.1933 3.29112 56.4553 2.77275 56.2144 1.78497L56.2261 1.01092Z" fill="var(--fill-0, #BABABA)"/>
<path id="Vector_74" d="M86.0432 62.4424C86.9065 62.4161 87.581 62.4044 88.0822 63.2259C88.6029 64.0794 87.8837 64.7384 87.2208 65.1179C85.0777 65.3632 84.2163 63.7154 86.0432 62.4424Z" fill="var(--fill-0, #BABABA)"/>
<path id="Vector_75" d="M111.084 20.3044C112.131 20.2759 113.209 20.4774 113.15 21.9942C113.132 22.4581 112.714 22.8775 112.32 23.127C111.502 23.1371 110.907 23.225 110.357 22.4811C109.75 21.6573 110.364 20.7743 111.084 20.3044Z" fill="var(--fill-0, #BABABA)"/>
<path id="Vector_76" d="M51.6668 94.2596C53.8693 94.0376 54.6746 95.8012 53.013 96.9594C50.7304 97.5035 50.1999 95.3915 51.6668 94.2596Z" fill="var(--fill-0, #BABABA)"/>
<path id="Vector_77" d="M34.1405 73.026C34.9802 73.0922 35.6438 73.1993 36.0298 74.0441C36.4195 74.8967 35.8976 75.5604 35.1383 75.8807C32.9839 76.1911 32.4236 74.2261 34.1405 73.026Z" fill="var(--fill-0, #BABABA)"/>
<path id="Vector_78" d="M47.5456 66.6088C47.7631 66.6107 48.0263 66.6146 48.2394 66.6419C48.7544 66.7081 49.2152 66.9952 49.5029 67.4273C50.021 68.2157 49.5492 68.9661 48.8545 69.4264C46.6211 69.6532 45.8858 67.4001 47.5456 66.6088Z" fill="var(--fill-0, #BABABA)"/>
<path id="Vector_79" d="M70.0415 84.3848C70.5437 84.2096 71.1024 84.3186 71.5014 84.67C71.9014 85.0223 72.0815 85.5615 71.9715 86.0822C71.8615 86.6039 71.48 87.0253 70.9729 87.1859C70.2031 87.4302 69.3806 87.0107 69.1256 86.2447C68.8706 85.4788 69.2785 84.6505 70.0415 84.3848Z" fill="var(--fill-0, #BABABA)"/>
<path id="Vector_80" d="M56.0021 85.2985C56.681 85.4397 57.2086 85.6742 57.4181 86.3964C57.5316 86.7877 57.4821 87.2071 57.2809 87.5604C57.0144 88.0374 56.7176 88.2456 56.2162 88.4062C54.2219 88.0685 53.876 85.901 56.0021 85.2985Z" fill="var(--fill-0, #BABABA)"/>
<path id="Vector_81" d="M111.174 17.1751C112.333 17.1121 113.37 17.5215 113.122 19.0596C113.055 19.4745 112.664 19.7873 112.293 19.9865L112.004 19.9858C110.016 19.9929 109.466 18.295 111.174 17.1751Z" fill="var(--fill-0, #BABABA)"/>
<path id="Vector_82" d="M28.7588 66.6562C29.5427 66.4207 30.369 66.8674 30.6004 67.6529C30.8317 68.4383 30.3796 69.2617 29.5928 69.4885C28.813 69.7123 27.9979 69.2656 27.7686 68.487C27.5393 67.7083 27.9817 66.8908 28.7588 66.6562Z" fill="var(--fill-0, #BABABA)"/>
<path id="Vector_83" d="M111.912 29.8748C113.252 29.9801 113.441 31.4354 112.676 32.3134C112.346 32.6919 111.935 32.6536 111.466 32.6587C110.105 32.5055 109.728 31.3349 110.547 30.2617C110.873 29.8348 111.411 29.8838 111.912 29.8748Z" fill="var(--fill-0, #BABABA)"/>
<path id="Vector_84" d="M69.9558 94.1623C70.3772 94.1321 70.8434 94.1623 71.2697 94.1769C72.2897 95.1648 72.2731 96.0699 71.0789 96.8875C68.8715 97.3255 68.2574 95.1434 69.9558 94.1623Z" fill="var(--fill-0, #BABABA)"/>
<path id="Vector_85" d="M118.462 91.5414C118.758 91.5219 119.436 91.4567 119.685 91.5599C121.074 92.1341 120.97 93.7011 119.635 94.2325C118.75 94.2646 118.277 94.2724 117.751 93.4393C117.244 92.6354 117.755 91.9356 118.462 91.5414Z" fill="var(--fill-0, #BABABA)"/>
<path id="Vector_86" d="M111.062 36.0722C111.568 35.9026 112.127 36.0199 112.522 36.3788C112.917 36.7376 113.088 37.282 112.967 37.802C112.847 38.322 112.455 38.7364 111.942 38.8854C111.172 39.1095 110.364 38.6759 110.124 37.9099C109.885 37.1439 110.302 36.3271 111.062 36.0722Z" fill="var(--fill-0, #BABABA)"/>
<path id="Vector_87" d="M70.316 87.5443C72.2333 87.4519 72.6937 89.7712 70.8211 90.3513C70.0026 90.3922 69.3223 90.2578 69.0488 89.3634C68.9359 88.9877 68.9836 88.5819 69.1802 88.2432C69.4673 87.74 69.7855 87.6718 70.316 87.5443Z" fill="var(--fill-0, #BABABA)"/>
<path id="Vector_88" d="M9.38255 47.7363C10.4424 47.6815 11.592 47.8815 11.352 49.4514C11.2753 49.9534 10.8668 50.304 10.4225 50.5498C8.30455 50.6008 7.60856 48.5939 9.38255 47.7363Z" fill="var(--fill-0, #BABABA)"/>
<path id="Vector_89" d="M85.0946 73.5804C86.0971 70.6615 89.634 73.8792 87.0178 75.2827C86.4961 75.563 85.6396 75.05 85.226 74.7026L84.9165 74.5994L84.8883 73.9016L85.0946 73.5804Z" fill="var(--fill-0, #BABABA)"/>
<path id="Vector_90" d="M22.3101 66.6208C23.0897 66.5955 23.5709 66.5468 24.0678 67.2388C24.6421 68.0388 24.2599 68.9703 23.4908 69.4637C21.1846 69.7236 20.7543 67.4617 22.3101 66.6208Z" fill="var(--fill-0, #BABABA)"/>
<path id="Vector_91" d="M35.2194 66.6294C37.3359 66.4931 37.4325 68.9039 35.903 69.5375C35.6481 69.5424 35.0475 69.5726 34.8464 69.4266C33.6627 68.5652 33.739 67.0245 35.2194 66.6294Z" fill="var(--fill-0, #BABABA)"/>
<path id="Vector_92" d="M82.9515 60.2874C83.1413 60.2806 83.7516 60.2514 83.9102 60.3146C85.2417 60.8431 85.74 62.267 84.2518 62.9756C82.0415 63.2403 81.295 61.758 82.9515 60.2874Z" fill="var(--fill-0, #BABABA)"/>
<path id="Vector_93" d="M111.207 13.9646C113.349 13.8517 113.851 16.0493 112.361 16.7784L112.089 16.7827C109.959 16.8289 109.566 15.1913 111.207 13.9646Z" fill="var(--fill-0, #BABABA)"/>
<path id="Vector_94" d="M32.0071 66.6219C32.7652 66.582 33.3198 66.7436 33.6575 67.4911C33.8366 67.8784 33.8428 68.3242 33.6746 68.7174C33.4803 69.1826 33.2305 69.3471 32.7883 69.5301C32.0182 69.5583 31.2886 69.4503 31.0044 68.6541C30.6209 67.5806 31.0991 67.0093 32.0071 66.6219Z" fill="var(--fill-0, #BABABA)"/>
<path id="Vector_95" d="M91.7253 36.0642C92.0056 36.0482 92.2859 36.0381 92.5672 36.0339C93.9999 36.0239 94.725 37.6062 93.3478 38.7091C93.1774 38.7516 93.0061 38.7883 92.8339 38.8195C91.1355 39.1142 90.6479 37.3329 91.7253 36.0642Z" fill="var(--fill-0, #BABABA)"/>
<path id="Vector_96" d="M50.9393 0.161482L51.1199 0.150582C52.9444 0.0580227 52.836 0.972319 52.8061 2.43126C52.4567 2.703 52.2114 2.82369 51.8244 3.03382C50.9717 3.07859 50.4242 2.89864 50.1031 2.04137C49.9519 1.63347 49.9715 1.18167 50.1578 0.788467C50.3455 0.393705 50.5537 0.286257 50.9393 0.161482Z" fill="var(--fill-0, #BABABA)"/>
<path id="Vector_97" d="M39.1297 35.9794C39.9031 35.8237 40.6614 36.3066 40.8475 37.0733C41.0336 37.8399 40.5809 38.6167 39.8221 38.8329C39.304 38.9804 38.7467 38.8326 38.3698 38.4477C37.993 38.0627 37.857 37.5023 38.0154 36.9874C38.174 36.4726 38.6016 36.0858 39.1297 35.9794Z" fill="var(--fill-0, #BABABA)"/>
<path id="Vector_98" d="M82.7548 79.0824C83.4829 79.0532 84.2255 78.9744 84.7004 79.6391C85.3428 80.5365 84.6625 81.282 84.0123 81.8222C83.1646 81.8261 82.5738 81.8309 82.0638 81.0212C81.5772 80.2494 82.0784 79.4941 82.7548 79.0824Z" fill="var(--fill-0, #BABABA)"/>
<path id="Vector_99" d="M63.3043 0.155189C65.5905 -0.0317781 65.9175 2.20832 64.3836 2.99921C62.2911 3.29615 61.6847 1.00467 63.3043 0.155189Z" fill="var(--fill-0, #BABABA)"/>
<path id="Vector_100" d="M16.3121 66.6185C18.6022 66.5348 18.7263 68.9251 17.1887 69.5276C15.0032 69.6103 14.6623 67.4039 16.3121 66.6185Z" fill="var(--fill-0, #BABABA)"/>
<path id="Vector_101" d="M48.0809 82.6994C50.1202 82.5223 50.2034 85.1112 48.389 85.3934C46.0037 85.4139 46.0583 82.8765 48.0809 82.6994Z" fill="var(--fill-0, #BABABA)"/>
<path id="Vector_102" d="M98.1364 36.0611C99.0834 35.991 100.431 36.0348 100.391 37.5416C100.379 38.0228 99.9691 38.4766 99.5778 38.755C97.3441 39.2638 96.8088 36.9522 98.1364 36.0611Z" fill="var(--fill-0, #BABABA)"/>
<path id="Vector_103" d="M34.1046 69.8382C34.978 69.7993 35.6394 69.9404 36.0282 70.8251C36.1772 71.1589 36.1743 71.5414 36.0201 71.8733C35.812 72.3259 35.5586 72.4359 35.122 72.614C32.9251 72.8223 32.4306 70.8436 34.1046 69.8382Z" fill="var(--fill-0, #BABABA)"/>
<path id="Vector_104" d="M111.501 10.7668C112.37 10.8677 112.845 10.9318 113.126 11.973C113.354 12.8178 112.951 13.3847 112.108 13.6126C111.715 13.5844 111.332 13.5346 110.942 13.4876C109.842 12.4835 109.941 11.1321 111.501 10.7668Z" fill="var(--fill-0, #BABABA)"/>
<path id="Vector_105" d="M111.373 7.73492C113.421 7.55915 113.848 9.84732 112.277 10.5577C112.124 10.5612 111.507 10.5787 111.395 10.525C109.814 9.76284 109.861 8.41884 111.373 7.73492Z" fill="var(--fill-0, #BABABA)"/>
<path id="Vector_106" d="M21.1796 35.9732C23.0172 36.1743 23.1883 38.5192 21.2675 38.8572C20.4766 38.8267 19.9124 38.5877 19.733 37.7315C19.646 37.303 19.7405 36.8577 19.994 36.5016C20.3144 36.0536 20.6691 36.0427 21.1796 35.9732Z" fill="var(--fill-0, #BABABA)"/>
<path id="Vector_107" d="M40.9793 41.7461C41.7268 41.4542 42.5699 41.8191 42.8685 42.564C43.1671 43.3088 42.8095 44.1551 42.0673 44.4602C41.3158 44.7691 40.4566 44.406 40.1543 43.6519C39.8521 42.8978 40.2226 42.0418 40.9793 41.7461Z" fill="var(--fill-0, #BABABA)"/>
<path id="Vector_108" d="M33.1089 35.9732C34.3568 36.1703 34.9704 37.0682 34.2684 38.2858C33.992 38.7654 33.499 38.782 32.9814 38.8637C32.7493 38.8305 32.4278 38.7362 32.2328 38.6059C31.9159 38.3916 31.6993 38.0583 31.632 37.6817C31.4403 36.609 32.1715 36.1118 33.1089 35.9732Z" fill="var(--fill-0, #BABABA)"/>
<path id="Vector_109" d="M53.4366 48.1181C54.0781 48.0919 54.7848 48.3418 55.1448 48.8988C55.3517 49.2118 55.4165 49.5976 55.3234 49.961C55.1748 50.5366 54.8466 50.7522 54.3713 51.0407C52.3471 50.9674 51.5843 49.2957 53.4366 48.1181Z" fill="var(--fill-0, #BABABA)"/>
<path id="Vector_110" d="M25.5683 66.6246C27.6826 66.4679 28.1156 68.5644 26.5496 69.4958C24.3689 69.6934 23.9072 67.377 25.5683 66.6246Z" fill="var(--fill-0, #BABABA)"/>
<path id="Vector_111" d="M44.328 50.8603C45.4345 50.7713 46.6232 51.0667 46.3447 52.6656C46.2718 53.0841 45.8809 53.3829 45.4975 53.5707C43.4367 53.8802 42.6503 52.1079 44.328 50.8603Z" fill="var(--fill-0, #BABABA)"/>
<path id="Vector_112" d="M60.088 0.129363C60.9211 0.079239 61.6024 0.107367 62.0277 0.926868C62.4784 1.79756 62.0092 2.50962 61.2608 2.93027C59.2646 3.3369 58.6174 1.0459 60.088 0.129363Z" fill="var(--fill-0, #BABABA)"/>
<path id="Vector_113" d="M88.7955 36.1349C89.2675 35.8984 89.831 35.9362 90.2671 36.2335C90.7041 36.5309 90.9454 37.0413 90.8977 37.5674C90.85 38.0934 90.5221 38.5526 90.0393 38.7674C89.3162 39.0894 88.4684 38.7749 88.1307 38.0594C87.792 37.3439 88.0879 36.4893 88.7955 36.1349Z" fill="var(--fill-0, #BABABA)"/>
<path id="Vector_114" d="M95.0063 36.0697C95.928 36.0052 97.1962 36.0079 97.238 37.435C97.2517 37.9126 96.8205 38.4219 96.4623 38.7298C94.254 39.2751 93.6661 37.1651 95.0063 36.0697Z" fill="var(--fill-0, #BABABA)"/>
<path id="Vector_115" d="M82.8656 36.0672C83.7299 36.027 84.3421 36.0617 84.7061 36.955C85.0623 37.8297 84.6185 38.5467 83.7941 38.8446C81.6549 38.919 81.178 37.0538 82.8656 36.0672Z" fill="var(--fill-0, #BABABA)"/>
<path id="Vector_116" d="M107.568 36.0644C108.449 36.0181 109.103 35.9576 109.619 36.8337C109.788 37.1156 109.831 37.4546 109.739 37.7696C109.601 38.2465 109.382 38.5065 108.973 38.7509C106.772 39.2299 106.171 36.9992 107.568 36.0644Z" fill="var(--fill-0, #BABABA)"/>
<path id="Vector_117" d="M67.0436 82.7938C67.54 82.6128 68.0957 82.715 68.4938 83.0624C68.8928 83.4099 69.07 83.9462 68.958 84.462C68.8461 84.9788 68.4626 85.3934 67.9565 85.5443C67.2052 85.7682 66.4129 85.3555 66.1657 84.6119C65.9195 83.8683 66.3078 83.0634 67.0436 82.7938Z" fill="var(--fill-0, #BABABA)"/>
<path id="Vector_118" d="M95.3042 81.9028C96.0906 81.8084 96.808 82.3631 96.9131 83.1486C97.0192 83.934 96.4751 84.6591 95.6906 84.7759C95.1738 84.8528 94.6551 84.6455 94.3339 84.2328C94.0127 83.8211 93.9387 83.2673 94.1392 82.7846C94.3397 82.3028 94.7855 81.9651 95.3042 81.9028Z" fill="var(--fill-0, #BABABA)"/>
<path id="Vector_119" d="M52.2395 91.1393C54.4543 90.9884 54.8607 92.9097 53.2028 93.845C50.9334 94.0172 50.5199 92.241 52.2395 91.1393Z" fill="var(--fill-0, #BABABA)"/>
<path id="Vector_120" d="M47.5675 79.6672C47.7888 79.6604 48.0712 79.6497 48.2925 79.6633C48.7365 79.6867 49.1487 79.9008 49.4243 80.2492C50.0465 81.0532 49.4559 81.8425 48.7752 82.334C48.5444 82.3797 48.2274 82.3973 47.9934 82.3729C47.546 82.3301 47.1392 82.0946 46.8781 81.7286C46.2898 80.8926 46.8194 80.1246 47.5675 79.6672Z" fill="var(--fill-0, #BABABA)"/>
<path id="Vector_121" d="M40.7956 56.9215C42.7886 56.9332 43.8194 58.469 41.9517 59.5659C39.7435 59.7976 38.9849 57.8666 40.7956 56.9215Z" fill="var(--fill-0, #BABABA)"/>
<path id="Vector_122" d="M98.0163 82.0675C98.721 81.7161 99.5775 81.9916 99.9444 82.6875C100.312 83.3843 100.056 84.2467 99.3682 84.6301C98.9088 84.8851 98.3472 84.8725 97.9005 84.5961C97.4538 84.3197 97.1919 83.8223 97.2153 83.2977C97.2396 82.7721 97.5462 82.302 98.0163 82.0675Z" fill="var(--fill-0, #BABABA)"/>
<path id="Vector_123" d="M36.1227 35.9808C38.1536 36.1787 38.2379 38.4464 36.3621 38.8902C34.3889 38.6879 34.2256 36.2965 36.1227 35.9808Z" fill="var(--fill-0, #BABABA)"/>
<path id="Vector_124" d="M24.0486 35.9939C24.8398 35.8871 25.5679 36.4417 25.675 37.2329C25.782 38.0241 25.2276 38.7523 24.4365 38.8597C23.645 38.967 22.9164 38.4122 22.8092 37.6208C22.7021 36.8293 23.257 36.1008 24.0486 35.9939Z" fill="var(--fill-0, #BABABA)"/>
<path id="Vector_125" d="M101.311 36.0648C102.278 36.0019 103.479 36.0648 103.515 37.542C103.526 37.9847 103.115 38.4898 102.751 38.7523C100.442 39.2005 100.002 36.947 101.311 36.0648Z" fill="var(--fill-0, #BABABA)"/>
<path id="Vector_126" d="M17.3448 36.0717C18.3695 35.9671 19.5384 36.0613 19.5204 37.6088C19.5154 38.042 19.1591 38.4654 18.8156 38.7343C16.508 39.206 16.0266 37.0393 17.3448 36.0717Z" fill="var(--fill-0, #BABABA)"/>
<path id="Vector_127" d="M84.6627 84.1947C83.524 85.7909 81.1463 84.3767 82.0709 82.8272C82.3123 82.4282 82.7084 82.1469 83.1649 82.0496C84.0184 81.8734 84.4953 82.3659 84.6355 83.1572L84.7854 83.0764L84.8408 83.8219L84.6627 84.1947Z" fill="var(--fill-0, #BABABA)"/>
<path id="Vector_128" d="M12.4305 38.4352C13.2053 38.2589 13.977 38.7416 14.1574 39.5155C14.3377 40.2893 13.8589 41.0635 13.086 41.2478C12.3075 41.4334 11.5265 40.9504 11.3448 40.1709C11.1632 39.3915 11.6501 38.6129 12.4305 38.4352Z" fill="var(--fill-0, #BABABA)"/>
<path id="Vector_129" d="M104.424 36.0595C105.378 36.0075 106.605 36.1048 106.6 37.5411C106.598 38.0228 106.196 38.4639 105.814 38.7489C103.614 39.2854 103.08 36.9854 104.424 36.0595Z" fill="var(--fill-0, #BABABA)"/>
<path id="Vector_130" d="M107.582 82.0023C107.831 81.9839 108.396 81.9439 108.612 82.0238C109.884 82.4938 110.014 84.1513 108.757 84.7158C107.92 84.7489 107.33 84.7752 106.848 83.9616C106.359 83.1362 106.888 82.4247 107.582 82.0023Z" fill="var(--fill-0, #BABABA)"/>
<path id="Vector_131" d="M12.4792 56.994C12.7123 56.9696 13.3992 56.9083 13.5804 56.9725C15.0342 57.4874 14.9277 58.9931 13.6309 59.5809C11.5982 59.687 10.7038 58.1346 12.4792 56.994Z" fill="var(--fill-0, #BABABA)"/>
<path id="Vector_132" d="M14.4463 36.0554C14.6441 36.0413 15.2356 36.0087 15.4034 36.0686C16.6809 36.5236 16.9195 38.0811 15.7312 38.7643C14.9272 38.866 14.263 38.8873 13.7941 38.1246C13.2726 37.2763 13.7068 36.518 14.4463 36.0554Z" fill="var(--fill-0, #BABABA)"/>
<path id="Vector_133" d="M47.8317 0.15602C48.772 0.0561617 49.4233 0.198843 49.7047 1.19159C49.9369 2.01109 49.6417 2.71312 48.8172 2.94242C48.6232 2.95118 48.0195 2.98953 47.8659 2.90923C46.6744 2.28594 46.5563 0.745438 47.8317 0.15602Z" fill="var(--fill-0, #BABABA)"/>
<path id="Vector_134" d="M60.9407 82.2471C61.7096 82.0554 62.4882 82.5206 62.6838 83.2876C62.8804 84.0555 62.4201 84.837 61.6541 85.0375C61.0857 85.1864 60.4852 84.9752 60.1348 84.5051C59.8467 84.1187 59.7708 83.6136 59.9333 83.1601C60.0949 82.7065 60.4735 82.3639 60.9407 82.2471Z" fill="var(--fill-0, #BABABA)"/>
<path id="Vector_135" d="M84.9232 74.5939C84.6429 75.8534 83.3261 76.3127 82.4666 75.5069C82.1523 75.2052 81.98 74.7857 81.9917 74.3506C82.0335 72.7359 84.1086 72.8401 84.895 73.8961L84.9232 74.5939Z" fill="var(--fill-0, #BABABA)"/>
<path id="Vector_136" d="M89.613 7.83291C89.8203 7.81987 90.4413 7.79135 90.5989 7.86483C91.8301 8.43488 91.945 9.97655 90.669 10.544L90.5873 10.5462L90.4491 10.5478C88.4733 10.5852 87.902 8.6745 89.613 7.83291Z" fill="var(--fill-0, #BABABA)"/>
<path id="Vector_137" d="M31.5113 81.9074C33.6253 81.9648 33.6603 84.2277 32.2856 84.7386C31.3338 84.7542 30.6257 84.6296 30.3673 83.5522C30.2846 83.2038 30.3462 82.8368 30.5381 82.5351C30.7881 82.1439 31.0856 82.0144 31.5113 81.9074Z" fill="var(--fill-0, #BABABA)"/>
<path id="Vector_138" d="M9.42666 50.899C9.77646 50.7745 10.1608 50.7898 10.4995 50.942C11.0301 51.1804 11.3649 51.7148 11.3481 52.2962C11.3313 52.8782 10.9659 53.3921 10.4224 53.5994C9.93851 53.7833 9.39279 53.6938 8.99345 53.3639C8.59411 53.0349 8.40277 52.5152 8.49241 52.0055C8.58205 51.4955 8.93885 51.0729 9.42666 50.899Z" fill="var(--fill-0, #BABABA)"/>
<path id="Vector_139" d="M44.3339 47.7284C45.1186 47.722 45.8333 47.6199 46.2677 48.4315C46.7011 49.241 46.1978 50.0191 45.486 50.4123C45.1025 50.443 44.6779 50.4465 44.2899 50.4587C43.2082 49.5257 43.1316 48.5806 44.3339 47.7284Z" fill="var(--fill-0, #BABABA)"/>
<path id="Vector_140" d="M82.5546 76.1573C83.3566 76.1232 84.0185 76.022 84.6501 76.603C85.3742 77.2688 84.8224 78.1292 84.2725 78.6538C84.1119 78.682 83.9513 78.7063 83.7897 78.7277C82.0466 78.9526 81.3877 77.5199 82.5546 76.1573Z" fill="var(--fill-0, #BABABA)"/>
<path id="Vector_141" d="M29.1718 36.0528C29.4019 36.0286 30.1285 35.9836 30.3122 36.067C31.5617 36.6337 31.8715 37.9622 30.5494 38.6619C28.5425 39.2523 27.8091 37.4152 29.1718 36.0528Z" fill="var(--fill-0, #BABABA)"/>
<path id="Vector_142" d="M110.898 82.0257C111.379 81.833 111.927 81.9137 112.331 82.2369C112.736 82.561 112.935 83.0778 112.852 83.5887C112.77 84.1007 112.417 84.528 111.931 84.708C111.194 84.9796 110.375 84.6097 110.092 83.8759C109.81 83.143 110.168 82.3186 110.898 82.0257Z" fill="var(--fill-0, #BABABA)"/>
<path id="Vector_143" d="M13.1866 66.6262C15.3488 66.5454 15.6137 68.5552 14.2294 69.4254C11.9762 69.6502 11.5477 67.4778 13.1866 66.6262Z" fill="var(--fill-0, #BABABA)"/>
<path id="Vector_144" d="M98.9316 7.83686C99.9477 7.79686 100.971 7.96738 100.927 9.42526C100.913 9.89301 100.48 10.2902 100.091 10.5405L98.7642 10.5457C97.7569 9.624 97.6916 8.5677 98.9316 7.83686Z" fill="var(--fill-0, #BABABA)"/>
<path id="Vector_145" d="M9.90145 53.9787C10.1826 53.9768 10.7465 54.0293 10.9663 54.1967C11.2533 54.4167 11.4414 54.7418 11.489 55.0999C11.6174 56.0469 11.0147 56.5705 10.1395 56.701C8.144 56.6309 7.91956 54.3417 9.90145 53.9787Z" fill="var(--fill-0, #BABABA)"/>
<path id="Vector_146" d="M88.6202 82.0534C89.0854 81.8256 89.6373 81.8665 90.0636 82.1604C90.4899 82.4534 90.7254 82.9537 90.6787 83.4695C90.6329 83.9854 90.3127 84.436 89.8407 84.6491C89.1263 84.9713 88.2854 84.6608 87.9525 83.9513C87.6187 83.2427 87.9165 82.397 88.6202 82.0534Z" fill="var(--fill-0, #BABABA)"/>
<path id="Vector_147" d="M50.8389 10.5574C51.6669 10.52 52.3964 10.5349 52.8905 11.2937C53.4242 12.1133 52.8716 12.8008 52.1991 13.23C52.0524 13.2441 51.9052 13.2539 51.7579 13.2595C50.1785 13.3047 49.4982 11.7541 50.8389 10.5574Z" fill="var(--fill-0, #BABABA)"/>
<path id="Vector_148" d="M91.7122 82.0016C92.5239 81.9218 93.1682 81.877 93.6218 82.6703C94.0802 83.4703 93.6675 84.282 92.9278 84.6879C91.8932 84.7833 90.9199 84.6159 90.918 83.2075C90.918 82.6654 91.2898 82.3111 91.7122 82.0016Z" fill="var(--fill-0, #BABABA)"/>
<path id="Vector_149" d="M86.1989 21.3554C88.1834 21.262 88.9328 22.6873 87.433 24.0577C86.6456 24.0966 85.9614 24.1716 85.4757 23.4124C84.921 22.546 85.54 21.8334 86.1989 21.3554Z" fill="var(--fill-0, #BABABA)"/>
<path id="Vector_150" d="M86.2622 7.84243C86.5231 7.82258 87.1615 7.7815 87.3873 7.87688C88.6185 8.39846 88.7723 9.95153 87.5294 10.5495C86.5484 10.5935 85.4641 10.4506 85.4739 9.05524C85.4768 8.55001 85.8651 8.13831 86.2622 7.84243Z" fill="var(--fill-0, #BABABA)"/>
<path id="Vector_151" d="M27.0372 41.6216C29.1477 41.4645 29.0919 44.1701 27.6258 44.3335C26.7886 44.3723 26.1012 44.2386 25.8134 43.3268C25.702 42.9842 25.7486 42.6099 25.9404 42.3051C26.2254 41.8473 26.5439 41.7365 27.0372 41.6216Z" fill="var(--fill-0, #BABABA)"/>
<path id="Vector_152" d="M52.6713 97.413C54.0294 97.2339 54.5368 99.7596 52.2299 100C51.156 99.7956 50.2078 98.9927 51.1045 97.8724C51.5152 97.3595 52.0583 97.4237 52.6713 97.413Z" fill="var(--fill-0, #BABABA)"/>
<path id="Vector_153" d="M101.026 82.004C101.124 81.9942 101.222 81.9855 101.322 81.9777C103.211 81.8346 103.924 83.3617 102.633 84.6669C102.454 84.6873 102.276 84.7048 102.095 84.7194C100.455 84.8352 99.854 83.0785 101.026 82.004Z" fill="var(--fill-0, #BABABA)"/>
<path id="Vector_154" d="M47.8161 8.8197C48.7158 8.75488 49.4132 8.77162 49.8626 9.71794C49.9994 10.0006 50.014 10.3271 49.9028 10.6209C49.7339 11.0648 49.4706 11.2475 49.0645 11.4259C48.8187 11.433 48.5729 11.4337 48.3271 11.4281C46.9838 11.3841 46.2976 9.79084 47.8161 8.8197Z" fill="var(--fill-0, #BABABA)"/>
<path id="Vector_155" d="M82.2862 94.8398C83.0337 94.7921 83.9923 94.6812 84.6094 95.1941C85.2751 95.7479 84.7758 96.6988 84.2999 97.2029C82.4176 97.8327 81.2886 96.4662 82.2862 94.8398Z" fill="var(--fill-0, #BABABA)"/>
<path id="Vector_156" d="M105.03 7.82861C107.503 7.7052 107.582 10.0602 106.105 10.5469C105.342 10.5788 104.829 10.5916 104.368 9.89206C103.815 9.05232 104.321 8.30562 105.03 7.82861Z" fill="var(--fill-0, #BABABA)"/>
<path id="Vector_157" d="M16.0843 82.009C17.0264 81.9097 18.1344 81.9486 18.1986 83.3687C18.2209 83.8611 17.8446 84.3507 17.4566 84.6543C17.2198 84.6913 16.576 84.7721 16.3662 84.6894C15.1701 84.2144 14.9021 82.6835 16.0843 82.009Z" fill="var(--fill-0, #BABABA)"/>
<path id="Vector_158" d="M108.207 21.3828C108.938 21.3716 109.51 21.4221 109.798 22.1792C110.158 23.1266 109.779 23.7856 108.913 24.1234C107.993 24.1317 107.36 24.0337 107.081 23.008C106.989 22.6605 107.045 22.2903 107.237 21.9857C107.498 21.5642 107.75 21.4932 108.207 21.3828Z" fill="var(--fill-0, #BABABA)"/>
<path id="Vector_159" d="M19.3984 66.6227C21.5726 66.4767 21.7264 68.8943 20.2853 69.4588C18.2917 69.7537 17.767 67.593 19.3984 66.6227Z" fill="var(--fill-0, #BABABA)"/>
<path id="Vector_160" d="M34.1523 76.2738C36.4345 76.1074 36.8036 78.4968 34.9867 78.9455C32.9045 79.0389 32.5508 76.9104 34.1523 76.2738Z" fill="var(--fill-0, #BABABA)"/>
<path id="Vector_161" d="M7.28832 81.9962C9.42895 81.7538 9.89457 83.7422 8.46628 84.699C8.32126 84.7145 7.68747 84.7652 7.59228 84.735C6.00749 84.224 6.08973 82.7952 7.28832 81.9962Z" fill="var(--fill-0, #BABABA)"/>
<path id="Vector_162" d="M33.8681 79.2671C34.7488 79.233 35.4518 79.1999 36.0173 80.0214C36.4706 80.6793 35.9762 81.4628 35.4228 81.8531C35.3296 81.8628 35.2364 81.8716 35.1431 81.8794C33.3093 82.0283 32.5013 80.6053 33.8681 79.2671Z" fill="var(--fill-0, #BABABA)"/>
<path id="Vector_163" d="M92.7994 7.833C93.9294 7.80838 94.9017 8.17355 94.6574 9.68914C94.5932 10.0893 94.1805 10.3755 93.8204 10.5546C92.9162 10.5608 92.4121 10.6218 91.9313 9.66637C91.7902 9.3812 91.7687 9.05096 91.8729 8.74993C92.0442 8.24353 92.3537 8.06123 92.7994 7.833Z" fill="var(--fill-0, #BABABA)"/>
<path id="Vector_164" d="M95.8107 7.87904C96.5319 7.56963 97.367 7.9021 97.6784 8.62233C97.9899 9.34256 97.6599 10.179 96.9407 10.4926C96.2185 10.8073 95.3776 10.4757 95.0652 9.7525C94.7527 9.02936 95.0866 8.18971 95.8107 7.87904Z" fill="var(--fill-0, #BABABA)"/>
<path id="Vector_165" d="M104.383 82.0028C105.415 81.9045 106.38 82.1449 106.393 83.5338C106.397 83.9776 106.022 84.435 105.667 84.7046C105.521 84.7163 104.903 84.7718 104.791 84.7387C103.202 84.2676 103.158 82.8661 104.383 82.0028Z" fill="var(--fill-0, #BABABA)"/>
<path id="Vector_166" d="M82.9498 54.1698C83.1552 54.1571 83.9445 54.0938 84.1032 54.1396C85.495 54.5425 85.6303 55.9596 84.4078 56.673C83.5173 56.7178 82.2101 56.7305 82.1965 55.2842C82.1916 54.8141 82.6004 54.4627 82.9498 54.1698Z" fill="var(--fill-0, #BABABA)"/>
<path id="Vector_167" d="M62.8124 41.6965C64.9351 41.5784 65.5142 43.4207 63.956 44.4041C61.9403 44.5036 61.0751 42.6662 62.8124 41.6965Z" fill="var(--fill-0, #BABABA)"/>
<path id="Vector_168" d="M107.954 7.83881C108.941 7.74771 110.002 7.87989 110.058 9.27936C110.076 9.76532 109.74 10.2171 109.359 10.5162C107.137 10.7647 106.504 8.77102 107.954 7.83881Z" fill="var(--fill-0, #BABABA)"/>
<path id="Vector_169" d="M12.3988 44.7211C12.5664 44.7133 13.2008 44.6653 13.3335 44.6987C14.9042 45.0943 14.8862 46.5156 13.7599 47.3339C13.5967 47.3428 13.4334 47.349 13.27 47.3523C11.6512 47.3792 10.9154 45.882 12.3988 44.7211Z" fill="var(--fill-0, #BABABA)"/>
<path id="Vector_170" d="M26.6896 44.7107C27.4631 44.7117 28.1587 44.6535 28.6003 45.42C29.1063 46.2983 28.4238 47.0295 27.6977 47.4215C26.9725 47.4507 26.5002 47.3838 26.0658 46.7293C25.8573 46.4218 25.7875 46.0407 25.8734 45.6793C25.9885 45.1976 26.2945 44.9578 26.6896 44.7107Z" fill="var(--fill-0, #BABABA)"/>
<path id="Vector_171" d="M34.303 48.3292C34.9483 47.3039 36.132 47.1727 36.8403 48.2076L37.1612 48.3134C37.0028 48.6526 36.9882 49.0414 37.1207 49.3914L36.8251 49.4335C36.2234 50.6184 35.0191 50.625 34.4447 49.3969L34.1415 49.3102L33.9965 48.3709L34.303 48.3292Z" fill="var(--fill-0, #BABABA)"/>
<path id="Vector_172" d="M105.323 21.374C106.136 21.3826 106.668 21.7027 106.804 22.5486C106.868 22.9692 106.754 23.3978 106.49 23.7306C106.24 24.0419 105.945 24.0557 105.57 24.1093C104.769 24.0941 104.14 23.8738 103.979 22.9733C103.913 22.5946 104.008 22.2057 104.238 21.8987C104.544 21.4895 104.839 21.459 105.323 21.374Z" fill="var(--fill-0, #BABABA)"/>
<path id="Vector_173" d="M25.6154 81.9074C27.6272 81.9531 27.7065 84.1848 26.2297 84.7328C23.9587 84.7776 23.897 82.3132 25.6154 81.9074Z" fill="var(--fill-0, #BABABA)"/>
<path id="Vector_174" d="M22.7941 81.9224C24.5877 82.0801 24.6919 84.2787 23.0757 84.7488C22.2571 84.7439 21.6963 84.5795 21.4604 83.6928C21.3524 83.2811 21.4281 82.8441 21.6678 82.4928C21.9801 82.0295 22.2807 82.0032 22.7941 81.9224Z" fill="var(--fill-0, #BABABA)"/>
<path id="Vector_175" d="M4.53033 81.9149C5.73048 82.0132 6.53694 82.566 6.11707 84.0162C6.00572 84.4006 5.7627 84.5593 5.39548 84.7218C4.47262 84.7607 3.84728 84.6965 3.51355 83.6687C3.3879 83.2775 3.4351 82.8522 3.64328 82.4989C3.8684 82.1144 4.12515 82.0219 4.53033 81.9149Z" fill="var(--fill-0, #BABABA)"/>
<path id="Vector_176" d="M114.626 81.9945C116.749 81.8893 116.987 84.161 115.469 84.7644C113.33 84.8656 112.979 82.9716 114.626 81.9945Z" fill="var(--fill-0, #BABABA)"/>
<path id="Vector_177" d="M102.058 7.83391C103.235 7.75079 104.227 8.17125 103.902 9.70231C103.812 10.1278 103.474 10.3709 103.078 10.5458C101.025 10.5784 100.378 8.74859 102.058 7.83391Z" fill="var(--fill-0, #BABABA)"/>
<path id="Vector_178" d="M41.2125 54.0777C42.0189 54.0913 42.6398 54.1254 42.9702 55.0422C43.2457 55.8072 42.7967 56.4252 42.0436 56.6812C41.7644 56.6909 41.09 56.7337 40.869 56.5994C39.5855 55.8228 39.8913 54.5166 41.2125 54.0777Z" fill="var(--fill-0, #BABABA)"/>
<path id="Vector_179" d="M28.4912 81.8998C30.5193 81.9047 30.6908 83.97 29.3342 84.7262C28.5031 84.7515 27.8914 84.7058 27.5374 83.8454C27.1455 82.8936 27.6628 82.2463 28.4912 81.8998Z" fill="var(--fill-0, #BABABA)"/>
<path id="Vector_180" d="M95.8355 21.3619C96.5908 21.1954 97.3402 21.6679 97.5144 22.4216C97.6896 23.1753 97.2244 23.9292 96.473 24.1121C95.9796 24.2322 95.4598 24.0778 95.1114 23.7079C94.763 23.338 94.6403 22.8095 94.7902 22.3241C94.9401 21.8387 95.3392 21.4713 95.8355 21.3619Z" fill="var(--fill-0, #BABABA)"/>
<path id="Vector_181" d="M69.9474 97.2744L71.1737 97.2813C72.1878 98.203 72.2414 99.1256 71.0355 99.8858C68.9283 100.168 68.2665 98.3227 69.9474 97.2744Z" fill="var(--fill-0, #BABABA)"/>
<path id="Vector_182" d="M66.7651 0.153748C68.1501 0.105279 68.5793 1.11613 68.0732 2.3409C67.8893 2.78413 67.6294 2.84759 67.1924 2.98239C65.1524 2.95387 64.9451 0.38169 66.7651 0.153748Z" fill="var(--fill-0, #BABABA)"/>
<path id="Vector_183" d="M99.2171 21.374C100.922 21.4203 101.318 23.826 99.2521 24.1462C97.4584 23.9385 97.0924 21.7792 99.2171 21.374Z" fill="var(--fill-0, #BABABA)"/>
<path id="Vector_184" d="M102.21 21.3559C102.974 21.2931 103.648 21.8525 103.726 22.6149C103.805 23.3773 103.26 24.0628 102.499 24.1574C101.993 24.2204 101.492 24.0048 101.19 23.5935C100.888 23.1823 100.832 22.6399 101.044 22.1756C101.255 21.7113 101.701 21.3977 102.21 21.3559Z" fill="var(--fill-0, #BABABA)"/>
<path id="Vector_185" d="M10.3197 81.9985C12.4456 81.8 12.7333 83.6064 11.3966 84.677C9.8943 84.8346 8.96345 84.0901 9.61905 82.4277C9.72436 82.161 10.0478 82.0832 10.3197 81.9985Z" fill="var(--fill-0, #BABABA)"/>
<path id="Vector_186" d="M10.2805 66.6088C12.3886 66.6001 12.545 68.8006 11.0841 69.5257C10.3988 69.4985 9.89661 69.4722 9.5513 68.8055C9.0666 67.8692 9.37075 67.0526 10.2805 66.6088Z" fill="var(--fill-0, #BABABA)"/>
<path id="Vector_187" d="M4.20931 66.6177C6.12249 66.5593 6.85381 68.3443 5.32576 69.4198C3.08051 69.6835 2.85033 67.3399 4.20931 66.6177Z" fill="var(--fill-0, #BABABA)"/>
<path id="Vector_188" d="M44.323 44.8124C44.5192 44.8084 45.2043 44.779 45.3495 44.8347C46.701 45.3532 46.6532 46.8037 45.4561 47.4228C44.7144 47.4567 44.1501 47.5055 43.6692 46.8325C43.051 45.9677 43.6053 45.2859 44.323 44.8124Z" fill="var(--fill-0, #BABABA)"/>
<path id="Vector_189" d="M8.93433 44.8334C9.7914 44.7799 10.5076 44.6662 11.1139 45.4091C11.5641 45.9609 11.163 46.9302 10.6505 47.28C9.71646 47.4854 8.6113 47.4753 8.36827 46.1529C8.28875 45.7207 8.63076 45.1525 8.93433 44.8334Z" fill="var(--fill-0, #BABABA)"/>
<path id="Vector_190" d="M13.0652 82.005C14.0188 81.9466 15.1762 82.0059 15.1422 83.4814C15.1311 83.9642 14.7314 84.4031 14.3401 84.6864C13.3437 84.7739 12.3833 84.6211 12.349 83.2605C12.3354 82.7242 12.6619 82.3398 13.0652 82.005Z" fill="var(--fill-0, #BABABA)"/>
<path id="Vector_191" d="M44.4155 53.9753C46.4933 53.8721 47.0823 55.7087 45.3777 56.6304C43.1827 56.8494 42.8753 55.1491 44.4155 53.9753Z" fill="var(--fill-0, #BABABA)"/>
<path id="Vector_192" d="M68.905 54.0791C69.9581 53.9798 71.0822 54.1258 70.9216 55.6266C70.8759 56.0568 70.5761 56.4169 70.253 56.6982C69.3556 56.74 68.7726 56.7877 68.2422 55.9263C68.0796 55.6587 68.0339 55.3356 68.1166 55.0329C68.2451 54.554 68.5079 54.3214 68.905 54.0791Z" fill="var(--fill-0, #BABABA)"/>
<path id="Vector_193" d="M7.24651 66.6171C9.33293 66.5713 9.69285 68.658 8.15244 69.4785C6.07887 69.6732 5.8703 67.2215 7.24651 66.6171Z" fill="var(--fill-0, #BABABA)"/>
<path id="Vector_194" d="M40.613 44.8145C40.7711 44.813 41.5252 44.79 41.6503 44.8464C42.9379 45.4273 42.7977 46.8426 41.6073 47.4337C39.5877 47.7641 38.947 45.7268 40.613 44.8145Z" fill="var(--fill-0, #BABABA)"/>
<path id="Vector_195" d="M44.2234 41.8994C45.1542 41.8293 46.4814 41.8883 46.3345 43.4366C46.2955 43.8462 45.9173 44.2553 45.5528 44.4683C43.6224 44.6281 42.6018 43.1715 44.2234 41.8994Z" fill="var(--fill-0, #BABABA)"/>
<path id="Vector_196" d="M58.1179 83.4739C58.6172 83.3678 59.135 83.541 59.4688 83.9264C59.8036 84.3118 59.9029 84.8491 59.7277 85.328C59.5535 85.8078 59.132 86.1543 58.6279 86.2341C57.876 86.3518 57.167 85.8506 57.0289 85.1021C56.8907 84.3537 57.3736 83.6315 58.1179 83.4739Z" fill="var(--fill-0, #BABABA)"/>
<path id="Vector_197" d="M85.7425 36.0666C85.9391 36.0552 86.5016 36.0086 86.672 36.052C87.9411 36.376 88.0531 38.1754 87.0165 38.751C84.7254 39.2434 84.484 36.8572 85.7425 36.0666Z" fill="var(--fill-0, #BABABA)"/>
<path id="Vector_198" d="M84.7895 83.0738C84.9491 82.4889 84.9189 82.4013 85.4484 82.0743C87.1302 81.0338 88.3789 84.124 86.699 84.672C85.8163 84.9591 85.2216 84.5727 84.8449 83.8194L84.7895 83.0738Z" fill="var(--fill-0, #BABABA)"/>
<path id="Vector_199" d="M89.7251 21.3572C90.4609 21.2283 91.1675 21.7002 91.331 22.4289C91.4945 23.1576 91.0556 23.8859 90.3353 24.0831C89.839 24.2191 89.3076 24.0709 88.9523 23.6973C88.598 23.3238 88.4773 22.7854 88.6389 22.2961C88.8005 21.807 89.218 21.4462 89.7251 21.3572Z" fill="var(--fill-0, #BABABA)"/>
<path id="Vector_200" d="M92.8799 21.3668C94.8041 21.3379 94.9754 23.5381 93.3276 24.0889C92.0039 24.123 91.2497 23.3017 91.8657 21.9232C92.0341 21.5461 92.4916 21.4582 92.8799 21.3668Z" fill="var(--fill-0, #BABABA)"/>
<path id="Vector_201" d="M19.191 82.0042C20.18 81.8981 21.1047 82.0353 21.1523 83.3852C21.1713 83.9254 20.8642 84.3653 20.4498 84.705C19.7062 84.7323 19.1101 84.8306 18.6505 84.0899C18.1837 83.3375 18.4407 82.4655 19.191 82.0042Z" fill="var(--fill-0, #BABABA)"/>
<path id="Vector_202" d="M64.0519 82.2209C64.5444 82.1002 65.0632 82.2579 65.4067 82.6307C65.7493 83.0044 65.8622 83.5349 65.7016 84.0147C65.5401 84.4955 65.1303 84.8507 64.632 84.9422C63.8914 85.0775 63.1779 84.5996 63.0203 83.8629C62.8636 83.1271 63.32 82.4 64.0519 82.2209Z" fill="var(--fill-0, #BABABA)"/>
<path id="Vector_203" d="M37.1605 48.316C37.4397 47.7179 38.1019 47.3994 38.7435 47.5544C39.3851 47.7096 39.8286 48.2953 39.8038 48.955C39.7791 49.6146 39.293 50.1655 38.6416 50.272C37.99 50.3786 37.3537 50.0114 37.12 49.394C36.9876 49.044 37.0022 48.6552 37.1605 48.316Z" fill="var(--fill-0, #BABABA)"/>
<path id="Vector_204" d="M89.3129 54.1702C89.5445 54.1566 89.9309 54.1137 90.1528 54.1381C91.6235 54.3006 91.9271 55.9065 90.7339 56.6764C90.0292 56.7406 89.4501 56.835 88.9158 56.2841C88.2306 55.5775 88.6949 54.7191 89.3129 54.1702Z" fill="var(--fill-0, #BABABA)"/>
<path id="Vector_205" d="M12.3864 41.7068C14.8389 41.4131 14.5972 43.9911 13.4949 44.3036C11.4333 44.6408 10.8891 42.7608 12.3864 41.7068Z" fill="var(--fill-0, #BABABA)"/>
<path id="Vector_206" d="M111.262 54.1638C112.094 54.1249 113.421 54.1278 113.392 55.5478C113.384 55.9478 112.901 56.4413 112.551 56.6574C110.565 56.9922 109.688 55.1828 111.262 54.1638Z" fill="var(--fill-0, #BABABA)"/>
<path id="Vector_207" d="M23.8858 47.5486C24.9003 47.4924 25.0795 47.6548 25.745 48.3951C25.6901 49.4556 25.763 49.6955 24.8067 50.2998C22.8547 50.504 22.4248 48.3779 23.8858 47.5486Z" fill="var(--fill-0, #BABABA)"/>
<path id="Vector_208" d="M114.26 54.1812L114.396 54.1725C115.138 54.1267 115.578 54.042 116.149 54.5919C116.82 55.2392 116.401 56.12 115.822 56.6524C115.682 56.6699 115.541 56.6855 115.4 56.6981C113.766 56.8412 112.98 55.4582 114.26 54.1812Z" fill="var(--fill-0, #BABABA)"/>
<path id="Vector_209" d="M88.8997 71.461C89.6063 71.1895 90.3995 71.5369 90.6799 72.2396C90.9602 72.9414 90.6234 73.7394 89.9246 74.0285C89.4642 74.2193 88.9367 74.1472 88.5445 73.8407C88.1523 73.5341 87.9547 73.0406 88.0286 72.5472C88.1016 72.0547 88.4345 71.6401 88.8997 71.461Z" fill="var(--fill-0, #BABABA)"/>
<path id="Vector_210" d="M59.9505 42.3155C62.08 42.1481 62.2231 44.4819 60.4614 45.0547C58.765 44.6968 58.0407 43.18 59.9505 42.3155Z" fill="var(--fill-0, #BABABA)"/>
<path id="Vector_211" d="M15.5163 47.5447C16.8792 47.4677 17.5974 48.0947 17.1382 49.5947C17.0123 50.0059 16.7134 50.1909 16.3189 50.3565C15.7527 50.3445 15.2815 50.2636 14.9029 49.7856C14.6742 49.4937 14.5789 49.1191 14.6401 48.7534C14.7412 48.1151 15.0252 47.8992 15.5163 47.5447Z" fill="var(--fill-0, #BABABA)"/>
<path id="Vector_212" d="M105.036 54.1576C105.855 54.1206 106.476 54.0564 106.966 54.8603C107.109 55.0968 107.153 55.381 107.087 55.6497C106.971 56.1266 106.703 56.4254 106.305 56.6745C105.53 56.7183 104.964 56.7903 104.439 56.0896C103.843 55.2964 104.368 54.6044 105.036 54.1576Z" fill="var(--fill-0, #BABABA)"/>
<path id="Vector_213" d="M98.7002 54.1687C98.8978 54.157 99.5148 54.1044 99.6803 54.1473C101.131 54.52 101.243 55.8894 100.099 56.6749C99.9333 56.6827 99.7679 56.6885 99.6024 56.6924C97.9469 56.7226 97.4271 55.3804 98.7002 54.1687Z" fill="var(--fill-0, #BABABA)"/>
<path id="Vector_214" d="M9.48882 41.7976C10.4622 41.8569 11.6114 42.1642 11.2199 43.6186C11.1188 43.9944 10.6535 44.2711 10.2855 44.4033C9.49135 44.4382 8.89083 44.4152 8.54036 43.5637C8.41354 43.2591 8.41733 42.9158 8.55067 42.614C8.74786 42.1568 9.04549 41.9615 9.48882 41.7976Z" fill="var(--fill-0, #BABABA)"/>
<path id="Vector_215" d="M63.1791 54.1622C63.8663 54.1184 64.4415 54.0416 64.9631 54.5632C65.6386 55.2397 65.115 56.1594 64.531 56.6714C63.7174 56.7249 63.0691 56.7989 62.5582 56.0212C62.4034 55.7866 62.3518 55.4995 62.4151 55.226C62.5222 54.7521 62.7927 54.4279 63.1791 54.1622Z" fill="var(--fill-0, #BABABA)"/>
<path id="Vector_216" d="M31.5598 48.409C32.1098 47.222 33.7264 47.225 33.9955 48.3742L34.1405 49.3135C33.4506 50.5705 31.9505 50.7259 31.5627 49.2995L31.3374 49.3277L31.3122 48.5255L31.5598 48.409Z" fill="var(--fill-0, #BABABA)"/>
<path id="Vector_217" d="M47.6088 6.08919C48.4169 6.04228 49.9617 6.02477 49.8457 7.53607C49.8197 7.87448 49.4723 8.30681 49.1737 8.50069C48.3857 8.52668 47.718 8.64084 47.1183 8.0376C46.4946 7.41032 47.107 6.53856 47.6088 6.08919Z" fill="var(--fill-0, #BABABA)"/>
<path id="Vector_218" d="M34.1847 82.2006C34.4251 82.186 34.8803 82.1412 35.1049 82.184C36.3879 82.4293 36.5539 84.0839 35.5034 84.7155C34.5765 84.7885 33.2814 84.7321 33.3695 83.2196C33.3948 82.7846 33.8111 82.4196 34.1847 82.2006Z" fill="var(--fill-0, #BABABA)"/>
<path id="Vector_219" d="M31.344 49.3299C31.2443 49.5322 31.0305 49.9793 30.8569 50.0916C30.3585 50.4139 29.3059 50.4446 28.9646 49.8829C28.5012 49.1203 28.7912 47.981 29.562 47.5453C30.3538 47.0977 31.0454 47.8413 31.3188 48.5277L31.344 49.3299Z" fill="var(--fill-0, #BABABA)"/>
<path id="Vector_220" d="M92.5637 54.1691C93.06 54.1389 93.5282 54.1603 94.0245 54.173C94.6192 55.1092 94.9073 55.9657 93.8211 56.6636C93.0055 56.7444 92.404 56.8203 91.8901 56.0193C91.7218 55.7584 91.6731 55.4382 91.7558 55.1394C91.8824 54.6703 92.1627 54.4056 92.5637 54.1691Z" fill="var(--fill-0, #BABABA)"/>
<path id="Vector_221" d="M76.8408 54.1649C77.0247 54.1561 77.2097 54.1493 77.3936 54.1464C78.9625 54.125 79.7071 55.6628 78.3134 56.6438C76.3561 56.8735 75.3926 55.7085 76.8408 54.1649Z" fill="var(--fill-0, #BABABA)"/>
<path id="Vector_222" d="M101.801 54.1618C102.671 54.1092 103.969 54.1073 103.988 55.5604C103.991 55.9565 103.541 56.447 103.197 56.665C102.537 56.7049 102.011 56.7877 101.492 56.303C100.732 55.5954 101.209 54.7701 101.801 54.1618Z" fill="var(--fill-0, #BABABA)"/>
<path id="Vector_223" d="M71.7174 54.168C72.5505 54.1262 73.9734 54.0814 73.9559 55.517C73.9511 55.9462 73.4771 56.4367 73.1179 56.6762C71.2249 57.0411 70.4979 55.4644 71.7174 54.168Z" fill="var(--fill-0, #BABABA)"/>
<path id="Vector_224" d="M55.0547 45.5947C57.0456 45.5122 57.376 47.3155 55.8206 48.4326C53.9982 48.0334 53.2437 46.7087 55.0547 45.5947Z" fill="var(--fill-0, #BABABA)"/>
<path id="Vector_225" d="M95.58 54.177C96.4316 54.1128 97.7154 54.0816 97.7319 55.5016C97.7368 55.9309 97.3309 56.4321 96.9708 56.6803C96.2817 56.7182 95.7941 56.801 95.2618 56.2881C94.5133 55.5688 94.9386 54.759 95.58 54.177Z" fill="var(--fill-0, #BABABA)"/>
<path id="Vector_226" d="M12.8647 47.6297C13.6034 47.5194 14.2949 48.0194 14.4212 48.7555C14.5476 49.4915 14.0626 50.1936 13.3295 50.3359C12.8409 50.4308 12.3393 50.2539 12.0183 49.8735C11.6973 49.4931 11.6073 48.9689 11.7829 48.5032C11.9586 48.0374 12.3725 47.7033 12.8647 47.6297Z" fill="var(--fill-0, #BABABA)"/>
<path id="Vector_227" d="M47.9425 3.25051C48.1405 3.24165 48.74 3.20467 48.8883 3.26725C49.9919 3.73355 50.4509 5.16641 49.1024 5.68575C48.3213 5.72604 46.8926 5.75836 46.9797 4.40404C47.0103 3.92888 47.5646 3.50784 47.9425 3.25051Z" fill="var(--fill-0, #BABABA)"/>
<path id="Vector_228" d="M79.9437 54.1704C80.7729 54.1295 81.3559 54.0448 81.8542 54.8585C82.2902 55.569 81.9145 56.3058 81.2595 56.6824C79.2896 56.9695 78.511 55.4337 79.9437 54.1704Z" fill="var(--fill-0, #BABABA)"/>
<path id="Vector_229" d="M108.15 54.1666C109.027 54.117 110.157 54.1452 110.199 55.4932C110.213 55.9428 109.769 56.411 109.415 56.6767C108.532 56.7254 107.357 56.6621 107.357 55.2898C107.356 54.8498 107.796 54.4177 108.15 54.1666Z" fill="var(--fill-0, #BABABA)"/>
<path id="Vector_230" d="M52.7473 51.0211C53.3694 51.1552 53.839 51.2444 54.2267 51.8007C54.7717 52.5829 54.3676 53.3392 53.5985 53.7684C51.4006 53.8443 51.08 52.1099 52.7473 51.0211Z" fill="var(--fill-0, #BABABA)"/>
<path id="Vector_231" d="M38.8591 70.9022C39.5691 70.8545 40.1365 70.9139 40.594 71.5465C40.7723 71.7908 40.842 72.0974 40.7865 72.3952C40.6937 72.9111 40.3192 73.167 39.9238 73.4561C37.8828 73.75 37.3383 71.8755 38.8591 70.9022Z" fill="var(--fill-0, #BABABA)"/>
<path id="Vector_232" d="M21.1803 47.54C23.3202 47.4731 23.4044 49.5669 21.9898 50.2735C21.7888 50.2893 21.5452 50.3093 21.3479 50.2735C20.9687 50.2057 20.6394 49.9724 20.4498 49.637C19.9626 48.7892 20.421 47.9962 21.1803 47.54Z" fill="var(--fill-0, #BABABA)"/>
<path id="Vector_233" d="M37.7486 54.1661C37.9579 54.1515 38.1672 54.1398 38.3767 54.1301C38.9325 54.1038 39.2281 54.134 39.6565 54.5661C39.8476 54.7569 39.9504 55.0187 39.9403 55.2883C39.9177 55.7963 39.6515 56.3034 39.2749 56.6489C37.359 57.0577 36.5267 55.3515 37.7486 54.1661Z" fill="var(--fill-0, #BABABA)"/>
<path id="Vector_234" d="M18.4577 47.5407C20.5156 47.4569 20.5382 49.7325 19.2387 50.2962C17.2709 50.3257 16.8231 48.4026 18.4577 47.5407Z" fill="var(--fill-0, #BABABA)"/>
<path id="Vector_235" d="M86.247 54.1755C86.4251 54.1618 86.6042 54.1521 86.7823 54.1472C88.431 54.1005 88.7561 55.6062 87.6261 56.6739C86.7852 56.7401 85.5676 56.7225 85.5199 55.396C85.5024 54.9064 85.8694 54.4781 86.247 54.1755Z" fill="var(--fill-0, #BABABA)"/>
<path id="Vector_236" d="M12.3969 54.1603C12.9968 54.1418 13.5875 54.0464 14.0706 54.4815C14.8366 55.1725 14.318 56.0417 13.7353 56.6402C13.3781 56.6743 12.8782 56.6733 12.5084 56.684C11.4315 55.9482 11.3747 54.9769 12.3969 54.1603Z" fill="var(--fill-0, #BABABA)"/>
<path id="Vector_237" d="M17.9867 54.1679C18.2486 54.1533 18.8098 54.1027 19.0481 54.1514C20.3407 54.4152 20.4459 55.9705 19.4367 56.6226C19.3819 56.6303 19.3272 56.6391 19.2724 56.6469C17.6104 57.0216 16.725 55.4274 17.9867 54.1679Z" fill="var(--fill-0, #BABABA)"/>
<path id="Vector_238" d="M23.8588 54.1678C24.7699 54.1035 25.7508 54.2126 25.8126 55.4963C25.8349 55.9606 25.4227 56.3956 25.0717 56.6808C24.1234 56.7275 22.8922 56.6506 23.1106 55.1012C23.172 54.6661 23.4765 54.3877 23.8588 54.1678Z" fill="var(--fill-0, #BABABA)"/>
<path id="Vector_239" d="M39.1981 74.7913C39.5057 74.7875 39.7259 74.7894 40.0185 74.9013C40.3846 75.0444 40.6793 75.3257 40.838 75.6858C41.1827 76.479 40.6664 77.0211 39.985 77.3151C39.7848 77.3267 39.2114 77.3735 39.055 77.2917C37.6914 76.5783 37.9474 75.351 39.1981 74.7913Z" fill="var(--fill-0, #BABABA)"/>
<path id="Vector_240" d="M41.298 47.7411C42.9592 47.6116 43.3378 50.0058 41.3445 50.3386C39.6001 50.069 39.3122 48.3427 41.298 47.7411Z" fill="var(--fill-0, #BABABA)"/>
<path id="Vector_241" d="M57.351 43.6075C59.0424 43.6597 59.637 45.6259 57.9717 46.4147C57.0902 46.3929 56.2526 45.8803 56.3793 44.9174C56.4661 44.2581 56.87 43.9833 57.351 43.6075Z" fill="var(--fill-0, #BABABA)"/>
<path id="Vector_242" d="M20.9188 54.1686C21.8404 54.119 23.099 54.1044 22.9267 55.6412C22.8761 56.0928 22.5905 56.4227 22.2097 56.6709L22.0411 56.6806C20.3084 56.7692 19.6466 55.3531 20.9188 54.1686Z" fill="var(--fill-0, #BABABA)"/>
<path id="Vector_243" d="M32.1338 54.1587C33.7452 54.1081 33.8628 54.1354 34.1601 55.7442C33.8913 56.2182 33.8696 56.3077 33.4638 56.6464C32.7192 56.7194 32.197 56.8012 31.7137 56.1296C31.2167 55.4386 31.517 54.6288 32.1338 54.1587Z" fill="var(--fill-0, #BABABA)"/>
<path id="Vector_244" d="M27.1595 47.645C27.39 47.6842 27.5527 47.7255 27.7612 47.8314C28.121 48.0153 28.3926 48.3348 28.5162 48.7195C28.6159 49.0425 28.5827 49.3919 28.424 49.6904C28.1908 50.1329 27.9262 50.1876 27.4708 50.3444C26.7525 50.2616 26.2595 50.1156 25.9929 49.3521C25.8717 49.0089 25.9054 48.63 26.0853 48.3136C26.3649 47.8146 26.6371 47.7763 27.1595 47.645Z" fill="var(--fill-0, #BABABA)"/>
<path id="Vector_245" d="M26.5836 54.1621C26.7926 54.1484 27.002 54.1436 27.2114 54.1475C28.7165 54.1913 29.039 55.7466 27.8752 56.679C26.9782 56.7218 25.9733 56.6371 25.937 55.3212C25.9234 54.8307 26.2075 54.4716 26.5836 54.1621Z" fill="var(--fill-0, #BABABA)"/>
<path id="Vector_246" d="M34.7805 54.1643C35.4809 54.1313 35.9442 54.0086 36.5578 54.4456C37.3328 54.9975 36.9422 55.9951 36.3359 56.5392C34.5561 57.1883 33.8136 55.4335 34.7805 54.1643Z" fill="var(--fill-0, #BABABA)"/>
<path id="Vector_247" d="M29.274 54.1621C30.1469 54.0969 31.3783 54.1709 31.3095 55.5714C31.2905 55.9569 30.9757 56.3987 30.6477 56.6265C28.6861 56.9087 28.0877 55.368 29.274 54.1621Z" fill="var(--fill-0, #BABABA)"/>
<path id="Vector_248" d="M42.3546 71.0392C42.7928 70.8533 43.2972 70.9195 43.6727 71.2114C44.0481 71.5044 44.2357 71.9774 44.1628 72.4475C44.0899 72.9176 43.7681 73.3118 43.3217 73.4763C42.6534 73.7245 41.91 73.3926 41.6472 72.7298C41.3845 72.0679 41.6986 71.3166 42.3546 71.0392Z" fill="var(--fill-0, #BABABA)"/>
<path id="Vector_249" d="M42.4303 74.8335C43.0971 74.6271 43.8079 74.9824 44.0445 75.6384C44.2811 76.2953 43.9601 77.0214 43.3153 77.2891C42.8706 77.473 42.3607 77.3981 41.9881 77.0925C41.6156 76.7878 41.4408 76.3031 41.5333 75.8311C41.6257 75.3581 41.9704 74.9756 42.4303 74.8335Z" fill="var(--fill-0, #BABABA)"/>
<path id="Vector_250" d="M15.2991 54.1668C15.8882 54.1425 16.3636 54.0393 16.8338 54.4744C17.5747 55.1615 17.1957 56.0228 16.6132 56.6555C16.448 56.673 16.2822 56.6847 16.1162 56.6895C14.5596 56.7411 14.1925 55.1362 15.2991 54.1668Z" fill="var(--fill-0, #BABABA)"/>
<path id="Vector_251" d="M65.6662 54.4997L65.5076 54.4238C65.1562 52.6106 66.0283 52.3556 67.5875 52.525C68.1218 53.0622 68.769 53.652 67.8366 54.2739C67.7043 54.3615 67.569 54.4452 67.4308 54.5241L67.4356 54.6195C66.6064 54.8998 66.474 54.5893 65.7558 54.6428L65.6662 54.4997Z" fill="var(--fill-0, #BABABA)"/>
<path id="Vector_252" d="M83.8726 97.7232C85.4687 98.2391 84.8215 99.9871 83.0735 99.955C82.3241 99.6532 81.4092 98.9593 82.1722 98.1164C82.6131 97.6298 83.272 97.7223 83.8726 97.7232Z" fill="var(--fill-0, #BABABA)"/>
<path id="Vector_253" d="M65.7575 54.6408C66.4758 54.5873 66.6081 54.8978 67.4374 54.6174C68.6481 55.4214 67.7858 56.71 66.5614 56.7139C65.2202 56.7178 65.2747 55.546 65.7575 54.6408Z" fill="var(--fill-0, #BABABA)"/>
</g>
</svg>
