<svg xmlns="http://www.w3.org/2000/svg" width="137" height="100" fill="none" viewBox="0 0 137 100"><g fill="#bababa" style="opacity:.48"><path d="M20.057 84.005c.958-.019 1.899.057 2.271 1.146.125.364.095.763-.083 1.105-.249.488-.71.853-1.235.999-.009.676 2.056 1.43.003 2.871-2.598.791-4.012-2.721-1.382-3.255-.04-1.227-1.496-1.383.426-2.866m63.428 2.73c.968-.038 1.876.149 2.38 1.081.244.445.3.969.155 1.456-.261.849-.898 1.315-1.658 1.692-1.585.158-2.33-.903-2.602-2.317.422-1.069.667-1.441 1.725-1.912m-67.507-3.217c1.924-.321 3.519 1.967 1.226 3.298-.427.1-.725.027-1.162-.029-1.483-1.014-1.664-2.25-.064-3.269m35.55-6.238a1.7 1.7 0 1 1 1.008 3.249 1.7 1.7 0 0 1-1.008-3.249m-.808-3.694a1.698 1.698 0 1 1 .562 3.346 1.697 1.697 0 0 1-.562-3.346m3.747 14.627a1.691 1.691 0 1 1 1.16 3.179 1.691 1.691 0 0 1-1.16-3.179m-.731-3.737a1.685 1.685 0 1 1-1.389 1.933 1.685 1.685 0 0 1 1.389-1.933m-33.804-12.02a1.671 1.671 0 1 1 1.115 3.15 1.671 1.671 0 0 1-1.115-3.15m32.979 8.411a1.67 1.67 0 1 1 .204 3.33 1.67 1.67 0 0 1-.204-3.33m-47.76-7.675c1.254-.064 2.563.402 2.359 2.071-.06.494-.582.869-.998 1.117-1.846.478-3.398-1.63-1.361-3.188m7.955 7.614a1.655 1.655 0 1 1 1.057 3.137 1.655 1.655 0 0 1-1.057-3.137m6.808-.449c.901-.083 1.634-.159 2.21.694.622.921.003 1.821-.803 2.311-2.445.376-3.177-1.918-1.407-3.005m.291-3.957c.868-.022 1.548.103 1.927 1.007.155.361.158.771.008 1.134-.217.514-.573.747-1.062.951-2.653.077-2.912-2.537-.873-3.092m103.388-22.757c1.514.194 4.162 2.687 1.561 4.006-.673.181-1.444-.207-1.777-.847-.613-1.184.498-1.419.688-2.074-.06-.324-.451-.305-.472-1.085M16.067 68.72a1.613 1.613 0 0 1 2.152 1.832 1.61 1.61 0 0 1-3.102.197 1.61 1.61 0 0 1 .95-2.029m3.697-.093a1.609 1.609 0 1 1 1.03 3.048 1.609 1.609 0 0 1-1.03-3.048m-7.257.085a1.606 1.606 0 1 1 .835 3.102 1.606 1.606 0 0 1-.835-3.102m-3.708.027a1.603 1.603 0 1 1 .926 3.069 1.603 1.603 0 0 1-.926-3.069m-3.484.054a1.583 1.583 0 1 1 .591 3.11 1.583 1.583 0 0 1-.591-3.11m2.925 7.202c2.105-.166 2.882 1.794.787 2.933-1.889.33-2.67-1.728-.787-2.933m2.543 2.322c2.109.194 2.227 2.162.232 2.913-1.919-.054-2.484-2.186-.232-2.913m9.539-24.622a1.479 1.479 0 1 1 1.12 2.738 1.479 1.479 0 0 1-1.12-2.738m-14.889-25.9a1.465 1.465 0 0 1 .827 2.813 1.466 1.466 0 1 1-.827-2.813m14.901 32.88a1.456 1.456 0 1 1 1.083 2.703 1.456 1.456 0 0 1-1.083-2.703M9.093 27.826a1.452 1.452 0 1 1 .788 2.796 1.452 1.452 0 0 1-.788-2.796m29.054 62.959c2.002-.096 2.869 1.637 1.013 2.681-1.997.154-2.814-1.591-1.013-2.681m-6.936-37.093a1.427 1.427 0 1 1 .571 2.796 1.427 1.427 0 0 1-.571-2.796m-.042 3.471a1.427 1.427 0 1 1 .73 2.759 1.427 1.427 0 0 1-.73-2.759m10.603 33.699c2.049-.204 2.906 1.538 1.078 2.624-1.965.063-2.861-1.48-1.078-2.624m-32.687-.443a1.422 1.422 0 1 1 .549 2.789 1.42 1.42 0 0 1-.549-2.789m21.857-29.744a1.416 1.416 0 0 1 1.968 1.488 1.416 1.416 0 0 1-2.713.36c-.3-.716.032-1.54.745-1.848M34.637 90.8c.963.042 2.062.366 1.802 1.74-.079.419-.605.752-.981.936-2.149.086-2.663-2.006-.821-2.676M20.519 57.198a1.413 1.413 0 1 1 .834 2.7 1.413 1.413 0 0 1-.834-2.7m7.064-.011a1.41 1.41 0 1 1 .848 2.691 1.41 1.41 0 0 1-.848-2.691m-.135-3.373a1.407 1.407 0 1 1 1.117 2.583 1.407 1.407 0 0 1-1.117-2.583m-.006 6.861a1.407 1.407 0 1 1 1.116 2.583 1.407 1.407 0 0 1-1.116-2.583m13.473 15.738a1.406 1.406 0 1 1 .82 2.69 1.406 1.406 0 0 1-.82-2.69M24.467 53.695a1.401 1.401 0 1 1 .106 2.8 1.401 1.401 0 0 1-.106-2.8m-.542 7.003a1.399 1.399 0 1 1 1.174 2.54 1.399 1.399 0 0 1-1.174-2.54m.323-3.507a1.389 1.389 0 1 1 .555 2.722 1.389 1.389 0 0 1-.555-2.722M40.75 73.146a1.383 1.383 0 1 1 1.106 2.536 1.383 1.383 0 0 1-1.106-2.536m4.814 17.666a1.379 1.379 0 1 1 .648 2.68 1.379 1.379 0 0 1-.648-2.68m-4.963-21.207c1.53-.077 1.76 1.165 1.413 2.403-.071.251-.444.366-.671.456-1.773-.175-2.221-1.769-.742-2.859m-35.025-44.7c1.71.002 2.296 1.47.662 2.455-1.902-.11-2.379-1.626-.662-2.455m118.923 33.046c1.942-.124 2.025 1.469.704 2.613-.151.061-.061.043-.276.016-.454-.572-.841-1.134-1.258-1.733.325-.441.415-.535.83-.896M82.8 79.645q.233.039.46.102c1.108.316 1.098 1.697-.223 2.107a7 7 0 0 1-.259-.005c-.675-.026-1.286-.356-1.076-1.157.158-.599.576-.784 1.098-1.047m5.344-1.309c1.522.444 1.256 1.756-.117 2.179-1.705-.311-1.576-2.017.117-2.179m-17.998 4.905c.366.078.766.212.983.543a.9.9 0 0 1 .113.742c-.132.471-.532.716-.94.91-1.733-.242-1.857-1.786-.156-2.195"/><path d="M90.071 77.646c1.6-.037 2.263 1.148.77 2.095-1.604.059-1.997-1.049-.77-2.095m-12.68 3.563c1.526-.079 2.041 1.16.638 2.135-1.532-.053-2.096-1.141-.638-2.135m-5.164 1.451c1.58-.192 2.217 1.039.885 2.018-.525.035-1.08.005-1.432-.454a.84.84 0 0 1-.16-.667c.081-.421.387-.658.707-.897"/><path d="M74.812 81.948c1.49-.085 2.192.982.897 1.982-1.663.121-2.397-.87-.897-1.982m5.192-1.521c1.551.124 1.895 1.438.409 2.22-1.623-.22-1.784-1.39-.409-2.22m20.045-5.468c1.507-.142 2.271 1.064.764 2.052-1.363.16-2.123-1.006-.764-2.052"/><path d="M97.621 75.636c1.495-.072 2.089.835.869 1.998-1.63.161-2.253-1.016-.869-1.998m-30.425 8.377c1.503-.094 2.269.861.891 2.015-1.587.028-2.137-.846-.891-2.015m18.387-5.037c1.523.263 1.359 1.523.022 2.191-1.455-.152-1.749-1.772-.022-2.191m7.027-2.046c1.603-.013 1.991 1.071.687 2.129-1.552-.149-2.024-1.041-.687-2.129"/><path d="M95.183 76.26c.426-.007.947.086 1.242.421.164.189.234.44.191.686-.077.47-.411.691-.766.964-1.664.022-2.031-1.119-.667-2.071m-30.417 8.404c1.513-.05 2.179 1.016.775 2.047-1.506-.009-2.006-.987-.775-2.047m37.87-10.425c1.481.077 1.935 1.189.655 2.069-1.591.081-1.966-1.083-.655-2.069M12.151 90.866c.081.432.174 1.28.534 1.579.517.43 1.024.131 1.488.115-.292.405-.606.691-1.127.739a1.36 1.36 0 0 1-1.012-.329 1.3 1.3 0 0 1-.442-.948c-.005-.516.222-.806.559-1.156m3.184 1.474c1.084.298.568.528 1.995.596-.901.538-1.543.324-1.995-.596m69.624.069c-.034-.679.117-1.27.566-1.799a2.1 2.1 0 0 1 1.516-.746c.781-.028 1.22.296 1.748.804.097.104.186.227.299.287.196.607.283 1.202-.037 1.782l.337.36c-.143.11-.98.842-1.021.857-.413.045-.451.076-.836.256-.967.107-1.352-.156-2.057-.806-.181-.32-.349-.667-.515-.995m17.358-78.626c.525-.471.904-.622 1.591-.505.63.477.619.593.979 1.258.72-1.059 1.252-1.323 2.587-1.053.435.613.801 1.069.673 1.864a7 7 0 0 1-.092.453c-.68.522-.837.641-1.717.728-.869-.435-1.03-.441-1.449-1.275l-.067-.134-.081.094c-.444 1.406-2.148 1.241-2.628-.055-.173-.467-.072-.852.204-1.375M91.051 97.162c1.317-1.676 2.329-1.722 3.936-.379.466 1.361.069 2.701-1.412 3.135-.549.16-1.14.083-1.632-.209-.899-.535-1.121-1.58-.892-2.547m7.064-3.649c-.588-.722-1.105-.845-1.157-1.9-.056-1.178.728-1.963 1.911-2 .988-.032 1.526.492 2.199 1.138.176.875.161 1.276-.353 2.037-.578.856-1.679 1.222-2.6.725"/><path d="M89.388 93.097c1.588-.321 3.504.663 2.644 2.566-.171.376-1.014.773-1.113 1.335-1.247 1.115-3.621-.904-2.551-3.044.04-.015.877-.747 1.02-.857m4.563 1.799c.059-.626.119-1.013.513-1.534a1.77 1.77 0 0 1 1.287-.705c1.021-.075 1.559.416 2.235 1.033.151.506.18.681.239 1.207-.51 1.148-1.589 2.455-2.975 1.766l-.126-.066c-.565-.735-.784-.831-1.173-1.701m7.243-4.378c-.641-.887-1.986-1.534-.98-3.043a2.15 2.15 0 0 1 1.434-.925c1.062-.166 1.421.387 2.195.968.74 1.858-.85 3.516-2.649 3"/><path d="M104.382 87.595c-3.482-2.024.038-6.279 2.525-2.703.291 1.753-.802 2.797-2.525 2.703m3.393-3.005c-.734-.124-1.41-.566-1.751-1.241a1.94 1.94 0 0 1-.109-1.5c.442-1.278 1.64-1.574 2.818-1.131.224.175 1.091 1.04.998.983.361 1.418-.468 2.831-1.956 2.889"/><path d="M108.945 80.396c-.06-.119-.061-.113-.116-.255a1.92 1.92 0 0 1 .096-1.579c.506-.957 1.807-1.254 2.72-.687.769.477.903 1.096 1.093 1.916-.275.59-.403.853-.881 1.334l-.556.341-.093.011c-.368.039-1.231-.009-1.423.094l-.053.13c.092.057-.775-.808-.998-.982zM1.344 85.927c1.223.046 1.811.062 2.344 1.313.307.015.579-.054.762.225.318 1.259.143 1.552-1.118 1.881-.344.105-.63.142-.986.199l-.947-.479c-1.532-.767-1.544-2.28-.055-3.139M36.075 7.284c.897-.054 1.063-.074 1.456.767 2.111-1.68 3.833.498 2.197 2.073-1.393.577-1.916.123-2.411-1.152-.34.447-.531.697-1.115.526-.56-.519-.451-1.596-.127-2.214m97.567 51.637c-.62-.532-1.028-1.161-.746-2.011.14-.412.449-.746.849-.917.668-.291 1.212-.121 1.85.124.82 1.383.615 1.973-.565 2.982-.262.483-.524.953-.56 1.517-.285-.563-.398-.655-.84-1.095.062-.196-.014-.283.012-.6m-58.49 36.372c-.262-.707-.348-1.26.095-1.937a1.68 1.68 0 0 1 1.107-.727c.437-.078.888.018 1.257.268.608.417.733.897.863 1.573-.404 1.843-2.084 2.092-3.322.823m-8.038 1.849a1.748 1.748 0 1 1 3.245-1.302 1.748 1.748 0 0 1-3.245 1.302M46.523 59.29c.838-.615 1.212-.654 2.187-.266.452.352.509.423.84.893.072.908.147 1.135-.51 1.853-.514.3-.569.304-1.142.429l-.387.085c-1.525-.827-1.798-1.486-.988-2.994m16.592 38.828a1.73 1.73 0 1 1 3.266-1.141 1.73 1.73 0 0 1-3.266 1.141m8.127-1.757a1.73 1.73 0 1 1 2.918-1.862 1.73 1.73 0 0 1-2.918 1.862m-14.201-1.567.192.243c1.2-.018 1.558.24 2.104 1.307q-.112.534-.231 1.067c-1.132 1.591-3.414 1.192-3.333-1.027.131-.145.491-.691.722-.965l-.025-.338zM48.342 71.34a1.702 1.702 0 1 1 3.357.558 1.702 1.702 0 0 1-3.357-.558m10.827 26.298c.927-1.781 2.407-1.652 3.372.018q.009.243-.003.487a1.74 1.74 0 0 1-.616 1.234 1.7 1.7 0 0 1-1.251.4 1.65 1.65 0 0 1-1.139-.587c-.416-.5-.397-.943-.363-1.552m-2.7-2.557c-.952.076-2.022-.18-2.135-1.3a1.88 1.88 0 0 1 .448-1.423c1.551-1.796 4.199.471 2.259 2.436zM49.011 66.28a1.695 1.695 0 1 1 .082 3.388 1.695 1.695 0 0 1-.082-3.388m-1.397-3.644c1.109.155 1.389.184 2.139 1.06l.036.11c.091 1.135-.15 1.542-1.166 2.103-.507.133-.75.091-1.265-.017-1.566-1.131-1.249-2.319.256-3.256M1.873 89.908c.904-.191 1.525-.145 2.231.517l.245-.14c.054.339.152.855.164 1.184l-.177.293c-.331.515-.436.718-.925 1.093-2.02.644-3.353-1.39-1.538-2.947m117.206-10.257c-.241-1.038-.092-2.293 1.155-2.528.386-.074.785.012 1.105.237.524.373.68.765.793 1.363-.251 2.03-1.831 2.472-3.053.928M104.013 9.512c1.34-.004 2.265.702 2.188 2.124q-.007.108-.017.216c-.817.751-.998 1.015-2.129.931a1.8 1.8 0 0 1-.97-.653c-.76-1.022.08-2.036.928-2.618m23.621 63.257a1.656 1.656 0 1 1-.37-3.29 1.656 1.656 0 0 1 .37 3.29m-1.174-25.76c1.267.084 1.631.516 2.21 1.581-.18 1.061-.841 2.005-2.042 1.727a1.8 1.8 0 0 1-1.158-.852c-.604-1.048.063-1.94.99-2.456m5.794 4.09c-.154 1.492-1.278 2.535-2.647 1.543a1.82 1.82 0 0 1-.743-1.276c-.125-1.096.724-1.623 1.702-1.731.946.402 1.12.582 1.688 1.464M1.017 71.159c.582-.018 1.024-.034 1.605.007 2.164 1.542.404 3.562-1.753 2.892-.954-1.073-.961-1.958.148-2.899m.214 10.995c.812-.022 1.337-.114 1.966.497.282.271.443.644.446 1.035a1.54 1.54 0 0 1-.525 1.152c-.529.468-1.317.538-1.975.352-1.278-.826-1.145-2.214.088-3.036m105.142-65.136c.646.013.927.003 1.548.18.549.719.933 2.072.042 2.661-2.063 1.366-4.178-1.561-1.59-2.841M.978 17.252c.588-.182 1.286-.155 1.888-.063.844 1.158 1.011 1.927-.184 2.907-.707.113-1.061.137-1.754-.033-.751-.652-.779-.789-.794-1.775.139-.469.487-.723.844-1.036m130.463 48.711c-4.758-.226-.448-5.883 1.211-1.979.031 1.065-.366 1.404-1.211 1.979m-24.977-45.301c.922-.087.973-.1 1.778.377.54 1.145.639 2.249-.782 2.685-2.419.196-3.05-2.348-.996-3.062M.36 28.647c1.245-1.279 3.282-.995 3.18.844a1.75 1.75 0 0 1-.595 1.21c-.719.622-1.739.314-2.385-.256-.41-.683-.459-1.047-.2-1.798m.789 49.858a11.5 11.5 0 0 1 1.594-.006c.722.618 1.283 1.464.559 2.386-.545.692-1.25.673-2.058.608-1.261-.746-1.461-2.228-.095-2.988m3.155 14.741c1.593-1.024 2.907-.208 2.902 1.635-1.524 2.374-4.465.489-2.902-1.635M.935 60.314c.786-.089 1.398-.21 2.072.329.307.243.501.6.535.991.036.432-.116.86-.418 1.172-.355.368-.85.565-1.36.543a4.6 4.6 0 0 1-.738-.09l-.153-.127c-1.065-.919-.869-1.896.062-2.818M.143 14.136c1.385-1.069 3.478-.606 3.228 1.36l-.126.235-.488.709c-.91.204-1.373.362-2.23-.128a33 33 0 0 1-.526-.596c-.009-.674.035-.919.142-1.58m.898 60.678a22 22 0 0 1 1.614.029c.434.343.964.832.955 1.41-.024 1.512-1.386 1.62-2.414 1.579-1.327-.921-1.335-1.927-.155-3.018m114.663 5.646c-.324-1.579.248-3.241 2.285-2.185.502.261.666 1.081.734 1.628-.617 1.644-1.9 1.997-3.019.557M.753 49.495c.743-.138 1.459-.274 2.11.185.317.224.531.565.594.947a1.53 1.53 0 0 1-.28 1.166c-.53.709-1.38.751-2.18.605-1.093-.935-1.132-1.772-.244-2.903m132.789 2.831c1.662.194 2.451.942 1.888 2.639-.487.466-1.179.758-1.854.595-.425-.1-.79-.368-1.012-.742a1.57 1.57 0 0 1-.149-1.29c.199-.631.588-.896 1.127-1.202m-8.352 23.84c-.392-.368-.903-.655-1.043-1.167-.493-1.8 1.18-2.67 2.64-1.72 1.116 1.511.244 3.015-1.597 2.887m-2.847 1.957a1.64 1.64 0 1 1 3.154-.897 1.64 1.64 0 0 1-3.154.897m-52.77-28.316c2.218-.17 3.053 2.277.945 3.283-.754.005-1.352-.168-1.793-.83a1.58 1.58 0 0 1-.216-1.263c.153-.615.546-.899 1.064-1.19m.442 2.37c.928-.474 1.175-1.429.178-1.894-.602.322-.809.388-1.005 1.019.038.568.341.698.827.875"/><path d="M70.192 50.283c.998.465.751 1.42-.177 1.894-.486-.177-.789-.307-.827-.876.196-.63.403-.696 1.004-1.018M.77 38.777c.803-.214 1.103-.2 1.929-.07 1.672 1.636.556 3.067-1.564 2.986-1.209-.841-1.364-1.803-.365-2.916m127.121 27.965a1.636 1.636 0 1 1 2.65 1.92 1.636 1.636 0 0 1-2.65-1.92M.795 53.166c.665-.238 1.041-.193 1.745-.147.508.378.869.679.956 1.357.049.374-.059.752-.299 1.043-.597.731-1.349.681-2.185.56-1.147-.766-1.122-1.858-.217-2.813m.298 14.393c.528 0 1.002.003 1.53.032 2.016 1.582.576 3.361-1.635 2.904-1.107-1-1.109-2.044.105-2.936m-.101-21.74 1.549.035c2.04 1.459.655 3.415-1.716 2.882-1.051-.976-.907-2.051.167-2.917m87.423-1.115c.912.157.976.24 1.597.95.266 1.335.076 2.101-1.315 2.535-2.109-.605-2.407-2.962-.282-3.485M1.137 63.893c.572-.025.825-.032 1.411.029.771.565 1.471 1.476.711 2.378-.327.387-.801.62-1.307.642-.249.011-.546-.009-.796-.024-1.272-.912-1.355-2.125-.019-3.025m-.07-7.241c.815-.013 1.454-.104 2.073.515.922.922.217 1.919-.64 2.492-.454.003-.928.014-1.38 0-1.313-.869-1.284-2.082-.053-3.007m75.936-8.854c.832-.057 1.435-.008 1.948.751.261.382.342.859.224 1.306-.168.625-.464.852-.989 1.161-2.051.411-3.029-2.094-1.183-3.218m.684 2.15c.913-.64.719-1.392-.382-1.403-.415.282-.339.146-.504.551.087.505.381.759.886.852"/><path d="M77.305 48.545c1.101.011 1.295.763.382 1.403-.505-.093-.799-.347-.886-.852.165-.405.089-.269.504-.551m-15.266 3.437a1.63 1.63 0 0 1 1.964 1.223 1.632 1.632 0 1 1-1.964-1.223m.497 2.416c.419-.348.908-.934.41-1.463a1.26 1.26 0 0 0-.701-.375c-.97.783-.592 1.932.291 1.838"/><path d="M62.245 52.56c.268.046.513.177.701.375.498.529.009 1.115-.41 1.463-.883.094-1.26-1.055-.291-1.838m3.571-1.682c2.298-.133 2.864 2.581.863 3.262-2.178.005-2.842-2.289-.863-3.262m.626 2.492c1.017-.729.765-2.002-.354-2.041-.296.205-.486.241-.549.614-.124.724.055 1.415.903 1.427"/><path d="M66.088 51.329c1.119.039 1.371 1.312.354 2.041-.848-.012-1.027-.703-.903-1.427.063-.373.253-.409.549-.614M.766 35.253c.722-.277 1.138-.196 1.894-.117.709.544 1.331 1.369.629 2.238-.642.795-1.473.699-2.378.59-.903-.915-1.145-1.761-.145-2.711m132.891 27.082c-.877.279-1.792.207-2.288-.671a1.76 1.76 0 0 1-.142-1.401c.384-1.167 1.447-1.12 2.403-.742.442.44.555.532.84 1.095-.196.871-.22 1.011-.813 1.719M1.004 42.25c.653-.097.941-.072 1.597.046 1.883 1.647.581 3.243-1.649 2.894-1.131-.974-1.092-2.002.052-2.94m72.415 6.502c2.223-.059 2.906 2.375.922 3.295-.818.028-1.458-.144-1.86-.929a1.68 1.68 0 0 1-.1-1.308c.19-.579.531-.79 1.038-1.058m.481 2.502c.87-.53 1.137-1.553.083-2.049-1.037.593-1.451 1.59-.083 2.049"/><path d="M73.983 49.205c1.054.496.787 1.519-.083 2.049-1.368-.459-.954-1.456.083-2.049M.644 31.818c2.435-1.449 3.943 1.421 1.899 2.632-.477.283-1.428-.037-1.905-.356-.736-.776-.547-1.449.006-2.276m.694-7.459c.478.056.814.053 1.289.055.479.328.558.387.925.833.085.59.117.956-.259 1.47-.292.399-.74.655-1.232.702-1.28.135-1.876-.801-1.852-1.966.348-.63.492-.769 1.129-1.094M80.94 46.721c.799.002 1.391.177 1.784.943.212.408.25.885.106 1.321-.195.588-.507.778-1.025 1.034-2.25.002-2.941-2.222-.865-3.298M1.226 20.769l1.393.037c.93.664 1.141 1.114.8 2.22-.704.796-1.623 1.014-2.597.512-.616-.738-.624-.801-.617-1.748.309-.533.481-.723 1.021-1.021m.221-10.389c.779-.689 1.24-.839 2.264-.546.698.785 1.163 1.816.222 2.664a1.55 1.55 0 0 1-1.189.388 1.84 1.84 0 0 1-1.289-.74 4 4 0 0 1-.247-.375c.044-.651.063-.764.239-1.391m56.931 42.534c.829.122 1.357.363 1.659 1.212.155.424.125.894-.084 1.294-.258.488-.649.661-1.143.823-.87-.065-1.476-.243-1.771-1.17a1.7 1.7 0 0 1 .121-1.338c.292-.535.667-.673 1.218-.821m26.114-7.157c.81-.038 1.386.094 1.829.842.247.428.3.942.143 1.412-.194.59-.52.784-1.043 1.037-2.167.095-2.787-2.17-.929-3.291m30.063-3.899c.093-1.946 1.704-2.667 3.096-1.22l.188.425c-.03 2.006-1.633 2.668-3.083 1.281l-.07-.092zm-22.812 1.959c.254-.012.527-.029.774.034.434.113.803.396 1.026.784.569 1.008.031 1.942-.884 2.465-.792.011-1.428-.172-1.845-.912a1.6 1.6 0 0 1-.136-1.305c.194-.597.54-.808 1.065-1.066m27.471-1.698c1.075-.131 1.485.134 2.053 1.065.234 1.282-.433 2.07-1.728 2.116-1.677-.586-2.066-2.307-.325-3.181m-13.981-1.969c.847-.115 1.55.057 1.981.867.208.398.25.862.115 1.291-.194.611-.524.836-1.062 1.104-1.909.141-2.747-2.076-1.034-3.262"/><path d="M108.884 39.175c2.038-.193 2.741 2.277.952 3.279-2.123.193-2.889-2.105-.952-3.279m3.481-.765c2.066-.219 2.806 2.277.894 3.304-.701.051-1.276-.113-1.675-.74a1.84 1.84 0 0 1-.215-1.45c.17-.656.442-.815.996-1.114M4.465 8.417c.909-.849 1.354-.858 2.511-.675l.327.503c.578.891.342 1.426-.243 2.218-1.651 1.032-2.761-.328-2.595-2.046M95.48 42.755c.737.041 1.302.256 1.639.965.217.458.231.987.037 1.456-.246.608-.563.743-1.132.973-.269-.025-.495-.045-.748-.149a1.68 1.68 0 0 1-.929-.948 1.7 1.7 0 0 1 .027-1.334c.238-.536.592-.755 1.106-.963m.113 2.366c.266-.099.447-.149.596-.423a.64.64 0 0 0 .011-.602c-.151-.291-.378-.387-.675-.475-.318.162-.59.242-.745.546.074.456.422.635.813.954"/><path d="M95.525 43.621c.297.088.524.184.675.475a.64.64 0 0 1-.011.602c-.149.274-.33.324-.596.423-.391-.319-.739-.498-.813-.954.155-.304.427-.384.745-.546M84.441 9c-.016-1.713.752-2.374 2.456-1.853.376.499.522.834.646 1.446.251-.36.167-.354.509-.508.362.286.123.903-.106 1.221l-.194.037c-.202-.235-.131-.14-.217-.47-.75 1.425-2.199 1.457-3.094.127m14.227 32.878c.798-.05 1.319.045 1.775.778.268.433.347.958.217 1.45-.152.591-.427.783-.922 1.072-2.142.172-2.797-2.131-1.07-3.3m.643 2.154c.26-.228.448-.343.556-.669-.067-.488-.401-.556-.848-.684-.3.443-.529.874-.114 1.32.177.03.252.07.406.033"/><path d="M99.019 42.679c.447.128.781.196.848.684-.108.326-.296.441-.556.669-.154.037-.229-.002-.406-.033-.414-.446-.186-.877.114-1.32m7.125-18.254c.268-.028.992-.122 1.217-.056 1.781.527 1.607 2.039.276 2.895-2.166.421-3.184-1.572-1.493-2.839M81.832 13.977c2.222-.06 3.083 1.782 1.235 3.003-.849.177-1.634.061-2.083-.772a1.55 1.55 0 0 1-.111-1.235c.184-.548.469-.759.959-.996m41.622 30.457c.29.137.512.211.756.411-.144.486-.105.511.155.989l.276.181c.225-.114.143-.068.307-.3l.101.229c-.175 1.379-.901 2.035-2.313 1.751q-.135-.027-.27-.058c-.582-.759-1.183-1.524-.416-2.53.352-.463.855-.563 1.404-.673m-21.414-3.518c.754-.016 1.267.188 1.679.857.263.432.337.954.205 1.442-.162.606-.494.806-1.007 1.086-1.967.062-2.702-2.272-.877-3.385m4.24-9.462c.876-.054 1.63-.051 2.168.744.611.903.04 1.68-.726 2.166-2.302.329-3.135-1.758-1.442-2.91M30.113 14.012a1.574 1.574 0 1 1 .854 3.03 1.574 1.574 0 0 1-.854-3.03m.224 2.561c1.351-.175 1.783-1.564.515-2.124-.708.261-1.082.293-1.421.955-.01.636.373.901.906 1.169"/><path d="M30.852 14.449c1.268.56.836 1.949-.515 2.124-.533-.268-.916-.533-.906-1.169.34-.662.714-.694 1.421-.955m90.751 45.188c2.069-1.476 3.522 1.424 1.914 2.379-.984.586-1.955.006-2.542-.942-.016-.24-.056-.38-.109-.614.122-.315.175-.534.407-.78zm-15.299-24.511c.865-.063 1.649-.106 2.218.668.622.844-.031 1.634-.74 2.086-2.166.451-3.273-1.415-1.478-2.754m.147-7.234c1.077-.018 2.435.249 2.122 1.867-.091.472-.623.848-1.049 1.064-.82.09-1.505.061-1.949-.765a1.43 1.43 0 0 1-.105-1.125c.174-.554.493-.795.981-1.041m-20.895-13.97a1.556 1.556 0 1 1 .818 3.003 1.556 1.556 0 0 1-.818-3.003M15.023 95.57c.031-.796.417-1.491 1.238-1.686.439-.1.9-.019 1.279.224.544.346.684.762.802 1.357-.783 1.829-2.506 1.913-3.319.105m85.527-84.788c-1.049-.555-1.714-1.695-.718-2.656a1.66 1.66 0 0 1 1.224-.452c1.202.049 1.422 1.052 1.354 2.042-.48.705-.913 1.281-1.86 1.066M11.431 94.814c.561-.525.686-1.043 1.617-1.022 1.047.025 1.551.864 1.635 1.787-1.151 2.019-3.454 1.463-3.252-.765m-3.58.7a1.55 1.55 0 0 1 2.323-1.62 1.55 1.55 0 1 1-2.323 1.62m77.675-85.071a1.543 1.543 0 1 1 .978 2.927 1.543 1.543 0 0 1-.978-2.927M8.356 7.684c.842-.442 1.495-.596 2.246.1.874 1.514.012 2.938-1.692 2.572-.73-.528-.743-.695-1.033-1.53.152-.462.265-.702.479-1.142m10.42 87.151c.428-.462.782-.892 1.457-1.022.667-.13 1.386.842 1.692 1.019.323 2.628-3.452 2.73-3.149.003M93.22 10.372c-.365-.274-.751-.564-.838-1.051-.482-2.697 2.997-2.336 3.111-.189.035.644-.934 1.19-1.495 1.338zm-15.644-8.08c.049-1.548.539-2.357 2.19-2.157.611.53.745.708.975 1.483-.57 1.804-1.906 2.029-3.165.674M33.39 95.743c.017-1.042.527-1.877 1.68-1.811.451.025.871.236 1.16.583.297.358.357.676.382 1.123-.734 1.725-2.288 1.703-3.222.105m-9.413-1.839c.787.152.932.247 1.509.808.458 1.8-1.242 2.734-2.455 1.854a1.5 1.5 0 0 1-.597-.964 2.3 2.3 0 0 1 .037-.783c.705-.664.491-.744 1.506-.915m72.395-83.8c-.32-.41-.632-.913-.537-1.464.329-1.918 3.83-1.359 2.985.768-.269.677-.568.925-1.305 1.077l-.437-.053-.296-.116zM15.409 7.619c1.108-.43 1.907-.356 2.52.768.083.793-.006 1.068-.523 1.694-.712.423-.929.361-1.727.143-1.01-.825-1.055-1.591-.27-2.605m12.605 86.297c.634.278.732.38 1.167.912.399 3.242-4.159 2.302-2.824-.287.855-.409.328-.56 1.657-.625m3.212-.02c1.171.237 1.576.568 1.706 1.776-.42.827-.964 1.384-1.984 1.198a1.39 1.39 0 0 1-.959-.658c-.32-.544-.238-1.024-.073-1.586.061-.04.288-.3.352-.371.42-.245.48-.271.958-.359m47.191-79.914c.72-.052 1.321-.004 1.744.667.205.32.269.71.175 1.078-.149.609-.547.948-1.066 1.24-2.295.213-2.566-2.098-.853-2.985M37.035 94.994c1.157-1.544 2.891-1.399 3.252.577-.379.784-.636 1.281-1.636 1.314a1.54 1.54 0 0 1-1.175-.475c-.419-.444-.447-.841-.441-1.416M89.989 7.423a1.53 1.53 0 0 1 1.739 1.198 1.527 1.527 0 1 1-2.937-.193 1.53 1.53 0 0 1 1.198-1.005M40.737 95.787c.007-1.063.484-1.898 1.671-1.815.453.034.871.253 1.156.606.303.375.334.683.348 1.144-.773 1.635-2.29 1.625-3.175.065"/><path d="M77.751 3.839c.412-.351.664-.498 1.234-.471a1.6 1.6 0 0 1 1.159.561c.281.337.41.775.356 1.209-.035.295-.111.431-.249.686l-.524.461a7 7 0 0 0-.868.212c-1.51-.493-1.424-1.317-1.108-2.658m-24.894 3.54a1.526 1.526 0 1 1 1.004 2.881 1.526 1.526 0 0 1-1.004-2.881m-40.971.191c.815-.297 1.525-.416 2.172.298.505.959.443 1.716-.487 2.378-.621.165-.873.127-1.493-.031-.214-.181-.431-.461-.615-.68-.206-.893-.096-1.229.423-1.965m14.596 6.403c.206-.011.468-.028.669.003.401.059.76.282.991.615.634.915.127 1.861-.734 2.382-1.83.398-2.194-.823-1.74-2.335.223-.219.56-.466.814-.665m47.082-6.664c2.367-.181 2.566 2.195.983 3.004-.731.034-1.33-.051-1.764-.712a1.43 1.43 0 0 1-.181-1.175c.184-.636.421-.809.962-1.117M82.018.02c.63.006.828.018 1.458.124 2.138 2.428-1.527 4.434-2.354 1.358.205-.768.321-.934.896-1.482m-25.79 7.359a1.52 1.52 0 1 1 1.11 2.828 1.52 1.52 0 0 1-1.11-2.828M26.314 3.438c.815-.093 1.44-.112 1.988.606.236.304.336.693.276 1.073-.1.655-.408.903-.905 1.273-1.928.403-2.747-1.759-1.359-2.952m15.834 3.968a1.515 1.515 0 1 1 .713 2.945 1.515 1.515 0 0 1-.713-2.945m2.177 88.283c.068-.537.168-.994.614-1.358.339-.28.78-.406 1.217-.347.426.063.81.295 1.063.644.289.399.284.73.291 1.207-.957 1.563-2.342 1.43-3.185-.146m4.889-88.274c2.334-.31 2.809 1.905.913 2.962-1.833.101-2.661-1.85-.913-2.962m-15.723 3.114a1.514 1.514 0 1 1 1.143 2.805 1.514 1.514 0 0 1-1.143-2.805m45.265-.098a1.513 1.513 0 1 1 .56 2.974 1.513 1.513 0 0 1-.56-2.974M55.099 57.252c-2.514.979-3.18-4.109.311-2.976l-.096.299c1.189 1.519-.319 2.211-.215 2.677m-.477-.487c.877-.773 1.285-1.865-.192-2.249-1.485.456-.945 1.818.192 2.249"/><path d="M54.43 54.516c1.477.384 1.069 1.476.192 2.25-1.137-.431-1.677-1.794-.192-2.25M33.758 3.389c.496-.033.566-.058 1.03.074.666.832 1.168 2.091.002 2.767a1.66 1.66 0 0 1-1.268.154c-1.515-.427-1.138-2.37.236-2.995M4.882 14.457c-.08-.216-.382-.559-.427-.731-.409-1.552.961-2.445 2.309-1.838.597.529.547.684.646 1.48-.244.531-.321.622-.698 1.075l-.101.034c-.84.274-.839.281-1.729-.02m28.529-.491c2.05-.232 2.95 1.588 1.2 2.918-.679.134-1.278.129-1.726-.48a1.63 1.63 0 0 1-.273-1.289c.125-.618.306-.818.799-1.149M28.522.762c.194.466.351 1.377.01 1.758-2.081 2.33-4.649-1.75-.793-2.387.294.217.523.374.783.629m52.955 17.085c.691-.026 2.833-.225 2.745 1.167-.026.42-.596 1.052-.937 1.315-1.948.657-3.294-1.509-1.808-2.482m39.776 35.063.527.016c3.173.065.496 5.158-1.607 1.854.025-1.012.257-1.292 1.08-1.87M59.797 7.304c2.111.006 2.518 1.996.919 2.967-.323.029-.632.071-.943-.032a1.6 1.6 0 0 1-.949-.864c-.43-.959.077-1.706.973-2.071M33.824 6.97a1.5 1.5 0 1 1 .453 2.964 1.5 1.5 0 0 1-.453-2.964M30.348 0l1.24.234c.474.584.608.71.63 1.446-.846 2.834-4.059.862-2.556-1.135.256-.222.412-.346.686-.545m39.939 7.336a1.498 1.498 0 1 1 .503 2.954 1.498 1.498 0 0 1-.503-2.954M4.349 90.285c.5-.81 1.292-1.389 2.207-.767.415.288.687.739.749 1.24.207 1.569-1.88 2.208-2.792.711-.012-.329-.11-.845-.164-1.184M84.428 4.491l.086-.101.131-.148c.725-.837 1.171-1.006 2.206-.626.591.881.617 1.318.308 2.305-.874.533-1.233.687-2.21.231-.476-.571-.612-.93-.521-1.661M45.785 7.406a1.492 1.492 0 0 1 1.742 1.962 1.495 1.495 0 1 1-1.742-1.962"/><path d="M63.266 7.301c.734-.027 1.342.178 1.66.894.178.397.178.85 0 1.246-.227.517-.48.648-.974.86-1.995.104-2.569-2.216-.686-3m3.151.177a1.485 1.485 0 1 1 1.281 2.68 1.485 1.485 0 0 1-1.281-2.68M29.572 17.856c.793-.051 1.741-.179 2.383.387.696.614-.043 1.495-.526 1.943-2.029.91-3.327-1.308-1.857-2.33m11.18 38.624c-.377-.104-.646-.169-.927-.454a1.5 1.5 0 0 1-.435-1.175c.029-.377.221-.722.526-.945.411-.301.802-.316 1.281-.257l.12.018c.665.264.778.432 1.156 1.047-.049 1.105-.541 1.769-1.721 1.766M22.475 9.778a1.48 1.48 0 1 1 2.301-1.861 1.48 1.48 0 0 1-2.301 1.861m1.864 83.706c-.307-.008-.781-.063-1.044-.206-2.622-1.434 1.812-4.632 2.269-1.114-.297.802-.423.978-1.225 1.32M33.452.131c1.65.26 2.291.919 1.554 2.627-.452.281-.469.297-.973.391l-.162.031-.103.018c-.892-.317-1.135-.596-1.442-1.493q.046-.179.103-.353c.187-.549.502-.964 1.023-1.221m-6.641 10.396a1.474 1.474 0 1 1 .54 2.898 1.474 1.474 0 0 1-.54-2.898M85.027.222c1.544.001 2.716.697 1.992 2.407-1.739 1.393-3.755-.353-1.992-2.407m15.622 10.675c1.433.232 1.899 1.036 1.191 2.329-.505.443-1.032.779-1.728.55a1.33 1.33 0 0 1-.793-.713c-.521-1.146.405-1.797 1.33-2.166M19.336 39.191c.522-1.543 1.607-1.547 2.818-.709.136.381.188.537.269.93-.347 1.229-.99 1.445-2.192 1.308-.604-.699-.703-.267-.895-1.529m.021 6.861c.559-1.17 1.17-1.344 2.366-.928 1.158 1.211.521 2.748-.977 2.647a1.48 1.48 0 0 1-1.075-.591c-.287-.384-.29-.66-.314-1.128m-6.096-18.286a1.465 1.465 0 1 1-.328 2.912 1.465 1.465 0 0 1 .328-2.912m105.296 30.702c1.276-.921 2.792-.371 2.716 1.212-.232.246-.285.465-.407.78-1.073.851-1.979.335-2.599-.739-.007-.644.036-.671.29-1.253m.184-.765c-.718-.34-1.135-1.072-.892-1.856a1.54 1.54 0 0 1 .824-.942c.519-.244.816-.139 1.329.038.887.996.856 1.298.191 2.422-.599.302-.788.454-1.452.338M17.853 30.167a1.457 1.457 0 1 1-2.237-1.868 1.457 1.457 0 0 1 2.237 1.868m61.102-23.51c.856.209 1.055.276 1.503 1.034.257 1.14-.179 2.264-1.611 2.178-.985-.06-.438-1.467-1.068-2.232.248-.711.518-.711 1.176-.98M20.482 27.812l.534.115c.344.22.327.214.572.548l.24.47q-.09.52-.194 1.037c-1.392 1.179-2.735.754-2.808-1.129.569-.893.619-.9 1.656-1.041m82.486.028a1.442 1.442 0 1 1 .895 2.742 1.442 1.442 0 0 1-.895-2.742m-18.02.061c2.167-.236 2.991 1.539 1.256 2.669-.994.06-2.072-.175-2.049-1.563.008-.438.43-.865.793-1.106m-3.657-.008c.799-.044 1.484-.097 1.968.672.527.84-.039 1.558-.732 1.994-2.028.205-2.752-1.516-1.236-2.666M29.823 92.172c.803-3.774 5.47.861 1.374 1.368-.804-.147-1.206-.584-1.374-1.368M18.459 8.407c.43-.973 1.586-1.415 2.466-.705.088.319.381.772.253 1.064-.162.372-.36.635-.466 1.045l.167.251-.071.037-.296.206c-1.326.368-2.083-.643-2.053-1.898m23.717 19.378a1.429 1.429 0 1 1 .198 2.85 1.429 1.429 0 0 1-.198-2.85M26.817 6.806c.659.002 1.242.195 1.578.794a1.5 1.5 0 0 1 .121 1.192c-.185.595-.469.782-.984 1.062-1.568.379-1.723-1.507-1.417-2.566.062-.215.509-.393.702-.482M70.6 27.823a1.425 1.425 0 1 1 .69 2.765 1.425 1.425 0 0 1-.69-2.765m18.502-.015a1.422 1.422 0 1 1 .525 2.795 1.422 1.422 0 0 1-.525-2.795M26.299 92.233a1.419 1.419 0 1 1 2.831-.228 1.419 1.419 0 0 1-2.831.228m36.885-64.339c2.19-.128 2.636 1.738.985 2.685-1.9.132-2.781-1.82-.985-2.685M21.116 41.455c1.043.419 1.426.827 1.191 1.979-.242.24-.546.55-.815.749-.664.145-.85.056-1.491-.207-.989-1.286-.553-2.389 1.115-2.521m46.041-13.654a1.415 1.415 0 0 1 1.437 2.01 1.418 1.418 0 0 1-2.693-.474 1.416 1.416 0 0 1 1.256-1.536M39.511 59.06c-.005-.616-.052-1.06.413-1.534.858-.873 2.598-.126 2.486 1.108-.049.544-.416.874-.827 1.174-1.146.245-1.285-.054-2.072-.748m38.151-31.168c2.214-.154 2.8 1.724 1.1 2.672-1.941.227-2.651-1.555-1.1-2.672m-39.592.024a1.416 1.416 0 1 1 1.08 2.619 1.416 1.416 0 0 1-1.08-2.619m-6.253 19.736a1.414 1.414 0 1 1-.674-2.746 1.414 1.414 0 0 1 .674 2.746M96.183 27.91a1.414 1.414 0 1 1 1 2.644 1.414 1.414 0 0 1-1-2.644m3.746-.089a1.412 1.412 0 1 1 .601 2.759 1.412 1.412 0 0 1-.601-2.759m-47.205.072a1.412 1.412 0 1 1 .94 2.662 1.412 1.412 0 0 1-.94-2.662m-3.372-.075a1.408 1.408 0 1 1 .358 2.794 1.408 1.408 0 0 1-.358-2.794m6.936.073c2.126-.129 2.736 1.622 1.018 2.677-2.098.138-2.556-1.92-1.018-2.677m-15.97 10.141c.833-.054 1.59.142 1.917 1.007.113.296.099.625-.038.91-.21.436-.481.553-.907.707-1.99.137-2.711-1.571-.972-2.624m5.395-10.215a1.407 1.407 0 1 1-1.109.885 1.41 1.41 0 0 1 1.109-.885m47.117.001a1.408 1.408 0 1 1 .29 2.8 1.408 1.408 0 0 1-.29-2.8M26.626 46.709a1.408 1.408 0 1 1 2.68-.87 1.408 1.408 0 0 1-2.68.87m47.399-18.793a1.408 1.408 0 0 1 1.929 1.519 1.407 1.407 0 0 1-2.699.292 1.406 1.406 0 0 1 .77-1.811m-14.199-.078a1.404 1.404 0 1 1 .73 2.712 1.404 1.404 0 0 1-.73-2.712M23.518 45.283a1.404 1.404 0 1 1 1.971 1.999 1.404 1.404 0 0 1-1.971-1.999m10.895-17.346a1.398 1.398 0 1 1 1.03 2.598 1.398 1.398 0 0 1-1.03-2.598M24.17 41.51a1.39 1.39 0 0 1 1.699 1.146 1.387 1.387 0 1 1-1.699-1.146m6.541-13.615.046-.003c1.999-.131 2.582 1.614.978 2.635-1.118.139-1.408-.133-1.998-1.009.21-.922.236-1.031.974-1.623m-2.523 13.647c.758.155.958.428 1.243 1.134-.028.435-.065.686-.352 1.037a1.34 1.34 0 0 1-.974.502c-.982.063-1.484-.725-1.554-1.609.415-.864.553-.93 1.497-1.094zm1.89.884c.575-.837.768-.864 1.765-.872l.123.021c.561.271.71.453.993 1.011-.064.354-.098.653-.243.982-.201.177-.366.345-.594.481-1.341.392-2.069-.229-2.044-1.623m17.455-4.363a1.368 1.368 0 1 1 .883 2.588 1.368 1.368 0 0 1-.883-2.588m14.342-.386a1.368 1.368 0 1 1 1.148 2.483 1.368 1.368 0 0 1-1.148-2.483m-14.397 3.852a1.367 1.367 0 1 1 .964 2.558 1.367 1.367 0 0 1-.964-2.558m-3.305-3.478a1.363 1.363 0 1 1 .566 2.67 1.363 1.363 0 0 1-.566-2.67m18.05 2.985c1.946.168 2.268 1.957.515 2.658-.308.011-.673-.038-.946-.191a1.47 1.47 0 0 1-.692-.89 1.2 1.2 0 0 1 .171-1.012c.261-.377.529-.471.952-.565m10.727-3.481a1.362 1.362 0 1 1 .277 2.71 1.362 1.362 0 0 1-.277-2.71m-49.884 2.041c.053-1.086.655-1.516 1.69-1.504l.083-.006c.937.395 1.152.909.937 1.896-.494.526-.557.606-1.227.815-.758-.109-1.016-.326-1.397-.971zm45.973-1.917a1.357 1.357 0 0 1 1.879 1.463 1.359 1.359 0 1 1-1.879-1.463m.132 3.347c2.056.025 2.522 1.95.793 2.605-1.857-.003-2.554-1.734-.793-2.605m-25.121.485c.768-.011 1.404.11 1.725.913.117.291.112.617-.014.904-.206.477-.542.614-.992.799-1.943-.098-2.378-1.961-.719-2.616m.65 2.081c.153-.342.232-.437.169-.806-.337-.491-.687-.429-1.243-.402-.234.886.197 1.285 1.074 1.208"/><path d="M43.626 42.384c.556-.027.906-.089 1.243.402.063.369-.016.464-.169.806-.877.077-1.308-.322-1.074-1.208m7.327-.857a1.357 1.357 0 1 1 .934 2.548 1.357 1.357 0 0 1-.934-2.548M47.656 44.9a1.355 1.355 0 1 1 .652 2.631 1.355 1.355 0 0 1-.652-2.631m3.61.001a1.352 1.352 0 1 1 .276 2.69 1.352 1.352 0 0 1-.276-2.69m14.335-7.22a1.352 1.352 0 1 1 .943 2.534 1.352 1.352 0 0 1-.943-2.534m6.929 3.479a1.351 1.351 0 1 1 1.209 2.417 1.351 1.351 0 0 1-1.209-2.417m-21.524-3.108a1.349 1.349 0 1 1 .85 2.56 1.349 1.349 0 0 1-.85-2.56M65.7 41.027a1.341 1.341 0 1 1 .711 2.587 1.341 1.341 0 0 1-.711-2.587m-38.966-.984c-.206-.838-.024-1.674.924-1.889a1.46 1.46 0 0 1 1.169.225c.267.19.444.481.49.805.045.315-.036.689-.163.978-.056.055-.396.384-.422.422-.555.162-.642.165-1.214.12-.28-.204-.525-.431-.784-.661M8.361 11.016c.609-.042 1.564-.151 2.108.114.479 1.049.362 1.318-.544 2.048-.95.151-1.145.079-1.862-.556-.305-.683-.291-1.045.189-1.62zm4.341 16.318c-.885-.129-1.243-.997-.786-1.749a1.35 1.35 0 0 1 .893-.627c.563-.109.926.118 1.366.42l.349.599c-.295 1.115-.683 1.373-1.822 1.357m57.72-2.344c1.821-.195 2.56 1.433.999 2.392-1.805.067-2.66-1.241-.999-2.392m29.254.002c1.907-.131 2.646 1.491 1.055 2.359-1.739.124-2.683-1.142-1.055-2.359m-18.34.004c1.765-.185 2.774 1.132 1.163 2.283-1.801.157-2.729-1.027-1.163-2.283m21.796-.104a1.273 1.273 0 0 1 .518 2.494 1.275 1.275 0 1 1-.518-2.494m-18.136.104c1.741-.176 2.716 1.149 1.17 2.291-1.804.151-2.785-1.153-1.17-2.291m-18.001-.023c.711-.002 1.34.146 1.591.907.097.285.066.597-.085.858-.22.388-.509.517-.91.647-1.896-.218-2.307-1.75-.596-2.412m-25.29.019c1.75-.125 2.615 1.27 1.067 2.317q-.243.008-.484.005c-1.475-.025-2.051-1.408-.583-2.322m-3.42-.021c.583-.014 1.113.082 1.465.592.174.247.229.559.15.85-.131.487-.489.706-.896.94-1.972-.052-2.493-1.556-.719-2.382m7.214.008c1.924-.071 2.333 1.769.743 2.402-.605-.088-1.052-.032-1.465-.556-.65-.824.029-1.439.722-1.846m17.65.012c1.805-.163 2.72 1.292 1.076 2.309-1.732.066-2.642-1.148-1.076-2.309m-10.411-.007c1.661-.087 2.523 1.381.826 2.331-1.843.041-2.593-1.352-.826-2.331m36.044.01c1.862-.151 2.564 1.431 1.009 2.373-1.721-.12-2.631-1.079-1.009-2.373m-14.691-.021c1.758-.103 2.505 1.435.888 2.338-1.833.032-2.585-1.315-.888-2.338m3.588.013c1.809-.127 2.682 1.429 1.023 2.304l-.233.007c-1.707.04-2.16-1.22-.79-2.311m-17.886-.003c1.809-.099 2.46 1.459.829 2.342-1.737.212-2.485-1.318-.829-2.342m-40.825 1.765c-.533-3.27 4.542-1.275 1.898.538l-.471.04c-.747-.055-.835-.091-1.427-.578m30.097-1.767c1.711-.095 2.474 1.382.872 2.36a8 8 0 0 1-.5-.011c-1.416-.089-1.846-1.542-.372-2.349m43.476 0c1.648-.075 2.442 1.231.871 2.332-1.989.075-2.536-1.502-.871-2.332m3.688-.005c1.686-.062 2.489 1.469.83 2.303-1.989.134-2.457-1.417-.83-2.303m-39.912 0c.23-.006.417-.012.646.025.405.065.762.3.981.647.474.735-.07 1.323-.699 1.669-1.767-.008-2.631-1.28-.928-2.341m-25.478.008c1.773-.059 2.376 1.654.737 2.315-1.909.06-2.369-1.298-.737-2.315m-3.703.009c1.761-.106 2.412 1.501.932 2.317-.236-.001-.478-.001-.714-.014a1.24 1.24 0 0 1-.883-.453c-.616-.746.102-1.422.665-1.85m.477 1.798a.472.472 0 1 0-.18-.927.472.472 0 0 0 .18.927"/><path d="M27.338 25.891a.473.473 0 1 1 .367.873.473.473 0 0 1-.367-.873m-12.09.096c.575-.851.709-.991 1.728-1.06.25.113.28.136.542.212l.135.268c-.065.151-.085.161-.056.337.093.556-.482.8.028 1.238-.127.104-.271.231-.406.32-1.178.15-1.766-.081-1.971-1.315m24.665 15.876c.501.036.76-.224 1.157-.147v.087l-.239.143.155.038c.407.104.476.078.77.372.119.3-.007 1.075-.09 1.374l.08.079c-1.307 1.113-3.238-.872-1.833-1.946M75.997 9.304c-.226-1.141-.24-2.607 1.451-2.007q.159.178.331.34c.352.841-.237 2.285-1.22 2.22-.309-.132-.369-.277-.562-.553M8.348 25.325c1.05-.56 2.254-.628 2.476.827l-.155.027c-.109.305-.495.879-.805.987l-.152-.113c-1.71-.147-.822-.902-1.428-1.492zM44.455 53.68l.171-.015c.567.185.742.252 1.081.739l.046.146-.126.088c-.763.543-1.19 1.39-1.813 1.412-.499-.233-.569-.661-.706-1.159.449-.742.476-.909 1.29-1.217zm-4.83-8.426c.701-.128.631-.415 1.734-.29.96.645 1.126 1.064.677 2.131-.497-.487-.2-1.859-1.86-.896-.211.426-.129.824-.479 1.088-.551-.835-.448-1.123-.072-2.033m-5.219-17.952c-1.91-.902-.044-3.332 1.52-1.86.59.555.263 1.301-.252 1.755-.331-.058-.339-.001-.534-.197.176-.348.251-.426.21-.813-.349-.499-.727-.378-1.172-.088-.105.564.542.609.228 1.203m-2.299 10.912c.393.271.635.501.723.999.064.358-.033.725-.265 1.005-.193.233-.349.29-.621.41-.494-.429-.869-.227-1.302-1.012.124-.269 1.114-1.05 1.465-1.402M24.32 27.268q-.107.013-.212.022c-1.482.122-2.093-1-.998-2.123l.084.038c.369.16 1.079.253 1.257.57.224.401-.097 1.065-.131 1.493m2.762.615c.345-.01.693-.028 1.037-.016.041.44.197.454.293.794.363 1.29-1.214 2.283-1.801.811-.124-.311.459-1.15.654-1.46zm.516 1.972c.283-.305.291-.285.389-.678-.078-.319-.06-.351-.384-.508-.219.26-.358.37-.406.704.156.382.039.218.401.482"/><path d="M27.603 28.669c.323.156.306.189.383.508-.097.393-.105.373-.388.678-.362-.264-.245-.1-.401-.482.048-.334.187-.444.406-.704m13.424 31.86c-.012.921-.045 1.884-.039 2.801-1.868-.259-2.116-2.395.039-2.801m2.464-15.321c.443-.246.856-.403 1.369-.242.364.115.667.372.84.713.372.749-.029 1.475-.754 1.798l-.121-.1c.432-2.04-.917-1.147-1.604-1.746zm-3.793 2.079c.349-.264.267-.662.478-1.088 1.66-.963 1.363.41 1.86.896l-.237.273c-.828.511-1.376.621-2.101-.081M23.404 27.881c.573-.049.708-.065 1.251.1l-.091.237c.653 1.445.13.904.144 2.169l-.148.087-.26.122-.392-.031c.06-.35.461-.515.373-1.317-.444-.564-.931-.045-1.504-.422l-.064-.342.024-.119zM3.245 15.731l.126-.235.216-.097c1.839.245 1.075 3.069-.721 1.79-.122-.791.405-.774.379-1.458"/><path d="M28.119 27.867c.613.336.959.831.868 1.539-.321 2.51-4.715.432-1.905-1.523l.183.129c-.195.31-.777 1.149-.654 1.46.587 1.472 2.164.479 1.801-.811-.096-.34-.252-.354-.293-.794M44.778 47.63c-1.158-.009-2.16-.803-1.557-1.999.686.599 2.036-.294 1.604 1.746l.121.1zM22.713 28.484l.064.342c.573.377 1.06-.142 1.504.422.088.802-.313.967-.373 1.317-1.055.187-1.424-.852-1.43-1.705zm7.922 11.968c-1.168-1.18-.264-2.64 1.472-2.238-.351.352-1.341 1.132-1.465 1.402.433.785.808.582 1.302 1.012-.542.083-.636.06-1.179-.052zm17.967 53.914c.244.406.294 1.283.515 1.884.228.188.473.36.639.6l-.062.11c-.985-.06-1.191-.305-1.699-1.13.069-.788.075-.895.607-1.464m49.586-82.918.077-.032c.188.445.368.735.169 1.192a1.16 1.16 0 0 1-.659.624c-.738.273-1.363-.108-1.789-.691.781.018.658.224 1.605-.002.47-.391.493-.514.597-1.091M23.11 25.167c2.065-.752 2.876 1.604 1.21 2.101.034-.428.355-1.092.131-1.493-.178-.317-.888-.41-1.257-.571zM11.477 11.819c.376.078.367.082.706.272l-.035.227c.279.241 1.183.236 1.543.22.177-.103.345-.199.519-.308l-.303.623c-1.264.638-2.098.421-2.43-1.034m22.929 15.483c.314-.594-.333-.639-.228-1.203.445-.29.823-.411 1.172.088.041.387-.034.465-.21.813.195.196.203.139.535.197-.473.062-.786.11-1.269.105m60.245-16.034c.206.447.392.727.215 1.201a1.2 1.2 0 0 1-.701.702c-.643.239-1.327-.123-1.634-.71 1.152.47 2.205.267 2.12-1.193m-39.24 43.008c1.064.823 1.108 2.689-.312 2.976-.103-.466 1.404-1.158.215-2.677zM8.284 25.56c.605.591-.282 1.346 1.428 1.493l.152.113c.31-.108.696-.682.805-.987l.155-.027-.098.579c-.547.253-.783.987-1.883.546a1.2 1.2 0 0 1-.66-.649c-.176-.424-.062-.67.101-1.068m31.629 16.303c1.634-1.055 3.218.901 1.833 1.946l-.08-.079c.083-.299.209-1.074.09-1.374-.294-.294-.363-.268-.771-.372l-.154-.038.239-.143-.001-.087c-.396-.077-.655.183-1.156.147M24.655 27.981c.88.644 1.05 1.802.053 2.406-.014-1.265.509-.724-.144-2.169z"/><path d="M12.183 12.091c1.324.1 1.033-.137 2.082-.364l-.055.503c-.174.109-.342.205-.519.308-.36.016-1.264.021-1.543-.22zm8.742-4.389c.622.54.641.921.518 1.713-.193.239-.336.443-.564.647l-.167-.251c.106-.41.304-.673.466-1.045.128-.293-.165-.745-.253-1.064m-3.272 17.705.222.061c.148.542.205.62.118 1.15-.174.155-.222.185-.368.364-.51-.438.065-.682-.028-1.238-.029-.176-.009-.186.056-.337M124.21 44.845c.363.353.458.45.738.869-.164.232-.082.187-.307.301l-.276-.181c-.26-.478-.299-.503-.155-.989"/></g></svg>