<svg xmlns="http://www.w3.org/2000/svg" width="208" height="120" fill="none" viewBox="0 0 208 120"><g fill="#bababa" style="opacity:.48"><path d="M83.656 77.554c.344.039.679.142.987.302 2.067 1.071 2.114 3.884.149 4.257l-.511.1-.269.052c-.429.423-.418.581-.544 1.17-.329.392-.662.396-1.174.509-2.968-.062-3.763-3.135-.418-4.419.558-1.145.585-1.514 1.78-1.971m-4.495-40.973a2.684 2.684 0 1 1 1.676 5.096 2.686 2.686 0 0 1-3.445-2.66 2.68 2.68 0 0 1 1.769-2.436M26.463 72.88a2.632 2.632 0 1 1 1.39 5.078 2.632 2.632 0 0 1-1.39-5.078m64.163-36.515c3.848-.144 4.645 3.57 1.478 5.026-1.448.221-2.647-.276-3.165-1.727a2.7 2.7 0 0 1 .134-2.158c.384-.741.802-.903 1.553-1.141m-17.48.129c1.38-.104 2.369-.217 3.305 1.027.396.525.545 1.197.409 1.84-.204.971-.732 1.494-1.537 1.981-3.423.784-5.135-3.017-2.177-4.848m87.427 56.573 2.006-.003c2.171 1.331 1.95 3.787-.205 5.042-1.261.049-2.233.059-3.025-1.088-1.114-1.618-.163-3.055 1.224-3.951m-.182-10.861c1.242-.054 2.395-.27 3.269.848 1.024 1.311.218 3.183-1.018 4.039-1.494.038-2.55.089-3.476-1.319-.954-1.45-.034-2.79 1.225-3.568M26.272 78.669a2.594 2.594 0 1 1 1.758 4.88 2.594 2.594 0 0 1-1.758-4.88m110-.408a2.59 2.59 0 1 1 1.014 5.082 2.59 2.59 0 0 1-1.014-5.082m24.422-7.057c.638-.032 1.37-.137 1.952.157 1.992 1.001 1.873 4.047-.321 4.73-.597.083-1.297.103-1.905.136-2.203-1.583-2.081-3.677.274-5.023M2.621 98.664a2.584 2.584 0 1 1 .665 5.123 2.584 2.584 0 0 1-.665-5.123m158.643-21.969c3.435-.105 3.874 3.97.635 5.06-1.411-.039-2.539-.399-2.947-1.929a2.47 2.47 0 0 1 .305-1.953c.518-.822 1.119-.975 2.007-1.178M2.355 76.669a2.578 2.578 0 1 1-1.75 4.132 2.58 2.58 0 0 1 1.75-4.132m65.64-40.291c1.412-.073 2.505.172 2.998 1.66a2.7 2.7 0 0 1-.196 2.179c-.386.702-.913.94-1.632 1.177-3.909.147-4.179-4.229-1.17-5.016m17.601 2.431a2.577 2.577 0 1 1 1.315 4.983 2.577 2.577 0 0 1-1.315-4.983m-34.273-2.43c1.329.052 2.164.02 2.836 1.409.322.674.336 1.454.038 2.139-.402.912-.858 1.187-1.742 1.498-3.879.096-4.265-4.323-1.132-5.046m-16.637-.014c1.296-.059 2.387-.003 2.941 1.341.698 1.694-.101 3.019-1.638 3.686-3.825.138-4.381-4.125-1.303-5.027M160.68 98.573c2.06-.091 3.724.524 3.156 3.293-.161.78-.884 1.403-1.608 1.756-.439.048-.985.076-1.415-.046a2.7 2.7 0 0 1-1.69-1.424 2.5 2.5 0 0 1-.071-1.965c.341-.864.819-1.251 1.628-1.614M113.278 36.38c1.298.086 2.313.133 2.742 1.579.537 1.811-.392 3.025-2.037 3.489-3.719-.118-3.996-4.514-.705-5.068m47.087 51.168c.404-.012 1.521-.076 1.866.04 2.51.852 2.351 3.721.22 4.859-3.545.512-4.827-2.946-2.086-4.899M1.507 93.216c1.334-.082 2.403-.223 3.315 1.012.356.481.5 1.087.399 1.676-.164.989-.748 1.605-1.513 2.175-1.336.085-2.249.196-3.161-1.055-1.016-1.392-.42-2.937.96-3.808"/><path d="M107.59 36.378c.362.006 1.478.069 1.731.249 2.148 1.531 1.639 3.978-.734 4.768-3.724.116-4.146-4.376-.997-5.017m28.715 30.681a2.563 2.563 0 1 1 .837 5.058 2.563 2.563 0 0 1-.837-5.058m-17.703-30.7c1.361-.012 2.379.185 2.921 1.579a2.64 2.64 0 0 1-.108 2.136c-.425.847-.878 1.058-1.732 1.326-1.386.042-2.388-.172-2.924-1.643a2.62 2.62 0 0 1 .099-2.05c.4-.829.916-1.086 1.744-1.348m17.17 36.41a2.562 2.562 0 1 1 1.9 4.76 2.562 2.562 0 0 1-1.9-4.76M40.18 36.359c1.379-.032 2.387.13 2.967 1.541a2.6 2.6 0 0 1-.026 2.033c-.383.877-.799 1.141-1.645 1.461-3.84.158-4.285-4.189-1.296-5.035m95.529 47.499c1.591-.068 3.845-.064 3.799 2.483-.017.923-.843 1.819-1.585 2.353-.6.036-1.298.025-1.907.033-2.027-1.326-2.446-3.391-.307-4.869M57.077 36.347c1.325-.026 2.369.337 2.776 1.712a2.73 2.73 0 0 1-.277 2.177c-.455.774-.891.93-1.709 1.169-1.417.031-2.528-.423-2.898-1.937a2.63 2.63 0 0 1 .323-2.019c.463-.743.985-.891 1.785-1.102M1.98 82.215a2.554 2.554 0 1 1 1.34 4.93 2.554 2.554 0 0 1-1.34-4.93M1.575 87.7c.311-.023 1.417-.116 1.664-.038 2.504.798 2.663 3.603.456 4.866-1.313.118-2.354.166-3.205-1.067a2.35 2.35 0 0 1-.359-1.829c.213-.965.669-1.407 1.444-1.932m24.558-3.717c2.466-.082 3.101.307 3.736 2.645-.437 1.224-.444 1.514-1.556 2.206-3.686.335-5.125-2.938-2.18-4.851"/><path d="M45.963 36.384c1.208.023 2.225.172 2.682 1.416.647 1.767-.22 3.02-1.778 3.641-3.698-.01-4.164-4.494-.904-5.057m16.336-.044c1.317-.031 2.337.176 2.963 1.47a2.5 2.5 0 0 1 .12 1.936c-.327.941-.846 1.27-1.698 1.653-1.276.024-2.15.011-2.851-1.247a2.6 2.6 0 0 1-.205-2.011c.3-.948.814-1.389 1.671-1.801M20.61 52.88c1.329-.063 2.374-.135 3.172 1.203.311.525.392 1.156.224 1.743-.282.988-.884 1.499-1.728 1.985-1.182.139-2.211-.08-2.879-1.163a2.6 2.6 0 0 1-.305-2.019c.241-.925.751-1.283 1.516-1.749m76.159-16.502c2.812.118 2.679 1.115 2.602 3.549-.68.972-.84 1.147-1.968 1.486-2.649-.277-2.885-1.009-2.779-3.551.7-1.078.892-1.241 2.145-1.484M1.708 71.356l.553-.004c3.603-.027 3.828 4.035 1.097 4.863-3.585.105-4.558-3.253-1.65-4.859"/><path d="M102.121 36.373c.381.008 1.286.041 1.608.213.554.297.97.797 1.164 1.394.566 1.705-.399 2.985-2.009 3.475-3.57-.521-3.912-4.365-.763-5.082M1.748 65.966c1.847-.064 3.643.441 3.435 2.958-.061.743-.785 1.536-1.432 1.925-1.403.046-2.492.056-3.305-1.309-.9-1.511-.028-2.831 1.302-3.574m134.223 23.237c2.016-.14 3.754.457 3.39 3.191-.097.724-.818 1.37-1.467 1.72-1.302.169-2.292.116-3.048-1.12a2.65 2.65 0 0 1-.29-2.028c.239-.917.655-1.285 1.415-1.763M29.17 36.514c3.859-.501 4.274 3.598 1.477 4.844-3.482.14-4.714-3.359-1.477-4.844m51.927 31.995a2.527 2.527 0 1 1 .814 4.983 2.525 2.525 0 0 1-.814-4.983m48.913-32.123c2.431.189 2.828 2.691 1.551 4.441-.445.608-1.292.61-1.989.635-1.195-.244-1.997-.824-2.162-2.115a2.87 2.87 0 0 1 .654-2.202c.617-.727 1.032-.691 1.946-.759M20.147 47.665c.306-.012 1.374-.08 1.619-.004 2.557.794 3.039 3.241.793 4.678-1.273.112-2.397.183-3.288-.893-1.088-1.314-.315-2.893.876-3.781m131.468 8.944c2.757-.089 3.035 1.594 2.781 3.868-.441.665-.701.965-1.398 1.302-1.405.035-2.402-.076-3.038-1.557a2.63 2.63 0 0 1-.033-2.021c.37-.918.84-1.201 1.688-1.592m-9.495-4.01a2.512 2.512 0 1 1 1.493 4.798 2.512 2.512 0 0 1-1.493-4.798"/><path d="M24.389 38.575c3.662-.155 3.992 4.131.862 5.052-1.116-.083-2.238-.613-2.727-1.676a2.2 2.2 0 0 1-.05-1.714c.362-.939 1.054-1.295 1.915-1.662m117.316 19.764c3.687.332 3.862 4.468.81 5.259-2.983-.107-4-3.596-.81-5.259"/><path d="M136.995 61.976c3.809-.449 4.653 3.125 1.874 4.693-1.7.098-3.7-.118-3.472-2.705.068-.785.921-1.582 1.598-1.988M82.351 84.2c.629.091 1.043-.163 1.661.256 1.238.84 1.511 2.257.555 3.442-.582.722-.842.836-1.76.93-1.405.015-2.641-.403-2.912-1.977a2.2 2.2 0 0 1 .474-1.795c.602-.728 1.093-.765 1.982-.856M25.839 62.26a2.497 2.497 0 1 1 1.147 4.858 2.496 2.496 0 0 1-2.898-1.879 2.5 2.5 0 0 1 1.751-2.979M123.9 36.368c1.233-.008 2.176.052 2.834 1.254.336.619.396 1.352.163 2.017-.36 1.034-.678 1.255-1.609 1.685-3.679.402-4.178-3.606-1.388-4.956m37.455 29.469c.439 0 1.082.061 1.467.281 1.291.734 1.402 2.455.636 3.616-.53.802-1.003.839-1.914.998-2.59-.148-2.905-2.046-2.165-4.142.791-.506 1.054-.576 1.976-.753M80.779 52.624a2.494 2.494 0 1 1 1.47 4.766 2.494 2.494 0 0 1-1.47-4.766m.366-10.316c1.259.069 2.286.265 2.777 1.567a2.33 2.33 0 0 1-.084 1.867c-.4.802-.822 1.152-1.644 1.401-.45.021-1.337.032-1.734-.171a2.7 2.7 0 0 1-1.293-1.449 2.35 2.35 0 0 1 .115-1.894c.433-.826 1.028-1.071 1.863-1.321M6.712 56.895c3.552-.304 3.863 4.103.85 5.071-1.092-.16-2.121-.488-2.598-1.551-.869-1.939.286-2.825 1.748-3.52m74.084 1.079a2.485 2.485 0 1 1 1.514 4.734 2.485 2.485 0 0 1-1.514-4.734m66.007-1.247c1.282.024 2.295.676 2.59 1.963a2.88 2.88 0 0 1-.411 2.22c-.475.712-.917.841-1.707.989-3.005-.173-3.79-3.921-.472-5.172m-65.984 6.61a2.48 2.48 0 1 1 1.51 4.726 2.48 2.48 0 0 1-1.51-4.726m-60.015-20.9c3.205-.204 4.648 4.312 1.456 4.839-1.709-.014-3.547-.378-3.195-2.866.124-.879.995-1.527 1.739-1.973m6.558 25.074c.454.048.891.203 1.275.451 1.225.803 1.089 2.382.268 3.437-.683.88-1.24.858-2.256.965-3.162-.892-2.852-4.65.713-4.853m-5.485-8.987c.222-.002.476-.01.698.026a2.59 2.59 0 0 1 1.805 1.231c.917 1.56.072 3.118-1.452 3.849-3.526-.041-4.178-3.722-1.051-5.106M2.333 60.466c3.448-.214 4.258 3.213 1.512 5.033-3.368.158-4.305-2.977-1.512-5.033m157.71.312c.432-.044 1.219-.154 1.627-.007 1.21.437 2.449 1.936 1.893 3.278-.3.725-.714.983-1.411 1.277a62 62 0 0 1-1.778.166c-2.33-1.364-2.343-3.027-.331-4.714M25.636 89.339c1.727-.073 3.761.226 3.501 2.837-.073.725-.79 1.449-1.407 1.851-3.528.474-4.719-3.081-2.094-4.688m108.885-52.992c.346.026.828.059 1.158.138a2.45 2.45 0 0 1 1.54 1.175c.869 1.565-.239 2.939-1.648 3.611-3.023.704-4.167-3.686-1.05-4.924"/><path d="M16.432 56.882c.352-.023.804-.055 1.148.001a2.64 2.64 0 0 1 1.788 1.192c.879 1.368.254 2.848-1.029 3.675-2.992.584-3.225-1.119-3.201-3.527.479-.634.691-.812 1.294-1.341m140.442.293c1.405-.041 3.066.602 2.965 2.253-.07 1.126-.905 1.876-1.698 2.566-.511.054-1.096.11-1.588-.052a2.4 2.4 0 0 1-1.417-1.27 2.42 2.42 0 0 1-.03-1.912c.376-.936.909-1.186 1.768-1.585M11.227 56.74c1.973-.125 3.707.387 3.39 3.063-.095.808-.672 1.328-1.369 1.735-3.497.597-4.296-3.1-2.021-4.798m130.692-9.067c.378-.019 1.437-.1 1.763-.012 2.393.65 2.536 3.314.44 4.394-1.302.112-2.46.269-3.338-.906-.959-1.284.058-2.713 1.135-3.476M31.683 76.685c3.805.155 3.621 3.834.812 4.968-3.013-.519-4.262-3.73-.812-4.968M140.611 43.3a2.4 2.4 0 0 1-3.038-.84 2.404 2.404 0 1 1 4.038-.048l.06.549-.648.572z"/><path d="M140.611 43.3a2.4 2.4 0 0 0 1-.889l.06.55-.648.571zm16.141 59.146c3.367.035 4.342 3.089 1.319 4.627-1.329.247-2.507.05-3.01-1.373a2.74 2.74 0 0 1 .177-2.218c.383-.708.797-.826 1.514-1.036M86.282 73.87c1.392-.104 2.421.209 2.915 1.663.233.68.18 1.424-.145 2.064-.39.761-.833.941-1.599 1.193-2.507-.052-4.588-3.331-1.171-4.92M6.507 102.281c3.194-.112 4.383 3.327 1.339 4.856-3.432.157-4.2-3.308-1.339-4.856M121.18 89.344c1.344-.052 2.321-.123 3.075 1.246.323.584.389 1.276.182 1.91-.307.926-.61 1.195-1.439 1.597-1.208.158-2.035.167-2.75-.979a2.67 2.67 0 0 1-.347-2.018c.209-.908.513-1.295 1.279-1.756m20.491-46.383c1.232-.557 2.889-.715 3.386.83 1.791 5.551-7.143 3.684-4.034-.258zM77.045 77.435c-.579.353-1.609.823-2.255.463-4.537-2.527 1.779-7.942 3.072-2.475l.134.533c-.037.483-.408 1.205-.648 1.652z"/><path d="m77.862 75.423.134.533c-.037.483-.408 1.205-.648 1.652l-.303-.173c.456-.853.566-1.048.817-2.012m2.62-27.762c.373-.018 1.4-.082 1.726.023 2.299.741 2.46 3.276.458 4.409-.711.026-1.467.015-2.183.019-1.915-1.349-1.999-3.118-.001-4.451m31.197 41.673c1.969-.086 3.541.567 3.159 3.159-.103.69-.728 1.281-1.356 1.609-1.182.15-1.953.201-2.718-.852a2.66 2.66 0 0 1-.435-2.162c.223-.998.519-1.251 1.35-1.754"/><path d="M77.996 75.956c1.425-1.773 3.846-1.181 4.309 1.03.294 1.403-1.533 2.908-3.053 2.811a1.9 1.9 0 0 1-1.381-.744c-.367-.482-.52-.859-.523-1.445.24-.447.611-1.169.648-1.652m38.317 13.399c1.176-.071 2.042-.186 2.858.81.425.513.613 1.185.515 1.845-.149.935-.518 1.528-1.271 2.049-3.598.638-4.372-2.921-2.102-4.704m9.857-.012c1.921-.103 3.377.457 3.116 2.977-.081.785-.663 1.399-1.35 1.798-1.112.113-2.156.159-2.786-.991-.816-1.495-.503-2.946 1.02-3.784m4.772.007c1.921-.123 3.486.384 3.184 2.964-.09.762-.63 1.398-1.286 1.812-1.179.125-2.022.148-2.772-.917a2.56 2.56 0 0 1-.426-1.97c.206-1.107.424-1.314 1.3-1.889M19.289 109.151c3.488-.13 4.019 3.457 1.525 4.794-3.624.408-4.096-3.425-1.525-4.794m11.744-19.803c.272-.014 1.141-.072 1.356.004 2.327.811 2.241 3.815.067 4.802-3.312.296-3.997-3.455-1.423-4.806m66.391-.014c1.27-.052 2.07-.024 2.725 1.224.374.699.433 1.525.164 2.273-.271.778-.551.973-1.264 1.315-3.23.255-3.005-1.083-2.938-3.795.521-.521.682-.611 1.313-1.017m9.385.021c1.228-.083 2.124-.1 2.843 1.046a2.47 2.47 0 0 1 .327 1.864c-.214.941-.452 1.365-1.249 1.837-1.092.152-1.988.186-2.728-.761a2.52 2.52 0 0 1-.494-1.942c.183-1.167.402-1.41 1.301-2.044m-42.18-16.378c.388-.024 1.392-.112 1.724.054 2.221 1.107 2.218 3.535.042 4.607a4.4 4.4 0 0 1-1.417-.07c-1.893-.401-2.403-3.3-.349-4.591"/><path d="M59.608 72.983c1.736-.131 3.533.174 3.406 2.648-.041.787-.608 1.419-1.24 1.885-1.876.197-3.588-.23-3.443-2.797.046-.813.596-1.312 1.277-1.736m10.512-.022c3.482.074 3.825 3.885 1.148 4.76-.357.003-1.317-.009-1.593-.192-2.118-1.402-1.749-3.657.445-4.568m32.088 16.392c3.773-.242 3.821 3.682 1.661 4.771-.284.021-1.13.098-1.359.015-2.407-.877-2.324-3.571-.302-4.786M35.163 73.309a2.375 2.375 0 1 1-1.386 2.97 2.377 2.377 0 0 1 1.386-2.97m10.209 16.025c3.586-.153 3.741 3.596 1.538 4.824-2.596.167-3.579-1.229-2.827-3.76.19-.638.712-.8 1.289-1.064M91.033 72.98c2.031-.147 3.616.689 3.049 3.235-.153.687-.727 1.061-1.368 1.336-3.552.288-4.284-3.17-1.681-4.571m1.636 16.361c2.184-.099 3.405.953 2.857 3.412-.153.691-.6 1.087-1.241 1.392-2.1.207-3.378-.776-3.007-3.132.147-.936.578-1.206 1.391-1.672m-82.563 19.82c1.23-.027 2.068.205 2.551 1.468a2.74 2.74 0 0 1-.142 2.234c-.391.751-.837.917-1.596 1.173-3.357-.204-3.445-4.228-.813-4.875M35.82 89.344c3.725-.221 3.702 3.79 1.62 4.801-2.126.158-3.451-.738-3.01-3.208.158-.888.627-1.159 1.39-1.593m19.017-16.382c1.77-.085 2.15-.024 3.122 1.462.05 1.524.199 2.352-1.287 3.089-3.469.675-4.402-3.067-1.835-4.551M69.189 89.34c3.557-.204 3.738 3.703 1.534 4.818-1.211.119-2.277.045-2.789-1.196-.654-1.587-.252-2.884 1.255-3.622m-14.313.003c3.67-.217 3.762 3.641 1.549 4.808-2.369.199-3.495-1.108-2.832-3.623.183-.694.651-.886 1.283-1.185"/><path d="M14.677 109.165c3.279-.041 3.813 3.518 1.03 4.831-3.296.174-3.823-3.972-1.03-4.831M124.873 72.97c2.136-.165 3.514.687 2.904 3.251-.173.721-.725 1.092-1.399 1.391-2.349.109-3.59-1.281-2.736-3.785.185-.543.697-.674 1.231-.857M50.145 89.333c3.56-.106 3.776 3.62 1.483 4.803-1.166.144-2.257.089-2.742-1.118-.668-1.664-.229-2.897 1.259-3.685m37.718-.002c1.166-.049 2.088-.043 2.703 1.099.752 1.399.36 2.968-1.049 3.715-3.464.354-4.067-3.325-1.654-4.814m-13.917.008c3.5-.169 3.767 3.567 1.528 4.818-2.348.161-3.548-1.103-2.859-3.637.194-.714.672-.888 1.331-1.181"/><path d="M83.132 89.353c3.711-.247 3.882 3.579 1.703 4.785-3.465.378-4.114-3.372-1.703-4.785M45.196 72.971q.361-.018.723-.018c1.096.012 1.53.498 2.245 1.251.054 1.862.392 2.576-1.496 3.419-3.44.347-3.983-3.476-1.472-4.652m84.753-.018c3.4.108 3.996 3.601 1.101 4.747-3.248-.007-4.008-3.538-1.101-4.747M59.632 89.349c1.256-.074 2.167-.021 2.725 1.261.615 1.412.225 2.837-1.152 3.519-.283.022-1.227.064-1.44-.032-2.276-1.016-2.132-3.594-.133-4.748m4.752-.013c3.683-.203 3.73 3.657 1.607 4.822-2.099.146-3.381-.821-2.987-3.204.147-.89.608-1.17 1.38-1.618"/><path d="M40.281 72.974c3.495-.22 4.187 3.312 1.458 4.667-3.293.348-4.088-3.119-1.458-4.667M143.6 109.271c1.232-.064 2.07.042 2.753 1.204.337.587.422 1.286.233 1.937-.28.936-.648 1.185-1.465 1.609-1.116.074-1.868.047-2.566-.95a2.46 2.46 0 0 1-.369-2.023c.251-1.01.576-1.265 1.414-1.777m9.56-.155c1.102-.022 1.882.095 2.474 1.134.356.611.445 1.34.247 2.017-.248.88-.568 1.255-1.339 1.673-.285.036-1.077.149-1.307.048-2.386-1.035-2.285-3.736-.075-4.872M40.56 89.333c1.135-.055 1.968.013 2.616 1.068.37.596.476 1.319.293 1.996-.265 1.004-.579 1.279-1.435 1.754-1.047.119-2.048.059-2.55-.984-.779-1.618-.429-2.974 1.076-3.834m110.845 13.293c1.712.045 3.664.432 3.131 2.976-.164.786-.803 1.238-1.527 1.56-.423.028-1.227.101-1.61-.082-1.917-.914-2.119-3.662.006-4.454m-95.29.118c1.255-.066 2.491-.249 3.255.997.747 1.221.121 2.691-1.034 3.379-1.8.207-3.499-.098-3.343-2.632.046-.76.478-1.33 1.122-1.744m-15.009.001c1.251-.107 2.335-.251 3.191.864.934 1.216.3 2.596-.799 3.413-3.697.824-4.513-2.996-2.392-4.277"/><path d="M36.066 102.745c.337-.017 1.524-.114 1.771-.034 2.451.797 2.28 3.105.577 4.324-3.683.795-4.49-2.981-2.348-4.29m59.859-29.769c1.932-.134 3.489.428 3.112 2.981-.116.786-.714 1.261-1.415 1.618-3.372.219-4.153-3.099-1.697-4.599M16.437 102.6c1.324-.023 2.399.001 3.022 1.362.658 1.436-.244 2.551-1.463 3.146-1.411.118-2.334-.049-2.897-1.517a2.42 2.42 0 0 1 .089-1.975c.314-.622.632-.807 1.249-1.016m93.757-29.632c1.749-.116 3.432.243 3.286 2.662-.046.762-.595 1.439-1.222 1.883-1.994.18-3.629-.435-3.267-3.059.097-.7.592-1.131 1.203-1.486M78.541 89.339c3.528-.2 3.886 3.505 1.519 4.837-3.401.281-3.827-3.322-1.519-4.837M49.957 72.976c.459-.027 1.265-.117 1.675.087 1.862.929 2.161 3.617.07 4.47-3.326.651-4.15-3.097-1.745-4.557m-23.995 29.781c.4-.043 1.426-.148 1.78-.073 2.273.487 2.405 3.146.592 4.302-3.262.863-4.69-2.506-2.372-4.229m74.686-29.792c1.091-.052 1.893-.165 2.687.724 1.122 1.256.65 2.859-.633 3.806-2.033.214-3.596-.381-3.249-3.046.09-.692.595-1.122 1.195-1.484"/><path d="M11.558 102.601c3.501-.135 4.024 3.279 1.524 4.558-3.529.207-4.232-3.287-1.524-4.558m19.441.159c1.275-.122 2.362-.281 3.206.884.864 1.194.304 2.595-.808 3.37-3.271.822-4.631-2.487-2.398-4.254m15.142-.022c1.278-.061 2.515-.228 3.302 1.055.295.474.375 1.05.22 1.586-.28.985-.548 1.254-1.392 1.722-3.271.54-4.269-2.952-2.13-4.363m73.768-29.756c1.262-.088 2.127-.201 2.849 1.042a2.43 2.43 0 0 1 .245 1.854c-.257.978-.535 1.307-1.373 1.782-1.086-.054-1.916-.006-2.564-1.036-.896-1.423-.561-2.798.843-3.642m26.293 29.762c.323-.025 1.57-.119 1.859-.037 2.101.6 2.13 3.355.406 4.397-3.544.513-4.395-2.873-2.265-4.36m-40.605-29.758c1.237-.094 2.054-.161 2.791 1.002.331.51.441 1.133.307 1.726-.212.916-.474 1.355-1.245 1.828-1.284.113-2.262.112-2.907-1.17-.643-1.278-.306-2.798 1.054-3.386M70.71 102.744c1.473-.071 3.447-.135 3.427 2.271-.007.773-.546 1.632-1.186 2.102-1.794.229-3.504-.155-3.421-2.612.024-.71.595-1.352 1.18-1.761"/><path d="M51.243 102.734c1.356-.054 3.45-.127 3.5 2.125.017.762-.62 1.739-1.228 2.231-3.736.606-4.403-2.947-2.272-4.356m97.452 6.384c3.218.282 3.545 3.867.811 4.918-2.953.062-3.668-3.656-.811-4.918m-33.569-36.147c1.77-.112 3.323.328 3.131 2.742-.066.814-.585 1.405-1.285 1.832-1.338.084-2.258.045-2.905-1.299-.623-1.292-.245-2.656 1.059-3.275m-49.467 29.791c1.209-.07 2.087-.276 3.059.629 1.148 1.071.482 2.724-.515 3.644-3.404.931-4.502-2.542-2.544-4.273m28.928-.011q.581-.028 1.162-.04c2.627-.04 3.007 2.81 1.088 4.396-3.43.531-4.452-2.654-2.25-4.356m-73.683-.003c1.269-.131 2.503-.309 3.276.923.713 1.136.23 2.584-.835 3.29-3.268.851-4.47-2.255-2.441-4.213m106.656.006c.417-.02 1.061-.092 1.454-.049 2.517.277 2.444 3.171.814 4.391-1.186.169-2.186.28-2.923-.835-.779-1.179-.57-2.74.655-3.507m20.903 12.222c3.432-.516 4.06 2.888 1.652 4.533-3.224.402-4.019-3.165-1.652-4.533m-138.899-.171c1.037-.05 1.852-.205 2.611.669 1.142 1.315.467 2.859-.677 3.889-.954.238-1.84.164-2.518-.622a2.5 2.5 0 0 1-.58-1.952c.118-.981.431-1.403 1.164-1.984m108.66-12.06c1.588-.099 3.581-.026 3.349 2.462-.074.792-.577 1.449-1.255 1.88-3.688.624-4.057-3.264-2.094-4.342"/><path d="M61.042 102.745c1.112-.067 2.205-.259 2.957.731.911 1.198.306 2.825-.815 3.631-1.98.293-3.416-.387-3.204-2.797.064-.734.441-1.178 1.062-1.565m14.593-.007c1.111-.04 1.976-.244 2.768.712 1.002 1.208.413 2.768-.682 3.687-1.214.113-2.207.217-2.934-.944-.77-1.231-.407-2.74.848-3.455m23.681.009c.312-.016 1.378-.097 1.638-.03 2.171.552 2.223 3.261.535 4.366-1.164.198-2.108.286-2.852-.77-.875-1.237-.509-2.713.679-3.566m42.076-.006c1.303-.069 3.448-.264 3.48 2.027.012.926-.485 1.77-1.192 2.382-1.082.065-1.816.245-2.621-.663-1.072-1.21-.871-2.717.333-3.746m-27.97.016c1.191-.065 2.294-.293 3.066.853.3.444.407.99.298 1.514-.201 1.027-.399 1.433-1.217 1.969-3.595.609-4.063-3.154-2.147-4.336m-23.501-.015c1.111-.056 2.24-.257 2.958.798.804 1.181.247 2.735-.798 3.546-3.647.589-4.206-3.049-2.16-4.344"/><path d="M85.18 102.743c1.118-.05 2.171-.255 2.92.775.886 1.216.312 2.764-.814 3.586-3.62.577-4.114-3.132-2.106-4.361m23.501.004c1.702-.092 3.64-.072 3.285 2.608-.105.805-.346 1.31-1.037 1.771-1.627.18-3.346-.122-3.352-2.371-.003-.807.481-1.496 1.104-2.008m-4.604 0c1.206-.074 2.206-.243 2.928.914.75 1.204.212 2.727-.942 3.443-3.428.539-4.198-2.927-1.986-4.357m28.094 0c1.163-.07 2.303-.31 3.077.784.309.441.424.989.315 1.517-.226 1.115-.372 1.486-1.248 2.08-1.7.151-3.034-.108-3.16-2.384-.045-.778.427-1.482 1.016-1.997"/><path d="M80.378 102.738c.373-.018 1.022-.073 1.36-.024 2.493.359 2.48 3.132.817 4.385-.332.049-1.208.161-1.508.072-2.088-.615-2.468-3.256-.669-4.433m42.578.012c.338-.022 1.351-.095 1.607-.024 2.378.654 2.157 3.114.556 4.332-3.647.672-4.109-3.077-2.163-4.308m14.03-.014c1.154-.049 2.069-.26 2.851.777.35.459.49 1.042.384 1.61-.2 1.062-.362 1.412-1.203 1.987-2.309.265-3.578-.62-3.014-3.309.132-.631.426-.771.982-1.065m16.088 12.059c1.997-.112 3.303.54 2.908 2.98-.138.857-.753 1.301-1.496 1.698-2.826.353-3.602-3.05-1.412-4.678m-138.531-.003c.947-.04 1.855.088 2.44.918.384.545.512 1.231.349 1.879-.25 1.039-.701 1.384-1.564 1.88a3 3 0 0 1-.829-.02c-2.344-.376-2.574-3.34-.396-4.657m4.703-.015c3.085-.104 3.494 3.285 1.102 4.711-2.597.152-2.585-1.225-2.527-3.349.571-.722.638-.877 1.425-1.362m124.767.167c.961-.054 1.7-.114 2.348.718a2.34 2.34 0 0 1 .449 1.874c-.19 1.036-.436 1.368-1.234 1.952-3.298.256-3.728-3.269-1.563-4.544m47.259-8.028a20 20 0 0 1-.364-1.81c-.364-2.557-.056-5.671-.005-8.261.026-1.377-.359-3.159.443-4.239l.021 9.537c.001.902.052 3.999-.095 4.773m-4.317-60.827c1.119.063 1.916.74 2.076 1.863a3.22 3.22 0 0 1-.693 2.465c-.607.731-1.169.742-2.045.806-2.855-.577-3.019-3.008-1.197-4.955.589-.091 1.258-.129 1.859-.179m-1.255-5.557c3.94-.293 4.356 3.976 1.751 5.059-1.395.055-2.55-.005-3.282-1.355-.886-1.633.086-2.991 1.531-3.704m-.463 53.29c.313-.022 1.516-.136 1.746-.068 2.827.82 2.797 3.386.651 4.854-3.833.73-4.966-3.167-2.397-4.786m14.358-63.568c3.195.034 3.655 4.359.521 5.086-2.448-.005-3.836-1.437-2.596-4.041.337-.707 1.34-.901 2.075-1.045m3.617-15.61c.442-.032 1.151.005 1.516.281 1.225.929 1.28 2.95.346 4.097-.479.589-.969.595-1.649.67-.679.013-1.128.046-1.719-.34a2.4 2.4 0 0 1-1.061-1.632 2.72 2.72 0 0 1 .6-2.174c.629-.77 1.009-.782 1.967-.902m-17.69 73.799c1.857-.055 3.876.473 3.551 3.118-.089.731-.877 1.398-1.515 1.764-1.852.1-3.84-.192-3.663-2.919.056-.856.914-1.524 1.627-1.963m.58-31.538c3.544-.273 4.04 4.076 1.051 4.937-2.136.01-3.968-1.127-3.001-3.712.271-.725 1.233-1.028 1.95-1.225m-.582 15.782c.682-.036 1.454-.024 2.145-.03 1.709 1.368 2.112 4.056-.192 4.8-1.314.187-2.28.213-3.141-.963a2.3 2.3 0 0 1-.385-1.882c.226-.981.763-1.435 1.573-1.925m2.148-42.286c3.831-.466 4.611 3.846 1.573 4.896-.305.012-1.365.068-1.589-.037-2.331-1.09-2.409-3.874.016-4.859m-2.466 53.002c.412-.036 1.564-.163 1.944-.063 2.408.633 2.786 3.511.617 4.714-.458.024-1.265.094-1.686-.009-2.54-.621-3.157-3.258-.875-4.642m.328-21.144c1.97-.109 4.018.493 3.47 3.267-.149.753-.939 1.271-1.642 1.564-1.262.097-2.179.115-3.014-1.027a2.3 2.3 0 0 1-.4-1.866c.216-.991.774-1.449 1.586-1.938m.005 15.772c.384-.014 1.472-.084 1.804.022 2.243.719 2.411 3.91.136 4.713-1.897.086-4.195-.411-3.497-3.263.167-.68.92-1.179 1.557-1.472m.642-26.461c3.575-.05 3.745 3.968.896 4.865-.603.037-1.477.151-1.961-.223-2.116-1.636-1.558-4.174 1.065-4.642"/><path d="M193.665 30.25c2.307.148 3.623 1.598 2.594 4.076-.264.641-.881.805-1.537.966-1.358.088-2.422-.034-2.974-1.489a2.7 2.7 0 0 1 .095-2.086c.432-.921.924-1.143 1.822-1.467m10.57-5.045c.335-.025 1.371-.106 1.603.05 2.011 1.351 1.905 4.166-.581 4.834-3.865.181-4.215-4.158-1.022-4.884m-21.701 5.2c3.629-.151 3.875 3.829 1.194 4.923-.406.002-1.619.025-1.904-.183-2.319-1.689-1.892-3.953.71-4.74m23.087.039c2.755-.39 3.282 4.004-.295 4.89-.589-.083-1.343-.183-1.803-.581a2.5 2.5 0 0 1-.849-1.736 2.56 2.56 0 0 1 .699-1.871c.649-.696 1.34-.639 2.248-.702m-3.387-21.191c3.125.49 3.588 4.753.036 5.103-3.124.001-3.845-4.096-.036-5.103m-17.156 89.925q.621-.032 1.243-.047c2.873-.035 3.733 2.699 1.413 4.697-1.355.157-2.486.192-3.388-.98-1.039-1.347-.41-2.728.732-3.67m-13.453-68.777c.516-.015 1.113-.061 1.594.129a2.57 2.57 0 0 1 1.41 1.388c.28.652.266 1.392-.038 2.033-.358.777-.751 1.024-1.507 1.329-1.321.055-2.333.14-3.035-1.258a2.52 2.52 0 0 1-.13-1.947c.345-1.04.765-1.219 1.706-1.674m29.627-26.202c.926.018 1.221.357 1.896.996.993 2.653.361 3.524-2.215 4.032-2.807-.126-3.661-4.233.319-5.028m-15.754 63.418c.327-.022 1.531-.119 1.77-.037 2.575.881 2.487 3.493.193 4.584-3.61.6-4.855-2.869-1.963-4.547m18.137-47.624c2.297-.105 3.494 1.506 2.584 3.817-.196.501-.903.796-1.424.918-2.147.159-4.051-.808-3.08-3.497.238-.664 1.246-1.062 1.92-1.238m-18.383 84.39c.538-.026 1.466-.107 1.959.035 1.091.316 2.173 1.452 1.825 2.653a3.16 3.16 0 0 1-1.428 1.832c-.419.036-.967.09-1.381.081a2.7 2.7 0 0 1-1.98-.947c-1.132-1.338-.154-2.782 1.005-3.654"/><path d="M176.945 30.389c3.456-.119 4.44 3.483 1.497 4.895-.296.011-1.434.071-1.641-.041-2.312-1.243-2.19-3.836.144-4.854m-8.02-15.781c1.992.227 3.444 1.21 2.688 3.659-.219.709-.939 1.16-1.636 1.407l-.137.001-.227-.003c-1.23-.008-2.099-.282-2.549-1.57a2.56 2.56 0 0 1 .119-1.962c.42-.847.883-1.227 1.742-1.532m17.393 94.681a2.496 2.496 0 1 1 .551 4.961 2.496 2.496 0 0 1-.551-4.961M169.66 9.396c3.718-.181 4.314 3.462 1.472 4.985-2.249-.003-2.713-.421-3.167-2.507.324-1.417.403-1.772 1.695-2.478m-2.904 15.899a2.483 2.483 0 1 1 1.623 4.694 2.483 2.483 0 0 1-1.623-4.694m18.321 10.167c.458-.032 1.338-.121 1.744.02 2.514.876 2.489 3.331.287 4.497-3.697.56-4.815-3.106-2.031-4.517m16.645 75.873c2.569-.005 4.281 4.195.438 5.241-1.767-.02-2.108-.811-2.781-2.238.632-1.6.843-2.13 2.343-3.003m-9.414-2.924c3.569.217 3.49 3.955.742 4.979l-.136-.015-.228-.031c-2.974-.376-3.858-3.942-.378-4.933m-17.559.571c3.137.023 3.826 4.177.545 5.089-1.914-.23-2.195-.873-2.758-2.564l.043-.13c.485-1.451.706-1.881 2.17-2.395m-8.596-78.584c.414-.003 1.358-.027 1.697.137 2.227 1.069 2.23 3.774-.15 4.618-1.155.041-1.946-.036-2.687-1.047a2.3 2.3 0 0 1-.414-1.822c.197-.971.767-1.399 1.554-1.886M197.377.158c3.28.22 4.406 2.763 1.37 4.77-1.181.398-2.309.031-2.845-1.138a2.95 2.95 0 0 1-.064-2.263c.332-.852.74-1.031 1.539-1.369m-26.746 4.327c2.911-.196 5.043 2.744 1.878 4.711-3.575.199-4.68-3.007-1.878-4.711m-2.823 15.513c1.394.122 2.254.22 2.89 1.633.668 1.486-.268 2.654-1.596 3.205-.461.001-1.383.036-1.77-.182-1.963-1.104-1.503-3.883.476-4.656"/><path d="M197.787 109.015c.975.098 1.808.394 2.221 1.35.269.64.259 1.362-.027 1.995-.387.873-.859 1.268-1.722 1.573-3.622.027-3.738-4.529-.472-4.918m-27.524 2.338c2.837.078 3.587 3.722.528 5.152-3.377-.39-3.512-3.718-.528-5.152M191.921.044c1.662-.157 3.469.068 3.436 2.477-.01.82-.698 1.537-1.361 2.003-1.239.15-2.159.185-2.963-.942a2.18 2.18 0 0 1-.384-1.638c.173-.974.509-1.355 1.272-1.9m-4.932-.007c1.676-.09 3.687.206 3.343 2.768-.096.716-.766 1.341-1.405 1.696-1.152.202-2.133.127-2.871-.883a2.3 2.3 0 0 1-.391-1.9c.206-.914.574-1.222 1.324-1.681m-12.768 114.607c3.581-.354 3.766 3.579 1.351 4.808-3.176-.101-4.236-3.204-1.351-4.808m23.337-.011c1.065.169 1.676.352 2.208 1.375.315.612.344 1.331.085 1.968-.367.912-.893 1.141-1.74 1.487-2.264.123-3.148-1.252-2.343-3.471.285-.783 1.039-1.081 1.79-1.359"/><path d="M182.143.052c.303-.021 1.241-.102 1.497-.006 2.309.871 2.407 3.433.231 4.486-1.212.186-2.149-.01-2.8-1.166a2.55 2.55 0 0 1-.196-2.013c.229-.738.622-.938 1.268-1.301m-2.807 108.64c3.323-.137 3.934 3.321 1.138 4.739-2.902.14-4.035-3.067-1.138-4.739m12.919 6.393c3.204-.272 3.808 3.303 1.581 4.729-1.835.104-3.285-.311-3.048-2.782.086-.915.693-1.475 1.467-1.947m-12.92-.007c1.188-.017 1.855.214 2.287 1.415a3.05 3.05 0 0 1-.185 2.453c-.347.657-.664.768-1.341.989-3.312-.197-3.605-3.646-.761-4.857M177.463.053c1.179-.089 2.112-.116 2.824 1.019.314.509.41 1.122.267 1.703-.244 1.036-.641 1.312-1.487 1.853-3.06.28-4.084-3.13-1.604-4.575"/><path d="M187.933 115.087c3.346.198 3.352 4.103 1.154 4.827-.303-.006-1.287-.003-1.52-.143-2.112-1.277-1.708-3.735.366-4.684"/><path d="M183.798 115.081c2.995.41 3.118 4.185.606 4.919-3.064-.231-3.175-3.979-.606-4.919M174.213.602c2.306.079 2.385 2.517 1.218 3.974-.424.53-1.037.53-1.669.557-3.334-1.575-2.238-3.283.451-4.531m17.343 40.827c2.493.919 4.075 2.284 2.286 4.914-.683.478-1.292.849-2.018.332-.598-1.114-.31-3.817-.268-5.246m.598-4.333q.16-.008.319-.011c2.599-.051 3.041 2.733 1.296 4.222-1.999.542-2.554-.453-2.472-2.461.033-.811.211-1.241.857-1.75"/></g></svg>